G04 DipTrace 3.1.0.1*
G04 BottomMask.gbr*
%MOIN*%
G04 #@! TF.FileFunction,Soldermask,Bot*
G04 #@! TF.Part,Single*
%AMOUTLINE1*
4,1,4,
0.01378,-0.03937,
-0.01378,-0.03937,
-0.01378,0.03937,
0.01378,0.03937,
0.01378,-0.03937,
0*%
%AMOUTLINE4*
4,1,4,
-0.03937,-0.01378,
-0.03937,0.01378,
0.03937,0.01378,
0.03937,-0.01378,
-0.03937,-0.01378,
0*%
%ADD19C,0.086614*%
%ADD43C,0.11811*%
%ADD44C,0.157*%
%ADD45C,0.067*%
%ADD54R,0.066929X0.066929*%
%ADD56C,0.066929*%
%ADD60O,0.047244X0.090551*%
%ADD62O,0.047244X0.07874*%
%ADD66C,0.107874*%
%ADD68C,0.067874*%
%ADD70R,0.067874X0.067874*%
%ADD72R,0.082677X0.062992*%
%ADD74R,0.066929X0.149606*%
%ADD77R,0.03937X0.070866*%
%ADD79R,0.070866X0.03937*%
%ADD81R,0.066929X0.059055*%
%ADD83R,0.059055X0.066929*%
%ADD85R,0.106299X0.145669*%
%ADD87C,0.094488*%
%ADD90OUTLINE1*%
%ADD93OUTLINE4*%
%FSLAX26Y26*%
G04*
G70*
G90*
G75*
G01*
G04 BotMask*
%LPD*%
D87*
X1025591Y2913387D3*
X1222441D3*
X1124016D3*
X1025591Y2342521D3*
X1222441D3*
D85*
X897638Y2618112D3*
X1350394Y2614175D3*
D83*
X1881201Y1306202D3*
X1956004D3*
X1881201Y1412451D3*
X1956004D3*
X1881201Y1518701D3*
X1956004D3*
D81*
X1243612Y2006031D3*
Y1931228D3*
X1956102Y1612550D3*
Y1687353D3*
D83*
Y1200049D3*
X1881299D3*
D79*
X1068630Y1981034D3*
Y2114892D3*
D77*
X2299751Y1906042D3*
X2165892D3*
X2682774Y2051591D3*
X2816633D3*
X3432696D3*
X3566554D3*
D79*
X524937Y1168619D3*
Y1302478D3*
X1274858Y1168619D3*
Y1302478D3*
X2306000Y1168619D3*
Y1302478D3*
X2774701Y1168619D3*
Y1302478D3*
X3537121Y1168619D3*
Y1302478D3*
X523123Y458008D3*
Y591866D3*
X1279294Y458008D3*
Y591866D3*
X2022966Y458008D3*
Y591866D3*
X2772887Y458008D3*
Y591866D3*
X3504060Y458008D3*
Y591866D3*
D90*
X1506201Y2324951D3*
X1537697D3*
X1569193D3*
X1600688D3*
X1632185D3*
X1663680D3*
X1695177D3*
X1726673D3*
X1758169D3*
X1789665D3*
X1821161D3*
D93*
X1888091Y2258022D3*
Y2226526D3*
Y2195030D3*
Y2163534D3*
Y2132039D3*
Y2100542D3*
Y2069046D3*
Y2037550D3*
Y2006054D3*
Y1974558D3*
Y1943062D3*
D90*
X1821161Y1876133D3*
X1789665D3*
X1758169D3*
X1726673D3*
X1695177D3*
X1663681D3*
X1632184D3*
X1600689D3*
X1569193D3*
X1537697D3*
X1506201D3*
D93*
X1439272Y1943062D3*
Y1974558D3*
Y2006054D3*
Y2037550D3*
Y2069046D3*
Y2100543D3*
Y2132038D3*
Y2163535D3*
Y2195030D3*
Y2226526D3*
Y2258022D3*
D19*
X2331693Y3000591D3*
Y2900591D3*
Y2800591D3*
Y3100591D3*
D43*
X2494193Y2825571D3*
X3656693Y3075571D3*
D74*
X1337352Y2799698D3*
X1514517D3*
D72*
X1956201Y1018701D3*
X1782972D3*
Y1113189D3*
X1956201D3*
D81*
X1917323Y2730315D3*
Y2655512D3*
D83*
X1643570Y2699709D3*
X1718373D3*
X799908Y2480982D3*
X725105D3*
D81*
X1068630Y2555974D3*
Y2481171D3*
X1181118Y2555974D3*
Y2481171D3*
D70*
X518688Y2480982D3*
D68*
X618688D3*
D66*
X2400000Y2150000D3*
X2150000Y2050000D3*
D44*
X2250000Y2250000D3*
D45*
X2050000D3*
X2450000D3*
D66*
X3150000Y2150000D3*
X2900000Y2050000D3*
D44*
X3000000Y2250000D3*
D45*
X2800000D3*
X3200000D3*
D66*
X3900000Y2150000D3*
X3650000Y2050000D3*
D44*
X3750000Y2250000D3*
D45*
X3550000D3*
X3950000D3*
D66*
X900000Y1400000D3*
X650000Y1300000D3*
D44*
X750000Y1500000D3*
D45*
X550000D3*
X950000D3*
D66*
X1650000Y1400000D3*
X1400000Y1300000D3*
D44*
X1500000Y1500000D3*
D45*
X1300000D3*
X1700000D3*
D66*
X2400000Y1400000D3*
X2150000Y1300000D3*
D44*
X2250000Y1500000D3*
D45*
X2050000D3*
X2450000D3*
D66*
X3150000Y1400000D3*
X2900000Y1300000D3*
D44*
X3000000Y1500000D3*
D45*
X2800000D3*
X3200000D3*
D66*
X3900000Y1400000D3*
X3650000Y1300000D3*
D44*
X3750000Y1500000D3*
D45*
X3550000D3*
X3950000D3*
D66*
X900000Y650000D3*
X650000Y550000D3*
D44*
X750000Y750000D3*
D45*
X550000D3*
X950000D3*
D66*
X1650000Y650000D3*
X1400000Y550000D3*
D44*
X1500000Y750000D3*
D45*
X1300000D3*
X1700000D3*
D66*
X2400000Y650000D3*
X2150000Y550000D3*
D44*
X2250000Y750000D3*
D45*
X2050000D3*
X2450000D3*
D66*
X3150000Y650000D3*
X2900000Y550000D3*
D44*
X3000000Y750000D3*
D45*
X2800000D3*
X3200000D3*
D66*
X3900000Y650000D3*
X3650000Y550000D3*
D44*
X3750000Y750000D3*
D45*
X3550000D3*
X3950000D3*
D62*
X1472441Y3007087D3*
D60*
Y3164567D3*
D62*
X1913386Y3007087D3*
D60*
Y3164567D3*
D56*
X518701Y2937451D3*
Y2837451D3*
Y2737451D3*
X618701D3*
Y2837451D3*
D54*
Y2937451D3*
M02*
