G04 DipTrace 3.1.0.1*
G04 Bottom.gbr*
%MOIN*%
G04 #@! TF.FileFunction,Copper,L2,Bot*
G04 #@! TF.Part,Single*
%AMOUTLINE0*
4,1,4,
0.009843,-0.035433,
-0.009843,-0.035433,
-0.009843,0.035433,
0.009843,0.035433,
0.009843,-0.035433,
0*%
%AMOUTLINE3*
4,1,4,
-0.035433,-0.009843,
-0.035433,0.009843,
0.035433,0.009843,
0.035433,-0.009843,
-0.035433,-0.009843,
0*%
G04 #@! TA.AperFunction,Conductor*
%ADD13C,0.019685*%
%ADD14C,0.012992*%
%ADD15C,0.023622*%
G04 #@! TA.AperFunction,CopperBalancing*
%ADD18C,0.025*%
G04 #@! TA.AperFunction,ComponentPad*
%ADD19C,0.086614*%
%ADD20R,0.098425X0.137795*%
%ADD21R,0.051181X0.059055*%
%ADD22R,0.059055X0.051181*%
%ADD24R,0.062992X0.031496*%
%ADD26R,0.031496X0.062992*%
G04 #@! TA.AperFunction,ComponentPad*
%ADD28C,0.07874*%
%ADD29R,0.059055X0.141732*%
%ADD31R,0.074803X0.055118*%
G04 #@! TA.AperFunction,ComponentPad*
%ADD32R,0.06X0.06*%
%ADD33C,0.06*%
%ADD34C,0.1*%
%ADD36O,0.03937X0.070866*%
%ADD37O,0.03937X0.082677*%
%ADD39C,0.059055*%
%ADD40R,0.059055X0.059055*%
G04 #@! TA.AperFunction,ViaPad*
%ADD41C,0.04*%
%ADD89OUTLINE0*%
%ADD92OUTLINE3*%
%FSLAX26Y26*%
G04*
G70*
G90*
G75*
G01*
G04 Bottom*
%LPD*%
X1424843Y1806052D2*
D13*
X1168619D1*
X1068630Y1906042D1*
Y1981034D1*
X1663681Y1876133D2*
Y1806201D1*
D14*
X1674950D1*
X2299751Y1806052D2*
D15*
Y1856047D1*
Y1906042D1*
X2682774Y2051591D2*
Y2320274D1*
X2743701Y2381201D1*
X3261941D1*
X3432696Y2210446D1*
Y2051591D1*
X2682774D2*
X2597906D1*
X2524727Y2124769D1*
Y2318499D1*
X2462234Y2380992D1*
X2174764D1*
X2124769Y2330997D1*
Y2206010D1*
X2299751Y2031029D1*
Y1906042D1*
X1274858Y1168619D2*
X1262360D1*
X1224864Y1131123D1*
X568682D2*
X531186Y1168619D1*
X524937D1*
X2774701D2*
X2762202D1*
X2724706Y1131123D1*
X2306000Y1168619D2*
X2293501D1*
X2256005Y1131123D1*
X3537121Y1168619D2*
X3518373D1*
X3480877Y1131123D1*
X1632184Y1876133D2*
D13*
Y1782168D1*
X1487336Y1637320D1*
X1324853D1*
X1199866Y1512333D1*
Y1156121D1*
X1224864Y1131123D1*
X1279294Y458008D2*
D15*
Y456194D1*
X1074879D1*
X1043633Y487441D1*
Y1431092D1*
X1293741Y1681201D1*
D14*
X1468723D1*
X1600689Y1813167D1*
Y1876133D1*
X1043633Y487441D2*
D15*
X1012386Y456194D1*
X523123D1*
Y458008D1*
X2022966D2*
Y456194D1*
X1279294D1*
X2772887Y458008D2*
Y456194D1*
X2022966D1*
X3504060Y458008D2*
X2772887D1*
X1956004Y1412451D2*
X1956102Y1200049D1*
X1439272Y2226526D2*
D14*
X1494196D1*
X1562699Y2158022D1*
X1606201D1*
X1632185Y2184007D1*
Y2324951D1*
X1243612Y1931228D2*
Y1943790D1*
X1256201Y1931201D1*
X1331201D1*
Y1856201D1*
X1956004Y1412451D2*
D15*
Y1625147D1*
D14*
X1956102Y1625049D1*
Y1612550D1*
X1956004Y1518701D2*
Y1412451D1*
X1899793Y1599824D2*
X1956004D1*
Y1518701D1*
X1821161Y1876133D2*
Y1721155D1*
X1899793Y1642524D1*
Y1599824D1*
X1888091Y2163534D2*
X1789668D1*
X1763684Y2137550D1*
Y2041526D1*
X1821161Y1984049D1*
Y1876133D1*
X1981034Y2799698D2*
Y2201554D1*
X1943014Y2163534D1*
X1888091D1*
X1632185Y2324951D2*
D13*
Y2630217D1*
D14*
X1631201Y2631201D1*
X1331201Y1931201D2*
X1374558Y1974558D1*
X1439272D1*
X1956004Y1306202D2*
X1956102Y1200049D1*
D15*
X1956201Y1113189D1*
X518701Y2737451D2*
D14*
Y2480982D1*
X518688D1*
X1222441Y2342521D2*
D13*
Y2333420D1*
X1224864Y2330997D1*
Y2212260D1*
X1127496Y2114892D1*
X1068630D1*
X2900000Y1300000D2*
D15*
X2774701D1*
Y1302478D1*
X2900000Y550000D2*
D14*
Y591866D1*
D15*
X2772887D1*
X2150000Y2050000D2*
X2165892Y2034108D1*
Y1906042D1*
X1439272Y2163535D2*
D13*
X1386076D1*
X1331102Y2218509D1*
Y2362244D1*
X1274858Y2418488D1*
X1049882D1*
X1025591Y2394197D1*
Y2342521D1*
X900000Y1400000D2*
D15*
X868701D1*
Y650000D1*
X900000D1*
X1025591Y2342521D2*
X868701Y2185631D1*
Y1400000D1*
X1599824Y2074774D2*
D14*
X1542560Y2132038D1*
X1439272D1*
X1650000Y1400000D2*
D15*
X1618701D1*
Y650000D1*
X1650000D1*
X2400000Y2150000D2*
X2368701D1*
Y1400000D1*
X2400000D1*
X1362349Y2112270D2*
D14*
X1356100D1*
X1367827Y2100543D1*
X1439272D1*
X2368701Y1400000D2*
D15*
Y650000D1*
X2400000D1*
X1181201Y2068701D2*
D13*
X1439272Y2069046D1*
X3150000Y650000D2*
D15*
X3118701D1*
Y1400000D1*
X3150000D1*
D14*
X3118701D1*
D15*
Y2150000D1*
D14*
X3150000D1*
X2150000Y1300000D2*
D15*
X2306000D1*
Y1302478D1*
X1400000Y1300000D2*
X1274858D1*
Y1302478D1*
X1400000Y550000D2*
Y591866D1*
X1279294D1*
X3650000Y1300000D2*
X3537121D1*
Y1302478D1*
X2150000Y550000D2*
D14*
Y591866D1*
D15*
X2022966D1*
X650000Y550000D2*
D14*
Y591866D1*
D15*
X523123D1*
X650000Y1300000D2*
X524937D1*
Y1302478D1*
X3650000Y550000D2*
D14*
Y591866D1*
D15*
X3504060D1*
X618701Y2937451D2*
D14*
Y2980953D1*
X637425Y2999677D1*
X1268609D1*
X1349850Y2918436D1*
X1537331D1*
X1643315Y2812451D1*
X1737451D1*
X1749951Y2824951D1*
X1799547D1*
X1821161Y2803337D1*
Y2324951D1*
X1787304Y2243507D2*
X1789665D1*
Y2324951D1*
X1181118Y2555974D2*
Y2793449D1*
X1224864Y2837194D1*
Y2913387D1*
X1222441D1*
X1569193Y1876133D2*
Y1825416D1*
X1468588Y1724811D1*
X1137373D1*
X962391Y1899793D1*
Y2156016D1*
X1074879Y2268504D1*
X1106126D1*
X1025591Y2913387D2*
Y2836488D1*
X1068630Y2793449D1*
Y2555974D1*
X1106126Y2343496D2*
X1131123D1*
X1168619Y2306000D1*
Y2237257D1*
X1118625Y2187262D1*
X1049882D1*
X1006136Y2143517D1*
Y1912291D1*
X1156121Y1762307D1*
X1462339D1*
X1537331Y1837299D1*
Y1875766D1*
X1537697Y1876133D1*
X2062276Y2056026D2*
X2062450Y1687451D1*
X1812302Y2099772D2*
X1818551D1*
X1819322Y2100542D1*
X1888091D1*
X2062450Y1687451D2*
X1956102D1*
Y1687353D1*
X1782972Y1113189D2*
X1781055D1*
Y1174869D1*
X1768556Y1187367D1*
Y1575094D1*
X1687450Y1656201D1*
X1743701Y1756201D2*
Y1656201D1*
X1806052Y1593849D1*
Y1218849D1*
X1824950Y1199951D1*
X1881201D1*
Y1043476D1*
X1905976Y1018701D1*
X1956201D1*
X2018530Y1749808D2*
Y2118520D1*
X2005010Y2132039D1*
X1888091D1*
X1343701Y2024951D2*
X1250033D1*
X1243612Y2018530D1*
Y2006031D1*
X1562450Y2024951D2*
X1639109D1*
X1663680Y2049522D1*
Y2324951D1*
X2900000Y2050000D2*
D15*
X2816633D1*
Y2051591D1*
X1756201Y2406201D2*
D14*
X1758169D1*
Y2324951D1*
X1581076Y2218509D2*
X1600688Y2238121D1*
Y2324951D1*
X1918541Y2474732D2*
X1917323Y2475950D1*
Y2655512D1*
X1637450Y2912451D2*
Y2893308D1*
X1674558Y2856201D1*
X1706201D1*
X1856201D1*
X1917323Y2795079D1*
Y2730315D1*
X3650000Y2050000D2*
X3624612D1*
D15*
X3566554D1*
Y2051591D1*
X618701Y2737451D2*
D14*
X618688Y2480982D1*
X1868701Y2356201D2*
X1918701D1*
X1949787Y2325114D1*
Y2249756D1*
X1926558Y2226526D1*
X1888091D1*
X618688Y2480982D2*
X725105D1*
X1774806Y2705958D2*
X1718373D1*
Y2699709D1*
X1643570D2*
X1612323D1*
X1569193Y2656579D1*
Y2324951D1*
X1518583Y2074774D2*
X1481358Y2037550D1*
X1439272D1*
X3900000Y650000D2*
X3868701D1*
D15*
Y1400000D1*
D14*
X3900000D1*
X3868701D2*
D15*
Y2150000D1*
D14*
X3900000D1*
X2605969Y2237257D2*
Y2868441D1*
X2368493Y3105916D1*
X2330997D1*
X2336323Y3100591D1*
X2331693D1*
X1968701Y2006201D2*
X1967867D1*
X1936518Y2037550D1*
X1888091D1*
X1982463Y2092550D2*
X1958959Y2069046D1*
X1888091D1*
X2024780Y2399740D2*
Y2799698D1*
X2225672Y3000591D1*
X2331693D1*
X1514517Y2799698D2*
D15*
X1550203D1*
X1581076D1*
X1612323Y2768451D1*
X1774806D1*
Y2774701D1*
X1439272Y1943062D2*
D14*
X1494196D1*
X1535184Y1984050D1*
X1669194D1*
X1695495Y2010350D1*
D13*
X1789665Y1916180D1*
D14*
Y1876133D1*
D13*
Y1678986D1*
X1843549Y1625102D1*
Y1562328D1*
X1881201Y1524676D1*
D15*
Y1349951D1*
Y1306202D1*
X799908Y2480982D2*
D14*
Y2481171D1*
D15*
X1068630D1*
X1439272Y2258022D2*
D14*
X1526849D1*
X1537697Y2268870D1*
Y2324951D1*
X1695495Y2010350D2*
D13*
Y2182995D1*
X1706201Y2193701D1*
X1695177Y2204724D1*
Y2324951D1*
X1706201Y2193701D2*
X1888091D1*
Y2195030D1*
X1881201Y1349951D2*
D14*
Y1412451D1*
X1068630Y2481171D2*
X799908D1*
Y2730955D1*
X643412Y2887451D1*
X568701D1*
X518701Y2937451D1*
X1881201Y1518701D2*
Y1524676D1*
X1181118Y2481171D2*
D15*
X1068630D1*
X1337352Y2799698D2*
D14*
X1287357D1*
X1262360Y2774701D1*
Y2512228D1*
D15*
X1231302Y2481171D1*
X1181118D1*
X1506201Y2443701D2*
X1330887D1*
X1262360Y2512228D1*
Y2774701D1*
X1287357Y2799698D1*
X1337352D1*
X1537697Y2324951D2*
D13*
Y2412205D1*
X1506201Y2443701D1*
X1695177Y2324951D2*
Y2445349D1*
X1695176D1*
D41*
X1774806Y2705958D3*
X1706201Y2856201D3*
X1637450Y2912451D3*
X1106126Y2343496D3*
Y2268504D3*
X3480877Y1131123D3*
X2724706D3*
X2256005D3*
X1756201Y2406201D3*
X1599824Y2074774D3*
X1518583D3*
X1362349Y2112270D3*
X1181201Y2068701D3*
X1899793Y1599824D3*
X1631201Y2631201D3*
X1981034Y2799698D3*
X1331201Y1856201D3*
X568682Y1131123D3*
X1224864D3*
X1424843Y1806052D3*
X2299751D3*
X1674950Y1806201D3*
X1695176Y2445349D3*
X1506201Y2443701D3*
X1812302Y2099772D3*
X2062276Y2056026D3*
X1687450Y1656201D3*
X2062450Y1687451D3*
X2018530Y1749808D3*
X1743701Y1756201D3*
X1343701Y2024951D3*
X1562450D3*
X1787304Y2243507D3*
X1581076Y2218509D3*
X1918541Y2474732D3*
X1774806Y2774701D3*
X1581076Y2799698D3*
X1868701Y2356201D3*
X1968701Y2006201D3*
X2605969Y2237257D3*
X1982463Y2092550D3*
X2024780Y2399740D3*
X702714Y3178458D2*
D18*
X1477980D1*
X1907848D2*
X3600673D1*
X3712715D2*
X3797282D1*
X702714Y3153589D2*
X1477980D1*
X1907848D2*
X2274035D1*
X2389342D2*
X3568377D1*
X3745011D2*
X3797282D1*
X702714Y3128720D2*
X1477980D1*
X1907848D2*
X2258066D1*
X2409868D2*
X3551117D1*
X3762271D2*
X3797282D1*
X702714Y3103852D2*
X1477980D1*
X1907848D2*
X2252755D1*
X2434736D2*
X3541715D1*
X3771673D2*
X3797282D1*
X421238Y3078983D2*
X1477980D1*
X1907848D2*
X2255805D1*
X2459604D2*
X3538270D1*
X3775118D2*
X4078794D1*
X421238Y3054114D2*
X1477980D1*
X1907848D2*
X2268437D1*
X2484471D2*
X3540208D1*
X3773180D2*
X4078794D1*
X421238Y3029245D2*
X602800D1*
X1303236D2*
X1477980D1*
X1907848D2*
X2190137D1*
X2509339D2*
X3547851D1*
X3765501D2*
X4078794D1*
X421238Y3004377D2*
X579404D1*
X1328104D2*
X1477980D1*
X1907848D2*
X2165270D1*
X2534207D2*
X3562636D1*
X3750753D2*
X4078794D1*
X421238Y2979508D2*
X464503D1*
X1352971D2*
X1477980D1*
X1907848D2*
X2140402D1*
X2407715D2*
X2430705D1*
X2559075D2*
X3589226D1*
X3724162D2*
X4078794D1*
X421238Y2954639D2*
X451800D1*
X687858D2*
X954035D1*
X1097117D2*
X1150895D1*
X1564150D2*
X1596433D1*
X1678477D2*
X2115534D1*
X2243904D2*
X2268042D1*
X2395335D2*
X2455573D1*
X2583942D2*
X4078794D1*
X421238Y2929770D2*
X450005D1*
X687858D2*
X944346D1*
X1106842D2*
X1141207D1*
X1694373D2*
X2090666D1*
X2219036D2*
X2258497D1*
X2404916D2*
X2440752D1*
X2608810D2*
X4078794D1*
X421238Y2904902D2*
X458043D1*
X690155D2*
X943126D1*
X1108062D2*
X1139951D1*
X1738547D2*
X2065799D1*
X2194168D2*
X2252827D1*
X2633678D2*
X4078794D1*
X421238Y2880033D2*
X464933D1*
X715022D2*
X949908D1*
X1101280D2*
X1146769D1*
X1896545D2*
X2040931D1*
X2169301D2*
X2255518D1*
X2650508D2*
X4078794D1*
X421238Y2855164D2*
X451943D1*
X739890D2*
X967599D1*
X1083589D2*
X1164460D1*
X1406511D2*
X1445361D1*
X1921413D2*
X2016063D1*
X2144433D2*
X2267647D1*
X2652087D2*
X4078794D1*
X421238Y2830295D2*
X449934D1*
X764758D2*
X979907D1*
X1095969D2*
X1153766D1*
X1406511D2*
X1445361D1*
X1946280D2*
X1991195D1*
X2119565D2*
X2299046D1*
X2364367D2*
X2375802D1*
X2652087D2*
X4078794D1*
X421238Y2805427D2*
X457756D1*
X789625D2*
X992467D1*
X1113086D2*
X1136685D1*
X1406511D2*
X1445361D1*
X1962213D2*
X1979031D1*
X2094697D2*
X2377489D1*
X2652087D2*
X4078794D1*
X421238Y2780558D2*
X481476D1*
X555912D2*
X565373D1*
X672033D2*
X686123D1*
X814493D2*
X1017334D1*
X1114736D2*
X1134999D1*
X1406511D2*
X1445361D1*
X2070906D2*
X2384809D1*
X2652087D2*
X4078794D1*
X421238Y2755689D2*
X552096D1*
X685310D2*
X710991D1*
X838320D2*
X1022502D1*
X1114736D2*
X1134999D1*
X1406511D2*
X1445361D1*
X2070906D2*
X2399127D1*
X2652087D2*
X4078794D1*
X421238Y2730820D2*
X549871D1*
X687535D2*
X735859D1*
X846035D2*
X1022502D1*
X1114736D2*
X1134999D1*
X1406511D2*
X1445361D1*
X2070906D2*
X2424820D1*
X2652087D2*
X4078794D1*
X421238Y2705951D2*
X557479D1*
X679928D2*
X753801D1*
X846035D2*
X1022502D1*
X1114736D2*
X1134999D1*
X1406511D2*
X1445361D1*
X2070906D2*
X2559852D1*
X2652087D2*
X4078794D1*
X421238Y2681083D2*
X572586D1*
X664820D2*
X753801D1*
X846035D2*
X1022502D1*
X1114736D2*
X1134999D1*
X1313786D2*
X1530622D1*
X2070906D2*
X2559852D1*
X2652087D2*
X4078794D1*
X421238Y2656214D2*
X572586D1*
X664820D2*
X753801D1*
X846035D2*
X1022502D1*
X1114736D2*
X1134999D1*
X1313786D2*
X1523086D1*
X2070906D2*
X2559852D1*
X2652087D2*
X4078794D1*
X421238Y2631345D2*
X572586D1*
X664820D2*
X753801D1*
X846035D2*
X1022502D1*
X1114736D2*
X1134999D1*
X1313786D2*
X1523086D1*
X1615321D2*
X1775029D1*
X2070906D2*
X2559852D1*
X2652087D2*
X4078794D1*
X421238Y2606476D2*
X572586D1*
X664820D2*
X753801D1*
X846035D2*
X999464D1*
X1313786D2*
X1523086D1*
X1615321D2*
X1775029D1*
X2070906D2*
X2559852D1*
X2652087D2*
X4078794D1*
X421238Y2581608D2*
X572586D1*
X664820D2*
X753801D1*
X846035D2*
X999464D1*
X1313786D2*
X1523086D1*
X1615321D2*
X1775029D1*
X1963433D2*
X1978672D1*
X2070906D2*
X2559852D1*
X2652087D2*
X4078794D1*
X421238Y2556739D2*
X572586D1*
X664820D2*
X753801D1*
X846035D2*
X999464D1*
X1313786D2*
X1523086D1*
X1615321D2*
X1775029D1*
X1963433D2*
X1978672D1*
X2070906D2*
X2559852D1*
X2652087D2*
X4078794D1*
X421238Y2531870D2*
X572406D1*
X865126D2*
X999464D1*
X1314432D2*
X1523086D1*
X1615321D2*
X1775029D1*
X1963433D2*
X1978672D1*
X2070906D2*
X2559852D1*
X2652087D2*
X4078794D1*
X421238Y2507001D2*
X554321D1*
X1339299D2*
X1523086D1*
X1615321D2*
X1775029D1*
X1968170D2*
X1978672D1*
X2070906D2*
X2559852D1*
X2652087D2*
X4078794D1*
X421238Y2482133D2*
X549082D1*
X1615321D2*
X1648968D1*
X1741382D2*
X1775029D1*
X2070906D2*
X2559852D1*
X2652087D2*
X4078794D1*
X421238Y2457264D2*
X553388D1*
X1615321D2*
X1636803D1*
X2070906D2*
X2559852D1*
X2652087D2*
X4078794D1*
X421238Y2432395D2*
X569895D1*
X1615321D2*
X1637054D1*
X1867263D2*
X1877694D1*
X1959378D2*
X1975406D1*
X2074136D2*
X2559852D1*
X2652087D2*
X4078794D1*
X421238Y2407526D2*
X975745D1*
X1615321D2*
X1645702D1*
X1896258D2*
X1965682D1*
X2083860D2*
X2129601D1*
X2507401D2*
X2559852D1*
X2652087D2*
X2698329D1*
X3307332D2*
X4078794D1*
X421238Y2382657D2*
X953389D1*
X1375901D2*
X1464164D1*
X1956436D2*
X1967803D1*
X2081779D2*
X2104733D1*
X2532269D2*
X2559852D1*
X2652087D2*
X2673461D1*
X3332199D2*
X4078794D1*
X421238Y2357789D2*
X944131D1*
X1380566D2*
X1456736D1*
X2066062D2*
X2081336D1*
X3357067D2*
X3705670D1*
X3794316D2*
X4078794D1*
X421238Y2332920D2*
X943234D1*
X1380566D2*
X1456736D1*
X1995191D2*
X2073370D1*
X3381935D2*
X3666915D1*
X3833071D2*
X4078794D1*
X421238Y2308051D2*
X919406D1*
X1380566D2*
X1456736D1*
X1995908D2*
X2007271D1*
X2352489D2*
X2407272D1*
X2742263D2*
X2757287D1*
X2842703D2*
X2897522D1*
X3102505D2*
X3157288D1*
X3242704D2*
X3263397D1*
X3406803D2*
X3507266D1*
X3592719D2*
X3647502D1*
X3852484D2*
X3907267D1*
X3992720D2*
X4078794D1*
X421238Y2283182D2*
X894539D1*
X2363255D2*
X2385168D1*
X2864844D2*
X2886757D1*
X3113270D2*
X3135147D1*
X3264845D2*
X3288265D1*
X3431670D2*
X3485162D1*
X3614823D2*
X3636736D1*
X3863250D2*
X3885163D1*
X4014824D2*
X4078794D1*
X421238Y2258314D2*
X869671D1*
X2367812D2*
X2377381D1*
X2872631D2*
X2882164D1*
X3117827D2*
X3127360D1*
X3272632D2*
X3313133D1*
X3456538D2*
X3477375D1*
X3622646D2*
X3632179D1*
X3867807D2*
X3877359D1*
X4022647D2*
X4078794D1*
X421238Y2233445D2*
X844803D1*
X2871159D2*
X2883061D1*
X3271160D2*
X3338001D1*
X3621139D2*
X3633076D1*
X4021140D2*
X4078794D1*
X421238Y2208576D2*
X822986D1*
X1274170D2*
X1282698D1*
X1972799D2*
X1990298D1*
X2859712D2*
X2889556D1*
X3259713D2*
X3362868D1*
X3609692D2*
X3639535D1*
X4009693D2*
X4078794D1*
X421238Y2183707D2*
X817280D1*
X1264660D2*
X1296980D1*
X1963110D2*
X2023168D1*
X2734225D2*
X2773148D1*
X2826842D2*
X2902761D1*
X3232836D2*
X3381277D1*
X3484133D2*
X3523163D1*
X3576858D2*
X3652777D1*
X3982852D2*
X4078794D1*
X421238Y2158839D2*
X817280D1*
X1240367D2*
X1321848D1*
X2042414D2*
X2100247D1*
X2576156D2*
X2631333D1*
X2734225D2*
X2926373D1*
X3239188D2*
X3381277D1*
X3484133D2*
X3676389D1*
X3989167D2*
X4078794D1*
X421238Y2133970D2*
X817280D1*
X1215499D2*
X1306992D1*
X1744970D2*
X1764048D1*
X2061828D2*
X2124290D1*
X2268520D2*
X2311856D1*
X2587244D2*
X2631333D1*
X2734225D2*
X2874269D1*
X2925739D2*
X3061872D1*
X3238147D2*
X3381277D1*
X3484133D2*
X3624285D1*
X3675719D2*
X3811851D1*
X3988127D2*
X4078794D1*
X421238Y2109101D2*
X817280D1*
X1744970D2*
X1753438D1*
X2293388D2*
X2317275D1*
X2612112D2*
X2627422D1*
X2738137D2*
X2761270D1*
X2966504D2*
X3067254D1*
X3229427D2*
X3377330D1*
X3488080D2*
X3511178D1*
X3716519D2*
X3817270D1*
X3979443D2*
X4078794D1*
X421238Y2084232D2*
X817280D1*
X1744970D2*
X1754802D1*
X2459640D2*
X2493574D1*
X2738137D2*
X2761270D1*
X2982616D2*
X3067254D1*
X3209655D2*
X3377330D1*
X3488080D2*
X3511178D1*
X3732631D2*
X3817270D1*
X3959634D2*
X4078794D1*
X421238Y2059364D2*
X817280D1*
X1052262D2*
X1122332D1*
X1744970D2*
X1769431D1*
X2420131D2*
X2518442D1*
X2738137D2*
X2761270D1*
X2989111D2*
X3067254D1*
X3170147D2*
X3377330D1*
X3488080D2*
X3511178D1*
X3739126D2*
X3817270D1*
X3920126D2*
X4078794D1*
X421238Y2034495D2*
X817280D1*
X1052262D2*
X1132953D1*
X1744970D2*
X1813030D1*
X2420131D2*
X2543309D1*
X2738137D2*
X2761270D1*
X2988214D2*
X3067254D1*
X3170147D2*
X3377330D1*
X3488080D2*
X3511178D1*
X3738229D2*
X3817270D1*
X3920126D2*
X4078794D1*
X421238Y2009626D2*
X817280D1*
X1139747D2*
X1174471D1*
X1765137D2*
X1813030D1*
X2229694D2*
X2248306D1*
X2420131D2*
X2570223D1*
X2738137D2*
X2761270D1*
X2979709D2*
X3067254D1*
X3170147D2*
X3377330D1*
X3488080D2*
X3511178D1*
X3729689D2*
X3817270D1*
X3920126D2*
X4078794D1*
X421238Y1984757D2*
X817280D1*
X1139747D2*
X1174471D1*
X1790005D2*
X1813030D1*
X2217314D2*
X2248306D1*
X2420131D2*
X2627422D1*
X2738137D2*
X2761270D1*
X2960224D2*
X3067254D1*
X3170147D2*
X3377330D1*
X3488080D2*
X3511178D1*
X3710239D2*
X3817270D1*
X3920126D2*
X4078794D1*
X421238Y1959888D2*
X817280D1*
X1139747D2*
X1174471D1*
X1312745D2*
X1364873D1*
X2221261D2*
X2244394D1*
X2420131D2*
X3067254D1*
X3170147D2*
X3817270D1*
X3920126D2*
X4078794D1*
X421238Y1935020D2*
X817280D1*
X1139747D2*
X1364227D1*
X1963146D2*
X1972428D1*
X2221261D2*
X2244394D1*
X2420131D2*
X3067254D1*
X3170147D2*
X3817270D1*
X3920126D2*
X4078794D1*
X421238Y1910151D2*
X817280D1*
X1133432D2*
X1372265D1*
X1955108D2*
X1972428D1*
X2221261D2*
X2244394D1*
X2420131D2*
X3067254D1*
X3170147D2*
X3817270D1*
X3920126D2*
X4078794D1*
X421238Y1885282D2*
X817280D1*
X1158300D2*
X1456736D1*
X1839130D2*
X1972428D1*
X2221261D2*
X2244394D1*
X2420131D2*
X3067254D1*
X3170147D2*
X3817270D1*
X3920126D2*
X4078794D1*
X421238Y1860413D2*
X817280D1*
X920136D2*
X937600D1*
X1183167D2*
X1404812D1*
X1444871D2*
X1456736D1*
X1839130D2*
X1972428D1*
X2221261D2*
X2244394D1*
X2420131D2*
X3067254D1*
X3170147D2*
X3817270D1*
X3920126D2*
X4078794D1*
X421238Y1835545D2*
X817280D1*
X920136D2*
X962467D1*
X1839130D2*
X1972428D1*
X2108513D2*
X2248306D1*
X2420131D2*
X3067254D1*
X3170147D2*
X3817270D1*
X3920126D2*
X4078794D1*
X421238Y1810676D2*
X817280D1*
X920136D2*
X987335D1*
X1839130D2*
X1972428D1*
X2108513D2*
X2240303D1*
X2420131D2*
X3067254D1*
X3170147D2*
X3817270D1*
X3920126D2*
X4078794D1*
X421238Y1785807D2*
X817280D1*
X920136D2*
X1012203D1*
X1839130D2*
X1971674D1*
X2108513D2*
X2243820D1*
X2420131D2*
X3067254D1*
X3170147D2*
X3817270D1*
X3920126D2*
X4078794D1*
X421238Y1760938D2*
X817280D1*
X920136D2*
X1037071D1*
X1839130D2*
X1960012D1*
X2108549D2*
X2262229D1*
X2420131D2*
X3067254D1*
X3170147D2*
X3817270D1*
X3920126D2*
X4078794D1*
X421238Y1736070D2*
X817280D1*
X920136D2*
X1061938D1*
X1655009D2*
X1687759D1*
X1839130D2*
X1886952D1*
X2108549D2*
X2317275D1*
X2420131D2*
X3067254D1*
X3170147D2*
X3817270D1*
X3920126D2*
X4078794D1*
X421238Y1711201D2*
X817280D1*
X920136D2*
X1086806D1*
X1630141D2*
X1669530D1*
X1839130D2*
X1886952D1*
X2116910D2*
X2317275D1*
X2420131D2*
X3067254D1*
X3170147D2*
X3817270D1*
X3920126D2*
X4078794D1*
X421238Y1686332D2*
X817280D1*
X920136D2*
X1114329D1*
X1605273D2*
X1636408D1*
X1851223D2*
X1886952D1*
X2122077D2*
X2317275D1*
X2420131D2*
X3067254D1*
X3170147D2*
X3817270D1*
X3920126D2*
X4078794D1*
X421238Y1661463D2*
X817280D1*
X920136D2*
X1202317D1*
X1580405D2*
X1628083D1*
X1876091D2*
X1886952D1*
X2115833D2*
X2317275D1*
X2420131D2*
X3067254D1*
X3170147D2*
X3817270D1*
X3920126D2*
X4078794D1*
X421238Y1636594D2*
X817280D1*
X920136D2*
X1177450D1*
X1555538D2*
X1631313D1*
X2025262D2*
X2033933D1*
X2090965D2*
X2317275D1*
X2420131D2*
X3067254D1*
X3170147D2*
X3817270D1*
X3920126D2*
X4078794D1*
X421238Y1611726D2*
X717737D1*
X782269D2*
X817280D1*
X920136D2*
X1152582D1*
X1532249D2*
X1649111D1*
X1893028D2*
X2217732D1*
X2282264D2*
X2317275D1*
X2420131D2*
X2967748D1*
X3032279D2*
X3067254D1*
X3170147D2*
X3717727D1*
X3782259D2*
X3817270D1*
X3920126D2*
X4078794D1*
X421238Y1586857D2*
X671196D1*
X920136D2*
X1127678D1*
X1343318D2*
X1421175D1*
X1578826D2*
X1692603D1*
X1893028D2*
X2171190D1*
X2420131D2*
X2921170D1*
X3170147D2*
X3671185D1*
X3920126D2*
X4078794D1*
X421238Y1561988D2*
X513664D1*
X586342D2*
X649916D1*
X986343D2*
X1102811D1*
X1336321D2*
X1399896D1*
X1600106D2*
X1663680D1*
X1946424D2*
X2013659D1*
X2086336D2*
X2149911D1*
X2486337D2*
X2763674D1*
X2836352D2*
X2899891D1*
X3236353D2*
X3513654D1*
X3586331D2*
X3649906D1*
X3986332D2*
X4078794D1*
X421238Y1537119D2*
X487433D1*
X612573D2*
X638003D1*
X1012574D2*
X1077943D1*
X1362588D2*
X1387982D1*
X1612019D2*
X1637413D1*
X1946424D2*
X1987428D1*
X2112568D2*
X2137998D1*
X2512569D2*
X2737407D1*
X2862583D2*
X2888013D1*
X3262584D2*
X3487422D1*
X3612563D2*
X3637992D1*
X4012564D2*
X4078794D1*
X421238Y1512251D2*
X477959D1*
X622046D2*
X632512D1*
X1022047D2*
X1053075D1*
X1372062D2*
X1382528D1*
X1617474D2*
X1627957D1*
X1946424D2*
X1977954D1*
X2122041D2*
X2132505D1*
X2522042D2*
X2727934D1*
X2872057D2*
X2882523D1*
X3272058D2*
X3477949D1*
X3622036D2*
X3632538D1*
X4022037D2*
X4078794D1*
X421238Y1487382D2*
X478031D1*
X621975D2*
X632584D1*
X1371990D2*
X1382564D1*
X1617438D2*
X1628019D1*
X1946424D2*
X1978026D1*
X2121969D2*
X2132565D1*
X2521970D2*
X2728005D1*
X2871985D2*
X2882559D1*
X3271986D2*
X3478021D1*
X3622000D2*
X3632574D1*
X4022001D2*
X4078794D1*
X421238Y1462513D2*
X487648D1*
X612358D2*
X638110D1*
X1362337D2*
X1388126D1*
X1946424D2*
X1987643D1*
X2112352D2*
X2138141D1*
X2512353D2*
X2737658D1*
X2862368D2*
X2888121D1*
X3262369D2*
X3487638D1*
X3612347D2*
X3638136D1*
X4012348D2*
X4078794D1*
X421238Y1437644D2*
X514346D1*
X585660D2*
X650132D1*
X1121877D2*
X1150393D1*
X1249338D2*
X1264361D1*
X1335639D2*
X1400147D1*
X1946424D2*
X2014341D1*
X2085655D2*
X2150126D1*
X2485656D2*
X2764356D1*
X2835670D2*
X2900142D1*
X3235671D2*
X3514336D1*
X3585650D2*
X3650121D1*
X3985651D2*
X4078794D1*
X421238Y1412776D2*
X671590D1*
X1097009D2*
X1150393D1*
X1249338D2*
X1421606D1*
X1946424D2*
X2171585D1*
X2488670D2*
X2921601D1*
X3238685D2*
X3671616D1*
X3988665D2*
X4078794D1*
X421238Y1387907D2*
X719137D1*
X780834D2*
X811216D1*
X1095072D2*
X1150393D1*
X1249338D2*
X1469152D1*
X1530849D2*
X1561231D1*
X1946424D2*
X2219168D1*
X2280865D2*
X2311211D1*
X2488778D2*
X2969147D1*
X3030844D2*
X3061226D1*
X3238793D2*
X3719162D1*
X3780859D2*
X3811205D1*
X3988772D2*
X4078794D1*
X421238Y1363038D2*
X587370D1*
X712654D2*
X817280D1*
X981391D2*
X992215D1*
X1095072D2*
X1150393D1*
X1249338D2*
X1337350D1*
X1462633D2*
X1567260D1*
X1946424D2*
X2087365D1*
X2212649D2*
X2317275D1*
X2481385D2*
X2837380D1*
X2962628D2*
X3067254D1*
X3231401D2*
X3587360D1*
X3712644D2*
X3817270D1*
X3981380D2*
X4078794D1*
X421238Y1338169D2*
X453809D1*
X730811D2*
X817280D1*
X963879D2*
X992215D1*
X1095072D2*
X1150393D1*
X1480827D2*
X1567260D1*
X1713894D2*
X1722423D1*
X1946424D2*
X2069172D1*
X2463874D2*
X2703568D1*
X2980822D2*
X3067254D1*
X3213889D2*
X3466000D1*
X3730801D2*
X3817270D1*
X3963869D2*
X4078794D1*
X421238Y1313301D2*
X453809D1*
X738598D2*
X817280D1*
X920136D2*
X992215D1*
X1095072D2*
X1150393D1*
X1488614D2*
X1567260D1*
X1670152D2*
X1722423D1*
X1946424D2*
X2061385D1*
X2420131D2*
X2703568D1*
X2988608D2*
X3067254D1*
X3170147D2*
X3466000D1*
X3738588D2*
X3817270D1*
X3920126D2*
X4078794D1*
X421238Y1288432D2*
X453809D1*
X738849D2*
X817280D1*
X920136D2*
X992215D1*
X1095072D2*
X1150393D1*
X1488865D2*
X1567260D1*
X1670152D2*
X1722423D1*
X1946424D2*
X2061134D1*
X2420131D2*
X2703568D1*
X2988860D2*
X3067254D1*
X3170147D2*
X3466000D1*
X3738839D2*
X3817270D1*
X3920126D2*
X4078794D1*
X421238Y1263563D2*
X453809D1*
X731637D2*
X817280D1*
X920136D2*
X992215D1*
X1095072D2*
X1150393D1*
X1481652D2*
X1567260D1*
X1670152D2*
X1722423D1*
X1946496D2*
X2068346D1*
X2420131D2*
X2703568D1*
X2981647D2*
X3067254D1*
X3170147D2*
X3466000D1*
X3731626D2*
X3817270D1*
X3920126D2*
X4078794D1*
X421238Y1238694D2*
X585612D1*
X714412D2*
X817280D1*
X920136D2*
X992215D1*
X1095072D2*
X1150393D1*
X1249338D2*
X1335591D1*
X1464392D2*
X1567260D1*
X1670152D2*
X1722423D1*
X1946496D2*
X2085607D1*
X2214407D2*
X2317275D1*
X2420131D2*
X2835586D1*
X2964387D2*
X3067254D1*
X3170147D2*
X3585602D1*
X3714402D2*
X3817270D1*
X3920126D2*
X4078794D1*
X421238Y1213825D2*
X453809D1*
X596066D2*
X634701D1*
X665323D2*
X817280D1*
X920136D2*
X992215D1*
X1095072D2*
X1150393D1*
X1345974D2*
X1384681D1*
X1415302D2*
X1567260D1*
X1670152D2*
X1722423D1*
X1946496D2*
X2134696D1*
X2165318D2*
X2234885D1*
X2420131D2*
X2703568D1*
X2845825D2*
X2884676D1*
X2915297D2*
X3067254D1*
X3170147D2*
X3466000D1*
X3608257D2*
X3634691D1*
X3665312D2*
X3817270D1*
X3920126D2*
X4078794D1*
X421238Y1188957D2*
X453809D1*
X596066D2*
X817280D1*
X920136D2*
X992215D1*
X1095072D2*
X1150393D1*
X1345974D2*
X1567260D1*
X1670152D2*
X1722423D1*
X1946496D2*
X2234885D1*
X2420131D2*
X2703568D1*
X2845825D2*
X3067254D1*
X3170147D2*
X3466000D1*
X3608257D2*
X3817270D1*
X3920126D2*
X4078794D1*
X421238Y1164088D2*
X453809D1*
X617848D2*
X817280D1*
X920136D2*
X992215D1*
X1095072D2*
X1150393D1*
X1345974D2*
X1567260D1*
X1670152D2*
X1705952D1*
X1946496D2*
X2206859D1*
X2420131D2*
X2675543D1*
X2845825D2*
X3067254D1*
X3170147D2*
X3431730D1*
X3608257D2*
X3817270D1*
X3920126D2*
X4078794D1*
X421238Y1139219D2*
X453809D1*
X627716D2*
X817280D1*
X920136D2*
X992215D1*
X1095072D2*
X1153551D1*
X1345974D2*
X1567260D1*
X1670152D2*
X1705952D1*
X1946496D2*
X2196955D1*
X2420131D2*
X2665675D1*
X2845825D2*
X3067254D1*
X3170147D2*
X3421826D1*
X3608257D2*
X3817270D1*
X3920126D2*
X4078794D1*
X421238Y1114350D2*
X511583D1*
X625778D2*
X817280D1*
X920136D2*
X992215D1*
X1095072D2*
X1167761D1*
X1281957D2*
X1567260D1*
X1670152D2*
X1705952D1*
X1927405D2*
X2198893D1*
X2420131D2*
X2667612D1*
X2781808D2*
X3067254D1*
X3170147D2*
X3423764D1*
X3537995D2*
X3817270D1*
X3920126D2*
X4078794D1*
X421238Y1089482D2*
X527085D1*
X610276D2*
X817280D1*
X920136D2*
X992215D1*
X1095072D2*
X1183263D1*
X1266455D2*
X1567260D1*
X1670152D2*
X1705952D1*
X1927405D2*
X2214395D1*
X2297623D2*
X2317275D1*
X2420131D2*
X2683114D1*
X2766306D2*
X3067254D1*
X3170147D2*
X3439266D1*
X3522493D2*
X3817270D1*
X3920126D2*
X4078794D1*
X421238Y1064613D2*
X817280D1*
X920136D2*
X992215D1*
X1095072D2*
X1567260D1*
X1670152D2*
X1705952D1*
X2033228D2*
X2317275D1*
X2420131D2*
X3067254D1*
X3170147D2*
X3817270D1*
X3920126D2*
X4078794D1*
X421238Y1039744D2*
X817280D1*
X920136D2*
X992215D1*
X1095072D2*
X1567260D1*
X1670152D2*
X1705952D1*
X2033228D2*
X2317275D1*
X2420131D2*
X3067254D1*
X3170147D2*
X3817270D1*
X3920126D2*
X4078794D1*
X421238Y1014875D2*
X817280D1*
X920136D2*
X992215D1*
X1095072D2*
X1567260D1*
X1670152D2*
X1705952D1*
X2033228D2*
X2317275D1*
X2420131D2*
X3067254D1*
X3170147D2*
X3817270D1*
X3920126D2*
X4078794D1*
X421238Y990007D2*
X817280D1*
X920136D2*
X992215D1*
X1095072D2*
X1567260D1*
X1670152D2*
X1705952D1*
X1859979D2*
X1870481D1*
X2033228D2*
X2317275D1*
X2420131D2*
X3067254D1*
X3170147D2*
X3817270D1*
X3920126D2*
X4078794D1*
X421238Y965138D2*
X817280D1*
X920136D2*
X992215D1*
X1095072D2*
X1567260D1*
X1670152D2*
X1705952D1*
X1859979D2*
X1879165D1*
X2033228D2*
X2317275D1*
X2420131D2*
X3067254D1*
X3170147D2*
X3817270D1*
X3920126D2*
X4078794D1*
X421238Y940269D2*
X817280D1*
X920136D2*
X992215D1*
X1095072D2*
X1567260D1*
X1670152D2*
X2317275D1*
X2420131D2*
X3067254D1*
X3170147D2*
X3817270D1*
X3920126D2*
X4078794D1*
X421238Y915400D2*
X817280D1*
X920136D2*
X992215D1*
X1095072D2*
X1567260D1*
X1670152D2*
X2317275D1*
X2420131D2*
X3067254D1*
X3170147D2*
X3817270D1*
X3920126D2*
X4078794D1*
X421238Y890531D2*
X817280D1*
X920136D2*
X992215D1*
X1095072D2*
X1567260D1*
X1670152D2*
X2317275D1*
X2420131D2*
X3067254D1*
X3170147D2*
X3817270D1*
X3920126D2*
X4078794D1*
X421238Y865663D2*
X817280D1*
X920136D2*
X992215D1*
X1095072D2*
X1567260D1*
X1670152D2*
X2317275D1*
X2420131D2*
X3067254D1*
X3170147D2*
X3817270D1*
X3920126D2*
X4078794D1*
X421238Y840794D2*
X675896D1*
X920136D2*
X992215D1*
X1095072D2*
X1425912D1*
X1670152D2*
X2175927D1*
X2420131D2*
X2925907D1*
X3170147D2*
X3675922D1*
X3920126D2*
X4078794D1*
X421238Y815925D2*
X522169D1*
X577837D2*
X652500D1*
X977838D2*
X992215D1*
X1095072D2*
X1272184D1*
X1327816D2*
X1402515D1*
X1727818D2*
X2022163D1*
X2077832D2*
X2152531D1*
X2477833D2*
X2772179D1*
X2827811D2*
X2902510D1*
X3227812D2*
X3522158D1*
X3577827D2*
X3652526D1*
X3977828D2*
X4078794D1*
X421238Y791056D2*
X490052D1*
X609953D2*
X639402D1*
X1095072D2*
X1240032D1*
X1359969D2*
X1389418D1*
X1759970D2*
X1990047D1*
X2109948D2*
X2139397D1*
X2509949D2*
X2740027D1*
X2859964D2*
X2889412D1*
X3259965D2*
X3490042D1*
X3609979D2*
X3639428D1*
X4009944D2*
X4078794D1*
X421238Y766188D2*
X478749D1*
X621257D2*
X633015D1*
X1095072D2*
X1228764D1*
X1371236D2*
X1383030D1*
X1771237D2*
X1978744D1*
X2121252D2*
X2132990D1*
X2521253D2*
X2728759D1*
X2871231D2*
X2883025D1*
X3271232D2*
X3478774D1*
X3621247D2*
X3633005D1*
X4021248D2*
X4078794D1*
X421238Y741319D2*
X477421D1*
X622585D2*
X632189D1*
X1095072D2*
X1227400D1*
X1372600D2*
X1382205D1*
X1772601D2*
X1977416D1*
X2122579D2*
X2132233D1*
X2522580D2*
X2727431D1*
X2872595D2*
X2882200D1*
X3272596D2*
X3477411D1*
X3622574D2*
X3632215D1*
X4022575D2*
X4078794D1*
X421238Y716450D2*
X485351D1*
X614654D2*
X636854D1*
X1095072D2*
X1235367D1*
X1364634D2*
X1386870D1*
X1764635D2*
X1985346D1*
X2114649D2*
X2136849D1*
X2514650D2*
X2735362D1*
X2864629D2*
X2886865D1*
X3264630D2*
X3485341D1*
X3614644D2*
X3636844D1*
X4014645D2*
X4078794D1*
X421238Y691581D2*
X507815D1*
X592191D2*
X647727D1*
X1095072D2*
X1257830D1*
X1342170D2*
X1397707D1*
X1742171D2*
X2007810D1*
X2092186D2*
X2147722D1*
X2492187D2*
X2757825D1*
X2842165D2*
X2897738D1*
X3242166D2*
X3507805D1*
X3592180D2*
X3647717D1*
X3992181D2*
X4078794D1*
X421238Y666713D2*
X667320D1*
X1095072D2*
X1417300D1*
X1738009D2*
X2167315D1*
X2487988D2*
X2917294D1*
X3238004D2*
X3667310D1*
X3988019D2*
X4078794D1*
X421238Y641844D2*
X452015D1*
X594236D2*
X706613D1*
X793357D2*
X810749D1*
X1095072D2*
X1208167D1*
X1350424D2*
X1456629D1*
X1543373D2*
X1560765D1*
X1739229D2*
X1951830D1*
X2094087D2*
X2206608D1*
X2293388D2*
X2310744D1*
X2489244D2*
X2701774D1*
X2843995D2*
X2956624D1*
X3043368D2*
X3060759D1*
X3239224D2*
X3432950D1*
X3575171D2*
X3706639D1*
X3793383D2*
X3810775D1*
X3989239D2*
X4078794D1*
X421238Y616975D2*
X452015D1*
X708204D2*
X816885D1*
X983113D2*
X992229D1*
X1095072D2*
X1208167D1*
X1458220D2*
X1566865D1*
X1733128D2*
X1951830D1*
X2208235D2*
X2316880D1*
X2483108D2*
X2701774D1*
X2958215D2*
X3066896D1*
X3233123D2*
X3432950D1*
X3708230D2*
X3816875D1*
X3983103D2*
X4078794D1*
X421238Y592106D2*
X452015D1*
X728766D2*
X832387D1*
X967611D2*
X992215D1*
X1095072D2*
X1208167D1*
X1478781D2*
X1582403D1*
X1717591D2*
X1951830D1*
X2228761D2*
X2332382D1*
X2467606D2*
X2701774D1*
X2978776D2*
X3082398D1*
X3217621D2*
X3432950D1*
X3728756D2*
X3832413D1*
X3967601D2*
X4078794D1*
X421238Y567238D2*
X452015D1*
X737916D2*
X870281D1*
X929717D2*
X992215D1*
X1095072D2*
X1208167D1*
X1487896D2*
X1620296D1*
X1679697D2*
X1951830D1*
X2237911D2*
X2370276D1*
X2429712D2*
X2701774D1*
X2987891D2*
X3120291D1*
X3179728D2*
X3432950D1*
X3737906D2*
X3870271D1*
X3929707D2*
X4078794D1*
X421238Y542369D2*
X452015D1*
X739280D2*
X992215D1*
X1095072D2*
X1208167D1*
X1489295D2*
X1951830D1*
X2239275D2*
X2701774D1*
X2989290D2*
X3432950D1*
X3739270D2*
X4078794D1*
X421238Y517500D2*
X566665D1*
X733323D2*
X992215D1*
X1095072D2*
X1316680D1*
X1483339D2*
X2066660D1*
X2233318D2*
X2816675D1*
X2983333D2*
X3566655D1*
X3733349D2*
X4078794D1*
X421238Y492631D2*
X452015D1*
X3718062D2*
X4078794D1*
X421238Y467762D2*
X452015D1*
X3575171D2*
X3618723D1*
X3681245D2*
X4078794D1*
X421238Y442894D2*
X452015D1*
X3575171D2*
X4078794D1*
X1105772Y2907077D2*
X1105029Y2900805D1*
X1103797Y2894611D1*
X1102083Y2888533D1*
X1099897Y2882608D1*
X1097253Y2876873D1*
X1094168Y2871363D1*
X1090659Y2866112D1*
X1086749Y2861153D1*
X1082463Y2856515D1*
X1074319Y2849464D1*
X1101797Y2821777D1*
X1105821Y2816239D1*
X1108928Y2810141D1*
X1111043Y2803631D1*
X1112114Y2796871D1*
X1112248Y2756703D1*
Y2618657D1*
X1135280Y2618650D1*
X1137500Y2620278D1*
X1137634Y2796871D1*
X1138705Y2803631D1*
X1140820Y2810141D1*
X1143927Y2816239D1*
X1147951Y2821777D1*
X1174660Y2848676D1*
X1165569Y2856515D1*
X1161282Y2861153D1*
X1157372Y2866112D1*
X1153864Y2871363D1*
X1150778Y2876873D1*
X1148134Y2882608D1*
X1145948Y2888533D1*
X1144234Y2894611D1*
X1143002Y2900805D1*
X1142260Y2907077D1*
X1142012Y2913387D1*
X1142260Y2919698D1*
X1143002Y2925969D1*
X1144234Y2932163D1*
X1145948Y2938241D1*
X1148134Y2944166D1*
X1150778Y2949901D1*
X1154289Y2956047D1*
X1093745Y2956059D1*
X1097253Y2949901D1*
X1099897Y2944166D1*
X1102083Y2938241D1*
X1103797Y2932163D1*
X1105029Y2925969D1*
X1105772Y2919698D1*
X1106020Y2913387D1*
X1105772Y2907077D1*
X981987Y2845865D2*
X973356Y2852228D1*
X968719Y2856515D1*
X964432Y2861153D1*
X960522Y2866112D1*
X957013Y2871363D1*
X953928Y2876873D1*
X951284Y2882608D1*
X949098Y2888533D1*
X947384Y2894611D1*
X946152Y2900805D1*
X945409Y2907077D1*
X945161Y2913387D1*
X945409Y2919698D1*
X946152Y2925969D1*
X947384Y2932163D1*
X949098Y2938241D1*
X951284Y2944166D1*
X953928Y2949901D1*
X957438Y2956047D1*
X685383Y2956059D1*
X685351Y2907178D1*
X833076Y2759283D1*
X837099Y2753746D1*
X840206Y2747647D1*
X842321Y2741138D1*
X843392Y2734378D1*
X843526Y2694210D1*
Y2547623D1*
X862621Y2547631D1*
Y2530084D1*
X1001972Y2530104D1*
X1001980Y2618686D1*
X1024982D1*
X1025012Y2775406D1*
X992423Y2808160D1*
X988400Y2813698D1*
X985293Y2819796D1*
X983178Y2826306D1*
X982107Y2833066D1*
X981972Y2845782D1*
X945905Y2332021D2*
X945161Y2342521D1*
X945409Y2348831D1*
X946152Y2355103D1*
X947384Y2361297D1*
X949098Y2367375D1*
X951284Y2373300D1*
X953928Y2379035D1*
X957013Y2384545D1*
X960522Y2389796D1*
X964432Y2394756D1*
X968719Y2399393D1*
X973356Y2403680D1*
X981208Y2409522D1*
X983745Y2415518D1*
X987595Y2421802D1*
X992392Y2427416D1*
X995139Y2432237D1*
X862619D1*
X862621Y2414332D1*
X662392D1*
X662280Y2429942D1*
X653759Y2423751D1*
X644374Y2418969D1*
X634357Y2415714D1*
X623954Y2414066D1*
X613421D1*
X603018Y2415714D1*
X593001Y2418969D1*
X583616Y2423751D1*
X575095Y2429942D1*
X567648Y2437389D1*
X561457Y2445910D1*
X556675Y2455295D1*
X553420Y2465312D1*
X551773Y2475715D1*
Y2486248D1*
X553420Y2496651D1*
X556675Y2506668D1*
X561457Y2516053D1*
X567648Y2524574D1*
X575080Y2532008D1*
Y2687067D1*
X568020Y2694166D1*
X561873Y2702627D1*
X557125Y2711946D1*
X553893Y2721892D1*
X552257Y2732222D1*
Y2742681D1*
X553893Y2753010D1*
X557125Y2762957D1*
X561873Y2772276D1*
X568020Y2780737D1*
X574650Y2787425D1*
X568728Y2793400D1*
X561986Y2786771D1*
X553525Y2780623D1*
X544206Y2775875D1*
X534260Y2772643D1*
X523930Y2771007D1*
X513472D1*
X503142Y2772643D1*
X493195Y2775875D1*
X483876Y2780623D1*
X475415Y2786771D1*
X468020Y2794166D1*
X461873Y2802627D1*
X457125Y2811946D1*
X453893Y2821892D1*
X452257Y2832222D1*
Y2842681D1*
X453893Y2853010D1*
X457125Y2862957D1*
X461873Y2872276D1*
X468020Y2880737D1*
X474650Y2887425D1*
X468020Y2894166D1*
X461873Y2902627D1*
X457125Y2911946D1*
X453893Y2921892D1*
X452257Y2932222D1*
Y2942681D1*
X453893Y2953010D1*
X457125Y2962957D1*
X461873Y2972276D1*
X468020Y2980737D1*
X475415Y2988132D1*
X483876Y2994280D1*
X493195Y2999028D1*
X503142Y3002260D1*
X513472Y3003896D1*
X523930D1*
X534260Y3002260D1*
X544206Y2999028D1*
X552045Y2995109D1*
X552051Y3004101D1*
X581728D1*
X585533Y3009280D1*
X606583Y3030520D1*
X611787Y3034965D1*
X617623Y3038541D1*
X623946Y3041160D1*
X630602Y3042758D1*
X637425Y3043295D1*
X1272031Y3043161D1*
X1278791Y3042090D1*
X1285301Y3039975D1*
X1291399Y3036868D1*
X1296937Y3032845D1*
X1325435Y3004537D1*
X1368223Y2962054D1*
X1540753Y2961919D1*
X1547513Y2960849D1*
X1554023Y2958734D1*
X1560121Y2955626D1*
X1565658Y2951603D1*
X1584235Y2933217D1*
X1586554Y2938384D1*
X1591237Y2946027D1*
X1597059Y2952843D1*
X1603875Y2958664D1*
X1611517Y2963348D1*
X1619798Y2966778D1*
X1620962Y2967106D1*
X1491037Y2967260D1*
X1488209Y2968058D1*
X1485645Y2969494D1*
X1483487Y2971488D1*
X1481854Y2973931D1*
X1480837Y2976688D1*
X1480492Y2979606D1*
Y3203344D1*
X700203Y3203327D1*
X700063Y3095761D1*
X699265Y3092933D1*
X697829Y3090369D1*
X695835Y3088211D1*
X693391Y3086579D1*
X690635Y3085562D1*
X687717Y3085216D1*
X418693D1*
X418721Y418711D1*
X454485Y418720D1*
X454505Y510878D1*
X572170D1*
X569510Y516660D1*
X567142Y523078D1*
X565285Y529662D1*
X563640Y538998D1*
X454505Y538996D1*
Y644736D1*
X591742D1*
Y640825D1*
X653839Y640648D1*
X661423Y639447D1*
X668726Y637075D1*
X675568Y633589D1*
X676922Y632858D1*
X683340Y630490D1*
X689553Y627626D1*
X695521Y624284D1*
X701209Y620483D1*
X706581Y616248D1*
X711605Y611605D1*
X716248Y606581D1*
X720483Y601209D1*
X724284Y595521D1*
X727626Y589553D1*
X730490Y583340D1*
X732858Y576922D1*
X734715Y570338D1*
X736049Y563629D1*
X736853Y556836D1*
X737122Y550000D1*
X736853Y543164D1*
X736049Y536371D1*
X734715Y529662D1*
X732858Y523078D1*
X730490Y516660D1*
X727626Y510447D1*
X724636Y505108D1*
X992094Y505127D1*
X994699Y515000D1*
Y695318D1*
X986900Y689785D1*
X979406Y685851D1*
X982858Y676922D1*
X984715Y670338D1*
X986049Y663629D1*
X986853Y656836D1*
X987122Y650000D1*
X986853Y643164D1*
X986049Y636371D1*
X984715Y629662D1*
X982858Y623078D1*
X980490Y616660D1*
X977626Y610447D1*
X974284Y604479D1*
X970483Y598791D1*
X966248Y593419D1*
X961605Y588395D1*
X956581Y583752D1*
X951209Y579517D1*
X945521Y575716D1*
X939553Y572374D1*
X933340Y569510D1*
X926922Y567142D1*
X920338Y565285D1*
X913629Y563951D1*
X906836Y563147D1*
X900000Y562878D1*
X893164Y563147D1*
X886371Y563951D1*
X879662Y565285D1*
X873078Y567142D1*
X866660Y569510D1*
X860447Y572374D1*
X854479Y575716D1*
X848791Y579517D1*
X843419Y583752D1*
X838395Y588395D1*
X833752Y593419D1*
X829517Y598791D1*
X825716Y604479D1*
X822374Y610447D1*
X819510Y616660D1*
X817142Y623078D1*
X815285Y629662D1*
X813951Y636371D1*
X813147Y643164D1*
X812999Y653071D1*
X802491Y646980D1*
X794247Y643179D1*
X785729Y640037D1*
X776991Y637573D1*
X768087Y635801D1*
X759072Y634734D1*
X750000Y634378D1*
X740928Y634734D1*
X731913Y635801D1*
X723009Y637573D1*
X714271Y640037D1*
X705753Y643179D1*
X697509Y646980D1*
X689588Y651416D1*
X682039Y656460D1*
X674909Y662080D1*
X668243Y668243D1*
X662080Y674909D1*
X656460Y682039D1*
X651416Y689588D1*
X646980Y697509D1*
X643179Y705753D1*
X640037Y714271D1*
X637573Y723009D1*
X635801Y731913D1*
X634734Y740928D1*
X634378Y750000D1*
X634734Y759072D1*
X635801Y768087D1*
X637573Y776991D1*
X640037Y785729D1*
X643179Y794247D1*
X646980Y802491D1*
X651416Y810412D1*
X656460Y817961D1*
X662080Y825091D1*
X668243Y831757D1*
X674909Y837920D1*
X682039Y843540D1*
X689588Y848584D1*
X697509Y853020D1*
X705753Y856821D1*
X714271Y859963D1*
X723009Y862427D1*
X731913Y864199D1*
X740928Y865266D1*
X750000Y865622D1*
X759072Y865266D1*
X768087Y864199D1*
X776991Y862427D1*
X785729Y859963D1*
X794247Y856821D1*
X802491Y853020D1*
X810412Y848584D1*
X819771Y842113D1*
X819768Y1366069D1*
X817142Y1373078D1*
X815285Y1379662D1*
X813951Y1386371D1*
X813147Y1393164D1*
X812999Y1403071D1*
X802491Y1396980D1*
X794247Y1393179D1*
X785729Y1390037D1*
X776991Y1387573D1*
X768087Y1385801D1*
X759072Y1384734D1*
X750000Y1384378D1*
X740928Y1384734D1*
X731913Y1385801D1*
X723009Y1387573D1*
X714271Y1390037D1*
X705753Y1393179D1*
X697509Y1396980D1*
X689588Y1401416D1*
X682039Y1406460D1*
X674909Y1412080D1*
X668243Y1418243D1*
X662080Y1424909D1*
X656460Y1432039D1*
X651416Y1439588D1*
X646980Y1447509D1*
X643179Y1455753D1*
X640037Y1464271D1*
X637573Y1473009D1*
X635801Y1481913D1*
X634734Y1490928D1*
X634378Y1500000D1*
X634734Y1509072D1*
X635801Y1518087D1*
X637573Y1526991D1*
X640037Y1535729D1*
X643179Y1544247D1*
X646980Y1552491D1*
X651416Y1560412D1*
X656460Y1567961D1*
X662080Y1575091D1*
X668243Y1581757D1*
X674909Y1587920D1*
X682039Y1593540D1*
X689588Y1598584D1*
X697509Y1603020D1*
X705753Y1606821D1*
X714271Y1609963D1*
X723009Y1612427D1*
X731913Y1614199D1*
X740928Y1615266D1*
X750000Y1615622D1*
X759072Y1615266D1*
X768087Y1614199D1*
X776991Y1612427D1*
X785729Y1609963D1*
X794247Y1606821D1*
X802491Y1603020D1*
X810412Y1598584D1*
X819771Y1592113D1*
X819919Y2189470D1*
X821120Y2197054D1*
X823493Y2204357D1*
X826978Y2211199D1*
X831492Y2217411D1*
X853587Y2239719D1*
X945872Y2332004D1*
X1284134Y2290965D2*
X1279313Y2285649D1*
X1271828Y2279117D1*
X1271683Y2208575D1*
X1270530Y2201296D1*
X1268253Y2194287D1*
X1264907Y2187721D1*
X1260576Y2181759D1*
X1238585Y2159564D1*
X1201209Y2122188D1*
X1207134Y2119597D1*
X1213596Y2115702D1*
X1305333Y2115832D1*
X1305930Y2121206D1*
X1308023Y2129922D1*
X1311453Y2138203D1*
X1316136Y2145846D1*
X1321958Y2152662D1*
X1326503Y2156693D1*
X1295390Y2188008D1*
X1291058Y2193970D1*
X1287713Y2200537D1*
X1285435Y2207545D1*
X1284282Y2214824D1*
X1284138Y2246068D1*
Y2290888D1*
X1943913Y1345831D2*
X1944012Y1133399D1*
X1924886D1*
X1924917Y1083389D1*
X2030725Y1083382D1*
Y954019D1*
X1881677D1*
Y982476D1*
X1877649Y985533D1*
X1857499Y1005493D1*
X1857496Y954019D1*
X1708449D1*
Y1177870D1*
X1725996D1*
X1725073Y1183945D1*
X1724938Y1224113D1*
Y1355557D1*
X1720483Y1348791D1*
X1716248Y1343419D1*
X1711605Y1338395D1*
X1706581Y1333752D1*
X1701209Y1329517D1*
X1695521Y1325716D1*
X1689553Y1322374D1*
X1683340Y1319510D1*
X1676922Y1317142D1*
X1667639Y1314748D1*
X1667634Y812755D1*
X1672974Y815246D1*
X1683514Y818671D1*
X1694459Y820404D1*
X1705541D1*
X1716486Y818671D1*
X1727026Y815246D1*
X1736900Y810215D1*
X1745865Y803701D1*
X1753701Y795865D1*
X1760215Y786900D1*
X1765246Y777026D1*
X1768671Y766486D1*
X1770404Y755541D1*
Y744459D1*
X1768671Y733514D1*
X1765246Y722974D1*
X1760215Y713100D1*
X1753701Y704135D1*
X1745865Y696299D1*
X1736900Y689785D1*
X1729406Y685851D1*
X1732858Y676922D1*
X1734715Y670338D1*
X1736049Y663629D1*
X1736853Y656836D1*
X1737122Y650000D1*
X1736853Y643164D1*
X1736049Y636371D1*
X1734715Y629662D1*
X1732858Y623078D1*
X1730490Y616660D1*
X1727626Y610447D1*
X1724284Y604479D1*
X1720483Y598791D1*
X1716248Y593419D1*
X1711605Y588395D1*
X1706581Y583752D1*
X1701209Y579517D1*
X1695521Y575716D1*
X1689553Y572374D1*
X1683340Y569510D1*
X1676922Y567142D1*
X1670338Y565285D1*
X1663629Y563951D1*
X1656836Y563147D1*
X1650000Y562878D1*
X1643164Y563147D1*
X1636371Y563951D1*
X1629662Y565285D1*
X1623078Y567142D1*
X1616660Y569510D1*
X1610447Y572374D1*
X1604479Y575716D1*
X1598791Y579517D1*
X1593419Y583752D1*
X1588395Y588395D1*
X1583752Y593419D1*
X1579517Y598791D1*
X1575716Y604479D1*
X1572374Y610447D1*
X1569510Y616660D1*
X1567142Y623078D1*
X1565285Y629662D1*
X1563951Y636371D1*
X1563147Y643164D1*
X1562999Y653071D1*
X1552491Y646980D1*
X1544247Y643179D1*
X1535729Y640037D1*
X1526991Y637573D1*
X1518087Y635801D1*
X1509072Y634734D1*
X1500000Y634378D1*
X1490928Y634734D1*
X1481913Y635801D1*
X1473009Y637573D1*
X1464271Y640037D1*
X1455753Y643179D1*
X1447509Y646980D1*
X1439588Y651416D1*
X1432039Y656460D1*
X1424909Y662080D1*
X1418243Y668243D1*
X1412080Y674909D1*
X1406460Y682039D1*
X1401416Y689588D1*
X1396980Y697509D1*
X1393179Y705753D1*
X1390037Y714271D1*
X1387573Y723009D1*
X1385801Y731913D1*
X1384734Y740928D1*
X1384378Y750000D1*
X1384734Y759072D1*
X1385801Y768087D1*
X1387573Y776991D1*
X1390037Y785729D1*
X1393179Y794247D1*
X1396980Y802491D1*
X1401416Y810412D1*
X1406460Y817961D1*
X1412080Y825091D1*
X1418243Y831757D1*
X1424909Y837920D1*
X1432039Y843540D1*
X1439588Y848584D1*
X1447509Y853020D1*
X1455753Y856821D1*
X1464271Y859963D1*
X1473009Y862427D1*
X1481913Y864199D1*
X1490928Y865266D1*
X1500000Y865622D1*
X1509072Y865266D1*
X1518087Y864199D1*
X1526991Y862427D1*
X1535729Y859963D1*
X1544247Y856821D1*
X1552491Y853020D1*
X1560412Y848584D1*
X1569771Y842113D1*
X1569768Y1366069D1*
X1567142Y1373078D1*
X1565285Y1379662D1*
X1563951Y1386371D1*
X1563147Y1393164D1*
X1562999Y1403071D1*
X1552491Y1396980D1*
X1544247Y1393179D1*
X1535729Y1390037D1*
X1526991Y1387573D1*
X1518087Y1385801D1*
X1509072Y1384734D1*
X1500000Y1384378D1*
X1490928Y1384734D1*
X1481913Y1385801D1*
X1473009Y1387573D1*
X1464271Y1390037D1*
X1455753Y1393179D1*
X1447509Y1396980D1*
X1439588Y1401416D1*
X1432039Y1406460D1*
X1424909Y1412080D1*
X1418243Y1418243D1*
X1412080Y1424909D1*
X1406460Y1432039D1*
X1401416Y1439588D1*
X1396980Y1447509D1*
X1393179Y1455753D1*
X1390037Y1464271D1*
X1387573Y1473009D1*
X1385801Y1481913D1*
X1384734Y1490928D1*
X1384378Y1500000D1*
X1384734Y1509072D1*
X1385801Y1518087D1*
X1387573Y1526991D1*
X1390037Y1535729D1*
X1393179Y1544247D1*
X1396980Y1552491D1*
X1401416Y1560412D1*
X1406460Y1567961D1*
X1412080Y1575091D1*
X1418243Y1581757D1*
X1428001Y1590357D1*
X1344337Y1590356D1*
X1321295Y1567344D1*
X1327026Y1565246D1*
X1336900Y1560215D1*
X1345865Y1553701D1*
X1353701Y1545865D1*
X1360215Y1536900D1*
X1365246Y1527026D1*
X1368671Y1516486D1*
X1370404Y1505541D1*
Y1494459D1*
X1368671Y1483514D1*
X1365246Y1472974D1*
X1360215Y1463100D1*
X1353701Y1454135D1*
X1345865Y1446299D1*
X1336900Y1439785D1*
X1327026Y1434754D1*
X1316486Y1431329D1*
X1305541Y1429596D1*
X1294459D1*
X1283514Y1431329D1*
X1272974Y1434754D1*
X1263100Y1439785D1*
X1254135Y1446299D1*
X1246843Y1453546D1*
X1246831Y1355340D1*
X1332732Y1355347D1*
X1338395Y1361605D1*
X1343419Y1366248D1*
X1348791Y1370483D1*
X1354479Y1374284D1*
X1360447Y1377626D1*
X1366660Y1380490D1*
X1373078Y1382858D1*
X1379662Y1384715D1*
X1386371Y1386049D1*
X1393164Y1386853D1*
X1400000Y1387122D1*
X1406836Y1386853D1*
X1413629Y1386049D1*
X1420338Y1384715D1*
X1426922Y1382858D1*
X1433340Y1380490D1*
X1439553Y1377626D1*
X1445521Y1374284D1*
X1451209Y1370483D1*
X1456581Y1366248D1*
X1461605Y1361605D1*
X1466248Y1356581D1*
X1470483Y1351209D1*
X1474284Y1345521D1*
X1477626Y1339553D1*
X1480490Y1333340D1*
X1482858Y1326922D1*
X1484715Y1320338D1*
X1486049Y1313629D1*
X1486853Y1306836D1*
X1487122Y1300000D1*
X1486853Y1293164D1*
X1486049Y1286371D1*
X1484715Y1279662D1*
X1482858Y1273078D1*
X1480490Y1266660D1*
X1477626Y1260447D1*
X1474284Y1254479D1*
X1470483Y1248791D1*
X1466248Y1243419D1*
X1461605Y1238395D1*
X1456581Y1233752D1*
X1451209Y1229517D1*
X1445521Y1225716D1*
X1439553Y1222374D1*
X1433340Y1219510D1*
X1426922Y1217142D1*
X1420338Y1215285D1*
X1413629Y1213951D1*
X1406836Y1213147D1*
X1400000Y1212878D1*
X1393164Y1213147D1*
X1386371Y1213951D1*
X1379662Y1215285D1*
X1373078Y1217142D1*
X1366660Y1219510D1*
X1360447Y1222374D1*
X1354479Y1225716D1*
X1348791Y1229517D1*
X1343419Y1233752D1*
X1338395Y1238395D1*
X1333752Y1243419D1*
X1328967Y1249613D1*
X1246841Y1249607D1*
X1246831Y1221492D1*
X1343477Y1221489D1*
Y1115749D1*
X1279854D1*
X1277637Y1109264D1*
X1273568Y1101277D1*
X1268299Y1094026D1*
X1261961Y1087687D1*
X1254710Y1082419D1*
X1246723Y1078349D1*
X1238198Y1075580D1*
X1229345Y1074177D1*
X1220382D1*
X1211529Y1075580D1*
X1203004Y1078349D1*
X1195017Y1082419D1*
X1187766Y1087687D1*
X1181428Y1094026D1*
X1176159Y1101277D1*
X1172090Y1109264D1*
X1169320Y1117788D1*
X1168708Y1120864D1*
X1164154Y1125620D1*
X1159822Y1131582D1*
X1156477Y1138148D1*
X1154199Y1145157D1*
X1153046Y1152436D1*
X1152902Y1183680D1*
Y1471148D1*
X1092542Y1410800D1*
X1092566Y507684D1*
X1102438Y505127D1*
X1210701D1*
X1210676Y510878D1*
X1322168D1*
X1319510Y516660D1*
X1317142Y523078D1*
X1315285Y529662D1*
X1313640Y538998D1*
X1210676Y538996D1*
Y644736D1*
X1347912D1*
Y640825D1*
X1403839Y640648D1*
X1411423Y639447D1*
X1418726Y637074D1*
X1426922Y632858D1*
X1433340Y630490D1*
X1439553Y627626D1*
X1445521Y624284D1*
X1451209Y620483D1*
X1456581Y616248D1*
X1461605Y611605D1*
X1466248Y606581D1*
X1470483Y601209D1*
X1474284Y595521D1*
X1477626Y589553D1*
X1480490Y583340D1*
X1482858Y576922D1*
X1484715Y570338D1*
X1486049Y563629D1*
X1486853Y556836D1*
X1487122Y550000D1*
X1486853Y543164D1*
X1486049Y536371D1*
X1484715Y529662D1*
X1482858Y523078D1*
X1480490Y516660D1*
X1477626Y510447D1*
X1474636Y505108D1*
X1954383Y505127D1*
X1954348Y510878D1*
X2072156D1*
X2069510Y516660D1*
X2067142Y523078D1*
X2065285Y529662D1*
X2063640Y538998D1*
X1954348Y538996D1*
Y644736D1*
X2091584D1*
Y640825D1*
X2153839Y640648D1*
X2161423Y639447D1*
X2168726Y637075D1*
X2175568Y633589D1*
X2176922Y632858D1*
X2183340Y630490D1*
X2189553Y627626D1*
X2195521Y624284D1*
X2201209Y620483D1*
X2206581Y616248D1*
X2211605Y611605D1*
X2216248Y606581D1*
X2220483Y601209D1*
X2224284Y595521D1*
X2227626Y589553D1*
X2230490Y583340D1*
X2232858Y576922D1*
X2234715Y570338D1*
X2236049Y563629D1*
X2236853Y556836D1*
X2237122Y550000D1*
X2236853Y543164D1*
X2236049Y536371D1*
X2234715Y529662D1*
X2232858Y523078D1*
X2230490Y516660D1*
X2227626Y510447D1*
X2224636Y505108D1*
X2704299Y505127D1*
X2704269Y510878D1*
X2822149D1*
X2819510Y516660D1*
X2817142Y523078D1*
X2815285Y529662D1*
X2813640Y538998D1*
X2704269Y538996D1*
Y644736D1*
X2841505D1*
Y640825D1*
X2903839Y640648D1*
X2911423Y639447D1*
X2918726Y637074D1*
X2925568Y633589D1*
X2926922Y632858D1*
X2933340Y630490D1*
X2939553Y627626D1*
X2945521Y624284D1*
X2951209Y620483D1*
X2956581Y616248D1*
X2961605Y611605D1*
X2966248Y606581D1*
X2970483Y601209D1*
X2974284Y595521D1*
X2977626Y589553D1*
X2980490Y583340D1*
X2982858Y576922D1*
X2984715Y570338D1*
X2986049Y563629D1*
X2986853Y556836D1*
X2987122Y550000D1*
X2986853Y543164D1*
X2986049Y536371D1*
X2984715Y529662D1*
X2982858Y523078D1*
X2980490Y516660D1*
X2975655Y506927D1*
X3435417Y506941D1*
X3435442Y510878D1*
X3572173D1*
X3572674Y509911D1*
X3572679Y418691D1*
X4081299Y418720D1*
X4081281Y3085226D1*
X3810328Y3085370D1*
X3807500Y3086168D1*
X3804936Y3087604D1*
X3802778Y3089598D1*
X3801146Y3092042D1*
X3800129Y3094798D1*
X3799783Y3097717D1*
Y3203324D1*
X1905362Y3203327D1*
X1905296Y2978626D1*
X1904723Y2975744D1*
X1903493Y2973075D1*
X1901674Y2970767D1*
X1899366Y2968948D1*
X1896697Y2967718D1*
X1893815Y2967145D1*
X1654025Y2967106D1*
X1659310Y2965225D1*
X1667296Y2961156D1*
X1674548Y2955887D1*
X1680886Y2949549D1*
X1686155Y2942298D1*
X1690224Y2934311D1*
X1692994Y2925786D1*
X1694396Y2916933D1*
X1694559Y2912119D1*
X1701719Y2913147D1*
X1710683D1*
X1719536Y2911745D1*
X1728060Y2908975D1*
X1736047Y2904905D1*
X1743065Y2899821D1*
X1859623Y2899685D1*
X1866383Y2898614D1*
X1872893Y2896499D1*
X1878991Y2893391D1*
X1884529Y2889368D1*
X1913026Y2861061D1*
X1950490Y2823407D1*
X1954514Y2817869D1*
X1957621Y2811771D1*
X1959736Y2805261D1*
X1960807Y2798501D1*
X1960941Y2793033D1*
X1981170Y2793027D1*
X1981296Y2803120D1*
X1982366Y2809881D1*
X1984482Y2816390D1*
X1987589Y2822489D1*
X1991612Y2828026D1*
X2019920Y2856524D1*
X2197344Y3033758D1*
X2202881Y3037781D1*
X2208980Y3040889D1*
X2215489Y3043004D1*
X2222250Y3044074D1*
X2262417Y3044209D1*
X2268841D1*
X2273830Y3050596D1*
X2269809Y3055630D1*
X2266473Y3060624D1*
X2263538Y3065864D1*
X2261023Y3071318D1*
X2258945Y3076953D1*
X2257314Y3082734D1*
X2256143Y3088625D1*
X2255437Y3094589D1*
X2255201Y3100591D1*
X2255437Y3106592D1*
X2256143Y3112557D1*
X2257314Y3118447D1*
X2258945Y3124228D1*
X2261023Y3129863D1*
X2263538Y3135317D1*
X2266473Y3140558D1*
X2269809Y3145551D1*
X2273528Y3150268D1*
X2277605Y3154679D1*
X2282015Y3158756D1*
X2286732Y3162474D1*
X2291726Y3165811D1*
X2296966Y3168746D1*
X2302421Y3171260D1*
X2308056Y3173339D1*
X2313836Y3174969D1*
X2319727Y3176141D1*
X2325691Y3176847D1*
X2331693Y3177083D1*
X2337694Y3176847D1*
X2343659Y3176141D1*
X2349550Y3174969D1*
X2355330Y3173339D1*
X2360965Y3171260D1*
X2366420Y3168746D1*
X2371660Y3165811D1*
X2376654Y3162474D1*
X2381371Y3158756D1*
X2385781Y3154679D1*
X2389858Y3150268D1*
X2393576Y3145551D1*
X2398690Y3137385D1*
X2639136Y2896769D1*
X2643159Y2891231D1*
X2646266Y2885133D1*
X2648381Y2878623D1*
X2649452Y2871863D1*
X2649587Y2831696D1*
Y2356266D1*
X2711921Y2418410D1*
X2718133Y2422923D1*
X2724975Y2426409D1*
X2732278Y2428782D1*
X2739862Y2429983D1*
X2771260Y2430134D1*
X3265780Y2429983D1*
X3273364Y2428782D1*
X3280667Y2426409D1*
X3287508Y2422923D1*
X3293721Y2418410D1*
X3316029Y2396315D1*
X3469905Y2242226D1*
X3474418Y2236014D1*
X3477904Y2229172D1*
X3480277Y2221869D1*
X3481478Y2214285D1*
X3481629Y2182887D1*
Y2120197D1*
X3485566Y2120208D1*
Y1982972D1*
X3379826D1*
Y2120208D1*
X3383737D1*
X3383762Y2190211D1*
X3241664Y2332276D1*
X3081264Y2332268D1*
X3087920Y2325091D1*
X3093540Y2317961D1*
X3098584Y2310412D1*
X3103020Y2302491D1*
X3106821Y2294247D1*
X3109963Y2285729D1*
X3112427Y2276991D1*
X3114199Y2268087D1*
X3115266Y2259072D1*
X3115622Y2250000D1*
X3115266Y2240928D1*
X3113652Y2229165D1*
X3123078Y2232858D1*
X3130998Y2234981D1*
X3129596Y2244459D1*
Y2255541D1*
X3131329Y2266486D1*
X3134754Y2277026D1*
X3139785Y2286900D1*
X3146299Y2295865D1*
X3154135Y2303701D1*
X3163100Y2310215D1*
X3172974Y2315246D1*
X3183514Y2318671D1*
X3194459Y2320404D1*
X3205541D1*
X3216486Y2318671D1*
X3227026Y2315246D1*
X3236900Y2310215D1*
X3245865Y2303701D1*
X3253701Y2295865D1*
X3260215Y2286900D1*
X3265246Y2277026D1*
X3268671Y2266486D1*
X3270404Y2255541D1*
Y2244459D1*
X3268671Y2233514D1*
X3265246Y2222974D1*
X3260215Y2213100D1*
X3253701Y2204135D1*
X3245865Y2196299D1*
X3236900Y2189785D1*
X3229406Y2185851D1*
X3232858Y2176922D1*
X3234715Y2170338D1*
X3236049Y2163629D1*
X3236853Y2156836D1*
X3237122Y2150000D1*
X3236853Y2143164D1*
X3236049Y2136371D1*
X3234715Y2129662D1*
X3232858Y2123078D1*
X3230490Y2116660D1*
X3227626Y2110447D1*
X3224284Y2104479D1*
X3220483Y2098791D1*
X3216248Y2093419D1*
X3211605Y2088395D1*
X3206581Y2083752D1*
X3201209Y2079517D1*
X3195521Y2075716D1*
X3189553Y2072374D1*
X3183340Y2069510D1*
X3176922Y2067142D1*
X3167639Y2064748D1*
X3167634Y1562755D1*
X3172974Y1565246D1*
X3183514Y1568671D1*
X3194459Y1570404D1*
X3205541D1*
X3216486Y1568671D1*
X3227026Y1565246D1*
X3236900Y1560215D1*
X3245865Y1553701D1*
X3253701Y1545865D1*
X3260215Y1536900D1*
X3265246Y1527026D1*
X3268671Y1516486D1*
X3270404Y1505541D1*
Y1494459D1*
X3268671Y1483514D1*
X3265246Y1472974D1*
X3260215Y1463100D1*
X3253701Y1454135D1*
X3245865Y1446299D1*
X3236900Y1439785D1*
X3229406Y1435851D1*
X3232858Y1426922D1*
X3234715Y1420338D1*
X3236049Y1413629D1*
X3236853Y1406836D1*
X3237122Y1400000D1*
X3236853Y1393164D1*
X3236049Y1386371D1*
X3234715Y1379662D1*
X3232858Y1373078D1*
X3230490Y1366660D1*
X3227626Y1360447D1*
X3224284Y1354479D1*
X3220483Y1348791D1*
X3216248Y1343419D1*
X3211605Y1338395D1*
X3206581Y1333752D1*
X3201209Y1329517D1*
X3195521Y1325716D1*
X3189553Y1322374D1*
X3183340Y1319510D1*
X3176922Y1317142D1*
X3167639Y1314748D1*
X3167634Y812755D1*
X3172974Y815246D1*
X3183514Y818671D1*
X3194459Y820404D1*
X3205541D1*
X3216486Y818671D1*
X3227026Y815246D1*
X3236900Y810215D1*
X3245865Y803701D1*
X3253701Y795865D1*
X3260215Y786900D1*
X3265246Y777026D1*
X3268671Y766486D1*
X3270404Y755541D1*
Y744459D1*
X3268671Y733514D1*
X3265246Y722974D1*
X3260215Y713100D1*
X3253701Y704135D1*
X3245865Y696299D1*
X3236900Y689785D1*
X3229406Y685851D1*
X3232858Y676922D1*
X3234715Y670338D1*
X3236049Y663629D1*
X3236853Y656836D1*
X3237122Y650000D1*
X3236853Y643164D1*
X3236049Y636371D1*
X3234715Y629662D1*
X3232858Y623078D1*
X3230490Y616660D1*
X3227626Y610447D1*
X3224284Y604479D1*
X3220483Y598791D1*
X3216248Y593419D1*
X3211605Y588395D1*
X3206581Y583752D1*
X3201209Y579517D1*
X3195521Y575716D1*
X3189553Y572374D1*
X3183340Y569510D1*
X3176922Y567142D1*
X3170338Y565285D1*
X3163629Y563951D1*
X3156836Y563147D1*
X3150000Y562878D1*
X3143164Y563147D1*
X3136371Y563951D1*
X3129662Y565285D1*
X3123078Y567142D1*
X3116660Y569510D1*
X3110447Y572374D1*
X3104479Y575716D1*
X3098791Y579517D1*
X3093419Y583752D1*
X3088395Y588395D1*
X3083752Y593419D1*
X3079517Y598791D1*
X3075716Y604479D1*
X3072374Y610447D1*
X3069510Y616660D1*
X3067142Y623078D1*
X3065285Y629662D1*
X3063951Y636371D1*
X3063147Y643164D1*
X3062999Y653071D1*
X3052491Y646980D1*
X3044247Y643179D1*
X3035729Y640037D1*
X3026991Y637573D1*
X3018087Y635801D1*
X3009072Y634734D1*
X3000000Y634378D1*
X2990928Y634734D1*
X2981913Y635801D1*
X2973009Y637573D1*
X2964271Y640037D1*
X2955753Y643179D1*
X2947509Y646980D1*
X2939588Y651416D1*
X2932039Y656460D1*
X2924909Y662080D1*
X2918243Y668243D1*
X2912080Y674909D1*
X2906460Y682039D1*
X2901416Y689588D1*
X2896980Y697509D1*
X2893179Y705753D1*
X2890037Y714271D1*
X2887573Y723009D1*
X2885801Y731913D1*
X2884734Y740928D1*
X2884378Y750000D1*
X2884734Y759072D1*
X2885801Y768087D1*
X2887573Y776991D1*
X2890037Y785729D1*
X2893179Y794247D1*
X2896980Y802491D1*
X2901416Y810412D1*
X2906460Y817961D1*
X2912080Y825091D1*
X2918243Y831757D1*
X2924909Y837920D1*
X2932039Y843540D1*
X2939588Y848584D1*
X2947509Y853020D1*
X2955753Y856821D1*
X2964271Y859963D1*
X2973009Y862427D1*
X2981913Y864199D1*
X2990928Y865266D1*
X3000000Y865622D1*
X3009072Y865266D1*
X3018087Y864199D1*
X3026991Y862427D1*
X3035729Y859963D1*
X3044247Y856821D1*
X3052491Y853020D1*
X3060412Y848584D1*
X3069771Y842113D1*
X3069768Y1366069D1*
X3067142Y1373078D1*
X3065285Y1379662D1*
X3063951Y1386371D1*
X3063147Y1393164D1*
X3062999Y1403071D1*
X3052491Y1396980D1*
X3044247Y1393179D1*
X3035729Y1390037D1*
X3026991Y1387573D1*
X3018087Y1385801D1*
X3009072Y1384734D1*
X3000000Y1384378D1*
X2990928Y1384734D1*
X2981913Y1385801D1*
X2973009Y1387573D1*
X2964271Y1390037D1*
X2955753Y1393179D1*
X2947509Y1396980D1*
X2939588Y1401416D1*
X2932039Y1406460D1*
X2924909Y1412080D1*
X2918243Y1418243D1*
X2912080Y1424909D1*
X2906460Y1432039D1*
X2901416Y1439588D1*
X2896980Y1447509D1*
X2893179Y1455753D1*
X2890037Y1464271D1*
X2887573Y1473009D1*
X2885801Y1481913D1*
X2884734Y1490928D1*
X2884378Y1500000D1*
X2884734Y1509072D1*
X2885801Y1518087D1*
X2887573Y1526991D1*
X2890037Y1535729D1*
X2893179Y1544247D1*
X2896980Y1552491D1*
X2901416Y1560412D1*
X2906460Y1567961D1*
X2912080Y1575091D1*
X2918243Y1581757D1*
X2924909Y1587920D1*
X2932039Y1593540D1*
X2939588Y1598584D1*
X2947509Y1603020D1*
X2955753Y1606821D1*
X2964271Y1609963D1*
X2973009Y1612427D1*
X2981913Y1614199D1*
X2990928Y1615266D1*
X3000000Y1615622D1*
X3009072Y1615266D1*
X3018087Y1614199D1*
X3026991Y1612427D1*
X3035729Y1609963D1*
X3044247Y1606821D1*
X3052491Y1603020D1*
X3060412Y1598584D1*
X3069771Y1592113D1*
X3069768Y2116069D1*
X3067142Y2123078D1*
X3065285Y2129662D1*
X3063951Y2136371D1*
X3063147Y2143164D1*
X3062999Y2153071D1*
X3052491Y2146980D1*
X3044247Y2143179D1*
X3035729Y2140037D1*
X3026991Y2137573D1*
X3018087Y2135801D1*
X3009072Y2134734D1*
X3000000Y2134378D1*
X2990928Y2134734D1*
X2981913Y2135801D1*
X2973009Y2137573D1*
X2964271Y2140037D1*
X2955753Y2143179D1*
X2947509Y2146980D1*
X2939588Y2151416D1*
X2932039Y2156460D1*
X2924909Y2162080D1*
X2918243Y2168243D1*
X2912080Y2174909D1*
X2906460Y2182039D1*
X2901416Y2189588D1*
X2896980Y2197509D1*
X2893179Y2205753D1*
X2890037Y2214271D1*
X2887573Y2223009D1*
X2885801Y2231913D1*
X2884734Y2240928D1*
X2884378Y2250000D1*
X2884734Y2259072D1*
X2885801Y2268087D1*
X2887573Y2276991D1*
X2890037Y2285729D1*
X2893179Y2294247D1*
X2896980Y2302491D1*
X2901416Y2310412D1*
X2906460Y2317961D1*
X2912080Y2325091D1*
X2918790Y2332263D1*
X2763976Y2332268D1*
X2731690Y2299988D1*
X2731707Y2267991D1*
X2734754Y2277026D1*
X2739785Y2286900D1*
X2746299Y2295865D1*
X2754135Y2303701D1*
X2763100Y2310215D1*
X2772974Y2315246D1*
X2783514Y2318671D1*
X2794459Y2320404D1*
X2805541D1*
X2816486Y2318671D1*
X2827026Y2315246D1*
X2836900Y2310215D1*
X2845865Y2303701D1*
X2853701Y2295865D1*
X2860215Y2286900D1*
X2865246Y2277026D1*
X2868671Y2266486D1*
X2870404Y2255541D1*
Y2244459D1*
X2868671Y2233514D1*
X2865246Y2222974D1*
X2860215Y2213100D1*
X2853701Y2204135D1*
X2845865Y2196299D1*
X2836900Y2189785D1*
X2827026Y2184754D1*
X2816486Y2181329D1*
X2805541Y2179596D1*
X2794459D1*
X2783514Y2181329D1*
X2772974Y2184754D1*
X2763100Y2189785D1*
X2754135Y2196299D1*
X2746299Y2204135D1*
X2739785Y2213100D1*
X2734754Y2222974D1*
X2731711Y2232159D1*
X2731707Y2120220D1*
X2735645Y2120208D1*
Y1982972D1*
X2629904D1*
Y2002673D1*
X2594066Y2002808D1*
X2586482Y2004009D1*
X2579180Y2006382D1*
X2572338Y2009868D1*
X2566126Y2014382D1*
X2543817Y2036477D1*
X2487518Y2092990D1*
X2483005Y2099202D1*
X2479519Y2106043D1*
X2477626Y2110447D1*
X2474284Y2104479D1*
X2470483Y2098791D1*
X2466248Y2093419D1*
X2461605Y2088395D1*
X2456581Y2083752D1*
X2451209Y2079517D1*
X2445521Y2075716D1*
X2439553Y2072374D1*
X2433340Y2069510D1*
X2426922Y2067142D1*
X2417639Y2064748D1*
X2417634Y1562755D1*
X2422974Y1565246D1*
X2433514Y1568671D1*
X2444459Y1570404D1*
X2455541D1*
X2466486Y1568671D1*
X2477026Y1565246D1*
X2486900Y1560215D1*
X2495865Y1553701D1*
X2503701Y1545865D1*
X2510215Y1536900D1*
X2515246Y1527026D1*
X2518671Y1516486D1*
X2520404Y1505541D1*
Y1494459D1*
X2518671Y1483514D1*
X2515246Y1472974D1*
X2510215Y1463100D1*
X2503701Y1454135D1*
X2495865Y1446299D1*
X2486900Y1439785D1*
X2479406Y1435851D1*
X2482858Y1426922D1*
X2484715Y1420338D1*
X2486049Y1413629D1*
X2486853Y1406836D1*
X2487122Y1400000D1*
X2486853Y1393164D1*
X2486049Y1386371D1*
X2484715Y1379662D1*
X2482858Y1373078D1*
X2480490Y1366660D1*
X2477626Y1360447D1*
X2474284Y1354479D1*
X2470483Y1348791D1*
X2466248Y1343419D1*
X2461605Y1338395D1*
X2456581Y1333752D1*
X2451209Y1329517D1*
X2445521Y1325716D1*
X2439553Y1322374D1*
X2433340Y1319510D1*
X2426922Y1317142D1*
X2417639Y1314748D1*
X2417634Y812755D1*
X2422974Y815246D1*
X2433514Y818671D1*
X2444459Y820404D1*
X2455541D1*
X2466486Y818671D1*
X2477026Y815246D1*
X2486900Y810215D1*
X2495865Y803701D1*
X2503701Y795865D1*
X2510215Y786900D1*
X2515246Y777026D1*
X2518671Y766486D1*
X2520404Y755541D1*
Y744459D1*
X2518671Y733514D1*
X2515246Y722974D1*
X2510215Y713100D1*
X2503701Y704135D1*
X2495865Y696299D1*
X2486900Y689785D1*
X2479406Y685851D1*
X2482858Y676922D1*
X2484715Y670338D1*
X2486049Y663629D1*
X2486853Y656836D1*
X2487122Y650000D1*
X2486853Y643164D1*
X2486049Y636371D1*
X2484715Y629662D1*
X2482858Y623078D1*
X2480490Y616660D1*
X2477626Y610447D1*
X2474284Y604479D1*
X2470483Y598791D1*
X2466248Y593419D1*
X2461605Y588395D1*
X2456581Y583752D1*
X2451209Y579517D1*
X2445521Y575716D1*
X2439553Y572374D1*
X2433340Y569510D1*
X2426922Y567142D1*
X2420338Y565285D1*
X2413629Y563951D1*
X2406836Y563147D1*
X2400000Y562878D1*
X2393164Y563147D1*
X2386371Y563951D1*
X2379662Y565285D1*
X2373078Y567142D1*
X2366660Y569510D1*
X2360447Y572374D1*
X2354479Y575716D1*
X2348791Y579517D1*
X2343419Y583752D1*
X2338395Y588395D1*
X2333752Y593419D1*
X2329517Y598791D1*
X2325716Y604479D1*
X2322374Y610447D1*
X2319510Y616660D1*
X2317142Y623078D1*
X2315285Y629662D1*
X2313951Y636371D1*
X2313147Y643164D1*
X2312999Y653071D1*
X2302491Y646980D1*
X2294247Y643179D1*
X2285729Y640037D1*
X2276991Y637573D1*
X2268087Y635801D1*
X2259072Y634734D1*
X2250000Y634378D1*
X2240928Y634734D1*
X2231913Y635801D1*
X2223009Y637573D1*
X2214271Y640037D1*
X2205753Y643179D1*
X2197509Y646980D1*
X2189588Y651416D1*
X2182039Y656460D1*
X2174909Y662080D1*
X2168243Y668243D1*
X2162080Y674909D1*
X2156460Y682039D1*
X2151416Y689588D1*
X2146980Y697509D1*
X2143179Y705753D1*
X2140037Y714271D1*
X2137573Y723009D1*
X2135801Y731913D1*
X2134734Y740928D1*
X2134378Y750000D1*
X2134734Y759072D1*
X2135801Y768087D1*
X2137573Y776991D1*
X2140037Y785729D1*
X2143179Y794247D1*
X2146980Y802491D1*
X2151416Y810412D1*
X2156460Y817961D1*
X2162080Y825091D1*
X2168243Y831757D1*
X2174909Y837920D1*
X2182039Y843540D1*
X2189588Y848584D1*
X2197509Y853020D1*
X2205753Y856821D1*
X2214271Y859963D1*
X2223009Y862427D1*
X2231913Y864199D1*
X2240928Y865266D1*
X2250000Y865622D1*
X2259072Y865266D1*
X2268087Y864199D1*
X2276991Y862427D1*
X2285729Y859963D1*
X2294247Y856821D1*
X2302491Y853020D1*
X2310412Y848584D1*
X2319771Y842113D1*
X2319768Y1115741D1*
X2310996Y1115749D1*
X2308779Y1109264D1*
X2304710Y1101277D1*
X2299441Y1094026D1*
X2293103Y1087687D1*
X2285851Y1082419D1*
X2277865Y1078349D1*
X2269340Y1075580D1*
X2260487Y1074177D1*
X2251524D1*
X2242670Y1075580D1*
X2234146Y1078349D1*
X2226159Y1082419D1*
X2218907Y1087687D1*
X2212569Y1094026D1*
X2207301Y1101277D1*
X2203231Y1109264D1*
X2200461Y1117788D1*
X2199059Y1126642D1*
Y1135605D1*
X2200461Y1144458D1*
X2203231Y1152983D1*
X2207301Y1160970D1*
X2212569Y1168221D1*
X2218907Y1174559D1*
X2226159Y1179828D1*
X2234146Y1183897D1*
X2237384Y1185092D1*
X2237382Y1221489D1*
X2319736D1*
X2319768Y1249589D1*
X2237382Y1249607D1*
Y1251079D1*
X2222067Y1251067D1*
X2216248Y1243419D1*
X2211605Y1238395D1*
X2206581Y1233752D1*
X2201209Y1229517D1*
X2195521Y1225716D1*
X2189553Y1222374D1*
X2183340Y1219510D1*
X2176922Y1217142D1*
X2170338Y1215285D1*
X2163629Y1213951D1*
X2156836Y1213147D1*
X2150000Y1212878D1*
X2143164Y1213147D1*
X2136371Y1213951D1*
X2129662Y1215285D1*
X2123078Y1217142D1*
X2116660Y1219510D1*
X2110447Y1222374D1*
X2104479Y1225716D1*
X2098791Y1229517D1*
X2093419Y1233752D1*
X2088395Y1238395D1*
X2083752Y1243419D1*
X2079517Y1248791D1*
X2075716Y1254479D1*
X2072374Y1260447D1*
X2069510Y1266660D1*
X2067142Y1273078D1*
X2065285Y1279662D1*
X2063951Y1286371D1*
X2063147Y1293164D1*
X2062878Y1300000D1*
X2063147Y1306836D1*
X2063951Y1313629D1*
X2065285Y1320338D1*
X2067142Y1326922D1*
X2069510Y1333340D1*
X2072374Y1339553D1*
X2075716Y1345521D1*
X2079517Y1351209D1*
X2083752Y1356581D1*
X2088395Y1361605D1*
X2093419Y1366248D1*
X2098791Y1370483D1*
X2104479Y1374284D1*
X2110447Y1377626D1*
X2116660Y1380490D1*
X2123078Y1382858D1*
X2129662Y1384715D1*
X2136371Y1386049D1*
X2143164Y1386853D1*
X2150000Y1387122D1*
X2156836Y1386853D1*
X2163629Y1386049D1*
X2170338Y1384715D1*
X2176922Y1382858D1*
X2183340Y1380490D1*
X2189553Y1377626D1*
X2195521Y1374284D1*
X2201209Y1370483D1*
X2206581Y1366248D1*
X2211605Y1361605D1*
X2216248Y1356581D1*
X2222012Y1348921D1*
X2237378Y1348933D1*
X2237382Y1355347D1*
X2319736D1*
X2319768Y1366069D1*
X2317142Y1373078D1*
X2315285Y1379662D1*
X2313951Y1386371D1*
X2313147Y1393164D1*
X2312999Y1403071D1*
X2302491Y1396980D1*
X2294247Y1393179D1*
X2285729Y1390037D1*
X2276991Y1387573D1*
X2268087Y1385801D1*
X2259072Y1384734D1*
X2250000Y1384378D1*
X2240928Y1384734D1*
X2231913Y1385801D1*
X2223009Y1387573D1*
X2214271Y1390037D1*
X2205753Y1393179D1*
X2197509Y1396980D1*
X2189588Y1401416D1*
X2182039Y1406460D1*
X2174909Y1412080D1*
X2168243Y1418243D1*
X2162080Y1424909D1*
X2156460Y1432039D1*
X2151416Y1439588D1*
X2146980Y1447509D1*
X2143179Y1455753D1*
X2140037Y1464271D1*
X2137573Y1473009D1*
X2135801Y1481913D1*
X2134734Y1490928D1*
X2134378Y1500000D1*
X2134734Y1509072D1*
X2135801Y1518087D1*
X2137573Y1526991D1*
X2140037Y1535729D1*
X2143179Y1544247D1*
X2146980Y1552491D1*
X2151416Y1560412D1*
X2156460Y1567961D1*
X2162080Y1575091D1*
X2168243Y1581757D1*
X2174909Y1587920D1*
X2182039Y1593540D1*
X2189588Y1598584D1*
X2197509Y1603020D1*
X2205753Y1606821D1*
X2214271Y1609963D1*
X2223009Y1612427D1*
X2231913Y1614199D1*
X2240928Y1615266D1*
X2250000Y1615622D1*
X2259072Y1615266D1*
X2268087Y1614199D1*
X2276991Y1612427D1*
X2285729Y1609963D1*
X2294247Y1606821D1*
X2302491Y1603020D1*
X2310412Y1598584D1*
X2319771Y1592113D1*
X2319768Y1752562D1*
X2313086Y1750509D1*
X2304232Y1749107D1*
X2295269D1*
X2286416Y1750509D1*
X2277891Y1753279D1*
X2269904Y1757348D1*
X2262653Y1762617D1*
X2256315Y1768955D1*
X2251046Y1776206D1*
X2246977Y1784193D1*
X2244207Y1792718D1*
X2242805Y1801571D1*
Y1810534D1*
X2244207Y1819387D1*
X2246977Y1827912D1*
X2250815Y1835486D1*
X2246881Y1837424D1*
Y1974660D1*
X2250792D1*
X2250818Y2010788D1*
X2234168Y2027410D1*
X2230490Y2016660D1*
X2227626Y2010447D1*
X2224284Y2004479D1*
X2220483Y1998791D1*
X2214815Y1991869D1*
X2214826Y1974648D1*
X2218763Y1974660D1*
Y1837424D1*
X2113022D1*
Y1971121D1*
X2105948Y1974894D1*
X2106051Y1724369D1*
X2111155Y1717298D1*
X2115224Y1709311D1*
X2117994Y1700786D1*
X2119396Y1691933D1*
Y1682970D1*
X2117994Y1674117D1*
X2115224Y1665592D1*
X2111155Y1657605D1*
X2105886Y1650354D1*
X2099548Y1644015D1*
X2092296Y1638747D1*
X2084310Y1634678D1*
X2075785Y1631908D1*
X2066932Y1630505D1*
X2057968D1*
X2049115Y1631908D1*
X2040590Y1634678D1*
X2032604Y1638747D1*
X2025586Y1643831D1*
X2022752Y1639829D1*
Y1624640D1*
X1890497D1*
X1890513Y1585379D1*
X1943913Y1585350D1*
X1943878Y1345802D1*
X1310261Y1978639D2*
Y1943319D1*
X1176962D1*
Y2011750D1*
X1167866Y2013157D1*
X1159341Y2015927D1*
X1151355Y2019996D1*
X1144103Y2025265D1*
X1137765Y2031603D1*
X1132496Y2038855D1*
X1128427Y2046841D1*
X1125657Y2055366D1*
X1124516Y2062009D1*
X1049727Y2062022D1*
X1049755Y2033891D1*
X1135934Y2033904D1*
X1137248Y2032218D1*
Y1928164D1*
X1115610D1*
X1115595Y1925521D1*
X1188085Y1853005D1*
X1392357Y1853017D1*
X1398910Y1856949D1*
X1407191Y1860379D1*
X1415907Y1862471D1*
X1424843Y1863175D1*
X1433778Y1862471D1*
X1442494Y1860379D1*
X1450775Y1856949D1*
X1458418Y1852265D1*
X1459230Y1851625D1*
X1459236Y1896069D1*
X1400926Y1896211D1*
X1395173Y1897123D1*
X1389633Y1898923D1*
X1384442Y1901567D1*
X1379730Y1904991D1*
X1375611Y1909110D1*
X1372187Y1913823D1*
X1369542Y1919013D1*
X1367742Y1924553D1*
X1366831Y1930307D1*
X1366716Y1952904D1*
X1367173Y1958711D1*
X1368533Y1964376D1*
X1370763Y1969757D1*
X1372193Y1972310D1*
X1369634Y1974055D1*
X1361352Y1970625D1*
X1352637Y1968533D1*
X1343701Y1967829D1*
X1334765Y1968533D1*
X1326049Y1970625D1*
X1317768Y1974055D1*
X1310256Y1978651D1*
X1898639Y1750066D2*
X1961401D1*
X1962111Y1758744D1*
X1964204Y1767460D1*
X1967634Y1775741D1*
X1972317Y1783384D1*
X1974910Y1786672D1*
X1974912Y1949432D1*
X1968701Y1949079D1*
X1960652Y1949677D1*
X1960531Y1930307D1*
X1959620Y1924553D1*
X1957820Y1919013D1*
X1955175Y1913823D1*
X1951752Y1909110D1*
X1947633Y1904991D1*
X1942920Y1901567D1*
X1937730Y1898923D1*
X1932190Y1897123D1*
X1926436Y1896211D1*
X1877592Y1896097D1*
X1849745Y1896211D1*
X1843991Y1897123D1*
X1838441Y1898928D1*
X1836630Y1893193D1*
Y1698470D1*
X1879261Y1655603D1*
X1883592Y1649641D1*
X1886938Y1643075D1*
X1889218Y1636052D1*
X1889453Y1661386D1*
Y1750066D1*
X1898639D1*
X2629904Y2100493D2*
Y2120208D1*
X2633816D1*
X2633841Y2187412D1*
X2627828Y2184483D1*
X2619303Y2181713D1*
X2610450Y2180311D1*
X2601487D1*
X2592634Y2181713D1*
X2584109Y2184483D1*
X2576122Y2188553D1*
X2573660Y2190198D1*
Y2145070D1*
X2618170Y2100528D1*
X2629878Y2100524D1*
X2772949Y2120208D2*
X2848413D1*
X2854479Y2124284D1*
X2860447Y2127626D1*
X2866660Y2130490D1*
X2873078Y2132858D1*
X2879662Y2134715D1*
X2886371Y2136049D1*
X2893164Y2136853D1*
X2900000Y2137122D1*
X2906836Y2136853D1*
X2913629Y2136049D1*
X2920338Y2134715D1*
X2926922Y2132858D1*
X2933340Y2130490D1*
X2939553Y2127626D1*
X2945521Y2124284D1*
X2951209Y2120483D1*
X2956581Y2116248D1*
X2961605Y2111605D1*
X2966248Y2106581D1*
X2970483Y2101209D1*
X2974284Y2095521D1*
X2977626Y2089553D1*
X2980490Y2083340D1*
X2982858Y2076922D1*
X2984715Y2070338D1*
X2986049Y2063629D1*
X2986853Y2056836D1*
X2987122Y2050000D1*
X2986853Y2043164D1*
X2986049Y2036371D1*
X2984715Y2029662D1*
X2982858Y2023078D1*
X2980490Y2016660D1*
X2977626Y2010447D1*
X2974284Y2004479D1*
X2970483Y1998791D1*
X2966248Y1993419D1*
X2961605Y1988395D1*
X2956581Y1983752D1*
X2951209Y1979517D1*
X2945521Y1975716D1*
X2939553Y1972374D1*
X2933340Y1969510D1*
X2926922Y1967142D1*
X2920338Y1965285D1*
X2913629Y1963951D1*
X2906836Y1963147D1*
X2900000Y1962878D1*
X2893164Y1963147D1*
X2886371Y1963951D1*
X2879662Y1965285D1*
X2873078Y1967142D1*
X2866660Y1969510D1*
X2860447Y1972374D1*
X2854479Y1975716D1*
X2848791Y1979517D1*
X2844405Y1982974D1*
X2763763Y1982972D1*
Y2120208D1*
X2772949D1*
X3522870D2*
X3598407D1*
X3604479Y2124284D1*
X3610447Y2127626D1*
X3616660Y2130490D1*
X3623078Y2132858D1*
X3629662Y2134715D1*
X3636371Y2136049D1*
X3643164Y2136853D1*
X3650000Y2137122D1*
X3656836Y2136853D1*
X3663629Y2136049D1*
X3670338Y2134715D1*
X3676922Y2132858D1*
X3683340Y2130490D1*
X3689553Y2127626D1*
X3695521Y2124284D1*
X3701209Y2120483D1*
X3706581Y2116248D1*
X3711605Y2111605D1*
X3716248Y2106581D1*
X3720483Y2101209D1*
X3724284Y2095521D1*
X3727626Y2089553D1*
X3730490Y2083340D1*
X3732858Y2076922D1*
X3734715Y2070338D1*
X3736049Y2063629D1*
X3736853Y2056836D1*
X3737122Y2050000D1*
X3736853Y2043164D1*
X3736049Y2036371D1*
X3734715Y2029662D1*
X3732858Y2023078D1*
X3730490Y2016660D1*
X3727626Y2010447D1*
X3724284Y2004479D1*
X3720483Y1998791D1*
X3716248Y1993419D1*
X3711605Y1988395D1*
X3706581Y1983752D1*
X3701209Y1979517D1*
X3695521Y1975716D1*
X3689553Y1972374D1*
X3683340Y1969510D1*
X3676922Y1967142D1*
X3670338Y1965285D1*
X3663629Y1963951D1*
X3656836Y1963147D1*
X3650000Y1962878D1*
X3643164Y1963147D1*
X3636371Y1963951D1*
X3629662Y1965285D1*
X3623078Y1967142D1*
X3616660Y1969510D1*
X3610447Y1972374D1*
X3604479Y1975716D1*
X3598791Y1979517D1*
X3594405Y1982974D1*
X3513684Y1982972D1*
Y2120208D1*
X3522870D1*
X465505Y1221489D2*
X593555D1*
Y1182555D1*
X598529Y1179828D1*
X605780Y1174559D1*
X612118Y1168221D1*
X617387Y1160970D1*
X621456Y1152983D1*
X624226Y1144458D1*
X625628Y1135605D1*
Y1126642D1*
X624226Y1117788D1*
X621456Y1109264D1*
X617387Y1101277D1*
X612118Y1094026D1*
X605780Y1087687D1*
X598529Y1082419D1*
X590542Y1078349D1*
X582017Y1075580D1*
X573164Y1074177D1*
X564201D1*
X555348Y1075580D1*
X546823Y1078349D1*
X538836Y1082419D1*
X531585Y1087687D1*
X525246Y1094026D1*
X519978Y1101277D1*
X515909Y1109264D1*
X513714Y1115748D1*
X456319Y1115749D1*
Y1221489D1*
X465505D1*
X465506Y1355348D2*
X582739D1*
X588395Y1361605D1*
X593419Y1366248D1*
X598791Y1370483D1*
X604479Y1374284D1*
X610447Y1377626D1*
X616660Y1380490D1*
X623078Y1382858D1*
X629662Y1384715D1*
X636371Y1386049D1*
X643164Y1386853D1*
X650000Y1387122D1*
X656836Y1386853D1*
X663629Y1386049D1*
X670338Y1384715D1*
X676922Y1382858D1*
X683340Y1380490D1*
X689553Y1377626D1*
X695521Y1374284D1*
X701209Y1370483D1*
X706581Y1366248D1*
X711605Y1361605D1*
X716248Y1356581D1*
X720483Y1351209D1*
X724284Y1345521D1*
X727626Y1339553D1*
X730490Y1333340D1*
X732858Y1326922D1*
X734715Y1320338D1*
X736049Y1313629D1*
X736853Y1306836D1*
X737122Y1300000D1*
X736853Y1293164D1*
X736049Y1286371D1*
X734715Y1279662D1*
X732858Y1273078D1*
X730490Y1266660D1*
X727626Y1260447D1*
X724284Y1254479D1*
X720483Y1248791D1*
X716248Y1243419D1*
X711605Y1238395D1*
X706581Y1233752D1*
X701209Y1229517D1*
X695521Y1225716D1*
X689553Y1222374D1*
X683340Y1219510D1*
X676922Y1217142D1*
X670338Y1215285D1*
X663629Y1213951D1*
X656836Y1213147D1*
X650000Y1212878D1*
X643164Y1213147D1*
X636371Y1213951D1*
X629662Y1215285D1*
X623078Y1217142D1*
X616660Y1219510D1*
X610447Y1222374D1*
X604479Y1225716D1*
X598791Y1229517D1*
X593419Y1233752D1*
X588395Y1238395D1*
X583752Y1243419D1*
X578967Y1249613D1*
X456319Y1249607D1*
Y1355348D1*
X465506D1*
X2715269Y1221490D2*
X2843319D1*
Y1115749D1*
X2779696D1*
X2777480Y1109264D1*
X2773411Y1101277D1*
X2768142Y1094026D1*
X2761804Y1087687D1*
X2754552Y1082419D1*
X2746566Y1078349D1*
X2738041Y1075580D1*
X2729188Y1074177D1*
X2720224D1*
X2711371Y1075580D1*
X2702846Y1078349D1*
X2694860Y1082419D1*
X2687608Y1087687D1*
X2681270Y1094026D1*
X2676001Y1101277D1*
X2671932Y1109264D1*
X2669162Y1117788D1*
X2667760Y1126642D1*
Y1135605D1*
X2669162Y1144458D1*
X2671932Y1152983D1*
X2676001Y1160970D1*
X2681270Y1168221D1*
X2687608Y1174559D1*
X2694860Y1179828D1*
X2702846Y1183897D1*
X2706085Y1185092D1*
X2706083Y1221490D1*
X2715269D1*
Y1355348D2*
X2832718D1*
X2838395Y1361605D1*
X2843419Y1366248D1*
X2848791Y1370483D1*
X2854479Y1374284D1*
X2860447Y1377626D1*
X2866660Y1380490D1*
X2873078Y1382858D1*
X2879662Y1384715D1*
X2886371Y1386049D1*
X2893164Y1386853D1*
X2900000Y1387122D1*
X2906836Y1386853D1*
X2913629Y1386049D1*
X2920338Y1384715D1*
X2926922Y1382858D1*
X2933340Y1380490D1*
X2939553Y1377626D1*
X2945521Y1374284D1*
X2951209Y1370483D1*
X2956581Y1366248D1*
X2961605Y1361605D1*
X2966248Y1356581D1*
X2970483Y1351209D1*
X2974284Y1345521D1*
X2977626Y1339553D1*
X2980490Y1333340D1*
X2982858Y1326922D1*
X2984715Y1320338D1*
X2986049Y1313629D1*
X2986853Y1306836D1*
X2987122Y1300000D1*
X2986853Y1293164D1*
X2986049Y1286371D1*
X2984715Y1279662D1*
X2982858Y1273078D1*
X2980490Y1266660D1*
X2977626Y1260447D1*
X2974284Y1254479D1*
X2970483Y1248791D1*
X2966248Y1243419D1*
X2961605Y1238395D1*
X2956581Y1233752D1*
X2951209Y1229517D1*
X2945521Y1225716D1*
X2939553Y1222374D1*
X2933340Y1219510D1*
X2926922Y1217142D1*
X2920338Y1215285D1*
X2913629Y1213951D1*
X2906836Y1213147D1*
X2900000Y1212878D1*
X2893164Y1213147D1*
X2886371Y1213951D1*
X2879662Y1215285D1*
X2873078Y1217142D1*
X2866660Y1219510D1*
X2860447Y1222374D1*
X2854479Y1225716D1*
X2848791Y1229517D1*
X2843419Y1233752D1*
X2838395Y1238395D1*
X2833752Y1243419D1*
X2828967Y1249613D1*
X2706083Y1249608D1*
Y1355348D1*
X2715269D1*
X3477689Y1221489D2*
X3605739D1*
Y1115749D1*
X3535872D1*
X3533651Y1109264D1*
X3529581Y1101277D1*
X3524313Y1094026D1*
X3517974Y1087687D1*
X3510723Y1082419D1*
X3502736Y1078349D1*
X3494212Y1075580D1*
X3485358Y1074177D1*
X3476395D1*
X3467542Y1075580D1*
X3459017Y1078349D1*
X3451030Y1082419D1*
X3443779Y1087687D1*
X3437441Y1094026D1*
X3432172Y1101277D1*
X3428103Y1109264D1*
X3425333Y1117788D1*
X3423931Y1126642D1*
Y1135605D1*
X3425333Y1144458D1*
X3428103Y1152983D1*
X3432172Y1160970D1*
X3437441Y1168221D1*
X3443779Y1174559D1*
X3451030Y1179828D1*
X3459017Y1183897D1*
X3467086Y1186539D1*
X3468503Y1189240D1*
Y1221489D1*
X3477689D1*
Y1355348D2*
X3582722D1*
X3588395Y1361605D1*
X3593419Y1366248D1*
X3598791Y1370483D1*
X3604479Y1374284D1*
X3610447Y1377626D1*
X3616660Y1380490D1*
X3623078Y1382858D1*
X3629662Y1384715D1*
X3636371Y1386049D1*
X3643164Y1386853D1*
X3650000Y1387122D1*
X3656836Y1386853D1*
X3663629Y1386049D1*
X3670338Y1384715D1*
X3676922Y1382858D1*
X3683340Y1380490D1*
X3689553Y1377626D1*
X3695521Y1374284D1*
X3701209Y1370483D1*
X3706581Y1366248D1*
X3711605Y1361605D1*
X3716248Y1356581D1*
X3720483Y1351209D1*
X3724284Y1345521D1*
X3727626Y1339553D1*
X3730490Y1333340D1*
X3732858Y1326922D1*
X3734715Y1320338D1*
X3736049Y1313629D1*
X3736853Y1306836D1*
X3737122Y1300000D1*
X3736853Y1293164D1*
X3736049Y1286371D1*
X3734715Y1279662D1*
X3732858Y1273078D1*
X3730490Y1266660D1*
X3727626Y1260447D1*
X3724284Y1254479D1*
X3720483Y1248791D1*
X3716248Y1243419D1*
X3711605Y1238395D1*
X3706581Y1233752D1*
X3701209Y1229517D1*
X3695521Y1225716D1*
X3689553Y1222374D1*
X3683340Y1219510D1*
X3676922Y1217142D1*
X3670338Y1215285D1*
X3663629Y1213951D1*
X3656836Y1213147D1*
X3650000Y1212878D1*
X3643164Y1213147D1*
X3636371Y1213951D1*
X3629662Y1215285D1*
X3623078Y1217142D1*
X3616660Y1219510D1*
X3610447Y1222374D1*
X3604479Y1225716D1*
X3598791Y1229517D1*
X3593419Y1233752D1*
X3588395Y1238395D1*
X3583752Y1243419D1*
X3578967Y1249613D1*
X3468503Y1249608D1*
Y1355348D1*
X3477689D1*
X3563600Y538996D2*
X3435442D1*
Y644736D1*
X3572679D1*
Y640825D1*
X3653839Y640649D1*
X3661423Y639447D1*
X3668726Y637075D1*
X3675568Y633589D1*
X3676922Y632858D1*
X3683340Y630490D1*
X3689553Y627626D1*
X3695521Y624284D1*
X3701209Y620483D1*
X3706581Y616248D1*
X3711605Y611605D1*
X3716248Y606581D1*
X3720483Y601209D1*
X3724284Y595521D1*
X3727626Y589553D1*
X3730490Y583340D1*
X3732858Y576922D1*
X3734715Y570338D1*
X3736049Y563629D1*
X3736853Y556836D1*
X3737122Y550000D1*
X3736853Y543164D1*
X3736049Y536371D1*
X3734715Y529662D1*
X3732858Y523078D1*
X3730490Y516660D1*
X3727626Y510447D1*
X3724284Y504479D1*
X3720483Y498791D1*
X3716248Y493419D1*
X3711605Y488395D1*
X3706581Y483752D1*
X3701209Y479517D1*
X3695521Y475716D1*
X3689553Y472374D1*
X3683340Y469510D1*
X3676922Y467142D1*
X3670338Y465285D1*
X3663629Y463951D1*
X3656836Y463147D1*
X3650000Y462878D1*
X3643164Y463147D1*
X3636371Y463951D1*
X3629662Y465285D1*
X3623078Y467142D1*
X3616660Y469510D1*
X3610447Y472374D1*
X3604479Y475716D1*
X3598791Y479517D1*
X3593419Y483752D1*
X3588395Y488395D1*
X3583752Y493419D1*
X3579517Y498791D1*
X3575716Y504479D1*
X3572184Y510860D1*
X3569510Y516660D1*
X3567142Y523078D1*
X3565285Y529662D1*
X3563640Y538998D1*
X1459237Y2348562D2*
X1459208Y2304987D1*
X1400926Y2304873D1*
X1395173Y2303961D1*
X1389633Y2302161D1*
X1384442Y2299517D1*
X1379730Y2296093D1*
X1378067Y2294602D1*
X1377922Y2365929D1*
X1376769Y2373208D1*
X1374492Y2380217D1*
X1371146Y2386783D1*
X1366815Y2392745D1*
X1364997Y2394768D1*
X1469455D1*
X1476962Y2392036D1*
X1472249Y2388612D1*
X1468130Y2384493D1*
X1464706Y2379781D1*
X1462062Y2374591D1*
X1460262Y2369051D1*
X1459351Y2363297D1*
X1459236Y2317077D1*
Y2304984D1*
X1613431Y2397393D2*
X1619196Y2396481D1*
X1624736Y2394681D1*
X1629936Y2392030D1*
X1634441Y2392036D1*
X1639631Y2394681D1*
X1645171Y2396481D1*
X1648041Y2397051D1*
X1648212Y2412832D1*
X1644280Y2419416D1*
X1640850Y2427697D1*
X1638757Y2436413D1*
X1638054Y2445349D1*
X1638757Y2454285D1*
X1640850Y2463001D1*
X1644280Y2471282D1*
X1648963Y2478925D1*
X1654784Y2485740D1*
X1661600Y2491562D1*
X1669243Y2496245D1*
X1677524Y2499675D1*
X1686240Y2501768D1*
X1695176Y2502471D1*
X1704112Y2501768D1*
X1712828Y2499675D1*
X1721109Y2496245D1*
X1728751Y2491562D1*
X1735567Y2485740D1*
X1741389Y2478925D1*
X1746072Y2471282D1*
X1749526Y2462916D1*
X1756201Y2463323D1*
X1765137Y2462620D1*
X1773852Y2460527D1*
X1777551Y2459163D1*
X1777543Y2633089D1*
X1612804Y2633059D1*
X1612811Y2397459D1*
X1960646Y2198952D2*
X1960531Y2182275D1*
X1959617Y2176511D1*
X1961581Y2175658D1*
X2008433Y2175523D1*
X2015193Y2174452D1*
X2021702Y2172337D1*
X2027801Y2169230D1*
X2033338Y2165207D1*
X2049373Y2149362D1*
X2053818Y2144158D1*
X2057394Y2138322D1*
X2060014Y2131998D1*
X2061611Y2125343D1*
X2062148Y2118506D1*
X2062276Y2113148D1*
X2071211Y2112445D1*
X2079927Y2110353D1*
X2085233Y2108294D1*
X2093419Y2116248D1*
X2098791Y2120483D1*
X2104479Y2124284D1*
X2110447Y2127626D1*
X2116660Y2130490D1*
X2127476Y2134098D1*
X2087560Y2174231D1*
X2083047Y2180443D1*
X2081163Y2183809D1*
X2077026Y2184754D1*
X2066486Y2181329D1*
X2055541Y2179596D1*
X2044459D1*
X2033514Y2181329D1*
X2022974Y2184754D1*
X2013100Y2189785D1*
X2004135Y2196299D1*
X1996299Y2204135D1*
X1989785Y2213100D1*
X1984754Y2222974D1*
X1984581Y2223442D1*
X1980630Y2218913D1*
X1960631Y2198914D1*
X1960645Y2193050D1*
X1815535Y2036894D2*
Y2042743D1*
X1807820Y2042826D1*
X1798967Y2044228D1*
X1790442Y2046998D1*
X1782456Y2051067D1*
X1775204Y2056336D1*
X1768866Y2062674D1*
X1763597Y2069925D1*
X1759528Y2077912D1*
X1756758Y2086437D1*
X1755356Y2095290D1*
Y2104253D1*
X1756758Y2113107D1*
X1759528Y2121631D1*
X1763597Y2129618D1*
X1768866Y2136869D1*
X1775204Y2143208D1*
X1779848Y2146734D1*
X1742437Y2146736D1*
X1742459Y2029805D1*
X1815711Y1956552D1*
X1815992Y1958908D1*
X1815536Y1964727D1*
X1815650Y1987313D1*
X1815992Y1990404D1*
X1815536Y1996223D1*
X1815650Y2018809D1*
X1815992Y2021900D1*
X1815535Y2027707D1*
Y2036894D1*
X2407949Y2994589D2*
X2407243Y2988625D1*
X2406072Y2982734D1*
X2404441Y2976953D1*
X2402362Y2971318D1*
X2399848Y2965864D1*
X2396913Y2960624D1*
X2393576Y2955630D1*
X2389555Y2950586D1*
X2393576Y2945551D1*
X2396913Y2940558D1*
X2399848Y2935317D1*
X2402362Y2929863D1*
X2404441Y2924228D1*
X2406072Y2918447D1*
X2407243Y2912557D1*
X2408081Y2903240D1*
X2412184Y2907579D1*
X2418871Y2913761D1*
X2426023Y2919399D1*
X2433595Y2924458D1*
X2441540Y2928908D1*
X2449810Y2932720D1*
X2458354Y2935872D1*
X2467118Y2938344D1*
X2473154Y2939545D1*
X2408089Y3004635D1*
X2407949Y2994589D1*
X2273830Y2950586D2*
X2268910Y2956976D1*
X2243523Y2956756D1*
X2068398Y2781325D1*
Y2436658D1*
X2073484Y2429586D1*
X2077553Y2421600D1*
X2080323Y2413075D1*
X2081725Y2404222D1*
Y2395258D1*
X2080323Y2386405D1*
X2077553Y2377880D1*
X2073484Y2369894D1*
X2068215Y2362642D1*
X2061877Y2356304D1*
X2054626Y2351036D1*
X2046639Y2346966D1*
X2038114Y2344196D1*
X2029261Y2342794D1*
X2020298D1*
X2011445Y2344196D1*
X2002920Y2346966D1*
X1994933Y2351036D1*
X1987682Y2356304D1*
X1981344Y2362642D1*
X1976075Y2369894D1*
X1972006Y2377880D1*
X1969236Y2386405D1*
X1967834Y2395258D1*
Y2404222D1*
X1969236Y2413075D1*
X1972006Y2421600D1*
X1976075Y2429586D1*
X1981159Y2436604D1*
X1981161Y2592833D1*
X1960971Y2592799D1*
X1960941Y2513016D1*
X1964753Y2508308D1*
X1969437Y2500665D1*
X1972867Y2492384D1*
X1974959Y2483668D1*
X1975663Y2474732D1*
X1974959Y2465796D1*
X1972867Y2457081D1*
X1969437Y2448799D1*
X1964753Y2441157D1*
X1958932Y2434341D1*
X1952116Y2428520D1*
X1944474Y2423836D1*
X1936192Y2420406D1*
X1927477Y2418314D1*
X1918541Y2417610D1*
X1909605Y2418314D1*
X1900889Y2420406D1*
X1892608Y2423836D1*
X1884965Y2428520D1*
X1878149Y2434341D1*
X1872328Y2441157D1*
X1867645Y2448799D1*
X1864778Y2455552D1*
X1864780Y2413169D1*
X1873183Y2413147D1*
X1882036Y2411745D1*
X1890560Y2408975D1*
X1898547Y2404905D1*
X1905565Y2399821D1*
X1922123Y2399684D1*
X1928883Y2398614D1*
X1935393Y2396499D1*
X1941491Y2393391D1*
X1947029Y2389368D1*
X1975526Y2361061D1*
X1982955Y2353442D1*
X1986978Y2347905D1*
X1990085Y2341806D1*
X1992200Y2335297D1*
X1993271Y2328536D1*
X1993406Y2292208D1*
X2000063Y2299937D1*
X2008489Y2307134D1*
X2017938Y2312925D1*
X2028177Y2317166D1*
X2038952Y2319753D1*
X2050000Y2320622D1*
X2061048Y2319753D1*
X2071823Y2317166D1*
X2075827Y2315689D1*
X2075987Y2334837D1*
X2077188Y2342421D1*
X2079561Y2349723D1*
X2083047Y2356565D1*
X2087560Y2362777D1*
X2109655Y2385086D1*
X2142984Y2418201D1*
X2149196Y2422714D1*
X2156038Y2426200D1*
X2163341Y2428573D1*
X2170925Y2429774D1*
X2202323Y2429925D1*
X2466073Y2429774D1*
X2473657Y2428573D1*
X2480959Y2426200D1*
X2487801Y2422714D1*
X2494013Y2418201D1*
X2516322Y2396106D1*
X2561945Y2350266D1*
X2562350Y2356680D1*
Y2731705D1*
X2554791Y2726684D1*
X2546846Y2722234D1*
X2538576Y2718421D1*
X2530032Y2715270D1*
X2521267Y2712798D1*
X2512336Y2711021D1*
X2503292Y2709951D1*
X2494193Y2709593D1*
X2485093Y2709951D1*
X2476050Y2711021D1*
X2467118Y2712798D1*
X2458354Y2715270D1*
X2449810Y2718421D1*
X2441540Y2722234D1*
X2433595Y2726684D1*
X2426023Y2731743D1*
X2418871Y2737381D1*
X2412184Y2743562D1*
X2406003Y2750249D1*
X2400365Y2757401D1*
X2395306Y2764973D1*
X2390856Y2772918D1*
X2387043Y2781188D1*
X2383892Y2789732D1*
X2381420Y2798496D1*
X2379643Y2807428D1*
X2378573Y2816471D1*
X2378215Y2825571D1*
X2378573Y2834670D1*
X2379288Y2840711D1*
X2371660Y2835370D1*
X2366420Y2832436D1*
X2360965Y2829921D1*
X2355330Y2827842D1*
X2349550Y2826212D1*
X2343659Y2825040D1*
X2337694Y2824334D1*
X2331693Y2824098D1*
X2325691Y2824334D1*
X2319727Y2825040D1*
X2313836Y2826212D1*
X2308056Y2827842D1*
X2302421Y2829921D1*
X2296966Y2832436D1*
X2291726Y2835370D1*
X2286732Y2838707D1*
X2282015Y2842425D1*
X2277605Y2846502D1*
X2273528Y2850913D1*
X2269809Y2855630D1*
X2266473Y2860624D1*
X2263538Y2865864D1*
X2261023Y2871318D1*
X2258945Y2876953D1*
X2257314Y2882734D1*
X2256143Y2888625D1*
X2255437Y2894589D1*
X2255201Y2900591D1*
X2255437Y2906592D1*
X2256143Y2912557D1*
X2257314Y2918447D1*
X2258945Y2924228D1*
X2261023Y2929863D1*
X2263538Y2935317D1*
X2266473Y2940558D1*
X2269809Y2945551D1*
X2273830Y2950596D1*
X3772313Y3066471D2*
X3771243Y3057428D1*
X3769466Y3048496D1*
X3766994Y3039732D1*
X3763842Y3031188D1*
X3760030Y3022918D1*
X3755580Y3014973D1*
X3750521Y3007401D1*
X3744883Y3000249D1*
X3738702Y2993562D1*
X3732014Y2987381D1*
X3724863Y2981743D1*
X3717291Y2976684D1*
X3709346Y2972234D1*
X3701076Y2968421D1*
X3692532Y2965270D1*
X3683767Y2962798D1*
X3674836Y2961021D1*
X3665792Y2959951D1*
X3656693Y2959593D1*
X3647593Y2959951D1*
X3638550Y2961021D1*
X3629618Y2962798D1*
X3620854Y2965270D1*
X3612310Y2968421D1*
X3604040Y2972234D1*
X3596095Y2976684D1*
X3588523Y2981743D1*
X3581371Y2987381D1*
X3574684Y2993562D1*
X3568503Y3000249D1*
X3562865Y3007401D1*
X3557806Y3014973D1*
X3553356Y3022918D1*
X3549543Y3031188D1*
X3546392Y3039732D1*
X3543920Y3048496D1*
X3542143Y3057428D1*
X3541073Y3066471D1*
X3540715Y3075571D1*
X3541073Y3084670D1*
X3542143Y3093714D1*
X3543920Y3102645D1*
X3546392Y3111410D1*
X3549543Y3119954D1*
X3553356Y3128224D1*
X3557806Y3136169D1*
X3562865Y3143741D1*
X3568503Y3150892D1*
X3574684Y3157579D1*
X3581371Y3163761D1*
X3588523Y3169399D1*
X3596095Y3174458D1*
X3604040Y3178908D1*
X3612310Y3182720D1*
X3620854Y3185872D1*
X3629618Y3188344D1*
X3638550Y3190121D1*
X3647593Y3191191D1*
X3656693Y3191549D1*
X3665792Y3191191D1*
X3674836Y3190121D1*
X3683767Y3188344D1*
X3692532Y3185872D1*
X3701076Y3182720D1*
X3709346Y3178908D1*
X3717291Y3174458D1*
X3724863Y3169399D1*
X3732014Y3163761D1*
X3738702Y3157579D1*
X3744883Y3150892D1*
X3750521Y3143741D1*
X3755580Y3136169D1*
X3760030Y3128224D1*
X3763842Y3119954D1*
X3766994Y3111410D1*
X3769466Y3102645D1*
X3771243Y3093714D1*
X3772313Y3084670D1*
X3772671Y3075571D1*
X3772313Y3066471D1*
X1404002Y2874852D2*
Y2691710D1*
X1311313D1*
X1311293Y2532518D1*
X1351134Y2492656D1*
X1476756Y2492634D1*
X1484341Y2496475D1*
X1492866Y2499245D1*
X1501719Y2500647D1*
X1510683D1*
X1519536Y2499245D1*
X1525578Y2497390D1*
X1525709Y2660001D1*
X1526780Y2666761D1*
X1528895Y2673271D1*
X1532002Y2679369D1*
X1536025Y2684907D1*
X1538360Y2687431D1*
X1535235Y2691710D1*
X1447868D1*
Y2874827D1*
X1404021Y2874818D1*
X746382Y2547631D2*
X756322D1*
X756290Y2712875D1*
X671909Y2797270D1*
X665829Y2790323D1*
X662752Y2787478D1*
X669382Y2780737D1*
X675529Y2772276D1*
X680277Y2762957D1*
X683509Y2753010D1*
X685145Y2742681D1*
Y2732222D1*
X683509Y2721892D1*
X680277Y2711946D1*
X675529Y2702627D1*
X669382Y2694166D1*
X662301Y2687062D1*
X662392Y2547631D1*
X746382D1*
X2319767Y2116102D2*
X2317142Y2123078D1*
X2315285Y2129662D1*
X2313951Y2136371D1*
X2313147Y2143164D1*
X2312999Y2153071D1*
X2302491Y2146980D1*
X2294247Y2143179D1*
X2285729Y2140037D1*
X2276991Y2137573D1*
X2264601Y2135389D1*
X2319759Y2080223D1*
X2319768Y2116069D1*
X2363723Y2229137D2*
X2373078Y2232858D1*
X2380998Y2234981D1*
X2379596Y2244459D1*
Y2255541D1*
X2381329Y2266486D1*
X2384754Y2277026D1*
X2389785Y2286900D1*
X2396299Y2295865D1*
X2404135Y2303701D1*
X2413100Y2310215D1*
X2422974Y2315246D1*
X2433514Y2318671D1*
X2444459Y2320404D1*
X2453528Y2320483D1*
X2441941Y2332083D1*
X2331436Y2332059D1*
X2337920Y2325091D1*
X2343540Y2317961D1*
X2348584Y2310412D1*
X2353020Y2302491D1*
X2356821Y2294247D1*
X2359963Y2285729D1*
X2362427Y2276991D1*
X2364199Y2268087D1*
X2365266Y2259072D1*
X2365622Y2250000D1*
X2365266Y2240928D1*
X2363652Y2229165D1*
X3986853Y2143164D2*
X3986049Y2136371D1*
X3984715Y2129662D1*
X3982858Y2123078D1*
X3980490Y2116660D1*
X3977626Y2110447D1*
X3974284Y2104479D1*
X3970483Y2098791D1*
X3966248Y2093419D1*
X3961605Y2088395D1*
X3956581Y2083752D1*
X3951209Y2079517D1*
X3945521Y2075716D1*
X3939553Y2072374D1*
X3933340Y2069510D1*
X3926922Y2067142D1*
X3917639Y2064748D1*
X3917634Y1562755D1*
X3922974Y1565246D1*
X3933514Y1568671D1*
X3944459Y1570404D1*
X3955541D1*
X3966486Y1568671D1*
X3977026Y1565246D1*
X3986900Y1560215D1*
X3995865Y1553701D1*
X4003701Y1545865D1*
X4010215Y1536900D1*
X4015246Y1527026D1*
X4018671Y1516486D1*
X4020404Y1505541D1*
Y1494459D1*
X4018671Y1483514D1*
X4015246Y1472974D1*
X4010215Y1463100D1*
X4003701Y1454135D1*
X3995865Y1446299D1*
X3986900Y1439785D1*
X3979406Y1435851D1*
X3982858Y1426922D1*
X3984715Y1420338D1*
X3986049Y1413629D1*
X3986853Y1406836D1*
X3987122Y1400000D1*
X3986853Y1393164D1*
X3986049Y1386371D1*
X3984715Y1379662D1*
X3982858Y1373078D1*
X3980490Y1366660D1*
X3977626Y1360447D1*
X3974284Y1354479D1*
X3970483Y1348791D1*
X3966248Y1343419D1*
X3961605Y1338395D1*
X3956581Y1333752D1*
X3951209Y1329517D1*
X3945521Y1325716D1*
X3939553Y1322374D1*
X3933340Y1319510D1*
X3926922Y1317142D1*
X3917639Y1314748D1*
X3917634Y812755D1*
X3922974Y815246D1*
X3933514Y818671D1*
X3944459Y820404D1*
X3955541D1*
X3966486Y818671D1*
X3977026Y815246D1*
X3986900Y810215D1*
X3995865Y803701D1*
X4003701Y795865D1*
X4010215Y786900D1*
X4015246Y777026D1*
X4018671Y766486D1*
X4020404Y755541D1*
Y744459D1*
X4018671Y733514D1*
X4015246Y722974D1*
X4010215Y713100D1*
X4003701Y704135D1*
X3995865Y696299D1*
X3986900Y689785D1*
X3979406Y685851D1*
X3982858Y676922D1*
X3984715Y670338D1*
X3986049Y663629D1*
X3986853Y656836D1*
X3987122Y650000D1*
X3986853Y643164D1*
X3986049Y636371D1*
X3984715Y629662D1*
X3982858Y623078D1*
X3980490Y616660D1*
X3977626Y610447D1*
X3974284Y604479D1*
X3970483Y598791D1*
X3966248Y593419D1*
X3961605Y588395D1*
X3956581Y583752D1*
X3951209Y579517D1*
X3945521Y575716D1*
X3939553Y572374D1*
X3933340Y569510D1*
X3926922Y567142D1*
X3920338Y565285D1*
X3913629Y563951D1*
X3906836Y563147D1*
X3900000Y562878D1*
X3893164Y563147D1*
X3886371Y563951D1*
X3879662Y565285D1*
X3873078Y567142D1*
X3866660Y569510D1*
X3860447Y572374D1*
X3854479Y575716D1*
X3848791Y579517D1*
X3843419Y583752D1*
X3838395Y588395D1*
X3833752Y593419D1*
X3829517Y598791D1*
X3825716Y604479D1*
X3822374Y610447D1*
X3819510Y616660D1*
X3817142Y623078D1*
X3815285Y629662D1*
X3813951Y636371D1*
X3813147Y643164D1*
X3812999Y653071D1*
X3802491Y646980D1*
X3794247Y643179D1*
X3785729Y640037D1*
X3776991Y637573D1*
X3768087Y635801D1*
X3759072Y634734D1*
X3750000Y634378D1*
X3740928Y634734D1*
X3731913Y635801D1*
X3723009Y637573D1*
X3714271Y640037D1*
X3705753Y643179D1*
X3697509Y646980D1*
X3689588Y651416D1*
X3682039Y656460D1*
X3674909Y662080D1*
X3668243Y668243D1*
X3662080Y674909D1*
X3656460Y682039D1*
X3651416Y689588D1*
X3646980Y697509D1*
X3643179Y705753D1*
X3640037Y714271D1*
X3637573Y723009D1*
X3635801Y731913D1*
X3634734Y740928D1*
X3634378Y750000D1*
X3634734Y759072D1*
X3635801Y768087D1*
X3637573Y776991D1*
X3640037Y785729D1*
X3643179Y794247D1*
X3646980Y802491D1*
X3651416Y810412D1*
X3656460Y817961D1*
X3662080Y825091D1*
X3668243Y831757D1*
X3674909Y837920D1*
X3682039Y843540D1*
X3689588Y848584D1*
X3697509Y853020D1*
X3705753Y856821D1*
X3714271Y859963D1*
X3723009Y862427D1*
X3731913Y864199D1*
X3740928Y865266D1*
X3750000Y865622D1*
X3759072Y865266D1*
X3768087Y864199D1*
X3776991Y862427D1*
X3785729Y859963D1*
X3794247Y856821D1*
X3802491Y853020D1*
X3810412Y848584D1*
X3819771Y842113D1*
X3819768Y1366069D1*
X3817142Y1373078D1*
X3815285Y1379662D1*
X3813951Y1386371D1*
X3813147Y1393164D1*
X3812999Y1403071D1*
X3802491Y1396980D1*
X3794247Y1393179D1*
X3785729Y1390037D1*
X3776991Y1387573D1*
X3768087Y1385801D1*
X3759072Y1384734D1*
X3750000Y1384378D1*
X3740928Y1384734D1*
X3731913Y1385801D1*
X3723009Y1387573D1*
X3714271Y1390037D1*
X3705753Y1393179D1*
X3697509Y1396980D1*
X3689588Y1401416D1*
X3682039Y1406460D1*
X3674909Y1412080D1*
X3668243Y1418243D1*
X3662080Y1424909D1*
X3656460Y1432039D1*
X3651416Y1439588D1*
X3646980Y1447509D1*
X3643179Y1455753D1*
X3640037Y1464271D1*
X3637573Y1473009D1*
X3635801Y1481913D1*
X3634734Y1490928D1*
X3634378Y1500000D1*
X3634734Y1509072D1*
X3635801Y1518087D1*
X3637573Y1526991D1*
X3640037Y1535729D1*
X3643179Y1544247D1*
X3646980Y1552491D1*
X3651416Y1560412D1*
X3656460Y1567961D1*
X3662080Y1575091D1*
X3668243Y1581757D1*
X3674909Y1587920D1*
X3682039Y1593540D1*
X3689588Y1598584D1*
X3697509Y1603020D1*
X3705753Y1606821D1*
X3714271Y1609963D1*
X3723009Y1612427D1*
X3731913Y1614199D1*
X3740928Y1615266D1*
X3750000Y1615622D1*
X3759072Y1615266D1*
X3768087Y1614199D1*
X3776991Y1612427D1*
X3785729Y1609963D1*
X3794247Y1606821D1*
X3802491Y1603020D1*
X3810412Y1598584D1*
X3819771Y1592113D1*
X3819768Y2116069D1*
X3817142Y2123078D1*
X3815285Y2129662D1*
X3813951Y2136371D1*
X3813147Y2143164D1*
X3812999Y2153071D1*
X3802491Y2146980D1*
X3794247Y2143179D1*
X3785729Y2140037D1*
X3776991Y2137573D1*
X3768087Y2135801D1*
X3759072Y2134734D1*
X3750000Y2134378D1*
X3740928Y2134734D1*
X3731913Y2135801D1*
X3723009Y2137573D1*
X3714271Y2140037D1*
X3705753Y2143179D1*
X3697509Y2146980D1*
X3689588Y2151416D1*
X3682039Y2156460D1*
X3674909Y2162080D1*
X3668243Y2168243D1*
X3662080Y2174909D1*
X3656460Y2182039D1*
X3651416Y2189588D1*
X3646980Y2197509D1*
X3643179Y2205753D1*
X3640037Y2214271D1*
X3637573Y2223009D1*
X3635801Y2231913D1*
X3634734Y2240928D1*
X3634378Y2250000D1*
X3634734Y2259072D1*
X3635801Y2268087D1*
X3637573Y2276991D1*
X3640037Y2285729D1*
X3643179Y2294247D1*
X3646980Y2302491D1*
X3651416Y2310412D1*
X3656460Y2317961D1*
X3662080Y2325091D1*
X3668243Y2331757D1*
X3674909Y2337920D1*
X3682039Y2343540D1*
X3689588Y2348584D1*
X3697509Y2353020D1*
X3705753Y2356821D1*
X3714271Y2359963D1*
X3723009Y2362427D1*
X3731913Y2364199D1*
X3740928Y2365266D1*
X3750000Y2365622D1*
X3759072Y2365266D1*
X3768087Y2364199D1*
X3776991Y2362427D1*
X3785729Y2359963D1*
X3794247Y2356821D1*
X3802491Y2353020D1*
X3810412Y2348584D1*
X3817961Y2343540D1*
X3825091Y2337920D1*
X3831757Y2331757D1*
X3837920Y2325091D1*
X3843540Y2317961D1*
X3848584Y2310412D1*
X3853020Y2302491D1*
X3856821Y2294247D1*
X3859963Y2285729D1*
X3862427Y2276991D1*
X3864199Y2268087D1*
X3865266Y2259072D1*
X3865622Y2250000D1*
X3865266Y2240928D1*
X3863652Y2229165D1*
X3873078Y2232858D1*
X3880998Y2234981D1*
X3879596Y2244459D1*
Y2255541D1*
X3881329Y2266486D1*
X3884754Y2277026D1*
X3889785Y2286900D1*
X3896299Y2295865D1*
X3904135Y2303701D1*
X3913100Y2310215D1*
X3922974Y2315246D1*
X3933514Y2318671D1*
X3944459Y2320404D1*
X3955541D1*
X3966486Y2318671D1*
X3977026Y2315246D1*
X3986900Y2310215D1*
X3995865Y2303701D1*
X4003701Y2295865D1*
X4010215Y2286900D1*
X4015246Y2277026D1*
X4018671Y2266486D1*
X4020404Y2255541D1*
Y2244459D1*
X4018671Y2233514D1*
X4015246Y2222974D1*
X4010215Y2213100D1*
X4003701Y2204135D1*
X3995865Y2196299D1*
X3986900Y2189785D1*
X3979406Y2185851D1*
X3982858Y2176922D1*
X3984715Y2170338D1*
X3986049Y2163629D1*
X3986853Y2156836D1*
X3987122Y2150000D1*
X3986853Y2143164D1*
X3620404Y2244459D2*
X3618671Y2233514D1*
X3615246Y2222974D1*
X3610215Y2213100D1*
X3603701Y2204135D1*
X3595865Y2196299D1*
X3586900Y2189785D1*
X3577026Y2184754D1*
X3566486Y2181329D1*
X3555541Y2179596D1*
X3544459D1*
X3533514Y2181329D1*
X3522974Y2184754D1*
X3513100Y2189785D1*
X3504135Y2196299D1*
X3496299Y2204135D1*
X3489785Y2213100D1*
X3484754Y2222974D1*
X3481329Y2233514D1*
X3479596Y2244459D1*
Y2255541D1*
X3481329Y2266486D1*
X3484754Y2277026D1*
X3489785Y2286900D1*
X3496299Y2295865D1*
X3504135Y2303701D1*
X3513100Y2310215D1*
X3522974Y2315246D1*
X3533514Y2318671D1*
X3544459Y2320404D1*
X3555541D1*
X3566486Y2318671D1*
X3577026Y2315246D1*
X3586900Y2310215D1*
X3595865Y2303701D1*
X3603701Y2295865D1*
X3610215Y2286900D1*
X3615246Y2277026D1*
X3618671Y2266486D1*
X3620404Y2255541D1*
Y2244459D1*
X986853Y1393164D2*
X986049Y1386371D1*
X984715Y1379662D1*
X982858Y1373078D1*
X980490Y1366660D1*
X977626Y1360447D1*
X974284Y1354479D1*
X970483Y1348791D1*
X966248Y1343419D1*
X961605Y1338395D1*
X956581Y1333752D1*
X951209Y1329517D1*
X945521Y1325716D1*
X939553Y1322374D1*
X933340Y1319510D1*
X926922Y1317142D1*
X917639Y1314748D1*
X917634Y812755D1*
X922974Y815246D1*
X933514Y818671D1*
X944459Y820404D1*
X955541D1*
X966486Y818671D1*
X977026Y815246D1*
X986900Y810215D1*
X994692Y804627D1*
X994850Y1434931D1*
X996051Y1442515D1*
X997100Y1446227D1*
X995865Y1446299D1*
X986900Y1439785D1*
X979406Y1435851D1*
X982858Y1426922D1*
X984715Y1420338D1*
X986049Y1413629D1*
X986853Y1406836D1*
X987122Y1400000D1*
X986853Y1393164D1*
X620404Y1494459D2*
X618671Y1483514D1*
X615246Y1472974D1*
X610215Y1463100D1*
X603701Y1454135D1*
X595865Y1446299D1*
X586900Y1439785D1*
X577026Y1434754D1*
X566486Y1431329D1*
X555541Y1429596D1*
X544459D1*
X533514Y1431329D1*
X522974Y1434754D1*
X513100Y1439785D1*
X504135Y1446299D1*
X496299Y1454135D1*
X489785Y1463100D1*
X484754Y1472974D1*
X481329Y1483514D1*
X479596Y1494459D1*
Y1505541D1*
X481329Y1516486D1*
X484754Y1527026D1*
X489785Y1536900D1*
X496299Y1545865D1*
X504135Y1553701D1*
X513100Y1560215D1*
X522974Y1565246D1*
X533514Y1568671D1*
X544459Y1570404D1*
X555541D1*
X566486Y1568671D1*
X577026Y1565246D1*
X586900Y1560215D1*
X595865Y1553701D1*
X603701Y1545865D1*
X610215Y1536900D1*
X615246Y1527026D1*
X618671Y1516486D1*
X620404Y1505541D1*
Y1494459D1*
X1020404D2*
X1018671Y1483514D1*
X1015246Y1472974D1*
X1014330Y1470987D1*
X1224533Y1681194D1*
X1133950Y1681327D1*
X1127190Y1682398D1*
X1120681Y1684513D1*
X1114582Y1687620D1*
X1109045Y1691643D1*
X1080547Y1719951D1*
X929223Y1871465D1*
X925200Y1877002D1*
X922093Y1883101D1*
X919978Y1889610D1*
X918907Y1896370D1*
X918773Y1936538D1*
X918907Y2159438D1*
X919982Y2166211D1*
X917634Y2158072D1*
Y1562789D1*
X928177Y1567166D1*
X938952Y1569753D1*
X950000Y1570622D1*
X961048Y1569753D1*
X971823Y1567166D1*
X982062Y1562925D1*
X991511Y1557134D1*
X999937Y1549937D1*
X1007134Y1541511D1*
X1012925Y1532062D1*
X1017166Y1521823D1*
X1019753Y1511048D1*
X1020622Y1500000D1*
X1020404Y1494459D1*
X1613723Y1479137D2*
X1623078Y1482858D1*
X1630998Y1484981D1*
X1629596Y1494459D1*
Y1505541D1*
X1631329Y1516486D1*
X1634754Y1527026D1*
X1639785Y1536900D1*
X1646299Y1545865D1*
X1654135Y1553701D1*
X1663100Y1560215D1*
X1672974Y1565246D1*
X1683514Y1568671D1*
X1694459Y1570404D1*
X1705541D1*
X1712514Y1569461D1*
X1682678Y1599288D1*
X1674115Y1600657D1*
X1665590Y1603427D1*
X1657604Y1607496D1*
X1650352Y1612765D1*
X1644014Y1619103D1*
X1638746Y1626355D1*
X1634676Y1634341D1*
X1631906Y1642866D1*
X1630504Y1651719D1*
Y1660683D1*
X1631906Y1669536D1*
X1634676Y1678060D1*
X1638746Y1686047D1*
X1644014Y1693299D1*
X1650352Y1699637D1*
X1657604Y1704905D1*
X1665590Y1708975D1*
X1674115Y1711745D1*
X1682968Y1713147D1*
X1691932D1*
X1700080Y1711885D1*
X1694996Y1726355D1*
X1690927Y1734341D1*
X1688157Y1742866D1*
X1686918Y1750345D1*
X1679432Y1749255D1*
X1670468D1*
X1666171Y1749763D1*
X1528500Y1612067D1*
X1535729Y1609963D1*
X1544247Y1606821D1*
X1552491Y1603020D1*
X1560412Y1598584D1*
X1567961Y1593540D1*
X1575091Y1587920D1*
X1581757Y1581757D1*
X1587920Y1575091D1*
X1593540Y1567961D1*
X1598584Y1560412D1*
X1603020Y1552491D1*
X1606821Y1544247D1*
X1609963Y1535729D1*
X1612427Y1526991D1*
X1614199Y1518087D1*
X1615266Y1509072D1*
X1615622Y1500000D1*
X1615266Y1490928D1*
X1613652Y1479165D1*
X2120404Y1494459D2*
X2118671Y1483514D1*
X2115246Y1472974D1*
X2110215Y1463100D1*
X2103701Y1454135D1*
X2095865Y1446299D1*
X2086900Y1439785D1*
X2077026Y1434754D1*
X2066486Y1431329D1*
X2055541Y1429596D1*
X2044459D1*
X2033514Y1431329D1*
X2022974Y1434754D1*
X2013100Y1439785D1*
X2004135Y1446299D1*
X1996299Y1454135D1*
X1989785Y1463100D1*
X1984754Y1472974D1*
X1981329Y1483514D1*
X1979596Y1494459D1*
Y1505541D1*
X1981329Y1516486D1*
X1984754Y1527026D1*
X1989785Y1536900D1*
X1996299Y1545865D1*
X2004135Y1553701D1*
X2013100Y1560215D1*
X2022974Y1565246D1*
X2033514Y1568671D1*
X2044459Y1570404D1*
X2055541D1*
X2066486Y1568671D1*
X2077026Y1565246D1*
X2086900Y1560215D1*
X2095865Y1553701D1*
X2103701Y1545865D1*
X2110215Y1536900D1*
X2115246Y1527026D1*
X2118671Y1516486D1*
X2120404Y1505541D1*
Y1494459D1*
X2870404D2*
X2868671Y1483514D1*
X2865246Y1472974D1*
X2860215Y1463100D1*
X2853701Y1454135D1*
X2845865Y1446299D1*
X2836900Y1439785D1*
X2827026Y1434754D1*
X2816486Y1431329D1*
X2805541Y1429596D1*
X2794459D1*
X2783514Y1431329D1*
X2772974Y1434754D1*
X2763100Y1439785D1*
X2754135Y1446299D1*
X2746299Y1454135D1*
X2739785Y1463100D1*
X2734754Y1472974D1*
X2731329Y1483514D1*
X2729596Y1494459D1*
Y1505541D1*
X2731329Y1516486D1*
X2734754Y1527026D1*
X2739785Y1536900D1*
X2746299Y1545865D1*
X2754135Y1553701D1*
X2763100Y1560215D1*
X2772974Y1565246D1*
X2783514Y1568671D1*
X2794459Y1570404D1*
X2805541D1*
X2816486Y1568671D1*
X2827026Y1565246D1*
X2836900Y1560215D1*
X2845865Y1553701D1*
X2853701Y1545865D1*
X2860215Y1536900D1*
X2865246Y1527026D1*
X2868671Y1516486D1*
X2870404Y1505541D1*
Y1494459D1*
X3620404D2*
X3618671Y1483514D1*
X3615246Y1472974D1*
X3610215Y1463100D1*
X3603701Y1454135D1*
X3595865Y1446299D1*
X3586900Y1439785D1*
X3577026Y1434754D1*
X3566486Y1431329D1*
X3555541Y1429596D1*
X3544459D1*
X3533514Y1431329D1*
X3522974Y1434754D1*
X3513100Y1439785D1*
X3504135Y1446299D1*
X3496299Y1454135D1*
X3489785Y1463100D1*
X3484754Y1472974D1*
X3481329Y1483514D1*
X3479596Y1494459D1*
Y1505541D1*
X3481329Y1516486D1*
X3484754Y1527026D1*
X3489785Y1536900D1*
X3496299Y1545865D1*
X3504135Y1553701D1*
X3513100Y1560215D1*
X3522974Y1565246D1*
X3533514Y1568671D1*
X3544459Y1570404D1*
X3555541D1*
X3566486Y1568671D1*
X3577026Y1565246D1*
X3586900Y1560215D1*
X3595865Y1553701D1*
X3603701Y1545865D1*
X3610215Y1536900D1*
X3615246Y1527026D1*
X3618671Y1516486D1*
X3620404Y1505541D1*
Y1494459D1*
X620404Y744459D2*
X618671Y733514D1*
X615246Y722974D1*
X610215Y713100D1*
X603701Y704135D1*
X595865Y696299D1*
X586900Y689785D1*
X577026Y684754D1*
X566486Y681329D1*
X555541Y679596D1*
X544459D1*
X533514Y681329D1*
X522974Y684754D1*
X513100Y689785D1*
X504135Y696299D1*
X496299Y704135D1*
X489785Y713100D1*
X484754Y722974D1*
X481329Y733514D1*
X479596Y744459D1*
Y755541D1*
X481329Y766486D1*
X484754Y777026D1*
X489785Y786900D1*
X496299Y795865D1*
X504135Y803701D1*
X513100Y810215D1*
X522974Y815246D1*
X533514Y818671D1*
X544459Y820404D1*
X555541D1*
X566486Y818671D1*
X577026Y815246D1*
X586900Y810215D1*
X595865Y803701D1*
X603701Y795865D1*
X610215Y786900D1*
X615246Y777026D1*
X618671Y766486D1*
X620404Y755541D1*
Y744459D1*
X1370404D2*
X1368671Y733514D1*
X1365246Y722974D1*
X1360215Y713100D1*
X1353701Y704135D1*
X1345865Y696299D1*
X1336900Y689785D1*
X1327026Y684754D1*
X1316486Y681329D1*
X1305541Y679596D1*
X1294459D1*
X1283514Y681329D1*
X1272974Y684754D1*
X1263100Y689785D1*
X1254135Y696299D1*
X1246299Y704135D1*
X1239785Y713100D1*
X1234754Y722974D1*
X1231329Y733514D1*
X1229596Y744459D1*
Y755541D1*
X1231329Y766486D1*
X1234754Y777026D1*
X1239785Y786900D1*
X1246299Y795865D1*
X1254135Y803701D1*
X1263100Y810215D1*
X1272974Y815246D1*
X1283514Y818671D1*
X1294459Y820404D1*
X1305541D1*
X1316486Y818671D1*
X1327026Y815246D1*
X1336900Y810215D1*
X1345865Y803701D1*
X1353701Y795865D1*
X1360215Y786900D1*
X1365246Y777026D1*
X1368671Y766486D1*
X1370404Y755541D1*
Y744459D1*
X2120404D2*
X2118671Y733514D1*
X2115246Y722974D1*
X2110215Y713100D1*
X2103701Y704135D1*
X2095865Y696299D1*
X2086900Y689785D1*
X2077026Y684754D1*
X2066486Y681329D1*
X2055541Y679596D1*
X2044459D1*
X2033514Y681329D1*
X2022974Y684754D1*
X2013100Y689785D1*
X2004135Y696299D1*
X1996299Y704135D1*
X1989785Y713100D1*
X1984754Y722974D1*
X1981329Y733514D1*
X1979596Y744459D1*
Y755541D1*
X1981329Y766486D1*
X1984754Y777026D1*
X1989785Y786900D1*
X1996299Y795865D1*
X2004135Y803701D1*
X2013100Y810215D1*
X2022974Y815246D1*
X2033514Y818671D1*
X2044459Y820404D1*
X2055541D1*
X2066486Y818671D1*
X2077026Y815246D1*
X2086900Y810215D1*
X2095865Y803701D1*
X2103701Y795865D1*
X2110215Y786900D1*
X2115246Y777026D1*
X2118671Y766486D1*
X2120404Y755541D1*
Y744459D1*
X2870404D2*
X2868671Y733514D1*
X2865246Y722974D1*
X2860215Y713100D1*
X2853701Y704135D1*
X2845865Y696299D1*
X2836900Y689785D1*
X2827026Y684754D1*
X2816486Y681329D1*
X2805541Y679596D1*
X2794459D1*
X2783514Y681329D1*
X2772974Y684754D1*
X2763100Y689785D1*
X2754135Y696299D1*
X2746299Y704135D1*
X2739785Y713100D1*
X2734754Y722974D1*
X2731329Y733514D1*
X2729596Y744459D1*
Y755541D1*
X2731329Y766486D1*
X2734754Y777026D1*
X2739785Y786900D1*
X2746299Y795865D1*
X2754135Y803701D1*
X2763100Y810215D1*
X2772974Y815246D1*
X2783514Y818671D1*
X2794459Y820404D1*
X2805541D1*
X2816486Y818671D1*
X2827026Y815246D1*
X2836900Y810215D1*
X2845865Y803701D1*
X2853701Y795865D1*
X2860215Y786900D1*
X2865246Y777026D1*
X2868671Y766486D1*
X2870404Y755541D1*
Y744459D1*
X3620404D2*
X3618671Y733514D1*
X3615246Y722974D1*
X3610215Y713100D1*
X3603701Y704135D1*
X3595865Y696299D1*
X3586900Y689785D1*
X3577026Y684754D1*
X3566486Y681329D1*
X3555541Y679596D1*
X3544459D1*
X3533514Y681329D1*
X3522974Y684754D1*
X3513100Y689785D1*
X3504135Y696299D1*
X3496299Y704135D1*
X3489785Y713100D1*
X3484754Y722974D1*
X3481329Y733514D1*
X3479596Y744459D1*
Y755541D1*
X3481329Y766486D1*
X3484754Y777026D1*
X3489785Y786900D1*
X3496299Y795865D1*
X3504135Y803701D1*
X3513100Y810215D1*
X3522974Y815246D1*
X3533514Y818671D1*
X3544459Y820404D1*
X3555541D1*
X3566486Y818671D1*
X3577026Y815246D1*
X3586900Y810215D1*
X3595865Y803701D1*
X3603701Y795865D1*
X3610215Y786900D1*
X3615246Y777026D1*
X3618671Y766486D1*
X3620404Y755541D1*
Y744459D1*
X1864778Y2493913D2*
X1867645Y2500665D1*
X1872328Y2508308D1*
X1873706Y2510055D1*
X1873705Y2592825D1*
X1864780Y2592051D1*
Y2494051D1*
D19*
X1025591Y2913387D3*
X1222441D3*
X1124016D3*
X1025591Y2342521D3*
X1222441D3*
D20*
X897638Y2618112D3*
X1350394Y2614175D3*
D21*
X1881201Y1306202D3*
X1956004D3*
X1881201Y1412451D3*
X1956004D3*
X1881201Y1518701D3*
X1956004D3*
D22*
X1243612Y2006031D3*
Y1931228D3*
X1956102Y1612550D3*
Y1687353D3*
D21*
Y1200049D3*
X1881299D3*
D24*
X1068630Y1981034D3*
Y2114892D3*
D26*
X2299751Y1906042D3*
X2165892D3*
X2682774Y2051591D3*
X2816633D3*
X3432696D3*
X3566554D3*
D24*
X524937Y1168619D3*
Y1302478D3*
X1274858Y1168619D3*
Y1302478D3*
X2306000Y1168619D3*
Y1302478D3*
X2774701Y1168619D3*
Y1302478D3*
X3537121Y1168619D3*
Y1302478D3*
X523123Y458008D3*
Y591866D3*
X1279294Y458008D3*
Y591866D3*
X2022966Y458008D3*
Y591866D3*
X2772887Y458008D3*
Y591866D3*
X3504060Y458008D3*
Y591866D3*
D89*
X1506201Y2324951D3*
X1537697D3*
X1569193D3*
X1600688D3*
X1632185D3*
X1663680D3*
X1695177D3*
X1726673D3*
X1758169D3*
X1789665D3*
X1821161D3*
D92*
X1888091Y2258022D3*
Y2226526D3*
Y2195030D3*
Y2163534D3*
Y2132039D3*
Y2100542D3*
Y2069046D3*
Y2037550D3*
Y2006054D3*
Y1974558D3*
Y1943062D3*
D89*
X1821161Y1876133D3*
X1789665D3*
X1758169D3*
X1726673D3*
X1695177D3*
X1663681D3*
X1632184D3*
X1600689D3*
X1569193D3*
X1537697D3*
X1506201D3*
D92*
X1439272Y1943062D3*
Y1974558D3*
Y2006054D3*
Y2037550D3*
Y2069046D3*
Y2100543D3*
Y2132038D3*
Y2163535D3*
Y2195030D3*
Y2226526D3*
Y2258022D3*
D28*
X2331693Y3000591D3*
Y2900591D3*
Y2800591D3*
Y3100591D3*
D29*
X1337352Y2799698D3*
X1514517D3*
D31*
X1956201Y1018701D3*
X1782972D3*
Y1113189D3*
X1956201D3*
D22*
X1917323Y2730315D3*
Y2655512D3*
D21*
X1643570Y2699709D3*
X1718373D3*
X799908Y2480982D3*
X725105D3*
D22*
X1068630Y2555974D3*
Y2481171D3*
X1181118Y2555974D3*
Y2481171D3*
D32*
X518688Y2480982D3*
D33*
X618688D3*
D34*
X2400000Y2150000D3*
X2150000Y2050000D3*
X3150000Y2150000D3*
X2900000Y2050000D3*
X3900000Y2150000D3*
X3650000Y2050000D3*
X900000Y1400000D3*
X650000Y1300000D3*
X1650000Y1400000D3*
X1400000Y1300000D3*
X2400000Y1400000D3*
X2150000Y1300000D3*
X3150000Y1400000D3*
X2900000Y1300000D3*
X3900000Y1400000D3*
X3650000Y1300000D3*
X900000Y650000D3*
X650000Y550000D3*
X1650000Y650000D3*
X1400000Y550000D3*
X2400000Y650000D3*
X2150000Y550000D3*
X3150000Y650000D3*
X2900000Y550000D3*
X3900000Y650000D3*
X3650000Y550000D3*
D36*
X1472441Y3007087D3*
D37*
Y3164567D3*
D36*
X1913386Y3007087D3*
D37*
Y3164567D3*
D39*
X518701Y2937451D3*
Y2837451D3*
Y2737451D3*
X618701D3*
Y2837451D3*
D40*
Y2937451D3*
M02*
