M48
INCH
T01C0.0191
T02C0.0236
T03C0.0315
T04C0.0354
T05C0.038
T06C0.0394
T07C0.0472
T08C0.059
T09C0.067
T10C0.1181
T11C0.157
%
T01
X+017748Y+027060
X+017748Y+027747
X+017062Y+028562
X+016375Y+029125
X+015811Y+027997
X+016312Y+026312
X+016952Y+024453
X+017562Y+024062
X+018687Y+023562
X+019185Y+024747
X+020248Y+023997
X+017873Y+022435
X+018123Y+020998
X+019825Y+020925
X+019687Y+020062
X+020623Y+020560
X+020185Y+017498
X+020625Y+016875
X+018998Y+015998
X+016875Y+016562
X+017437Y+017562
X+016750Y+018062
X+015625Y+020250
X+015998Y+020748
X+015186Y+020748
X+015811Y+022185
X+015062Y+024437
X+013623Y+021123
X+013437Y+020250
X+011812Y+020687
X+011061Y+022685
X+011061Y+023435
X+013312Y+018562
X+014248Y+018061
X+012249Y+011311
X+005687Y+011311
X+022560Y+011311
X+027247Y+011311
X+034809Y+011311
X+022998Y+018061
X+026060Y+022373
X+019810Y+027997
T02
X+014724Y+029913G85X+014724Y+030228
X+014724Y+031429G85X+014724Y+031862
X+019134Y+031429G85X+019134Y+031862
X+019134Y+029913G85X+019134Y+030228
T03
X+023317Y+030006
X+023317Y+029006
X+023317Y+028006
X+023317Y+031006
T04
X+005187Y+029375
X+005187Y+028375
X+005187Y+027375
X+006187Y+027375
X+006187Y+028375
X+006187Y+029375
T05
X+005187Y+024810
X+006187Y+024810
T06
X+008976Y+025787G85X+008976Y+026575
X+013504Y+025748G85X+013504Y+026535
T07
X+010256Y+029134
X+011240Y+029134
X+012224Y+029134
X+012224Y+023425
X+010256Y+023425
T08
X+024000Y+021500
X+021500Y+020500
X+024000Y+014000
X+021500Y+013000
X+016500Y+014000
X+014000Y+013000
X+009000Y+014000
X+006500Y+013000
X+009000Y+006500
X+006500Y+005500
X+014000Y+005500
X+016500Y+006500
X+021500Y+005500
X+024000Y+006500
X+029000Y+005500
X+031500Y+006500
X+036500Y+005500
X+039000Y+006500
X+036500Y+013000
X+039000Y+014000
X+036500Y+020500
X+039000Y+021500
X+031500Y+021500
X+029000Y+020500
X+031500Y+014000
X+029000Y+013000
T09
X+020500Y+022500
X+024500Y+022500
X+028000Y+022500
X+032000Y+022500
X+035500Y+022500
X+039500Y+022500
X+039500Y+015000
X+035500Y+015000
X+032000Y+015000
X+028000Y+015000
X+024500Y+015000
X+020500Y+015000
X+017000Y+015000
X+013000Y+015000
X+009500Y+015000
X+005500Y+015000
X+005500Y+007500
X+009500Y+007500
X+013000Y+007500
X+017000Y+007500
X+020500Y+007500
X+024500Y+007500
X+028000Y+007500
X+032000Y+007500
X+035500Y+007500
X+039500Y+007500
T10
X+024942Y+028256
X+036567Y+030756
T11
X+022500Y+022500
X+022500Y+015000
X+015000Y+015000
X+007500Y+015000
X+007500Y+007500
X+015000Y+007500
X+022500Y+007500
X+030000Y+007500
X+037500Y+007500
X+037500Y+015000
X+030000Y+015000
X+030000Y+022500
X+037500Y+022500
T00
M30
