G04 DipTrace 3.1.0.1*
G04 Top.gbr*
%MOIN*%
G04 #@! TF.FileFunction,Copper,L1,Top*
G04 #@! TF.Part,Single*
G04 #@! TA.AperFunction,Conductor*
%ADD13C,0.019685*%
%ADD14C,0.012992*%
%ADD15C,0.023622*%
%ADD16C,0.03937*%
%ADD17C,0.011811*%
G04 #@! TA.AperFunction,CopperBalancing*
%ADD18C,0.025*%
G04 #@! TA.AperFunction,ComponentPad*
%ADD19C,0.086614*%
%ADD20R,0.098425X0.137795*%
%ADD28C,0.07874*%
%ADD32R,0.06X0.06*%
%ADD33C,0.06*%
%ADD34C,0.1*%
%ADD35R,0.011811X0.045276*%
G04 #@! TA.AperFunction,ComponentPad*
%ADD36O,0.03937X0.070866*%
%ADD37O,0.03937X0.082677*%
%ADD38R,0.023622X0.045276*%
G04 #@! TA.AperFunction,ComponentPad*
%ADD39C,0.059055*%
%ADD40R,0.059055X0.059055*%
G04 #@! TA.AperFunction,ViaPad*
%ADD41C,0.04*%
%FSLAX26Y26*%
G04*
G70*
G90*
G75*
G01*
G04 Top*
%LPD*%
X2299751Y1806052D2*
D13*
X1674950D1*
Y1806201D1*
X1424843D1*
Y1806052D1*
X1224864Y1131123D2*
D15*
X568682D1*
X3480877D2*
X2724706D1*
X2256005D1*
X1224864D1*
X2331693Y2800591D2*
D16*
X1981034D1*
Y2799698D1*
X1331201Y1856201D2*
D14*
Y1781201D1*
X1381201Y1731201D1*
X1543701D1*
X1675077Y1599824D1*
X1899793D1*
X1981034Y2799698D2*
D16*
X1912291D1*
Y2712207D1*
X1831285Y2631201D1*
X1631201D1*
X1818898Y2968701D2*
D15*
Y2955585D1*
X1856047Y2918436D1*
X1912291D1*
D16*
Y2799698D1*
X1913386Y3164567D2*
Y3007087D1*
D14*
Y2987178D1*
D16*
Y2918436D1*
D14*
X1862297D1*
X1818898Y2961835D1*
Y2968701D1*
X1566929D2*
Y2954283D1*
D15*
X1537331Y2924685D1*
X1474837D1*
D14*
X1472441D1*
D16*
Y3007087D1*
Y3164567D2*
Y3007087D1*
X1124016Y2913387D2*
Y2999677D1*
X1465031D1*
D14*
X1472441Y3007087D1*
X1124016Y2913387D2*
Y2999677D1*
D16*
X897638D1*
D14*
X852598D1*
X740110Y2887189D1*
X593680D1*
X568682Y2862192D1*
Y2780950D1*
X525184Y2737451D1*
X518701D1*
X1631201Y2631201D2*
D16*
X1472441D1*
Y2924685D1*
X1350394Y2614175D2*
D14*
Y2631201D1*
D16*
X1631201D1*
X897638Y2618112D2*
Y2999677D1*
X1650000Y1400000D2*
D14*
X1631201D1*
Y1568701D1*
X1531201Y1668701D1*
X1368701D1*
X1268701Y1768701D1*
Y1893701D1*
X1306201Y1931201D1*
X1599951D1*
X1631201Y1962450D1*
Y2043398D1*
X1599824Y2074774D1*
X2400000Y2150000D2*
X2368701D1*
Y2306201D1*
X2218701Y2456201D1*
X2006201D1*
X1949787Y2399787D1*
Y2206010D1*
X1899793Y2156016D1*
X1406094D1*
X1362349Y2112270D1*
X3150000Y1400000D2*
D15*
Y1306444D1*
X3049672Y1206115D1*
X1199362D1*
X1131123Y1274354D1*
Y2018623D1*
X1181201Y2068701D1*
X1787304Y2243507D2*
D14*
X1756058Y2274753D1*
X1556079D1*
X1474837Y2193512D1*
X1362349D1*
X1306105Y2137268D1*
X743664D1*
X469211Y2411720D1*
Y2787962D1*
X518701Y2837451D1*
X1106126Y2268504D2*
X1131123D1*
X1156121Y2293501D1*
Y2768451D1*
X1224864Y2837194D1*
Y2913387D1*
X1222441D1*
X1106126Y2343496D2*
Y2755953D1*
X1025591Y2836488D1*
Y2913387D1*
X2062276Y2056026D2*
X2056026Y2049777D1*
X1831050D1*
X1812302Y2068525D1*
Y2099772D1*
X2062450Y1687451D2*
X1718701D1*
X1687450Y1656201D1*
X1743701Y1756201D2*
X2018530D1*
Y1749808D1*
X1562450Y2024951D2*
X1343701D1*
X1756201Y2406201D2*
X1718701Y2368701D1*
X1506291D1*
X1418593Y2281003D1*
X1324853D1*
X1268609Y2224759D1*
X793659D1*
X687420Y2330997D1*
Y2805948D1*
X655916Y2837451D1*
X618701D1*
X1918541Y2474732D2*
Y2249756D1*
X1862297Y2193512D1*
X1612323D1*
X1587325Y2218509D1*
X1581076D1*
X1702756Y2968701D2*
D17*
Y2859646D1*
D14*
X1706201Y2856201D1*
X1663386Y2968701D2*
D17*
Y2938387D1*
X1637450Y2912451D1*
X618688Y2480982D2*
D14*
Y2330987D1*
X768661Y2181013D1*
X1287357D1*
X1343601Y2237257D1*
X1443591D1*
X1524832Y2318499D1*
X1830999D1*
X1868701Y2356201D1*
X1722441Y2968701D2*
D17*
Y2902461D1*
X1743701Y2881201D1*
Y2837450D1*
X1724951Y2818701D1*
X1706201D1*
X1687451D1*
X1668701Y2837451D1*
Y2887450D1*
X1683071Y2901820D1*
Y2968701D1*
X1706201Y2818701D2*
D14*
Y2749566D1*
X1749808Y2705958D1*
X1774806D1*
X3900000Y1400000D2*
D15*
X3868336D1*
Y1706566D1*
X3675109Y1899793D1*
X1892386D1*
X1673478Y2118701D1*
D14*
X1562509D1*
X1518583Y2074774D1*
X2605969Y2237257D2*
Y2080969D1*
X2481201Y1956201D1*
X2018701D1*
X1968701Y2006201D1*
X2024780Y2399740D2*
X1982463Y2357424D1*
Y2092550D1*
X1774806Y2774701D2*
D15*
X1787402Y2787297D1*
Y2968701D1*
X1581076Y2799698D2*
X1598425Y2817047D1*
Y2968701D1*
X1506201Y2443701D2*
X1695176D1*
D14*
Y2445349D1*
D15*
X1805801Y2555974D1*
X2387224D1*
X2612450Y2781201D1*
Y2868701D1*
X2537450Y2943701D1*
X2374803D1*
X2331693Y2900591D1*
D41*
X1774806Y2705958D3*
X1706201Y2856201D3*
X1637450Y2912451D3*
X1106126Y2343496D3*
Y2268504D3*
X3480877Y1131123D3*
X2724706D3*
X2256005D3*
X1756201Y2406201D3*
X1599824Y2074774D3*
X1518583D3*
X1362349Y2112270D3*
X1181201Y2068701D3*
X1899793Y1599824D3*
X1631201Y2631201D3*
X1981034Y2799698D3*
X1331201Y1856201D3*
X568682Y1131123D3*
X1224864D3*
X1424843Y1806052D3*
X2299751D3*
X1674950Y1806201D3*
X1695176Y2445349D3*
X1506201Y2443701D3*
X1812302Y2099772D3*
X2062276Y2056026D3*
X1687450Y1656201D3*
X2062450Y1687451D3*
X2018530Y1749808D3*
X1743701Y1756201D3*
X1343701Y2024951D3*
X1562450D3*
X1787304Y2243507D3*
X1581076Y2218509D3*
X1918541Y2474732D3*
X1774806Y2774701D3*
X1581076Y2799698D3*
X1868701Y2356201D3*
X1968701Y2006201D3*
X2605969Y2237257D3*
X1982463Y2092550D3*
X2024780Y2399740D3*
X702714Y3178458D2*
D18*
X1477980D1*
X1907848D2*
X3600673D1*
X3712715D2*
X3797282D1*
X702714Y3153589D2*
X1477980D1*
X1907848D2*
X2274035D1*
X2389342D2*
X3568377D1*
X3745011D2*
X3797282D1*
X702714Y3128720D2*
X1477980D1*
X1907848D2*
X2258066D1*
X2405311D2*
X3551117D1*
X3762271D2*
X3797282D1*
X702714Y3103852D2*
X1477980D1*
X1907848D2*
X2252755D1*
X2410622D2*
X3541715D1*
X3771673D2*
X3797282D1*
X421238Y3078983D2*
X1477980D1*
X1907848D2*
X2255805D1*
X2407572D2*
X3538270D1*
X3775118D2*
X4078794D1*
X421238Y3054114D2*
X1477980D1*
X1907848D2*
X2268437D1*
X2394940D2*
X3540208D1*
X3773180D2*
X4078794D1*
X421238Y3029245D2*
X1477980D1*
X1907848D2*
X2258281D1*
X2405132D2*
X3547851D1*
X3765501D2*
X4078794D1*
X421238Y3004377D2*
X1477980D1*
X1907848D2*
X2252791D1*
X2410586D2*
X3562636D1*
X3750753D2*
X4078794D1*
X421238Y2979508D2*
X464503D1*
X687858D2*
X977288D1*
X1073900D2*
X1174148D1*
X1270725D2*
X1477980D1*
X1907848D2*
X2255662D1*
X2573285D2*
X3589226D1*
X3724162D2*
X4078794D1*
X421238Y2954639D2*
X451800D1*
X687858D2*
X954035D1*
X1097117D2*
X1150895D1*
X1293978D2*
X1546985D1*
X1838843D2*
X2268042D1*
X2598224D2*
X4078794D1*
X421238Y2929770D2*
X450005D1*
X687858D2*
X944346D1*
X1106842D2*
X1141207D1*
X1303666D2*
X1546985D1*
X1838843D2*
X2258497D1*
X2623092D2*
X4078794D1*
X421238Y2904902D2*
X458043D1*
X687858D2*
X943126D1*
X1108062D2*
X1139951D1*
X1304922D2*
X1546985D1*
X1838843D2*
X2252827D1*
X2647960D2*
X4078794D1*
X421238Y2880033D2*
X464933D1*
X687858D2*
X949908D1*
X1101280D2*
X1146769D1*
X1298140D2*
X1546985D1*
X1838843D2*
X2255518D1*
X2662565D2*
X4078794D1*
X421238Y2855164D2*
X451943D1*
X702391D2*
X967599D1*
X1083589D2*
X1164460D1*
X1280413D2*
X1546985D1*
X1838843D2*
X2267647D1*
X2663892D2*
X4078794D1*
X421238Y2830295D2*
X447350D1*
X726110D2*
X979907D1*
X1095969D2*
X1153766D1*
X1270438D2*
X1530335D1*
X1838843D2*
X2299046D1*
X2364367D2*
X2375802D1*
X2663892D2*
X4078794D1*
X733538Y2805427D2*
X992467D1*
X1120837D2*
X1128890D1*
X1257268D2*
X1521758D1*
X1838843D2*
X2377489D1*
X2663892D2*
X4078794D1*
X555912Y2780558D2*
X565373D1*
X733538D2*
X1017334D1*
X1232400D2*
X1524773D1*
X1637389D2*
X1660092D1*
X1838377D2*
X2384809D1*
X2663892D2*
X4078794D1*
X515327Y2755689D2*
X552096D1*
X733538D2*
X1042202D1*
X1207533D2*
X1542177D1*
X1619986D2*
X1660092D1*
X1831164D2*
X2399127D1*
X2656716D2*
X4078794D1*
X515327Y2730820D2*
X549871D1*
X733538D2*
X1060001D1*
X1202222D2*
X1664326D1*
X1828724D2*
X2424820D1*
X2633786D2*
X4078794D1*
X515327Y2705951D2*
X557479D1*
X733538D2*
X1060001D1*
X1202222D2*
X1685642D1*
X1834429D2*
X2465513D1*
X2608918D2*
X4078794D1*
X515327Y2681083D2*
X580624D1*
X733538D2*
X1060001D1*
X1202222D2*
X1710509D1*
X1828724D2*
X2440645D1*
X2584050D2*
X4078794D1*
X515327Y2656214D2*
X641304D1*
X733538D2*
X1060001D1*
X1202222D2*
X1744240D1*
X1805399D2*
X2415777D1*
X2559182D2*
X4078794D1*
X515327Y2631345D2*
X641304D1*
X733538D2*
X1060001D1*
X1202222D2*
X2390909D1*
X2534315D2*
X4078794D1*
X515327Y2606476D2*
X641304D1*
X733538D2*
X1060001D1*
X1202222D2*
X2366042D1*
X2509411D2*
X4078794D1*
X515327Y2581608D2*
X641304D1*
X733538D2*
X1060001D1*
X1202222D2*
X1759742D1*
X2484543D2*
X4078794D1*
X515327Y2556739D2*
X641304D1*
X733538D2*
X1060001D1*
X1202222D2*
X1734875D1*
X2459676D2*
X4078794D1*
X515327Y2531870D2*
X572406D1*
X733538D2*
X1060001D1*
X1202222D2*
X1710007D1*
X2434808D2*
X4078794D1*
X515327Y2507001D2*
X554321D1*
X733538D2*
X1060001D1*
X1202222D2*
X1685139D1*
X1828544D2*
X1868902D1*
X1968170D2*
X4078794D1*
X515327Y2482133D2*
X549082D1*
X733538D2*
X1060001D1*
X1202222D2*
X1461437D1*
X1803677D2*
X1859393D1*
X2256966D2*
X4078794D1*
X515327Y2457264D2*
X553388D1*
X733538D2*
X1060001D1*
X1202222D2*
X1448196D1*
X1784299D2*
X1861653D1*
X2281833D2*
X4078794D1*
X515327Y2432395D2*
X569895D1*
X733538D2*
X1060001D1*
X1202222D2*
X1447693D1*
X1809454D2*
X1872419D1*
X2306701D2*
X4078794D1*
X537575Y2407526D2*
X572586D1*
X733538D2*
X975745D1*
X1272304D2*
X1459499D1*
X1815806D2*
X1841128D1*
X2083860D2*
X2203199D1*
X2331569D2*
X4078794D1*
X421238Y2382657D2*
X434199D1*
X562443D2*
X572586D1*
X733538D2*
X953389D1*
X1294624D2*
X1456054D1*
X2081779D2*
X2228067D1*
X2356437D2*
X4078794D1*
X421238Y2357789D2*
X458941D1*
X733538D2*
X944131D1*
X1303918D2*
X1431187D1*
X2066062D2*
X2205675D1*
X2381304D2*
X2955655D1*
X3044337D2*
X3705670D1*
X3794316D2*
X4078794D1*
X421238Y2332920D2*
X483844D1*
X749686D2*
X943234D1*
X1304779D2*
X1406319D1*
X2028599D2*
X2166920D1*
X2405670D2*
X2916936D1*
X3083091D2*
X3666915D1*
X3833071D2*
X4078794D1*
X421238Y2308051D2*
X508712D1*
X774554D2*
X950410D1*
X2092724D2*
X2147507D1*
X2492725D2*
X2757287D1*
X2842703D2*
X2897522D1*
X3102505D2*
X3157288D1*
X3242704D2*
X3507266D1*
X3592719D2*
X3647502D1*
X3852484D2*
X3907267D1*
X3992720D2*
X4078794D1*
X421238Y2283182D2*
X533580D1*
X799422D2*
X968783D1*
X1859082D2*
X1872419D1*
X2114828D2*
X2136742D1*
X2514829D2*
X2569505D1*
X2642434D2*
X2735146D1*
X2864844D2*
X2886757D1*
X3113270D2*
X3135147D1*
X3264845D2*
X3485162D1*
X3614823D2*
X3636736D1*
X3863250D2*
X3885163D1*
X4014824D2*
X4078794D1*
X421238Y2258314D2*
X558447D1*
X1844979D2*
X1862909D1*
X2122615D2*
X2132172D1*
X2522616D2*
X2550379D1*
X2661560D2*
X2727359D1*
X2872631D2*
X2882164D1*
X3117827D2*
X3127360D1*
X3272632D2*
X3477375D1*
X3622646D2*
X3632179D1*
X3867807D2*
X3877359D1*
X4022647D2*
X4078794D1*
X421238Y2233445D2*
X583315D1*
X2121144D2*
X2133053D1*
X2521145D2*
X2546467D1*
X2665471D2*
X2728831D1*
X2871159D2*
X2883061D1*
X3271160D2*
X3478846D1*
X3621139D2*
X3633076D1*
X4021140D2*
X4078794D1*
X421238Y2208576D2*
X608183D1*
X2109697D2*
X2139541D1*
X2509698D2*
X2554075D1*
X2657864D2*
X2740314D1*
X2859712D2*
X2889556D1*
X3259713D2*
X3490293D1*
X3609692D2*
X3639535D1*
X4009693D2*
X4078794D1*
X421238Y2183707D2*
X633051D1*
X2076863D2*
X2152782D1*
X2482821D2*
X2559852D1*
X2652087D2*
X2773148D1*
X2826842D2*
X2902761D1*
X3232836D2*
X3523163D1*
X3576858D2*
X3652777D1*
X3982852D2*
X4078794D1*
X421238Y2158839D2*
X657918D1*
X2028599D2*
X2176394D1*
X2489172D2*
X2559852D1*
X2652087D2*
X2926373D1*
X3239188D2*
X3676389D1*
X3989167D2*
X4078794D1*
X421238Y2133970D2*
X682786D1*
X2028599D2*
X2124290D1*
X2175724D2*
X2311856D1*
X2488132D2*
X2559852D1*
X2652087D2*
X2874269D1*
X2925739D2*
X3061872D1*
X3238147D2*
X3624285D1*
X3675719D2*
X3811851D1*
X3988127D2*
X4078794D1*
X421238Y2109101D2*
X707654D1*
X1423376D2*
X1470408D1*
X1871139D2*
X1925276D1*
X2216524D2*
X2320576D1*
X2479412D2*
X2559852D1*
X2652087D2*
X2833505D1*
X2966504D2*
X3070592D1*
X3229427D2*
X3583484D1*
X3716519D2*
X3820571D1*
X3979443D2*
X4078794D1*
X421238Y2084232D2*
X1123731D1*
X1238680D2*
X1310078D1*
X1414620D2*
X1459751D1*
X2232600D2*
X2340348D1*
X2459640D2*
X2545032D1*
X2652087D2*
X2817393D1*
X2982616D2*
X3090364D1*
X3209655D2*
X3567372D1*
X3732631D2*
X3840343D1*
X3959634D2*
X4078794D1*
X421238Y2059364D2*
X1100155D1*
X1240044D2*
X1295616D1*
X2239131D2*
X2520164D1*
X2646345D2*
X2810898D1*
X2989111D2*
X3560877D1*
X3739126D2*
X4078794D1*
X421238Y2034495D2*
X1082321D1*
X1229458D2*
X1284887D1*
X1677328D2*
X1685964D1*
X2238234D2*
X2495296D1*
X2623666D2*
X2811759D1*
X2988214D2*
X3561774D1*
X3738229D2*
X4078794D1*
X421238Y2009626D2*
X1079701D1*
X1193825D2*
X1286179D1*
X1677328D2*
X1710868D1*
X2229694D2*
X2470429D1*
X2598798D2*
X2820299D1*
X2979709D2*
X3570315D1*
X3729689D2*
X4078794D1*
X421238Y1984757D2*
X1079701D1*
X1182557D2*
X1300604D1*
X1677328D2*
X1735736D1*
X1879105D2*
X1913255D1*
X2573931D2*
X2839749D1*
X2960224D2*
X3589764D1*
X3710239D2*
X4078794D1*
X421238Y1959888D2*
X1079701D1*
X1182557D2*
X1270713D1*
X1677257D2*
X1760604D1*
X1904009D2*
X1932776D1*
X2549063D2*
X4078794D1*
X421238Y1935020D2*
X1079701D1*
X1182557D2*
X1245845D1*
X1667604D2*
X1785471D1*
X3711567D2*
X4078794D1*
X421238Y1910151D2*
X1079701D1*
X1182557D2*
X1225786D1*
X1643095D2*
X1810339D1*
X3736435D2*
X4078794D1*
X421238Y1885282D2*
X1079701D1*
X1182557D2*
X1222592D1*
X1324479D2*
X1835207D1*
X3761338D2*
X4078794D1*
X421238Y1860413D2*
X1079701D1*
X1182557D2*
X1222592D1*
X1314826D2*
X1404812D1*
X1444871D2*
X1654458D1*
X1695450D2*
X1860828D1*
X3786206D2*
X4078794D1*
X421238Y1835545D2*
X1079701D1*
X1182557D2*
X1222592D1*
X1314826D2*
X1373413D1*
X2351162D2*
X3667669D1*
X3811074D2*
X4078794D1*
X421238Y1810676D2*
X1079701D1*
X1182557D2*
X1222592D1*
X1314826D2*
X1365411D1*
X2359200D2*
X3692536D1*
X3835942D2*
X4078794D1*
X421238Y1785807D2*
X1079701D1*
X1182557D2*
X1222592D1*
X1315795D2*
X1368928D1*
X2355647D2*
X3717404D1*
X3860809D2*
X4078794D1*
X421238Y1760938D2*
X1079701D1*
X1182557D2*
X1223274D1*
X1340663D2*
X1387300D1*
X2337275D2*
X3742272D1*
X3885677D2*
X4078794D1*
X421238Y1736070D2*
X1079701D1*
X1182557D2*
X1237161D1*
X1365531D2*
X1687759D1*
X2094949D2*
X3767140D1*
X3909863D2*
X4078794D1*
X421238Y1711201D2*
X1079701D1*
X1182557D2*
X1262029D1*
X1543516D2*
X1669530D1*
X2116910D2*
X3792007D1*
X3919552D2*
X4078794D1*
X421238Y1686332D2*
X1079701D1*
X1182557D2*
X1286896D1*
X1577750D2*
X1636408D1*
X2122077D2*
X3816875D1*
X3919767D2*
X4078794D1*
X421238Y1661463D2*
X1079701D1*
X1182557D2*
X1311764D1*
X1602618D2*
X1628083D1*
X2115833D2*
X3816911D1*
X3919767D2*
X4078794D1*
X421238Y1636594D2*
X1079701D1*
X1182557D2*
X1336668D1*
X1743607D2*
X2033933D1*
X2090965D2*
X3816911D1*
X3919767D2*
X4078794D1*
X421238Y1611726D2*
X717737D1*
X782269D2*
X1079701D1*
X1182557D2*
X1467753D1*
X1725808D2*
X2217732D1*
X2282264D2*
X2967748D1*
X3032279D2*
X3717727D1*
X3782259D2*
X3816911D1*
X3919767D2*
X4078794D1*
X421238Y1586857D2*
X671196D1*
X828811D2*
X1079701D1*
X1182557D2*
X1421175D1*
X1673345D2*
X2171190D1*
X2328806D2*
X2921170D1*
X3078821D2*
X3671185D1*
X3919767D2*
X4078794D1*
X421238Y1561988D2*
X513664D1*
X586342D2*
X649916D1*
X850090D2*
X913665D1*
X986343D2*
X1079701D1*
X1182557D2*
X1263679D1*
X1336321D2*
X1399896D1*
X1736322D2*
X2013659D1*
X2086336D2*
X2149911D1*
X2350085D2*
X2413660D1*
X2486337D2*
X2763674D1*
X2836352D2*
X2899891D1*
X3100101D2*
X3163675D1*
X3236353D2*
X3513654D1*
X3586331D2*
X3649906D1*
X3986332D2*
X4078794D1*
X421238Y1537119D2*
X487433D1*
X612573D2*
X638003D1*
X862004D2*
X887434D1*
X1012574D2*
X1079701D1*
X1182557D2*
X1237412D1*
X1362588D2*
X1387982D1*
X1762589D2*
X1987428D1*
X2112568D2*
X2137998D1*
X2361999D2*
X2387429D1*
X2512569D2*
X2737407D1*
X2862583D2*
X2888013D1*
X3112014D2*
X3137408D1*
X3262584D2*
X3487422D1*
X3612563D2*
X3637992D1*
X4012564D2*
X4078794D1*
X421238Y1512251D2*
X477959D1*
X622046D2*
X632512D1*
X867458D2*
X877960D1*
X1022047D2*
X1079701D1*
X1182557D2*
X1227939D1*
X1372062D2*
X1382528D1*
X1772063D2*
X1977954D1*
X2122041D2*
X2132505D1*
X2367489D2*
X2377955D1*
X2522042D2*
X2727934D1*
X2872057D2*
X2882523D1*
X3117469D2*
X3127935D1*
X3272058D2*
X3477949D1*
X3622036D2*
X3632538D1*
X4022037D2*
X4078794D1*
X421238Y1487382D2*
X478031D1*
X621975D2*
X632584D1*
X867422D2*
X878032D1*
X1021976D2*
X1079701D1*
X1182557D2*
X1228010D1*
X1371990D2*
X1382564D1*
X1771991D2*
X1978026D1*
X2121969D2*
X2132565D1*
X2367417D2*
X2378027D1*
X2521970D2*
X2728005D1*
X2871985D2*
X2882559D1*
X3117433D2*
X3128006D1*
X3271986D2*
X3478021D1*
X3622000D2*
X3632574D1*
X4022001D2*
X4078794D1*
X421238Y1462513D2*
X487648D1*
X612358D2*
X638110D1*
X1012359D2*
X1079701D1*
X1182557D2*
X1237663D1*
X1362337D2*
X1388126D1*
X1762338D2*
X1987643D1*
X2112352D2*
X2138141D1*
X2512353D2*
X2737658D1*
X2862368D2*
X2888121D1*
X3262369D2*
X3487638D1*
X3612347D2*
X3638136D1*
X4012348D2*
X4078794D1*
X421238Y1437644D2*
X514346D1*
X585660D2*
X650132D1*
X985661D2*
X1079701D1*
X1182557D2*
X1264361D1*
X1335639D2*
X1400147D1*
X1735640D2*
X2014341D1*
X2085655D2*
X2150126D1*
X2485656D2*
X2764356D1*
X2835670D2*
X2900142D1*
X3235671D2*
X3514336D1*
X3585650D2*
X3650121D1*
X3985651D2*
X4078794D1*
X421238Y1412776D2*
X671590D1*
X988675D2*
X1079701D1*
X1182557D2*
X1421606D1*
X1738690D2*
X2171585D1*
X2488670D2*
X2921601D1*
X3238685D2*
X3671616D1*
X3988665D2*
X4078794D1*
X421238Y1387907D2*
X719137D1*
X780834D2*
X811216D1*
X988783D2*
X1079701D1*
X1182557D2*
X1469152D1*
X1530849D2*
X1561231D1*
X1738762D2*
X2219168D1*
X2280865D2*
X2311211D1*
X2488778D2*
X2969147D1*
X3030844D2*
X3061226D1*
X3238793D2*
X3719162D1*
X3780859D2*
X3811205D1*
X3988772D2*
X4078794D1*
X421238Y1363038D2*
X587370D1*
X712654D2*
X818608D1*
X981391D2*
X1079701D1*
X1182557D2*
X1337350D1*
X1462633D2*
X1568623D1*
X1731406D2*
X2087365D1*
X2212649D2*
X2318603D1*
X2481385D2*
X2837380D1*
X2962628D2*
X3068618D1*
X3231401D2*
X3587360D1*
X3712644D2*
X3818598D1*
X3981380D2*
X4078794D1*
X421238Y1338169D2*
X569177D1*
X730811D2*
X836119D1*
X963879D2*
X1079701D1*
X1182557D2*
X1319192D1*
X1480827D2*
X1586135D1*
X1713894D2*
X2069172D1*
X2230806D2*
X2336114D1*
X2463874D2*
X2819187D1*
X2980822D2*
X3086130D1*
X3213889D2*
X3569167D1*
X3730801D2*
X3836109D1*
X3963869D2*
X4078794D1*
X421238Y1313301D2*
X561390D1*
X738598D2*
X888941D1*
X911058D2*
X1079701D1*
X1182557D2*
X1311405D1*
X1488614D2*
X1638920D1*
X1661071D2*
X2061385D1*
X2238593D2*
X2388936D1*
X2411088D2*
X2811400D1*
X2988608D2*
X3085161D1*
X3201438D2*
X3561416D1*
X3738588D2*
X3888931D1*
X3911079D2*
X4078794D1*
X421238Y1288432D2*
X561139D1*
X738849D2*
X1079701D1*
X1188765D2*
X1311154D1*
X1488865D2*
X2061134D1*
X2238844D2*
X2811149D1*
X2988860D2*
X3060293D1*
X3197993D2*
X3561164D1*
X3738839D2*
X4078794D1*
X421238Y1263563D2*
X568351D1*
X731637D2*
X1080885D1*
X1213633D2*
X1318367D1*
X1481652D2*
X2068346D1*
X2231632D2*
X2818362D1*
X2981647D2*
X3035425D1*
X3178830D2*
X3568377D1*
X3731626D2*
X4078794D1*
X421238Y1238694D2*
X585612D1*
X714412D2*
X1095095D1*
X3153963D2*
X3585602D1*
X3714402D2*
X4078794D1*
X421238Y1213825D2*
X634701D1*
X665323D2*
X1119963D1*
X3129095D2*
X3634691D1*
X3665312D2*
X4078794D1*
X421238Y1188957D2*
X1144831D1*
X3104227D2*
X4078794D1*
X421238Y1164088D2*
X519549D1*
X3530029D2*
X4078794D1*
X421238Y1139219D2*
X509645D1*
X3539933D2*
X4078794D1*
X421238Y1114350D2*
X511583D1*
X3537995D2*
X4078794D1*
X421238Y1089482D2*
X527085D1*
X3522493D2*
X4078794D1*
X421238Y1064613D2*
X4078794D1*
X421238Y1039744D2*
X4078794D1*
X421238Y1014875D2*
X4078794D1*
X421238Y990007D2*
X4078794D1*
X421238Y965138D2*
X4078794D1*
X421238Y940269D2*
X4078794D1*
X421238Y915400D2*
X4078794D1*
X421238Y890531D2*
X4078794D1*
X421238Y865663D2*
X4078794D1*
X421238Y840794D2*
X675896D1*
X824074D2*
X1425912D1*
X1574090D2*
X2175927D1*
X2324105D2*
X2925907D1*
X3074085D2*
X3675922D1*
X3824100D2*
X4078794D1*
X421238Y815925D2*
X522169D1*
X577837D2*
X652500D1*
X847471D2*
X922170D1*
X977838D2*
X1272184D1*
X1327816D2*
X1402515D1*
X1597486D2*
X1672185D1*
X1727818D2*
X2022163D1*
X2077832D2*
X2152531D1*
X2347502D2*
X2422164D1*
X2477833D2*
X2772179D1*
X2827811D2*
X2902510D1*
X3097481D2*
X3172180D1*
X3227812D2*
X3522158D1*
X3577827D2*
X3652526D1*
X3847496D2*
X3922159D1*
X3977828D2*
X4078794D1*
X421238Y791056D2*
X490052D1*
X609953D2*
X639402D1*
X860604D2*
X890053D1*
X1009954D2*
X1240032D1*
X1359969D2*
X1389418D1*
X1610584D2*
X1640033D1*
X1759970D2*
X1990047D1*
X2109948D2*
X2139397D1*
X2360599D2*
X2390048D1*
X2509949D2*
X2740027D1*
X2859964D2*
X2889412D1*
X3110579D2*
X3140028D1*
X3259965D2*
X3490042D1*
X3609979D2*
X3639428D1*
X3860594D2*
X3890043D1*
X4009944D2*
X4078794D1*
X421238Y766188D2*
X478749D1*
X621257D2*
X633015D1*
X866992D2*
X878750D1*
X1021258D2*
X1228764D1*
X1371236D2*
X1383030D1*
X1616971D2*
X1628786D1*
X1771237D2*
X1978744D1*
X2121252D2*
X2132990D1*
X2366987D2*
X2378745D1*
X2521253D2*
X2728759D1*
X2871231D2*
X2883025D1*
X3116966D2*
X3128760D1*
X3271232D2*
X3478774D1*
X3621247D2*
X3633005D1*
X3866982D2*
X3878758D1*
X4021248D2*
X4078794D1*
X421238Y741319D2*
X477421D1*
X622585D2*
X632189D1*
X867781D2*
X877422D1*
X1022586D2*
X1227400D1*
X1372600D2*
X1382205D1*
X1617797D2*
X1627411D1*
X1772601D2*
X1977416D1*
X2122579D2*
X2132233D1*
X2367812D2*
X2377417D1*
X2522580D2*
X2727431D1*
X2872595D2*
X2882200D1*
X3117791D2*
X3127396D1*
X3272596D2*
X3477411D1*
X3622574D2*
X3632215D1*
X3867807D2*
X3877424D1*
X4022575D2*
X4078794D1*
X421238Y716450D2*
X485351D1*
X614654D2*
X636854D1*
X1014655D2*
X1235367D1*
X1364634D2*
X1386870D1*
X1764635D2*
X1985346D1*
X2114649D2*
X2136849D1*
X2514650D2*
X2735362D1*
X2864629D2*
X2886865D1*
X3264630D2*
X3485341D1*
X3614644D2*
X3636844D1*
X4014645D2*
X4078794D1*
X421238Y691581D2*
X507815D1*
X592191D2*
X647727D1*
X992192D2*
X1257830D1*
X1342170D2*
X1397707D1*
X1742171D2*
X2007810D1*
X2092186D2*
X2147722D1*
X2492187D2*
X2757825D1*
X2842165D2*
X2897738D1*
X3242166D2*
X3507805D1*
X3592180D2*
X3647717D1*
X3992181D2*
X4078794D1*
X421238Y666713D2*
X667320D1*
X987993D2*
X1417300D1*
X1738009D2*
X2167315D1*
X2487988D2*
X2917294D1*
X3238004D2*
X3667310D1*
X3988019D2*
X4078794D1*
X421238Y641844D2*
X706613D1*
X793357D2*
X810749D1*
X989249D2*
X1456629D1*
X1543373D2*
X1560765D1*
X1739229D2*
X2206608D1*
X2293388D2*
X2310744D1*
X2489244D2*
X2956624D1*
X3043368D2*
X3060759D1*
X3239224D2*
X3706639D1*
X3793383D2*
X3810775D1*
X3989239D2*
X4078794D1*
X421238Y616975D2*
X591784D1*
X708204D2*
X816885D1*
X983113D2*
X1341763D1*
X1458220D2*
X1566865D1*
X1733128D2*
X2091779D1*
X2208235D2*
X2316880D1*
X2483108D2*
X2841794D1*
X2958215D2*
X3066896D1*
X3233123D2*
X3591774D1*
X3708230D2*
X3816875D1*
X3983103D2*
X4078794D1*
X421238Y592106D2*
X571222D1*
X728766D2*
X832387D1*
X967611D2*
X1321238D1*
X1478781D2*
X1582403D1*
X1717591D2*
X2071217D1*
X2228761D2*
X2332382D1*
X2467606D2*
X2821232D1*
X2978776D2*
X3082398D1*
X3217621D2*
X3571212D1*
X3728756D2*
X3832413D1*
X3967601D2*
X4078794D1*
X421238Y567238D2*
X562108D1*
X737916D2*
X870281D1*
X929717D2*
X1312087D1*
X1487896D2*
X1620296D1*
X1679697D2*
X2062103D1*
X2237911D2*
X2370276D1*
X2429712D2*
X2812118D1*
X2987891D2*
X3120291D1*
X3179728D2*
X3562097D1*
X3737906D2*
X3870271D1*
X3929707D2*
X4078794D1*
X421238Y542369D2*
X560708D1*
X739280D2*
X1310724D1*
X1489295D2*
X2060703D1*
X2239275D2*
X2810718D1*
X2989290D2*
X3560698D1*
X3739270D2*
X4078794D1*
X421238Y517500D2*
X566665D1*
X733323D2*
X1316680D1*
X1483339D2*
X2066660D1*
X2233318D2*
X2816675D1*
X2983333D2*
X3566655D1*
X3733349D2*
X4078794D1*
X421238Y492631D2*
X581916D1*
X718072D2*
X1331931D1*
X1468052D2*
X2081946D1*
X2218067D2*
X2831926D1*
X2968083D2*
X3581941D1*
X3718062D2*
X4078794D1*
X421238Y467762D2*
X618733D1*
X681255D2*
X1368748D1*
X1431271D2*
X2118728D1*
X2181250D2*
X2868743D1*
X2931265D2*
X3618723D1*
X3681245D2*
X4078794D1*
X421238Y442894D2*
X4078794D1*
X1105772Y2907077D2*
X1105029Y2900805D1*
X1103797Y2894611D1*
X1102083Y2888533D1*
X1099897Y2882608D1*
X1097253Y2876873D1*
X1094168Y2871363D1*
X1090659Y2866112D1*
X1086749Y2861153D1*
X1082463Y2856515D1*
X1074319Y2849464D1*
X1124867Y2798897D1*
X1174681Y2848697D1*
X1170206Y2852228D1*
X1165569Y2856515D1*
X1161282Y2861153D1*
X1157372Y2866112D1*
X1153864Y2871363D1*
X1150778Y2876873D1*
X1148134Y2882608D1*
X1145948Y2888533D1*
X1144234Y2894611D1*
X1143002Y2900805D1*
X1142260Y2907077D1*
X1142012Y2913387D1*
X1142260Y2919698D1*
X1143002Y2925969D1*
X1144234Y2932163D1*
X1145948Y2938241D1*
X1148134Y2944166D1*
X1150778Y2949901D1*
X1153864Y2955411D1*
X1157372Y2960662D1*
X1161282Y2965622D1*
X1165569Y2970259D1*
X1170206Y2974546D1*
X1175166Y2978456D1*
X1180417Y2981964D1*
X1185927Y2985050D1*
X1191662Y2987694D1*
X1197587Y2989880D1*
X1203665Y2991594D1*
X1209859Y2992826D1*
X1216131Y2993568D1*
X1222441Y2993816D1*
X1228751Y2993568D1*
X1235023Y2992826D1*
X1241217Y2991594D1*
X1247295Y2989880D1*
X1253220Y2987694D1*
X1258955Y2985050D1*
X1264465Y2981964D1*
X1269716Y2978456D1*
X1274675Y2974546D1*
X1279313Y2970259D1*
X1283600Y2965622D1*
X1287509Y2960662D1*
X1291018Y2955411D1*
X1294104Y2949901D1*
X1296748Y2944166D1*
X1298934Y2938241D1*
X1300648Y2932163D1*
X1301880Y2925969D1*
X1302622Y2919698D1*
X1302870Y2913387D1*
X1302622Y2907077D1*
X1301880Y2900805D1*
X1300648Y2894611D1*
X1298934Y2888533D1*
X1296748Y2882608D1*
X1294104Y2876873D1*
X1291018Y2871363D1*
X1287509Y2866112D1*
X1283600Y2861153D1*
X1279313Y2856515D1*
X1274675Y2852228D1*
X1268465Y2847483D1*
X1268347Y2833772D1*
X1267277Y2827012D1*
X1265162Y2820502D1*
X1262054Y2814404D1*
X1258031Y2808866D1*
X1229723Y2780369D1*
X1199739Y2750079D1*
Y2419693D1*
X1209859Y2421960D1*
X1216131Y2422702D1*
X1222441Y2422950D1*
X1228751Y2422702D1*
X1235023Y2421960D1*
X1241217Y2420728D1*
X1247295Y2419014D1*
X1253220Y2416828D1*
X1258955Y2414184D1*
X1264465Y2411098D1*
X1269716Y2407590D1*
X1274675Y2403680D1*
X1279313Y2399393D1*
X1283600Y2394756D1*
X1287509Y2389796D1*
X1291018Y2384545D1*
X1294104Y2379035D1*
X1296748Y2373300D1*
X1298934Y2367375D1*
X1300648Y2361297D1*
X1301880Y2355103D1*
X1302622Y2348831D1*
X1302870Y2342521D1*
X1302622Y2336211D1*
X1301880Y2329939D1*
X1300648Y2323745D1*
X1298122Y2315468D1*
X1302063Y2318193D1*
X1308161Y2321301D1*
X1314671Y2323416D1*
X1321431Y2324486D1*
X1361598Y2324621D1*
X1400742Y2324837D1*
X1473072Y2397167D1*
X1465809Y2403309D1*
X1459988Y2410125D1*
X1455305Y2417768D1*
X1451874Y2426049D1*
X1449782Y2434765D1*
X1449079Y2443701D1*
X1449782Y2452637D1*
X1451874Y2461352D1*
X1455305Y2469634D1*
X1459988Y2477276D1*
X1465809Y2484092D1*
X1472625Y2489913D1*
X1480268Y2494597D1*
X1488549Y2498027D1*
X1497265Y2500120D1*
X1506201Y2500823D1*
X1515137Y2500120D1*
X1523852Y2498027D1*
X1532134Y2494597D1*
X1535634Y2492636D1*
X1663122Y2492634D1*
X1669243Y2496245D1*
X1677524Y2499675D1*
X1681386Y2500764D1*
X1774021Y2593183D1*
X1780233Y2597696D1*
X1787075Y2601182D1*
X1794377Y2603555D1*
X1801961Y2604756D1*
X1833360Y2604907D1*
X2366922D1*
X2473479Y2711431D1*
X2467118Y2712798D1*
X2458354Y2715270D1*
X2449810Y2718421D1*
X2441540Y2722234D1*
X2433595Y2726684D1*
X2426023Y2731743D1*
X2418871Y2737381D1*
X2412184Y2743562D1*
X2406003Y2750249D1*
X2400365Y2757401D1*
X2395306Y2764973D1*
X2390856Y2772918D1*
X2387043Y2781188D1*
X2383892Y2789732D1*
X2381420Y2798496D1*
X2379643Y2807428D1*
X2378573Y2816471D1*
X2378215Y2825571D1*
X2378573Y2834670D1*
X2379288Y2840711D1*
X2371660Y2835370D1*
X2366420Y2832436D1*
X2360965Y2829921D1*
X2355330Y2827842D1*
X2349550Y2826212D1*
X2343659Y2825040D1*
X2337694Y2824334D1*
X2331693Y2824098D1*
X2325691Y2824334D1*
X2319727Y2825040D1*
X2313836Y2826212D1*
X2308056Y2827842D1*
X2302421Y2829921D1*
X2296966Y2832436D1*
X2291726Y2835370D1*
X2286732Y2838707D1*
X2282015Y2842425D1*
X2277605Y2846502D1*
X2273528Y2850913D1*
X2269809Y2855630D1*
X2266473Y2860624D1*
X2263538Y2865864D1*
X2261023Y2871318D1*
X2258945Y2876953D1*
X2257314Y2882734D1*
X2256143Y2888625D1*
X2255437Y2894589D1*
X2255201Y2900591D1*
X2255437Y2906592D1*
X2256143Y2912557D1*
X2257314Y2918447D1*
X2258945Y2924228D1*
X2261023Y2929863D1*
X2263538Y2935317D1*
X2266473Y2940558D1*
X2269809Y2945551D1*
X2273830Y2950596D1*
X2269809Y2955630D1*
X2266473Y2960624D1*
X2263538Y2965864D1*
X2261023Y2971318D1*
X2258945Y2976953D1*
X2257314Y2982734D1*
X2256143Y2988625D1*
X2255437Y2994589D1*
X2255201Y3000591D1*
X2255437Y3006592D1*
X2256143Y3012557D1*
X2257314Y3018447D1*
X2258945Y3024228D1*
X2261023Y3029863D1*
X2263538Y3035317D1*
X2266473Y3040558D1*
X2269809Y3045551D1*
X2273830Y3050596D1*
X2269809Y3055630D1*
X2266473Y3060624D1*
X2263538Y3065864D1*
X2261023Y3071318D1*
X2258945Y3076953D1*
X2257314Y3082734D1*
X2256143Y3088625D1*
X2255437Y3094589D1*
X2255201Y3100591D1*
X2255437Y3106592D1*
X2256143Y3112557D1*
X2257314Y3118447D1*
X2258945Y3124228D1*
X2261023Y3129863D1*
X2263538Y3135317D1*
X2266473Y3140558D1*
X2269809Y3145551D1*
X2273528Y3150268D1*
X2277605Y3154679D1*
X2282015Y3158756D1*
X2286732Y3162474D1*
X2291726Y3165811D1*
X2296966Y3168746D1*
X2302421Y3171260D1*
X2308056Y3173339D1*
X2313836Y3174969D1*
X2319727Y3176141D1*
X2325691Y3176847D1*
X2331693Y3177083D1*
X2337694Y3176847D1*
X2343659Y3176141D1*
X2349550Y3174969D1*
X2355330Y3173339D1*
X2360965Y3171260D1*
X2366420Y3168746D1*
X2371660Y3165811D1*
X2376654Y3162474D1*
X2381371Y3158756D1*
X2385781Y3154679D1*
X2389858Y3150268D1*
X2393576Y3145551D1*
X2396913Y3140558D1*
X2399848Y3135317D1*
X2402362Y3129863D1*
X2404441Y3124228D1*
X2406072Y3118447D1*
X2407243Y3112557D1*
X2407949Y3106592D1*
X2408185Y3100591D1*
X2407949Y3094589D1*
X2407243Y3088625D1*
X2406072Y3082734D1*
X2404441Y3076953D1*
X2402362Y3071318D1*
X2399848Y3065864D1*
X2396913Y3060624D1*
X2393576Y3055630D1*
X2389555Y3050586D1*
X2393576Y3045551D1*
X2396913Y3040558D1*
X2399848Y3035317D1*
X2402362Y3029863D1*
X2404441Y3024228D1*
X2406072Y3018447D1*
X2407243Y3012557D1*
X2407949Y3006592D1*
X2408185Y3000591D1*
X2407720Y2992655D1*
X2541289Y2992483D1*
X2548873Y2991282D1*
X2556176Y2988909D1*
X2563018Y2985423D1*
X2569230Y2980910D1*
X2591538Y2958815D1*
X2649659Y2900480D1*
X2654172Y2894268D1*
X2657658Y2887427D1*
X2660031Y2880124D1*
X2661232Y2872540D1*
X2661383Y2841142D1*
X2661232Y2777362D1*
X2660031Y2769778D1*
X2657658Y2762475D1*
X2654172Y2755633D1*
X2649659Y2749421D1*
X2627564Y2727113D1*
X2419004Y2518765D1*
X2412792Y2514251D1*
X2405950Y2510766D1*
X2398648Y2508393D1*
X2391064Y2507191D1*
X2359665Y2507041D1*
X1965621D1*
X1969437Y2500665D1*
X1972867Y2492384D1*
X1974464Y2486160D1*
X1980563Y2491489D1*
X1986399Y2495065D1*
X1992722Y2497684D1*
X1999377Y2499282D1*
X2006214Y2499818D1*
X2222123Y2499685D1*
X2228883Y2498614D1*
X2235393Y2496499D1*
X2241491Y2493391D1*
X2247029Y2489368D1*
X2275526Y2461061D1*
X2401868Y2334529D1*
X2405891Y2328991D1*
X2408999Y2322893D1*
X2411114Y2316383D1*
X2411784Y2313011D1*
X2413100Y2310215D1*
X2422974Y2315246D1*
X2433514Y2318671D1*
X2444459Y2320404D1*
X2455541D1*
X2466486Y2318671D1*
X2477026Y2315246D1*
X2486900Y2310215D1*
X2495865Y2303701D1*
X2503701Y2295865D1*
X2510215Y2286900D1*
X2515246Y2277026D1*
X2518671Y2266486D1*
X2520404Y2255541D1*
Y2244459D1*
X2518671Y2233514D1*
X2515246Y2222974D1*
X2510215Y2213100D1*
X2503701Y2204135D1*
X2495865Y2196299D1*
X2486900Y2189785D1*
X2479406Y2185851D1*
X2482858Y2176922D1*
X2484715Y2170338D1*
X2486049Y2163629D1*
X2486853Y2156836D1*
X2487122Y2150000D1*
X2486853Y2143164D1*
X2486049Y2136371D1*
X2484715Y2129662D1*
X2482858Y2123078D1*
X2480490Y2116660D1*
X2477626Y2110447D1*
X2474284Y2104479D1*
X2470483Y2098791D1*
X2466248Y2093419D1*
X2461605Y2088395D1*
X2456581Y2083752D1*
X2451209Y2079517D1*
X2445521Y2075716D1*
X2439553Y2072374D1*
X2433340Y2069510D1*
X2426922Y2067142D1*
X2420338Y2065285D1*
X2413629Y2063951D1*
X2406836Y2063147D1*
X2400000Y2062878D1*
X2393164Y2063147D1*
X2386371Y2063951D1*
X2379662Y2065285D1*
X2373078Y2067142D1*
X2366660Y2069510D1*
X2360447Y2072374D1*
X2354479Y2075716D1*
X2348791Y2079517D1*
X2343419Y2083752D1*
X2338395Y2088395D1*
X2333752Y2093419D1*
X2329517Y2098791D1*
X2325716Y2104479D1*
X2322374Y2110447D1*
X2319510Y2116660D1*
X2317142Y2123078D1*
X2315285Y2129662D1*
X2313951Y2136371D1*
X2313147Y2143164D1*
X2312999Y2153071D1*
X2302491Y2146980D1*
X2294247Y2143179D1*
X2285729Y2140037D1*
X2276991Y2137573D1*
X2268087Y2135801D1*
X2259072Y2134734D1*
X2250000Y2134378D1*
X2240928Y2134734D1*
X2231913Y2135801D1*
X2223009Y2137573D1*
X2214271Y2140037D1*
X2205753Y2143179D1*
X2197509Y2146980D1*
X2189588Y2151416D1*
X2182039Y2156460D1*
X2174909Y2162080D1*
X2168243Y2168243D1*
X2162080Y2174909D1*
X2156460Y2182039D1*
X2151416Y2189588D1*
X2146980Y2197509D1*
X2143179Y2205753D1*
X2140037Y2214271D1*
X2137573Y2223009D1*
X2135801Y2231913D1*
X2134734Y2240928D1*
X2134378Y2250000D1*
X2134734Y2259072D1*
X2135801Y2268087D1*
X2137573Y2276991D1*
X2140037Y2285729D1*
X2143179Y2294247D1*
X2146980Y2302491D1*
X2151416Y2310412D1*
X2156460Y2317961D1*
X2162080Y2325091D1*
X2168243Y2331757D1*
X2174909Y2337920D1*
X2182039Y2343540D1*
X2189588Y2348584D1*
X2197509Y2353020D1*
X2205753Y2356821D1*
X2214271Y2359963D1*
X2223009Y2362427D1*
X2231913Y2364199D1*
X2240928Y2365266D1*
X2247697Y2365532D1*
X2200610Y2412606D1*
X2080439Y2412583D1*
X2081725Y2404222D1*
Y2395258D1*
X2080323Y2386405D1*
X2077553Y2377880D1*
X2073484Y2369894D1*
X2068215Y2362642D1*
X2061877Y2356304D1*
X2054626Y2351036D1*
X2046639Y2346966D1*
X2038114Y2344196D1*
X2029557Y2342829D1*
X2026082Y2339051D1*
Y2316480D1*
X2033514Y2318671D1*
X2044459Y2320404D1*
X2055541D1*
X2066486Y2318671D1*
X2077026Y2315246D1*
X2086900Y2310215D1*
X2095865Y2303701D1*
X2103701Y2295865D1*
X2110215Y2286900D1*
X2115246Y2277026D1*
X2118671Y2266486D1*
X2120404Y2255541D1*
Y2244459D1*
X2118671Y2233514D1*
X2115246Y2222974D1*
X2110215Y2213100D1*
X2103701Y2204135D1*
X2095865Y2196299D1*
X2086900Y2189785D1*
X2077026Y2184754D1*
X2066486Y2181329D1*
X2055541Y2179596D1*
X2044459D1*
X2033514Y2181329D1*
X2026083Y2183607D1*
X2026082Y2129452D1*
X2031168Y2122396D1*
X2035237Y2114410D1*
X2037546Y2107520D1*
X2044624Y2110353D1*
X2053340Y2112445D1*
X2062276Y2113148D1*
X2071211Y2112445D1*
X2079927Y2110353D1*
X2085233Y2108294D1*
X2093419Y2116248D1*
X2098791Y2120483D1*
X2104479Y2124284D1*
X2110447Y2127626D1*
X2116660Y2130490D1*
X2123078Y2132858D1*
X2129662Y2134715D1*
X2136371Y2136049D1*
X2143164Y2136853D1*
X2150000Y2137122D1*
X2156836Y2136853D1*
X2163629Y2136049D1*
X2170338Y2134715D1*
X2176922Y2132858D1*
X2183340Y2130490D1*
X2189553Y2127626D1*
X2195521Y2124284D1*
X2201209Y2120483D1*
X2206581Y2116248D1*
X2211605Y2111605D1*
X2216248Y2106581D1*
X2220483Y2101209D1*
X2224284Y2095521D1*
X2227626Y2089553D1*
X2230490Y2083340D1*
X2232858Y2076922D1*
X2234715Y2070338D1*
X2236049Y2063629D1*
X2236853Y2056836D1*
X2237122Y2050000D1*
X2236853Y2043164D1*
X2236049Y2036371D1*
X2234715Y2029662D1*
X2232858Y2023078D1*
X2230490Y2016660D1*
X2227626Y2010447D1*
X2224284Y2004479D1*
X2221181Y1999835D1*
X2463126Y1999819D1*
X2562333Y2099019D1*
X2562350Y2200355D1*
X2557264Y2207411D1*
X2553195Y2215398D1*
X2550425Y2223922D1*
X2549023Y2232775D1*
Y2241739D1*
X2550425Y2250592D1*
X2553195Y2259117D1*
X2557264Y2267103D1*
X2562533Y2274355D1*
X2568871Y2280693D1*
X2576122Y2285962D1*
X2584109Y2290031D1*
X2592634Y2292801D1*
X2601487Y2294203D1*
X2610450D1*
X2619303Y2292801D1*
X2627828Y2290031D1*
X2635815Y2285962D1*
X2643066Y2280693D1*
X2649404Y2274355D1*
X2654673Y2267103D1*
X2658742Y2259117D1*
X2661512Y2250592D1*
X2662914Y2241739D1*
Y2232775D1*
X2661512Y2223922D1*
X2658742Y2215398D1*
X2654673Y2207411D1*
X2649589Y2200393D1*
X2649452Y2077546D1*
X2648382Y2070786D1*
X2646266Y2064277D1*
X2643159Y2058178D1*
X2639136Y2052641D1*
X2610828Y2024143D1*
X2535430Y1948726D1*
X3678948Y1948575D1*
X3686532Y1947374D1*
X3693835Y1945001D1*
X3700676Y1941515D1*
X3706888Y1937002D1*
X3729197Y1914906D1*
X3905545Y1738345D1*
X3910058Y1732133D1*
X3913544Y1725292D1*
X3915917Y1717989D1*
X3917118Y1710405D1*
X3917269Y1679007D1*
Y1562562D1*
X3922974Y1565246D1*
X3933514Y1568671D1*
X3944459Y1570404D1*
X3955541D1*
X3966486Y1568671D1*
X3977026Y1565246D1*
X3986900Y1560215D1*
X3995865Y1553701D1*
X4003701Y1545865D1*
X4010215Y1536900D1*
X4015246Y1527026D1*
X4018671Y1516486D1*
X4020404Y1505541D1*
Y1494459D1*
X4018671Y1483514D1*
X4015246Y1472974D1*
X4010215Y1463100D1*
X4003701Y1454135D1*
X3995865Y1446299D1*
X3986900Y1439785D1*
X3979406Y1435851D1*
X3982858Y1426922D1*
X3984715Y1420338D1*
X3986049Y1413629D1*
X3986853Y1406836D1*
X3987122Y1400000D1*
X3986853Y1393164D1*
X3986049Y1386371D1*
X3984715Y1379662D1*
X3982858Y1373078D1*
X3980490Y1366660D1*
X3977626Y1360447D1*
X3974284Y1354479D1*
X3970483Y1348791D1*
X3966248Y1343419D1*
X3961605Y1338395D1*
X3956581Y1333752D1*
X3951209Y1329517D1*
X3945521Y1325716D1*
X3939553Y1322374D1*
X3933340Y1319510D1*
X3926922Y1317142D1*
X3920338Y1315285D1*
X3913629Y1313951D1*
X3906836Y1313147D1*
X3900000Y1312878D1*
X3893164Y1313147D1*
X3886371Y1313951D1*
X3879662Y1315285D1*
X3873078Y1317142D1*
X3866660Y1319510D1*
X3860447Y1322374D1*
X3854479Y1325716D1*
X3848791Y1329517D1*
X3843419Y1333752D1*
X3838395Y1338395D1*
X3833752Y1343419D1*
X3829517Y1348791D1*
X3825716Y1354479D1*
X3822374Y1360447D1*
X3819510Y1366660D1*
X3817142Y1373078D1*
X3815285Y1379662D1*
X3813951Y1386371D1*
X3813147Y1393164D1*
X3812999Y1403071D1*
X3802491Y1396980D1*
X3794247Y1393179D1*
X3785729Y1390037D1*
X3776991Y1387573D1*
X3768087Y1385801D1*
X3759072Y1384734D1*
X3750000Y1384378D1*
X3740928Y1384734D1*
X3731913Y1385801D1*
X3723009Y1387573D1*
X3714271Y1390037D1*
X3705753Y1393179D1*
X3697509Y1396980D1*
X3689588Y1401416D1*
X3682039Y1406460D1*
X3674909Y1412080D1*
X3668243Y1418243D1*
X3662080Y1424909D1*
X3656460Y1432039D1*
X3651416Y1439588D1*
X3646980Y1447509D1*
X3643179Y1455753D1*
X3640037Y1464271D1*
X3637573Y1473009D1*
X3635801Y1481913D1*
X3634734Y1490928D1*
X3634378Y1500000D1*
X3634734Y1509072D1*
X3635801Y1518087D1*
X3637573Y1526991D1*
X3640037Y1535729D1*
X3643179Y1544247D1*
X3646980Y1552491D1*
X3651416Y1560412D1*
X3656460Y1567961D1*
X3662080Y1575091D1*
X3668243Y1581757D1*
X3674909Y1587920D1*
X3682039Y1593540D1*
X3689588Y1598584D1*
X3697509Y1603020D1*
X3705753Y1606821D1*
X3714271Y1609963D1*
X3723009Y1612427D1*
X3731913Y1614199D1*
X3740928Y1615266D1*
X3750000Y1615622D1*
X3759072Y1615266D1*
X3768087Y1614199D1*
X3776991Y1612427D1*
X3785729Y1609963D1*
X3794247Y1606821D1*
X3802491Y1603020D1*
X3810412Y1598584D1*
X3819381Y1592420D1*
X3819403Y1686320D1*
X3654823Y1850876D1*
X2335158Y1850860D1*
X2340142Y1846444D1*
X2345963Y1839628D1*
X2350647Y1831985D1*
X2354077Y1823704D1*
X2356169Y1814988D1*
X2356873Y1806052D1*
X2356169Y1797117D1*
X2354077Y1788401D1*
X2350647Y1780120D1*
X2345963Y1772477D1*
X2340142Y1765661D1*
X2333326Y1759840D1*
X2325684Y1755156D1*
X2317402Y1751726D1*
X2308687Y1749634D1*
X2299751Y1748930D1*
X2290815Y1749634D1*
X2282099Y1751726D1*
X2273818Y1755156D1*
X2267297Y1759090D1*
X2074864Y1759088D1*
X2075476Y1754290D1*
Y1745327D1*
X2075215Y1743117D1*
X2080102Y1741778D1*
X2088383Y1738348D1*
X2096026Y1733664D1*
X2102842Y1727843D1*
X2108663Y1721027D1*
X2113346Y1713384D1*
X2116776Y1705103D1*
X2118869Y1696387D1*
X2119572Y1687451D1*
X2118869Y1678516D1*
X2116776Y1669800D1*
X2113346Y1661519D1*
X2108663Y1653876D1*
X2102842Y1647060D1*
X2096026Y1641239D1*
X2088383Y1636555D1*
X2080102Y1633125D1*
X2071386Y1631033D1*
X2062450Y1630329D1*
X2053514Y1631033D1*
X2044798Y1633125D1*
X2036517Y1636555D1*
X2028875Y1641239D1*
X2025586Y1643831D1*
X1743189Y1643833D1*
X1741776Y1638549D1*
X1738346Y1630268D1*
X1733663Y1622625D1*
X1727842Y1615809D1*
X1721026Y1609988D1*
X1713383Y1605305D1*
X1705102Y1601874D1*
X1696386Y1599782D1*
X1687450Y1599079D1*
X1678514Y1599782D1*
X1669798Y1601874D1*
X1661517Y1605305D1*
X1653875Y1609988D1*
X1647059Y1615809D1*
X1641237Y1622625D1*
X1636554Y1630268D1*
X1633124Y1638549D1*
X1631031Y1647265D1*
X1630328Y1656201D1*
X1631031Y1665137D1*
X1633124Y1673852D1*
X1636554Y1682134D1*
X1641237Y1689776D1*
X1647059Y1696592D1*
X1653875Y1702413D1*
X1661517Y1707097D1*
X1669798Y1710527D1*
X1678514Y1712620D1*
X1682673Y1713112D1*
X1690373Y1720619D1*
X1695922Y1724649D1*
X1690927Y1734341D1*
X1688157Y1742866D1*
X1686918Y1750345D1*
X1679432Y1749255D1*
X1670468D1*
X1661615Y1750657D1*
X1653090Y1753427D1*
X1645104Y1757496D1*
X1642496Y1759239D1*
X1457600Y1759236D1*
X1450775Y1755156D1*
X1442494Y1751726D1*
X1433778Y1749634D1*
X1424843Y1748930D1*
X1415907Y1749634D1*
X1407191Y1751726D1*
X1398910Y1755156D1*
X1391267Y1759840D1*
X1384451Y1765661D1*
X1378630Y1772477D1*
X1373946Y1780120D1*
X1370516Y1788401D1*
X1368424Y1797117D1*
X1367720Y1806052D1*
X1368424Y1814988D1*
X1370516Y1823704D1*
X1373946Y1831985D1*
X1378630Y1839628D1*
X1384451Y1846444D1*
X1391267Y1852265D1*
X1398910Y1856949D1*
X1407191Y1860379D1*
X1415907Y1862471D1*
X1424843Y1863175D1*
X1433778Y1862471D1*
X1442494Y1860379D1*
X1450775Y1856949D1*
X1457063Y1853170D1*
X1642408Y1853165D1*
X1649017Y1857097D1*
X1657298Y1860527D1*
X1666014Y1862620D1*
X1674950Y1863323D1*
X1683886Y1862620D1*
X1692602Y1860527D1*
X1700883Y1857097D1*
X1707608Y1853027D1*
X1878019Y1853017D1*
X1870171Y1856193D1*
X1863624Y1860205D1*
X1857785Y1865192D1*
X1674509Y2048468D1*
X1674818Y2043384D1*
X1674684Y1959028D1*
X1673614Y1952268D1*
X1671499Y1945758D1*
X1668391Y1939660D1*
X1664368Y1934122D1*
X1636061Y1905625D1*
X1628279Y1898033D1*
X1622742Y1894010D1*
X1616643Y1890903D1*
X1610134Y1888788D1*
X1603374Y1887717D1*
X1563206Y1887583D1*
X1324052Y1887367D1*
X1312319Y1875328D1*
X1312535Y1786552D1*
X1387073Y1712319D1*
X1534623Y1712185D1*
X1541383Y1711114D1*
X1547893Y1708999D1*
X1553991Y1705891D1*
X1559529Y1701868D1*
X1588026Y1673561D1*
X1664368Y1597029D1*
X1668391Y1591491D1*
X1671499Y1585393D1*
X1673614Y1578883D1*
X1674685Y1572123D1*
X1674819Y1568687D1*
X1678177Y1567166D1*
X1688952Y1569753D1*
X1700000Y1570622D1*
X1711048Y1569753D1*
X1721823Y1567166D1*
X1732062Y1562925D1*
X1741511Y1557134D1*
X1749937Y1549937D1*
X1757134Y1541511D1*
X1762925Y1532062D1*
X1767166Y1521823D1*
X1769753Y1511048D1*
X1770622Y1500000D1*
X1769753Y1488952D1*
X1767166Y1478177D1*
X1762925Y1467938D1*
X1757134Y1458489D1*
X1749937Y1450063D1*
X1741511Y1442866D1*
X1732062Y1437075D1*
X1729406Y1435851D1*
X1732858Y1426922D1*
X1734715Y1420338D1*
X1736049Y1413629D1*
X1736853Y1406836D1*
X1737122Y1400000D1*
X1736853Y1393164D1*
X1736049Y1386371D1*
X1734715Y1379662D1*
X1732858Y1373078D1*
X1730490Y1366660D1*
X1727626Y1360447D1*
X1724284Y1354479D1*
X1720483Y1348791D1*
X1716248Y1343419D1*
X1711605Y1338395D1*
X1706581Y1333752D1*
X1701209Y1329517D1*
X1695521Y1325716D1*
X1689553Y1322374D1*
X1683340Y1319510D1*
X1676922Y1317142D1*
X1670338Y1315285D1*
X1663629Y1313951D1*
X1656836Y1313147D1*
X1650000Y1312878D1*
X1643164Y1313147D1*
X1636371Y1313951D1*
X1629662Y1315285D1*
X1623078Y1317142D1*
X1616660Y1319510D1*
X1610447Y1322374D1*
X1604479Y1325716D1*
X1598791Y1329517D1*
X1593419Y1333752D1*
X1588395Y1338395D1*
X1583752Y1343419D1*
X1579517Y1348791D1*
X1575716Y1354479D1*
X1572374Y1360447D1*
X1569510Y1366660D1*
X1567142Y1373078D1*
X1565285Y1379662D1*
X1563951Y1386371D1*
X1563147Y1393164D1*
X1562999Y1403071D1*
X1552491Y1396980D1*
X1544247Y1393179D1*
X1535729Y1390037D1*
X1526991Y1387573D1*
X1518087Y1385801D1*
X1509072Y1384734D1*
X1500000Y1384378D1*
X1490928Y1384734D1*
X1481913Y1385801D1*
X1473009Y1387573D1*
X1464271Y1390037D1*
X1455753Y1393179D1*
X1447509Y1396980D1*
X1439588Y1401416D1*
X1432039Y1406460D1*
X1424909Y1412080D1*
X1418243Y1418243D1*
X1412080Y1424909D1*
X1406460Y1432039D1*
X1401416Y1439588D1*
X1396980Y1447509D1*
X1393179Y1455753D1*
X1390037Y1464271D1*
X1387573Y1473009D1*
X1385801Y1481913D1*
X1384734Y1490928D1*
X1384378Y1500000D1*
X1384734Y1509072D1*
X1385801Y1518087D1*
X1387573Y1526991D1*
X1390037Y1535729D1*
X1393179Y1544247D1*
X1396980Y1552491D1*
X1401416Y1560412D1*
X1406460Y1567961D1*
X1412080Y1575091D1*
X1418243Y1581757D1*
X1424909Y1587920D1*
X1432039Y1593540D1*
X1439588Y1598584D1*
X1447509Y1603020D1*
X1455753Y1606821D1*
X1464271Y1609963D1*
X1473009Y1612427D1*
X1481913Y1614199D1*
X1490928Y1615266D1*
X1500000Y1615622D1*
X1509072Y1615266D1*
X1518087Y1614199D1*
X1525496Y1612725D1*
X1512828Y1625083D1*
X1365279Y1625217D1*
X1358518Y1626288D1*
X1352009Y1628403D1*
X1345910Y1631510D1*
X1340373Y1635533D1*
X1311875Y1663841D1*
X1235533Y1740373D1*
X1231510Y1745910D1*
X1228403Y1752009D1*
X1226288Y1758518D1*
X1225217Y1765279D1*
X1225083Y1805446D1*
X1225217Y1897123D1*
X1226288Y1903883D1*
X1228403Y1910393D1*
X1231510Y1916491D1*
X1235533Y1922028D1*
X1263841Y1950526D1*
X1277873Y1964368D1*
X1283410Y1968391D1*
X1289509Y1971499D1*
X1296018Y1973614D1*
X1302779Y1974684D1*
X1316356Y1974819D1*
X1310125Y1978739D1*
X1303309Y1984560D1*
X1297488Y1991376D1*
X1292805Y1999019D1*
X1289374Y2007300D1*
X1287282Y2016016D1*
X1286579Y2024951D1*
X1287282Y2033887D1*
X1289374Y2042603D1*
X1292805Y2050884D1*
X1297488Y2058527D1*
X1303309Y2065343D1*
X1310125Y2071164D1*
X1318198Y2076046D1*
X1313645Y2082424D1*
X1309575Y2090411D1*
X1308356Y2093715D1*
X1232578Y2093650D1*
X1235527Y2086352D1*
X1237620Y2077637D1*
X1238323Y2068701D1*
X1237620Y2059765D1*
X1235527Y2051049D1*
X1232097Y2042768D1*
X1227413Y2035125D1*
X1221592Y2028309D1*
X1214776Y2022488D1*
X1207134Y2017805D1*
X1198852Y2014374D1*
X1194991Y2013285D1*
X1180050Y1998348D1*
X1180056Y1294588D1*
X1219644Y1255036D1*
X1325352Y1255049D1*
X1322374Y1260447D1*
X1319510Y1266660D1*
X1317142Y1273078D1*
X1315285Y1279662D1*
X1313951Y1286371D1*
X1313147Y1293164D1*
X1312878Y1300000D1*
X1313147Y1306836D1*
X1313951Y1313629D1*
X1315285Y1320338D1*
X1317142Y1326922D1*
X1319510Y1333340D1*
X1322374Y1339553D1*
X1325716Y1345521D1*
X1329517Y1351209D1*
X1333752Y1356581D1*
X1338395Y1361605D1*
X1343419Y1366248D1*
X1348791Y1370483D1*
X1354479Y1374284D1*
X1360447Y1377626D1*
X1366660Y1380490D1*
X1373078Y1382858D1*
X1379662Y1384715D1*
X1386371Y1386049D1*
X1393164Y1386853D1*
X1400000Y1387122D1*
X1406836Y1386853D1*
X1413629Y1386049D1*
X1420338Y1384715D1*
X1426922Y1382858D1*
X1433340Y1380490D1*
X1439553Y1377626D1*
X1445521Y1374284D1*
X1451209Y1370483D1*
X1456581Y1366248D1*
X1461605Y1361605D1*
X1466248Y1356581D1*
X1470483Y1351209D1*
X1474284Y1345521D1*
X1477626Y1339553D1*
X1480490Y1333340D1*
X1482858Y1326922D1*
X1484715Y1320338D1*
X1486049Y1313629D1*
X1486853Y1306836D1*
X1487122Y1300000D1*
X1486853Y1293164D1*
X1486049Y1286371D1*
X1484715Y1279662D1*
X1482858Y1273078D1*
X1480490Y1266660D1*
X1477626Y1260447D1*
X1474610Y1255062D1*
X2075403Y1255049D1*
X2072374Y1260447D1*
X2069510Y1266660D1*
X2067142Y1273078D1*
X2065285Y1279662D1*
X2063951Y1286371D1*
X2063147Y1293164D1*
X2062878Y1300000D1*
X2063147Y1306836D1*
X2063951Y1313629D1*
X2065285Y1320338D1*
X2067142Y1326922D1*
X2069510Y1333340D1*
X2072374Y1339553D1*
X2075716Y1345521D1*
X2079517Y1351209D1*
X2083752Y1356581D1*
X2088395Y1361605D1*
X2093419Y1366248D1*
X2098791Y1370483D1*
X2104479Y1374284D1*
X2110447Y1377626D1*
X2116660Y1380490D1*
X2123078Y1382858D1*
X2129662Y1384715D1*
X2136371Y1386049D1*
X2143164Y1386853D1*
X2150000Y1387122D1*
X2156836Y1386853D1*
X2163629Y1386049D1*
X2170338Y1384715D1*
X2176922Y1382858D1*
X2183340Y1380490D1*
X2189553Y1377626D1*
X2195521Y1374284D1*
X2201209Y1370483D1*
X2206581Y1366248D1*
X2211605Y1361605D1*
X2216248Y1356581D1*
X2220483Y1351209D1*
X2224284Y1345521D1*
X2227626Y1339553D1*
X2230490Y1333340D1*
X2232858Y1326922D1*
X2234715Y1320338D1*
X2236049Y1313629D1*
X2236853Y1306836D1*
X2237122Y1300000D1*
X2236853Y1293164D1*
X2236049Y1286371D1*
X2234715Y1279662D1*
X2232858Y1273078D1*
X2230490Y1266660D1*
X2227626Y1260447D1*
X2224610Y1255062D1*
X2825382Y1255049D1*
X2822374Y1260447D1*
X2819510Y1266660D1*
X2817142Y1273078D1*
X2815285Y1279662D1*
X2813951Y1286371D1*
X2813147Y1293164D1*
X2812878Y1300000D1*
X2813147Y1306836D1*
X2813951Y1313629D1*
X2815285Y1320338D1*
X2817142Y1326922D1*
X2819510Y1333340D1*
X2822374Y1339553D1*
X2825716Y1345521D1*
X2829517Y1351209D1*
X2833752Y1356581D1*
X2838395Y1361605D1*
X2843419Y1366248D1*
X2848791Y1370483D1*
X2854479Y1374284D1*
X2860447Y1377626D1*
X2866660Y1380490D1*
X2873078Y1382858D1*
X2879662Y1384715D1*
X2886371Y1386049D1*
X2893164Y1386853D1*
X2900000Y1387122D1*
X2906836Y1386853D1*
X2913629Y1386049D1*
X2920338Y1384715D1*
X2926922Y1382858D1*
X2933340Y1380490D1*
X2939553Y1377626D1*
X2945521Y1374284D1*
X2951209Y1370483D1*
X2956581Y1366248D1*
X2961605Y1361605D1*
X2966248Y1356581D1*
X2970483Y1351209D1*
X2974284Y1345521D1*
X2977626Y1339553D1*
X2980490Y1333340D1*
X2982858Y1326922D1*
X2984715Y1320338D1*
X2986049Y1313629D1*
X2986853Y1306836D1*
X2987122Y1300000D1*
X2986853Y1293164D1*
X2986049Y1286371D1*
X2984715Y1279662D1*
X2982858Y1273078D1*
X2980490Y1266660D1*
X2977626Y1260447D1*
X2974610Y1255062D1*
X3029420Y1255049D1*
X3101063Y1326709D1*
X3098791Y1329517D1*
X3093419Y1333752D1*
X3088395Y1338395D1*
X3083752Y1343419D1*
X3079517Y1348791D1*
X3075716Y1354479D1*
X3072374Y1360447D1*
X3069510Y1366660D1*
X3067142Y1373078D1*
X3065285Y1379662D1*
X3063951Y1386371D1*
X3063147Y1393164D1*
X3062999Y1403071D1*
X3052491Y1396980D1*
X3044247Y1393179D1*
X3035729Y1390037D1*
X3026991Y1387573D1*
X3018087Y1385801D1*
X3009072Y1384734D1*
X3000000Y1384378D1*
X2990928Y1384734D1*
X2981913Y1385801D1*
X2973009Y1387573D1*
X2964271Y1390037D1*
X2955753Y1393179D1*
X2947509Y1396980D1*
X2939588Y1401416D1*
X2932039Y1406460D1*
X2924909Y1412080D1*
X2918243Y1418243D1*
X2912080Y1424909D1*
X2906460Y1432039D1*
X2901416Y1439588D1*
X2896980Y1447509D1*
X2893179Y1455753D1*
X2890037Y1464271D1*
X2887573Y1473009D1*
X2885801Y1481913D1*
X2884734Y1490928D1*
X2884378Y1500000D1*
X2884734Y1509072D1*
X2885801Y1518087D1*
X2887573Y1526991D1*
X2890037Y1535729D1*
X2893179Y1544247D1*
X2896980Y1552491D1*
X2901416Y1560412D1*
X2906460Y1567961D1*
X2912080Y1575091D1*
X2918243Y1581757D1*
X2924909Y1587920D1*
X2932039Y1593540D1*
X2939588Y1598584D1*
X2947509Y1603020D1*
X2955753Y1606821D1*
X2964271Y1609963D1*
X2973009Y1612427D1*
X2981913Y1614199D1*
X2990928Y1615266D1*
X3000000Y1615622D1*
X3009072Y1615266D1*
X3018087Y1614199D1*
X3026991Y1612427D1*
X3035729Y1609963D1*
X3044247Y1606821D1*
X3052491Y1603020D1*
X3060412Y1598584D1*
X3067961Y1593540D1*
X3075091Y1587920D1*
X3081757Y1581757D1*
X3087920Y1575091D1*
X3093540Y1567961D1*
X3098584Y1560412D1*
X3103020Y1552491D1*
X3106821Y1544247D1*
X3109963Y1535729D1*
X3112427Y1526991D1*
X3114199Y1518087D1*
X3115266Y1509072D1*
X3115622Y1500000D1*
X3115266Y1490928D1*
X3113652Y1479165D1*
X3123078Y1482858D1*
X3130998Y1484981D1*
X3129596Y1494459D1*
Y1505541D1*
X3131329Y1516486D1*
X3134754Y1527026D1*
X3139785Y1536900D1*
X3146299Y1545865D1*
X3154135Y1553701D1*
X3163100Y1560215D1*
X3172974Y1565246D1*
X3183514Y1568671D1*
X3194459Y1570404D1*
X3205541D1*
X3216486Y1568671D1*
X3227026Y1565246D1*
X3236900Y1560215D1*
X3245865Y1553701D1*
X3253701Y1545865D1*
X3260215Y1536900D1*
X3265246Y1527026D1*
X3268671Y1516486D1*
X3270404Y1505541D1*
Y1494459D1*
X3268671Y1483514D1*
X3265246Y1472974D1*
X3260215Y1463100D1*
X3253701Y1454135D1*
X3245865Y1446299D1*
X3236900Y1439785D1*
X3229406Y1435851D1*
X3232858Y1426922D1*
X3234715Y1420338D1*
X3236049Y1413629D1*
X3236853Y1406836D1*
X3237122Y1400000D1*
X3236853Y1393164D1*
X3236049Y1386371D1*
X3234715Y1379662D1*
X3232858Y1373078D1*
X3230490Y1366660D1*
X3227626Y1360447D1*
X3224284Y1354479D1*
X3220483Y1348791D1*
X3216248Y1343419D1*
X3211605Y1338395D1*
X3206581Y1333752D1*
X3198921Y1327988D1*
X3198782Y1302604D1*
X3197581Y1295020D1*
X3195208Y1287718D1*
X3191722Y1280876D1*
X3187209Y1274664D1*
X3165114Y1252355D1*
X3092823Y1180065D1*
X3451397Y1180057D1*
X3459017Y1183897D1*
X3467542Y1186667D1*
X3476395Y1188069D1*
X3485358D1*
X3494212Y1186667D1*
X3502736Y1183897D1*
X3510723Y1179828D1*
X3517974Y1174559D1*
X3524313Y1168221D1*
X3529581Y1160970D1*
X3533651Y1152983D1*
X3536420Y1144458D1*
X3537823Y1135605D1*
Y1126642D1*
X3536420Y1117788D1*
X3533651Y1109264D1*
X3529581Y1101277D1*
X3524313Y1094026D1*
X3517974Y1087687D1*
X3510723Y1082419D1*
X3502736Y1078349D1*
X3494212Y1075580D1*
X3485358Y1074177D1*
X3476395D1*
X3467542Y1075580D1*
X3459017Y1078349D1*
X3451443Y1082188D1*
X2754186Y1082190D1*
X2746566Y1078349D1*
X2738041Y1075580D1*
X2729188Y1074177D1*
X2720224D1*
X2711371Y1075580D1*
X2702846Y1078349D1*
X2695273Y1082188D1*
X2285448Y1082190D1*
X2277865Y1078349D1*
X2269340Y1075580D1*
X2260487Y1074177D1*
X2251524D1*
X2242670Y1075580D1*
X2234146Y1078349D1*
X2226572Y1082188D1*
X1254298Y1082190D1*
X1246723Y1078349D1*
X1238198Y1075580D1*
X1229345Y1074177D1*
X1220382D1*
X1211529Y1075580D1*
X1203004Y1078349D1*
X1195430Y1082188D1*
X598146Y1082190D1*
X590542Y1078349D1*
X582017Y1075580D1*
X573164Y1074177D1*
X564201D1*
X555348Y1075580D1*
X546823Y1078349D1*
X538836Y1082419D1*
X531585Y1087687D1*
X525246Y1094026D1*
X519978Y1101277D1*
X515909Y1109264D1*
X513139Y1117788D1*
X511736Y1126642D1*
Y1135605D1*
X513139Y1144458D1*
X515909Y1152983D1*
X519978Y1160970D1*
X525246Y1168221D1*
X531585Y1174559D1*
X538836Y1179828D1*
X546823Y1183897D1*
X555348Y1186667D1*
X564201Y1188069D1*
X573164D1*
X582017Y1186667D1*
X590542Y1183897D1*
X598116Y1180059D1*
X1156214Y1180057D1*
X1093914Y1242575D1*
X1089401Y1248787D1*
X1085915Y1255628D1*
X1083542Y1262931D1*
X1082341Y1270515D1*
X1082190Y1301913D1*
X1082341Y2022463D1*
X1083542Y2030047D1*
X1085915Y2037349D1*
X1089401Y2044191D1*
X1093914Y2050403D1*
X1116010Y2072711D1*
X1125779Y2082480D1*
X1128427Y2090560D1*
X1129857Y2093663D1*
X740242Y2093784D1*
X733482Y2094855D1*
X726972Y2096970D1*
X720874Y2100077D1*
X715336Y2104100D1*
X686838Y2132408D1*
X436044Y2383393D1*
X432021Y2388930D1*
X428913Y2395029D1*
X426798Y2401538D1*
X425728Y2408298D1*
X425593Y2448466D1*
X425728Y2791384D1*
X426798Y2798144D1*
X428913Y2804654D1*
X432021Y2810752D1*
X436044Y2816290D1*
X452248Y2832684D1*
X452257Y2842681D1*
X453893Y2853010D1*
X457125Y2862957D1*
X461873Y2872276D1*
X468020Y2880737D1*
X474650Y2887425D1*
X468020Y2894166D1*
X461873Y2902627D1*
X457125Y2911946D1*
X453893Y2921892D1*
X452257Y2932222D1*
Y2942681D1*
X453893Y2953010D1*
X457125Y2962957D1*
X461873Y2972276D1*
X468020Y2980737D1*
X475415Y2988132D1*
X483876Y2994280D1*
X493195Y2999028D1*
X503142Y3002260D1*
X513472Y3003896D1*
X523930D1*
X534260Y3002260D1*
X544206Y2999028D1*
X552045Y2995109D1*
X552051Y3004101D1*
X685351D1*
Y2870802D1*
X684244Y2870619D1*
X712742Y2842311D1*
X720588Y2834275D1*
X724611Y2828738D1*
X727718Y2822639D1*
X729833Y2816130D1*
X730904Y2809370D1*
X731038Y2769202D1*
X731254Y2348849D1*
X812031Y2268377D1*
X994431D1*
X989076Y2270858D1*
X983566Y2273944D1*
X978315Y2277452D1*
X973356Y2281362D1*
X968719Y2285649D1*
X964432Y2290286D1*
X960522Y2295246D1*
X957013Y2300497D1*
X953928Y2306007D1*
X951284Y2311742D1*
X949098Y2317667D1*
X947384Y2323745D1*
X946152Y2329939D1*
X945409Y2336211D1*
X945161Y2342521D1*
X945409Y2348831D1*
X946152Y2355103D1*
X947384Y2361297D1*
X949098Y2367375D1*
X951284Y2373300D1*
X953928Y2379035D1*
X957013Y2384545D1*
X960522Y2389796D1*
X964432Y2394756D1*
X968719Y2399393D1*
X973356Y2403680D1*
X978315Y2407590D1*
X983566Y2411098D1*
X989076Y2414184D1*
X994812Y2416828D1*
X1000737Y2419014D1*
X1006815Y2420728D1*
X1013009Y2421960D1*
X1019280Y2422702D1*
X1025591Y2422950D1*
X1031901Y2422702D1*
X1038172Y2421960D1*
X1044366Y2420728D1*
X1050445Y2419014D1*
X1056369Y2416828D1*
X1062514Y2413955D1*
X1062508Y2737899D1*
X992423Y2808160D1*
X988400Y2813698D1*
X985293Y2819796D1*
X983177Y2826306D1*
X982107Y2833066D1*
X981972Y2845782D1*
X973356Y2852228D1*
X968719Y2856515D1*
X964432Y2861153D1*
X960522Y2866112D1*
X957013Y2871363D1*
X953928Y2876873D1*
X951284Y2882608D1*
X949098Y2888533D1*
X947384Y2894611D1*
X946152Y2900805D1*
X945409Y2907077D1*
X945161Y2913387D1*
X945409Y2919698D1*
X946152Y2925969D1*
X947384Y2932163D1*
X949098Y2938241D1*
X951284Y2944166D1*
X953928Y2949901D1*
X957013Y2955411D1*
X960522Y2960662D1*
X964432Y2965622D1*
X968719Y2970259D1*
X973356Y2974546D1*
X978315Y2978456D1*
X983566Y2981964D1*
X989076Y2985050D1*
X994812Y2987694D1*
X1000737Y2989880D1*
X1006815Y2991594D1*
X1013009Y2992826D1*
X1019280Y2993568D1*
X1025591Y2993816D1*
X1031901Y2993568D1*
X1038172Y2992826D1*
X1044366Y2991594D1*
X1050445Y2989880D1*
X1056369Y2987694D1*
X1062105Y2985050D1*
X1067615Y2981964D1*
X1072866Y2978456D1*
X1077825Y2974546D1*
X1082463Y2970259D1*
X1086749Y2965622D1*
X1090659Y2960662D1*
X1094168Y2955411D1*
X1097253Y2949901D1*
X1099897Y2944166D1*
X1102083Y2938241D1*
X1103797Y2932163D1*
X1105029Y2925969D1*
X1105772Y2919698D1*
X1106020Y2913387D1*
X1105772Y2907077D1*
X3772313Y3066471D2*
X3771243Y3057428D1*
X3769466Y3048496D1*
X3766994Y3039732D1*
X3763842Y3031188D1*
X3760030Y3022918D1*
X3755580Y3014973D1*
X3750521Y3007401D1*
X3744883Y3000249D1*
X3738702Y2993562D1*
X3732014Y2987381D1*
X3724863Y2981743D1*
X3717291Y2976684D1*
X3709346Y2972234D1*
X3701076Y2968421D1*
X3692532Y2965270D1*
X3683767Y2962798D1*
X3674836Y2961021D1*
X3665792Y2959951D1*
X3656693Y2959593D1*
X3647593Y2959951D1*
X3638550Y2961021D1*
X3629618Y2962798D1*
X3620854Y2965270D1*
X3612310Y2968421D1*
X3604040Y2972234D1*
X3596095Y2976684D1*
X3588523Y2981743D1*
X3581371Y2987381D1*
X3574684Y2993562D1*
X3568503Y3000249D1*
X3562865Y3007401D1*
X3557806Y3014973D1*
X3553356Y3022918D1*
X3549543Y3031188D1*
X3546392Y3039732D1*
X3543920Y3048496D1*
X3542143Y3057428D1*
X3541073Y3066471D1*
X3540715Y3075571D1*
X3541073Y3084670D1*
X3542143Y3093714D1*
X3543920Y3102645D1*
X3546392Y3111410D1*
X3549543Y3119954D1*
X3553356Y3128224D1*
X3557806Y3136169D1*
X3562865Y3143741D1*
X3568503Y3150892D1*
X3574684Y3157579D1*
X3581371Y3163761D1*
X3588523Y3169399D1*
X3596095Y3174458D1*
X3604040Y3178908D1*
X3612310Y3182720D1*
X3620854Y3185872D1*
X3629618Y3188344D1*
X3638550Y3190121D1*
X3647593Y3191191D1*
X3656693Y3191549D1*
X3665792Y3191191D1*
X3674836Y3190121D1*
X3683767Y3188344D1*
X3692532Y3185872D1*
X3701076Y3182720D1*
X3709346Y3178908D1*
X3717291Y3174458D1*
X3724863Y3169399D1*
X3732014Y3163761D1*
X3738702Y3157579D1*
X3744883Y3150892D1*
X3750521Y3143741D1*
X3755580Y3136169D1*
X3760030Y3128224D1*
X3763842Y3119954D1*
X3766994Y3111410D1*
X3769466Y3102645D1*
X3771243Y3093714D1*
X3772313Y3084670D1*
X3772671Y3075571D1*
X3772313Y3066471D1*
X575080Y2429956D2*
X567648Y2437389D1*
X561457Y2445910D1*
X556675Y2455295D1*
X553420Y2465312D1*
X551773Y2475715D1*
Y2486248D1*
X553420Y2496651D1*
X556675Y2506668D1*
X561457Y2516053D1*
X567648Y2524574D1*
X575095Y2532022D1*
X583616Y2538213D1*
X593001Y2542994D1*
X603018Y2546249D1*
X613421Y2547897D1*
X623954D1*
X634357Y2546249D1*
X643814Y2543201D1*
X643802Y2675737D1*
X634260Y2672643D1*
X623930Y2671007D1*
X613472D1*
X603142Y2672643D1*
X593195Y2675875D1*
X583876Y2680623D1*
X575415Y2686771D1*
X568020Y2694166D1*
X561873Y2702627D1*
X557125Y2711946D1*
X553893Y2721892D1*
X552257Y2732222D1*
Y2742681D1*
X553893Y2753010D1*
X557125Y2762957D1*
X561873Y2772276D1*
X568020Y2780737D1*
X574650Y2787425D1*
X568728Y2793400D1*
X561986Y2786771D1*
X553525Y2780623D1*
X544206Y2775875D1*
X534260Y2772643D1*
X523930Y2771007D1*
X513941Y2770989D1*
X512829Y2769589D1*
X513045Y2429572D1*
X575070Y2367732D1*
Y2429991D1*
X3236853Y2143164D2*
X3236049Y2136371D1*
X3234715Y2129662D1*
X3232858Y2123078D1*
X3230490Y2116660D1*
X3227626Y2110447D1*
X3224284Y2104479D1*
X3220483Y2098791D1*
X3216248Y2093419D1*
X3211605Y2088395D1*
X3206581Y2083752D1*
X3201209Y2079517D1*
X3195521Y2075716D1*
X3189553Y2072374D1*
X3183340Y2069510D1*
X3176922Y2067142D1*
X3170338Y2065285D1*
X3163629Y2063951D1*
X3156836Y2063147D1*
X3150000Y2062878D1*
X3143164Y2063147D1*
X3136371Y2063951D1*
X3129662Y2065285D1*
X3123078Y2067142D1*
X3116660Y2069510D1*
X3110447Y2072374D1*
X3104479Y2075716D1*
X3098791Y2079517D1*
X3093419Y2083752D1*
X3088395Y2088395D1*
X3083752Y2093419D1*
X3079517Y2098791D1*
X3075716Y2104479D1*
X3072374Y2110447D1*
X3069510Y2116660D1*
X3067142Y2123078D1*
X3065285Y2129662D1*
X3063951Y2136371D1*
X3063147Y2143164D1*
X3062999Y2153071D1*
X3052491Y2146980D1*
X3044247Y2143179D1*
X3035729Y2140037D1*
X3026991Y2137573D1*
X3018087Y2135801D1*
X3009072Y2134734D1*
X3000000Y2134378D1*
X2990928Y2134734D1*
X2981913Y2135801D1*
X2973009Y2137573D1*
X2964271Y2140037D1*
X2955753Y2143179D1*
X2947509Y2146980D1*
X2939588Y2151416D1*
X2932039Y2156460D1*
X2924909Y2162080D1*
X2918243Y2168243D1*
X2912080Y2174909D1*
X2906460Y2182039D1*
X2901416Y2189588D1*
X2896980Y2197509D1*
X2893179Y2205753D1*
X2890037Y2214271D1*
X2887573Y2223009D1*
X2885801Y2231913D1*
X2884734Y2240928D1*
X2884378Y2250000D1*
X2884734Y2259072D1*
X2885801Y2268087D1*
X2887573Y2276991D1*
X2890037Y2285729D1*
X2893179Y2294247D1*
X2896980Y2302491D1*
X2901416Y2310412D1*
X2906460Y2317961D1*
X2912080Y2325091D1*
X2918243Y2331757D1*
X2924909Y2337920D1*
X2932039Y2343540D1*
X2939588Y2348584D1*
X2947509Y2353020D1*
X2955753Y2356821D1*
X2964271Y2359963D1*
X2973009Y2362427D1*
X2981913Y2364199D1*
X2990928Y2365266D1*
X3000000Y2365622D1*
X3009072Y2365266D1*
X3018087Y2364199D1*
X3026991Y2362427D1*
X3035729Y2359963D1*
X3044247Y2356821D1*
X3052491Y2353020D1*
X3060412Y2348584D1*
X3067961Y2343540D1*
X3075091Y2337920D1*
X3081757Y2331757D1*
X3087920Y2325091D1*
X3093540Y2317961D1*
X3098584Y2310412D1*
X3103020Y2302491D1*
X3106821Y2294247D1*
X3109963Y2285729D1*
X3112427Y2276991D1*
X3114199Y2268087D1*
X3115266Y2259072D1*
X3115622Y2250000D1*
X3115266Y2240928D1*
X3113652Y2229165D1*
X3123078Y2232858D1*
X3130998Y2234981D1*
X3129596Y2244459D1*
Y2255541D1*
X3131329Y2266486D1*
X3134754Y2277026D1*
X3139785Y2286900D1*
X3146299Y2295865D1*
X3154135Y2303701D1*
X3163100Y2310215D1*
X3172974Y2315246D1*
X3183514Y2318671D1*
X3194459Y2320404D1*
X3205541D1*
X3216486Y2318671D1*
X3227026Y2315246D1*
X3236900Y2310215D1*
X3245865Y2303701D1*
X3253701Y2295865D1*
X3260215Y2286900D1*
X3265246Y2277026D1*
X3268671Y2266486D1*
X3270404Y2255541D1*
Y2244459D1*
X3268671Y2233514D1*
X3265246Y2222974D1*
X3260215Y2213100D1*
X3253701Y2204135D1*
X3245865Y2196299D1*
X3236900Y2189785D1*
X3229406Y2185851D1*
X3232858Y2176922D1*
X3234715Y2170338D1*
X3236049Y2163629D1*
X3236853Y2156836D1*
X3237122Y2150000D1*
X3236853Y2143164D1*
X2986853Y2043164D2*
X2986049Y2036371D1*
X2984715Y2029662D1*
X2982858Y2023078D1*
X2980490Y2016660D1*
X2977626Y2010447D1*
X2974284Y2004479D1*
X2970483Y1998791D1*
X2966248Y1993419D1*
X2961605Y1988395D1*
X2956581Y1983752D1*
X2951209Y1979517D1*
X2945521Y1975716D1*
X2939553Y1972374D1*
X2933340Y1969510D1*
X2926922Y1967142D1*
X2920338Y1965285D1*
X2913629Y1963951D1*
X2906836Y1963147D1*
X2900000Y1962878D1*
X2893164Y1963147D1*
X2886371Y1963951D1*
X2879662Y1965285D1*
X2873078Y1967142D1*
X2866660Y1969510D1*
X2860447Y1972374D1*
X2854479Y1975716D1*
X2848791Y1979517D1*
X2843419Y1983752D1*
X2838395Y1988395D1*
X2833752Y1993419D1*
X2829517Y1998791D1*
X2825716Y2004479D1*
X2822374Y2010447D1*
X2819510Y2016660D1*
X2817142Y2023078D1*
X2815285Y2029662D1*
X2813951Y2036371D1*
X2813147Y2043164D1*
X2812878Y2050000D1*
X2813147Y2056836D1*
X2813951Y2063629D1*
X2815285Y2070338D1*
X2817142Y2076922D1*
X2819510Y2083340D1*
X2822374Y2089553D1*
X2825716Y2095521D1*
X2829517Y2101209D1*
X2833752Y2106581D1*
X2838395Y2111605D1*
X2843419Y2116248D1*
X2848791Y2120483D1*
X2854479Y2124284D1*
X2860447Y2127626D1*
X2866660Y2130490D1*
X2873078Y2132858D1*
X2879662Y2134715D1*
X2886371Y2136049D1*
X2893164Y2136853D1*
X2900000Y2137122D1*
X2906836Y2136853D1*
X2913629Y2136049D1*
X2920338Y2134715D1*
X2926922Y2132858D1*
X2933340Y2130490D1*
X2939553Y2127626D1*
X2945521Y2124284D1*
X2951209Y2120483D1*
X2956581Y2116248D1*
X2961605Y2111605D1*
X2966248Y2106581D1*
X2970483Y2101209D1*
X2974284Y2095521D1*
X2977626Y2089553D1*
X2980490Y2083340D1*
X2982858Y2076922D1*
X2984715Y2070338D1*
X2986049Y2063629D1*
X2986853Y2056836D1*
X2987122Y2050000D1*
X2986853Y2043164D1*
X2870404Y2244459D2*
X2868671Y2233514D1*
X2865246Y2222974D1*
X2860215Y2213100D1*
X2853701Y2204135D1*
X2845865Y2196299D1*
X2836900Y2189785D1*
X2827026Y2184754D1*
X2816486Y2181329D1*
X2805541Y2179596D1*
X2794459D1*
X2783514Y2181329D1*
X2772974Y2184754D1*
X2763100Y2189785D1*
X2754135Y2196299D1*
X2746299Y2204135D1*
X2739785Y2213100D1*
X2734754Y2222974D1*
X2731329Y2233514D1*
X2729596Y2244459D1*
Y2255541D1*
X2731329Y2266486D1*
X2734754Y2277026D1*
X2739785Y2286900D1*
X2746299Y2295865D1*
X2754135Y2303701D1*
X2763100Y2310215D1*
X2772974Y2315246D1*
X2783514Y2318671D1*
X2794459Y2320404D1*
X2805541D1*
X2816486Y2318671D1*
X2827026Y2315246D1*
X2836900Y2310215D1*
X2845865Y2303701D1*
X2853701Y2295865D1*
X2860215Y2286900D1*
X2865246Y2277026D1*
X2868671Y2266486D1*
X2870404Y2255541D1*
Y2244459D1*
X3986853Y2143164D2*
X3986049Y2136371D1*
X3984715Y2129662D1*
X3982858Y2123078D1*
X3980490Y2116660D1*
X3977626Y2110447D1*
X3974284Y2104479D1*
X3970483Y2098791D1*
X3966248Y2093419D1*
X3961605Y2088395D1*
X3956581Y2083752D1*
X3951209Y2079517D1*
X3945521Y2075716D1*
X3939553Y2072374D1*
X3933340Y2069510D1*
X3926922Y2067142D1*
X3920338Y2065285D1*
X3913629Y2063951D1*
X3906836Y2063147D1*
X3900000Y2062878D1*
X3893164Y2063147D1*
X3886371Y2063951D1*
X3879662Y2065285D1*
X3873078Y2067142D1*
X3866660Y2069510D1*
X3860447Y2072374D1*
X3854479Y2075716D1*
X3848791Y2079517D1*
X3843419Y2083752D1*
X3838395Y2088395D1*
X3833752Y2093419D1*
X3829517Y2098791D1*
X3825716Y2104479D1*
X3822374Y2110447D1*
X3819510Y2116660D1*
X3817142Y2123078D1*
X3815285Y2129662D1*
X3813951Y2136371D1*
X3813147Y2143164D1*
X3812999Y2153071D1*
X3802491Y2146980D1*
X3794247Y2143179D1*
X3785729Y2140037D1*
X3776991Y2137573D1*
X3768087Y2135801D1*
X3759072Y2134734D1*
X3750000Y2134378D1*
X3740928Y2134734D1*
X3731913Y2135801D1*
X3723009Y2137573D1*
X3714271Y2140037D1*
X3705753Y2143179D1*
X3697509Y2146980D1*
X3689588Y2151416D1*
X3682039Y2156460D1*
X3674909Y2162080D1*
X3668243Y2168243D1*
X3662080Y2174909D1*
X3656460Y2182039D1*
X3651416Y2189588D1*
X3646980Y2197509D1*
X3643179Y2205753D1*
X3640037Y2214271D1*
X3637573Y2223009D1*
X3635801Y2231913D1*
X3634734Y2240928D1*
X3634378Y2250000D1*
X3634734Y2259072D1*
X3635801Y2268087D1*
X3637573Y2276991D1*
X3640037Y2285729D1*
X3643179Y2294247D1*
X3646980Y2302491D1*
X3651416Y2310412D1*
X3656460Y2317961D1*
X3662080Y2325091D1*
X3668243Y2331757D1*
X3674909Y2337920D1*
X3682039Y2343540D1*
X3689588Y2348584D1*
X3697509Y2353020D1*
X3705753Y2356821D1*
X3714271Y2359963D1*
X3723009Y2362427D1*
X3731913Y2364199D1*
X3740928Y2365266D1*
X3750000Y2365622D1*
X3759072Y2365266D1*
X3768087Y2364199D1*
X3776991Y2362427D1*
X3785729Y2359963D1*
X3794247Y2356821D1*
X3802491Y2353020D1*
X3810412Y2348584D1*
X3817961Y2343540D1*
X3825091Y2337920D1*
X3831757Y2331757D1*
X3837920Y2325091D1*
X3843540Y2317961D1*
X3848584Y2310412D1*
X3853020Y2302491D1*
X3856821Y2294247D1*
X3859963Y2285729D1*
X3862427Y2276991D1*
X3864199Y2268087D1*
X3865266Y2259072D1*
X3865622Y2250000D1*
X3865266Y2240928D1*
X3863652Y2229165D1*
X3873078Y2232858D1*
X3880998Y2234981D1*
X3879596Y2244459D1*
Y2255541D1*
X3881329Y2266486D1*
X3884754Y2277026D1*
X3889785Y2286900D1*
X3896299Y2295865D1*
X3904135Y2303701D1*
X3913100Y2310215D1*
X3922974Y2315246D1*
X3933514Y2318671D1*
X3944459Y2320404D1*
X3955541D1*
X3966486Y2318671D1*
X3977026Y2315246D1*
X3986900Y2310215D1*
X3995865Y2303701D1*
X4003701Y2295865D1*
X4010215Y2286900D1*
X4015246Y2277026D1*
X4018671Y2266486D1*
X4020404Y2255541D1*
Y2244459D1*
X4018671Y2233514D1*
X4015246Y2222974D1*
X4010215Y2213100D1*
X4003701Y2204135D1*
X3995865Y2196299D1*
X3986900Y2189785D1*
X3979406Y2185851D1*
X3982858Y2176922D1*
X3984715Y2170338D1*
X3986049Y2163629D1*
X3986853Y2156836D1*
X3987122Y2150000D1*
X3986853Y2143164D1*
X3736853Y2043164D2*
X3736049Y2036371D1*
X3734715Y2029662D1*
X3732858Y2023078D1*
X3730490Y2016660D1*
X3727626Y2010447D1*
X3724284Y2004479D1*
X3720483Y1998791D1*
X3716248Y1993419D1*
X3711605Y1988395D1*
X3706581Y1983752D1*
X3701209Y1979517D1*
X3695521Y1975716D1*
X3689553Y1972374D1*
X3683340Y1969510D1*
X3676922Y1967142D1*
X3670338Y1965285D1*
X3663629Y1963951D1*
X3656836Y1963147D1*
X3650000Y1962878D1*
X3643164Y1963147D1*
X3636371Y1963951D1*
X3629662Y1965285D1*
X3623078Y1967142D1*
X3616660Y1969510D1*
X3610447Y1972374D1*
X3604479Y1975716D1*
X3598791Y1979517D1*
X3593419Y1983752D1*
X3588395Y1988395D1*
X3583752Y1993419D1*
X3579517Y1998791D1*
X3575716Y2004479D1*
X3572374Y2010447D1*
X3569510Y2016660D1*
X3567142Y2023078D1*
X3565285Y2029662D1*
X3563951Y2036371D1*
X3563147Y2043164D1*
X3562878Y2050000D1*
X3563147Y2056836D1*
X3563951Y2063629D1*
X3565285Y2070338D1*
X3567142Y2076922D1*
X3569510Y2083340D1*
X3572374Y2089553D1*
X3575716Y2095521D1*
X3579517Y2101209D1*
X3583752Y2106581D1*
X3588395Y2111605D1*
X3593419Y2116248D1*
X3598791Y2120483D1*
X3604479Y2124284D1*
X3610447Y2127626D1*
X3616660Y2130490D1*
X3623078Y2132858D1*
X3629662Y2134715D1*
X3636371Y2136049D1*
X3643164Y2136853D1*
X3650000Y2137122D1*
X3656836Y2136853D1*
X3663629Y2136049D1*
X3670338Y2134715D1*
X3676922Y2132858D1*
X3683340Y2130490D1*
X3689553Y2127626D1*
X3695521Y2124284D1*
X3701209Y2120483D1*
X3706581Y2116248D1*
X3711605Y2111605D1*
X3716248Y2106581D1*
X3720483Y2101209D1*
X3724284Y2095521D1*
X3727626Y2089553D1*
X3730490Y2083340D1*
X3732858Y2076922D1*
X3734715Y2070338D1*
X3736049Y2063629D1*
X3736853Y2056836D1*
X3737122Y2050000D1*
X3736853Y2043164D1*
X3620404Y2244459D2*
X3618671Y2233514D1*
X3615246Y2222974D1*
X3610215Y2213100D1*
X3603701Y2204135D1*
X3595865Y2196299D1*
X3586900Y2189785D1*
X3577026Y2184754D1*
X3566486Y2181329D1*
X3555541Y2179596D1*
X3544459D1*
X3533514Y2181329D1*
X3522974Y2184754D1*
X3513100Y2189785D1*
X3504135Y2196299D1*
X3496299Y2204135D1*
X3489785Y2213100D1*
X3484754Y2222974D1*
X3481329Y2233514D1*
X3479596Y2244459D1*
Y2255541D1*
X3481329Y2266486D1*
X3484754Y2277026D1*
X3489785Y2286900D1*
X3496299Y2295865D1*
X3504135Y2303701D1*
X3513100Y2310215D1*
X3522974Y2315246D1*
X3533514Y2318671D1*
X3544459Y2320404D1*
X3555541D1*
X3566486Y2318671D1*
X3577026Y2315246D1*
X3586900Y2310215D1*
X3595865Y2303701D1*
X3603701Y2295865D1*
X3610215Y2286900D1*
X3615246Y2277026D1*
X3618671Y2266486D1*
X3620404Y2255541D1*
Y2244459D1*
X986853Y1393164D2*
X986049Y1386371D1*
X984715Y1379662D1*
X982858Y1373078D1*
X980490Y1366660D1*
X977626Y1360447D1*
X974284Y1354479D1*
X970483Y1348791D1*
X966248Y1343419D1*
X961605Y1338395D1*
X956581Y1333752D1*
X951209Y1329517D1*
X945521Y1325716D1*
X939553Y1322374D1*
X933340Y1319510D1*
X926922Y1317142D1*
X920338Y1315285D1*
X913629Y1313951D1*
X906836Y1313147D1*
X900000Y1312878D1*
X893164Y1313147D1*
X886371Y1313951D1*
X879662Y1315285D1*
X873078Y1317142D1*
X866660Y1319510D1*
X860447Y1322374D1*
X854479Y1325716D1*
X848791Y1329517D1*
X843419Y1333752D1*
X838395Y1338395D1*
X833752Y1343419D1*
X829517Y1348791D1*
X825716Y1354479D1*
X822374Y1360447D1*
X819510Y1366660D1*
X817142Y1373078D1*
X815285Y1379662D1*
X813951Y1386371D1*
X813147Y1393164D1*
X812999Y1403071D1*
X802491Y1396980D1*
X794247Y1393179D1*
X785729Y1390037D1*
X776991Y1387573D1*
X768087Y1385801D1*
X759072Y1384734D1*
X750000Y1384378D1*
X740928Y1384734D1*
X731913Y1385801D1*
X723009Y1387573D1*
X714271Y1390037D1*
X705753Y1393179D1*
X697509Y1396980D1*
X689588Y1401416D1*
X682039Y1406460D1*
X674909Y1412080D1*
X668243Y1418243D1*
X662080Y1424909D1*
X656460Y1432039D1*
X651416Y1439588D1*
X646980Y1447509D1*
X643179Y1455753D1*
X640037Y1464271D1*
X637573Y1473009D1*
X635801Y1481913D1*
X634734Y1490928D1*
X634378Y1500000D1*
X634734Y1509072D1*
X635801Y1518087D1*
X637573Y1526991D1*
X640037Y1535729D1*
X643179Y1544247D1*
X646980Y1552491D1*
X651416Y1560412D1*
X656460Y1567961D1*
X662080Y1575091D1*
X668243Y1581757D1*
X674909Y1587920D1*
X682039Y1593540D1*
X689588Y1598584D1*
X697509Y1603020D1*
X705753Y1606821D1*
X714271Y1609963D1*
X723009Y1612427D1*
X731913Y1614199D1*
X740928Y1615266D1*
X750000Y1615622D1*
X759072Y1615266D1*
X768087Y1614199D1*
X776991Y1612427D1*
X785729Y1609963D1*
X794247Y1606821D1*
X802491Y1603020D1*
X810412Y1598584D1*
X817961Y1593540D1*
X825091Y1587920D1*
X831757Y1581757D1*
X837920Y1575091D1*
X843540Y1567961D1*
X848584Y1560412D1*
X853020Y1552491D1*
X856821Y1544247D1*
X859963Y1535729D1*
X862427Y1526991D1*
X864199Y1518087D1*
X865266Y1509072D1*
X865622Y1500000D1*
X865266Y1490928D1*
X863652Y1479165D1*
X873078Y1482858D1*
X880998Y1484981D1*
X879596Y1494459D1*
Y1505541D1*
X881329Y1516486D1*
X884754Y1527026D1*
X889785Y1536900D1*
X896299Y1545865D1*
X904135Y1553701D1*
X913100Y1560215D1*
X922974Y1565246D1*
X933514Y1568671D1*
X944459Y1570404D1*
X955541D1*
X966486Y1568671D1*
X977026Y1565246D1*
X986900Y1560215D1*
X995865Y1553701D1*
X1003701Y1545865D1*
X1010215Y1536900D1*
X1015246Y1527026D1*
X1018671Y1516486D1*
X1020404Y1505541D1*
Y1494459D1*
X1018671Y1483514D1*
X1015246Y1472974D1*
X1010215Y1463100D1*
X1003701Y1454135D1*
X995865Y1446299D1*
X986900Y1439785D1*
X979406Y1435851D1*
X982858Y1426922D1*
X984715Y1420338D1*
X986049Y1413629D1*
X986853Y1406836D1*
X987122Y1400000D1*
X986853Y1393164D1*
X736853Y1293164D2*
X736049Y1286371D1*
X734715Y1279662D1*
X732858Y1273078D1*
X730490Y1266660D1*
X727626Y1260447D1*
X724284Y1254479D1*
X720483Y1248791D1*
X716248Y1243419D1*
X711605Y1238395D1*
X706581Y1233752D1*
X701209Y1229517D1*
X695521Y1225716D1*
X689553Y1222374D1*
X683340Y1219510D1*
X676922Y1217142D1*
X670338Y1215285D1*
X663629Y1213951D1*
X656836Y1213147D1*
X650000Y1212878D1*
X643164Y1213147D1*
X636371Y1213951D1*
X629662Y1215285D1*
X623078Y1217142D1*
X616660Y1219510D1*
X610447Y1222374D1*
X604479Y1225716D1*
X598791Y1229517D1*
X593419Y1233752D1*
X588395Y1238395D1*
X583752Y1243419D1*
X579517Y1248791D1*
X575716Y1254479D1*
X572374Y1260447D1*
X569510Y1266660D1*
X567142Y1273078D1*
X565285Y1279662D1*
X563951Y1286371D1*
X563147Y1293164D1*
X562878Y1300000D1*
X563147Y1306836D1*
X563951Y1313629D1*
X565285Y1320338D1*
X567142Y1326922D1*
X569510Y1333340D1*
X572374Y1339553D1*
X575716Y1345521D1*
X579517Y1351209D1*
X583752Y1356581D1*
X588395Y1361605D1*
X593419Y1366248D1*
X598791Y1370483D1*
X604479Y1374284D1*
X610447Y1377626D1*
X616660Y1380490D1*
X623078Y1382858D1*
X629662Y1384715D1*
X636371Y1386049D1*
X643164Y1386853D1*
X650000Y1387122D1*
X656836Y1386853D1*
X663629Y1386049D1*
X670338Y1384715D1*
X676922Y1382858D1*
X683340Y1380490D1*
X689553Y1377626D1*
X695521Y1374284D1*
X701209Y1370483D1*
X706581Y1366248D1*
X711605Y1361605D1*
X716248Y1356581D1*
X720483Y1351209D1*
X724284Y1345521D1*
X727626Y1339553D1*
X730490Y1333340D1*
X732858Y1326922D1*
X734715Y1320338D1*
X736049Y1313629D1*
X736853Y1306836D1*
X737122Y1300000D1*
X736853Y1293164D1*
X620404Y1494459D2*
X618671Y1483514D1*
X615246Y1472974D1*
X610215Y1463100D1*
X603701Y1454135D1*
X595865Y1446299D1*
X586900Y1439785D1*
X577026Y1434754D1*
X566486Y1431329D1*
X555541Y1429596D1*
X544459D1*
X533514Y1431329D1*
X522974Y1434754D1*
X513100Y1439785D1*
X504135Y1446299D1*
X496299Y1454135D1*
X489785Y1463100D1*
X484754Y1472974D1*
X481329Y1483514D1*
X479596Y1494459D1*
Y1505541D1*
X481329Y1516486D1*
X484754Y1527026D1*
X489785Y1536900D1*
X496299Y1545865D1*
X504135Y1553701D1*
X513100Y1560215D1*
X522974Y1565246D1*
X533514Y1568671D1*
X544459Y1570404D1*
X555541D1*
X566486Y1568671D1*
X577026Y1565246D1*
X586900Y1560215D1*
X595865Y1553701D1*
X603701Y1545865D1*
X610215Y1536900D1*
X615246Y1527026D1*
X618671Y1516486D1*
X620404Y1505541D1*
Y1494459D1*
X1370404D2*
X1368671Y1483514D1*
X1365246Y1472974D1*
X1360215Y1463100D1*
X1353701Y1454135D1*
X1345865Y1446299D1*
X1336900Y1439785D1*
X1327026Y1434754D1*
X1316486Y1431329D1*
X1305541Y1429596D1*
X1294459D1*
X1283514Y1431329D1*
X1272974Y1434754D1*
X1263100Y1439785D1*
X1254135Y1446299D1*
X1246299Y1454135D1*
X1239785Y1463100D1*
X1234754Y1472974D1*
X1231329Y1483514D1*
X1229596Y1494459D1*
Y1505541D1*
X1231329Y1516486D1*
X1234754Y1527026D1*
X1239785Y1536900D1*
X1246299Y1545865D1*
X1254135Y1553701D1*
X1263100Y1560215D1*
X1272974Y1565246D1*
X1283514Y1568671D1*
X1294459Y1570404D1*
X1305541D1*
X1316486Y1568671D1*
X1327026Y1565246D1*
X1336900Y1560215D1*
X1345865Y1553701D1*
X1353701Y1545865D1*
X1360215Y1536900D1*
X1365246Y1527026D1*
X1368671Y1516486D1*
X1370404Y1505541D1*
Y1494459D1*
X2486853Y1393164D2*
X2486049Y1386371D1*
X2484715Y1379662D1*
X2482858Y1373078D1*
X2480490Y1366660D1*
X2477626Y1360447D1*
X2474284Y1354479D1*
X2470483Y1348791D1*
X2466248Y1343419D1*
X2461605Y1338395D1*
X2456581Y1333752D1*
X2451209Y1329517D1*
X2445521Y1325716D1*
X2439553Y1322374D1*
X2433340Y1319510D1*
X2426922Y1317142D1*
X2420338Y1315285D1*
X2413629Y1313951D1*
X2406836Y1313147D1*
X2400000Y1312878D1*
X2393164Y1313147D1*
X2386371Y1313951D1*
X2379662Y1315285D1*
X2373078Y1317142D1*
X2366660Y1319510D1*
X2360447Y1322374D1*
X2354479Y1325716D1*
X2348791Y1329517D1*
X2343419Y1333752D1*
X2338395Y1338395D1*
X2333752Y1343419D1*
X2329517Y1348791D1*
X2325716Y1354479D1*
X2322374Y1360447D1*
X2319510Y1366660D1*
X2317142Y1373078D1*
X2315285Y1379662D1*
X2313951Y1386371D1*
X2313147Y1393164D1*
X2312999Y1403071D1*
X2302491Y1396980D1*
X2294247Y1393179D1*
X2285729Y1390037D1*
X2276991Y1387573D1*
X2268087Y1385801D1*
X2259072Y1384734D1*
X2250000Y1384378D1*
X2240928Y1384734D1*
X2231913Y1385801D1*
X2223009Y1387573D1*
X2214271Y1390037D1*
X2205753Y1393179D1*
X2197509Y1396980D1*
X2189588Y1401416D1*
X2182039Y1406460D1*
X2174909Y1412080D1*
X2168243Y1418243D1*
X2162080Y1424909D1*
X2156460Y1432039D1*
X2151416Y1439588D1*
X2146980Y1447509D1*
X2143179Y1455753D1*
X2140037Y1464271D1*
X2137573Y1473009D1*
X2135801Y1481913D1*
X2134734Y1490928D1*
X2134378Y1500000D1*
X2134734Y1509072D1*
X2135801Y1518087D1*
X2137573Y1526991D1*
X2140037Y1535729D1*
X2143179Y1544247D1*
X2146980Y1552491D1*
X2151416Y1560412D1*
X2156460Y1567961D1*
X2162080Y1575091D1*
X2168243Y1581757D1*
X2174909Y1587920D1*
X2182039Y1593540D1*
X2189588Y1598584D1*
X2197509Y1603020D1*
X2205753Y1606821D1*
X2214271Y1609963D1*
X2223009Y1612427D1*
X2231913Y1614199D1*
X2240928Y1615266D1*
X2250000Y1615622D1*
X2259072Y1615266D1*
X2268087Y1614199D1*
X2276991Y1612427D1*
X2285729Y1609963D1*
X2294247Y1606821D1*
X2302491Y1603020D1*
X2310412Y1598584D1*
X2317961Y1593540D1*
X2325091Y1587920D1*
X2331757Y1581757D1*
X2337920Y1575091D1*
X2343540Y1567961D1*
X2348584Y1560412D1*
X2353020Y1552491D1*
X2356821Y1544247D1*
X2359963Y1535729D1*
X2362427Y1526991D1*
X2364199Y1518087D1*
X2365266Y1509072D1*
X2365622Y1500000D1*
X2365266Y1490928D1*
X2363652Y1479165D1*
X2373078Y1482858D1*
X2380998Y1484981D1*
X2379596Y1494459D1*
Y1505541D1*
X2381329Y1516486D1*
X2384754Y1527026D1*
X2389785Y1536900D1*
X2396299Y1545865D1*
X2404135Y1553701D1*
X2413100Y1560215D1*
X2422974Y1565246D1*
X2433514Y1568671D1*
X2444459Y1570404D1*
X2455541D1*
X2466486Y1568671D1*
X2477026Y1565246D1*
X2486900Y1560215D1*
X2495865Y1553701D1*
X2503701Y1545865D1*
X2510215Y1536900D1*
X2515246Y1527026D1*
X2518671Y1516486D1*
X2520404Y1505541D1*
Y1494459D1*
X2518671Y1483514D1*
X2515246Y1472974D1*
X2510215Y1463100D1*
X2503701Y1454135D1*
X2495865Y1446299D1*
X2486900Y1439785D1*
X2479406Y1435851D1*
X2482858Y1426922D1*
X2484715Y1420338D1*
X2486049Y1413629D1*
X2486853Y1406836D1*
X2487122Y1400000D1*
X2486853Y1393164D1*
X2120404Y1494459D2*
X2118671Y1483514D1*
X2115246Y1472974D1*
X2110215Y1463100D1*
X2103701Y1454135D1*
X2095865Y1446299D1*
X2086900Y1439785D1*
X2077026Y1434754D1*
X2066486Y1431329D1*
X2055541Y1429596D1*
X2044459D1*
X2033514Y1431329D1*
X2022974Y1434754D1*
X2013100Y1439785D1*
X2004135Y1446299D1*
X1996299Y1454135D1*
X1989785Y1463100D1*
X1984754Y1472974D1*
X1981329Y1483514D1*
X1979596Y1494459D1*
Y1505541D1*
X1981329Y1516486D1*
X1984754Y1527026D1*
X1989785Y1536900D1*
X1996299Y1545865D1*
X2004135Y1553701D1*
X2013100Y1560215D1*
X2022974Y1565246D1*
X2033514Y1568671D1*
X2044459Y1570404D1*
X2055541D1*
X2066486Y1568671D1*
X2077026Y1565246D1*
X2086900Y1560215D1*
X2095865Y1553701D1*
X2103701Y1545865D1*
X2110215Y1536900D1*
X2115246Y1527026D1*
X2118671Y1516486D1*
X2120404Y1505541D1*
Y1494459D1*
X2870404D2*
X2868671Y1483514D1*
X2865246Y1472974D1*
X2860215Y1463100D1*
X2853701Y1454135D1*
X2845865Y1446299D1*
X2836900Y1439785D1*
X2827026Y1434754D1*
X2816486Y1431329D1*
X2805541Y1429596D1*
X2794459D1*
X2783514Y1431329D1*
X2772974Y1434754D1*
X2763100Y1439785D1*
X2754135Y1446299D1*
X2746299Y1454135D1*
X2739785Y1463100D1*
X2734754Y1472974D1*
X2731329Y1483514D1*
X2729596Y1494459D1*
Y1505541D1*
X2731329Y1516486D1*
X2734754Y1527026D1*
X2739785Y1536900D1*
X2746299Y1545865D1*
X2754135Y1553701D1*
X2763100Y1560215D1*
X2772974Y1565246D1*
X2783514Y1568671D1*
X2794459Y1570404D1*
X2805541D1*
X2816486Y1568671D1*
X2827026Y1565246D1*
X2836900Y1560215D1*
X2845865Y1553701D1*
X2853701Y1545865D1*
X2860215Y1536900D1*
X2865246Y1527026D1*
X2868671Y1516486D1*
X2870404Y1505541D1*
Y1494459D1*
X3736853Y1293164D2*
X3736049Y1286371D1*
X3734715Y1279662D1*
X3732858Y1273078D1*
X3730490Y1266660D1*
X3727626Y1260447D1*
X3724284Y1254479D1*
X3720483Y1248791D1*
X3716248Y1243419D1*
X3711605Y1238395D1*
X3706581Y1233752D1*
X3701209Y1229517D1*
X3695521Y1225716D1*
X3689553Y1222374D1*
X3683340Y1219510D1*
X3676922Y1217142D1*
X3670338Y1215285D1*
X3663629Y1213951D1*
X3656836Y1213147D1*
X3650000Y1212878D1*
X3643164Y1213147D1*
X3636371Y1213951D1*
X3629662Y1215285D1*
X3623078Y1217142D1*
X3616660Y1219510D1*
X3610447Y1222374D1*
X3604479Y1225716D1*
X3598791Y1229517D1*
X3593419Y1233752D1*
X3588395Y1238395D1*
X3583752Y1243419D1*
X3579517Y1248791D1*
X3575716Y1254479D1*
X3572374Y1260447D1*
X3569510Y1266660D1*
X3567142Y1273078D1*
X3565285Y1279662D1*
X3563951Y1286371D1*
X3563147Y1293164D1*
X3562878Y1300000D1*
X3563147Y1306836D1*
X3563951Y1313629D1*
X3565285Y1320338D1*
X3567142Y1326922D1*
X3569510Y1333340D1*
X3572374Y1339553D1*
X3575716Y1345521D1*
X3579517Y1351209D1*
X3583752Y1356581D1*
X3588395Y1361605D1*
X3593419Y1366248D1*
X3598791Y1370483D1*
X3604479Y1374284D1*
X3610447Y1377626D1*
X3616660Y1380490D1*
X3623078Y1382858D1*
X3629662Y1384715D1*
X3636371Y1386049D1*
X3643164Y1386853D1*
X3650000Y1387122D1*
X3656836Y1386853D1*
X3663629Y1386049D1*
X3670338Y1384715D1*
X3676922Y1382858D1*
X3683340Y1380490D1*
X3689553Y1377626D1*
X3695521Y1374284D1*
X3701209Y1370483D1*
X3706581Y1366248D1*
X3711605Y1361605D1*
X3716248Y1356581D1*
X3720483Y1351209D1*
X3724284Y1345521D1*
X3727626Y1339553D1*
X3730490Y1333340D1*
X3732858Y1326922D1*
X3734715Y1320338D1*
X3736049Y1313629D1*
X3736853Y1306836D1*
X3737122Y1300000D1*
X3736853Y1293164D1*
X3620404Y1494459D2*
X3618671Y1483514D1*
X3615246Y1472974D1*
X3610215Y1463100D1*
X3603701Y1454135D1*
X3595865Y1446299D1*
X3586900Y1439785D1*
X3577026Y1434754D1*
X3566486Y1431329D1*
X3555541Y1429596D1*
X3544459D1*
X3533514Y1431329D1*
X3522974Y1434754D1*
X3513100Y1439785D1*
X3504135Y1446299D1*
X3496299Y1454135D1*
X3489785Y1463100D1*
X3484754Y1472974D1*
X3481329Y1483514D1*
X3479596Y1494459D1*
Y1505541D1*
X3481329Y1516486D1*
X3484754Y1527026D1*
X3489785Y1536900D1*
X3496299Y1545865D1*
X3504135Y1553701D1*
X3513100Y1560215D1*
X3522974Y1565246D1*
X3533514Y1568671D1*
X3544459Y1570404D1*
X3555541D1*
X3566486Y1568671D1*
X3577026Y1565246D1*
X3586900Y1560215D1*
X3595865Y1553701D1*
X3603701Y1545865D1*
X3610215Y1536900D1*
X3615246Y1527026D1*
X3618671Y1516486D1*
X3620404Y1505541D1*
Y1494459D1*
X986853Y643164D2*
X986049Y636371D1*
X984715Y629662D1*
X982858Y623078D1*
X980490Y616660D1*
X977626Y610447D1*
X974284Y604479D1*
X970483Y598791D1*
X966248Y593419D1*
X961605Y588395D1*
X956581Y583752D1*
X951209Y579517D1*
X945521Y575716D1*
X939553Y572374D1*
X933340Y569510D1*
X926922Y567142D1*
X920338Y565285D1*
X913629Y563951D1*
X906836Y563147D1*
X900000Y562878D1*
X893164Y563147D1*
X886371Y563951D1*
X879662Y565285D1*
X873078Y567142D1*
X866660Y569510D1*
X860447Y572374D1*
X854479Y575716D1*
X848791Y579517D1*
X843419Y583752D1*
X838395Y588395D1*
X833752Y593419D1*
X829517Y598791D1*
X825716Y604479D1*
X822374Y610447D1*
X819510Y616660D1*
X817142Y623078D1*
X815285Y629662D1*
X813951Y636371D1*
X813147Y643164D1*
X812999Y653071D1*
X802491Y646980D1*
X794247Y643179D1*
X785729Y640037D1*
X776991Y637573D1*
X768087Y635801D1*
X759072Y634734D1*
X750000Y634378D1*
X740928Y634734D1*
X731913Y635801D1*
X723009Y637573D1*
X714271Y640037D1*
X705753Y643179D1*
X697509Y646980D1*
X689588Y651416D1*
X682039Y656460D1*
X674909Y662080D1*
X668243Y668243D1*
X662080Y674909D1*
X656460Y682039D1*
X651416Y689588D1*
X646980Y697509D1*
X643179Y705753D1*
X640037Y714271D1*
X637573Y723009D1*
X635801Y731913D1*
X634734Y740928D1*
X634378Y750000D1*
X634734Y759072D1*
X635801Y768087D1*
X637573Y776991D1*
X640037Y785729D1*
X643179Y794247D1*
X646980Y802491D1*
X651416Y810412D1*
X656460Y817961D1*
X662080Y825091D1*
X668243Y831757D1*
X674909Y837920D1*
X682039Y843540D1*
X689588Y848584D1*
X697509Y853020D1*
X705753Y856821D1*
X714271Y859963D1*
X723009Y862427D1*
X731913Y864199D1*
X740928Y865266D1*
X750000Y865622D1*
X759072Y865266D1*
X768087Y864199D1*
X776991Y862427D1*
X785729Y859963D1*
X794247Y856821D1*
X802491Y853020D1*
X810412Y848584D1*
X817961Y843540D1*
X825091Y837920D1*
X831757Y831757D1*
X837920Y825091D1*
X843540Y817961D1*
X848584Y810412D1*
X853020Y802491D1*
X856821Y794247D1*
X859963Y785729D1*
X862427Y776991D1*
X864199Y768087D1*
X865266Y759072D1*
X865622Y750000D1*
X865266Y740928D1*
X863652Y729165D1*
X873078Y732858D1*
X880998Y734981D1*
X879596Y744459D1*
Y755541D1*
X881329Y766486D1*
X884754Y777026D1*
X889785Y786900D1*
X896299Y795865D1*
X904135Y803701D1*
X913100Y810215D1*
X922974Y815246D1*
X933514Y818671D1*
X944459Y820404D1*
X955541D1*
X966486Y818671D1*
X977026Y815246D1*
X986900Y810215D1*
X995865Y803701D1*
X1003701Y795865D1*
X1010215Y786900D1*
X1015246Y777026D1*
X1018671Y766486D1*
X1020404Y755541D1*
Y744459D1*
X1018671Y733514D1*
X1015246Y722974D1*
X1010215Y713100D1*
X1003701Y704135D1*
X995865Y696299D1*
X986900Y689785D1*
X979406Y685851D1*
X982858Y676922D1*
X984715Y670338D1*
X986049Y663629D1*
X986853Y656836D1*
X987122Y650000D1*
X986853Y643164D1*
X736853Y543164D2*
X736049Y536371D1*
X734715Y529662D1*
X732858Y523078D1*
X730490Y516660D1*
X727626Y510447D1*
X724284Y504479D1*
X720483Y498791D1*
X716248Y493419D1*
X711605Y488395D1*
X706581Y483752D1*
X701209Y479517D1*
X695521Y475716D1*
X689553Y472374D1*
X683340Y469510D1*
X676922Y467142D1*
X670338Y465285D1*
X663629Y463951D1*
X656836Y463147D1*
X650000Y462878D1*
X643164Y463147D1*
X636371Y463951D1*
X629662Y465285D1*
X623078Y467142D1*
X616660Y469510D1*
X610447Y472374D1*
X604479Y475716D1*
X598791Y479517D1*
X593419Y483752D1*
X588395Y488395D1*
X583752Y493419D1*
X579517Y498791D1*
X575716Y504479D1*
X572374Y510447D1*
X569510Y516660D1*
X567142Y523078D1*
X565285Y529662D1*
X563951Y536371D1*
X563147Y543164D1*
X562878Y550000D1*
X563147Y556836D1*
X563951Y563629D1*
X565285Y570338D1*
X567142Y576922D1*
X569510Y583340D1*
X572374Y589553D1*
X575716Y595521D1*
X579517Y601209D1*
X583752Y606581D1*
X588395Y611605D1*
X593419Y616248D1*
X598791Y620483D1*
X604479Y624284D1*
X610447Y627626D1*
X616660Y630490D1*
X623078Y632858D1*
X629662Y634715D1*
X636371Y636049D1*
X643164Y636853D1*
X650000Y637122D1*
X656836Y636853D1*
X663629Y636049D1*
X670338Y634715D1*
X676922Y632858D1*
X683340Y630490D1*
X689553Y627626D1*
X695521Y624284D1*
X701209Y620483D1*
X706581Y616248D1*
X711605Y611605D1*
X716248Y606581D1*
X720483Y601209D1*
X724284Y595521D1*
X727626Y589553D1*
X730490Y583340D1*
X732858Y576922D1*
X734715Y570338D1*
X736049Y563629D1*
X736853Y556836D1*
X737122Y550000D1*
X736853Y543164D1*
X620404Y744459D2*
X618671Y733514D1*
X615246Y722974D1*
X610215Y713100D1*
X603701Y704135D1*
X595865Y696299D1*
X586900Y689785D1*
X577026Y684754D1*
X566486Y681329D1*
X555541Y679596D1*
X544459D1*
X533514Y681329D1*
X522974Y684754D1*
X513100Y689785D1*
X504135Y696299D1*
X496299Y704135D1*
X489785Y713100D1*
X484754Y722974D1*
X481329Y733514D1*
X479596Y744459D1*
Y755541D1*
X481329Y766486D1*
X484754Y777026D1*
X489785Y786900D1*
X496299Y795865D1*
X504135Y803701D1*
X513100Y810215D1*
X522974Y815246D1*
X533514Y818671D1*
X544459Y820404D1*
X555541D1*
X566486Y818671D1*
X577026Y815246D1*
X586900Y810215D1*
X595865Y803701D1*
X603701Y795865D1*
X610215Y786900D1*
X615246Y777026D1*
X618671Y766486D1*
X620404Y755541D1*
Y744459D1*
X1736853Y643164D2*
X1736049Y636371D1*
X1734715Y629662D1*
X1732858Y623078D1*
X1730490Y616660D1*
X1727626Y610447D1*
X1724284Y604479D1*
X1720483Y598791D1*
X1716248Y593419D1*
X1711605Y588395D1*
X1706581Y583752D1*
X1701209Y579517D1*
X1695521Y575716D1*
X1689553Y572374D1*
X1683340Y569510D1*
X1676922Y567142D1*
X1670338Y565285D1*
X1663629Y563951D1*
X1656836Y563147D1*
X1650000Y562878D1*
X1643164Y563147D1*
X1636371Y563951D1*
X1629662Y565285D1*
X1623078Y567142D1*
X1616660Y569510D1*
X1610447Y572374D1*
X1604479Y575716D1*
X1598791Y579517D1*
X1593419Y583752D1*
X1588395Y588395D1*
X1583752Y593419D1*
X1579517Y598791D1*
X1575716Y604479D1*
X1572374Y610447D1*
X1569510Y616660D1*
X1567142Y623078D1*
X1565285Y629662D1*
X1563951Y636371D1*
X1563147Y643164D1*
X1562999Y653071D1*
X1552491Y646980D1*
X1544247Y643179D1*
X1535729Y640037D1*
X1526991Y637573D1*
X1518087Y635801D1*
X1509072Y634734D1*
X1500000Y634378D1*
X1490928Y634734D1*
X1481913Y635801D1*
X1473009Y637573D1*
X1464271Y640037D1*
X1455753Y643179D1*
X1447509Y646980D1*
X1439588Y651416D1*
X1432039Y656460D1*
X1424909Y662080D1*
X1418243Y668243D1*
X1412080Y674909D1*
X1406460Y682039D1*
X1401416Y689588D1*
X1396980Y697509D1*
X1393179Y705753D1*
X1390037Y714271D1*
X1387573Y723009D1*
X1385801Y731913D1*
X1384734Y740928D1*
X1384378Y750000D1*
X1384734Y759072D1*
X1385801Y768087D1*
X1387573Y776991D1*
X1390037Y785729D1*
X1393179Y794247D1*
X1396980Y802491D1*
X1401416Y810412D1*
X1406460Y817961D1*
X1412080Y825091D1*
X1418243Y831757D1*
X1424909Y837920D1*
X1432039Y843540D1*
X1439588Y848584D1*
X1447509Y853020D1*
X1455753Y856821D1*
X1464271Y859963D1*
X1473009Y862427D1*
X1481913Y864199D1*
X1490928Y865266D1*
X1500000Y865622D1*
X1509072Y865266D1*
X1518087Y864199D1*
X1526991Y862427D1*
X1535729Y859963D1*
X1544247Y856821D1*
X1552491Y853020D1*
X1560412Y848584D1*
X1567961Y843540D1*
X1575091Y837920D1*
X1581757Y831757D1*
X1587920Y825091D1*
X1593540Y817961D1*
X1598584Y810412D1*
X1603020Y802491D1*
X1606821Y794247D1*
X1609963Y785729D1*
X1612427Y776991D1*
X1614199Y768087D1*
X1615266Y759072D1*
X1615622Y750000D1*
X1615266Y740928D1*
X1613652Y729165D1*
X1623078Y732858D1*
X1630998Y734981D1*
X1629596Y744459D1*
Y755541D1*
X1631329Y766486D1*
X1634754Y777026D1*
X1639785Y786900D1*
X1646299Y795865D1*
X1654135Y803701D1*
X1663100Y810215D1*
X1672974Y815246D1*
X1683514Y818671D1*
X1694459Y820404D1*
X1705541D1*
X1716486Y818671D1*
X1727026Y815246D1*
X1736900Y810215D1*
X1745865Y803701D1*
X1753701Y795865D1*
X1760215Y786900D1*
X1765246Y777026D1*
X1768671Y766486D1*
X1770404Y755541D1*
Y744459D1*
X1768671Y733514D1*
X1765246Y722974D1*
X1760215Y713100D1*
X1753701Y704135D1*
X1745865Y696299D1*
X1736900Y689785D1*
X1729406Y685851D1*
X1732858Y676922D1*
X1734715Y670338D1*
X1736049Y663629D1*
X1736853Y656836D1*
X1737122Y650000D1*
X1736853Y643164D1*
X1486853Y543164D2*
X1486049Y536371D1*
X1484715Y529662D1*
X1482858Y523078D1*
X1480490Y516660D1*
X1477626Y510447D1*
X1474284Y504479D1*
X1470483Y498791D1*
X1466248Y493419D1*
X1461605Y488395D1*
X1456581Y483752D1*
X1451209Y479517D1*
X1445521Y475716D1*
X1439553Y472374D1*
X1433340Y469510D1*
X1426922Y467142D1*
X1420338Y465285D1*
X1413629Y463951D1*
X1406836Y463147D1*
X1400000Y462878D1*
X1393164Y463147D1*
X1386371Y463951D1*
X1379662Y465285D1*
X1373078Y467142D1*
X1366660Y469510D1*
X1360447Y472374D1*
X1354479Y475716D1*
X1348791Y479517D1*
X1343419Y483752D1*
X1338395Y488395D1*
X1333752Y493419D1*
X1329517Y498791D1*
X1325716Y504479D1*
X1322374Y510447D1*
X1319510Y516660D1*
X1317142Y523078D1*
X1315285Y529662D1*
X1313951Y536371D1*
X1313147Y543164D1*
X1312878Y550000D1*
X1313147Y556836D1*
X1313951Y563629D1*
X1315285Y570338D1*
X1317142Y576922D1*
X1319510Y583340D1*
X1322374Y589553D1*
X1325716Y595521D1*
X1329517Y601209D1*
X1333752Y606581D1*
X1338395Y611605D1*
X1343419Y616248D1*
X1348791Y620483D1*
X1354479Y624284D1*
X1360447Y627626D1*
X1366660Y630490D1*
X1373078Y632858D1*
X1379662Y634715D1*
X1386371Y636049D1*
X1393164Y636853D1*
X1400000Y637122D1*
X1406836Y636853D1*
X1413629Y636049D1*
X1420338Y634715D1*
X1426922Y632858D1*
X1433340Y630490D1*
X1439553Y627626D1*
X1445521Y624284D1*
X1451209Y620483D1*
X1456581Y616248D1*
X1461605Y611605D1*
X1466248Y606581D1*
X1470483Y601209D1*
X1474284Y595521D1*
X1477626Y589553D1*
X1480490Y583340D1*
X1482858Y576922D1*
X1484715Y570338D1*
X1486049Y563629D1*
X1486853Y556836D1*
X1487122Y550000D1*
X1486853Y543164D1*
X1370404Y744459D2*
X1368671Y733514D1*
X1365246Y722974D1*
X1360215Y713100D1*
X1353701Y704135D1*
X1345865Y696299D1*
X1336900Y689785D1*
X1327026Y684754D1*
X1316486Y681329D1*
X1305541Y679596D1*
X1294459D1*
X1283514Y681329D1*
X1272974Y684754D1*
X1263100Y689785D1*
X1254135Y696299D1*
X1246299Y704135D1*
X1239785Y713100D1*
X1234754Y722974D1*
X1231329Y733514D1*
X1229596Y744459D1*
Y755541D1*
X1231329Y766486D1*
X1234754Y777026D1*
X1239785Y786900D1*
X1246299Y795865D1*
X1254135Y803701D1*
X1263100Y810215D1*
X1272974Y815246D1*
X1283514Y818671D1*
X1294459Y820404D1*
X1305541D1*
X1316486Y818671D1*
X1327026Y815246D1*
X1336900Y810215D1*
X1345865Y803701D1*
X1353701Y795865D1*
X1360215Y786900D1*
X1365246Y777026D1*
X1368671Y766486D1*
X1370404Y755541D1*
Y744459D1*
X2486853Y643164D2*
X2486049Y636371D1*
X2484715Y629662D1*
X2482858Y623078D1*
X2480490Y616660D1*
X2477626Y610447D1*
X2474284Y604479D1*
X2470483Y598791D1*
X2466248Y593419D1*
X2461605Y588395D1*
X2456581Y583752D1*
X2451209Y579517D1*
X2445521Y575716D1*
X2439553Y572374D1*
X2433340Y569510D1*
X2426922Y567142D1*
X2420338Y565285D1*
X2413629Y563951D1*
X2406836Y563147D1*
X2400000Y562878D1*
X2393164Y563147D1*
X2386371Y563951D1*
X2379662Y565285D1*
X2373078Y567142D1*
X2366660Y569510D1*
X2360447Y572374D1*
X2354479Y575716D1*
X2348791Y579517D1*
X2343419Y583752D1*
X2338395Y588395D1*
X2333752Y593419D1*
X2329517Y598791D1*
X2325716Y604479D1*
X2322374Y610447D1*
X2319510Y616660D1*
X2317142Y623078D1*
X2315285Y629662D1*
X2313951Y636371D1*
X2313147Y643164D1*
X2312999Y653071D1*
X2302491Y646980D1*
X2294247Y643179D1*
X2285729Y640037D1*
X2276991Y637573D1*
X2268087Y635801D1*
X2259072Y634734D1*
X2250000Y634378D1*
X2240928Y634734D1*
X2231913Y635801D1*
X2223009Y637573D1*
X2214271Y640037D1*
X2205753Y643179D1*
X2197509Y646980D1*
X2189588Y651416D1*
X2182039Y656460D1*
X2174909Y662080D1*
X2168243Y668243D1*
X2162080Y674909D1*
X2156460Y682039D1*
X2151416Y689588D1*
X2146980Y697509D1*
X2143179Y705753D1*
X2140037Y714271D1*
X2137573Y723009D1*
X2135801Y731913D1*
X2134734Y740928D1*
X2134378Y750000D1*
X2134734Y759072D1*
X2135801Y768087D1*
X2137573Y776991D1*
X2140037Y785729D1*
X2143179Y794247D1*
X2146980Y802491D1*
X2151416Y810412D1*
X2156460Y817961D1*
X2162080Y825091D1*
X2168243Y831757D1*
X2174909Y837920D1*
X2182039Y843540D1*
X2189588Y848584D1*
X2197509Y853020D1*
X2205753Y856821D1*
X2214271Y859963D1*
X2223009Y862427D1*
X2231913Y864199D1*
X2240928Y865266D1*
X2250000Y865622D1*
X2259072Y865266D1*
X2268087Y864199D1*
X2276991Y862427D1*
X2285729Y859963D1*
X2294247Y856821D1*
X2302491Y853020D1*
X2310412Y848584D1*
X2317961Y843540D1*
X2325091Y837920D1*
X2331757Y831757D1*
X2337920Y825091D1*
X2343540Y817961D1*
X2348584Y810412D1*
X2353020Y802491D1*
X2356821Y794247D1*
X2359963Y785729D1*
X2362427Y776991D1*
X2364199Y768087D1*
X2365266Y759072D1*
X2365622Y750000D1*
X2365266Y740928D1*
X2363652Y729165D1*
X2373078Y732858D1*
X2380998Y734981D1*
X2379596Y744459D1*
Y755541D1*
X2381329Y766486D1*
X2384754Y777026D1*
X2389785Y786900D1*
X2396299Y795865D1*
X2404135Y803701D1*
X2413100Y810215D1*
X2422974Y815246D1*
X2433514Y818671D1*
X2444459Y820404D1*
X2455541D1*
X2466486Y818671D1*
X2477026Y815246D1*
X2486900Y810215D1*
X2495865Y803701D1*
X2503701Y795865D1*
X2510215Y786900D1*
X2515246Y777026D1*
X2518671Y766486D1*
X2520404Y755541D1*
Y744459D1*
X2518671Y733514D1*
X2515246Y722974D1*
X2510215Y713100D1*
X2503701Y704135D1*
X2495865Y696299D1*
X2486900Y689785D1*
X2479406Y685851D1*
X2482858Y676922D1*
X2484715Y670338D1*
X2486049Y663629D1*
X2486853Y656836D1*
X2487122Y650000D1*
X2486853Y643164D1*
X2236853Y543164D2*
X2236049Y536371D1*
X2234715Y529662D1*
X2232858Y523078D1*
X2230490Y516660D1*
X2227626Y510447D1*
X2224284Y504479D1*
X2220483Y498791D1*
X2216248Y493419D1*
X2211605Y488395D1*
X2206581Y483752D1*
X2201209Y479517D1*
X2195521Y475716D1*
X2189553Y472374D1*
X2183340Y469510D1*
X2176922Y467142D1*
X2170338Y465285D1*
X2163629Y463951D1*
X2156836Y463147D1*
X2150000Y462878D1*
X2143164Y463147D1*
X2136371Y463951D1*
X2129662Y465285D1*
X2123078Y467142D1*
X2116660Y469510D1*
X2110447Y472374D1*
X2104479Y475716D1*
X2098791Y479517D1*
X2093419Y483752D1*
X2088395Y488395D1*
X2083752Y493419D1*
X2079517Y498791D1*
X2075716Y504479D1*
X2072374Y510447D1*
X2069510Y516660D1*
X2067142Y523078D1*
X2065285Y529662D1*
X2063951Y536371D1*
X2063147Y543164D1*
X2062878Y550000D1*
X2063147Y556836D1*
X2063951Y563629D1*
X2065285Y570338D1*
X2067142Y576922D1*
X2069510Y583340D1*
X2072374Y589553D1*
X2075716Y595521D1*
X2079517Y601209D1*
X2083752Y606581D1*
X2088395Y611605D1*
X2093419Y616248D1*
X2098791Y620483D1*
X2104479Y624284D1*
X2110447Y627626D1*
X2116660Y630490D1*
X2123078Y632858D1*
X2129662Y634715D1*
X2136371Y636049D1*
X2143164Y636853D1*
X2150000Y637122D1*
X2156836Y636853D1*
X2163629Y636049D1*
X2170338Y634715D1*
X2176922Y632858D1*
X2183340Y630490D1*
X2189553Y627626D1*
X2195521Y624284D1*
X2201209Y620483D1*
X2206581Y616248D1*
X2211605Y611605D1*
X2216248Y606581D1*
X2220483Y601209D1*
X2224284Y595521D1*
X2227626Y589553D1*
X2230490Y583340D1*
X2232858Y576922D1*
X2234715Y570338D1*
X2236049Y563629D1*
X2236853Y556836D1*
X2237122Y550000D1*
X2236853Y543164D1*
X2120404Y744459D2*
X2118671Y733514D1*
X2115246Y722974D1*
X2110215Y713100D1*
X2103701Y704135D1*
X2095865Y696299D1*
X2086900Y689785D1*
X2077026Y684754D1*
X2066486Y681329D1*
X2055541Y679596D1*
X2044459D1*
X2033514Y681329D1*
X2022974Y684754D1*
X2013100Y689785D1*
X2004135Y696299D1*
X1996299Y704135D1*
X1989785Y713100D1*
X1984754Y722974D1*
X1981329Y733514D1*
X1979596Y744459D1*
Y755541D1*
X1981329Y766486D1*
X1984754Y777026D1*
X1989785Y786900D1*
X1996299Y795865D1*
X2004135Y803701D1*
X2013100Y810215D1*
X2022974Y815246D1*
X2033514Y818671D1*
X2044459Y820404D1*
X2055541D1*
X2066486Y818671D1*
X2077026Y815246D1*
X2086900Y810215D1*
X2095865Y803701D1*
X2103701Y795865D1*
X2110215Y786900D1*
X2115246Y777026D1*
X2118671Y766486D1*
X2120404Y755541D1*
Y744459D1*
X3236853Y643164D2*
X3236049Y636371D1*
X3234715Y629662D1*
X3232858Y623078D1*
X3230490Y616660D1*
X3227626Y610447D1*
X3224284Y604479D1*
X3220483Y598791D1*
X3216248Y593419D1*
X3211605Y588395D1*
X3206581Y583752D1*
X3201209Y579517D1*
X3195521Y575716D1*
X3189553Y572374D1*
X3183340Y569510D1*
X3176922Y567142D1*
X3170338Y565285D1*
X3163629Y563951D1*
X3156836Y563147D1*
X3150000Y562878D1*
X3143164Y563147D1*
X3136371Y563951D1*
X3129662Y565285D1*
X3123078Y567142D1*
X3116660Y569510D1*
X3110447Y572374D1*
X3104479Y575716D1*
X3098791Y579517D1*
X3093419Y583752D1*
X3088395Y588395D1*
X3083752Y593419D1*
X3079517Y598791D1*
X3075716Y604479D1*
X3072374Y610447D1*
X3069510Y616660D1*
X3067142Y623078D1*
X3065285Y629662D1*
X3063951Y636371D1*
X3063147Y643164D1*
X3062999Y653071D1*
X3052491Y646980D1*
X3044247Y643179D1*
X3035729Y640037D1*
X3026991Y637573D1*
X3018087Y635801D1*
X3009072Y634734D1*
X3000000Y634378D1*
X2990928Y634734D1*
X2981913Y635801D1*
X2973009Y637573D1*
X2964271Y640037D1*
X2955753Y643179D1*
X2947509Y646980D1*
X2939588Y651416D1*
X2932039Y656460D1*
X2924909Y662080D1*
X2918243Y668243D1*
X2912080Y674909D1*
X2906460Y682039D1*
X2901416Y689588D1*
X2896980Y697509D1*
X2893179Y705753D1*
X2890037Y714271D1*
X2887573Y723009D1*
X2885801Y731913D1*
X2884734Y740928D1*
X2884378Y750000D1*
X2884734Y759072D1*
X2885801Y768087D1*
X2887573Y776991D1*
X2890037Y785729D1*
X2893179Y794247D1*
X2896980Y802491D1*
X2901416Y810412D1*
X2906460Y817961D1*
X2912080Y825091D1*
X2918243Y831757D1*
X2924909Y837920D1*
X2932039Y843540D1*
X2939588Y848584D1*
X2947509Y853020D1*
X2955753Y856821D1*
X2964271Y859963D1*
X2973009Y862427D1*
X2981913Y864199D1*
X2990928Y865266D1*
X3000000Y865622D1*
X3009072Y865266D1*
X3018087Y864199D1*
X3026991Y862427D1*
X3035729Y859963D1*
X3044247Y856821D1*
X3052491Y853020D1*
X3060412Y848584D1*
X3067961Y843540D1*
X3075091Y837920D1*
X3081757Y831757D1*
X3087920Y825091D1*
X3093540Y817961D1*
X3098584Y810412D1*
X3103020Y802491D1*
X3106821Y794247D1*
X3109963Y785729D1*
X3112427Y776991D1*
X3114199Y768087D1*
X3115266Y759072D1*
X3115622Y750000D1*
X3115266Y740928D1*
X3113652Y729165D1*
X3123078Y732858D1*
X3130998Y734981D1*
X3129596Y744459D1*
Y755541D1*
X3131329Y766486D1*
X3134754Y777026D1*
X3139785Y786900D1*
X3146299Y795865D1*
X3154135Y803701D1*
X3163100Y810215D1*
X3172974Y815246D1*
X3183514Y818671D1*
X3194459Y820404D1*
X3205541D1*
X3216486Y818671D1*
X3227026Y815246D1*
X3236900Y810215D1*
X3245865Y803701D1*
X3253701Y795865D1*
X3260215Y786900D1*
X3265246Y777026D1*
X3268671Y766486D1*
X3270404Y755541D1*
Y744459D1*
X3268671Y733514D1*
X3265246Y722974D1*
X3260215Y713100D1*
X3253701Y704135D1*
X3245865Y696299D1*
X3236900Y689785D1*
X3229406Y685851D1*
X3232858Y676922D1*
X3234715Y670338D1*
X3236049Y663629D1*
X3236853Y656836D1*
X3237122Y650000D1*
X3236853Y643164D1*
X2986853Y543164D2*
X2986049Y536371D1*
X2984715Y529662D1*
X2982858Y523078D1*
X2980490Y516660D1*
X2977626Y510447D1*
X2974284Y504479D1*
X2970483Y498791D1*
X2966248Y493419D1*
X2961605Y488395D1*
X2956581Y483752D1*
X2951209Y479517D1*
X2945521Y475716D1*
X2939553Y472374D1*
X2933340Y469510D1*
X2926922Y467142D1*
X2920338Y465285D1*
X2913629Y463951D1*
X2906836Y463147D1*
X2900000Y462878D1*
X2893164Y463147D1*
X2886371Y463951D1*
X2879662Y465285D1*
X2873078Y467142D1*
X2866660Y469510D1*
X2860447Y472374D1*
X2854479Y475716D1*
X2848791Y479517D1*
X2843419Y483752D1*
X2838395Y488395D1*
X2833752Y493419D1*
X2829517Y498791D1*
X2825716Y504479D1*
X2822374Y510447D1*
X2819510Y516660D1*
X2817142Y523078D1*
X2815285Y529662D1*
X2813951Y536371D1*
X2813147Y543164D1*
X2812878Y550000D1*
X2813147Y556836D1*
X2813951Y563629D1*
X2815285Y570338D1*
X2817142Y576922D1*
X2819510Y583340D1*
X2822374Y589553D1*
X2825716Y595521D1*
X2829517Y601209D1*
X2833752Y606581D1*
X2838395Y611605D1*
X2843419Y616248D1*
X2848791Y620483D1*
X2854479Y624284D1*
X2860447Y627626D1*
X2866660Y630490D1*
X2873078Y632858D1*
X2879662Y634715D1*
X2886371Y636049D1*
X2893164Y636853D1*
X2900000Y637122D1*
X2906836Y636853D1*
X2913629Y636049D1*
X2920338Y634715D1*
X2926922Y632858D1*
X2933340Y630490D1*
X2939553Y627626D1*
X2945521Y624284D1*
X2951209Y620483D1*
X2956581Y616248D1*
X2961605Y611605D1*
X2966248Y606581D1*
X2970483Y601209D1*
X2974284Y595521D1*
X2977626Y589553D1*
X2980490Y583340D1*
X2982858Y576922D1*
X2984715Y570338D1*
X2986049Y563629D1*
X2986853Y556836D1*
X2987122Y550000D1*
X2986853Y543164D1*
X2870404Y744459D2*
X2868671Y733514D1*
X2865246Y722974D1*
X2860215Y713100D1*
X2853701Y704135D1*
X2845865Y696299D1*
X2836900Y689785D1*
X2827026Y684754D1*
X2816486Y681329D1*
X2805541Y679596D1*
X2794459D1*
X2783514Y681329D1*
X2772974Y684754D1*
X2763100Y689785D1*
X2754135Y696299D1*
X2746299Y704135D1*
X2739785Y713100D1*
X2734754Y722974D1*
X2731329Y733514D1*
X2729596Y744459D1*
Y755541D1*
X2731329Y766486D1*
X2734754Y777026D1*
X2739785Y786900D1*
X2746299Y795865D1*
X2754135Y803701D1*
X2763100Y810215D1*
X2772974Y815246D1*
X2783514Y818671D1*
X2794459Y820404D1*
X2805541D1*
X2816486Y818671D1*
X2827026Y815246D1*
X2836900Y810215D1*
X2845865Y803701D1*
X2853701Y795865D1*
X2860215Y786900D1*
X2865246Y777026D1*
X2868671Y766486D1*
X2870404Y755541D1*
Y744459D1*
X3986853Y643164D2*
X3986049Y636371D1*
X3984715Y629662D1*
X3982858Y623078D1*
X3980490Y616660D1*
X3977626Y610447D1*
X3974284Y604479D1*
X3970483Y598791D1*
X3966248Y593419D1*
X3961605Y588395D1*
X3956581Y583752D1*
X3951209Y579517D1*
X3945521Y575716D1*
X3939553Y572374D1*
X3933340Y569510D1*
X3926922Y567142D1*
X3920338Y565285D1*
X3913629Y563951D1*
X3906836Y563147D1*
X3900000Y562878D1*
X3893164Y563147D1*
X3886371Y563951D1*
X3879662Y565285D1*
X3873078Y567142D1*
X3866660Y569510D1*
X3860447Y572374D1*
X3854479Y575716D1*
X3848791Y579517D1*
X3843419Y583752D1*
X3838395Y588395D1*
X3833752Y593419D1*
X3829517Y598791D1*
X3825716Y604479D1*
X3822374Y610447D1*
X3819510Y616660D1*
X3817142Y623078D1*
X3815285Y629662D1*
X3813951Y636371D1*
X3813147Y643164D1*
X3812999Y653071D1*
X3802491Y646980D1*
X3794247Y643179D1*
X3785729Y640037D1*
X3776991Y637573D1*
X3768087Y635801D1*
X3759072Y634734D1*
X3750000Y634378D1*
X3740928Y634734D1*
X3731913Y635801D1*
X3723009Y637573D1*
X3714271Y640037D1*
X3705753Y643179D1*
X3697509Y646980D1*
X3689588Y651416D1*
X3682039Y656460D1*
X3674909Y662080D1*
X3668243Y668243D1*
X3662080Y674909D1*
X3656460Y682039D1*
X3651416Y689588D1*
X3646980Y697509D1*
X3643179Y705753D1*
X3640037Y714271D1*
X3637573Y723009D1*
X3635801Y731913D1*
X3634734Y740928D1*
X3634378Y750000D1*
X3634734Y759072D1*
X3635801Y768087D1*
X3637573Y776991D1*
X3640037Y785729D1*
X3643179Y794247D1*
X3646980Y802491D1*
X3651416Y810412D1*
X3656460Y817961D1*
X3662080Y825091D1*
X3668243Y831757D1*
X3674909Y837920D1*
X3682039Y843540D1*
X3689588Y848584D1*
X3697509Y853020D1*
X3705753Y856821D1*
X3714271Y859963D1*
X3723009Y862427D1*
X3731913Y864199D1*
X3740928Y865266D1*
X3750000Y865622D1*
X3759072Y865266D1*
X3768087Y864199D1*
X3776991Y862427D1*
X3785729Y859963D1*
X3794247Y856821D1*
X3802491Y853020D1*
X3810412Y848584D1*
X3817961Y843540D1*
X3825091Y837920D1*
X3831757Y831757D1*
X3837920Y825091D1*
X3843540Y817961D1*
X3848584Y810412D1*
X3853020Y802491D1*
X3856821Y794247D1*
X3859963Y785729D1*
X3862427Y776991D1*
X3864199Y768087D1*
X3865266Y759072D1*
X3865622Y750000D1*
X3865266Y740928D1*
X3863652Y729165D1*
X3873078Y732858D1*
X3880998Y734981D1*
X3879596Y744459D1*
Y755541D1*
X3881329Y766486D1*
X3884754Y777026D1*
X3889785Y786900D1*
X3896299Y795865D1*
X3904135Y803701D1*
X3913100Y810215D1*
X3922974Y815246D1*
X3933514Y818671D1*
X3944459Y820404D1*
X3955541D1*
X3966486Y818671D1*
X3977026Y815246D1*
X3986900Y810215D1*
X3995865Y803701D1*
X4003701Y795865D1*
X4010215Y786900D1*
X4015246Y777026D1*
X4018671Y766486D1*
X4020404Y755541D1*
Y744459D1*
X4018671Y733514D1*
X4015246Y722974D1*
X4010215Y713100D1*
X4003701Y704135D1*
X3995865Y696299D1*
X3986900Y689785D1*
X3979406Y685851D1*
X3982858Y676922D1*
X3984715Y670338D1*
X3986049Y663629D1*
X3986853Y656836D1*
X3987122Y650000D1*
X3986853Y643164D1*
X3736853Y543164D2*
X3736049Y536371D1*
X3734715Y529662D1*
X3732858Y523078D1*
X3730490Y516660D1*
X3727626Y510447D1*
X3724284Y504479D1*
X3720483Y498791D1*
X3716248Y493419D1*
X3711605Y488395D1*
X3706581Y483752D1*
X3701209Y479517D1*
X3695521Y475716D1*
X3689553Y472374D1*
X3683340Y469510D1*
X3676922Y467142D1*
X3670338Y465285D1*
X3663629Y463951D1*
X3656836Y463147D1*
X3650000Y462878D1*
X3643164Y463147D1*
X3636371Y463951D1*
X3629662Y465285D1*
X3623078Y467142D1*
X3616660Y469510D1*
X3610447Y472374D1*
X3604479Y475716D1*
X3598791Y479517D1*
X3593419Y483752D1*
X3588395Y488395D1*
X3583752Y493419D1*
X3579517Y498791D1*
X3575716Y504479D1*
X3572374Y510447D1*
X3569510Y516660D1*
X3567142Y523078D1*
X3565285Y529662D1*
X3563951Y536371D1*
X3563147Y543164D1*
X3562878Y550000D1*
X3563147Y556836D1*
X3563951Y563629D1*
X3565285Y570338D1*
X3567142Y576922D1*
X3569510Y583340D1*
X3572374Y589553D1*
X3575716Y595521D1*
X3579517Y601209D1*
X3583752Y606581D1*
X3588395Y611605D1*
X3593419Y616248D1*
X3598791Y620483D1*
X3604479Y624284D1*
X3610447Y627626D1*
X3616660Y630490D1*
X3623078Y632858D1*
X3629662Y634715D1*
X3636371Y636049D1*
X3643164Y636853D1*
X3650000Y637122D1*
X3656836Y636853D1*
X3663629Y636049D1*
X3670338Y634715D1*
X3676922Y632858D1*
X3683340Y630490D1*
X3689553Y627626D1*
X3695521Y624284D1*
X3701209Y620483D1*
X3706581Y616248D1*
X3711605Y611605D1*
X3716248Y606581D1*
X3720483Y601209D1*
X3724284Y595521D1*
X3727626Y589553D1*
X3730490Y583340D1*
X3732858Y576922D1*
X3734715Y570338D1*
X3736049Y563629D1*
X3736853Y556836D1*
X3737122Y550000D1*
X3736853Y543164D1*
X3620404Y744459D2*
X3618671Y733514D1*
X3615246Y722974D1*
X3610215Y713100D1*
X3603701Y704135D1*
X3595865Y696299D1*
X3586900Y689785D1*
X3577026Y684754D1*
X3566486Y681329D1*
X3555541Y679596D1*
X3544459D1*
X3533514Y681329D1*
X3522974Y684754D1*
X3513100Y689785D1*
X3504135Y696299D1*
X3496299Y704135D1*
X3489785Y713100D1*
X3484754Y722974D1*
X3481329Y733514D1*
X3479596Y744459D1*
Y755541D1*
X3481329Y766486D1*
X3484754Y777026D1*
X3489785Y786900D1*
X3496299Y795865D1*
X3504135Y803701D1*
X3513100Y810215D1*
X3522974Y815246D1*
X3533514Y818671D1*
X3544459Y820404D1*
X3555541D1*
X3566486Y818671D1*
X3577026Y815246D1*
X3586900Y810215D1*
X3595865Y803701D1*
X3603701Y795865D1*
X3610215Y786900D1*
X3615246Y777026D1*
X3618671Y766486D1*
X3620404Y755541D1*
Y744459D1*
X1831752Y2701476D2*
X1830350Y2692623D1*
X1827580Y2684098D1*
X1823510Y2676112D1*
X1818242Y2668860D1*
X1811904Y2662522D1*
X1804652Y2657253D1*
X1796665Y2653184D1*
X1788141Y2650414D1*
X1779288Y2649012D1*
X1770324D1*
X1761471Y2650414D1*
X1752946Y2653184D1*
X1744960Y2657253D1*
X1737708Y2662522D1*
X1735173Y2664865D1*
X1730006Y2667094D1*
X1724170Y2670670D1*
X1718957Y2675125D1*
X1673033Y2721238D1*
X1669010Y2726775D1*
X1665903Y2732874D1*
X1663788Y2739383D1*
X1662717Y2746143D1*
X1662583Y2783620D1*
X1657026Y2788276D1*
X1644568Y2800734D1*
X1642025Y2794832D1*
X1638004Y2788273D1*
X1636620Y2786363D1*
X1633850Y2777839D1*
X1629781Y2769852D1*
X1624512Y2762600D1*
X1618174Y2756262D1*
X1610922Y2750994D1*
X1602936Y2746924D1*
X1594411Y2744154D1*
X1585558Y2742752D1*
X1576594D1*
X1567741Y2744154D1*
X1559216Y2746924D1*
X1551230Y2750994D1*
X1543978Y2756262D1*
X1537640Y2762600D1*
X1532372Y2769852D1*
X1528302Y2777839D1*
X1525532Y2786363D1*
X1524130Y2795216D1*
Y2804180D1*
X1525532Y2813033D1*
X1528302Y2821558D1*
X1532372Y2829544D1*
X1537640Y2836796D1*
X1543978Y2843134D1*
X1549496Y2847244D1*
X1549492Y2967113D1*
X1491037Y2967260D1*
X1488209Y2968058D1*
X1485645Y2969493D1*
X1483487Y2971488D1*
X1481854Y2973931D1*
X1480837Y2976688D1*
X1480492Y2979606D1*
Y3203344D1*
X700203Y3203327D1*
X700063Y3095761D1*
X699265Y3092933D1*
X697829Y3090369D1*
X695835Y3088211D1*
X693391Y3086579D1*
X690635Y3085562D1*
X687713Y3085217D1*
X418693D1*
X418720Y418711D1*
X4081299Y418721D1*
X4081281Y3085226D1*
X3810328Y3085370D1*
X3807500Y3086168D1*
X3804936Y3087604D1*
X3802778Y3089598D1*
X3801146Y3092042D1*
X3800129Y3094798D1*
X3799783Y3097717D1*
Y3203324D1*
X1905362Y3203327D1*
X1905296Y2978626D1*
X1904723Y2975744D1*
X1903493Y2973075D1*
X1901674Y2970767D1*
X1899366Y2968948D1*
X1896697Y2967718D1*
X1893815Y2967145D1*
X1836317Y2967106D1*
X1836335Y2787297D1*
X1835732Y2779642D1*
X1833940Y2772175D1*
X1830350Y2761366D1*
X1827580Y2752841D1*
X1823510Y2744855D1*
X1820400Y2740341D1*
X1823510Y2735804D1*
X1827580Y2727818D1*
X1830350Y2719293D1*
X1831752Y2710440D1*
Y2701476D1*
X1813147Y2401719D2*
X1811745Y2392866D1*
X1808975Y2384341D1*
X1804905Y2376355D1*
X1799637Y2369103D1*
X1793299Y2362765D1*
X1792487Y2362125D1*
X1811870Y2362117D1*
X1813157Y2369536D1*
X1815927Y2378060D1*
X1819996Y2386047D1*
X1825265Y2393299D1*
X1831603Y2399637D1*
X1838855Y2404905D1*
X1846841Y2408975D1*
X1855366Y2411745D1*
X1864219Y2413147D1*
X1873183D1*
X1874940Y2412939D1*
X1874922Y2437825D1*
X1869836Y2444886D1*
X1865767Y2452873D1*
X1862997Y2461397D1*
X1861595Y2470251D1*
Y2479214D1*
X1862997Y2488067D1*
X1865767Y2496592D1*
X1869836Y2504578D1*
X1871481Y2507040D1*
X1826103Y2507041D1*
X1778060Y2458975D1*
X1786047Y2454905D1*
X1793299Y2449637D1*
X1799637Y2443299D1*
X1804905Y2436047D1*
X1808975Y2428060D1*
X1811745Y2419536D1*
X1813147Y2410683D1*
Y2401719D1*
X1461841Y2068570D2*
X1461461Y2074774D1*
X1462164Y2083710D1*
X1464256Y2092426D1*
X1467687Y2100707D1*
X1472370Y2108350D1*
X1475634Y2112400D1*
X1423946Y2112182D1*
X1419252Y2107487D1*
X1417893Y2098935D1*
X1415123Y2090411D1*
X1411054Y2082424D1*
X1405785Y2075173D1*
X1399103Y2068563D1*
X1461796Y2068570D1*
X1869248Y2095290D2*
X1869023Y2093393D1*
X1925318Y2093395D1*
X1926044Y2101486D1*
X1928137Y2110202D1*
X1931567Y2118483D1*
X1936251Y2126125D1*
X1938843Y2129414D1*
X1935160Y2129698D1*
X1928120Y2122848D1*
X1922583Y2118825D1*
X1916485Y2115718D1*
X1909975Y2113603D1*
X1903215Y2112532D1*
X1868035Y2112398D1*
X1869248Y2104253D1*
Y2095290D1*
X1380565Y1981331D2*
X1373547Y1976247D1*
X1370994Y1974817D1*
X1535106Y1974819D1*
X1528875Y1978739D1*
X1525586Y1981331D1*
X1380553Y1981333D1*
X1844250Y2239025D2*
X1844026Y2237128D1*
X1857437Y2250338D1*
X1874922Y2268129D1*
Y2299384D1*
X1867065Y2292879D1*
X1859326Y2285331D1*
X1853789Y2281308D1*
X1847691Y2278201D1*
X1841181Y2276086D1*
X1837809Y2275416D1*
X1836009Y2273353D1*
X1840078Y2265366D1*
X1842848Y2256841D1*
X1844250Y2247988D1*
Y2239025D1*
X1963923Y1949290D2*
X1955366Y1950657D1*
X1946841Y1953427D1*
X1938855Y1957496D1*
X1931603Y1962765D1*
X1925265Y1969103D1*
X1919996Y1976355D1*
X1915927Y1984341D1*
X1913157Y1992866D1*
X1911755Y2001719D1*
X1911581Y2006148D1*
X1855254Y2006159D1*
X1912669Y1948712D1*
X1964477Y1948726D1*
D19*
X1025591Y2913387D3*
X1222441D3*
X1124016D3*
X1025591Y2342521D3*
X1222441D3*
D20*
X897638Y2618112D3*
X1350394Y2614175D3*
D28*
X2331693Y3000591D3*
Y2900591D3*
Y2800591D3*
Y3100591D3*
D32*
X518688Y2480982D3*
D33*
X618688D3*
D34*
X2400000Y2150000D3*
X2150000Y2050000D3*
X3150000Y2150000D3*
X2900000Y2050000D3*
X3900000Y2150000D3*
X3650000Y2050000D3*
X900000Y1400000D3*
X650000Y1300000D3*
X1650000Y1400000D3*
X1400000Y1300000D3*
X2400000Y1400000D3*
X2150000Y1300000D3*
X3150000Y1400000D3*
X2900000Y1300000D3*
X3900000Y1400000D3*
X3650000Y1300000D3*
X900000Y650000D3*
X650000Y550000D3*
X1650000Y650000D3*
X1400000Y550000D3*
X2400000Y650000D3*
X2150000Y550000D3*
X3150000Y650000D3*
X2900000Y550000D3*
X3900000Y650000D3*
X3650000Y550000D3*
D35*
X1761811Y2968701D3*
X1742126D3*
X1722441D3*
X1702756D3*
X1663386D3*
X1683071D3*
D36*
X1472441Y3007087D3*
D37*
Y3164567D3*
D36*
X1913386Y3007087D3*
D37*
Y3164567D3*
D35*
X1643701Y2968701D3*
X1624016D3*
D38*
X1598425D3*
X1787402D3*
X1566929D3*
X1818898D3*
D39*
X518701Y2937451D3*
Y2837451D3*
Y2737451D3*
X618701D3*
Y2837451D3*
D40*
Y2937451D3*
M02*
