G04 DipTrace 3.1.0.1*
G04 TopMask.gbr*
%MOIN*%
G04 #@! TF.FileFunction,Soldermask,Top*
G04 #@! TF.Part,Single*
%ADD19C,0.086614*%
%ADD43C,0.11811*%
%ADD44C,0.157*%
%ADD45C,0.067*%
%ADD54R,0.066929X0.066929*%
%ADD56C,0.066929*%
%ADD58R,0.031496X0.05315*%
%ADD60O,0.047244X0.090551*%
%ADD62O,0.047244X0.07874*%
%ADD64R,0.019685X0.05315*%
%ADD66C,0.107874*%
%ADD68C,0.067874*%
%ADD70R,0.067874X0.067874*%
%ADD85R,0.106299X0.145669*%
%ADD87C,0.094488*%
%FSLAX26Y26*%
G04*
G70*
G90*
G75*
G01*
G04 TopMask*
%LPD*%
D87*
X1025591Y2913387D3*
X1222441D3*
X1124016D3*
X1025591Y2342521D3*
X1222441D3*
D85*
X897638Y2618112D3*
X1350394Y2614175D3*
D19*
X2331693Y3000591D3*
Y2900591D3*
Y2800591D3*
Y3100591D3*
D43*
X2494193Y2825571D3*
X3656693Y3075571D3*
D70*
X518688Y2480982D3*
D68*
X618688D3*
D66*
X2400000Y2150000D3*
X2150000Y2050000D3*
D44*
X2250000Y2250000D3*
D45*
X2050000D3*
X2450000D3*
D66*
X3150000Y2150000D3*
X2900000Y2050000D3*
D44*
X3000000Y2250000D3*
D45*
X2800000D3*
X3200000D3*
D66*
X3900000Y2150000D3*
X3650000Y2050000D3*
D44*
X3750000Y2250000D3*
D45*
X3550000D3*
X3950000D3*
D66*
X900000Y1400000D3*
X650000Y1300000D3*
D44*
X750000Y1500000D3*
D45*
X550000D3*
X950000D3*
D66*
X1650000Y1400000D3*
X1400000Y1300000D3*
D44*
X1500000Y1500000D3*
D45*
X1300000D3*
X1700000D3*
D66*
X2400000Y1400000D3*
X2150000Y1300000D3*
D44*
X2250000Y1500000D3*
D45*
X2050000D3*
X2450000D3*
D66*
X3150000Y1400000D3*
X2900000Y1300000D3*
D44*
X3000000Y1500000D3*
D45*
X2800000D3*
X3200000D3*
D66*
X3900000Y1400000D3*
X3650000Y1300000D3*
D44*
X3750000Y1500000D3*
D45*
X3550000D3*
X3950000D3*
D66*
X900000Y650000D3*
X650000Y550000D3*
D44*
X750000Y750000D3*
D45*
X550000D3*
X950000D3*
D66*
X1650000Y650000D3*
X1400000Y550000D3*
D44*
X1500000Y750000D3*
D45*
X1300000D3*
X1700000D3*
D66*
X2400000Y650000D3*
X2150000Y550000D3*
D44*
X2250000Y750000D3*
D45*
X2050000D3*
X2450000D3*
D66*
X3150000Y650000D3*
X2900000Y550000D3*
D44*
X3000000Y750000D3*
D45*
X2800000D3*
X3200000D3*
D66*
X3900000Y650000D3*
X3650000Y550000D3*
D44*
X3750000Y750000D3*
D45*
X3550000D3*
X3950000D3*
D64*
X1761811Y2968701D3*
X1742126D3*
X1722441D3*
X1702756D3*
X1663386D3*
X1683071D3*
D62*
X1472441Y3007087D3*
D60*
Y3164567D3*
D62*
X1913386Y3007087D3*
D60*
Y3164567D3*
D64*
X1643701Y2968701D3*
X1624016D3*
D58*
X1598425D3*
X1787402D3*
X1566929D3*
X1818898D3*
D56*
X518701Y2937451D3*
Y2837451D3*
Y2737451D3*
X618701D3*
Y2837451D3*
D54*
Y2937451D3*
M02*
