%
M48
M72
T01C0.0236
T02C0.0315
T03C0.0354
T04C0.0360
T05C0.0394
T06C0.0900
%
T01
X4930Y5430
X6805Y8305
X8305Y10805
X11180Y13805
X11805Y14055
X10680Y14305
X16322Y12778
X16322Y11794
X14305Y8805
X13805Y7930
X14305Y6805
X13305Y6305
X15430Y5555
X17503Y5889
X16912Y8054
T02
X2055Y8130
X2055Y6230
T03
X13818Y2555
X14605Y2555
X15393Y2555
X16180Y2555
X16967Y2555
X17755Y2555
X18542Y2555
T04
X4922Y16025
X4922Y16805
X3938Y16805
X3938Y16025
X13055Y17680
X14055Y17680
X15055Y17680
T05
X3930Y1805
X3930Y2805
X4930Y2805
X4930Y1805
X5930Y1805
X5930Y2805
X1805Y10930
X1805Y11930
X1805Y12930
X1805Y13930
X7930Y14805
X7930Y15805
X18180Y15305
X18180Y14305
X18180Y13305
X18180Y12305
X18180Y11305
X18180Y10305
X18180Y9305
X18180Y8305
X18180Y16305
X18180Y17305
T06
X6800Y17875
X2060Y17875
M30
