G75*
%MOIN*%
%OFA0B0*%
%FSLAX24Y24*%
%IPPOS*%
%LPD*%
%AMOC8*
5,1,8,0,0,1.08239X$1,22.5*
%
%ADD10C,0.0000*%
%ADD11C,0.0040*%
%ADD12C,0.0060*%
%ADD13C,0.0059*%
D10*
X002680Y000180D02*
X017215Y000180D01*
X017317Y000182D01*
X017418Y000188D01*
X017519Y000197D01*
X017620Y000211D01*
X017720Y000228D01*
X017819Y000250D01*
X017917Y000275D01*
X018015Y000303D01*
X018111Y000336D01*
X018206Y000372D01*
X018299Y000412D01*
X018391Y000455D01*
X018481Y000502D01*
X018569Y000552D01*
X018655Y000606D01*
X018740Y000662D01*
X018821Y000722D01*
X018901Y000786D01*
X018978Y000852D01*
X019053Y000921D01*
X019124Y000992D01*
X019193Y001067D01*
X019259Y001144D01*
X019323Y001224D01*
X019383Y001305D01*
X019439Y001390D01*
X019493Y001476D01*
X019543Y001564D01*
X019590Y001654D01*
X019633Y001746D01*
X019673Y001839D01*
X019709Y001934D01*
X019742Y002030D01*
X019770Y002128D01*
X019795Y002226D01*
X019817Y002325D01*
X019834Y002425D01*
X019848Y002526D01*
X019857Y002627D01*
X019863Y002728D01*
X019865Y002830D01*
X019865Y017482D01*
X019863Y017578D01*
X019857Y017674D01*
X019848Y017769D01*
X019834Y017864D01*
X019817Y017959D01*
X019796Y018052D01*
X019771Y018145D01*
X019742Y018237D01*
X019710Y018327D01*
X019674Y018416D01*
X019635Y018504D01*
X019592Y018589D01*
X019546Y018674D01*
X019496Y018756D01*
X019443Y018836D01*
X019387Y018914D01*
X019328Y018989D01*
X019266Y019062D01*
X019201Y019133D01*
X019133Y019201D01*
X019062Y019266D01*
X018989Y019328D01*
X018914Y019387D01*
X018836Y019443D01*
X018756Y019496D01*
X018674Y019546D01*
X018589Y019592D01*
X018504Y019635D01*
X018416Y019674D01*
X018327Y019710D01*
X018237Y019742D01*
X018145Y019771D01*
X018052Y019796D01*
X017959Y019817D01*
X017864Y019834D01*
X017769Y019848D01*
X017674Y019857D01*
X017578Y019863D01*
X017482Y019865D01*
X002149Y019865D01*
X002149Y019866D02*
X002063Y019864D01*
X001977Y019859D01*
X001892Y019849D01*
X001807Y019836D01*
X001723Y019819D01*
X001639Y019799D01*
X001557Y019775D01*
X001476Y019747D01*
X001395Y019716D01*
X001317Y019682D01*
X001240Y019644D01*
X001165Y019602D01*
X001091Y019558D01*
X001020Y019510D01*
X000950Y019459D01*
X000883Y019405D01*
X000819Y019349D01*
X000757Y019289D01*
X000697Y019227D01*
X000641Y019163D01*
X000587Y019096D01*
X000536Y019026D01*
X000488Y018955D01*
X000444Y018882D01*
X000402Y018806D01*
X000364Y018729D01*
X000330Y018651D01*
X000299Y018570D01*
X000271Y018489D01*
X000247Y018407D01*
X000227Y018323D01*
X000210Y018239D01*
X000197Y018154D01*
X000187Y018069D01*
X000182Y017983D01*
X000180Y017897D01*
X000180Y002680D01*
X000182Y002582D01*
X000188Y002484D01*
X000197Y002386D01*
X000211Y002289D01*
X000228Y002192D01*
X000249Y002096D01*
X000274Y002001D01*
X000302Y001907D01*
X000335Y001815D01*
X000370Y001723D01*
X000410Y001633D01*
X000452Y001545D01*
X000499Y001458D01*
X000548Y001374D01*
X000601Y001291D01*
X000657Y001211D01*
X000717Y001132D01*
X000779Y001056D01*
X000844Y000983D01*
X000912Y000912D01*
X000983Y000844D01*
X001056Y000779D01*
X001132Y000717D01*
X001211Y000657D01*
X001291Y000601D01*
X001374Y000548D01*
X001458Y000499D01*
X001545Y000452D01*
X001633Y000410D01*
X001723Y000370D01*
X001815Y000335D01*
X001907Y000302D01*
X002001Y000274D01*
X002096Y000249D01*
X002192Y000228D01*
X002289Y000211D01*
X002386Y000197D01*
X002484Y000188D01*
X002582Y000182D01*
X002680Y000180D01*
D11*
X011113Y009450D02*
X011420Y009450D01*
X011573Y009450D02*
X011880Y009450D01*
X011727Y009450D02*
X011727Y009910D01*
X011880Y009757D01*
X012034Y009527D02*
X012034Y009450D01*
X012111Y009450D01*
X012111Y009527D01*
X012034Y009527D01*
X012264Y009527D02*
X012264Y009680D01*
X012341Y009757D01*
X012571Y009757D01*
X012571Y009910D02*
X012571Y009450D01*
X012341Y009450D01*
X012264Y009527D01*
X012724Y009603D02*
X013031Y009603D01*
X013031Y009527D02*
X013031Y009680D01*
X012955Y009757D01*
X012801Y009757D01*
X012724Y009680D01*
X012724Y009603D01*
X012801Y009450D02*
X012955Y009450D01*
X013031Y009527D01*
X013185Y009680D02*
X013338Y009680D01*
X013262Y009834D02*
X013185Y009910D01*
X013262Y009834D02*
X013262Y009450D01*
X013492Y009450D02*
X013568Y009450D01*
X013568Y009527D01*
X013492Y009527D01*
X013492Y009450D01*
X013799Y009450D02*
X013799Y009910D01*
X014029Y009680D01*
X013722Y009680D01*
X013568Y010047D02*
X013492Y010047D01*
X013415Y010123D01*
X013415Y010507D01*
X013645Y010507D01*
X013722Y010430D01*
X013722Y010277D01*
X013645Y010200D01*
X013415Y010200D01*
X013262Y010200D02*
X013262Y010507D01*
X013031Y010507D01*
X012955Y010430D01*
X012955Y010200D01*
X012801Y010277D02*
X012801Y010430D01*
X012724Y010507D01*
X012571Y010507D01*
X012494Y010430D01*
X012494Y010353D01*
X012801Y010353D01*
X012801Y010277D02*
X012724Y010200D01*
X012571Y010200D01*
X012341Y010277D02*
X012341Y010430D01*
X012264Y010507D01*
X012034Y010507D01*
X012034Y010660D02*
X012034Y010200D01*
X012264Y010200D01*
X012341Y010277D01*
X012417Y010950D02*
X012417Y011180D01*
X012494Y011257D01*
X012724Y011257D01*
X012724Y010950D01*
X012264Y010950D02*
X012264Y011257D01*
X012111Y011257D02*
X012034Y011257D01*
X012111Y011257D02*
X012264Y011103D01*
X011880Y011180D02*
X011727Y011180D01*
X011804Y011334D02*
X011727Y011410D01*
X011804Y011334D02*
X011804Y010950D01*
X011573Y010950D02*
X011343Y010950D01*
X011266Y011027D01*
X011266Y011180D01*
X011343Y011257D01*
X011573Y011257D01*
X011573Y011410D02*
X011573Y010950D01*
X011113Y011027D02*
X011113Y011257D01*
X011113Y011027D02*
X011036Y010950D01*
X010806Y010950D01*
X010806Y011257D01*
X010653Y011257D02*
X010653Y010950D01*
X010653Y011103D02*
X010499Y011257D01*
X010422Y011257D01*
X010269Y011257D02*
X010269Y010950D01*
X010269Y011257D02*
X010039Y011257D01*
X009962Y011180D01*
X009962Y010950D01*
X009809Y010950D02*
X009732Y010950D01*
X009732Y011027D01*
X009809Y011027D01*
X009809Y010950D01*
X009578Y011027D02*
X009502Y010950D01*
X009271Y010950D01*
X009271Y010873D02*
X009271Y011257D01*
X009502Y011257D01*
X009578Y011180D01*
X009578Y011027D01*
X009425Y010797D02*
X009348Y010797D01*
X009271Y010873D01*
X009118Y011027D02*
X009041Y010950D01*
X008888Y010950D01*
X008811Y011027D01*
X008811Y011180D01*
X008888Y011257D01*
X009041Y011257D01*
X009118Y011180D01*
X009118Y011027D01*
X008658Y011027D02*
X008581Y010950D01*
X008427Y010950D01*
X008351Y011027D01*
X008351Y011180D01*
X008427Y011257D01*
X008581Y011257D01*
X008658Y011180D01*
X008658Y011027D01*
X008197Y011027D02*
X008120Y010950D01*
X007890Y010950D01*
X007890Y010873D02*
X007890Y011257D01*
X008120Y011257D01*
X008197Y011180D01*
X008197Y011027D01*
X008044Y010797D02*
X007967Y010797D01*
X007890Y010873D01*
X007737Y010950D02*
X007583Y010950D01*
X007660Y010950D02*
X007660Y011410D01*
X007737Y011410D01*
X007737Y011700D02*
X007737Y012007D01*
X007583Y012007D02*
X007507Y012007D01*
X007507Y011700D01*
X007583Y011700D02*
X007430Y011700D01*
X007200Y011777D02*
X007123Y011700D01*
X007200Y011777D02*
X007200Y012084D01*
X007276Y012007D02*
X007123Y012007D01*
X007507Y012160D02*
X007507Y012237D01*
X008044Y012007D02*
X008044Y011777D01*
X007967Y011700D01*
X007737Y011700D01*
X008197Y011700D02*
X008427Y011700D01*
X008504Y011777D01*
X008504Y011930D01*
X008427Y012007D01*
X008197Y012007D01*
X008658Y012007D02*
X008734Y012007D01*
X008888Y011853D01*
X008888Y011700D02*
X008888Y012007D01*
X009118Y012007D02*
X009118Y011700D01*
X009195Y011700D02*
X009041Y011700D01*
X009118Y012007D02*
X009195Y012007D01*
X009348Y012007D02*
X009578Y012007D01*
X009655Y011930D01*
X009655Y011777D01*
X009578Y011700D01*
X009348Y011700D01*
X009118Y012160D02*
X009118Y012237D01*
X010269Y011777D02*
X010346Y011777D01*
X010346Y011700D01*
X010269Y011700D01*
X010269Y011777D01*
X010269Y011700D02*
X010422Y011547D01*
X010653Y011700D02*
X010806Y011700D01*
X010883Y011777D01*
X010883Y011930D01*
X010806Y012007D01*
X010653Y012007D01*
X010576Y011930D01*
X010576Y011853D01*
X010883Y011853D01*
X011036Y011700D02*
X011266Y011700D01*
X011343Y011777D01*
X011343Y011930D01*
X011266Y012007D01*
X011036Y012007D01*
X011036Y012160D02*
X011036Y011700D01*
X011497Y011777D02*
X011497Y011930D01*
X011573Y012007D01*
X011727Y012007D01*
X011804Y011930D01*
X011804Y011777D01*
X011727Y011700D01*
X011573Y011700D01*
X011497Y011777D01*
X011957Y011700D02*
X012187Y011700D01*
X012264Y011777D01*
X012264Y011930D01*
X012187Y012007D01*
X011957Y012007D01*
X012878Y011930D02*
X012878Y011853D01*
X013185Y011853D01*
X013185Y011777D02*
X013185Y011930D01*
X013108Y012007D01*
X012955Y012007D01*
X012878Y011930D01*
X012955Y011700D02*
X013108Y011700D01*
X013185Y011777D01*
X013338Y011700D02*
X013568Y011700D01*
X013645Y011777D01*
X013645Y011930D01*
X013568Y012007D01*
X013338Y012007D01*
X013799Y012007D02*
X013875Y012007D01*
X014029Y011853D01*
X014029Y011700D02*
X014029Y012007D01*
X014182Y012007D02*
X014182Y011700D01*
X014412Y011700D01*
X014489Y011777D01*
X014489Y012007D01*
X014643Y011930D02*
X014643Y011777D01*
X014719Y011700D01*
X014873Y011700D01*
X014950Y011777D01*
X014950Y011930D01*
X014873Y012007D01*
X014719Y012007D01*
X014643Y011930D01*
X015103Y012007D02*
X015333Y012007D01*
X015410Y011930D01*
X015333Y011853D01*
X015180Y011853D01*
X015103Y011777D01*
X015180Y011700D01*
X015410Y011700D01*
X015410Y011410D02*
X015410Y010950D01*
X015410Y011180D02*
X015333Y011257D01*
X015180Y011257D01*
X015103Y011180D01*
X015103Y010950D01*
X014873Y011027D02*
X014796Y010950D01*
X014873Y011027D02*
X014873Y011334D01*
X014950Y011257D02*
X014796Y011257D01*
X014643Y011257D02*
X014489Y011257D01*
X014566Y011334D02*
X014566Y011027D01*
X014489Y010950D01*
X014336Y010950D02*
X014106Y010950D01*
X014029Y011027D01*
X014029Y011180D01*
X014106Y011257D01*
X014336Y011257D01*
X014336Y010797D01*
X014412Y010507D02*
X014182Y010507D01*
X014029Y010507D02*
X013952Y010507D01*
X013952Y010200D01*
X014029Y010200D02*
X013875Y010200D01*
X014182Y010277D02*
X014259Y010353D01*
X014412Y010353D01*
X014489Y010430D01*
X014412Y010507D01*
X014643Y010430D02*
X014643Y010353D01*
X014950Y010353D01*
X014950Y010277D02*
X014950Y010430D01*
X014873Y010507D01*
X014719Y010507D01*
X014643Y010430D01*
X014719Y010200D02*
X014873Y010200D01*
X014950Y010277D01*
X015103Y010200D02*
X015333Y010200D01*
X015410Y010277D01*
X015410Y010430D01*
X015333Y010507D01*
X015103Y010507D01*
X015103Y010660D02*
X015103Y010200D01*
X015180Y009910D02*
X015333Y009910D01*
X015410Y009834D01*
X015180Y009910D02*
X015103Y009834D01*
X015103Y009757D01*
X015410Y009450D01*
X015103Y009450D01*
X014950Y009527D02*
X014643Y009834D01*
X014643Y009527D01*
X014719Y009450D01*
X014873Y009450D01*
X014950Y009527D01*
X014950Y009834D01*
X014873Y009910D01*
X014719Y009910D01*
X014643Y009834D01*
X014489Y009757D02*
X014336Y009910D01*
X014336Y009450D01*
X014489Y009450D02*
X014182Y009450D01*
X014259Y010200D02*
X014182Y010277D01*
X014259Y010200D02*
X014489Y010200D01*
X013952Y010660D02*
X013952Y010737D01*
X013875Y010950D02*
X013799Y010950D01*
X013799Y011027D01*
X013875Y011027D01*
X013875Y010950D01*
X013645Y010950D02*
X013338Y011410D01*
X012878Y011410D02*
X013185Y010950D01*
X013799Y011180D02*
X013875Y011180D01*
X013875Y011257D01*
X013799Y011257D01*
X013799Y011180D01*
X011420Y010660D02*
X011420Y010200D01*
X011190Y010200D01*
X011113Y010277D01*
X011113Y010430D01*
X011190Y010507D01*
X011420Y010507D01*
X010960Y010507D02*
X010960Y010277D01*
X010883Y010200D01*
X010653Y010200D01*
X010653Y010123D02*
X010729Y010047D01*
X010806Y010047D01*
X010653Y010123D02*
X010653Y010507D01*
X010039Y010430D02*
X009885Y010430D01*
X010039Y010200D02*
X010039Y010660D01*
X009732Y010660D01*
X009578Y010430D02*
X009502Y010507D01*
X009348Y010507D01*
X009271Y010430D01*
X009271Y010353D01*
X009578Y010353D01*
X009578Y010277D02*
X009578Y010430D01*
X009578Y010277D02*
X009502Y010200D01*
X009348Y010200D01*
X009118Y010200D02*
X009118Y010507D01*
X008965Y010507D02*
X009118Y010353D01*
X008965Y010507D02*
X008888Y010507D01*
X008734Y010430D02*
X008658Y010507D01*
X008504Y010507D01*
X008427Y010430D01*
X008427Y010353D01*
X008734Y010353D01*
X008734Y010277D02*
X008734Y010430D01*
X008734Y010277D02*
X008658Y010200D01*
X008504Y010200D01*
X008274Y010200D02*
X008274Y010507D01*
X008044Y010507D01*
X007967Y010430D01*
X007967Y010200D01*
X007814Y010277D02*
X007737Y010200D01*
X007507Y010200D01*
X007507Y010507D02*
X007737Y010507D01*
X007814Y010430D01*
X007814Y010277D01*
X007353Y010950D02*
X007200Y010950D01*
X007353Y010950D02*
X007430Y011027D01*
X007430Y011180D01*
X007353Y011257D01*
X007200Y011257D01*
X007123Y011180D01*
X007123Y011103D01*
X007430Y011103D01*
X006969Y011027D02*
X006893Y010950D01*
X006663Y010950D01*
X006509Y011027D02*
X006509Y011180D01*
X006432Y011257D01*
X006279Y011257D01*
X006202Y011180D01*
X006202Y011027D01*
X006279Y010950D01*
X006432Y010950D01*
X006509Y011027D01*
X006663Y011257D02*
X006893Y011257D01*
X006969Y011180D01*
X006969Y011027D01*
X006816Y010660D02*
X006663Y010660D01*
X006586Y010584D01*
X006663Y010430D02*
X006586Y010353D01*
X006586Y010277D01*
X006663Y010200D01*
X006816Y010200D01*
X006893Y010277D01*
X006816Y010430D02*
X006663Y010430D01*
X006816Y010430D02*
X006893Y010507D01*
X006893Y010584D01*
X006816Y010660D01*
X006432Y010507D02*
X006125Y010507D01*
X006432Y010200D01*
X006125Y010200D01*
X005972Y010200D02*
X005818Y010200D01*
X005895Y010200D02*
X005895Y010507D01*
X005972Y010507D01*
X005895Y010660D02*
X005895Y010737D01*
X005972Y010950D02*
X005742Y010950D01*
X005742Y011410D01*
X005742Y011257D02*
X005972Y011257D01*
X006049Y011180D01*
X006049Y011027D01*
X005972Y010950D01*
X005588Y011027D02*
X005588Y011180D01*
X005512Y011257D01*
X005358Y011257D01*
X005281Y011180D01*
X005281Y011103D01*
X005588Y011103D01*
X005588Y011027D02*
X005512Y010950D01*
X005358Y010950D01*
X005281Y010737D02*
X005281Y010660D01*
X005281Y010507D02*
X005281Y010200D01*
X005205Y010200D02*
X005358Y010200D01*
X005512Y010200D02*
X005665Y010200D01*
X005588Y010200D02*
X005588Y010660D01*
X005665Y010660D01*
X005358Y010507D02*
X005281Y010507D01*
X005128Y010950D02*
X005051Y010950D01*
X005051Y011027D01*
X005128Y011027D01*
X005128Y010950D01*
X004898Y011027D02*
X004898Y011180D01*
X004821Y011257D01*
X004591Y011257D01*
X004437Y011180D02*
X004437Y011027D01*
X004361Y010950D01*
X004207Y010950D01*
X004130Y011027D01*
X004130Y011180D01*
X004207Y011257D01*
X004361Y011257D01*
X004437Y011180D01*
X004591Y010950D02*
X004821Y010950D01*
X004898Y011027D01*
X004668Y011700D02*
X004668Y012160D01*
X004437Y012160D01*
X004361Y012084D01*
X004361Y011930D01*
X004437Y011853D01*
X004668Y011853D01*
X004207Y011777D02*
X004130Y011700D01*
X003977Y011700D01*
X003900Y011777D01*
X003747Y011700D02*
X003517Y011700D01*
X003440Y011777D01*
X003440Y011853D01*
X003517Y011930D01*
X003747Y011930D01*
X003900Y012084D02*
X003977Y012160D01*
X004130Y012160D01*
X004207Y012084D01*
X004207Y011777D01*
X003747Y011700D02*
X003747Y012160D01*
X003517Y012160D01*
X003440Y012084D01*
X003440Y012007D01*
X003517Y011930D01*
X003286Y011930D02*
X003286Y012007D01*
X003210Y012007D01*
X003210Y011930D01*
X003286Y011930D01*
X003286Y011777D02*
X003210Y011777D01*
X003210Y011700D01*
X003286Y011700D01*
X003286Y011777D01*
X003210Y011410D02*
X003517Y010950D01*
X003670Y010950D02*
X003670Y011180D01*
X003747Y011257D01*
X003823Y011180D01*
X003823Y010950D01*
X003977Y010950D02*
X003977Y011257D01*
X003900Y011257D01*
X003823Y011180D01*
X005281Y011700D02*
X005512Y011700D01*
X005588Y011777D01*
X005588Y011930D01*
X005512Y012007D01*
X005281Y012007D01*
X005281Y012160D02*
X005281Y011700D01*
X005742Y011700D02*
X005742Y011930D01*
X005818Y012007D01*
X006049Y012007D01*
X006049Y011700D01*
X006202Y011700D02*
X006432Y011700D01*
X006509Y011777D01*
X006432Y011853D01*
X006202Y011853D01*
X006202Y011930D02*
X006202Y011700D01*
X006202Y011930D02*
X006279Y012007D01*
X006432Y012007D01*
X011266Y009910D02*
X011266Y009450D01*
X011420Y009757D02*
X011266Y009910D01*
D12*
X011223Y012785D02*
X011223Y013279D01*
X010980Y013279D02*
X010980Y012785D01*
X011223Y012785D02*
X011593Y012785D01*
X011717Y012908D01*
X011717Y013279D01*
X011960Y013279D02*
X011960Y013402D01*
X012083Y013526D01*
X012453Y013526D01*
X012453Y012785D01*
X012083Y012785D01*
X011960Y012908D01*
X011960Y013032D01*
X012083Y013155D01*
X012453Y013155D01*
X012083Y013155D02*
X011960Y013279D01*
X010980Y013032D02*
X010733Y013279D01*
X010610Y013279D01*
X010366Y013279D02*
X009996Y013279D01*
X009873Y013155D01*
X009873Y012785D01*
X009630Y012908D02*
X009630Y013155D01*
X009506Y013279D01*
X009259Y013279D01*
X009136Y013155D01*
X009136Y013032D01*
X009630Y013032D01*
X009630Y012908D02*
X009506Y012785D01*
X009259Y012785D01*
X008893Y012785D02*
X008893Y013279D01*
X008893Y013032D02*
X008646Y013279D01*
X008523Y013279D01*
X006806Y013279D02*
X006559Y012785D01*
X006312Y013279D01*
X006069Y013279D02*
X005822Y013526D01*
X005822Y012785D01*
X005576Y012785D02*
X006069Y012785D01*
X005333Y012785D02*
X005209Y012785D01*
X005209Y012908D01*
X005333Y012908D01*
X005333Y012785D01*
X004964Y012908D02*
X004841Y012785D01*
X004594Y012785D01*
X004471Y012908D01*
X004471Y013402D01*
X004964Y012908D01*
X004964Y013402D01*
X004841Y013526D01*
X004594Y013526D01*
X004471Y013402D01*
X010366Y013279D02*
X010366Y012785D01*
X013433Y013526D02*
X013927Y013526D01*
X013927Y012785D01*
X014170Y012785D02*
X014416Y013032D01*
X014293Y013032D02*
X014170Y013155D01*
X014170Y013402D01*
X014293Y013526D01*
X014663Y013526D01*
X014663Y012785D01*
X014906Y012785D02*
X014906Y013155D01*
X015030Y013279D01*
X015400Y013279D01*
X015400Y012785D01*
X014663Y013032D02*
X014293Y013032D01*
X013927Y013155D02*
X013680Y013155D01*
D13*
X011153Y016219D02*
X010807Y016502D01*
X010739Y016463D01*
X010668Y016430D01*
X010470Y016907D01*
X010534Y016940D01*
X010592Y016984D01*
X010642Y017037D01*
X010682Y017097D01*
X010711Y017163D01*
X010730Y017233D01*
X010736Y017305D01*
X010728Y017385D01*
X010706Y017463D01*
X010669Y017535D01*
X010620Y017599D01*
X010559Y017653D01*
X010490Y017694D01*
X010414Y017722D01*
X010334Y017735D01*
X010254Y017733D01*
X010175Y017715D01*
X010100Y017684D01*
X010033Y017639D01*
X009976Y017582D01*
X009930Y017516D01*
X009897Y017442D01*
X009878Y017364D01*
X009875Y017283D01*
X009887Y017203D01*
X009913Y017127D01*
X009953Y017057D01*
X010006Y016995D01*
X010069Y016945D01*
X010140Y016907D01*
X009942Y016430D01*
X009871Y016463D01*
X009803Y016502D01*
X009457Y016219D01*
X009219Y016457D01*
X009502Y016803D01*
X009451Y016895D01*
X009411Y016991D01*
X009382Y017092D01*
X008937Y017137D01*
X008937Y017473D01*
X009382Y017518D01*
X009411Y017619D01*
X009451Y017715D01*
X009502Y017807D01*
X009219Y018153D01*
X009457Y018391D01*
X009803Y018108D01*
X009895Y018159D01*
X009991Y018199D01*
X010092Y018228D01*
X010137Y018673D01*
X010473Y018673D01*
X010518Y018228D01*
X010619Y018199D01*
X010715Y018159D01*
X010807Y018108D01*
X011153Y018391D01*
X011391Y018153D01*
X011108Y017807D01*
X011159Y017715D01*
X011199Y017619D01*
X011228Y017518D01*
X011673Y017473D01*
X011673Y017137D01*
X011228Y017092D01*
X011199Y016991D01*
X011159Y016895D01*
X011108Y016803D01*
X011391Y016457D01*
X011153Y016219D01*
X011172Y016238D02*
X011130Y016238D01*
X011060Y016296D02*
X011230Y016296D01*
X011287Y016353D02*
X010989Y016353D01*
X010919Y016411D02*
X011345Y016411D01*
X011381Y016468D02*
X010848Y016468D01*
X010748Y016468D02*
X010652Y016468D01*
X010628Y016526D02*
X011335Y016526D01*
X011288Y016583D02*
X010604Y016583D01*
X010580Y016641D02*
X011241Y016641D01*
X011194Y016698D02*
X010556Y016698D01*
X010532Y016756D02*
X011147Y016756D01*
X011114Y016814D02*
X010509Y016814D01*
X010485Y016871D02*
X011146Y016871D01*
X011173Y016929D02*
X010511Y016929D01*
X010594Y016986D02*
X011197Y016986D01*
X011214Y017044D02*
X010647Y017044D01*
X010684Y017101D02*
X011320Y017101D01*
X011673Y017159D02*
X010710Y017159D01*
X010725Y017216D02*
X011673Y017216D01*
X011673Y017274D02*
X010733Y017274D01*
X010733Y017331D02*
X011673Y017331D01*
X011673Y017389D02*
X010727Y017389D01*
X010710Y017447D02*
X011673Y017447D01*
X011365Y017504D02*
X010685Y017504D01*
X010648Y017562D02*
X011215Y017562D01*
X011199Y017619D02*
X010597Y017619D01*
X010519Y017677D02*
X011175Y017677D01*
X011148Y017734D02*
X010336Y017734D01*
X010325Y017734D02*
X009462Y017734D01*
X009435Y017677D02*
X010090Y017677D01*
X010013Y017619D02*
X009411Y017619D01*
X009395Y017562D02*
X009961Y017562D01*
X009924Y017504D02*
X009245Y017504D01*
X008937Y017447D02*
X009899Y017447D01*
X009884Y017389D02*
X008937Y017389D01*
X008937Y017331D02*
X009877Y017331D01*
X009876Y017274D02*
X008937Y017274D01*
X008937Y017216D02*
X009885Y017216D01*
X009902Y017159D02*
X008937Y017159D01*
X009290Y017101D02*
X009928Y017101D01*
X009964Y017044D02*
X009396Y017044D01*
X009413Y016986D02*
X010017Y016986D01*
X010100Y016929D02*
X009437Y016929D01*
X009464Y016871D02*
X010125Y016871D01*
X010101Y016814D02*
X009496Y016814D01*
X009463Y016756D02*
X010078Y016756D01*
X010054Y016698D02*
X009416Y016698D01*
X009369Y016641D02*
X010030Y016641D01*
X010006Y016583D02*
X009322Y016583D01*
X009275Y016526D02*
X009982Y016526D01*
X009958Y016468D02*
X009862Y016468D01*
X009762Y016468D02*
X009229Y016468D01*
X009265Y016411D02*
X009691Y016411D01*
X009621Y016353D02*
X009323Y016353D01*
X009380Y016296D02*
X009550Y016296D01*
X009480Y016238D02*
X009438Y016238D01*
X009493Y017792D02*
X011117Y017792D01*
X011143Y017849D02*
X009467Y017849D01*
X009420Y017907D02*
X011190Y017907D01*
X011237Y017965D02*
X009373Y017965D01*
X009326Y018022D02*
X011284Y018022D01*
X011331Y018080D02*
X009279Y018080D01*
X009232Y018137D02*
X009768Y018137D01*
X009855Y018137D02*
X010755Y018137D01*
X010842Y018137D02*
X011378Y018137D01*
X011349Y018195D02*
X010913Y018195D01*
X010984Y018252D02*
X011292Y018252D01*
X011234Y018310D02*
X011054Y018310D01*
X011125Y018367D02*
X011177Y018367D01*
X010629Y018195D02*
X009981Y018195D01*
X010094Y018252D02*
X010516Y018252D01*
X010510Y018310D02*
X010100Y018310D01*
X010106Y018367D02*
X010504Y018367D01*
X010498Y018425D02*
X010112Y018425D01*
X010118Y018483D02*
X010492Y018483D01*
X010486Y018540D02*
X010124Y018540D01*
X010129Y018598D02*
X010481Y018598D01*
X010475Y018655D02*
X010135Y018655D01*
X009697Y018195D02*
X009261Y018195D01*
X009318Y018252D02*
X009626Y018252D01*
X009556Y018310D02*
X009376Y018310D01*
X009433Y018367D02*
X009485Y018367D01*
M02*
