M48
;DRILL file {KiCad 4.0.2-stable} date 4/22/2016 8:05:53 PM
;FORMAT={-:-/ absolute / metric / decimal}
FMAT,2
METRIC,TZ
T1C0.635
T2C0.813
T3C1.016
T4C1.041
T5C3.051
%
G90
G05
M71
T1
X105.41Y-89.852
X106.68Y-89.852
X106.68Y-119.38
X106.68Y-122.555
X107.95Y-118.11
X107.95Y-119.38
X111.76Y-58.42
X114.3Y-74.93
X115.57Y-74.93
X122.829Y-79.057
X129.222Y-111.442
X129.54Y-69.215
X129.54Y-71.12
X129.984Y-74.105
X130.175Y-80.01
X130.81Y-102.87
X132.08Y-101.6
X132.08Y-102.87
X132.08Y-105.727
X132.398Y-100.012
X133.667Y-100.012
X133.667Y-101.282
X135.255Y-80.01
X136.525Y-97.155
X136.525Y-98.425
X137.16Y-70.485
X137.795Y-98.425
X137.795Y-99.695
X138.748Y-84.585
X139.065Y-99.695
X139.065Y-100.965
X140.335Y-100.965
X140.97Y-90.487
X141.287Y-102.87
X141.605Y-53.34
X142.24Y-80.01
X142.558Y-95.885
X143.51Y-53.34
X143.51Y-96.52
X144.463Y-72.072
X144.463Y-97.472
X144.463Y-105.093
X144.78Y-80.01
X145.732Y-72.072
X145.732Y-97.472
X146.05Y-84.455
X146.368Y-94.932
X146.368Y-124.777
X146.685Y-86.042
X147.002Y-72.072
X147.32Y-55.88
X147.637Y-84.455
X147.637Y-117.157
X147.637Y-118.427
X148.59Y-82.867
X148.907Y-124.777
X149.542Y-90.17
X150.177Y-120.968
X150.495Y-88.9
X150.812Y-80.645
X151.447Y-81.852
X151.447Y-87.058
X151.447Y-90.17
X152.718Y-124.777
X153.987Y-124.777
X154.305Y-117.475
X155.257Y-106.68
X155.892Y-115.252
X156.528Y-123.507
X157.162Y-94.297
X157.162Y-95.885
X158.115Y-123.825
X159.067Y-116.522
X159.702Y-117.475
X159.702Y-122.555
X165.1Y-74.93
X165.1Y-76.2
X166.052Y-115.57
X166.052Y-116.84
X166.37Y-74.93
X168.593Y-83.82
X169.862Y-82.55
X169.862Y-83.82
X191.135Y-81.597
X191.135Y-84.455
X194.31Y-104.14
X194.31Y-110.49
X194.31Y-116.84
X196.85Y-104.14
X196.85Y-110.49
X196.85Y-116.84
X201.93Y-50.8
X201.93Y-124.46
X203.2Y-50.8
X203.2Y-52.07
X203.2Y-123.19
X203.2Y-124.46
T2
X104.14Y-122.555
X105.41Y-106.68
X105.41Y-116.84
X106.68Y-93.98
X107.95Y-49.53
X107.95Y-57.15
X107.95Y-59.69
X107.95Y-67.31
X107.95Y-72.39
X107.95Y-77.47
X107.95Y-99.06
X107.95Y-104.14
X107.95Y-109.22
X107.95Y-111.76
X107.95Y-114.3
X109.22Y-122.555
X110.49Y-49.53
X110.49Y-57.15
X110.49Y-59.69
X110.49Y-67.31
X110.49Y-72.39
X110.49Y-77.47
X113.03Y-49.53
X113.03Y-57.15
X113.03Y-59.69
X113.03Y-67.31
X113.03Y-71.12
X113.03Y-78.74
X113.03Y-99.06
X113.03Y-104.14
X113.03Y-109.22
X113.03Y-111.76
X113.03Y-114.3
X114.3Y-93.98
X115.57Y-49.53
X115.57Y-57.15
X115.57Y-59.69
X115.57Y-67.31
X115.57Y-71.12
X115.57Y-78.74
X115.57Y-106.68
X115.57Y-116.84
X118.11Y-49.53
X118.11Y-57.15
X118.11Y-59.69
X118.11Y-67.31
X120.65Y-49.53
X120.65Y-57.15
X120.65Y-59.69
X120.65Y-67.31
X120.749Y-116.84
X123.19Y-49.53
X123.19Y-57.15
X123.19Y-59.69
X123.19Y-67.31
X125.631Y-116.84
X125.73Y-49.53
X125.73Y-57.15
X125.73Y-59.69
X125.73Y-67.31
X128.27Y-49.53
X128.27Y-57.15
X128.27Y-59.69
X128.27Y-67.31
X130.81Y-49.53
X130.81Y-57.15
X130.81Y-59.69
X130.81Y-67.31
X130.81Y-114.3
X130.81Y-119.38
X134.62Y-50.8
X134.62Y-55.88
X134.62Y-60.96
X134.62Y-66.04
X138.43Y-49.53
X138.43Y-57.15
X138.43Y-59.69
X138.43Y-67.31
X140.97Y-49.53
X140.97Y-57.15
X140.97Y-59.69
X140.97Y-67.31
X143.51Y-49.53
X143.51Y-57.15
X143.51Y-59.69
X143.51Y-67.31
X146.05Y-49.53
X146.05Y-57.15
X146.05Y-59.69
X146.05Y-67.31
X147.955Y-113.03
X147.955Y-120.65
X148.59Y-49.53
X148.59Y-57.15
X148.59Y-59.69
X148.59Y-67.31
X150.495Y-114.3
X150.495Y-119.38
X151.13Y-49.53
X151.13Y-57.15
X151.13Y-59.69
X151.13Y-67.31
X153.035Y-114.3
X153.035Y-119.38
X153.67Y-49.53
X153.67Y-57.15
X153.67Y-59.69
X153.67Y-67.31
X156.21Y-49.53
X156.21Y-57.15
X156.21Y-59.69
X156.21Y-67.31
X157.48Y-114.3
X157.48Y-119.38
X158.75Y-49.53
X158.75Y-57.15
X158.75Y-59.69
X158.75Y-67.31
X161.29Y-49.53
X161.29Y-57.15
X161.29Y-59.69
X161.29Y-67.31
X161.29Y-79.375
X165.1Y-50.8
X165.1Y-55.88
X165.1Y-60.96
X165.1Y-66.04
X165.1Y-92.71
X166.37Y-79.375
X166.37Y-95.25
X166.37Y-97.79
X166.37Y-100.33
X167.64Y-102.87
X167.64Y-118.11
X170.18Y-60.325
X170.18Y-63.817
X170.18Y-67.31
X170.18Y-73.66
X170.18Y-80.01
X170.18Y-86.36
X170.18Y-102.87
X170.18Y-118.11
X171.45Y-49.53
X171.45Y-52.07
X171.45Y-54.61
X171.45Y-57.15
X171.45Y-70.485
X171.45Y-76.835
X171.45Y-83.185
X171.45Y-95.25
X171.45Y-100.33
X172.72Y-92.71
X172.72Y-102.87
X172.72Y-118.11
X172.72Y-120.65
X175.26Y-92.71
X175.26Y-102.87
X175.26Y-118.11
X176.53Y-97.79
X177.8Y-102.87
X177.8Y-118.11
X179.07Y-49.53
X179.07Y-52.07
X179.07Y-54.61
X179.07Y-57.15
X179.07Y-70.485
X179.07Y-76.835
X179.07Y-83.185
X180.34Y-60.325
X180.34Y-63.817
X180.34Y-67.31
X180.34Y-73.66
X180.34Y-80.01
X180.34Y-86.36
X180.34Y-92.71
X180.34Y-97.79
X180.34Y-100.33
X180.34Y-102.87
X180.34Y-118.11
X180.34Y-120.65
X182.88Y-66.04
X182.88Y-68.58
X182.88Y-71.12
X182.88Y-73.66
X182.88Y-80.01
X182.88Y-86.36
X182.88Y-102.87
X182.88Y-118.11
X182.88Y-122.555
X185.42Y-102.87
X185.42Y-118.11
X187.96Y-66.04
X187.96Y-68.58
X187.96Y-71.12
X187.96Y-73.66
X187.96Y-80.01
X187.96Y-86.36
X187.96Y-97.79
X187.96Y-100.33
X187.96Y-102.87
X187.96Y-118.11
X187.96Y-122.555
X190.5Y-102.87
X190.5Y-118.11
X190.5Y-120.65
X193.04Y-102.87
X193.04Y-118.11
X195.58Y-102.87
X195.58Y-118.11
X198.12Y-102.87
X198.12Y-118.11
X198.12Y-120.65
X200.66Y-102.87
X200.66Y-118.11
T3
X184.15Y-60.96
X186.69Y-60.96
T4
X193.225Y-81.054
X193.225Y-83.345
X193.225Y-85.644
X193.225Y-87.935
X193.225Y-90.226
X195.765Y-79.919
X195.765Y-82.21
X195.765Y-84.501
X195.765Y-86.789
X195.765Y-89.08
X198.305Y-81.054
X198.305Y-83.345
X198.305Y-85.644
X198.305Y-87.935
X198.305Y-90.226
T5
X195.765Y-72.901
X195.765Y-97.889
T0
M30
