<svg width="106" height="99" viewBox="0 0 106 99" fill="none" xmlns="http://www.w3.org/2000/svg">
<path d="M29.5312 15.3906L28.5469 14.6406H22.5V22H28.5469L29.5312 21.25V15.3906ZM40.4531 46.9375L41.3906 47.5469L11.3438 70V6.95312L6 2.78125H36.8906L40.4531 5.59375V23.9219L36.8906 26.7344L40.4531 29.5469V46.9375ZM29.5312 39.1094V34.6562L28.5469 33.9062H22.5V44.5469L29.5312 39.1094Z" fill="black"/>
<path d="M53.2969 53.6406L42.375 45.5312V2.78125H71.4844V19.8906H60.5625V14.6406H53.2969V21.4844H57.8438V33.3438H53.2969V53.6406Z" fill="black"/>
<path d="M84.3281 36.1094V56.4062L72.4688 47.5469L73.4062 46.9375V3.53125L72.4688 2.78125H84.3281V22L91.3594 2.78125H102.281L93.4219 27.0625L102.281 31.375V70L91.125 61.6562V39.3906L84.3281 36.1094Z" fill="black"/>
<path fill-rule="evenodd" clip-rule="evenodd" d="M40.4531 29.5469V46.9375L41.3906 47.5469L11.3437 70V6.95312L5.99999 2.78125H36.8906L40.4531 5.59375V23.9219L36.8906 26.7344L40.4531 29.5469ZM42.375 45.5312L53.2969 53.6406V33.3438H57.8437V21.4844H53.2969V14.6406H60.5625V19.8906H71.4844V2.78125H42.375V45.5312ZM40.375 26.5317V26.937L40.1183 26.7344L40.375 26.5317ZM40.375 2.98392V0.78125H86.3281V10.7123L89.9614 0.78125H105.14L95.9189 26.0536L104.281 30.1242V73.9933L89.125 62.6579V40.646L86.3281 39.2958V60.3968L68.9743 47.4329L71.4062 45.8521V21.8906H59.8437V35.3438H55.2969V57.6166L43.238 48.6631L9.34374 73.9913V7.92904L0.188141 0.78125H37.5849L40.375 2.98392ZM58.5625 19.4844V16.6406H55.2969V19.4844H58.5625ZM73.4062 46.9375L72.4687 47.5469L84.3281 56.4062V36.1094L91.125 39.3906V61.6562L102.281 70V31.375L93.4219 27.0625L102.281 2.78125H91.3594L84.3281 22V2.78125H72.4687L73.4062 3.53125V46.9375ZM27.5312 16.6406H24.5V20H27.5312V16.6406ZM28.5469 22H22.5V14.6406H28.5469L29.5312 15.3906V21.25L28.5469 22ZM28.5469 33.9062L29.5312 34.6562V39.1094L22.5 44.5469V33.9062H28.5469ZM27.5312 35.9062H24.5V40.4719L27.5312 38.1278V35.9062Z" fill="white"/>
<path d="M40.25 67.3203V76.1562H43.2734L43.7656 75.7812V67.6953L43.2734 67.3203H40.25ZM40.25 82.0859V90.8281L34.6719 95V63.4766L32 61.3906H47.4453L49.2265 62.7969V80.6797L47.4453 82.0859H40.25Z" fill="black"/>
<path d="M56.1172 67.3203L55.6484 67.6953V74.2109H59.2812V67.6953L58.8125 67.3203H56.1172ZM55.6484 80.1406V86.8203L50.1875 82.7656V62.7969L52.0156 61.3906H62.7969L64.7422 62.8203V82.7656L59.2812 86.8203V80.1406H55.6484Z" fill="black"/>
<path d="M71.164 79.5547L74.6797 82.2734V67.6953L74.1875 67.3203H71.164V79.5547ZM80.2578 95L65.2344 83.7734L65.7031 83.4688V61.7656L65.2344 61.3906H78.4765L80.2578 62.7969V95Z" fill="black"/>
<path fill-rule="evenodd" clip-rule="evenodd" d="M47.4453 82.0859H40.25V90.8281L34.6719 95V63.4766L32 61.3906H47.4453L49.2265 62.7969V80.6797L47.4453 82.0859ZM48.368 83.9057L48.1396 84.0859H42.25V91.8298L32.6719 98.9933V64.4525L26.1881 59.3906H48.1396L49.7167 60.6357L51.3354 59.3906H79.1709L82.2578 61.8277V98.9913L64.3087 85.5785L57.6484 90.5237V90.7963L57.4648 90.66L57.2812 90.7963V90.5237L48.368 83.9057ZM55.6484 80.1406H59.2812V86.8203L64.7422 82.7656V62.8203L62.7969 61.3906H52.0156L50.1875 62.7969V82.7656L55.6484 86.8203V80.1406ZM65.7031 83.4688L65.2344 83.7734L80.2578 95V62.7969L78.4765 61.3906H65.2344L65.7031 61.7656V83.4688ZM40.25 76.1562V67.3203H43.2734L43.7656 67.6953V75.7812L43.2734 76.1562H40.25ZM59.2812 67.6953V74.2109H55.6484V67.6953L56.1172 67.3203H58.8125L59.2812 67.6953ZM74.6797 82.2734V67.6953L74.1875 67.3203H71.164V79.5547L74.6797 82.2734Z" fill="white"/>
</svg>
