M71
M48
T1F00S00C0.381
T2F00S00C0.635
T3F00S00C0.711
T4F00S00C0.762
T5F00S00C0.813
T6F00S00C0.889
T7F00S00C0.914
T8F00S00C1.118
T9F00S00C1.143
T10F00S00C1.575
T11F00S00C3.302
T12F00S00C3.048
T13F00S00C3.302
%
T01
X0168529Y0029337
X0168910Y0030480
X0181483Y0029972
X0155575Y0030988
X0153162
X0155321Y0028524
X0149479Y0029337
X0148717Y0030099
X0145288Y0030607
X0141478Y0029210
X0136906Y0027432
X0132207Y0029083
X0130302Y0029972
X0128397Y0034036
X0126619
X0125679Y0022835
X0128397Y0022098
Y0020574
X0127889Y0017145
X0122784Y0014478
X0122174Y0011684
X0118110Y0012573
X0118364Y0009652
X0119126Y0009017
X0122047Y0020066
X0132461Y0020574
X0132080Y0022098
X0134112Y0022987
X0135001Y0019558
X0139065Y0018669
X0136652Y0014351
Y0011811
X0134747Y0013589
X0131191Y0010922
X0141478Y0012954
X0149352Y0014859
X0150876Y0014097
X0155702Y0010922
X0154330Y0018898
X0145034Y0020066
X0112141Y0021844
X0110033Y0028727
X0110007Y0029743
X0106655Y0033096
X0105588Y0033172
X0101981Y0033655
X0099568Y0029718
X0099695Y0027559
X0095250Y0028092
X0094336Y0028575
X0093853Y0027178
X0095504Y0031115
X0094920Y0032207
X0090399Y0030226
X0088621Y0029312
X0085293Y0029743
X0084303Y0029235
X0083591Y0028448
X0081153Y0028042
X0079959Y0028118
Y0024536
X0079248Y0021412
X0085090Y0021463
X0086995Y0021209
X0085471Y0024130
X0080899Y0032004
X0088595Y0033680
X0088265Y0008890
X0086741Y0009017
X0084709
X0082931Y0008890
X0082804Y0009906
X0080645Y0009017
X0079121
X0080899Y0014605
X0084963Y0010795
X0090551Y0009017
X0092964
X0094488
X0095631
X0096647Y0010287
X0094361
X0099060Y0010033
X0099695Y0009017
X0098171
X0101981
Y0010668
X0098806Y0012319
X0107188Y0011938
X0109093Y0010160
X0109220Y0009017
X0110871Y0009398
X0112903Y0009017
X0113919Y0008763
X0114808Y0010160
X0115951Y0009398
X0117094Y0012573
X0117221Y0032004
X0115951
X0077419Y0033655
X0074879
X0073228Y0034036
X0068605Y0033757
X0069596Y0032385
X0069799Y0028067
X0068580Y0028092
X0066040Y0028397
X0064313
X0063271
X0057277Y0029210
Y0030226
X0055372Y0032766
X0053086Y0032639
X0053848Y0033655
X0058928Y0033401
X0051460Y0029337
X0050419Y0027432
X0049022Y0029845
X0049276Y0023749
X0048260
X0045466Y0025019
X0043739Y0021971
X0042799Y0016002
X0044704Y0014097
X0043561Y0010287
X0042291
X0040538Y0011049
X0044831Y0009017
X0047371
X0051181
X0054610
X0058928Y0009779
X0060071Y0009017
X0063119
X0064135Y0011430
X0062484Y0012446
X0069215Y0012192
X0068580Y0009906
X0067818Y0009017
X0069469Y0009144
X0071501Y0009017
X0072771Y0010033
X0073279Y0011811
X0072517Y0012573
X0070358Y0015240
X0070739Y0017145
X0069000Y0017106
X0075565Y0017145
X0076327Y0021412
X0077546
X0073787
X0072314
X0070866Y0024714
X0073609Y0029337
X0074879Y0029972
X0077419Y0028575
X0076962Y0008636
X0075311Y0009017
X0060071Y0017272
X0061087Y0021285
X0062814
X0050673Y0016002
X0051054Y0014986
X0051816Y0012319
X0048895Y0012065
X0045085Y0032563
X0039116Y0027432
X0034671Y0028804
X0033325Y0028600
X0030328Y0027534
X0029896Y0026492
Y0025222
X0029972Y0023952
X0026670Y0025222
X0025425Y0022352
X0026543Y0020142
X0028702Y0017729
X0035433Y0018872
X0036195Y0021539
X0036779Y0011074
X0027661Y0028651
X0025806Y0028981
X0022479Y0029718
X0020066Y0028880
X0017907Y0027534
X0017501Y0033782
X0011049Y0029159
X0007366
X0006198Y0030429
X0006223Y0025781
X0004826
X0009728Y0021209
X0026924Y0032004
X0029591
X0031115Y0035433
X0030607Y0039497
X0033020Y0039243
X0029591Y0048133
X0020574Y0049784
X0018923Y0049276
X0014732
X0010033
X0010287Y0035712
X0020701Y0053721
Y0058166
X0031801Y0063170
Y0064389
X0032791Y0064491
X0032766Y0065583
X0033045Y0067513
X0035865Y0063449
X0035509Y0062509
X0035128Y0061595
X0041224Y0064973
X0045720Y0064160
X0043434Y0058471
X0043129Y0055804
X0041707Y0056642
X0041732Y0054813
X0041275Y0047676
X0041402Y0044577
X0041275Y0038989
X0044577Y0036957
Y0035179
X0052324Y0034163
X0052451Y0040513
X0054356Y0040005
X0054737Y0042037
X0053315Y0042164
X0056642Y0041910
Y0040132
X0057658Y0036449
X0058649Y0035255
X0059690Y0036271
Y0037338
X0062865Y0037465
Y0035941
X0062967Y0034671
X0065557Y0034925
X0067488
X0069596Y0035306
X0063500Y0038608
X0063119Y0039624
X0062865Y0040640
X0063119Y0042291
X0064770
Y0040640
Y0043942
X0061849Y0044450
X0060833Y0044196
X0062738Y0046609
X0062484Y0047625
X0063094Y0048438
X0061595Y0048260
Y0049721
X0062230Y0050521
X0063373Y0050419
X0064389Y0050165
X0065329Y0050622
X0066370Y0049581
X0065913Y0048514
X0067412
X0066802Y0047371
X0070155Y0051791
X0070358Y0054864
X0068580
X0073025
X0075438
X0076635Y0054861
X0077724Y0054864
X0077470Y0044069
X0075692
X0074651
X0072492Y0043637
X0071501Y0043815
X0063119Y0052705
X0063373Y0053848
Y0056134
Y0057658
Y0059309
Y0060909
Y0062611
Y0064262
Y0065659
X0063754Y0067310
X0063373Y0068834
Y0070993
X0060300Y0067843
X0059182Y0067564
X0060376Y0061138
X0057658Y0060960
X0055372Y0060706
X0056515Y0059182
X0057404Y0058293
X0059309
X0059436Y0057277
X0059690Y0056134
X0060071Y0055118
X0057658Y0054229
X0056515Y0053340
X0053975Y0053848
X0052832
X0053594Y0057023
X0054229Y0058039
X0055499
X0051689Y0060706
X0051892Y0066980
X0055880Y0072517
X0056515Y0073279
X0047371Y0072390
X0046228
X0045085Y0072136
X0043866
X0044958Y0049682
X0048133Y0050546
Y0052197
X0049022Y0045466
X0050609Y0045402
X0053340Y0048260
X0056642Y0047879
Y0049784
X0048743Y0041656
X0045898Y0043307
X0079807Y0044069
X0083566Y0042672
Y0041529
X0085090Y0044196
X0087122Y0044323
Y0047117
X0086360Y0048006
X0085217
X0084074
X0082804Y0047879
X0083135Y0051816
X0083693Y0054864
X0082550
X0079502
X0085852
X0088646
X0090424Y0054991
Y0056134
Y0057277
Y0060579
X0090348Y0061595
X0090424Y0062738
X0090297Y0064059
X0090424Y0065151
Y0066929
X0090348Y0068072
X0090424Y0069088
X0090297Y0070434
X0090424Y0071628
X0094488Y0065151
X0099441Y0059944
X0100635Y0060579
X0101346Y0056388
X0099314Y0055118
X0099060Y0051816
X0098679Y0049657
X0101473Y0050292
X0102870Y0052578
X0104521Y0056007
X0105664Y0056896
X0103632Y0058293
X0109982Y0059182
X0109601Y0056261
X0109093Y0051181
X0109728Y0047752
X0109601Y0044958
X0111506
X0113665
X0114808
X0114935Y0043942
Y0042545
X0113030
X0110998Y0043180
X0111252Y0040894
Y0037338
X0113157Y0035687
X0116713
X0114808Y0039116
X0117475Y0042037
X0117348Y0044577
X0116459Y0048260
X0116713Y0049657
X0117348Y0053467
X0113157Y0050800
X0115062Y0058293
X0114808Y0069342
Y0072517
X0111760Y0068707
X0110871Y0069469
X0110109Y0068707
X0108585
X0106934
X0109347Y0069977
X0108966Y0063881
X0105283
X0086614Y0061493
X0090551Y0053340
X0088011Y0046355
X0088773Y0041529
X0089764Y0037668
X0090551Y0035814
X0088595Y0034773
X0084455Y0034544
X0085217Y0036068
X0081940Y0034544
X0093726Y0034798
X0096012Y0034798
X0100355Y0035128
X0100889Y0036068
X0101092Y0038735
X0098679Y0036830
X0093447Y0037668
X0096393Y0043434
X0098806Y0044450
X0100838Y0046609
X0101473Y0042672
X0081382Y0068834
X0118364Y0066167
X0120650Y0065659
Y0059182
X0121031Y0055372
X0123571Y0055245
Y0053213
X0122174
X0120523Y0053086
X0122301Y0049784
X0118110Y0049657
X0120523Y0047244
X0118745Y0044958
X0119634Y0043180
X0119761Y0041783
X0118491Y0039116
X0123698Y0039624
Y0038481
X0123825Y0041783
X0124079Y0043053
X0122682Y0044958
X0124587Y0047117
X0125984Y0046863
X0127762Y0045466
X0127635Y0044323
X0130302Y0046863
X0134747Y0048387
X0135633Y0052324
X0136903
X0136141Y0053594
X0134998Y0054864
X0135433Y0058064
X0137541Y0058141
X0140614Y0058420
X0143510Y0058674
X0144269Y0055499
Y0054229
Y0052959
Y0051689
X0146428Y0053721
Y0055499
X0147828Y0049530
X0148844Y0050419
X0150749Y0049784
X0151511Y0051435
X0151130Y0052705
X0155702Y0051689
X0155829Y0050546
X0155219Y0049073
X0152756Y0048260
X0153032Y0046990
Y0045720
X0151282Y0046990
X0151508Y0043053
X0148336Y0040894
X0148107Y0037059
X0149098Y0035306
X0150873
X0151638Y0037084
X0152908
X0155626Y0035433
X0145263Y0035331
X0144704Y0037186
X0141783Y0037211
X0138862Y0037313
X0138684Y0043561
Y0045085
X0141097Y0045720
X0140716Y0046990
X0140205Y0050546
X0140078Y0052959
X0138808Y0052578
Y0054737
X0132207Y0055753
X0130048Y0055626
X0128905
X0128651Y0053340
X0129921
X0131191
X0126111Y0052959
X0128905Y0065151
X0127254Y0069342
X0124714Y0071628
X0130302Y0073025
X0133731Y0071374
X0141097Y0072771
X0143256Y0072263
X0145415Y0071882
X0144272Y0069850
X0143129Y0067818
X0141097Y0066548
X0149225Y0065278
X0155829Y0066548
X0156083Y0053340
X0145288Y0048260
X0131064Y0038481
X0128143
X0121539Y0035052
X0158115Y0035433
X0160655
X0160401Y0037084
X0164084Y0035560
X0165354
X0166624Y0037084
X0167894
X0168402Y0035814
X0173228Y0036195
X0178029Y0036246
X0181991
X0185420Y0036703
X0186817
X0186055Y0040894
X0179578Y0042164
X0179705Y0045974
X0181864Y0044704
Y0047371
X0177927Y0050546
X0177419Y0052324
X0177479Y0054931
X0176911Y0055880
X0175514Y0053594
X0173348Y0052331
X0169799Y0055245
X0168529Y0056642
X0165989Y0055118
X0163449Y0055626
X0162306Y0053340
X0158115Y0054229
Y0051689
Y0050419
Y0049149
X0161798Y0046863
X0162306Y0044704
X0162179Y0043307
X0161290Y0044069
Y0042164
X0166878Y0042545
Y0043688
X0167005Y0045339
X0170561Y0043815
X0171958
X0171196Y0046355
X0175895Y0045339
X0176022Y0043180
Y0041656
X0172720Y0041021
X0168783
X0171577Y0059690
X0170815Y0066040
X0173482Y0068580
X0173355Y0073406
X0166243Y0073660
X0166116Y0071628
X0165227Y0072390
X0163068Y0070612
X0160909Y0072390
X0160020Y0071628
X0159893Y0073660
X0160909Y0068580
X0166116
X0166243Y0063500
Y0062230
X0163449Y0061214
X0162306
X0159893Y0062230
Y0063500
X0179324Y0068707
X0180721
X0183896
X0187198
X0191262
X0199009
X0199136Y0072136
X0197688Y0078588
X0198653Y0097104
X0198628Y0105537
X0193929Y0107950
X0195072Y0110109
X0187071Y0106883
X0182372Y0106045
X0181356Y0105283
X0183896Y0104267
X0177546
X0176530Y0106756
X0174625Y0110490
X0169418
X0164592Y0109601
X0165100Y0108204
X0164465Y0103632
X0164846Y0097282
X0167081Y0097130
X0166624Y0093218
X0160401Y0091872
X0159309Y0089281
X0161036Y0087630
X0163195Y0082931
X0169672Y0082169
Y0080010
X0167894Y0078613
X0166243Y0075184
X0163830
X0162306
X0159893
X0158242Y0076327
X0170815Y0088519
X0172847Y0086614
X0178486Y0085725
X0187452Y0087376
X0189611Y0093218
X0196520Y0087833
X0190754Y0081153
X0185928Y0077800
X0181610
X0178054Y0097536
X0176657Y0097384
X0170942Y0104394
X0159029Y0112370
X0153035Y0108204
X0153010Y0107086
X0154813Y0106045
X0151130Y0102870
X0150241Y0100457
X0148819Y0097333
Y0095580
X0146355Y0094894
X0144526Y0094209
X0143434Y0093904
X0144145Y0093091
X0144196Y0090145
X0146533Y0090907
X0146431Y0086004
X0148920Y0085166
X0152146Y0085217
X0152273Y0086360
X0153416Y0088519
X0156489Y0089205
X0150368Y0089662
X0151638Y0082296
X0148082Y0081407
X0144653
X0145415Y0079883
X0144272Y0077851
X0143129Y0075819
X0141859Y0082677
X0138735Y0083515
X0140741Y0085827
X0139751Y0090957
X0138049Y0092583
X0137033Y0090297
X0132842Y0089408
X0131445Y0089154
X0128905Y0088265
X0127762
X0126365Y0090551
X0123063Y0088265
X0121158
X0120396Y0090551
X0118618Y0089408
X0119253Y0094869
X0120269Y0094412
X0120777Y0102870
X0120828Y0105740
X0123571Y0107188
X0125603Y0106680
X0126619
X0127254Y0104521
X0128524Y0104902
X0130937Y0102997
X0133350Y0106680
X0135636Y0105918
X0137617Y0104496
X0140335Y0102235
X0141783Y0101473
X0146177Y0104521
X0145796Y0107569
X0143713Y0107366
X0140513Y0108001
X0139065Y0108077
X0138811Y0109728
X0139319Y0110744
X0138430Y0111379
X0135890Y0109982
X0135255Y0113411
X0128702Y0110871
X0128651Y0109855
X0127762Y0111506
X0124587Y0110617
X0124460Y0104521
X0118135Y0103530
X0118237Y0108661
X0146558Y0110490
X0156489Y0100203
X0154051Y0077470
X0152908Y0077343
X0151003Y0076962
X0152781Y0075184
X0135636Y0076581
X0131572Y0076454
X0131699Y0079883
X0133858Y0082423
X0124206Y0080391
X0122428
X0124333Y0078105
X0120269Y0075819
X0114681
Y0074295
X0114554Y0077216
X0113284Y0077343
X0111760
X0110109
X0108585
X0106934
X0106299Y0075819
X0110871Y0075184
X0110363Y0080518
X0114275Y0081305
X0116027Y0080950
X0115037Y0083134
X0114275Y0085700
X0115799Y0086030
X0113614Y0089611
X0113665Y0091948
X0115443Y0091440
X0115316Y0094920
X0114224Y0103530
X0112090Y0102311
X0110388Y0103784
X0109245Y0103810
X0109779Y0112268
X0111557Y0112141
X0103175Y0107950
X0098603Y0110363
X0101092Y0102489
X0095428Y0099797
X0094234Y0100178
X0093421Y0099543
X0092710Y0098806
X0092126Y0097993
X0093523Y0098171
X0089967Y0097536
X0089408Y0096672
X0086411Y0098298
X0085293Y0099009
X0084277Y0098628
X0082880Y0096698
X0080416Y0097663
X0079553Y0106934
X0078283Y0111887
Y0113157
X0087935Y0108839
Y0102489
X0090576
X0091719Y0105512
X0091034Y0087681
X0089383Y0088163
X0088341Y0087782
Y0084912
X0087452Y0081915
X0089408
X0090424Y0082804
X0091669Y0082067
X0090424Y0080518
Y0078740
Y0077648
Y0076606
Y0075311
X0090043Y0074295
X0093472Y0075565
X0095072Y0077826
X0097180Y0078105
X0098933Y0079883
X0095860Y0081026
X0096012Y0085166
X0097409Y0088798
X0097917Y0090322
X0099390Y0089814
X0100101Y0090856
X0106807Y0090830
X0104089Y0086538
X0105054Y0084963
X0104902Y0083541
X0104140Y0082042
X0105283Y0080899
X0116840Y0078232
X0093015Y0088163
X0084353
X0082956Y0087401
X0081559Y0088163
X0084150Y0084861
X0083947Y0081915
X0085090
X0082347
X0081407Y0081407
X0080264Y0082042
X0079121
X0077978
X0076708
X0074549
X0073279Y0081915
X0071374
X0070358Y0081153
X0069596Y0081915
X0068326
X0065659Y0082042
X0062611Y0082169
X0063373Y0082931
Y0080899
Y0079756
Y0078613
Y0076708
Y0075057
Y0073914
X0060325Y0074803
X0056515Y0074930
X0055880Y0074092
Y0075768
X0056515Y0076606
X0055880Y0077546
X0056515Y0078867
Y0080391
X0057099Y0083160
X0057125Y0084582
X0058191Y0084150
X0058928Y0084963
X0058166Y0085725
X0058928Y0086487
X0058039Y0087249
X0059436Y0088138
X0060198Y0087452
X0061214Y0087071
X0060325Y0079502
X0049403Y0081788
X0047879
X0046863
X0047320Y0083693
X0045847Y0083820
X0045212Y0084658
X0044450Y0083439
X0044196Y0082423
X0043866Y0078232
X0045034Y0078207
X0044679Y0076708
X0043891Y0075946
X0044729Y0074930
X0045644Y0074092
X0046558Y0077394
X0047498Y0077978
X0047549Y0088138
X0048412Y0088697
X0049454
X0046558
X0045593Y0088138
X0044348Y0087935
X0043129Y0098019
X0040996
X0039776Y0102565
X0040640Y0105410
Y0106680
Y0111760
Y0113030
X0044196
X0046101Y0111760
Y0109220
X0047498Y0102489
X0046787Y0097993
X0056820Y0096698
X0057988Y0101600
X0058826Y0102184
X0057125Y0103632
X0056286Y0102895
X0053086Y0105410
X0053111Y0106629
X0055194Y0107950
Y0109220
X0058547
Y0111760
X0053213
Y0113030
X0070282Y0110109
X0074473Y0108966
X0075362Y0103378
X0076098Y0100432
X0072212Y0100457
X0072873Y0096698
X0068326Y0097663
X0063805Y0096698
X0065811Y0103353
X0067742Y0103378
X0069850Y0084963
X0072695Y0085674
X0073635Y0085242
X0077089Y0084963
X0038227Y0102083
Y0103099
X0033782Y0104648
Y0107315
X0031877Y0106426
X0026873Y0103175
X0029058Y0098349
X0005334Y0101092
X0003048
X0021336Y0119126
X0022352Y0120853
X0024511Y0119126
X0027178Y0120853
X0031623Y0116332
X0033782Y0117348
Y0114173
X0036195Y0115062
X0040640Y0114300
X0044704Y0115062
Y0120269
X0041529Y0120015
X0039878Y0123190
X0051435Y0122809
X0053848Y0122555
X0053213Y0114300
X0061849Y0120142
X0066421Y0125603
X0073787Y0127889
X0077851Y0125730
X0076454Y0121666
X0072517Y0119253
X0071425Y0117221
Y0113665
X0080442Y0114427
X0079553Y0115697
X0078537Y0118237
X0078283Y0122682
X0084836Y0123063
X0084709Y0121920
X0083744Y0118237
Y0115697
X0087808Y0114935
X0089047Y0114711
X0088443Y0119253
X0092837Y0117475
X0094996Y0116459
X0097663Y0113665
X0098679Y0114554
X0101092Y0114300
X0101524Y0116205
X0103810Y0120015
X0102108Y0124206
X0100254Y0124841
X0105207Y0125603
X0107239Y0127762
X0112649Y0128270
X0110744Y0124968
X0109982Y0123571
X0110160Y0118872
X0113157Y0120396
X0115316Y0122707
X0105791Y0132918
X0094488Y0121920
X0086157Y0125476
X0083490
X0118135Y0121463
X0118237Y0114097
X0124587Y0113919
X0124968Y0115824
X0128651Y0114046
X0134493Y0114808
X0139065Y0114173
X0145034Y0114808
X0147320Y0116713
X0150368Y0119507
X0151130Y0122682
X0149479Y0125984
X0150876Y0127508
X0150622Y0129794
X0147066Y0128397
X0146304Y0127381
X0135255Y0123063
X0120396Y0129540
X0153924Y0114554
X0163957Y0114173
X0177546Y0117221
X0179197
X0181991Y0117094
X0186944Y0122047
X0186842Y0132613
X0184023Y0132588
X0181356
X0195707Y0132842
X0162814Y0131699
X0197358Y0132842
X0199136
T02
X0101092Y0016002
X0108712
X0116332
Y0023622
X0108712
X0101092
X0022504Y0026137
X0022860Y0032004
X0021844Y0043307
T03
X0103378Y0030607
X0106934
X0052959Y0013208
X0050419
X0029210Y0013589
X0025654
X0028448Y0030607
X0030988
X0025273Y0042037
Y0044577
X0026416Y0048768
Y0051308
Y0055499
Y0058039
X0033020Y0058674
Y0056134
Y0051943
Y0049403
X0018440Y0044577
Y0042037
X0011455
Y0044577
X0004216
Y0042037
X0044323Y0061214
X0047879
X0050038Y0101981
X0045212
X0094488Y0123444
Y0128524
T04
X0197739Y0022733
Y0025273
Y0027813
Y0032893
X0192659
Y0027813
Y0025273
Y0022733
X0186563Y0020701
X0184023
X0181483
Y0025781
X0184023
X0186563
X0176403
Y0020701
X0159131
Y0025781
X0156591
X0154051
Y0020701
X0156591
X0148971
Y0025781
X0189484Y0035814
Y0040894
Y0043434
Y0045974
X0194564
Y0043434
Y0040894
Y0035814
X0193802Y0090805
X0191262
Y0095885
X0193802
X0196342
Y0090805
X0186182
Y0095885
X0180467
X0177927
X0175387
X0170307
Y0090805
X0175387
X0177927
X0180467
X0162941Y0105537
Y0108077
Y0110617
X0157861
Y0108077
Y0105537
X0028067Y0101600
X0022987
Y0096520
Y0093980
Y0091440
X0028067
Y0093980
Y0096520
X0019431Y0113030
X0014351
X0011811
X0009271
Y0118110
X0011811
X0014351
X0019431
X0047498Y0123952
Y0129032
X0052578
X0055118
X0057658
Y0123952
X0055118
X0052578
X0148209Y0124714
Y0127254
Y0129794
X0153289
Y0127254
Y0124714
X0155956
Y0127254
Y0129794
Y0119634
X0153289
X0148209
X0161036
X0163703
X0162941Y0115697
X0157861
X0161036Y0124714
Y0127254
Y0129794
X0163703
Y0127254
Y0124714
X0168783
Y0127254
Y0129794
X0171450
Y0127254
Y0124714
X0176530
Y0127254
Y0129794
X0179197
Y0127254
Y0124714
Y0119634
X0176530
X0171450
X0168783
X0184277
X0186944
Y0124714
Y0127254
Y0129794
X0184277
Y0127254
Y0124714
X0192024
Y0127254
Y0129794
X0194691
Y0127254
Y0124714
Y0119634
X0192024
X0199771
Y0124714
Y0127254
Y0129794
T05
X0122225Y0105918
Y0108458
Y0110998
X0114605
Y0108458
Y0105918
X0102413Y0109474
X0099873
X0097333
X0094793
X0091745
X0089205
X0086665
X0084125
X0080823
X0078283
Y0101854
X0080823
X0084125
X0086665
X0089205
X0091745
X0094793
X0097333
X0099873
X0102413
X0075743
X0073203
Y0109474
X0075743
X0114605Y0113538
X0114681Y0116459
Y0118999
Y0121539
Y0124079
X0122301
Y0121539
Y0118999
Y0116459
X0122225Y0113538
T06
X0047244Y0012573
X0032004
X0019558Y0013208
X0014478
X0009398
X0004318
Y0030988
X0009398
X0014478
X0019558
X0025019Y0063881
Y0068961
Y0073025
Y0078105
X0016764Y0101981
Y0107061
X0007747
Y0101981
T07
X0014732Y0055626
Y0058166
Y0060706
Y0063246
X0017272Y0061976
X0017264Y0059448
Y0056908
Y0054368
Y0069354
Y0071894
X0014732Y0073152
Y0070612
Y0075692
Y0078232
X0017272Y0076962
X0017264Y0074434
X0018288Y0128143
X0020828
Y0130683
X0023368
X0025908
X0028448
X0030988
X0033528
X0036068
Y0128143
X0033528
X0030988
X0028448
X0025908
X0023368
X0018288Y0130683
X0015748
Y0128143
X0038608
Y0130683
X0128397Y0117729
X0130937
X0133477
X0139065
X0141605
X0144145
T08
X0180213Y0059436
X0190754Y0059563
Y0087503
X0180213Y0087376
T09
X0024130Y0017653
T10
X0005334Y0051308
Y0066294
Y0081280
T11
X0198628Y0012954
X0008166Y0090970
X0130937Y0128778
X0141605
T12
X0008382Y0053086
Y0064516
Y0068072
Y0079502
T13
X0094742Y0022606
X0008166Y0005575
X0152781Y0111633
M30
