%FSAX43Y43*%
%MOMM*%
G71*
G01*
G75*
%ADD10R,11.430X1.524*%
%ADD11R,30.480X1.524*%
%ADD12R,1.524X0.305*%
%ADD13R,0.305X1.524*%
%ADD14R,1.524X1.270*%
%ADD15R,0.762X0.889*%
%ADD16O,0.432X1.524*%
%ADD17R,0.432X1.524*%
%ADD18R,1.778X2.286*%
%ADD19R,1.270X1.143*%
%ADD20R,1.524X3.048*%
%ADD21R,0.889X0.762*%
%ADD22R,3.048X1.524*%
%ADD23R,1.270X1.524*%
%ADD24R,2.286X1.778*%
%ADD25R,1.524X0.508*%
%ADD26O,0.610X2.032*%
%ADD27R,1.143X1.270*%
%ADD28R,1.778X1.524*%
%ADD29R,1.524X1.778*%
%ADD30R,1.524X2.032*%
%ADD31R,2.540X0.610*%
%ADD32O,2.540X0.610*%
%ADD33O,1.778X3.048*%
%ADD34R,5.588X6.350*%
%ADD35R,3.810X2.032*%
%ADD36R,2.032X1.524*%
%ADD37R,1.727X1.219*%
%ADD38O,1.727X1.219*%
%ADD39O,2.540X1.270*%
%ADD40O,2.032X0.610*%
%ADD41R,15.240X5.080*%
%ADD42R,2.540X1.778*%
%ADD43R,0.914X1.270*%
%ADD44R,0.914X0.914*%
%ADD45R,1.778X2.540*%
%ADD46R,3.048X2.286*%
%ADD47R,1.270X1.016*%
%ADD48R,1.016X1.270*%
%ADD49R,1.780X0.420*%
%ADD50R,1.780X0.420*%
%ADD51O,1.016X5.080*%
%ADD52O,2.032X0.762*%
%ADD53R,1.727X1.829*%
%ADD54R,1.778X0.508*%
%ADD55R,2.540X0.635*%
%ADD56R,0.508X1.524*%
%ADD57R,0.508X1.778*%
%ADD58R,0.610X2.032*%
%ADD59R,2.032X0.610*%
%ADD60R,21.590X1.524*%
%ADD61R,1.524X14.859*%
%ADD62O,8.636X8.382*%
%ADD63R,7.874X6.096*%
%ADD64R,1.727X0.813*%
%ADD65C,0.203*%
%ADD66C,0.356*%
%ADD67C,0.457*%
%ADD68C,0.305*%
%ADD69C,1.270*%
%ADD70C,0.508*%
%ADD71C,0.406*%
%ADD72C,0.635*%
%ADD73C,0.381*%
%ADD74C,0.584*%
%ADD75C,0.254*%
%ADD76C,0.813*%
%ADD77C,0.711*%
%ADD78C,0.889*%
%ADD79R,25.146X25.400*%
%ADD80R,1.397X0.635*%
%ADD81C,1.270*%
%ADD82C,1.651*%
%ADD83C,1.524*%
%ADD84R,1.270X1.270*%
%ADD85C,1.626*%
%ADD86C,3.302*%
%ADD87R,10.160X7.620*%
%ADD88C,2.286*%
%ADD89C,6.350*%
%ADD90C,1.930*%
%ADD91C,5.842*%
%ADD92C,1.905*%
%ADD93R,1.905X1.905*%
%ADD94C,1.575*%
%ADD95C,1.727*%
%ADD96R,1.727X1.727*%
%ADD97C,0.813*%
%ADD98R,24.130X1.524*%
%ADD99R,2.032X30.480*%
%ADD100R,1.016X0.914*%
%ADD101R,0.914X1.016*%
%ADD102R,0.762X0.762*%
%ADD103R,1.829X1.727*%
%ADD104R,2.032X3.810*%
%ADD105R,1.270X0.914*%
%ADD106R,2.286X3.048*%
%ADD107O,0.762X2.032*%
%ADD108R,1.194X0.787*%
%ADD109O,1.194X0.787*%
%ADD110R,5.080X2.032*%
%ADD111R,1.270X2.794*%
%ADD112R,1.270X3.048*%
%ADD113C,0.200*%
%ADD114C,0.127*%
D10*
X0027356Y0061087D02*
D03*
D11*
X0016332Y0009677D02*
D03*
D12*
X0061835Y0079140D02*
D03*
X0091935Y0077140D02*
D03*
X0091935Y0077640D02*
D03*
X0091935Y0078140D02*
D03*
X0061400Y0022039D02*
D03*
X0061400Y0022539D02*
D03*
X0061400Y0023039D02*
D03*
X0061400Y0023539D02*
D03*
X0061400Y0024039D02*
D03*
X0061400Y0024539D02*
D03*
X0061400Y0025039D02*
D03*
X0061400Y0025539D02*
D03*
X0061400Y0026039D02*
D03*
X0061400Y0026539D02*
D03*
X0061400Y0027539D02*
D03*
X0061400Y0028039D02*
D03*
X0061400Y0028539D02*
D03*
X0061400Y0029039D02*
D03*
X0061400Y0029539D02*
D03*
X0061400Y0030039D02*
D03*
X0061400Y0030539D02*
D03*
X0061400Y0031039D02*
D03*
X0061400Y0031539D02*
D03*
X0061400Y0032039D02*
D03*
X0061400Y0032539D02*
D03*
X0061400Y0033039D02*
D03*
X0061400Y0033539D02*
D03*
X0061400Y0034039D02*
D03*
X0061400Y0034539D02*
D03*
X0061400Y0035039D02*
D03*
X0061400Y0035539D02*
D03*
X0061400Y0036039D02*
D03*
X0061400Y0036539D02*
D03*
X0061400Y0037039D02*
D03*
X0061400Y0037539D02*
D03*
X0061400Y0038039D02*
D03*
X0061400Y0038539D02*
D03*
X0061400Y0039039D02*
D03*
X0061400Y0039539D02*
D03*
X0061400Y0040039D02*
D03*
X0061400Y0042539D02*
D03*
X0061400Y0043039D02*
D03*
X0061400Y0043539D02*
D03*
X0087100Y0043539D02*
D03*
X0087100Y0043039D02*
D03*
X0087100Y0042539D02*
D03*
X0087100Y0042039D02*
D03*
X0087100Y0041539D02*
D03*
X0087100Y0041039D02*
D03*
X0087100Y0034539D02*
D03*
X0087100Y0034039D02*
D03*
X0087100Y0030539D02*
D03*
X0087100Y0030039D02*
D03*
X0087100Y0027539D02*
D03*
X0087100Y0026039D02*
D03*
X0087100Y0025539D02*
D03*
X0087100Y0025039D02*
D03*
X0087100Y0024539D02*
D03*
X0087100Y0024039D02*
D03*
X0087100Y0023539D02*
D03*
X0087100Y0023039D02*
D03*
X0087100Y0022539D02*
D03*
X0087100Y0022039D02*
D03*
X0061400Y0042039D02*
D03*
X0061400Y0041539D02*
D03*
X0061400Y0041039D02*
D03*
X0061400Y0040539D02*
D03*
X0087100Y0026539D02*
D03*
X0087100Y0027039D02*
D03*
X0087100Y0028039D02*
D03*
X0087100Y0028539D02*
D03*
X0087100Y0029039D02*
D03*
X0087100Y0029539D02*
D03*
X0087100Y0031039D02*
D03*
X0087100Y0031539D02*
D03*
X0087100Y0032039D02*
D03*
X0087100Y0032539D02*
D03*
X0087100Y0033039D02*
D03*
X0087100Y0033539D02*
D03*
X0087100Y0035039D02*
D03*
X0087100Y0035539D02*
D03*
X0087100Y0036039D02*
D03*
X0087100Y0036539D02*
D03*
X0087100Y0037039D02*
D03*
X0087100Y0037539D02*
D03*
X0087100Y0038039D02*
D03*
X0087100Y0038539D02*
D03*
X0087100Y0039039D02*
D03*
X0087100Y0039539D02*
D03*
X0087100Y0040039D02*
D03*
X0087100Y0040539D02*
D03*
X0061400Y0027039D02*
D03*
X0061835Y0055640D02*
D03*
X0061835Y0056140D02*
D03*
X0061835Y0056640D02*
D03*
X0061835Y0057140D02*
D03*
X0061835Y0057640D02*
D03*
X0061835Y0058140D02*
D03*
X0061835Y0058640D02*
D03*
X0061835Y0060640D02*
D03*
X0061835Y0061140D02*
D03*
X0061835Y0061640D02*
D03*
X0061835Y0064640D02*
D03*
X0061835Y0066640D02*
D03*
X0061835Y0067140D02*
D03*
X0061835Y0067640D02*
D03*
X0061835Y0068140D02*
D03*
X0061835Y0068640D02*
D03*
X0061835Y0071140D02*
D03*
X0061835Y0073140D02*
D03*
X0061835Y0073640D02*
D03*
X0061835Y0074140D02*
D03*
X0061835Y0074640D02*
D03*
X0061835Y0075140D02*
D03*
X0061835Y0075640D02*
D03*
X0061835Y0076140D02*
D03*
X0061835Y0076640D02*
D03*
X0061835Y0077140D02*
D03*
X0061835Y0077640D02*
D03*
X0061835Y0078140D02*
D03*
X0061835Y0078640D02*
D03*
X0061835Y0080140D02*
D03*
X0061835Y0080640D02*
D03*
X0061835Y0081140D02*
D03*
X0091935Y0081140D02*
D03*
X0091935Y0080640D02*
D03*
X0091935Y0080140D02*
D03*
X0091935Y0079640D02*
D03*
X0091935Y0079140D02*
D03*
X0091935Y0075640D02*
D03*
X0091935Y0075140D02*
D03*
X0091935Y0074640D02*
D03*
X0091935Y0071640D02*
D03*
X0091935Y0068640D02*
D03*
X0091935Y0068140D02*
D03*
X0091935Y0067640D02*
D03*
X0091935Y0067140D02*
D03*
X0091935Y0065140D02*
D03*
X0091935Y0063140D02*
D03*
X0091935Y0062640D02*
D03*
X0091935Y0062140D02*
D03*
X0091935Y0061640D02*
D03*
X0091935Y0061140D02*
D03*
X0091935Y0060640D02*
D03*
X0091935Y0060140D02*
D03*
X0091935Y0059640D02*
D03*
X0091935Y0059140D02*
D03*
X0091935Y0058640D02*
D03*
X0091935Y0058140D02*
D03*
X0091935Y0057640D02*
D03*
X0091935Y0057140D02*
D03*
X0091935Y0056640D02*
D03*
X0091935Y0056140D02*
D03*
X0091935Y0055640D02*
D03*
X0061835Y0072640D02*
D03*
X0061835Y0064140D02*
D03*
X0061835Y0063140D02*
D03*
X0061835Y0062140D02*
D03*
X0061835Y0059140D02*
D03*
X0061835Y0060140D02*
D03*
X0061835Y0062640D02*
D03*
X0061835Y0063640D02*
D03*
X0061835Y0065140D02*
D03*
X0061835Y0059640D02*
D03*
X0061835Y0072140D02*
D03*
X0061835Y0070640D02*
D03*
X0061835Y0069640D02*
D03*
X0061835Y0069140D02*
D03*
X0061835Y0070140D02*
D03*
X0061835Y0071640D02*
D03*
X0061835Y0066140D02*
D03*
X0061835Y0065640D02*
D03*
X0091935Y0069640D02*
D03*
X0091935Y0070140D02*
D03*
X0091935Y0070640D02*
D03*
X0091935Y0071140D02*
D03*
X0091935Y0072140D02*
D03*
X0091935Y0072640D02*
D03*
X0091935Y0073140D02*
D03*
X0091935Y0073640D02*
D03*
X0091935Y0074140D02*
D03*
X0091935Y0076140D02*
D03*
X0091935Y0076640D02*
D03*
X0091935Y0065640D02*
D03*
X0091935Y0066140D02*
D03*
X0091935Y0064640D02*
D03*
X0091935Y0064140D02*
D03*
X0091935Y0063640D02*
D03*
X0091935Y0069140D02*
D03*
X0091935Y0066640D02*
D03*
X0058109Y0053340D02*
D03*
X0058109Y0052840D02*
D03*
X0058109Y0052340D02*
D03*
X0058109Y0051840D02*
D03*
X0058109Y0051340D02*
D03*
X0058109Y0050840D02*
D03*
X0058109Y0050340D02*
D03*
X0058109Y0049840D02*
D03*
X0058109Y0049340D02*
D03*
X0058109Y0048840D02*
D03*
X0058109Y0048340D02*
D03*
X0058109Y0047840D02*
D03*
X0058109Y0047340D02*
D03*
X0058109Y0046840D02*
D03*
X0058109Y0046340D02*
D03*
X0058109Y0045840D02*
D03*
X0046609Y0045840D02*
D03*
X0046609Y0046340D02*
D03*
X0046609Y0046840D02*
D03*
X0046609Y0047340D02*
D03*
X0046609Y0047840D02*
D03*
X0046609Y0048340D02*
D03*
X0046609Y0048840D02*
D03*
X0046609Y0049840D02*
D03*
X0046609Y0050840D02*
D03*
X0046609Y0051340D02*
D03*
X0046609Y0051840D02*
D03*
X0046609Y0052340D02*
D03*
X0046609Y0052840D02*
D03*
X0046609Y0053340D02*
D03*
X0046609Y0049340D02*
D03*
X0091935Y0078640D02*
D03*
X0061835Y0079640D02*
D03*
X0046609Y0050340D02*
D03*
D13*
X0052109Y0055340D02*
D03*
X0082135Y0083440D02*
D03*
X0081635Y0083440D02*
D03*
X0063500Y0045639D02*
D03*
X0064000Y0045639D02*
D03*
X0064500Y0045639D02*
D03*
X0065000Y0045639D02*
D03*
X0065500Y0045639D02*
D03*
X0066000Y0045639D02*
D03*
X0066500Y0045639D02*
D03*
X0067000Y0045639D02*
D03*
X0067500Y0045639D02*
D03*
X0068000Y0045639D02*
D03*
X0068500Y0045639D02*
D03*
X0069000Y0045639D02*
D03*
X0069500Y0045639D02*
D03*
X0070000Y0045639D02*
D03*
X0070500Y0045639D02*
D03*
X0071000Y0045639D02*
D03*
X0071500Y0045639D02*
D03*
X0072000Y0045639D02*
D03*
X0072500Y0045639D02*
D03*
X0073000Y0045639D02*
D03*
X0073500Y0045639D02*
D03*
X0074000Y0045639D02*
D03*
X0074500Y0045639D02*
D03*
X0075000Y0045639D02*
D03*
X0075500Y0045639D02*
D03*
X0076000Y0045639D02*
D03*
X0076500Y0045639D02*
D03*
X0077000Y0045639D02*
D03*
X0077500Y0045639D02*
D03*
X0078000Y0045639D02*
D03*
X0078500Y0045639D02*
D03*
X0079000Y0045639D02*
D03*
X0079500Y0045639D02*
D03*
X0080000Y0045639D02*
D03*
X0080500Y0045639D02*
D03*
X0081000Y0045639D02*
D03*
X0081500Y0045639D02*
D03*
X0082000Y0045639D02*
D03*
X0083000Y0045639D02*
D03*
X0084500Y0045639D02*
D03*
X0085000Y0045639D02*
D03*
X0085000Y0019939D02*
D03*
X0084500Y0019939D02*
D03*
X0084000Y0019939D02*
D03*
X0083500Y0019939D02*
D03*
X0083000Y0019939D02*
D03*
X0082500Y0019939D02*
D03*
X0082000Y0019939D02*
D03*
X0081500Y0019939D02*
D03*
X0081000Y0019939D02*
D03*
X0080500Y0019939D02*
D03*
X0080000Y0019939D02*
D03*
X0079500Y0019939D02*
D03*
X0079000Y0019939D02*
D03*
X0078500Y0019939D02*
D03*
X0078000Y0019939D02*
D03*
X0077500Y0019939D02*
D03*
X0077000Y0019939D02*
D03*
X0076500Y0019939D02*
D03*
X0076000Y0019939D02*
D03*
X0075500Y0019939D02*
D03*
X0075000Y0019939D02*
D03*
X0074500Y0019939D02*
D03*
X0074000Y0019939D02*
D03*
X0073500Y0019939D02*
D03*
X0073000Y0019939D02*
D03*
X0072500Y0019939D02*
D03*
X0072000Y0019939D02*
D03*
X0071500Y0019939D02*
D03*
X0071000Y0019939D02*
D03*
X0070500Y0019939D02*
D03*
X0070000Y0019939D02*
D03*
X0069500Y0019939D02*
D03*
X0069000Y0019939D02*
D03*
X0068500Y0019939D02*
D03*
X0068000Y0019939D02*
D03*
X0067500Y0019939D02*
D03*
X0067000Y0019939D02*
D03*
X0066500Y0019939D02*
D03*
X0066000Y0019939D02*
D03*
X0065500Y0019939D02*
D03*
X0065000Y0019939D02*
D03*
X0064500Y0019939D02*
D03*
X0064000Y0019939D02*
D03*
X0063500Y0019939D02*
D03*
X0084000Y0045639D02*
D03*
X0083500Y0045639D02*
D03*
X0082500Y0045639D02*
D03*
X0064135Y0083440D02*
D03*
X0064635Y0083440D02*
D03*
X0065135Y0083440D02*
D03*
X0065635Y0083440D02*
D03*
X0066135Y0083440D02*
D03*
X0066635Y0083440D02*
D03*
X0067135Y0083440D02*
D03*
X0067635Y0083440D02*
D03*
X0068135Y0083440D02*
D03*
X0068635Y0083440D02*
D03*
X0069135Y0083440D02*
D03*
X0069635Y0083440D02*
D03*
X0070135Y0083440D02*
D03*
X0070635Y0083440D02*
D03*
X0071135Y0083440D02*
D03*
X0071635Y0083440D02*
D03*
X0072135Y0083440D02*
D03*
X0072635Y0083440D02*
D03*
X0073135Y0083440D02*
D03*
X0073635Y0083440D02*
D03*
X0074635Y0083440D02*
D03*
X0075135Y0083440D02*
D03*
X0075635Y0083440D02*
D03*
X0076635Y0083440D02*
D03*
X0077135Y0083440D02*
D03*
X0078135Y0083440D02*
D03*
X0079135Y0083440D02*
D03*
X0080135Y0083440D02*
D03*
X0082635Y0083440D02*
D03*
X0083135Y0083440D02*
D03*
X0083635Y0083440D02*
D03*
X0084135Y0083440D02*
D03*
X0084635Y0083440D02*
D03*
X0088135Y0083440D02*
D03*
X0088635Y0083440D02*
D03*
X0089135Y0083440D02*
D03*
X0089635Y0083440D02*
D03*
X0089635Y0053340D02*
D03*
X0089135Y0053340D02*
D03*
X0088635Y0053340D02*
D03*
X0088135Y0053340D02*
D03*
X0087635Y0053340D02*
D03*
X0087135Y0053340D02*
D03*
X0086635Y0053340D02*
D03*
X0086135Y0053340D02*
D03*
X0085635Y0053340D02*
D03*
X0085135Y0053340D02*
D03*
X0084635Y0053340D02*
D03*
X0084135Y0053340D02*
D03*
X0083635Y0053340D02*
D03*
X0083135Y0053340D02*
D03*
X0082635Y0053340D02*
D03*
X0082135Y0053340D02*
D03*
X0081635Y0053340D02*
D03*
X0081135Y0053340D02*
D03*
X0080635Y0053340D02*
D03*
X0080135Y0053340D02*
D03*
X0079635Y0053340D02*
D03*
X0079135Y0053340D02*
D03*
X0078635Y0053340D02*
D03*
X0078135Y0053340D02*
D03*
X0077635Y0053340D02*
D03*
X0077135Y0053340D02*
D03*
X0076635Y0053340D02*
D03*
X0076135Y0053340D02*
D03*
X0075635Y0053340D02*
D03*
X0075135Y0053340D02*
D03*
X0074635Y0053340D02*
D03*
X0074135Y0053340D02*
D03*
X0073635Y0053340D02*
D03*
X0073135Y0053340D02*
D03*
X0072635Y0053340D02*
D03*
X0072135Y0053340D02*
D03*
X0071635Y0053340D02*
D03*
X0071135Y0053340D02*
D03*
X0070635Y0053340D02*
D03*
X0070135Y0053340D02*
D03*
X0069635Y0053340D02*
D03*
X0069135Y0053340D02*
D03*
X0068635Y0053340D02*
D03*
X0068135Y0053340D02*
D03*
X0067635Y0053340D02*
D03*
X0067135Y0053340D02*
D03*
X0066635Y0053340D02*
D03*
X0066135Y0053340D02*
D03*
X0065635Y0053340D02*
D03*
X0065135Y0053340D02*
D03*
X0064635Y0053340D02*
D03*
X0064135Y0053340D02*
D03*
X0087135Y0083440D02*
D03*
X0087635Y0083440D02*
D03*
X0053609Y0043840D02*
D03*
X0052609Y0043840D02*
D03*
X0048609Y0055340D02*
D03*
X0049109Y0055340D02*
D03*
X0049609Y0055340D02*
D03*
X0050109Y0055340D02*
D03*
X0050609Y0055340D02*
D03*
X0051109Y0055340D02*
D03*
X0051609Y0055340D02*
D03*
X0053109Y0055340D02*
D03*
X0053609Y0055340D02*
D03*
X0054109Y0055340D02*
D03*
X0054609Y0055340D02*
D03*
X0055109Y0055340D02*
D03*
X0055609Y0055340D02*
D03*
X0056109Y0055340D02*
D03*
X0056109Y0043840D02*
D03*
X0055609Y0043840D02*
D03*
X0055109Y0043840D02*
D03*
X0054609Y0043840D02*
D03*
X0054109Y0043840D02*
D03*
X0053109Y0043840D02*
D03*
X0052109Y0043840D02*
D03*
X0051609Y0043840D02*
D03*
X0051109Y0043840D02*
D03*
X0050609Y0043840D02*
D03*
X0050109Y0043840D02*
D03*
X0049609Y0043840D02*
D03*
X0049109Y0043840D02*
D03*
X0048609Y0043840D02*
D03*
X0074135Y0083440D02*
D03*
X0080635Y0083440D02*
D03*
X0077635Y0083440D02*
D03*
X0078635Y0083440D02*
D03*
X0079635Y0083440D02*
D03*
X0076135Y0083440D02*
D03*
X0081135Y0083440D02*
D03*
X0085635Y0083440D02*
D03*
X0085135Y0083440D02*
D03*
X0086135Y0083440D02*
D03*
X0086635Y0083440D02*
D03*
X0052609Y0055340D02*
D03*
D14*
X0130556Y0115570D02*
D03*
X0130556Y0112776D02*
D03*
X0125984Y0117094D02*
D03*
X0125984Y0114300D02*
D03*
X0097282Y0117729D02*
D03*
X0097282Y0120523D02*
D03*
X0094488Y0117729D02*
D03*
X0094488Y0120523D02*
D03*
X0136652Y0117094D02*
D03*
X0136652Y0114300D02*
D03*
X0058166Y0118618D02*
D03*
X0058166Y0121412D02*
D03*
X0138938Y0112776D02*
D03*
X0141224Y0112776D02*
D03*
X0138938Y0115570D02*
D03*
X0141224Y0115570D02*
D03*
X0128270Y0112776D02*
D03*
X0056007Y0118618D02*
D03*
X0056007Y0121412D02*
D03*
X0060325Y0121412D02*
D03*
X0060325Y0118618D02*
D03*
X0053848Y0118618D02*
D03*
X0053848Y0121412D02*
D03*
X0049149Y0121412D02*
D03*
X0049149Y0118618D02*
D03*
X0046863Y0118618D02*
D03*
X0046863Y0121412D02*
D03*
X0051435Y0121412D02*
D03*
X0051435Y0118618D02*
D03*
X0044704Y0118618D02*
D03*
X0044704Y0121412D02*
D03*
X0088443Y0117983D02*
D03*
X0088443Y0120777D02*
D03*
X0128270Y0115570D02*
D03*
D15*
X0128143Y0107569D02*
D03*
X0128143Y0105918D02*
D03*
X0145415Y0044323D02*
D03*
X0145415Y0042672D02*
D03*
X0146939Y0045593D02*
D03*
X0146939Y0043942D02*
D03*
X0157861Y0044069D02*
D03*
X0157861Y0042418D02*
D03*
X0143002Y0115570D02*
D03*
X0143002Y0113919D02*
D03*
X0144145Y0115570D02*
D03*
X0144145Y0113919D02*
D03*
X0132334Y0115570D02*
D03*
X0132334Y0113919D02*
D03*
X0133477Y0115570D02*
D03*
X0133477Y0113919D02*
D03*
X0091567Y0117348D02*
D03*
X0091567Y0118999D02*
D03*
X0152146Y0052705D02*
D03*
X0152146Y0054356D02*
D03*
X0093091Y0085471D02*
D03*
X0093091Y0087122D02*
D03*
X0080010Y0090043D02*
D03*
X0080010Y0088392D02*
D03*
X0091186Y0086614D02*
D03*
X0091186Y0084963D02*
D03*
X0059055Y0096647D02*
D03*
X0044958Y0044831D02*
D03*
X0044958Y0043180D02*
D03*
X0060198Y0096647D02*
D03*
X0057912Y0096647D02*
D03*
X0152781Y0062357D02*
D03*
X0152781Y0060706D02*
D03*
X0100330Y0033020D02*
D03*
X0100330Y0031369D02*
D03*
X0140459Y0054102D02*
D03*
X0140459Y0055753D02*
D03*
X0050673Y0058293D02*
D03*
X0050673Y0059944D02*
D03*
X0065151Y0011430D02*
D03*
X0065151Y0009779D02*
D03*
X0181102Y0056515D02*
D03*
X0181102Y0054864D02*
D03*
X0118237Y0075946D02*
D03*
X0118237Y0077597D02*
D03*
X0118364Y0070231D02*
D03*
X0118364Y0071882D02*
D03*
X0132842Y0065659D02*
D03*
X0132842Y0067310D02*
D03*
X0120777Y0068453D02*
D03*
X0120777Y0066802D02*
D03*
X0121920Y0071374D02*
D03*
X0121920Y0069723D02*
D03*
X0130175Y0066929D02*
D03*
X0130175Y0065278D02*
D03*
X0128905Y0066294D02*
D03*
X0128905Y0067945D02*
D03*
X0169926Y0052070D02*
D03*
X0169926Y0053721D02*
D03*
X0180975Y0051943D02*
D03*
X0180975Y0053594D02*
D03*
X0125730Y0035687D02*
D03*
X0125730Y0037338D02*
D03*
X0036449Y0020523D02*
D03*
X0152781Y0068834D02*
D03*
X0152781Y0070485D02*
D03*
X0119634Y0071374D02*
D03*
X0119634Y0069723D02*
D03*
X0118364Y0067310D02*
D03*
X0118364Y0068961D02*
D03*
X0128905Y0069088D02*
D03*
X0128905Y0070739D02*
D03*
X0120777Y0069723D02*
D03*
X0120777Y0071374D02*
D03*
X0121920Y0066802D02*
D03*
X0121920Y0068453D02*
D03*
X0128524Y0075692D02*
D03*
X0128524Y0074041D02*
D03*
X0131572Y0065659D02*
D03*
X0131572Y0067310D02*
D03*
X0124968Y0052578D02*
D03*
X0124968Y0050927D02*
D03*
X0162306Y0050546D02*
D03*
X0162306Y0052197D02*
D03*
X0124333Y0037338D02*
D03*
X0124333Y0035687D02*
D03*
X0116586Y0050800D02*
D03*
X0116586Y0052451D02*
D03*
X0117983Y0050800D02*
D03*
X0117983Y0052451D02*
D03*
X0057658Y0033020D02*
D03*
X0057658Y0034671D02*
D03*
X0056007Y0030480D02*
D03*
X0056007Y0028829D02*
D03*
X0058293Y0028829D02*
D03*
X0058293Y0030480D02*
D03*
X0089535Y0030734D02*
D03*
X0089535Y0029083D02*
D03*
X0090043Y0027813D02*
D03*
X0090043Y0026162D02*
D03*
X0089535Y0035052D02*
D03*
X0089535Y0033401D02*
D03*
X0089408Y0086995D02*
D03*
X0089408Y0085344D02*
D03*
X0138862Y0102362D02*
D03*
X0060198Y0094996D02*
D03*
X0059055Y0094996D02*
D03*
X0057912Y0094996D02*
D03*
X0138862Y0104013D02*
D03*
X0036449Y0018872D02*
D03*
X0154051Y0078486D02*
D03*
X0152908Y0078486D02*
D03*
X0154051Y0080137D02*
D03*
X0152908Y0080137D02*
D03*
X0144653Y0047371D02*
D03*
X0144653Y0045720D02*
D03*
X0147955Y0045593D02*
D03*
X0147955Y0043942D02*
D03*
X0147828Y0048514D02*
D03*
X0147828Y0046863D02*
D03*
X0156845Y0044069D02*
D03*
X0156845Y0042418D02*
D03*
X0157099Y0047117D02*
D03*
X0157099Y0045466D02*
D03*
X0144399Y0044323D02*
D03*
X0144399Y0042672D02*
D03*
X0056388Y0035306D02*
D03*
X0056388Y0033655D02*
D03*
X0035941Y0027940D02*
D03*
X0035941Y0026289D02*
D03*
D16*
X0136159Y0108077D02*
D03*
X0137460Y0112039D02*
D03*
X0136809Y0112039D02*
D03*
X0136159Y0112039D02*
D03*
X0135509Y0112039D02*
D03*
X0137460Y0108077D02*
D03*
X0136809Y0108077D02*
D03*
X0125364Y0108077D02*
D03*
X0126665Y0112039D02*
D03*
X0126014Y0112039D02*
D03*
X0125364Y0112039D02*
D03*
X0124714Y0112039D02*
D03*
X0126665Y0108077D02*
D03*
X0126014Y0108077D02*
D03*
X0089698Y0116078D02*
D03*
X0088397Y0112116D02*
D03*
X0089047Y0112116D02*
D03*
X0089698Y0112116D02*
D03*
X0090348Y0112116D02*
D03*
X0088397Y0116078D02*
D03*
X0089047Y0116078D02*
D03*
D17*
X0135509Y0108077D02*
D03*
X0124714Y0108077D02*
D03*
X0090348Y0116078D02*
D03*
D18*
X0125222Y0099060D02*
D03*
X0120269Y0099060D02*
D03*
X0132334Y0101219D02*
D03*
X0137287Y0101219D02*
D03*
X0112649Y0085598D02*
D03*
X0117602Y0085598D02*
D03*
X0130937Y0043307D02*
D03*
X0125984Y0043307D02*
D03*
X0122809Y0102743D02*
D03*
X0127762Y0102743D02*
D03*
X0027559Y0034036D02*
D03*
X0032512Y0034036D02*
D03*
X0144653Y0083058D02*
D03*
X0149606Y0083058D02*
D03*
X0120396Y0025781D02*
D03*
X0125349Y0025781D02*
D03*
X0141478Y0096774D02*
D03*
X0146431Y0096774D02*
D03*
X0108458Y0058293D02*
D03*
X0113411Y0058293D02*
D03*
X0101981Y0081788D02*
D03*
X0106934Y0081788D02*
D03*
X0101981Y0085852D02*
D03*
X0106934Y0085852D02*
D03*
X0133096Y0036449D02*
D03*
X0128143Y0036449D02*
D03*
X0127635Y0047498D02*
D03*
X0122682Y0047498D02*
D03*
X0171196Y0082931D02*
D03*
X0166243Y0082931D02*
D03*
X0105918Y0058801D02*
D03*
X0100965Y0058801D02*
D03*
X0117094Y0092964D02*
D03*
X0112141Y0092964D02*
D03*
X0171196Y0079248D02*
D03*
X0166243Y0079248D02*
D03*
X0108458Y0053975D02*
D03*
X0113411Y0053975D02*
D03*
X0117602Y0081661D02*
D03*
X0112649Y0081661D02*
D03*
X0138176Y0011811D02*
D03*
X0133223Y0011811D02*
D03*
X0147701Y0065278D02*
D03*
X0142748Y0065278D02*
D03*
X0131953Y0031877D02*
D03*
X0127000Y0031877D02*
D03*
X0112141Y0089281D02*
D03*
X0117094Y0089281D02*
D03*
X0111506Y0049784D02*
D03*
X0106553Y0049784D02*
D03*
X0138176Y0015494D02*
D03*
X0133223Y0015494D02*
D03*
X0146431Y0093091D02*
D03*
X0141478Y0093091D02*
D03*
X0128905Y0012319D02*
D03*
X0123952Y0012319D02*
D03*
D19*
X0146939Y0105791D02*
D03*
X0146939Y0108458D02*
D03*
X0073787Y0124079D02*
D03*
X0139319Y0084836D02*
D03*
X0073787Y0126746D02*
D03*
X0171196Y0067945D02*
D03*
X0154940Y0069088D02*
D03*
X0171196Y0075311D02*
D03*
X0171196Y0072644D02*
D03*
X0154940Y0076200D02*
D03*
X0154940Y0073533D02*
D03*
X0173355Y0069596D02*
D03*
X0173355Y0072263D02*
D03*
X0171196Y0061341D02*
D03*
X0171196Y0064008D02*
D03*
X0154940Y0062484D02*
D03*
X0154940Y0065151D02*
D03*
X0154940Y0071755D02*
D03*
X0171196Y0070612D02*
D03*
X0165735Y0053594D02*
D03*
X0165735Y0050927D02*
D03*
X0182753Y0053594D02*
D03*
X0182753Y0050927D02*
D03*
X0168148Y0053594D02*
D03*
X0168148Y0050927D02*
D03*
X0139319Y0082169D02*
D03*
D20*
X0114173Y0128270D02*
D03*
X0118237Y0128270D02*
D03*
X0034417Y0120777D02*
D03*
X0038481Y0120777D02*
D03*
D21*
X0144780Y0112522D02*
D03*
X0143129Y0112522D02*
D03*
X0132461Y0112522D02*
D03*
X0134112Y0112522D02*
D03*
X0145923Y0049276D02*
D03*
X0144272Y0049276D02*
D03*
X0097409Y0111887D02*
D03*
X0095758Y0111887D02*
D03*
X0127508Y0084709D02*
D03*
X0125857Y0084709D02*
D03*
X0120777Y0084709D02*
D03*
X0122428Y0084709D02*
D03*
X0152527Y0055626D02*
D03*
X0154178Y0055626D02*
D03*
X0077978Y0124841D02*
D03*
X0076327Y0124841D02*
D03*
X0137287Y0106680D02*
D03*
X0137338Y0105410D02*
D03*
X0133604Y0103505D02*
D03*
X0131953Y0103505D02*
D03*
X0108712Y0108331D02*
D03*
X0110363Y0108331D02*
D03*
X0093472Y0115062D02*
D03*
X0091821Y0115062D02*
D03*
X0043815Y0045720D02*
D03*
X0042164Y0045720D02*
D03*
X0042164Y0046863D02*
D03*
X0043815Y0046863D02*
D03*
X0048514Y0028956D02*
D03*
X0050165Y0028956D02*
D03*
X0045085Y0039116D02*
D03*
X0046736Y0039116D02*
D03*
X0045085Y0040259D02*
D03*
X0046736Y0041529D02*
D03*
X0046736Y0040259D02*
D03*
X0045085Y0041529D02*
D03*
X0052705Y0038735D02*
D03*
X0051054Y0038735D02*
D03*
X0135382Y0092583D02*
D03*
X0137033Y0092583D02*
D03*
X0119888Y0074676D02*
D03*
X0118237Y0074676D02*
D03*
X0101473Y0078994D02*
D03*
X0099822Y0078994D02*
D03*
X0145539Y0057277D02*
D03*
X0143888Y0057277D02*
D03*
X0044069Y0098044D02*
D03*
X0045720Y0098044D02*
D03*
X0107950Y0063881D02*
D03*
X0106299Y0063881D02*
D03*
X0051054Y0010922D02*
D03*
X0049403Y0010922D02*
D03*
X0167005Y0055118D02*
D03*
X0168656Y0055118D02*
D03*
X0135636Y0075565D02*
D03*
X0137287Y0075565D02*
D03*
X0141097Y0049276D02*
D03*
X0142748Y0049276D02*
D03*
X0180721Y0050546D02*
D03*
X0179070Y0050546D02*
D03*
X0154940Y0100203D02*
D03*
X0045466Y0082677D02*
D03*
X0047117Y0082677D02*
D03*
X0137033Y0091313D02*
D03*
X0135382Y0091313D02*
D03*
X0137287Y0074422D02*
D03*
X0135636Y0074422D02*
D03*
X0099822Y0077851D02*
D03*
X0101473Y0077851D02*
D03*
X0099822Y0076708D02*
D03*
X0101473Y0076708D02*
D03*
X0099822Y0075565D02*
D03*
X0101473Y0075565D02*
D03*
X0099822Y0074422D02*
D03*
X0101473Y0074422D02*
D03*
X0099822Y0073279D02*
D03*
X0101473Y0073279D02*
D03*
X0099822Y0072136D02*
D03*
X0101473Y0072136D02*
D03*
X0099822Y0070993D02*
D03*
X0101473Y0070993D02*
D03*
X0099822Y0069850D02*
D03*
X0101473Y0069850D02*
D03*
X0099822Y0068707D02*
D03*
X0101473Y0068707D02*
D03*
X0099822Y0067564D02*
D03*
X0101473Y0067564D02*
D03*
X0099822Y0066421D02*
D03*
X0101473Y0066421D02*
D03*
X0118872Y0073152D02*
D03*
X0120523Y0073152D02*
D03*
X0101473Y0064897D02*
D03*
X0099822Y0064897D02*
D03*
X0101473Y0063754D02*
D03*
X0099822Y0063754D02*
D03*
X0101473Y0062611D02*
D03*
X0099822Y0062611D02*
D03*
X0101473Y0061468D02*
D03*
X0099822Y0061468D02*
D03*
X0164211Y0049276D02*
D03*
X0165862Y0049276D02*
D03*
X0056134Y0031750D02*
D03*
X0057785Y0031750D02*
D03*
X0057531Y0042799D02*
D03*
X0059182Y0042799D02*
D03*
X0055626Y0041021D02*
D03*
X0053975Y0041021D02*
D03*
X0057531Y0041021D02*
D03*
X0059182Y0041021D02*
D03*
X0056642Y0057277D02*
D03*
X0058293Y0057277D02*
D03*
X0045466Y0018796D02*
D03*
X0047117Y0018796D02*
D03*
X0048768Y0040767D02*
D03*
X0050419Y0040767D02*
D03*
X0078359Y0089662D02*
D03*
X0076708Y0089662D02*
D03*
X0078359Y0090932D02*
D03*
X0076708Y0090932D02*
D03*
X0067564Y0095504D02*
D03*
X0104521Y0101092D02*
D03*
X0106172Y0101092D02*
D03*
X0066802Y0096774D02*
D03*
X0065151Y0096774D02*
D03*
X0066802Y0098044D02*
D03*
X0065151Y0098044D02*
D03*
X0140005Y0103251D02*
D03*
X0091948Y0111887D02*
D03*
X0093599Y0111887D02*
D03*
X0032893Y0111252D02*
D03*
X0031242Y0111252D02*
D03*
X0045212Y0055245D02*
D03*
X0046863Y0055245D02*
D03*
X0141656Y0103251D02*
D03*
X0142926Y0103251D02*
D03*
X0138989Y0105410D02*
D03*
X0144577Y0103251D02*
D03*
X0138938Y0106680D02*
D03*
X0065913Y0095504D02*
D03*
X0153289Y0100203D02*
D03*
D22*
X0069393Y0115951D02*
D03*
X0069393Y0120015D02*
D03*
X0115443Y0100330D02*
D03*
X0115443Y0096266D02*
D03*
X0027813Y0109601D02*
D03*
X0027813Y0105537D02*
D03*
X0069520Y0101981D02*
D03*
X0069520Y0106045D02*
D03*
X0065583Y0106045D02*
D03*
X0065583Y0101981D02*
D03*
X0070231Y0122809D02*
D03*
X0070231Y0126873D02*
D03*
D23*
X0096139Y0113538D02*
D03*
X0093345Y0113538D02*
D03*
X0048387Y0116459D02*
D03*
X0045593Y0116459D02*
D03*
X0176784Y0030480D02*
D03*
X0179578Y0030480D02*
D03*
X0172085Y0030480D02*
D03*
X0174879Y0030480D02*
D03*
X0167386Y0030480D02*
D03*
X0170180Y0030480D02*
D03*
X0162687Y0030480D02*
D03*
X0165481Y0030480D02*
D03*
X0055880Y0116459D02*
D03*
X0058674Y0116459D02*
D03*
D24*
X0066421Y0122174D02*
D03*
X0066421Y0127127D02*
D03*
X0031623Y0117856D02*
D03*
X0031623Y0112903D02*
D03*
X0035560Y0116840D02*
D03*
X0035560Y0111887D02*
D03*
X0041529Y0121412D02*
D03*
X0041529Y0116459D02*
D03*
X0069647Y0108458D02*
D03*
X0069647Y0113411D02*
D03*
X0073203Y0116459D02*
D03*
X0073203Y0111506D02*
D03*
X0050800Y0030861D02*
D03*
X0050800Y0035814D02*
D03*
D25*
X0116332Y0070561D02*
D03*
X0104732Y0068961D02*
D03*
X0104732Y0069761D02*
D03*
X0104732Y0070561D02*
D03*
X0104732Y0071361D02*
D03*
X0104732Y0072161D02*
D03*
X0104732Y0072961D02*
D03*
X0104732Y0073761D02*
D03*
X0104732Y0074561D02*
D03*
X0104732Y0075361D02*
D03*
X0104732Y0076161D02*
D03*
X0104732Y0076961D02*
D03*
X0116332Y0076961D02*
D03*
X0116332Y0076161D02*
D03*
X0116332Y0075361D02*
D03*
X0116332Y0074561D02*
D03*
X0116332Y0073761D02*
D03*
X0116332Y0072961D02*
D03*
X0116332Y0072161D02*
D03*
X0116332Y0071361D02*
D03*
X0116332Y0069761D02*
D03*
X0116332Y0068961D02*
D03*
D26*
X0128905Y0092202D02*
D03*
X0142875Y0110744D02*
D03*
X0140335Y0110744D02*
D03*
X0144145Y0105156D02*
D03*
X0141605Y0110744D02*
D03*
X0144145Y0110744D02*
D03*
X0126238Y0081915D02*
D03*
X0124968Y0081915D02*
D03*
X0123698Y0081915D02*
D03*
X0122428Y0081915D02*
D03*
X0122428Y0076327D02*
D03*
X0123698Y0076327D02*
D03*
X0124968Y0076327D02*
D03*
X0126238Y0076327D02*
D03*
X0123444Y0067691D02*
D03*
X0124714Y0067691D02*
D03*
X0125984Y0067691D02*
D03*
X0127254Y0067691D02*
D03*
X0127254Y0073279D02*
D03*
X0125984Y0073279D02*
D03*
X0124714Y0073279D02*
D03*
X0123444Y0073279D02*
D03*
X0135001Y0050927D02*
D03*
X0136271Y0050927D02*
D03*
X0137541Y0050927D02*
D03*
X0138811Y0050927D02*
D03*
X0138811Y0056515D02*
D03*
X0137541Y0056515D02*
D03*
X0136271Y0056515D02*
D03*
X0135001Y0056515D02*
D03*
X0119761Y0051435D02*
D03*
X0121031Y0051435D02*
D03*
X0122301Y0051435D02*
D03*
X0123571Y0051435D02*
D03*
X0123571Y0057023D02*
D03*
X0122301Y0057023D02*
D03*
X0121031Y0057023D02*
D03*
X0119761Y0057023D02*
D03*
X0127381Y0057277D02*
D03*
X0128651Y0057277D02*
D03*
X0129921Y0057277D02*
D03*
X0131191Y0057277D02*
D03*
X0131191Y0051689D02*
D03*
X0129921Y0051689D02*
D03*
X0128651Y0051689D02*
D03*
X0127381Y0051689D02*
D03*
X0130175Y0086614D02*
D03*
X0128905Y0086614D02*
D03*
X0127635Y0086614D02*
D03*
X0126365Y0086614D02*
D03*
X0126365Y0092202D02*
D03*
X0127635Y0092202D02*
D03*
X0130175Y0092202D02*
D03*
X0134112Y0069215D02*
D03*
X0130302Y0074803D02*
D03*
X0131572Y0074803D02*
D03*
X0132842Y0074803D02*
D03*
X0134112Y0074803D02*
D03*
X0045466Y0026797D02*
D03*
X0046736Y0026797D02*
D03*
X0048006Y0026797D02*
D03*
X0049276Y0026797D02*
D03*
X0049276Y0021209D02*
D03*
X0048006Y0021209D02*
D03*
X0046736Y0021209D02*
D03*
X0045466Y0021209D02*
D03*
X0130302Y0069215D02*
D03*
X0132842Y0069215D02*
D03*
X0131572Y0069215D02*
D03*
X0124206Y0092202D02*
D03*
X0122936Y0092202D02*
D03*
X0121666Y0092202D02*
D03*
X0120396Y0092202D02*
D03*
X0120396Y0086614D02*
D03*
X0121666Y0086614D02*
D03*
X0122936Y0086614D02*
D03*
X0124206Y0086614D02*
D03*
X0141605Y0105156D02*
D03*
X0140335Y0105156D02*
D03*
X0142875Y0105156D02*
D03*
X0132207Y0110744D02*
D03*
X0133477Y0110744D02*
D03*
X0130937Y0110744D02*
D03*
X0132207Y0105156D02*
D03*
X0130937Y0105156D02*
D03*
X0129667Y0105156D02*
D03*
X0129667Y0110744D02*
D03*
X0133477Y0105156D02*
D03*
D27*
X0147955Y0086106D02*
D03*
X0053467Y0116459D02*
D03*
X0050800Y0116459D02*
D03*
X0084887Y0125349D02*
D03*
X0082220Y0125349D02*
D03*
X0037465Y0045974D02*
D03*
X0040132Y0045974D02*
D03*
X0153797Y0105029D02*
D03*
X0151130Y0105029D02*
D03*
X0171450Y0049784D02*
D03*
X0174117Y0049784D02*
D03*
X0185674Y0048641D02*
D03*
X0183007Y0048641D02*
D03*
X0180975Y0048641D02*
D03*
X0178308Y0048641D02*
D03*
X0145288Y0086106D02*
D03*
X0086233Y0123063D02*
D03*
X0083566Y0123063D02*
D03*
X0076759Y0122936D02*
D03*
X0079426Y0122936D02*
D03*
D28*
X0142113Y0086995D02*
D03*
X0134747Y0039243D02*
D03*
X0134747Y0042037D02*
D03*
X0128524Y0018415D02*
D03*
X0128524Y0015621D02*
D03*
X0132588Y0049149D02*
D03*
X0132588Y0046355D02*
D03*
X0098933Y0084963D02*
D03*
X0098933Y0087757D02*
D03*
X0097409Y0079502D02*
D03*
X0097409Y0082296D02*
D03*
X0142113Y0084201D02*
D03*
D29*
X0142748Y0089535D02*
D03*
X0153670Y0084201D02*
D03*
X0139954Y0089535D02*
D03*
X0104140Y0089281D02*
D03*
X0101346Y0089281D02*
D03*
X0109601Y0089281D02*
D03*
X0106807Y0089281D02*
D03*
X0109601Y0092583D02*
D03*
X0106807Y0092583D02*
D03*
X0156464Y0084201D02*
D03*
D30*
X0028956Y0037719D02*
D03*
X0033020Y0037719D02*
D03*
X0120523Y0016256D02*
D03*
X0122809Y0016256D02*
D03*
X0125095Y0016256D02*
D03*
X0036068Y0109220D02*
D03*
X0031496Y0109220D02*
D03*
X0033782Y0109220D02*
D03*
D31*
X0048006Y0105410D02*
D03*
X0060452Y0105410D02*
D03*
X0085649Y0111887D02*
D03*
D32*
X0048006Y0106680D02*
D03*
X0048006Y0107950D02*
D03*
X0048006Y0109220D02*
D03*
X0048006Y0110490D02*
D03*
X0048006Y0111760D02*
D03*
X0048006Y0113030D02*
D03*
X0048006Y0114300D02*
D03*
X0038862Y0105410D02*
D03*
X0038862Y0106680D02*
D03*
X0038862Y0107950D02*
D03*
X0038862Y0109220D02*
D03*
X0038862Y0110490D02*
D03*
X0038862Y0111760D02*
D03*
X0038862Y0113030D02*
D03*
X0038862Y0114300D02*
D03*
X0060452Y0106680D02*
D03*
X0060452Y0107950D02*
D03*
X0060452Y0109220D02*
D03*
X0060452Y0110490D02*
D03*
X0060452Y0111760D02*
D03*
X0060452Y0113030D02*
D03*
X0060452Y0114300D02*
D03*
X0051308Y0105410D02*
D03*
X0051308Y0106680D02*
D03*
X0051308Y0107950D02*
D03*
X0051308Y0109220D02*
D03*
X0051308Y0110490D02*
D03*
X0051308Y0111760D02*
D03*
X0051308Y0113030D02*
D03*
X0051308Y0114300D02*
D03*
X0085649Y0113157D02*
D03*
X0085649Y0114427D02*
D03*
X0085649Y0115697D02*
D03*
X0085649Y0116967D02*
D03*
X0085649Y0118237D02*
D03*
X0085649Y0119507D02*
D03*
X0085649Y0120777D02*
D03*
X0076505Y0111887D02*
D03*
X0076505Y0113157D02*
D03*
X0076505Y0114427D02*
D03*
X0076505Y0115697D02*
D03*
X0076505Y0116967D02*
D03*
X0076505Y0118237D02*
D03*
X0076505Y0119507D02*
D03*
X0076505Y0120777D02*
D03*
D33*
X0150368Y0087503D02*
D03*
X0158115Y0087503D02*
D03*
X0162687Y0087503D02*
D03*
X0154940Y0087503D02*
D03*
D34*
X0152654Y0095758D02*
D03*
X0160401Y0095758D02*
D03*
D35*
X0122809Y0022606D02*
D03*
X0033782Y0102870D02*
D03*
D36*
X0099441Y0092710D02*
D03*
X0099441Y0096774D02*
D03*
X0103251Y0096393D02*
D03*
X0103251Y0092329D02*
D03*
X0030226Y0046482D02*
D03*
X0030226Y0042418D02*
D03*
X0033020Y0042418D02*
D03*
X0033020Y0046482D02*
D03*
D37*
X0103810Y0124206D02*
D03*
X0103810Y0118872D02*
D03*
X0111938Y0110998D02*
D03*
D38*
X0103810Y0121666D02*
D03*
X0111938Y0124206D02*
D03*
X0111938Y0121666D02*
D03*
X0111938Y0113538D02*
D03*
X0103810Y0110998D02*
D03*
X0103810Y0113538D02*
D03*
X0103810Y0116332D02*
D03*
X0111938Y0118872D02*
D03*
X0111938Y0116332D02*
D03*
D39*
X0145415Y0024511D02*
D03*
X0145415Y0021971D02*
D03*
X0138049Y0024511D02*
D03*
X0138049Y0021971D02*
D03*
X0165608Y0021971D02*
D03*
X0165608Y0024511D02*
D03*
X0172974Y0021971D02*
D03*
X0172974Y0024511D02*
D03*
X0104902Y0052578D02*
D03*
X0104902Y0055118D02*
D03*
X0097536Y0052578D02*
D03*
X0097536Y0055118D02*
D03*
D40*
X0075438Y0097663D02*
D03*
X0075438Y0096393D02*
D03*
X0075438Y0095123D02*
D03*
X0075438Y0093853D02*
D03*
X0069850Y0093853D02*
D03*
X0069850Y0095123D02*
D03*
X0069850Y0096393D02*
D03*
X0069850Y0097663D02*
D03*
X0084328Y0097663D02*
D03*
X0084328Y0096393D02*
D03*
X0084328Y0095123D02*
D03*
X0084328Y0093853D02*
D03*
X0078740Y0093853D02*
D03*
X0078740Y0095123D02*
D03*
X0078740Y0096393D02*
D03*
X0078740Y0097663D02*
D03*
X0092075Y0034798D02*
D03*
X0092075Y0033528D02*
D03*
X0092075Y0032258D02*
D03*
X0092075Y0029718D02*
D03*
X0092075Y0028448D02*
D03*
X0092075Y0027178D02*
D03*
X0097663Y0027178D02*
D03*
X0097663Y0028448D02*
D03*
X0097663Y0029718D02*
D03*
X0097663Y0030988D02*
D03*
X0097663Y0032258D02*
D03*
X0097663Y0033528D02*
D03*
X0097663Y0034798D02*
D03*
X0092075Y0030988D02*
D03*
X0130175Y0078613D02*
D03*
X0130175Y0079883D02*
D03*
X0130175Y0081153D02*
D03*
X0130175Y0082423D02*
D03*
X0135763Y0082423D02*
D03*
X0135763Y0081153D02*
D03*
X0135763Y0079883D02*
D03*
X0135763Y0078613D02*
D03*
X0154178Y0054229D02*
D03*
X0154178Y0052959D02*
D03*
X0154178Y0051689D02*
D03*
X0154178Y0050419D02*
D03*
X0159766Y0050419D02*
D03*
X0159766Y0051689D02*
D03*
X0159766Y0052959D02*
D03*
X0159766Y0054229D02*
D03*
X0142494Y0055499D02*
D03*
X0142494Y0054229D02*
D03*
X0142494Y0052959D02*
D03*
X0142494Y0051689D02*
D03*
X0148082Y0051689D02*
D03*
X0148082Y0052959D02*
D03*
X0148082Y0054229D02*
D03*
X0148082Y0055499D02*
D03*
X0149606Y0043180D02*
D03*
X0149606Y0044450D02*
D03*
X0149606Y0045720D02*
D03*
X0149606Y0046990D02*
D03*
X0155194Y0046990D02*
D03*
X0155194Y0045720D02*
D03*
X0155194Y0044450D02*
D03*
X0155194Y0043180D02*
D03*
X0174371Y0045974D02*
D03*
X0174371Y0044704D02*
D03*
X0174371Y0043434D02*
D03*
X0174371Y0042164D02*
D03*
X0168783Y0042164D02*
D03*
X0168783Y0043434D02*
D03*
X0168783Y0044704D02*
D03*
X0168783Y0045974D02*
D03*
X0183515Y0045974D02*
D03*
X0183515Y0044704D02*
D03*
X0183515Y0043434D02*
D03*
X0183515Y0042164D02*
D03*
X0177927Y0042164D02*
D03*
X0177927Y0043434D02*
D03*
X0177927Y0044704D02*
D03*
X0177927Y0045974D02*
D03*
X0141351Y0075946D02*
D03*
X0141351Y0077216D02*
D03*
X0141351Y0078486D02*
D03*
X0141351Y0079756D02*
D03*
X0146939Y0079756D02*
D03*
X0146939Y0078486D02*
D03*
X0146939Y0077216D02*
D03*
X0146939Y0075946D02*
D03*
X0141478Y0067945D02*
D03*
X0141478Y0069215D02*
D03*
X0141478Y0070485D02*
D03*
X0141478Y0071755D02*
D03*
X0147066Y0071755D02*
D03*
X0147066Y0070485D02*
D03*
X0147066Y0069215D02*
D03*
X0147066Y0067945D02*
D03*
X0043180Y0039878D02*
D03*
X0043180Y0041148D02*
D03*
X0043180Y0042418D02*
D03*
X0043180Y0043688D02*
D03*
X0037592Y0043688D02*
D03*
X0037592Y0042418D02*
D03*
X0037592Y0041148D02*
D03*
X0037592Y0039878D02*
D03*
X0137160Y0043180D02*
D03*
X0137160Y0044450D02*
D03*
X0137160Y0045720D02*
D03*
X0137160Y0046990D02*
D03*
X0142748Y0046990D02*
D03*
X0142748Y0045720D02*
D03*
X0142748Y0044450D02*
D03*
X0142748Y0043180D02*
D03*
X0165227Y0045974D02*
D03*
X0165227Y0044704D02*
D03*
X0165227Y0043434D02*
D03*
X0165227Y0042164D02*
D03*
X0159639Y0042164D02*
D03*
X0159639Y0043434D02*
D03*
X0159639Y0044704D02*
D03*
X0159639Y0045974D02*
D03*
X0127762Y0098679D02*
D03*
X0127762Y0097409D02*
D03*
X0127762Y0096139D02*
D03*
X0127762Y0094869D02*
D03*
X0133350Y0094869D02*
D03*
X0133350Y0096139D02*
D03*
X0133350Y0097409D02*
D03*
X0133350Y0098679D02*
D03*
D41*
X0173609Y0101092D02*
D03*
X0173609Y0113792D02*
D03*
X0190373Y0113792D02*
D03*
X0190373Y0101092D02*
D03*
D42*
X0148590Y0011938D02*
D03*
X0148590Y0016764D02*
D03*
X0152654Y0016764D02*
D03*
X0152654Y0011938D02*
D03*
X0023749Y0038989D02*
D03*
X0023749Y0034163D02*
D03*
X0019431Y0034163D02*
D03*
X0019431Y0038989D02*
D03*
X0004064Y0034036D02*
D03*
X0004064Y0038862D02*
D03*
X0008255Y0034036D02*
D03*
X0008255Y0038862D02*
D03*
D43*
X0108458Y0106807D02*
D03*
X0111887Y0106807D02*
D03*
D44*
X0109398Y0104775D02*
D03*
X0107493Y0104775D02*
D03*
X0112827Y0104775D02*
D03*
X0110922Y0104775D02*
D03*
D45*
X0027178Y0122682D02*
D03*
X0022352Y0122682D02*
D03*
X0108636Y0127762D02*
D03*
X0103810Y0127762D02*
D03*
X0143126Y0029845D02*
D03*
X0138808Y0029845D02*
D03*
X0151257Y0029845D02*
D03*
X0146939Y0029845D02*
D03*
D46*
X0194056Y0059436D02*
D03*
X0194056Y0053848D02*
D03*
X0186182Y0059436D02*
D03*
X0186182Y0053848D02*
D03*
X0100508Y0126873D02*
D03*
X0100508Y0121285D02*
D03*
X0160401Y0033401D02*
D03*
X0160401Y0038989D02*
D03*
X0156210Y0033401D02*
D03*
X0156210Y0038989D02*
D03*
X0152019Y0038989D02*
D03*
X0152019Y0033401D02*
D03*
X0185674Y0038989D02*
D03*
X0185674Y0033401D02*
D03*
X0181483Y0038989D02*
D03*
X0181483Y0033401D02*
D03*
X0143637Y0038989D02*
D03*
X0143637Y0033401D02*
D03*
X0147955Y0038989D02*
D03*
X0147955Y0033401D02*
D03*
X0177292Y0038989D02*
D03*
X0177292Y0033401D02*
D03*
X0173228Y0038989D02*
D03*
X0173228Y0033401D02*
D03*
X0168910Y0038989D02*
D03*
X0168910Y0033401D02*
D03*
X0164846Y0038989D02*
D03*
X0164846Y0033401D02*
D03*
X0100508Y0118110D02*
D03*
X0100508Y0112522D02*
D03*
X0039624Y0019431D02*
D03*
X0039624Y0030861D02*
D03*
X0139573Y0033401D02*
D03*
X0139573Y0038989D02*
D03*
D47*
X0136271Y0095885D02*
D03*
X0138303Y0095885D02*
D03*
X0128016Y0080899D02*
D03*
X0128016Y0082931D02*
D03*
X0128016Y0077343D02*
D03*
X0128016Y0079375D02*
D03*
X0120142Y0080772D02*
D03*
X0120142Y0082804D02*
D03*
X0120904Y0077343D02*
D03*
X0120904Y0079375D02*
D03*
X0163703Y0052578D02*
D03*
X0163703Y0050546D02*
D03*
X0138303Y0093853D02*
D03*
X0136271Y0093853D02*
D03*
X0131953Y0092583D02*
D03*
X0131953Y0090551D02*
D03*
X0133604Y0092583D02*
D03*
X0133604Y0090551D02*
D03*
X0151130Y0072009D02*
D03*
X0151130Y0074041D02*
D03*
X0149479Y0072009D02*
D03*
X0149479Y0074041D02*
D03*
X0151130Y0068453D02*
D03*
X0151130Y0070485D02*
D03*
X0149479Y0068453D02*
D03*
X0149479Y0070485D02*
D03*
X0151511Y0080137D02*
D03*
X0151511Y0078105D02*
D03*
X0149479Y0078105D02*
D03*
X0149479Y0080137D02*
D03*
X0152781Y0074041D02*
D03*
X0152781Y0072009D02*
D03*
X0003200Y0028042D02*
D03*
X0003200Y0026010D02*
D03*
D48*
X0157988Y0077978D02*
D03*
X0157988Y0079629D02*
D03*
X0142364Y0057150D02*
D03*
X0140332Y0057150D02*
D03*
X0155956Y0079629D02*
D03*
X0149352Y0075692D02*
D03*
X0151384Y0075692D02*
D03*
X0145542Y0074041D02*
D03*
X0147574Y0074041D02*
D03*
X0141986Y0074041D02*
D03*
X0144018Y0074041D02*
D03*
X0155956Y0077978D02*
D03*
D49*
X0103105Y0036822D02*
D03*
X0103105Y0037472D02*
D03*
X0103105Y0038122D02*
D03*
X0103105Y0039422D02*
D03*
X0103105Y0040072D02*
D03*
X0103105Y0040722D02*
D03*
X0103105Y0041372D02*
D03*
X0103105Y0042022D02*
D03*
X0103105Y0042672D02*
D03*
X0097155Y0036822D02*
D03*
X0097155Y0037472D02*
D03*
X0097155Y0038122D02*
D03*
X0097155Y0038772D02*
D03*
X0097155Y0039422D02*
D03*
X0097155Y0040072D02*
D03*
X0097155Y0040722D02*
D03*
X0097155Y0041372D02*
D03*
X0097155Y0042672D02*
D03*
X0171704Y0054281D02*
D03*
X0179154Y0055581D02*
D03*
X0171704Y0056881D02*
D03*
X0171704Y0057531D02*
D03*
X0171704Y0055581D02*
D03*
X0171704Y0054931D02*
D03*
X0171704Y0053631D02*
D03*
X0171704Y0052981D02*
D03*
X0171704Y0052331D02*
D03*
X0171704Y0051681D02*
D03*
X0179154Y0057531D02*
D03*
X0179154Y0056881D02*
D03*
X0179154Y0056231D02*
D03*
X0179154Y0054931D02*
D03*
X0179154Y0054281D02*
D03*
X0179154Y0052981D02*
D03*
X0179154Y0052331D02*
D03*
X0179154Y0051681D02*
D03*
X0097155Y0050292D02*
D03*
X0097155Y0048992D02*
D03*
X0097155Y0048342D02*
D03*
X0097155Y0047692D02*
D03*
X0097155Y0047042D02*
D03*
X0097155Y0046392D02*
D03*
X0097155Y0045742D02*
D03*
X0097155Y0045092D02*
D03*
X0097155Y0044442D02*
D03*
X0103105Y0050292D02*
D03*
X0103105Y0049642D02*
D03*
X0103105Y0048992D02*
D03*
X0103105Y0048342D02*
D03*
X0103105Y0047692D02*
D03*
X0103105Y0047042D02*
D03*
X0103105Y0045742D02*
D03*
X0103105Y0045092D02*
D03*
X0103105Y0044442D02*
D03*
D50*
X0103105Y0038772D02*
D03*
X0097155Y0042022D02*
D03*
X0171704Y0056231D02*
D03*
X0179154Y0053631D02*
D03*
X0097155Y0049642D02*
D03*
X0103105Y0046392D02*
D03*
D51*
X0119761Y0004572D02*
D03*
X0118491Y0004572D02*
D03*
X0117221Y0004572D02*
D03*
X0115951Y0004572D02*
D03*
X0114681Y0004572D02*
D03*
X0113411Y0004572D02*
D03*
X0112141Y0004572D02*
D03*
X0110871Y0004572D02*
D03*
X0109601Y0004572D02*
D03*
X0108331Y0004572D02*
D03*
X0107061Y0004572D02*
D03*
X0103251Y0004572D02*
D03*
X0101981Y0004572D02*
D03*
X0100711Y0004572D02*
D03*
X0099441Y0004572D02*
D03*
X0098171Y0004572D02*
D03*
X0096901Y0004572D02*
D03*
X0095631Y0004572D02*
D03*
X0094361Y0004572D02*
D03*
X0093091Y0004572D02*
D03*
X0091821Y0004572D02*
D03*
X0090551Y0004572D02*
D03*
X0089281Y0004572D02*
D03*
X0088011Y0004572D02*
D03*
X0086741Y0004572D02*
D03*
X0085471Y0004572D02*
D03*
X0084201Y0004572D02*
D03*
X0082931Y0004572D02*
D03*
X0081661Y0004572D02*
D03*
X0080391Y0004572D02*
D03*
X0079121Y0004572D02*
D03*
X0077851Y0004572D02*
D03*
X0076581Y0004572D02*
D03*
X0075311Y0004572D02*
D03*
X0074041Y0004572D02*
D03*
X0072771Y0004572D02*
D03*
X0071501Y0004572D02*
D03*
X0070231Y0004572D02*
D03*
X0068961Y0004572D02*
D03*
X0067691Y0004572D02*
D03*
X0066421Y0004572D02*
D03*
X0065151Y0004572D02*
D03*
X0063881Y0004572D02*
D03*
X0062611Y0004572D02*
D03*
X0061341Y0004572D02*
D03*
X0060071Y0004572D02*
D03*
X0058801Y0004572D02*
D03*
X0054991Y0004572D02*
D03*
X0053721Y0004572D02*
D03*
X0052451Y0004572D02*
D03*
X0051181Y0004572D02*
D03*
X0049911Y0004572D02*
D03*
X0048641Y0004572D02*
D03*
X0047371Y0004572D02*
D03*
X0044831Y0004572D02*
D03*
X0042291Y0004572D02*
D03*
X0046101Y0004572D02*
D03*
X0043561Y0004572D02*
D03*
D52*
X0046736Y0033909D02*
D03*
X0046736Y0035179D02*
D03*
X0046736Y0036449D02*
D03*
X0046736Y0037719D02*
D03*
X0041148Y0037719D02*
D03*
X0041148Y0036449D02*
D03*
X0041148Y0035179D02*
D03*
X0041148Y0033909D02*
D03*
D53*
X0024765Y0027305D02*
D03*
X0024765Y0031369D02*
D03*
X0024765Y0024511D02*
D03*
X0024765Y0020447D02*
D03*
X0015494Y0034417D02*
D03*
X0015494Y0038481D02*
D03*
X0012192Y0038481D02*
D03*
X0012192Y0034417D02*
D03*
D54*
X0122093Y0036069D02*
D03*
X0122093Y0040069D02*
D03*
X0122093Y0036869D02*
D03*
X0122093Y0038469D02*
D03*
X0109093Y0044069D02*
D03*
X0109093Y0043269D02*
D03*
X0109093Y0042469D02*
D03*
X0109093Y0041669D02*
D03*
X0109093Y0040869D02*
D03*
X0109093Y0040069D02*
D03*
X0109093Y0039269D02*
D03*
X0109093Y0038469D02*
D03*
X0109093Y0037669D02*
D03*
X0109093Y0036869D02*
D03*
X0109093Y0036069D02*
D03*
X0122093Y0037669D02*
D03*
X0122093Y0039269D02*
D03*
X0122093Y0040869D02*
D03*
X0122093Y0041669D02*
D03*
X0122093Y0042469D02*
D03*
X0122093Y0043269D02*
D03*
X0122093Y0044069D02*
D03*
D55*
X0157988Y0064770D02*
D03*
X0168148Y0060960D02*
D03*
X0168148Y0058420D02*
D03*
X0157988Y0058420D02*
D03*
X0168148Y0059690D02*
D03*
X0168148Y0062230D02*
D03*
X0168148Y0063500D02*
D03*
X0168148Y0064770D02*
D03*
X0168148Y0066040D02*
D03*
X0168148Y0067310D02*
D03*
X0168148Y0068580D02*
D03*
X0168148Y0069850D02*
D03*
X0168148Y0071120D02*
D03*
X0168148Y0072390D02*
D03*
X0168148Y0073660D02*
D03*
X0168148Y0074930D02*
D03*
X0157988Y0059690D02*
D03*
X0157988Y0060960D02*
D03*
X0157988Y0062230D02*
D03*
X0157988Y0063500D02*
D03*
X0157988Y0066040D02*
D03*
X0157988Y0067310D02*
D03*
X0157988Y0068580D02*
D03*
X0157988Y0069850D02*
D03*
X0157988Y0071120D02*
D03*
X0157988Y0072390D02*
D03*
X0157988Y0073660D02*
D03*
X0157988Y0074930D02*
D03*
D56*
X0114532Y0067161D02*
D03*
X0113732Y0067161D02*
D03*
X0112932Y0067161D02*
D03*
X0112132Y0067161D02*
D03*
X0111332Y0067161D02*
D03*
X0110532Y0067161D02*
D03*
X0109732Y0067161D02*
D03*
X0108932Y0067161D02*
D03*
X0108132Y0067161D02*
D03*
X0107332Y0067161D02*
D03*
X0106532Y0067161D02*
D03*
X0106532Y0078761D02*
D03*
X0107332Y0078761D02*
D03*
X0108132Y0078761D02*
D03*
X0108932Y0078761D02*
D03*
X0109732Y0078761D02*
D03*
X0110532Y0078761D02*
D03*
X0111332Y0078761D02*
D03*
X0112132Y0078761D02*
D03*
X0112932Y0078761D02*
D03*
X0113732Y0078761D02*
D03*
X0114532Y0078761D02*
D03*
D57*
X0111593Y0033569D02*
D03*
X0112393Y0033569D02*
D03*
X0113193Y0033569D02*
D03*
X0113993Y0033569D02*
D03*
X0114793Y0033569D02*
D03*
X0115593Y0033569D02*
D03*
X0116393Y0033569D02*
D03*
X0117193Y0033569D02*
D03*
X0117993Y0033569D02*
D03*
X0118793Y0033569D02*
D03*
X0119593Y0033569D02*
D03*
X0119593Y0046569D02*
D03*
X0118793Y0046569D02*
D03*
X0117993Y0046569D02*
D03*
X0117193Y0046569D02*
D03*
X0116393Y0046569D02*
D03*
X0115593Y0046569D02*
D03*
X0114793Y0046569D02*
D03*
X0113993Y0046569D02*
D03*
X0113193Y0046569D02*
D03*
X0112393Y0046569D02*
D03*
X0111593Y0046569D02*
D03*
D58*
X0033528Y0070358D02*
D03*
X0034798Y0070358D02*
D03*
X0036068Y0070358D02*
D03*
X0037338Y0070358D02*
D03*
X0038608Y0070358D02*
D03*
X0039878Y0070358D02*
D03*
X0041148Y0070358D02*
D03*
X0042418Y0070358D02*
D03*
X0043688Y0070358D02*
D03*
X0044958Y0070358D02*
D03*
X0046228Y0070358D02*
D03*
X0047498Y0070358D02*
D03*
X0048768Y0070358D02*
D03*
X0050038Y0070358D02*
D03*
X0051308Y0070358D02*
D03*
X0052578Y0070358D02*
D03*
X0053848Y0070358D02*
D03*
X0055118Y0070358D02*
D03*
X0033528Y0080010D02*
D03*
X0034798Y0080010D02*
D03*
X0036068Y0080010D02*
D03*
X0037338Y0080010D02*
D03*
X0038608Y0080010D02*
D03*
X0039878Y0080010D02*
D03*
X0041148Y0080010D02*
D03*
X0042418Y0080010D02*
D03*
X0043688Y0080010D02*
D03*
X0044958Y0080010D02*
D03*
X0046228Y0080010D02*
D03*
X0047498Y0080010D02*
D03*
X0048768Y0080010D02*
D03*
X0050038Y0080010D02*
D03*
X0051308Y0080010D02*
D03*
X0052578Y0080010D02*
D03*
X0053848Y0080010D02*
D03*
X0055118Y0080010D02*
D03*
X0034163Y0086360D02*
D03*
X0035433Y0086360D02*
D03*
X0036703Y0086360D02*
D03*
X0037973Y0086360D02*
D03*
X0039243Y0086360D02*
D03*
X0040513Y0086360D02*
D03*
X0041783Y0086360D02*
D03*
X0043053Y0086360D02*
D03*
X0044323Y0086360D02*
D03*
X0045593Y0086360D02*
D03*
X0046863Y0086360D02*
D03*
X0048133Y0086360D02*
D03*
X0049403Y0086360D02*
D03*
X0050673Y0086360D02*
D03*
X0051943Y0086360D02*
D03*
X0053213Y0086360D02*
D03*
X0054483Y0086360D02*
D03*
X0055753Y0086360D02*
D03*
X0034163Y0096012D02*
D03*
X0035433Y0096012D02*
D03*
X0036703Y0096012D02*
D03*
X0037973Y0096012D02*
D03*
X0039243Y0096012D02*
D03*
X0040513Y0096012D02*
D03*
X0044323Y0096012D02*
D03*
X0045593Y0096012D02*
D03*
X0046863Y0096012D02*
D03*
X0048133Y0096012D02*
D03*
X0049403Y0096012D02*
D03*
X0050673Y0096012D02*
D03*
X0051943Y0096012D02*
D03*
X0053213Y0096012D02*
D03*
X0054483Y0096012D02*
D03*
X0055753Y0096012D02*
D03*
X0041783Y0096012D02*
D03*
X0043053Y0096012D02*
D03*
D59*
X0033782Y0020142D02*
D03*
X0033782Y0021412D02*
D03*
X0033782Y0023952D02*
D03*
X0028194Y0027762D02*
D03*
X0028194Y0025222D02*
D03*
X0028194Y0023952D02*
D03*
X0028194Y0022682D02*
D03*
X0028194Y0021412D02*
D03*
X0028194Y0020142D02*
D03*
X0028194Y0018872D02*
D03*
X0033782Y0018872D02*
D03*
X0033782Y0022682D02*
D03*
X0033782Y0025222D02*
D03*
X0033782Y0026492D02*
D03*
X0033782Y0027762D02*
D03*
X0028194Y0026492D02*
D03*
D60*
X0012065Y0047752D02*
D03*
D61*
X0022098Y0054407D02*
D03*
D62*
X0114808Y0039116D02*
D03*
D63*
X0109982Y0073660D02*
D03*
D64*
X0042164Y0021971D02*
D03*
X0042164Y0023241D02*
D03*
X0042164Y0024511D02*
D03*
X0042164Y0025781D02*
D03*
X0042164Y0027051D02*
D03*
X0042164Y0028321D02*
D03*
M02*
