%FSAX43Y43*%
%MOMM*%
G71*
G01*
G75*
%ADD10R,11.430X1.524*%
%ADD11R,30.480X1.524*%
%ADD12R,1.524X0.305*%
%ADD13R,0.305X1.524*%
%ADD14R,1.524X1.270*%
%ADD15R,0.762X0.889*%
%ADD16O,0.432X1.524*%
%ADD17R,0.432X1.524*%
%ADD18R,1.778X2.286*%
%ADD19R,1.270X1.143*%
%ADD20R,1.524X3.048*%
%ADD21R,0.889X0.762*%
%ADD22R,3.048X1.524*%
%ADD23R,1.270X1.524*%
%ADD24R,2.286X1.778*%
%ADD25R,1.524X0.508*%
%ADD26O,0.610X2.032*%
%ADD27R,1.143X1.270*%
%ADD28R,1.778X1.524*%
%ADD29R,1.524X1.778*%
%ADD30R,1.524X2.032*%
%ADD31R,2.540X0.610*%
%ADD32O,2.540X0.610*%
%ADD33O,1.778X3.048*%
%ADD34R,5.588X6.350*%
%ADD35R,3.810X2.032*%
%ADD36R,2.032X1.524*%
%ADD37R,1.727X1.219*%
%ADD38O,1.727X1.219*%
%ADD39O,2.540X1.270*%
%ADD40O,2.032X0.610*%
%ADD41R,15.240X5.080*%
%ADD42R,2.540X1.778*%
%ADD43R,0.914X1.270*%
%ADD44R,0.914X0.914*%
%ADD45R,1.778X2.540*%
%ADD46R,3.048X2.286*%
%ADD47R,1.270X1.016*%
%ADD48R,1.016X1.270*%
%ADD49R,1.780X0.420*%
%ADD50R,1.780X0.420*%
%ADD51O,1.016X5.080*%
%ADD52O,2.032X0.762*%
%ADD53R,1.727X1.829*%
%ADD54R,1.778X0.508*%
%ADD55R,2.540X0.635*%
%ADD56R,0.508X1.524*%
%ADD57R,0.508X1.778*%
%ADD58R,0.610X2.032*%
%ADD59R,2.032X0.610*%
%ADD60R,21.590X1.524*%
%ADD61R,1.524X14.859*%
%ADD62O,8.636X8.382*%
%ADD63R,7.874X6.096*%
%ADD64R,1.727X0.813*%
%ADD65C,0.203*%
%ADD66C,0.356*%
%ADD67C,0.457*%
%ADD68C,0.305*%
%ADD69C,1.270*%
%ADD70C,0.508*%
%ADD71C,0.406*%
%ADD72C,0.635*%
%ADD73C,0.381*%
%ADD74C,0.584*%
%ADD75C,0.254*%
%ADD76C,0.813*%
%ADD77C,0.711*%
%ADD78C,0.889*%
%ADD79R,25.146X25.400*%
%ADD80R,1.397X0.635*%
%ADD81C,1.270*%
%ADD82C,1.651*%
%ADD83C,1.524*%
%ADD84R,1.270X1.270*%
%ADD85C,1.626*%
%ADD86C,3.302*%
%ADD87R,10.160X7.620*%
%ADD88C,2.286*%
%ADD89C,6.350*%
%ADD90C,1.930*%
%ADD91C,5.842*%
%ADD92C,1.905*%
%ADD93R,1.905X1.905*%
%ADD94C,1.575*%
%ADD95C,1.727*%
%ADD96R,1.727X1.727*%
%ADD97C,0.813*%
%ADD98R,24.130X1.524*%
%ADD99R,2.032X30.480*%
%ADD100R,1.016X0.914*%
%ADD101R,0.914X1.016*%
%ADD102R,0.762X0.762*%
%ADD103R,1.829X1.727*%
%ADD104R,2.032X3.810*%
%ADD105R,1.270X0.914*%
%ADD106R,2.286X3.048*%
%ADD107O,0.762X2.032*%
%ADD108R,1.194X0.787*%
%ADD109O,1.194X0.787*%
%ADD110R,5.080X2.032*%
%ADD111R,1.270X2.794*%
%ADD112R,1.270X3.048*%
%ADD113C,0.200*%
%ADD114C,0.127*%
%ADD115R,79.883X6.985*%
%ADD116R,11.633X1.727*%
%ADD117R,30.683X1.727*%
%ADD118R,1.727X0.508*%
%ADD119R,0.508X1.727*%
%ADD120R,1.727X1.473*%
%ADD121R,0.965X1.092*%
%ADD122O,0.635X1.727*%
%ADD123R,0.635X1.727*%
%ADD124R,1.981X2.489*%
%ADD125R,1.473X1.346*%
%ADD126R,1.727X3.251*%
%ADD127R,1.092X0.965*%
%ADD128R,3.251X1.727*%
%ADD129R,1.473X1.727*%
%ADD130R,2.489X1.981*%
%ADD131R,1.727X0.711*%
%ADD132O,0.813X2.235*%
%ADD133R,1.346X1.473*%
%ADD134R,1.981X1.727*%
%ADD135R,1.727X1.981*%
%ADD136R,1.727X2.235*%
%ADD137R,2.743X0.813*%
%ADD138O,2.743X0.813*%
%ADD139O,1.981X3.251*%
%ADD140R,5.791X6.553*%
%ADD141R,4.013X2.235*%
%ADD142R,2.235X1.727*%
%ADD143R,1.930X1.422*%
%ADD144O,1.930X1.422*%
%ADD145O,2.743X1.473*%
%ADD146O,2.235X0.813*%
%ADD147R,15.443X5.283*%
%ADD148R,2.743X1.981*%
%ADD149R,1.118X1.473*%
%ADD150R,1.118X1.118*%
%ADD151R,1.981X2.743*%
%ADD152R,3.251X2.489*%
%ADD153R,1.473X1.219*%
%ADD154R,1.219X1.473*%
%ADD155R,1.983X0.623*%
%ADD156R,1.983X0.623*%
%ADD157O,1.219X5.283*%
%ADD158O,2.235X0.965*%
%ADD159R,1.930X2.032*%
%ADD160R,1.981X0.711*%
%ADD161R,2.743X0.838*%
%ADD162R,0.711X1.727*%
%ADD163R,0.711X1.981*%
%ADD164R,0.813X2.235*%
%ADD165R,2.235X0.813*%
%ADD166R,21.793X1.727*%
%ADD167R,1.727X15.062*%
%ADD168O,8.839X8.585*%
%ADD169R,8.077X6.299*%
%ADD170R,1.930X1.016*%
%ADD171C,1.473*%
%ADD172C,1.854*%
%ADD173R,1.473X1.473*%
%ADD174C,1.829*%
%ADD175C,3.505*%
%ADD176R,10.363X7.823*%
%ADD177C,0.203*%
%ADD178C,2.489*%
%ADD179C,6.553*%
%ADD180C,2.134*%
%ADD181C,6.045*%
%ADD182C,2.108*%
%ADD183R,2.108X2.108*%
%ADD184C,1.778*%
%ADD185R,1.930X1.930*%
%ADD186C,1.016*%
%ADD187R,24.333X1.727*%
%ADD188R,2.235X30.683*%
%ADD189R,1.219X1.118*%
%ADD190R,1.118X1.219*%
%ADD191R,0.965X0.965*%
%ADD192R,2.032X1.930*%
%ADD193R,2.235X4.013*%
%ADD194R,1.473X1.118*%
%ADD195R,2.489X3.251*%
%ADD196O,0.965X2.235*%
%ADD197R,1.397X0.991*%
%ADD198O,1.397X0.991*%
%ADD199R,5.283X2.235*%
%ADD200C,0.762*%
%ADD201R,46.101X0.889*%
%ADD202R,14.351X0.889*%
%ADD203R,14.224X0.889*%
%ADD204R,2.413X2.667*%
%ADD205R,2.413X1.397*%
%AMTHD206*
7,0,0,1.981,1.473,0.254,45*
%
%ADD206THD206*%
%ADD207C,1.219*%
%ADD208C,1.397*%
%ADD209C,1.321*%
%ADD210C,1.422*%
%ADD211C,3.810*%
%AMTHD212*
7,0,0,4.572,4.064,0.254,45*
%
%ADD212THD212*%
%AMTHD213*
7,0,0,2.184,1.676,0.254,45*
%
%ADD213THD213*%
%ADD214C,3.556*%
%AMTHD215*
7,0,0,2.845,2.337,0.254,45*
%
%ADD215THD215*%
%AMTHD216*
7,0,0,2.083,1.575,0.254,45*
%
%ADD216THD216*%
%AMTHD217*
7,0,0,2.413,1.905,0.254,45*
%
%ADD217THD217*%
%ADD218C,1.143*%
%AMTHD219*
7,0,0,1.905,1.397,0.254,45*
%
%ADD219THD219*%
%ADD220C,0.889*%
%AMTHD221*
7,0,0,2.159,1.651,0.254,45*
%
%ADD221THD221*%
D114*
X0106070Y0008077D02*
G03*
X0104216Y0008077I-0000927J-0000000D01*
G01*
X0041440Y0008077D02*
G03*
X0040513Y0009004I-0000927J0000000D01*
G01*
X0057810Y0008077D02*
G03*
X0055956Y0008077I-0000927J0000000D01*
G01*
X0016612Y0009004D02*
G03*
X0015684Y0008077I0000000J-0000927D01*
G01*
X0121514Y0009004D02*
G03*
X0120587Y0008077I0000000J-0000927D01*
G01*
X0000635Y0137541D02*
X0202311Y0137541D01*
X0016612Y0009004D02*
X0040513Y0009004D01*
X0000673Y0000749D02*
X0015684Y0000749D01*
X0041440Y0008077D02*
X0041440Y0000749D01*
X0055956Y0000749D02*
X0055956Y0008077D01*
X0057810Y0000749D02*
X0057810Y0008077D01*
X0104216Y0000749D02*
X0104216Y0008077D01*
X0106070Y0000749D02*
X0106070Y0008077D01*
X0106070Y0000749D02*
X0120587Y0000749D01*
X0057810Y0000749D02*
X0104216Y0000749D01*
X0202298Y0009004D02*
X0202311Y0137541D01*
X0015684Y0000749D02*
X0015684Y0008077D01*
X0041440Y0000749D02*
X0055956Y0000749D01*
X0000635Y0137541D02*
X0000673Y0000749D01*
X0120587Y0000749D02*
X0120587Y0008077D01*
X0121514Y0009004D02*
X0202298Y0009004D01*
M02*
