%FSAX43Y43*%
%MOMM*%
G71*
G01*
G75*
%ADD10R,11.430X1.524*%
%ADD11R,30.480X1.524*%
%ADD12R,1.524X0.305*%
%ADD13R,0.305X1.524*%
%ADD14R,1.524X1.270*%
%ADD15R,0.762X0.889*%
%ADD16O,0.432X1.524*%
%ADD17R,0.432X1.524*%
%ADD18R,1.778X2.286*%
%ADD19R,1.270X1.143*%
%ADD20R,1.524X3.048*%
%ADD21R,0.889X0.762*%
%ADD22R,3.048X1.524*%
%ADD23R,1.270X1.524*%
%ADD24R,2.286X1.778*%
%ADD25R,1.524X0.508*%
%ADD26O,0.610X2.032*%
%ADD27R,1.143X1.270*%
%ADD28R,1.778X1.524*%
%ADD29R,1.524X1.778*%
%ADD30R,1.524X2.032*%
%ADD31R,2.540X0.610*%
%ADD32O,2.540X0.610*%
%ADD33O,1.778X3.048*%
%ADD34R,5.588X6.350*%
%ADD35R,3.810X2.032*%
%ADD36R,2.032X1.524*%
%ADD37R,1.727X1.219*%
%ADD38O,1.727X1.219*%
%ADD39O,2.540X1.270*%
%ADD40O,2.032X0.610*%
%ADD41R,15.240X5.080*%
%ADD42R,2.540X1.778*%
%ADD43R,0.914X1.270*%
%ADD44R,0.914X0.914*%
%ADD45R,1.778X2.540*%
%ADD46R,3.048X2.286*%
%ADD47R,1.270X1.016*%
%ADD48R,1.016X1.270*%
%ADD49R,1.780X0.420*%
%ADD50R,1.780X0.420*%
%ADD51O,1.016X5.080*%
%ADD52O,2.032X0.762*%
%ADD53R,1.727X1.829*%
%ADD54R,1.778X0.508*%
%ADD55R,2.540X0.635*%
%ADD56R,0.508X1.524*%
%ADD57R,0.508X1.778*%
%ADD58R,0.610X2.032*%
%ADD59R,2.032X0.610*%
%ADD60R,21.590X1.524*%
%ADD61R,1.524X14.859*%
%ADD62O,8.636X8.382*%
%ADD63R,7.874X6.096*%
%ADD64R,1.727X0.813*%
%ADD65C,0.203*%
%ADD66C,0.356*%
%ADD67C,0.457*%
%ADD68C,0.305*%
%ADD69C,1.270*%
%ADD70C,0.508*%
%ADD71C,0.406*%
%ADD72C,0.635*%
%ADD73C,0.381*%
%ADD74C,0.584*%
%ADD75C,0.254*%
%ADD76C,0.813*%
%ADD77C,0.711*%
%ADD78C,0.889*%
%ADD79R,25.146X25.400*%
%ADD80R,1.397X0.635*%
%ADD81C,1.270*%
%ADD82C,1.651*%
%ADD83C,1.524*%
%ADD84R,1.270X1.270*%
%ADD85C,1.626*%
%ADD86C,3.302*%
%ADD87R,10.160X7.620*%
%ADD88C,2.286*%
%ADD89C,6.350*%
%ADD90C,1.930*%
%ADD91C,5.842*%
%ADD92C,1.905*%
%ADD93R,1.905X1.905*%
%ADD94C,1.575*%
%ADD95C,1.727*%
%ADD96R,1.727X1.727*%
%ADD97C,0.813*%
%ADD98R,24.130X1.524*%
%ADD99R,2.032X30.480*%
%ADD100R,1.016X0.914*%
%ADD101R,0.914X1.016*%
%ADD102R,0.762X0.762*%
%ADD103R,1.829X1.727*%
%ADD104R,2.032X3.810*%
%ADD105R,1.270X0.914*%
%ADD106R,2.286X3.048*%
%ADD107O,0.762X2.032*%
%ADD108R,1.194X0.787*%
%ADD109O,1.194X0.787*%
%ADD110R,5.080X2.032*%
%ADD111R,1.270X2.794*%
%ADD112R,1.270X3.048*%
%ADD113C,0.200*%
%ADD114C,0.127*%
%ADD115R,79.883X6.985*%
%ADD116R,11.633X1.727*%
%ADD117R,30.683X1.727*%
%ADD118R,1.727X0.508*%
%ADD119R,0.508X1.727*%
%ADD120R,1.727X1.473*%
%ADD121R,0.965X1.092*%
%ADD122O,0.635X1.727*%
%ADD123R,0.635X1.727*%
%ADD124R,1.981X2.489*%
%ADD125R,1.473X1.346*%
%ADD126R,1.727X3.251*%
%ADD127R,1.092X0.965*%
%ADD128R,3.251X1.727*%
%ADD129R,1.473X1.727*%
%ADD130R,2.489X1.981*%
%ADD131R,1.727X0.711*%
%ADD132O,0.813X2.235*%
%ADD133R,1.346X1.473*%
%ADD134R,1.981X1.727*%
%ADD135R,1.727X1.981*%
%ADD136R,1.727X2.235*%
%ADD137R,2.743X0.813*%
%ADD138O,2.743X0.813*%
%ADD139O,1.981X3.251*%
%ADD140R,5.791X6.553*%
%ADD141R,4.013X2.235*%
%ADD142R,2.235X1.727*%
%ADD143R,1.930X1.422*%
%ADD144O,1.930X1.422*%
%ADD145O,2.743X1.473*%
%ADD146O,2.235X0.813*%
%ADD147R,15.443X5.283*%
%ADD148R,2.743X1.981*%
%ADD149R,1.118X1.473*%
%ADD150R,1.118X1.118*%
%ADD151R,1.981X2.743*%
%ADD152R,3.251X2.489*%
%ADD153R,1.473X1.219*%
%ADD154R,1.219X1.473*%
%ADD155R,1.983X0.623*%
%ADD156R,1.983X0.623*%
%ADD157O,1.219X5.283*%
%ADD158O,2.235X0.965*%
%ADD159R,1.930X2.032*%
%ADD160R,1.981X0.711*%
%ADD161R,2.743X0.838*%
%ADD162R,0.711X1.727*%
%ADD163R,0.711X1.981*%
%ADD164R,0.813X2.235*%
%ADD165R,2.235X0.813*%
%ADD166R,21.793X1.727*%
%ADD167R,1.727X15.062*%
%ADD168O,8.839X8.585*%
%ADD169R,8.077X6.299*%
%ADD170R,1.930X1.016*%
%ADD171C,1.473*%
%ADD172C,1.854*%
%ADD173R,1.473X1.473*%
%ADD174C,1.829*%
%ADD175C,3.505*%
%ADD176R,10.363X7.823*%
%ADD177C,0.203*%
%ADD178C,2.489*%
%ADD179C,6.553*%
%ADD180C,2.134*%
%ADD181C,6.045*%
%ADD182C,2.108*%
%ADD183R,2.108X2.108*%
%ADD184C,1.778*%
%ADD185R,1.930X1.930*%
%ADD186C,1.016*%
%ADD187R,24.333X1.727*%
%ADD188R,2.235X30.683*%
%ADD189R,1.219X1.118*%
%ADD190R,1.118X1.219*%
%ADD191R,0.965X0.965*%
%ADD192R,2.032X1.930*%
%ADD193R,2.235X4.013*%
%ADD194R,1.473X1.118*%
%ADD195R,2.489X3.251*%
%ADD196O,0.965X2.235*%
%ADD197R,1.397X0.991*%
%ADD198O,1.397X0.991*%
%ADD199R,5.283X2.235*%
D90*
X0020828Y0130683D02*
D03*
X0018288Y0128143D02*
D03*
X0015748Y0130683D02*
D03*
X0038608Y0130683D02*
D03*
X0038608Y0128143D02*
D03*
X0036068Y0130683D02*
D03*
X0036068Y0128143D02*
D03*
X0033528Y0130683D02*
D03*
X0033528Y0128143D02*
D03*
X0030988Y0130683D02*
D03*
X0030988Y0128143D02*
D03*
X0028448Y0130683D02*
D03*
X0028448Y0128143D02*
D03*
X0025908Y0130683D02*
D03*
X0025908Y0128143D02*
D03*
X0023368Y0130683D02*
D03*
X0023368Y0128143D02*
D03*
X0020828Y0128143D02*
D03*
X0018288Y0130683D02*
D03*
D95*
X0148209Y0124714D02*
D03*
X0153289Y0124714D02*
D03*
X0170307Y0095885D02*
D03*
X0168783Y0119634D02*
D03*
X0168783Y0124714D02*
D03*
X0168783Y0127254D02*
D03*
X0168783Y0129794D02*
D03*
X0163703Y0127254D02*
D03*
X0163703Y0119634D02*
D03*
X0179197Y0127254D02*
D03*
X0184277Y0127254D02*
D03*
X0184277Y0119634D02*
D03*
X0184277Y0129794D02*
D03*
X0179197Y0129794D02*
D03*
X0179197Y0119634D02*
D03*
X0184277Y0124714D02*
D03*
X0179197Y0124714D02*
D03*
X0194691Y0124714D02*
D03*
X0199771Y0129794D02*
D03*
X0194691Y0119634D02*
D03*
X0194691Y0129794D02*
D03*
X0199771Y0124714D02*
D03*
X0199771Y0119634D02*
D03*
X0176530Y0119634D02*
D03*
X0176530Y0124714D02*
D03*
X0176530Y0127254D02*
D03*
X0176530Y0129794D02*
D03*
X0171450Y0129794D02*
D03*
X0171450Y0127254D02*
D03*
X0171450Y0124714D02*
D03*
X0171450Y0119634D02*
D03*
X0155956Y0124714D02*
D03*
X0155956Y0127254D02*
D03*
X0155956Y0129794D02*
D03*
X0161036Y0127254D02*
D03*
X0161036Y0119634D02*
D03*
X0155956Y0119634D02*
D03*
X0180467Y0095885D02*
D03*
X0197739Y0022733D02*
D03*
X0148971Y0020701D02*
D03*
X0159131Y0020701D02*
D03*
X0159131Y0025781D02*
D03*
X0154051Y0020701D02*
D03*
X0154051Y0025781D02*
D03*
X0148971Y0025781D02*
D03*
X0197739Y0027813D02*
D03*
X0189484Y0043434D02*
D03*
X0189484Y0045974D02*
D03*
X0194564Y0045974D02*
D03*
X0194564Y0040894D02*
D03*
X0189484Y0040894D02*
D03*
X0197739Y0032893D02*
D03*
X0189484Y0035814D02*
D03*
X0192659Y0022733D02*
D03*
X0194564Y0043434D02*
D03*
X0192659Y0027813D02*
D03*
X0192659Y0032893D02*
D03*
X0194564Y0035814D02*
D03*
X0176403Y0025781D02*
D03*
X0181483Y0025781D02*
D03*
X0181483Y0020701D02*
D03*
X0186563Y0025781D02*
D03*
X0186563Y0020701D02*
D03*
X0176403Y0020701D02*
D03*
X0022987Y0101600D02*
D03*
X0022987Y0096520D02*
D03*
X0022987Y0091440D02*
D03*
X0028067Y0091440D02*
D03*
X0028067Y0096520D02*
D03*
X0028067Y0101600D02*
D03*
X0162941Y0115697D02*
D03*
X0162941Y0110617D02*
D03*
X0162941Y0108077D02*
D03*
X0162941Y0105537D02*
D03*
X0157861Y0105537D02*
D03*
X0157861Y0108077D02*
D03*
X0157861Y0110617D02*
D03*
X0157861Y0115697D02*
D03*
X0047498Y0129032D02*
D03*
X0052578Y0129032D02*
D03*
X0055118Y0129032D02*
D03*
X0057658Y0129032D02*
D03*
X0057658Y0123952D02*
D03*
X0055118Y0123952D02*
D03*
X0052578Y0123952D02*
D03*
X0047498Y0123952D02*
D03*
X0014351Y0118110D02*
D03*
X0011811Y0118110D02*
D03*
X0009271Y0118110D02*
D03*
X0009271Y0113030D02*
D03*
X0011811Y0113030D02*
D03*
X0014351Y0113030D02*
D03*
X0175387Y0095885D02*
D03*
X0177927Y0095885D02*
D03*
X0180467Y0090805D02*
D03*
X0177927Y0090805D02*
D03*
X0175387Y0090805D02*
D03*
X0170307Y0090805D02*
D03*
X0153289Y0119634D02*
D03*
X0019431Y0118110D02*
D03*
X0019431Y0113030D02*
D03*
X0148209Y0119634D02*
D03*
X0192024Y0124714D02*
D03*
X0186944Y0124714D02*
D03*
X0192024Y0119634D02*
D03*
X0186944Y0119634D02*
D03*
X0192024Y0129794D02*
D03*
X0186944Y0129794D02*
D03*
X0192024Y0127254D02*
D03*
X0186944Y0127254D02*
D03*
X0191262Y0090805D02*
D03*
X0191262Y0095885D02*
D03*
X0186182Y0090805D02*
D03*
X0196342Y0095885D02*
D03*
X0196342Y0090805D02*
D03*
X0186182Y0095885D02*
D03*
X0184023Y0020701D02*
D03*
X0197739Y0025273D02*
D03*
X0184023Y0025781D02*
D03*
X0192659Y0025273D02*
D03*
X0156591Y0020701D02*
D03*
X0193802Y0095885D02*
D03*
X0156591Y0025781D02*
D03*
X0193802Y0090805D02*
D03*
X0199771Y0127254D02*
D03*
X0194691Y0127254D02*
D03*
X0022987Y0093980D02*
D03*
X0028067Y0093980D02*
D03*
X0153289Y0127254D02*
D03*
X0163703Y0124714D02*
D03*
X0161036Y0124714D02*
D03*
X0148209Y0127254D02*
D03*
X0161036Y0129794D02*
D03*
X0163703Y0129794D02*
D03*
X0153289Y0129794D02*
D03*
X0148209Y0129794D02*
D03*
X0025019Y0078105D02*
D03*
X0025019Y0073025D02*
D03*
X0025019Y0063881D02*
D03*
X0025019Y0068961D02*
D03*
X0007747Y0107061D02*
D03*
X0007747Y0101981D02*
D03*
X0016764Y0101981D02*
D03*
X0016764Y0107061D02*
D03*
D115*
X0080963Y0003874D02*
D03*
D117*
X0016256Y0009627D02*
D03*
D120*
X0137922Y0124206D02*
D03*
X0137922Y0121412D02*
D03*
X0139573Y0089789D02*
D03*
X0139573Y0086995D02*
D03*
X0057023Y0118491D02*
D03*
X0057023Y0121285D02*
D03*
X0052324Y0118491D02*
D03*
X0052324Y0121285D02*
D03*
D121*
X0109220Y0120904D02*
D03*
X0109220Y0122555D02*
D03*
X0143637Y0112395D02*
D03*
X0143637Y0114046D02*
D03*
X0124079Y0123444D02*
D03*
X0124079Y0121793D02*
D03*
X0006223Y0026924D02*
D03*
X0006223Y0028575D02*
D03*
X0034544Y0026035D02*
D03*
X0034544Y0027686D02*
D03*
X0081407Y0059436D02*
D03*
X0081407Y0057785D02*
D03*
X0160401Y0089154D02*
D03*
X0160401Y0090805D02*
D03*
X0082804Y0071755D02*
D03*
X0082804Y0070104D02*
D03*
X0175768Y0102489D02*
D03*
X0175768Y0104140D02*
D03*
X0120828Y0108458D02*
D03*
X0120828Y0106807D02*
D03*
X0120828Y0113411D02*
D03*
X0120828Y0111760D02*
D03*
X0120828Y0116459D02*
D03*
X0120828Y0114808D02*
D03*
X0120828Y0122301D02*
D03*
X0120828Y0120650D02*
D03*
X0111252Y0105918D02*
D03*
X0041910Y0038100D02*
D03*
X0041910Y0036449D02*
D03*
X0029083Y0019126D02*
D03*
X0029083Y0020777D02*
D03*
X0025146Y0027940D02*
D03*
X0025146Y0026289D02*
D03*
X0026416Y0026289D02*
D03*
X0026416Y0027940D02*
D03*
X0027686Y0024384D02*
D03*
X0027686Y0026035D02*
D03*
X0164338Y0081280D02*
D03*
X0131699Y0083058D02*
D03*
X0131699Y0081407D02*
D03*
X0146050Y0077597D02*
D03*
X0146050Y0075946D02*
D03*
X0158242Y0077597D02*
D03*
X0158242Y0079248D02*
D03*
X0110871Y0083312D02*
D03*
X0125222Y0080264D02*
D03*
X0125222Y0078613D02*
D03*
X0132969Y0081534D02*
D03*
X0132969Y0079883D02*
D03*
X0162306Y0072390D02*
D03*
X0162306Y0074041D02*
D03*
X0163830Y0072390D02*
D03*
X0163830Y0074041D02*
D03*
X0160909Y0073660D02*
D03*
X0160909Y0075311D02*
D03*
X0165227Y0073660D02*
D03*
X0165227Y0075311D02*
D03*
X0165227Y0063627D02*
D03*
X0165227Y0061976D02*
D03*
X0160909Y0063627D02*
D03*
X0160909Y0061976D02*
D03*
X0179578Y0040386D02*
D03*
X0179578Y0038735D02*
D03*
X0141478Y0015621D02*
D03*
X0141478Y0013970D02*
D03*
X0179705Y0029972D02*
D03*
X0179705Y0031623D02*
D03*
X0134112Y0024257D02*
D03*
X0134112Y0025908D02*
D03*
X0169418Y0035814D02*
D03*
X0169418Y0037465D02*
D03*
X0154686Y0035560D02*
D03*
X0154686Y0037211D02*
D03*
X0179578Y0043180D02*
D03*
X0179578Y0044831D02*
D03*
X0160147Y0042418D02*
D03*
X0160147Y0044069D02*
D03*
X0156845Y0050673D02*
D03*
X0156845Y0052324D02*
D03*
X0137541Y0043815D02*
D03*
X0137541Y0045466D02*
D03*
X0185420Y0039624D02*
D03*
X0185420Y0037973D02*
D03*
X0186817Y0039624D02*
D03*
X0186817Y0037973D02*
D03*
X0161671Y0037084D02*
D03*
X0161671Y0035433D02*
D03*
X0159131Y0037084D02*
D03*
X0159131Y0035433D02*
D03*
X0141478Y0050165D02*
D03*
X0141478Y0048514D02*
D03*
X0139700Y0046990D02*
D03*
X0139700Y0045339D02*
D03*
X0154048Y0047498D02*
D03*
X0154048Y0045847D02*
D03*
X0152651Y0044704D02*
D03*
X0152651Y0043053D02*
D03*
X0147447Y0053848D02*
D03*
X0147447Y0055499D02*
D03*
X0115951Y0071755D02*
D03*
X0115951Y0070104D02*
D03*
X0122301Y0054356D02*
D03*
X0122301Y0056007D02*
D03*
X0116586Y0045339D02*
D03*
X0116586Y0046990D02*
D03*
X0101092Y0041402D02*
D03*
X0101092Y0039751D02*
D03*
X0027813Y0056007D02*
D03*
X0027813Y0057658D02*
D03*
X0062230Y0060960D02*
D03*
X0062230Y0059309D02*
D03*
X0089154Y0060071D02*
D03*
X0089154Y0061722D02*
D03*
X0063881Y0035814D02*
D03*
X0063881Y0037465D02*
D03*
X0062230Y0070485D02*
D03*
X0062230Y0068834D02*
D03*
X0062230Y0076962D02*
D03*
X0062230Y0075311D02*
D03*
X0072136Y0082931D02*
D03*
X0072136Y0084582D02*
D03*
X0062230Y0056007D02*
D03*
X0062230Y0057658D02*
D03*
X0062230Y0079248D02*
D03*
X0062230Y0080899D02*
D03*
X0091567Y0078740D02*
D03*
X0091567Y0080391D02*
D03*
X0091567Y0054991D02*
D03*
X0091567Y0056642D02*
D03*
X0062230Y0062611D02*
D03*
X0062230Y0064262D02*
D03*
X0062230Y0067310D02*
D03*
X0062230Y0065659D02*
D03*
X0091567Y0074041D02*
D03*
X0091567Y0075692D02*
D03*
X0091567Y0067183D02*
D03*
X0091567Y0068834D02*
D03*
X0091567Y0063373D02*
D03*
X0091567Y0065024D02*
D03*
X0062230Y0073660D02*
D03*
X0062230Y0072009D02*
D03*
X0061722Y0040259D02*
D03*
X0061722Y0038608D02*
D03*
X0061722Y0041529D02*
D03*
X0061722Y0043180D02*
D03*
X0119634Y0012573D02*
D03*
X0119634Y0010922D02*
D03*
X0031623Y0058166D02*
D03*
X0031623Y0056515D02*
D03*
X0027813Y0049276D02*
D03*
X0027813Y0050927D02*
D03*
X0031623Y0049784D02*
D03*
X0031623Y0051435D02*
D03*
X0055626Y0048006D02*
D03*
X0055626Y0049657D02*
D03*
X0047117Y0050546D02*
D03*
X0047117Y0052197D02*
D03*
X0082296Y0049022D02*
D03*
X0082296Y0050673D02*
D03*
X0083693Y0049022D02*
D03*
X0083693Y0050673D02*
D03*
X0084963Y0050673D02*
D03*
X0084963Y0049022D02*
D03*
X0086233Y0049022D02*
D03*
X0086233Y0050673D02*
D03*
X0087503Y0049022D02*
D03*
X0087503Y0050673D02*
D03*
X0088773Y0050673D02*
D03*
X0088773Y0049022D02*
D03*
X0081153Y0026924D02*
D03*
X0081153Y0025273D02*
D03*
X0069799Y0026924D02*
D03*
X0069799Y0025273D02*
D03*
X0094869Y0033147D02*
D03*
X0094869Y0034798D02*
D03*
X0100711Y0047879D02*
D03*
X0100711Y0049530D02*
D03*
X0122555Y0039624D02*
D03*
X0122555Y0037973D02*
D03*
X0132207Y0053086D02*
D03*
X0132207Y0054737D02*
D03*
X0125222Y0054229D02*
D03*
X0125222Y0055880D02*
D03*
X0126492Y0054229D02*
D03*
X0126492Y0055880D02*
D03*
X0127762Y0054229D02*
D03*
X0127762Y0055880D02*
D03*
X0119888Y0056007D02*
D03*
X0119888Y0054356D02*
D03*
X0147447Y0032512D02*
D03*
X0147447Y0030861D02*
D03*
X0110871Y0084963D02*
D03*
X0112014Y0092075D02*
D03*
X0112014Y0090424D02*
D03*
X0164338Y0082931D02*
D03*
X0116205Y0058293D02*
D03*
X0116205Y0056642D02*
D03*
X0114300Y0052578D02*
D03*
X0114300Y0050927D02*
D03*
X0003454Y0028575D02*
D03*
X0003454Y0026924D02*
D03*
X0054102Y0105410D02*
D03*
X0054102Y0107061D02*
D03*
X0039624Y0105410D02*
D03*
X0039624Y0107061D02*
D03*
X0052070Y0112776D02*
D03*
X0052070Y0114427D02*
D03*
X0039497Y0112903D02*
D03*
X0039497Y0114554D02*
D03*
X0103175Y0105029D02*
D03*
X0103175Y0103378D02*
D03*
X0098095Y0105029D02*
D03*
X0098095Y0103378D02*
D03*
X0083744Y0105029D02*
D03*
X0083744Y0103378D02*
D03*
X0088951Y0105029D02*
D03*
X0088951Y0103378D02*
D03*
X0077267Y0111760D02*
D03*
X0077267Y0113411D02*
D03*
X0072060Y0124333D02*
D03*
X0072060Y0125984D02*
D03*
X0076632Y0116459D02*
D03*
X0076632Y0114808D02*
D03*
X0111252Y0107569D02*
D03*
X0087198Y0063475D02*
D03*
X0087198Y0065126D02*
D03*
X0087071Y0066523D02*
D03*
X0087071Y0068174D02*
D03*
X0084582Y0070104D02*
D03*
X0082779Y0059512D02*
D03*
X0082779Y0057861D02*
D03*
X0084201Y0057912D02*
D03*
X0084582Y0071755D02*
D03*
X0084201Y0059563D02*
D03*
X0085471Y0057912D02*
D03*
X0085471Y0059563D02*
D03*
X0038227Y0114554D02*
D03*
X0038227Y0112903D02*
D03*
X0143510Y0047688D02*
D03*
X0143510Y0049340D02*
D03*
X0142494Y0048260D02*
D03*
X0142494Y0046609D02*
D03*
X0116078Y0012573D02*
D03*
X0116078Y0010922D02*
D03*
X0145412Y0053467D02*
D03*
X0145412Y0051816D02*
D03*
X0028956Y0025400D02*
D03*
X0028956Y0027051D02*
D03*
X0037973Y0118491D02*
D03*
X0037973Y0116840D02*
D03*
X0060071Y0116078D02*
D03*
X0060071Y0117729D02*
D03*
X0180340Y0112395D02*
D03*
X0180340Y0110744D02*
D03*
X0004826Y0028575D02*
D03*
X0004826Y0026924D02*
D03*
X0009271Y0017272D02*
D03*
X0009271Y0015621D02*
D03*
X0009271Y0018542D02*
D03*
X0009271Y0020193D02*
D03*
X0010414Y0017272D02*
D03*
X0010414Y0015621D02*
D03*
X0010414Y0020193D02*
D03*
X0010414Y0018542D02*
D03*
X0019558Y0033147D02*
D03*
X0019558Y0034798D02*
D03*
X0021336Y0033147D02*
D03*
X0021336Y0034798D02*
D03*
X0014224Y0034798D02*
D03*
X0014224Y0033147D02*
D03*
D127*
X0111252Y0124079D02*
D03*
X0112903Y0124079D02*
D03*
X0116459Y0124460D02*
D03*
X0118110Y0124460D02*
D03*
X0138049Y0108077D02*
D03*
X0136398Y0108077D02*
D03*
X0131953Y0115443D02*
D03*
X0133604Y0115443D02*
D03*
X0144145Y0115570D02*
D03*
X0142494Y0115570D02*
D03*
X0136398Y0113284D02*
D03*
X0138049Y0113284D02*
D03*
X0138049Y0114554D02*
D03*
X0136398Y0114554D02*
D03*
X0127381Y0113284D02*
D03*
X0125730Y0113284D02*
D03*
X0127381Y0114554D02*
D03*
X0125730Y0114554D02*
D03*
X0010033Y0029159D02*
D03*
X0008382Y0029159D02*
D03*
X0098425Y0031115D02*
D03*
X0096774Y0031115D02*
D03*
X0174371Y0042545D02*
D03*
X0172720Y0042545D02*
D03*
X0168275Y0045085D02*
D03*
X0169926Y0045085D02*
D03*
X0165481Y0043053D02*
D03*
X0163830Y0043053D02*
D03*
X0168275Y0042545D02*
D03*
X0169926Y0042545D02*
D03*
X0165608Y0041529D02*
D03*
X0163957Y0041529D02*
D03*
X0172339Y0045085D02*
D03*
X0173990Y0045085D02*
D03*
X0165481Y0045847D02*
D03*
X0163830Y0045847D02*
D03*
X0163830Y0044450D02*
D03*
X0165481Y0044450D02*
D03*
X0161671Y0039751D02*
D03*
X0033020Y0027559D02*
D03*
X0083693Y0119380D02*
D03*
X0085344Y0119380D02*
D03*
X0031369Y0027559D02*
D03*
X0152400Y0084328D02*
D03*
X0150749Y0084328D02*
D03*
X0141224Y0090170D02*
D03*
X0142875Y0090170D02*
D03*
X0194437Y0106045D02*
D03*
X0192786Y0106045D02*
D03*
X0074422Y0084455D02*
D03*
X0076073Y0084455D02*
D03*
X0117983Y0106045D02*
D03*
X0116332Y0106045D02*
D03*
X0117983Y0111506D02*
D03*
X0116332Y0111506D02*
D03*
X0117983Y0116586D02*
D03*
X0116332Y0116586D02*
D03*
X0135128Y0029210D02*
D03*
X0136779Y0029210D02*
D03*
X0073304Y0100406D02*
D03*
X0074955Y0100406D02*
D03*
X0030607Y0018669D02*
D03*
X0074930Y0056007D02*
D03*
X0076581Y0056007D02*
D03*
X0079375Y0053721D02*
D03*
X0077724Y0053721D02*
D03*
X0129286Y0091440D02*
D03*
X0127635Y0091440D02*
D03*
X0133096Y0086995D02*
D03*
X0131445Y0086995D02*
D03*
X0131445Y0088138D02*
D03*
X0133096Y0088138D02*
D03*
X0149479Y0075057D02*
D03*
X0147828Y0075057D02*
D03*
X0149860Y0080137D02*
D03*
X0148209Y0080137D02*
D03*
X0120396Y0089535D02*
D03*
X0122047Y0089535D02*
D03*
X0121158Y0087249D02*
D03*
X0122809Y0087249D02*
D03*
X0127508Y0087249D02*
D03*
X0129159Y0087249D02*
D03*
X0126365Y0089535D02*
D03*
X0128016Y0089535D02*
D03*
X0122555Y0081534D02*
D03*
X0124206Y0081534D02*
D03*
X0145669Y0078867D02*
D03*
X0144018Y0078867D02*
D03*
X0144526Y0076835D02*
D03*
X0142875Y0076835D02*
D03*
X0145669Y0070866D02*
D03*
X0144018Y0070866D02*
D03*
X0144526Y0068834D02*
D03*
X0142875Y0068834D02*
D03*
X0160020Y0070612D02*
D03*
X0161671Y0070612D02*
D03*
X0166116Y0070612D02*
D03*
X0164465Y0070612D02*
D03*
X0162306Y0068580D02*
D03*
X0163957Y0068580D02*
D03*
X0139065Y0017780D02*
D03*
X0137414Y0017780D02*
D03*
X0138938Y0042037D02*
D03*
X0137287Y0042037D02*
D03*
X0181610Y0031496D02*
D03*
X0183261Y0031496D02*
D03*
X0161671Y0040894D02*
D03*
X0160020Y0040894D02*
D03*
X0160020Y0039751D02*
D03*
X0165735Y0031242D02*
D03*
X0164084Y0031242D02*
D03*
X0150749Y0031242D02*
D03*
X0149098Y0031242D02*
D03*
X0180721Y0045847D02*
D03*
X0182372Y0045847D02*
D03*
X0172339Y0046609D02*
D03*
X0173990Y0046609D02*
D03*
X0160147Y0045847D02*
D03*
X0161798Y0045847D02*
D03*
X0155448Y0054229D02*
D03*
X0157099Y0054229D02*
D03*
X0169926Y0041021D02*
D03*
X0171577Y0041021D02*
D03*
X0164973Y0029972D02*
D03*
X0166624Y0029972D02*
D03*
X0141983Y0054864D02*
D03*
X0140332Y0054864D02*
D03*
X0142999Y0053213D02*
D03*
X0141348Y0053213D02*
D03*
X0140205Y0051562D02*
D03*
X0141856Y0051562D02*
D03*
X0138808Y0053594D02*
D03*
X0137157Y0053594D02*
D03*
X0137792Y0054737D02*
D03*
X0136141Y0054737D02*
D03*
X0112014Y0074422D02*
D03*
X0113665Y0074422D02*
D03*
X0112014Y0075692D02*
D03*
X0113665Y0075692D02*
D03*
X0110109Y0078359D02*
D03*
X0111760Y0078359D02*
D03*
X0106807Y0078359D02*
D03*
X0108458Y0078359D02*
D03*
X0113284Y0078359D02*
D03*
X0114935Y0078359D02*
D03*
X0110236Y0067564D02*
D03*
X0111887Y0067564D02*
D03*
X0107061Y0067564D02*
D03*
X0108712Y0067564D02*
D03*
X0123571Y0052197D02*
D03*
X0121920Y0052197D02*
D03*
X0119761Y0050800D02*
D03*
X0121412Y0050800D02*
D03*
X0120523Y0051943D02*
D03*
X0118872Y0051943D02*
D03*
X0116586Y0050800D02*
D03*
X0118237Y0050800D02*
D03*
X0119888Y0044577D02*
D03*
X0121539Y0044577D02*
D03*
X0122555Y0041656D02*
D03*
X0120904Y0041656D02*
D03*
X0115189Y0046101D02*
D03*
X0113538Y0046101D02*
D03*
X0115697Y0033147D02*
D03*
X0117348Y0033147D02*
D03*
X0086614Y0041529D02*
D03*
X0084963Y0041529D02*
D03*
X0045847Y0086995D02*
D03*
X0044196Y0086995D02*
D03*
X0069215Y0011049D02*
D03*
X0067564Y0011049D02*
D03*
X0088011Y0011049D02*
D03*
X0086360Y0011049D02*
D03*
X0044069Y0079375D02*
D03*
X0045720Y0079375D02*
D03*
X0053594Y0011049D02*
D03*
X0055245Y0011049D02*
D03*
X0062738Y0020320D02*
D03*
X0061087Y0020320D02*
D03*
X0085217Y0083820D02*
D03*
X0083566Y0083820D02*
D03*
X0069977Y0053721D02*
D03*
X0068326Y0053721D02*
D03*
X0070612Y0083058D02*
D03*
X0068961Y0083058D02*
D03*
X0078232Y0083058D02*
D03*
X0076581Y0083058D02*
D03*
X0080264Y0083058D02*
D03*
X0081915Y0083058D02*
D03*
X0082296Y0056007D02*
D03*
X0083947Y0056007D02*
D03*
X0070866Y0056007D02*
D03*
X0072517Y0056007D02*
D03*
X0072898Y0045212D02*
D03*
X0071247Y0045212D02*
D03*
X0077724Y0045212D02*
D03*
X0079375Y0045212D02*
D03*
X0086868Y0045339D02*
D03*
X0085217Y0045339D02*
D03*
X0076073Y0045212D02*
D03*
X0074422Y0045212D02*
D03*
X0085344Y0020193D02*
D03*
X0086995Y0020193D02*
D03*
X0077343Y0020320D02*
D03*
X0078994Y0020320D02*
D03*
X0072263Y0020320D02*
D03*
X0073914Y0020320D02*
D03*
X0076962Y0011049D02*
D03*
X0075311Y0011049D02*
D03*
X0099822Y0011049D02*
D03*
X0098171Y0011049D02*
D03*
X0048895Y0010922D02*
D03*
X0047244Y0010922D02*
D03*
X0059817Y0011049D02*
D03*
X0061468Y0011049D02*
D03*
X0054229Y0052832D02*
D03*
X0052578Y0052832D02*
D03*
X0045720Y0071120D02*
D03*
X0044069Y0071120D02*
D03*
X0120015Y0046101D02*
D03*
X0118364Y0046101D02*
D03*
X0130810Y0054610D02*
D03*
X0129159Y0054610D02*
D03*
X0125095Y0057150D02*
D03*
X0123444Y0057150D02*
D03*
X0128143Y0057150D02*
D03*
X0126492Y0057150D02*
D03*
X0127889Y0051689D02*
D03*
X0126238Y0051689D02*
D03*
X0083947Y0053594D02*
D03*
X0085598Y0053594D02*
D03*
X0092431Y0037668D02*
D03*
X0090780Y0037668D02*
D03*
X0110236Y0011303D02*
D03*
X0108585Y0011303D02*
D03*
X0152654Y0050800D02*
D03*
X0154305Y0050800D02*
D03*
X0152654Y0052070D02*
D03*
X0154305Y0052070D02*
D03*
X0162560Y0048641D02*
D03*
X0160909Y0048641D02*
D03*
X0127254Y0070485D02*
D03*
X0125603Y0070485D02*
D03*
X0131064Y0072136D02*
D03*
X0132715Y0072136D02*
D03*
X0125349Y0018796D02*
D03*
X0123698Y0018796D02*
D03*
X0133985Y0027432D02*
D03*
X0135636Y0027432D02*
D03*
X0129413Y0020574D02*
D03*
X0131064Y0020574D02*
D03*
X0131064Y0022098D02*
D03*
X0129413Y0022098D02*
D03*
X0110490Y0021844D02*
D03*
X0108839Y0021844D02*
D03*
X0055880Y0111760D02*
D03*
X0057531Y0111760D02*
D03*
X0043434Y0111760D02*
D03*
X0045085Y0111760D02*
D03*
X0049784Y0103505D02*
D03*
X0048133Y0103505D02*
D03*
X0045085Y0103505D02*
D03*
X0046736Y0103505D02*
D03*
X0076632Y0103378D02*
D03*
X0078283Y0103378D02*
D03*
X0086665Y0107950D02*
D03*
X0085014Y0107950D02*
D03*
X0090348Y0107950D02*
D03*
X0088697Y0107950D02*
D03*
X0100254Y0107950D02*
D03*
X0101905Y0107950D02*
D03*
X0096952Y0107950D02*
D03*
X0095301Y0107950D02*
D03*
X0073203Y0107950D02*
D03*
X0074854Y0107950D02*
D03*
X0081077Y0118237D02*
D03*
X0082728Y0118237D02*
D03*
X0079248Y0120523D02*
D03*
X0077597Y0120523D02*
D03*
X0100127Y0110871D02*
D03*
X0101778Y0110871D02*
D03*
X0102159Y0125603D02*
D03*
X0103810Y0125603D02*
D03*
X0025400Y0024663D02*
D03*
X0023749Y0024663D02*
D03*
X0141732Y0102743D02*
D03*
X0143383Y0102743D02*
D03*
X0072695Y0103378D02*
D03*
X0074346Y0103378D02*
D03*
X0083058Y0097663D02*
D03*
X0081407Y0097663D02*
D03*
X0072771Y0097663D02*
D03*
X0071120Y0097663D02*
D03*
X0091999Y0107950D02*
D03*
X0093650Y0107950D02*
D03*
X0101219Y0100457D02*
D03*
X0099568Y0100457D02*
D03*
X0117983Y0122555D02*
D03*
X0116332Y0122555D02*
D03*
X0139827Y0057150D02*
D03*
X0138176Y0057150D02*
D03*
X0135128Y0057150D02*
D03*
X0136779Y0057150D02*
D03*
X0085674Y0069444D02*
D03*
X0087325Y0069444D02*
D03*
X0084455Y0068834D02*
D03*
X0079756Y0068961D02*
D03*
X0078105Y0068961D02*
D03*
X0032258Y0018669D02*
D03*
X0030607Y0028575D02*
D03*
X0082804Y0068834D02*
D03*
X0028956Y0028575D02*
D03*
X0148590Y0048260D02*
D03*
X0146939Y0048260D02*
D03*
X0078740Y0070231D02*
D03*
X0080391Y0070231D02*
D03*
X0077597Y0119380D02*
D03*
X0079248Y0119380D02*
D03*
X0151765Y0048133D02*
D03*
X0150114Y0048133D02*
D03*
X0039497Y0011049D02*
D03*
X0037846Y0011049D02*
D03*
X0161290Y0038608D02*
D03*
X0162941Y0038608D02*
D03*
X0170688Y0110617D02*
D03*
X0172339Y0110617D02*
D03*
X0175895Y0115824D02*
D03*
X0177546Y0115824D02*
D03*
X0017272Y0034798D02*
D03*
X0015621Y0034798D02*
D03*
D128*
X0185039Y0102616D02*
D03*
X0185039Y0106680D02*
D03*
X0178689Y0102616D02*
D03*
X0178689Y0106680D02*
D03*
X0197358Y0117221D02*
D03*
X0197358Y0113157D02*
D03*
D129*
X0099314Y0116205D02*
D03*
X0096520Y0116205D02*
D03*
X0150749Y0086360D02*
D03*
X0147955Y0086360D02*
D03*
X0010541Y0026797D02*
D03*
X0007747Y0026797D02*
D03*
X0168148Y0085979D02*
D03*
X0165354Y0085979D02*
D03*
D130*
X0193421Y0116459D02*
D03*
X0193421Y0111506D02*
D03*
D132*
X0149098Y0038735D02*
D03*
X0081610Y0061443D02*
D03*
X0085420Y0061443D02*
D03*
X0081610Y0067031D02*
D03*
X0087503Y0026416D02*
D03*
X0072339Y0032004D02*
D03*
X0060960Y0026416D02*
D03*
X0072339Y0026416D02*
D03*
X0076149Y0032004D02*
D03*
X0076149Y0026416D02*
D03*
X0117221Y0087884D02*
D03*
X0115951Y0087884D02*
D03*
X0114681Y0087884D02*
D03*
X0113411Y0087884D02*
D03*
X0113411Y0093472D02*
D03*
X0114681Y0093472D02*
D03*
X0115951Y0093472D02*
D03*
X0117221Y0093472D02*
D03*
X0149098Y0033147D02*
D03*
X0150368Y0033147D02*
D03*
X0151638Y0033147D02*
D03*
X0152908Y0033147D02*
D03*
X0152908Y0038735D02*
D03*
X0151638Y0038735D02*
D03*
X0150368Y0038735D02*
D03*
X0164084Y0038862D02*
D03*
X0165354Y0038862D02*
D03*
X0166624Y0038862D02*
D03*
X0167894Y0038862D02*
D03*
X0167894Y0033274D02*
D03*
X0166624Y0033274D02*
D03*
X0165354Y0033274D02*
D03*
X0164084Y0033274D02*
D03*
X0071069Y0026416D02*
D03*
X0073609Y0026416D02*
D03*
X0074879Y0026416D02*
D03*
X0077419Y0026416D02*
D03*
X0079959Y0026416D02*
D03*
X0079959Y0032004D02*
D03*
X0077419Y0032004D02*
D03*
X0074879Y0032004D02*
D03*
X0073609Y0032004D02*
D03*
X0071069Y0032004D02*
D03*
X0060960Y0032004D02*
D03*
X0064770Y0032004D02*
D03*
X0067310Y0032004D02*
D03*
X0067310Y0026416D02*
D03*
X0064770Y0026416D02*
D03*
X0062230Y0026416D02*
D03*
X0062230Y0032004D02*
D03*
X0063500Y0026416D02*
D03*
X0063500Y0032004D02*
D03*
X0066040Y0026416D02*
D03*
X0066040Y0032004D02*
D03*
X0059690Y0032004D02*
D03*
X0068580Y0032004D02*
D03*
X0068580Y0026416D02*
D03*
X0059690Y0026416D02*
D03*
X0108966Y0054737D02*
D03*
X0110236Y0054737D02*
D03*
X0111506Y0054737D02*
D03*
X0112776Y0054737D02*
D03*
X0112776Y0049149D02*
D03*
X0111506Y0049149D02*
D03*
X0110236Y0049149D02*
D03*
X0108966Y0049149D02*
D03*
X0082423Y0032004D02*
D03*
X0083693Y0032004D02*
D03*
X0084963Y0032004D02*
D03*
X0086233Y0032004D02*
D03*
X0087503Y0032004D02*
D03*
X0088773Y0032004D02*
D03*
X0090043Y0032004D02*
D03*
X0091313Y0032004D02*
D03*
X0091313Y0026416D02*
D03*
X0090043Y0026416D02*
D03*
X0088773Y0026416D02*
D03*
X0086233Y0026416D02*
D03*
X0084963Y0026416D02*
D03*
X0083693Y0026416D02*
D03*
X0082423Y0026416D02*
D03*
X0078689Y0032004D02*
D03*
X0078689Y0026416D02*
D03*
X0140335Y0110236D02*
D03*
X0141605Y0110236D02*
D03*
X0142875Y0110236D02*
D03*
X0144145Y0110236D02*
D03*
X0144145Y0104648D02*
D03*
X0142875Y0104648D02*
D03*
X0141605Y0104648D02*
D03*
X0140335Y0104648D02*
D03*
X0084150Y0067031D02*
D03*
X0085420Y0067031D02*
D03*
X0082880Y0061443D02*
D03*
X0077800Y0067031D02*
D03*
X0080340Y0067031D02*
D03*
X0080340Y0061443D02*
D03*
X0077800Y0061443D02*
D03*
X0079070Y0061443D02*
D03*
X0084150Y0061443D02*
D03*
X0082880Y0067031D02*
D03*
X0079070Y0067031D02*
D03*
X0129667Y0104648D02*
D03*
X0130937Y0104648D02*
D03*
X0132207Y0104648D02*
D03*
X0133477Y0104648D02*
D03*
X0133477Y0110236D02*
D03*
X0132207Y0110236D02*
D03*
X0130937Y0110236D02*
D03*
X0129667Y0110236D02*
D03*
D134*
X0163068Y0084328D02*
D03*
X0163068Y0087122D02*
D03*
D135*
X0144526Y0083947D02*
D03*
X0147320Y0083947D02*
D03*
D136*
X0140081Y0025781D02*
D03*
X0144653Y0025781D02*
D03*
X0142367Y0025781D02*
D03*
X0148971Y0018415D02*
D03*
X0151257Y0018415D02*
D03*
X0146685Y0018415D02*
D03*
X0130048Y0048768D02*
D03*
X0127762Y0048768D02*
D03*
X0125476Y0048768D02*
D03*
D141*
X0142367Y0019431D02*
D03*
X0148971Y0012065D02*
D03*
X0127762Y0042418D02*
D03*
D142*
X0034798Y0014732D02*
D03*
X0034798Y0010668D02*
D03*
X0074727Y0118745D02*
D03*
X0074727Y0116459D02*
D03*
X0074727Y0114173D02*
D03*
X0166116Y0083185D02*
D03*
X0166116Y0080899D02*
D03*
X0166116Y0078613D02*
D03*
X0112649Y0085344D02*
D03*
X0112649Y0083058D02*
D03*
X0112649Y0080772D02*
D03*
X0102362Y0085471D02*
D03*
X0102362Y0083185D02*
D03*
X0102362Y0080899D02*
D03*
X0130302Y0031750D02*
D03*
X0130302Y0034036D02*
D03*
X0130302Y0036322D02*
D03*
X0113030Y0057531D02*
D03*
X0113030Y0059817D02*
D03*
X0113030Y0062103D02*
D03*
X0027940Y0046482D02*
D03*
X0027940Y0042418D02*
D03*
X0030734Y0042418D02*
D03*
X0030734Y0046482D02*
D03*
X0182880Y0110998D02*
D03*
X0182880Y0113284D02*
D03*
X0182880Y0115570D02*
D03*
D146*
X0041402Y0026416D02*
D03*
X0041402Y0028956D02*
D03*
X0041402Y0031496D02*
D03*
X0041402Y0032766D02*
D03*
X0041402Y0027686D02*
D03*
X0046990Y0026416D02*
D03*
X0046990Y0027686D02*
D03*
X0046990Y0034036D02*
D03*
X0046990Y0032766D02*
D03*
X0046990Y0031496D02*
D03*
X0046990Y0030226D02*
D03*
X0046990Y0028956D02*
D03*
X0046990Y0025146D02*
D03*
X0041402Y0025146D02*
D03*
X0041402Y0030226D02*
D03*
X0040767Y0022987D02*
D03*
X0040767Y0021717D02*
D03*
X0040767Y0020447D02*
D03*
X0040767Y0014097D02*
D03*
X0046355Y0014097D02*
D03*
X0046355Y0017907D02*
D03*
X0046355Y0019177D02*
D03*
X0046355Y0020447D02*
D03*
X0046355Y0021717D02*
D03*
X0046355Y0022987D02*
D03*
X0046355Y0016637D02*
D03*
X0046355Y0015367D02*
D03*
X0040767Y0019177D02*
D03*
X0040767Y0017907D02*
D03*
X0040767Y0016637D02*
D03*
X0048006Y0116840D02*
D03*
X0042418Y0113030D02*
D03*
X0042418Y0115570D02*
D03*
X0042418Y0116840D02*
D03*
X0088062Y0124460D02*
D03*
X0088062Y0123190D02*
D03*
X0088062Y0120650D02*
D03*
X0082474Y0120650D02*
D03*
X0082474Y0121920D02*
D03*
X0082474Y0123190D02*
D03*
X0082474Y0124460D02*
D03*
X0079807Y0125730D02*
D03*
X0079807Y0124460D02*
D03*
X0079807Y0121920D02*
D03*
X0074219Y0121920D02*
D03*
X0074219Y0123190D02*
D03*
X0074219Y0124460D02*
D03*
X0074219Y0125730D02*
D03*
X0040767Y0015367D02*
D03*
X0048006Y0113030D02*
D03*
X0042418Y0114300D02*
D03*
X0048006Y0115570D02*
D03*
X0041402Y0034036D02*
D03*
X0048006Y0114300D02*
D03*
X0088062Y0121920D02*
D03*
X0079807Y0123190D02*
D03*
D149*
X0117297Y0107569D02*
D03*
X0117297Y0113030D02*
D03*
X0117297Y0118237D02*
D03*
X0131521Y0090551D02*
D03*
X0129362Y0082931D02*
D03*
X0156007Y0076454D02*
D03*
X0143713Y0013589D02*
D03*
X0136474Y0023876D02*
D03*
X0139268Y0014351D02*
D03*
X0131623Y0026035D02*
D03*
D150*
X0110744Y0120650D02*
D03*
X0110744Y0122555D02*
D03*
X0147066Y0114046D02*
D03*
X0147066Y0112141D02*
D03*
X0142113Y0112903D02*
D03*
X0140208Y0112903D02*
D03*
X0131572Y0113030D02*
D03*
X0129667Y0113030D02*
D03*
X0124587Y0022606D02*
D03*
X0124587Y0020701D02*
D03*
X0107696Y0106172D02*
D03*
X0107696Y0104267D02*
D03*
X0116332Y0109601D02*
D03*
X0118237Y0109601D02*
D03*
X0116332Y0115062D02*
D03*
X0118237Y0115062D02*
D03*
X0116332Y0120269D02*
D03*
X0118237Y0120269D02*
D03*
X0132461Y0092583D02*
D03*
X0130556Y0092583D02*
D03*
X0130302Y0084963D02*
D03*
X0128397Y0084963D02*
D03*
X0156972Y0074422D02*
D03*
X0155067Y0074422D02*
D03*
X0149860Y0078613D02*
D03*
X0149860Y0076708D02*
D03*
X0144653Y0015621D02*
D03*
X0142748Y0015621D02*
D03*
X0137414Y0025908D02*
D03*
X0135509Y0025908D02*
D03*
X0138303Y0016383D02*
D03*
X0140208Y0016383D02*
D03*
X0132588Y0024003D02*
D03*
X0130683Y0024003D02*
D03*
X0099619Y0103505D02*
D03*
X0099619Y0105410D02*
D03*
X0087300Y0105410D02*
D03*
X0087300Y0103505D02*
D03*
X0092634Y0105410D02*
D03*
X0092634Y0103505D02*
D03*
X0078664Y0107950D02*
D03*
X0078664Y0106045D02*
D03*
X0096266Y0105283D02*
D03*
X0096266Y0103378D02*
D03*
X0054483Y0116332D02*
D03*
X0056388Y0116332D02*
D03*
X0059944Y0121285D02*
D03*
X0061849Y0121285D02*
D03*
X0172085Y0114173D02*
D03*
X0173990Y0114173D02*
D03*
X0175641Y0113411D02*
D03*
X0175641Y0111506D02*
D03*
X0168275Y0114173D02*
D03*
X0170180Y0114173D02*
D03*
D152*
X0179578Y0078486D02*
D03*
X0179578Y0084074D02*
D03*
X0183642Y0084074D02*
D03*
X0183642Y0078486D02*
D03*
X0172974Y0100584D02*
D03*
X0172974Y0106172D02*
D03*
X0168910Y0100584D02*
D03*
X0168910Y0106172D02*
D03*
X0190373Y0084201D02*
D03*
X0190373Y0078613D02*
D03*
X0194437Y0084201D02*
D03*
X0194437Y0078613D02*
D03*
D154*
X0122936Y0043053D02*
D03*
X0120904Y0043053D02*
D03*
D157*
X0043561Y0004572D02*
D03*
X0047371Y0004572D02*
D03*
X0048641Y0004572D02*
D03*
X0049911Y0004572D02*
D03*
X0051181Y0004572D02*
D03*
X0052451Y0004572D02*
D03*
X0053721Y0004572D02*
D03*
X0054991Y0004572D02*
D03*
X0058801Y0004572D02*
D03*
X0060071Y0004572D02*
D03*
X0061341Y0004572D02*
D03*
X0062611Y0004572D02*
D03*
X0063881Y0004572D02*
D03*
X0065151Y0004572D02*
D03*
X0066421Y0004572D02*
D03*
X0067691Y0004572D02*
D03*
X0068961Y0004572D02*
D03*
X0070231Y0004572D02*
D03*
X0071501Y0004572D02*
D03*
X0072771Y0004572D02*
D03*
X0074041Y0004572D02*
D03*
X0075311Y0004572D02*
D03*
X0076581Y0004572D02*
D03*
X0077851Y0004572D02*
D03*
X0079121Y0004572D02*
D03*
X0080391Y0004572D02*
D03*
X0081661Y0004572D02*
D03*
X0082931Y0004572D02*
D03*
X0084201Y0004572D02*
D03*
X0085471Y0004572D02*
D03*
X0086741Y0004572D02*
D03*
X0088011Y0004572D02*
D03*
X0089281Y0004572D02*
D03*
X0090551Y0004572D02*
D03*
X0091821Y0004572D02*
D03*
X0093091Y0004572D02*
D03*
X0094361Y0004572D02*
D03*
X0095631Y0004572D02*
D03*
X0096901Y0004572D02*
D03*
X0098171Y0004572D02*
D03*
X0099441Y0004572D02*
D03*
X0100711Y0004572D02*
D03*
X0101981Y0004572D02*
D03*
X0103251Y0004572D02*
D03*
X0107061Y0004572D02*
D03*
X0108331Y0004572D02*
D03*
X0109601Y0004572D02*
D03*
X0110871Y0004572D02*
D03*
X0112141Y0004572D02*
D03*
X0113411Y0004572D02*
D03*
X0114681Y0004572D02*
D03*
X0115951Y0004572D02*
D03*
X0117221Y0004572D02*
D03*
X0118491Y0004572D02*
D03*
X0119761Y0004572D02*
D03*
X0042291Y0004572D02*
D03*
X0044831Y0004572D02*
D03*
X0046101Y0004572D02*
D03*
D171*
X0094488Y0128524D02*
D03*
X0094488Y0123444D02*
D03*
X0122301Y0121539D02*
D03*
X0114681Y0121539D02*
D03*
X0073203Y0109474D02*
D03*
X0075743Y0109474D02*
D03*
X0075743Y0101854D02*
D03*
X0080823Y0101854D02*
D03*
X0073203Y0101854D02*
D03*
X0078283Y0109474D02*
D03*
X0078283Y0101854D02*
D03*
X0045212Y0101981D02*
D03*
X0050038Y0101981D02*
D03*
X0018440Y0042037D02*
D03*
X0025654Y0013589D02*
D03*
X0029210Y0013589D02*
D03*
X0044323Y0061214D02*
D03*
X0047879Y0061214D02*
D03*
X0011455Y0042037D02*
D03*
X0026416Y0048768D02*
D03*
X0026416Y0051308D02*
D03*
X0033020Y0058674D02*
D03*
X0033020Y0056134D02*
D03*
X0026416Y0055499D02*
D03*
X0026416Y0058039D02*
D03*
X0025273Y0042037D02*
D03*
X0025273Y0044577D02*
D03*
X0122225Y0105918D02*
D03*
X0122225Y0113538D02*
D03*
X0122225Y0110998D02*
D03*
X0122225Y0108458D02*
D03*
X0114605Y0105918D02*
D03*
X0114605Y0110998D02*
D03*
X0114605Y0108458D02*
D03*
X0099873Y0101854D02*
D03*
X0102413Y0109474D02*
D03*
X0094793Y0109474D02*
D03*
X0097333Y0109474D02*
D03*
X0099873Y0109474D02*
D03*
X0097333Y0101854D02*
D03*
X0102413Y0101854D02*
D03*
X0004216Y0044577D02*
D03*
X0004216Y0042037D02*
D03*
X0033020Y0051943D02*
D03*
X0033020Y0049403D02*
D03*
X0122301Y0124079D02*
D03*
X0122301Y0118999D02*
D03*
X0122301Y0116459D02*
D03*
X0114681Y0116459D02*
D03*
X0114681Y0118999D02*
D03*
X0050419Y0013208D02*
D03*
X0052959Y0013208D02*
D03*
X0086665Y0101854D02*
D03*
X0091745Y0101854D02*
D03*
X0091745Y0109474D02*
D03*
X0084125Y0109474D02*
D03*
X0089205Y0109474D02*
D03*
X0086665Y0109474D02*
D03*
X0089205Y0101854D02*
D03*
X0106934Y0030607D02*
D03*
X0103378Y0030607D02*
D03*
X0108712Y0016002D02*
D03*
X0116332Y0016002D02*
D03*
X0101092Y0023622D02*
D03*
X0108712Y0023622D02*
D03*
X0116332Y0023622D02*
D03*
X0011455Y0044577D02*
D03*
X0018440Y0044577D02*
D03*
X0022860Y0032004D02*
D03*
X0021844Y0043307D02*
D03*
X0022504Y0026137D02*
D03*
D172*
X0032004Y0012573D02*
D03*
X0047244Y0012573D02*
D03*
D173*
X0114681Y0124079D02*
D03*
X0080823Y0109474D02*
D03*
X0114605Y0113538D02*
D03*
X0094793Y0101854D02*
D03*
X0084125Y0101854D02*
D03*
X0101092Y0016002D02*
D03*
D174*
X0144145Y0117729D02*
D03*
X0017264Y0054368D02*
D03*
X0017264Y0056908D02*
D03*
X0017272Y0061976D02*
D03*
X0014732Y0055626D02*
D03*
X0014732Y0060706D02*
D03*
X0014732Y0063246D02*
D03*
X0139065Y0117729D02*
D03*
X0141605Y0117729D02*
D03*
X0014732Y0078232D02*
D03*
X0014732Y0075692D02*
D03*
X0014732Y0073152D02*
D03*
X0014732Y0070612D02*
D03*
X0017272Y0076962D02*
D03*
X0017264Y0074434D02*
D03*
X0017264Y0071894D02*
D03*
X0017264Y0069354D02*
D03*
X0017264Y0059448D02*
D03*
X0014732Y0058166D02*
D03*
X0133477Y0117729D02*
D03*
X0130937Y0117729D02*
D03*
X0128397Y0117729D02*
D03*
D175*
X0152781Y0111633D02*
D03*
X0008166Y0005575D02*
D03*
X0094742Y0022606D02*
D03*
D176*
X0008166Y0090970D02*
D03*
D177*
X0008382Y0064516D02*
D03*
X0008382Y0053086D02*
D03*
X0008382Y0068072D02*
D03*
X0008382Y0079502D02*
D03*
D178*
X0005334Y0051308D02*
D03*
X0005334Y0066294D02*
D03*
X0005334Y0081280D02*
D03*
X0005334Y0066294D02*
D03*
D179*
X0141605Y0128778D02*
D03*
X0130937Y0128778D02*
D03*
D180*
X0190754Y0059563D02*
D03*
X0190754Y0087503D02*
D03*
X0180213Y0059436D02*
D03*
X0180213Y0087376D02*
D03*
D181*
X0198628Y0012954D02*
D03*
D182*
X0024130Y0017653D02*
D03*
D183*
X0004318Y0013208D02*
D03*
X0009398Y0013208D02*
D03*
X0014478Y0013208D02*
D03*
X0004318Y0030988D02*
D03*
X0014478Y0030988D02*
D03*
X0019558Y0013208D02*
D03*
X0019558Y0030988D02*
D03*
X0009398Y0030988D02*
D03*
D184*
X0030988Y0030607D02*
D03*
X0028448Y0030607D02*
D03*
D185*
X0015748Y0128143D02*
D03*
D186*
X0113157Y0120396D02*
D03*
X0096012Y0085166D02*
D03*
X0063373Y0078613D02*
D03*
X0112649Y0128270D02*
D03*
X0120396Y0129540D02*
D03*
X0110744Y0124968D02*
D03*
X0109982Y0123571D02*
D03*
X0146558Y0110490D02*
D03*
X0138430Y0111379D02*
D03*
X0036195Y0115062D02*
D03*
X0033782Y0114173D02*
D03*
X0031877Y0106426D02*
D03*
X0045720Y0064160D02*
D03*
X0127762Y0111506D02*
D03*
X0124968Y0115824D02*
D03*
X0134493Y0114808D02*
D03*
X0139319Y0110744D02*
D03*
X0145034Y0114808D02*
D03*
X0135890Y0109982D02*
D03*
X0139065Y0108077D02*
D03*
X0138811Y0109728D02*
D03*
X0135255Y0113411D02*
D03*
X0145796Y0107569D02*
D03*
X0146177Y0104521D02*
D03*
X0125603Y0106680D02*
D03*
X0126619Y0106680D02*
D03*
X0128524Y0104902D02*
D03*
X0124587Y0110617D02*
D03*
X0124587Y0113919D02*
D03*
X0139065Y0114173D02*
D03*
X0007366Y0029159D02*
D03*
X0011049Y0029159D02*
D03*
X0006223Y0025781D02*
D03*
X0004826Y0025781D02*
D03*
X0095504Y0031115D02*
D03*
X0099060Y0051816D02*
D03*
X0102870Y0052578D02*
D03*
X0099314Y0055118D02*
D03*
X0109728Y0047752D02*
D03*
X0109347Y0069977D02*
D03*
X0104521Y0056007D02*
D03*
X0110871Y0069469D02*
D03*
X0109982Y0059182D02*
D03*
X0073787Y0127889D02*
D03*
X0066421Y0125603D02*
D03*
X0072517Y0119253D02*
D03*
X0084836Y0123063D02*
D03*
X0076454Y0121666D02*
D03*
X0097663Y0113665D02*
D03*
X0137617Y0104496D02*
D03*
X0148336Y0040894D02*
D03*
X0030328Y0027534D02*
D03*
X0084709Y0121920D02*
D03*
X0033325Y0028600D02*
D03*
X0020066Y0028880D02*
D03*
X0156489Y0089205D02*
D03*
X0146431Y0086004D02*
D03*
X0152273Y0086360D02*
D03*
X0146533Y0090907D02*
D03*
X0139751Y0090957D02*
D03*
X0144196Y0090145D02*
D03*
X0140741Y0085827D02*
D03*
X0095860Y0081026D02*
D03*
X0088341Y0087782D02*
D03*
X0042291Y0010287D02*
D03*
X0090424Y0076606D02*
D03*
X0090424Y0077648D02*
D03*
X0081382Y0068834D02*
D03*
X0086614Y0061493D02*
D03*
X0125679Y0022835D02*
D03*
X0031801Y0063170D02*
D03*
X0031801Y0064389D02*
D03*
X0032791Y0064491D02*
D03*
X0032766Y0065583D02*
D03*
X0190754Y0081153D02*
D03*
X0187452Y0087376D02*
D03*
X0189611Y0093218D02*
D03*
X0198628Y0105537D02*
D03*
X0193929Y0107950D02*
D03*
X0181991Y0117094D02*
D03*
X0165100Y0108204D02*
D03*
X0170942Y0104394D02*
D03*
X0162814Y0131699D02*
D03*
X0199136Y0132842D02*
D03*
X0195707Y0132842D02*
D03*
X0197358Y0132842D02*
D03*
X0184023Y0132588D02*
D03*
X0181356Y0132588D02*
D03*
X0186842Y0132613D02*
D03*
X0150368Y0119507D02*
D03*
X0150622Y0129794D02*
D03*
X0150876Y0127508D02*
D03*
X0151130Y0122682D02*
D03*
X0164465Y0103632D02*
D03*
X0153924Y0114554D02*
D03*
X0159029Y0112370D02*
D03*
X0153035Y0108204D02*
D03*
X0153010Y0107086D02*
D03*
X0166624Y0093218D02*
D03*
X0170815Y0088519D02*
D03*
X0172847Y0086614D02*
D03*
X0199136Y0072136D02*
D03*
X0199009Y0068707D02*
D03*
X0191262Y0068707D02*
D03*
X0187198Y0068707D02*
D03*
X0183896Y0068707D02*
D03*
X0180721Y0068707D02*
D03*
X0179324Y0068707D02*
D03*
X0093421Y0099543D02*
D03*
X0150241Y0100457D02*
D03*
X0178054Y0097536D02*
D03*
X0182372Y0106045D02*
D03*
X0176657Y0097384D02*
D03*
X0181356Y0105283D02*
D03*
X0167081Y0097130D02*
D03*
X0178486Y0085725D02*
D03*
X0181610Y0077800D02*
D03*
X0164846Y0097282D02*
D03*
X0185928Y0077800D02*
D03*
X0196520Y0087833D02*
D03*
X0197688Y0078588D02*
D03*
X0177546Y0104267D02*
D03*
X0183896Y0104267D02*
D03*
X0198653Y0097104D02*
D03*
X0143713Y0107366D02*
D03*
X0140513Y0108001D02*
D03*
X0154330Y0018898D02*
D03*
X0187071Y0106883D02*
D03*
X0176530Y0106756D02*
D03*
X0186944Y0122047D02*
D03*
X0132080Y0022098D02*
D03*
X0110033Y0028727D02*
D03*
X0105588Y0033172D02*
D03*
X0100355Y0035128D02*
D03*
X0132461Y0020574D02*
D03*
X0110007Y0029743D02*
D03*
X0106655Y0033096D02*
D03*
X0100889Y0036068D02*
D03*
X0094488Y0065151D02*
D03*
X0022352Y0120853D02*
D03*
X0027178Y0120853D02*
D03*
X0072873Y0096698D02*
D03*
X0135255Y0123063D02*
D03*
X0114224Y0103530D02*
D03*
X0118135Y0103530D02*
D03*
X0146355Y0094894D02*
D03*
X0119253Y0094869D02*
D03*
X0089408Y0096672D02*
D03*
X0089967Y0097536D02*
D03*
X0092126Y0097993D02*
D03*
X0092710Y0098806D02*
D03*
X0095428Y0099797D02*
D03*
X0112090Y0102311D02*
D03*
X0110388Y0103784D02*
D03*
X0093523Y0098171D02*
D03*
X0118237Y0108661D02*
D03*
X0118237Y0114097D02*
D03*
X0115316Y0122707D02*
D03*
X0040996Y0098019D02*
D03*
X0082880Y0096698D02*
D03*
X0080416Y0097663D02*
D03*
X0057125Y0103632D02*
D03*
X0056286Y0102895D02*
D03*
X0068326Y0097663D02*
D03*
X0100101Y0090856D02*
D03*
X0097917Y0090322D02*
D03*
X0039878Y0123190D02*
D03*
X0029058Y0098349D02*
D03*
X0043129Y0098019D02*
D03*
X0058826Y0102184D02*
D03*
X0055194Y0109220D02*
D03*
X0057988Y0101600D02*
D03*
X0055194Y0107950D02*
D03*
X0043434Y0058471D02*
D03*
X0041707Y0056642D02*
D03*
X0043129Y0055804D02*
D03*
X0041732Y0054813D02*
D03*
X0059436Y0088138D02*
D03*
X0044450Y0083439D02*
D03*
X0101092Y0102489D02*
D03*
X0090576Y0102489D02*
D03*
X0087935Y0102489D02*
D03*
X0075362Y0103378D02*
D03*
X0103810Y0120015D02*
D03*
X0088443Y0119253D02*
D03*
X0083744Y0115697D02*
D03*
X0098603Y0110363D02*
D03*
X0080442Y0114427D02*
D03*
X0079553Y0115697D02*
D03*
X0079553Y0106934D02*
D03*
X0120828Y0105740D02*
D03*
X0074473Y0108966D02*
D03*
X0103175Y0107950D02*
D03*
X0087935Y0108839D02*
D03*
X0130937Y0102997D02*
D03*
X0139065Y0018669D02*
D03*
X0141478Y0012954D02*
D03*
X0128397Y0022098D02*
D03*
X0134112Y0022987D02*
D03*
X0136906Y0027432D02*
D03*
X0150876Y0014097D02*
D03*
X0128397Y0020574D02*
D03*
X0145034Y0020066D02*
D03*
X0149352Y0014859D02*
D03*
X0155321Y0028524D02*
D03*
X0171196Y0046355D02*
D03*
X0053315Y0042164D02*
D03*
X0120269Y0075819D02*
D03*
X0131572Y0076454D02*
D03*
X0099568Y0029718D02*
D03*
X0176911Y0055880D02*
D03*
X0141097Y0066548D02*
D03*
X0151638Y0082296D02*
D03*
X0043561Y0010287D02*
D03*
X0062484Y0012446D02*
D03*
X0068580Y0009906D02*
D03*
X0069215Y0012192D02*
D03*
X0072517Y0012573D02*
D03*
X0070358Y0015240D02*
D03*
X0069000Y0017106D02*
D03*
X0076962Y0008636D02*
D03*
X0070739Y0017145D02*
D03*
X0041402Y0044577D02*
D03*
X0044577Y0035179D02*
D03*
X0044577Y0036957D02*
D03*
X0025806Y0028981D02*
D03*
X0028702Y0017729D02*
D03*
X0050419Y0027432D02*
D03*
X0057658Y0036449D02*
D03*
X0057658Y0054229D02*
D03*
X0063754Y0067310D02*
D03*
X0081407Y0081407D02*
D03*
X0070358Y0054864D02*
D03*
X0063373Y0062611D02*
D03*
X0063373Y0073914D02*
D03*
X0070358Y0081153D02*
D03*
X0077724Y0054864D02*
D03*
X0082550Y0054864D02*
D03*
X0090424Y0062738D02*
D03*
X0090424Y0066929D02*
D03*
X0090043Y0074295D02*
D03*
X0077978Y0082042D02*
D03*
X0121539Y0035052D02*
D03*
X0128143Y0038481D02*
D03*
X0123698Y0038481D02*
D03*
X0052451Y0040513D02*
D03*
X0049022Y0045466D02*
D03*
X0051892Y0066980D02*
D03*
X0063500Y0038608D02*
D03*
X0090551Y0035814D02*
D03*
X0098933Y0079883D02*
D03*
X0097180Y0078105D02*
D03*
X0101346Y0056388D02*
D03*
X0099441Y0059944D02*
D03*
X0097409Y0088798D02*
D03*
X0106807Y0090830D02*
D03*
X0099390Y0089814D02*
D03*
X0110363Y0080518D02*
D03*
X0134747Y0048387D02*
D03*
X0158115Y0049149D02*
D03*
X0150749Y0049784D02*
D03*
X0148082Y0081407D02*
D03*
X0149225Y0065278D02*
D03*
X0151638Y0037084D02*
D03*
X0134747Y0013589D02*
D03*
X0131445Y0089154D02*
D03*
X0137033Y0090297D02*
D03*
X0138049Y0092583D02*
D03*
X0132842Y0089408D02*
D03*
X0143256Y0072263D02*
D03*
X0158242Y0076327D02*
D03*
X0152908Y0077343D02*
D03*
X0154051Y0077470D02*
D03*
X0123063Y0088265D02*
D03*
X0144272Y0077851D02*
D03*
X0145415Y0079883D02*
D03*
X0143129Y0075819D02*
D03*
X0145415Y0071882D02*
D03*
X0143129Y0067818D02*
D03*
X0151003Y0076962D02*
D03*
X0152781Y0075184D02*
D03*
X0118618Y0089408D02*
D03*
X0113614Y0089611D02*
D03*
X0113665Y0091948D02*
D03*
X0115443Y0091440D02*
D03*
X0115037Y0083134D02*
D03*
X0116027Y0080950D02*
D03*
X0115799Y0086030D02*
D03*
X0104089Y0086538D02*
D03*
X0114275Y0085700D02*
D03*
X0114275Y0081305D02*
D03*
X0124333Y0078105D02*
D03*
X0124206Y0080391D02*
D03*
X0122428Y0080391D02*
D03*
X0127762Y0088265D02*
D03*
X0126365Y0090551D02*
D03*
X0121158Y0088265D02*
D03*
X0120396Y0090551D02*
D03*
X0131699Y0079883D02*
D03*
X0133858Y0082423D02*
D03*
X0135636Y0076581D02*
D03*
X0133731Y0071374D02*
D03*
X0130302Y0073025D02*
D03*
X0124714Y0071628D02*
D03*
X0127254Y0069342D02*
D03*
X0128905Y0065151D02*
D03*
X0155829Y0066548D02*
D03*
X0170815Y0066040D02*
D03*
X0165989Y0055118D02*
D03*
X0100635Y0060579D02*
D03*
X0168529Y0056642D02*
D03*
X0163830Y0075184D02*
D03*
X0162306Y0075184D02*
D03*
X0173355Y0073406D02*
D03*
X0173482Y0068580D02*
D03*
X0160909Y0068580D02*
D03*
X0166116Y0068580D02*
D03*
X0163068Y0070612D02*
D03*
X0160020Y0071628D02*
D03*
X0159893Y0073660D02*
D03*
X0159893Y0075184D02*
D03*
X0166243Y0075184D02*
D03*
X0166243Y0073660D02*
D03*
X0160909Y0072390D02*
D03*
X0165227Y0072390D02*
D03*
X0166116Y0071628D02*
D03*
X0162306Y0061214D02*
D03*
X0171577Y0059690D02*
D03*
X0163449Y0061214D02*
D03*
X0163449Y0055626D02*
D03*
X0159893Y0062230D02*
D03*
X0159893Y0063500D02*
D03*
X0166243Y0062230D02*
D03*
X0166243Y0063500D02*
D03*
X0162306Y0053340D02*
D03*
X0175514Y0053594D02*
D03*
X0169799Y0055245D02*
D03*
X0173348Y0052331D02*
D03*
X0177927Y0050546D02*
D03*
X0177419Y0052324D02*
D03*
X0177479Y0054931D02*
D03*
X0151130Y0052705D02*
D03*
X0167005Y0045339D02*
D03*
X0158115Y0051689D02*
D03*
X0158115Y0054229D02*
D03*
X0155829Y0050546D02*
D03*
X0158115Y0050419D02*
D03*
X0179705Y0045974D02*
D03*
X0179578Y0042164D02*
D03*
X0181864Y0044704D02*
D03*
X0176022Y0041656D02*
D03*
X0176022Y0043180D02*
D03*
X0171958Y0043815D02*
D03*
X0170561Y0043815D02*
D03*
X0168783Y0041021D02*
D03*
X0172720Y0041021D02*
D03*
X0175895Y0045339D02*
D03*
X0166878Y0042545D02*
D03*
X0166878Y0043688D02*
D03*
X0161290Y0044069D02*
D03*
X0161798Y0046863D02*
D03*
X0161290Y0042164D02*
D03*
X0162306Y0044704D02*
D03*
X0162179Y0043307D02*
D03*
X0168402Y0035814D02*
D03*
X0149098Y0035306D02*
D03*
X0166624Y0037084D02*
D03*
X0167894Y0037084D02*
D03*
X0185420Y0036703D02*
D03*
X0186817Y0036703D02*
D03*
X0186055Y0040894D02*
D03*
X0181991Y0036246D02*
D03*
X0178029Y0036246D02*
D03*
X0148107Y0037059D02*
D03*
X0173228Y0036195D02*
D03*
X0168910Y0030480D02*
D03*
X0165354Y0035560D02*
D03*
X0164084Y0035560D02*
D03*
X0158115Y0035433D02*
D03*
X0160655Y0035433D02*
D03*
X0160401Y0037084D02*
D03*
X0140078Y0052959D02*
D03*
X0135633Y0052324D02*
D03*
X0136903Y0052324D02*
D03*
X0153032Y0046990D02*
D03*
X0153032Y0045720D02*
D03*
X0151508Y0043053D02*
D03*
X0151282Y0046990D02*
D03*
X0138684Y0043561D02*
D03*
X0138684Y0045085D02*
D03*
X0140716Y0046990D02*
D03*
X0141097Y0045720D02*
D03*
X0140205Y0050546D02*
D03*
X0136141Y0053594D02*
D03*
X0138808Y0054737D02*
D03*
X0144269Y0052959D02*
D03*
X0146428Y0053721D02*
D03*
X0146428Y0055499D02*
D03*
X0144269Y0051689D02*
D03*
X0144269Y0054229D02*
D03*
X0144269Y0055499D02*
D03*
X0134998Y0054864D02*
D03*
X0138808Y0052578D02*
D03*
X0104140Y0082042D02*
D03*
X0104902Y0083541D02*
D03*
X0105054Y0084963D02*
D03*
X0105283Y0080899D02*
D03*
X0116840Y0078232D02*
D03*
X0114681Y0074295D02*
D03*
X0110871Y0075184D02*
D03*
X0114681Y0075819D02*
D03*
X0114554Y0077216D02*
D03*
X0113284Y0077343D02*
D03*
X0111760Y0077343D02*
D03*
X0110109Y0077343D02*
D03*
X0106934Y0077343D02*
D03*
X0108585Y0077343D02*
D03*
X0106299Y0075819D02*
D03*
X0114808Y0072517D02*
D03*
X0114808Y0069342D02*
D03*
X0111760Y0068707D02*
D03*
X0110109Y0068707D02*
D03*
X0108585Y0068707D02*
D03*
X0106934Y0068707D02*
D03*
X0126111Y0052959D02*
D03*
X0121031Y0055372D02*
D03*
X0122174Y0053213D02*
D03*
X0123571Y0053213D02*
D03*
X0122301Y0049784D02*
D03*
X0120523Y0053086D02*
D03*
X0117348Y0053467D02*
D03*
X0116713Y0049657D02*
D03*
X0118110Y0049657D02*
D03*
X0116459Y0048260D02*
D03*
X0117348Y0044577D02*
D03*
X0114935Y0043942D02*
D03*
X0099695Y0027559D02*
D03*
X0110998Y0043180D02*
D03*
X0130302Y0046863D02*
D03*
X0124587Y0047117D02*
D03*
X0127762Y0045466D02*
D03*
X0125984Y0046863D02*
D03*
X0127635Y0044323D02*
D03*
X0119634Y0043180D02*
D03*
X0119761Y0041783D02*
D03*
X0122682Y0044958D02*
D03*
X0124079Y0043053D02*
D03*
X0120523Y0047244D02*
D03*
X0118745Y0044958D02*
D03*
X0123825Y0041783D02*
D03*
X0131064Y0038481D02*
D03*
X0130302Y0029972D02*
D03*
X0126619Y0034036D02*
D03*
X0128397Y0034036D02*
D03*
X0109601Y0044958D02*
D03*
X0111506Y0044958D02*
D03*
X0113665Y0044958D02*
D03*
X0114808Y0044958D02*
D03*
X0063119Y0052705D02*
D03*
X0098679Y0049657D02*
D03*
X0098806Y0044450D02*
D03*
X0098679Y0036830D02*
D03*
X0096393Y0043434D02*
D03*
X0090551Y0053340D02*
D03*
X0069596Y0035306D02*
D03*
X0073609Y0029337D02*
D03*
X0073228Y0034036D02*
D03*
X0074879Y0029972D02*
D03*
X0057277Y0029210D02*
D03*
X0066040Y0028397D02*
D03*
X0064313Y0028397D02*
D03*
X0090399Y0030226D02*
D03*
X0088621Y0029312D02*
D03*
X0069596Y0032385D02*
D03*
X0077419Y0033655D02*
D03*
X0072492Y0043637D02*
D03*
X0077419Y0028575D02*
D03*
X0074879Y0033655D02*
D03*
X0049022Y0029845D02*
D03*
X0063271Y0028397D02*
D03*
X0051689Y0060706D02*
D03*
X0057658Y0060960D02*
D03*
X0048133Y0050546D02*
D03*
X0048133Y0052197D02*
D03*
X0052832Y0053848D02*
D03*
X0053975Y0053848D02*
D03*
X0064770Y0042291D02*
D03*
X0083566Y0041529D02*
D03*
X0060071Y0055118D02*
D03*
X0061849Y0044450D02*
D03*
X0054229Y0058039D02*
D03*
X0055499Y0058039D02*
D03*
X0055372Y0060706D02*
D03*
X0056515Y0053340D02*
D03*
X0091669Y0082067D02*
D03*
X0085090Y0021463D02*
D03*
X0086995Y0021209D02*
D03*
X0079248Y0021412D02*
D03*
X0077546Y0021412D02*
D03*
X0076327Y0021412D02*
D03*
X0062814Y0021285D02*
D03*
X0061087Y0021285D02*
D03*
X0074651Y0044069D02*
D03*
X0088595Y0033680D02*
D03*
X0088595Y0034773D02*
D03*
X0083566Y0042672D02*
D03*
X0088773Y0041529D02*
D03*
X0087122Y0044323D02*
D03*
X0062484Y0047625D02*
D03*
X0063094Y0048438D02*
D03*
X0062738Y0046609D02*
D03*
X0061595Y0048260D02*
D03*
X0061595Y0049721D02*
D03*
X0065913Y0048514D02*
D03*
X0066370Y0049581D02*
D03*
X0066802Y0047371D02*
D03*
X0067412Y0048514D02*
D03*
X0065329Y0050622D02*
D03*
X0056642Y0047879D02*
D03*
X0056642Y0049784D02*
D03*
X0058649Y0035255D02*
D03*
X0059690Y0036271D02*
D03*
X0063119Y0042291D02*
D03*
X0059309Y0058293D02*
D03*
X0063119Y0039624D02*
D03*
X0062865Y0040640D02*
D03*
X0060833Y0044196D02*
D03*
X0059436Y0057277D02*
D03*
X0063373Y0053848D02*
D03*
X0064770Y0040640D02*
D03*
X0072695Y0085674D02*
D03*
X0062611Y0082169D02*
D03*
X0088341Y0084912D02*
D03*
X0089408Y0081915D02*
D03*
X0080264Y0082042D02*
D03*
X0083947Y0081915D02*
D03*
X0084150Y0084861D02*
D03*
X0073025Y0054864D02*
D03*
X0070155Y0051791D02*
D03*
X0068580Y0054864D02*
D03*
X0048895Y0012065D02*
D03*
X0060071Y0017272D02*
D03*
X0114808Y0010160D02*
D03*
X0113919Y0008763D02*
D03*
X0110871Y0009398D02*
D03*
X0064135Y0011430D02*
D03*
X0098171Y0009017D02*
D03*
X0119126Y0009017D02*
D03*
X0109220Y0009017D02*
D03*
X0047371Y0009017D02*
D03*
X0067818Y0009017D02*
D03*
X0072771Y0010033D02*
D03*
X0075311Y0009017D02*
D03*
X0080645Y0009017D02*
D03*
X0082931Y0008890D02*
D03*
X0086741Y0009017D02*
D03*
X0090551Y0009017D02*
D03*
X0092964Y0009017D02*
D03*
X0095631Y0009017D02*
D03*
X0051181Y0009017D02*
D03*
X0042799Y0016002D02*
D03*
X0044831Y0009017D02*
D03*
X0054610Y0009017D02*
D03*
X0112903Y0009017D02*
D03*
X0101981Y0009017D02*
D03*
X0099695Y0009017D02*
D03*
X0094488Y0009017D02*
D03*
X0088265Y0008890D02*
D03*
X0084709Y0009017D02*
D03*
X0079121Y0009017D02*
D03*
X0071501Y0009017D02*
D03*
X0069469Y0009144D02*
D03*
X0063119Y0009017D02*
D03*
X0060071Y0009017D02*
D03*
X0035433Y0018872D02*
D03*
X0029972Y0023952D02*
D03*
X0036195Y0021539D02*
D03*
X0073787Y0021412D02*
D03*
X0073279Y0011811D02*
D03*
X0082804Y0009906D02*
D03*
X0072314Y0021412D02*
D03*
X0084963Y0010795D02*
D03*
X0075565Y0017145D02*
D03*
X0109093Y0010160D02*
D03*
X0107188Y0011938D02*
D03*
X0101981Y0010668D02*
D03*
X0098806Y0012319D02*
D03*
X0099060Y0010033D02*
D03*
X0096647Y0010287D02*
D03*
X0080899Y0014605D02*
D03*
X0094361Y0010287D02*
D03*
X0082804Y0047879D02*
D03*
X0084074Y0048006D02*
D03*
X0085217Y0048006D02*
D03*
X0083135Y0051816D02*
D03*
X0085090Y0044196D02*
D03*
X0087452Y0081915D02*
D03*
X0085090Y0081915D02*
D03*
X0082347Y0081915D02*
D03*
X0079121Y0082042D02*
D03*
X0074549Y0082042D02*
D03*
X0064389Y0050165D02*
D03*
X0071374Y0081915D02*
D03*
X0063373Y0050419D02*
D03*
X0068326Y0081915D02*
D03*
X0062230Y0050521D02*
D03*
X0065659Y0082042D02*
D03*
X0063373Y0065659D02*
D03*
X0063373Y0064262D02*
D03*
X0047371Y0072390D02*
D03*
X0046228Y0072390D02*
D03*
X0045644Y0074092D02*
D03*
X0044729Y0074930D02*
D03*
X0063373Y0060909D02*
D03*
X0060376Y0061138D02*
D03*
X0045085Y0072136D02*
D03*
X0043866Y0072136D02*
D03*
X0045034Y0078207D02*
D03*
X0043866Y0078232D02*
D03*
X0055880Y0072517D02*
D03*
X0056515Y0073279D02*
D03*
X0055880Y0074092D02*
D03*
X0056515Y0074930D02*
D03*
X0055880Y0075768D02*
D03*
X0043891Y0075946D02*
D03*
X0056515Y0076606D02*
D03*
X0044679Y0076708D02*
D03*
X0055880Y0077546D02*
D03*
X0046558Y0077394D02*
D03*
X0047498Y0077978D02*
D03*
X0056515Y0078867D02*
D03*
X0063373Y0057658D02*
D03*
X0063373Y0059309D02*
D03*
X0063373Y0056134D02*
D03*
X0063373Y0068834D02*
D03*
X0063373Y0070993D02*
D03*
X0063373Y0075057D02*
D03*
X0063373Y0079756D02*
D03*
X0060325Y0074803D02*
D03*
X0060300Y0067843D02*
D03*
X0063373Y0076708D02*
D03*
X0063373Y0080899D02*
D03*
X0046863Y0081788D02*
D03*
X0044348Y0087935D02*
D03*
X0045593Y0088138D02*
D03*
X0046787Y0097993D02*
D03*
X0056515Y0080391D02*
D03*
X0047879Y0081788D02*
D03*
X0063373Y0082931D02*
D03*
X0057099Y0083160D02*
D03*
X0047320Y0083693D02*
D03*
X0057125Y0084582D02*
D03*
X0045212Y0084658D02*
D03*
X0058191Y0084150D02*
D03*
X0045847Y0083820D02*
D03*
X0058928Y0084963D02*
D03*
X0046558Y0088697D02*
D03*
X0058166Y0085725D02*
D03*
X0047549Y0088138D02*
D03*
X0058928Y0086487D02*
D03*
X0048412Y0088697D02*
D03*
X0058039Y0087249D02*
D03*
X0049454Y0088697D02*
D03*
X0069596Y0081915D02*
D03*
X0061214Y0087071D02*
D03*
X0049403Y0081788D02*
D03*
X0060198Y0087452D02*
D03*
X0044196Y0082423D02*
D03*
X0075438Y0054864D02*
D03*
X0079502Y0054864D02*
D03*
X0083693Y0054864D02*
D03*
X0088646Y0054864D02*
D03*
X0090424Y0054991D02*
D03*
X0090424Y0056134D02*
D03*
X0090424Y0057277D02*
D03*
X0090348Y0061595D02*
D03*
X0090424Y0060579D02*
D03*
X0090424Y0065151D02*
D03*
X0090348Y0068072D02*
D03*
X0090424Y0069088D02*
D03*
X0090424Y0075311D02*
D03*
X0090424Y0071628D02*
D03*
X0093472Y0075565D02*
D03*
X0090424Y0080518D02*
D03*
X0090424Y0078740D02*
D03*
X0090424Y0082804D02*
D03*
X0069850Y0084963D02*
D03*
X0073279Y0081915D02*
D03*
X0077089Y0084963D02*
D03*
X0076708Y0082042D02*
D03*
X0079807Y0044069D02*
D03*
X0077470Y0044069D02*
D03*
X0075692Y0044069D02*
D03*
X0071501Y0043815D02*
D03*
X0059182Y0067564D02*
D03*
X0056642Y0041910D02*
D03*
X0062865Y0035941D02*
D03*
X0062865Y0037465D02*
D03*
X0051460Y0029337D02*
D03*
X0055372Y0032766D02*
D03*
X0057404Y0058293D02*
D03*
X0086360Y0048006D02*
D03*
X0087122Y0047117D02*
D03*
X0064770Y0043942D02*
D03*
X0088011Y0046355D02*
D03*
X0050609Y0045402D02*
D03*
X0069799Y0028067D02*
D03*
X0051816Y0012319D02*
D03*
X0058928Y0009779D02*
D03*
X0051054Y0014986D02*
D03*
X0048260Y0023749D02*
D03*
X0049276Y0023749D02*
D03*
X0045466Y0025019D02*
D03*
X0044704Y0014097D02*
D03*
X0052324Y0034163D02*
D03*
X0054356Y0040005D02*
D03*
X0054737Y0042037D02*
D03*
X0053086Y0032639D02*
D03*
X0053848Y0033655D02*
D03*
X0093853Y0027178D02*
D03*
X0094920Y0032207D02*
D03*
X0122174Y0011684D02*
D03*
X0122784Y0014478D02*
D03*
X0122047Y0020066D02*
D03*
X0093726Y0034798D02*
D03*
X0101473Y0050292D02*
D03*
X0100838Y0046609D02*
D03*
X0101473Y0042672D02*
D03*
X0101092Y0038735D02*
D03*
X0117221Y0032004D02*
D03*
X0115951Y0032004D02*
D03*
X0123698Y0039624D02*
D03*
X0131191Y0053340D02*
D03*
X0132207Y0055753D02*
D03*
X0128905Y0055626D02*
D03*
X0123571Y0055245D02*
D03*
X0129921Y0053340D02*
D03*
X0128651Y0053340D02*
D03*
X0130048Y0055626D02*
D03*
X0085852Y0054864D02*
D03*
X0073635Y0085242D02*
D03*
X0089764Y0037668D02*
D03*
X0093447Y0037668D02*
D03*
X0118110Y0012573D02*
D03*
X0117094Y0012573D02*
D03*
X0050673Y0016002D02*
D03*
X0127889Y0017145D02*
D03*
X0145288Y0030607D02*
D03*
X0152908Y0037084D02*
D03*
X0150873Y0035306D02*
D03*
X0155626Y0035433D02*
D03*
X0155702Y0051689D02*
D03*
X0156083Y0053340D02*
D03*
X0151511Y0051435D02*
D03*
X0181864Y0047371D02*
D03*
X0135001Y0019558D02*
D03*
X0120650Y0065659D02*
D03*
X0120650Y0059182D02*
D03*
X0118364Y0066167D02*
D03*
X0101981Y0033655D02*
D03*
X0103632Y0058293D02*
D03*
X0040538Y0011049D02*
D03*
X0036779Y0011074D02*
D03*
X0105283Y0063881D02*
D03*
X0108966Y0063881D02*
D03*
X0072212Y0100457D02*
D03*
X0076098Y0100432D02*
D03*
X0113157Y0050800D02*
D03*
X0115062Y0058293D02*
D03*
X0109601Y0056261D02*
D03*
X0169672Y0082169D02*
D03*
X0169672Y0080010D02*
D03*
X0167894Y0078613D02*
D03*
X0163195Y0082931D02*
D03*
X0105664Y0056896D02*
D03*
X0109093Y0051181D02*
D03*
X0118364Y0009652D02*
D03*
X0132207Y0029083D02*
D03*
X0141097Y0072771D02*
D03*
X0144653Y0081407D02*
D03*
X0136652Y0014351D02*
D03*
X0143510Y0058674D02*
D03*
X0136652Y0011811D02*
D03*
X0153416Y0088519D02*
D03*
X0148844Y0050419D02*
D03*
X0141859Y0082677D02*
D03*
X0056642Y0040132D02*
D03*
X0048743Y0041656D02*
D03*
X0053594Y0057023D02*
D03*
X0053340Y0048260D02*
D03*
X0059690Y0056134D02*
D03*
X0059690Y0037338D02*
D03*
X0076635Y0054861D02*
D03*
X0058928Y0033401D02*
D03*
X0062967Y0034671D02*
D03*
X0065557Y0034925D02*
D03*
X0057277Y0030226D02*
D03*
X0067488Y0034925D02*
D03*
X0068605Y0033757D02*
D03*
X0068580Y0028092D02*
D03*
X0070866Y0024714D02*
D03*
X0079959Y0024536D02*
D03*
X0081153Y0028042D02*
D03*
X0079959Y0028118D02*
D03*
X0085217Y0036068D02*
D03*
X0084303Y0029235D02*
D03*
X0085293Y0029743D02*
D03*
X0084455Y0034544D02*
D03*
X0081940Y0034544D02*
D03*
X0083591Y0028448D02*
D03*
X0094336Y0028575D02*
D03*
X0085471Y0024130D02*
D03*
X0095250Y0028092D02*
D03*
X0080899Y0032004D02*
D03*
X0112141Y0021844D02*
D03*
X0148717Y0030099D02*
D03*
X0153162Y0030988D02*
D03*
X0155575Y0030988D02*
D03*
X0168529Y0029337D02*
D03*
X0149479Y0029337D02*
D03*
X0141478Y0029210D02*
D03*
X0181483Y0029972D02*
D03*
X0041275Y0038989D02*
D03*
X0045898Y0043307D02*
D03*
X0041275Y0047676D02*
D03*
X0027661Y0028651D02*
D03*
X0026543Y0020142D02*
D03*
X0025425Y0022352D02*
D03*
X0026670Y0025222D02*
D03*
X0010287Y0035712D02*
D03*
X0033020Y0039243D02*
D03*
X0140335Y0102235D02*
D03*
X0141783Y0101473D02*
D03*
X0128651Y0114046D02*
D03*
X0053086Y0105410D02*
D03*
X0053111Y0106629D02*
D03*
X0040640Y0105410D02*
D03*
X0040640Y0106680D02*
D03*
X0053213Y0111760D02*
D03*
X0053213Y0113030D02*
D03*
X0040640Y0111760D02*
D03*
X0047498Y0102489D02*
D03*
X0058547Y0109220D02*
D03*
X0046101Y0109220D02*
D03*
X0044704Y0120269D02*
D03*
X0053848Y0122555D02*
D03*
X0102108Y0124206D02*
D03*
X0101524Y0116205D02*
D03*
X0094996Y0116459D02*
D03*
X0092837Y0117475D02*
D03*
X0089047Y0114711D02*
D03*
X0087808Y0114935D02*
D03*
X0105207Y0125603D02*
D03*
X0100254Y0124841D02*
D03*
X0144145Y0093091D02*
D03*
X0143434Y0093904D02*
D03*
X0150368Y0089662D02*
D03*
X0160401Y0091872D02*
D03*
X0138735Y0083515D02*
D03*
X0152146Y0085217D02*
D03*
X0078283Y0111887D02*
D03*
X0078283Y0113157D02*
D03*
X0083744Y0118237D02*
D03*
X0078537Y0118237D02*
D03*
X0078283Y0122682D02*
D03*
X0077851Y0125730D02*
D03*
X0086157Y0125476D02*
D03*
X0083490Y0125476D02*
D03*
X0107239Y0127762D02*
D03*
X0124460Y0104521D02*
D03*
X0128651Y0109855D02*
D03*
X0127254Y0104521D02*
D03*
X0123571Y0107188D02*
D03*
X0070282Y0110109D02*
D03*
X0071425Y0117221D02*
D03*
X0071425Y0113665D02*
D03*
X0031115Y0035433D02*
D03*
X0029591Y0032004D02*
D03*
X0026924Y0032004D02*
D03*
X0030607Y0039497D02*
D03*
X0029591Y0048133D02*
D03*
X0010033Y0049276D02*
D03*
X0014732Y0049276D02*
D03*
X0018923Y0049276D02*
D03*
X0020574Y0049784D02*
D03*
X0020701Y0053721D02*
D03*
X0020701Y0058166D02*
D03*
X0096012Y0034798D02*
D03*
X0024511Y0119126D02*
D03*
X0021336Y0119126D02*
D03*
X0035128Y0061595D02*
D03*
X0035509Y0062509D02*
D03*
X0035865Y0063449D02*
D03*
X0041224Y0064973D02*
D03*
X0033045Y0067513D02*
D03*
X0026873Y0103175D02*
D03*
X0033782Y0104648D02*
D03*
X0033782Y0107315D02*
D03*
X0033782Y0117348D02*
D03*
X0031623Y0116332D02*
D03*
X0041529Y0120015D02*
D03*
X0051435Y0122809D02*
D03*
X0038227Y0102083D02*
D03*
X0038227Y0103099D02*
D03*
X0039776Y0102565D02*
D03*
X0065811Y0103353D02*
D03*
X0067742Y0103378D02*
D03*
X0084277Y0098628D02*
D03*
X0085293Y0099009D02*
D03*
X0086411Y0098298D02*
D03*
X0091719Y0105512D02*
D03*
X0089383Y0088163D02*
D03*
X0084353Y0088163D02*
D03*
X0091034Y0087681D02*
D03*
X0082956Y0087401D02*
D03*
X0093015Y0088163D02*
D03*
X0081559Y0088163D02*
D03*
X0109245Y0103810D02*
D03*
X0120269Y0094412D02*
D03*
X0144526Y0094209D02*
D03*
X0118135Y0121463D02*
D03*
X0094234Y0100178D02*
D03*
X0040640Y0113030D02*
D03*
X0044196Y0113030D02*
D03*
X0128702Y0110871D02*
D03*
X0040640Y0114300D02*
D03*
X0053213Y0114300D02*
D03*
X0131191Y0010922D02*
D03*
X0155702Y0010922D02*
D03*
X0110160Y0118872D02*
D03*
X0109779Y0112268D02*
D03*
X0044704Y0115062D02*
D03*
X0046101Y0111760D02*
D03*
X0058547Y0111760D02*
D03*
X0133350Y0106680D02*
D03*
X0111557Y0112141D02*
D03*
X0105791Y0132918D02*
D03*
X0101092Y0114300D02*
D03*
X0098679Y0114554D02*
D03*
X0140614Y0058420D02*
D03*
X0135433Y0058064D02*
D03*
X0137541Y0058141D02*
D03*
X0063805Y0096698D02*
D03*
X0060325Y0079502D02*
D03*
X0056820Y0096698D02*
D03*
X0056515Y0059182D02*
D03*
X0090297Y0064059D02*
D03*
X0090297Y0070434D02*
D03*
X0148819Y0095580D02*
D03*
X0148819Y0097333D02*
D03*
X0111252Y0040894D02*
D03*
X0111252Y0037338D02*
D03*
X0113157Y0035687D02*
D03*
X0116713Y0035687D02*
D03*
X0114935Y0042545D02*
D03*
X0113030Y0042545D02*
D03*
X0117475Y0042037D02*
D03*
X0118491Y0039116D02*
D03*
X0114808Y0039116D02*
D03*
X0095072Y0077826D02*
D03*
X0003048Y0101092D02*
D03*
X0005334Y0101092D02*
D03*
X0094488Y0121920D02*
D03*
X0145288Y0048260D02*
D03*
X0147828Y0049530D02*
D03*
X0155219Y0049073D02*
D03*
X0152756Y0048260D02*
D03*
X0138862Y0037313D02*
D03*
X0144704Y0037186D02*
D03*
X0141783Y0037211D02*
D03*
X0145263Y0035331D02*
D03*
X0115951Y0009398D02*
D03*
X0039116Y0027432D02*
D03*
X0045085Y0032563D02*
D03*
X0043739Y0021971D02*
D03*
X0156489Y0100203D02*
D03*
X0161036Y0087630D02*
D03*
X0159309Y0089281D02*
D03*
X0148920Y0085166D02*
D03*
X0029896Y0026492D02*
D03*
X0029896Y0025222D02*
D03*
X0017907Y0027534D02*
D03*
X0034671Y0028804D02*
D03*
X0044958Y0049682D02*
D03*
X0154813Y0106045D02*
D03*
X0151130Y0102870D02*
D03*
X0146304Y0127381D02*
D03*
X0061849Y0120142D02*
D03*
X0135636Y0105918D02*
D03*
X0120777Y0102870D02*
D03*
X0115316Y0094920D02*
D03*
X0195072Y0110109D02*
D03*
X0177546Y0117221D02*
D03*
X0179197Y0117221D02*
D03*
X0169418Y0110490D02*
D03*
X0147066Y0128397D02*
D03*
X0174625Y0110490D02*
D03*
X0147320Y0116713D02*
D03*
X0163957Y0114173D02*
D03*
X0164592Y0109601D02*
D03*
X0149479Y0125984D02*
D03*
X0006198Y0030429D02*
D03*
X0017501Y0033782D02*
D03*
X0022479Y0029718D02*
D03*
X0009728Y0021209D02*
D03*
X0128905Y0088265D02*
D03*
X0144272Y0069850D02*
D03*
D187*
X0013310Y0046634D02*
D03*
D188*
X0001448Y0027686D02*
D03*
D189*
X0112776Y0121615D02*
D03*
X0145034Y0113081D02*
D03*
X0094234Y0104318D02*
D03*
X0177673Y0112471D02*
D03*
D190*
X0141148Y0114935D02*
D03*
X0130607Y0115062D02*
D03*
X0055448Y0114300D02*
D03*
X0060884Y0123317D02*
D03*
X0173050Y0112141D02*
D03*
X0169240Y0112141D02*
D03*
D191*
X0135585Y0111125D02*
D03*
X0137287Y0110490D02*
D03*
X0137287Y0111760D02*
D03*
X0126111Y0111811D02*
D03*
X0125476Y0110109D02*
D03*
X0126746Y0110109D02*
D03*
X0136195Y0089154D02*
D03*
X0134493Y0089789D02*
D03*
X0134493Y0088519D02*
D03*
X0136195Y0092329D02*
D03*
X0134493Y0092964D02*
D03*
X0134493Y0091694D02*
D03*
X0155448Y0078562D02*
D03*
X0156083Y0080264D02*
D03*
X0154813Y0080264D02*
D03*
X0152654Y0078435D02*
D03*
X0153289Y0080137D02*
D03*
X0152019Y0080137D02*
D03*
X0178003Y0035306D02*
D03*
X0179705Y0034671D02*
D03*
X0179705Y0035941D02*
D03*
X0170002Y0033909D02*
D03*
X0171704Y0033274D02*
D03*
X0171704Y0034544D02*
D03*
X0155575Y0032461D02*
D03*
X0156210Y0034163D02*
D03*
X0154940Y0034163D02*
D03*
X0173812Y0035306D02*
D03*
X0175514Y0034671D02*
D03*
X0175514Y0035941D02*
D03*
X0182067Y0035306D02*
D03*
X0183769Y0034671D02*
D03*
X0183769Y0035941D02*
D03*
X0138862Y0038608D02*
D03*
X0137160Y0039243D02*
D03*
X0137160Y0037973D02*
D03*
X0144704Y0038608D02*
D03*
X0143002Y0039243D02*
D03*
X0143002Y0037973D02*
D03*
X0147625Y0038608D02*
D03*
X0145923Y0039243D02*
D03*
X0145923Y0037973D02*
D03*
X0141783Y0038608D02*
D03*
X0140081Y0039243D02*
D03*
X0140081Y0037973D02*
D03*
X0094158Y0118567D02*
D03*
X0094793Y0120269D02*
D03*
X0093523Y0120269D02*
D03*
X0097155Y0118567D02*
D03*
X0097790Y0120269D02*
D03*
X0096520Y0120269D02*
D03*
X0028372Y0033655D02*
D03*
X0026670Y0034290D02*
D03*
X0026670Y0033020D02*
D03*
X0032309Y0033655D02*
D03*
X0030607Y0034290D02*
D03*
X0030607Y0033020D02*
D03*
X0178689Y0025476D02*
D03*
X0179324Y0027178D02*
D03*
X0178054Y0027178D02*
D03*
X0045212Y0050622D02*
D03*
X0045847Y0052324D02*
D03*
X0044577Y0052324D02*
D03*
X0180899Y0115316D02*
D03*
X0179197Y0115951D02*
D03*
X0179197Y0114681D02*
D03*
D192*
X0141097Y0120523D02*
D03*
X0145161Y0120523D02*
D03*
X0134366Y0120523D02*
D03*
X0130302Y0120523D02*
D03*
D193*
X0068377Y0116459D02*
D03*
X0172466Y0080899D02*
D03*
X0118999Y0083058D02*
D03*
X0108712Y0083185D02*
D03*
X0123952Y0034036D02*
D03*
X0106680Y0059817D02*
D03*
X0189230Y0113284D02*
D03*
D194*
X0126619Y0021666D02*
D03*
X0109728Y0105232D02*
D03*
X0147828Y0077648D02*
D03*
X0101651Y0104470D02*
D03*
X0085268Y0104445D02*
D03*
X0090602Y0104445D02*
D03*
X0076632Y0106985D02*
D03*
D195*
X0190754Y0099441D02*
D03*
X0196342Y0099441D02*
D03*
X0190754Y0103505D02*
D03*
X0196342Y0103505D02*
D03*
X0159385Y0133350D02*
D03*
X0164973Y0133350D02*
D03*
X0155067Y0133350D02*
D03*
X0149479Y0133350D02*
D03*
D196*
X0003962Y0017018D02*
D03*
X0005232Y0017018D02*
D03*
X0006502Y0017018D02*
D03*
X0007772Y0017018D02*
D03*
X0007772Y0022606D02*
D03*
X0006502Y0022606D02*
D03*
X0005232Y0022606D02*
D03*
X0003962Y0022606D02*
D03*
X0011836Y0022606D02*
D03*
X0013106Y0022606D02*
D03*
X0014376Y0022606D02*
D03*
X0015646Y0022606D02*
D03*
X0015646Y0017018D02*
D03*
X0014376Y0017018D02*
D03*
X0013106Y0017018D02*
D03*
X0011836Y0017018D02*
D03*
D197*
X0109779Y0116840D02*
D03*
X0109779Y0111252D02*
D03*
D198*
X0109779Y0108712D02*
D03*
X0109779Y0114300D02*
D03*
X0104699Y0114300D02*
D03*
X0104699Y0108712D02*
D03*
X0104699Y0116840D02*
D03*
X0104699Y0111252D02*
D03*
D199*
X0005842Y0019634D02*
D03*
X0013741Y0019634D02*
D03*
M02*
