%FSAX43Y43*%
%MOMM*%
G71*
G01*
G75*
%ADD10R,11.430X1.524*%
%ADD11R,30.480X1.524*%
%ADD12R,1.524X0.305*%
%ADD13R,0.305X1.524*%
%ADD14R,1.524X1.270*%
%ADD15R,0.762X0.889*%
%ADD16O,0.432X1.524*%
%ADD17R,0.432X1.524*%
%ADD18R,1.778X2.286*%
%ADD19R,1.270X1.143*%
%ADD20R,1.524X3.048*%
%ADD21R,0.889X0.762*%
%ADD22R,3.048X1.524*%
%ADD23R,1.270X1.524*%
%ADD24R,2.286X1.778*%
%ADD25R,1.524X0.508*%
%ADD26O,0.610X2.032*%
%ADD27R,1.143X1.270*%
%ADD28R,1.778X1.524*%
%ADD29R,1.524X1.778*%
%ADD30R,1.524X2.032*%
%ADD31R,2.540X0.610*%
%ADD32O,2.540X0.610*%
%ADD33O,1.778X3.048*%
%ADD34R,5.588X6.350*%
%ADD35R,3.810X2.032*%
%ADD36R,2.032X1.524*%
%ADD37R,1.727X1.219*%
%ADD38O,1.727X1.219*%
%ADD39O,2.540X1.270*%
%ADD40O,2.032X0.610*%
%ADD41R,15.240X5.080*%
%ADD42R,2.540X1.778*%
%ADD43R,0.914X1.270*%
%ADD44R,0.914X0.914*%
%ADD45R,1.778X2.540*%
%ADD46R,3.048X2.286*%
%ADD47R,1.270X1.016*%
%ADD48R,1.016X1.270*%
%ADD49R,1.780X0.420*%
%ADD50R,1.780X0.420*%
%ADD51O,1.016X5.080*%
%ADD52O,2.032X0.762*%
%ADD53R,1.727X1.829*%
%ADD54R,1.778X0.508*%
%ADD55R,2.540X0.635*%
%ADD56R,0.508X1.524*%
%ADD57R,0.508X1.778*%
%ADD58R,0.610X2.032*%
%ADD59R,2.032X0.610*%
%ADD60R,21.590X1.524*%
%ADD61R,1.524X14.859*%
%ADD62O,8.636X8.382*%
%ADD63R,7.874X6.096*%
%ADD64R,1.727X0.813*%
%ADD65C,0.203*%
%ADD66C,0.356*%
%ADD67C,0.457*%
%ADD68C,0.305*%
%ADD69C,1.270*%
%ADD70C,0.508*%
%ADD71C,0.406*%
%ADD72C,0.635*%
%ADD73C,0.381*%
%ADD74C,0.584*%
%ADD75C,0.254*%
%ADD76C,0.813*%
%ADD77C,0.711*%
%ADD78C,0.889*%
%ADD79R,25.146X25.400*%
%ADD80R,1.397X0.635*%
%ADD81C,1.270*%
%ADD82C,1.651*%
%ADD83C,1.524*%
%ADD84R,1.270X1.270*%
%ADD85C,1.626*%
%ADD86C,3.302*%
%ADD87R,10.160X7.620*%
%ADD88C,2.286*%
%ADD89C,6.350*%
%ADD90C,1.930*%
%ADD91C,5.842*%
%ADD92C,1.905*%
%ADD93R,1.905X1.905*%
%ADD94C,1.575*%
%ADD95C,1.727*%
%ADD96R,1.727X1.727*%
%ADD97C,0.813*%
%ADD98R,24.130X1.524*%
%ADD99R,2.032X30.480*%
%ADD100R,1.016X0.914*%
%ADD101R,0.914X1.016*%
%ADD102R,0.762X0.762*%
%ADD103R,1.829X1.727*%
%ADD104R,2.032X3.810*%
%ADD105R,1.270X0.914*%
%ADD106R,2.286X3.048*%
%ADD107O,0.762X2.032*%
%ADD108R,1.194X0.787*%
%ADD109O,1.194X0.787*%
%ADD110R,5.080X2.032*%
%ADD111R,1.270X2.794*%
%ADD112R,1.270X3.048*%
%ADD113C,0.200*%
%ADD114C,0.127*%
D11*
X0016256Y0009627D02*
D03*
D14*
X0137922Y0124206D02*
D03*
X0137922Y0121412D02*
D03*
X0139573Y0089789D02*
D03*
X0139573Y0086995D02*
D03*
X0057023Y0118491D02*
D03*
X0057023Y0121285D02*
D03*
X0052324Y0118491D02*
D03*
X0052324Y0121285D02*
D03*
D15*
X0109220Y0120904D02*
D03*
X0109220Y0122555D02*
D03*
X0143637Y0112395D02*
D03*
X0143637Y0114046D02*
D03*
X0124079Y0123444D02*
D03*
X0124079Y0121793D02*
D03*
X0006223Y0026924D02*
D03*
X0006223Y0028575D02*
D03*
X0034544Y0026035D02*
D03*
X0034544Y0027686D02*
D03*
X0081407Y0059436D02*
D03*
X0081407Y0057785D02*
D03*
X0160401Y0089154D02*
D03*
X0160401Y0090805D02*
D03*
X0082804Y0071755D02*
D03*
X0082804Y0070104D02*
D03*
X0175768Y0102489D02*
D03*
X0175768Y0104140D02*
D03*
X0120828Y0108458D02*
D03*
X0120828Y0106807D02*
D03*
X0120828Y0113411D02*
D03*
X0120828Y0111760D02*
D03*
X0120828Y0116459D02*
D03*
X0120828Y0114808D02*
D03*
X0120828Y0122301D02*
D03*
X0120828Y0120650D02*
D03*
X0111252Y0105918D02*
D03*
X0041910Y0038100D02*
D03*
X0041910Y0036449D02*
D03*
X0029083Y0019126D02*
D03*
X0029083Y0020777D02*
D03*
X0025146Y0027940D02*
D03*
X0025146Y0026289D02*
D03*
X0026416Y0026289D02*
D03*
X0026416Y0027940D02*
D03*
X0027686Y0024384D02*
D03*
X0027686Y0026035D02*
D03*
X0164338Y0081280D02*
D03*
X0131699Y0083058D02*
D03*
X0131699Y0081407D02*
D03*
X0146050Y0077597D02*
D03*
X0146050Y0075946D02*
D03*
X0158242Y0077597D02*
D03*
X0158242Y0079248D02*
D03*
X0110871Y0083312D02*
D03*
X0125222Y0080264D02*
D03*
X0125222Y0078613D02*
D03*
X0132969Y0081534D02*
D03*
X0132969Y0079883D02*
D03*
X0162306Y0072390D02*
D03*
X0162306Y0074041D02*
D03*
X0163830Y0072390D02*
D03*
X0163830Y0074041D02*
D03*
X0160909Y0073660D02*
D03*
X0160909Y0075311D02*
D03*
X0165227Y0073660D02*
D03*
X0165227Y0075311D02*
D03*
X0165227Y0063627D02*
D03*
X0165227Y0061976D02*
D03*
X0160909Y0063627D02*
D03*
X0160909Y0061976D02*
D03*
X0179578Y0040386D02*
D03*
X0179578Y0038735D02*
D03*
X0141478Y0015621D02*
D03*
X0141478Y0013970D02*
D03*
X0179705Y0029972D02*
D03*
X0179705Y0031623D02*
D03*
X0134112Y0024257D02*
D03*
X0134112Y0025908D02*
D03*
X0169418Y0035814D02*
D03*
X0169418Y0037465D02*
D03*
X0154686Y0035560D02*
D03*
X0154686Y0037211D02*
D03*
X0179578Y0043180D02*
D03*
X0179578Y0044831D02*
D03*
X0160147Y0042418D02*
D03*
X0160147Y0044069D02*
D03*
X0156845Y0050673D02*
D03*
X0156845Y0052324D02*
D03*
X0137541Y0043815D02*
D03*
X0137541Y0045466D02*
D03*
X0185420Y0039624D02*
D03*
X0185420Y0037973D02*
D03*
X0186817Y0039624D02*
D03*
X0186817Y0037973D02*
D03*
X0161671Y0037084D02*
D03*
X0161671Y0035433D02*
D03*
X0159131Y0037084D02*
D03*
X0159131Y0035433D02*
D03*
X0141478Y0050165D02*
D03*
X0141478Y0048514D02*
D03*
X0139700Y0046990D02*
D03*
X0139700Y0045339D02*
D03*
X0154048Y0047498D02*
D03*
X0154048Y0045847D02*
D03*
X0152651Y0044704D02*
D03*
X0152651Y0043053D02*
D03*
X0147447Y0053848D02*
D03*
X0147447Y0055499D02*
D03*
X0115951Y0071755D02*
D03*
X0115951Y0070104D02*
D03*
X0122301Y0054356D02*
D03*
X0122301Y0056007D02*
D03*
X0116586Y0045339D02*
D03*
X0116586Y0046990D02*
D03*
X0101092Y0041402D02*
D03*
X0101092Y0039751D02*
D03*
X0027813Y0056007D02*
D03*
X0027813Y0057658D02*
D03*
X0062230Y0060960D02*
D03*
X0062230Y0059309D02*
D03*
X0089154Y0060071D02*
D03*
X0089154Y0061722D02*
D03*
X0063881Y0035814D02*
D03*
X0063881Y0037465D02*
D03*
X0062230Y0070485D02*
D03*
X0062230Y0068834D02*
D03*
X0062230Y0076962D02*
D03*
X0062230Y0075311D02*
D03*
X0072136Y0082931D02*
D03*
X0072136Y0084582D02*
D03*
X0062230Y0056007D02*
D03*
X0062230Y0057658D02*
D03*
X0062230Y0079248D02*
D03*
X0062230Y0080899D02*
D03*
X0091567Y0078740D02*
D03*
X0091567Y0080391D02*
D03*
X0091567Y0054991D02*
D03*
X0091567Y0056642D02*
D03*
X0062230Y0062611D02*
D03*
X0062230Y0064262D02*
D03*
X0062230Y0067310D02*
D03*
X0062230Y0065659D02*
D03*
X0091567Y0074041D02*
D03*
X0091567Y0075692D02*
D03*
X0091567Y0067183D02*
D03*
X0091567Y0068834D02*
D03*
X0091567Y0063373D02*
D03*
X0091567Y0065024D02*
D03*
X0062230Y0073660D02*
D03*
X0062230Y0072009D02*
D03*
X0061722Y0040259D02*
D03*
X0061722Y0038608D02*
D03*
X0061722Y0041529D02*
D03*
X0061722Y0043180D02*
D03*
X0119634Y0012573D02*
D03*
X0119634Y0010922D02*
D03*
X0031623Y0058166D02*
D03*
X0031623Y0056515D02*
D03*
X0027813Y0049276D02*
D03*
X0027813Y0050927D02*
D03*
X0031623Y0049784D02*
D03*
X0031623Y0051435D02*
D03*
X0055626Y0048006D02*
D03*
X0055626Y0049657D02*
D03*
X0047117Y0050546D02*
D03*
X0047117Y0052197D02*
D03*
X0082296Y0049022D02*
D03*
X0082296Y0050673D02*
D03*
X0083693Y0049022D02*
D03*
X0083693Y0050673D02*
D03*
X0084963Y0050673D02*
D03*
X0084963Y0049022D02*
D03*
X0086233Y0049022D02*
D03*
X0086233Y0050673D02*
D03*
X0087503Y0049022D02*
D03*
X0087503Y0050673D02*
D03*
X0088773Y0050673D02*
D03*
X0088773Y0049022D02*
D03*
X0081153Y0026924D02*
D03*
X0081153Y0025273D02*
D03*
X0069799Y0026924D02*
D03*
X0069799Y0025273D02*
D03*
X0094869Y0033147D02*
D03*
X0094869Y0034798D02*
D03*
X0100711Y0047879D02*
D03*
X0100711Y0049530D02*
D03*
X0122555Y0039624D02*
D03*
X0122555Y0037973D02*
D03*
X0132207Y0053086D02*
D03*
X0132207Y0054737D02*
D03*
X0125222Y0054229D02*
D03*
X0125222Y0055880D02*
D03*
X0126492Y0054229D02*
D03*
X0126492Y0055880D02*
D03*
X0127762Y0054229D02*
D03*
X0127762Y0055880D02*
D03*
X0119888Y0056007D02*
D03*
X0119888Y0054356D02*
D03*
X0147447Y0032512D02*
D03*
X0147447Y0030861D02*
D03*
X0110871Y0084963D02*
D03*
X0112014Y0092075D02*
D03*
X0112014Y0090424D02*
D03*
X0164338Y0082931D02*
D03*
X0116205Y0058293D02*
D03*
X0116205Y0056642D02*
D03*
X0114300Y0052578D02*
D03*
X0114300Y0050927D02*
D03*
X0003454Y0028575D02*
D03*
X0003454Y0026924D02*
D03*
X0054102Y0105410D02*
D03*
X0054102Y0107061D02*
D03*
X0039624Y0105410D02*
D03*
X0039624Y0107061D02*
D03*
X0052070Y0112776D02*
D03*
X0052070Y0114427D02*
D03*
X0039497Y0112903D02*
D03*
X0039497Y0114554D02*
D03*
X0103175Y0105029D02*
D03*
X0103175Y0103378D02*
D03*
X0098095Y0105029D02*
D03*
X0098095Y0103378D02*
D03*
X0083744Y0105029D02*
D03*
X0083744Y0103378D02*
D03*
X0088951Y0105029D02*
D03*
X0088951Y0103378D02*
D03*
X0077267Y0111760D02*
D03*
X0077267Y0113411D02*
D03*
X0072060Y0124333D02*
D03*
X0072060Y0125984D02*
D03*
X0076632Y0116459D02*
D03*
X0076632Y0114808D02*
D03*
X0111252Y0107569D02*
D03*
X0087198Y0063475D02*
D03*
X0087198Y0065126D02*
D03*
X0087071Y0066523D02*
D03*
X0087071Y0068174D02*
D03*
X0084582Y0070104D02*
D03*
X0082779Y0059512D02*
D03*
X0082779Y0057861D02*
D03*
X0084201Y0057912D02*
D03*
X0084582Y0071755D02*
D03*
X0084201Y0059563D02*
D03*
X0085471Y0057912D02*
D03*
X0085471Y0059563D02*
D03*
X0038227Y0114554D02*
D03*
X0038227Y0112903D02*
D03*
X0143510Y0047688D02*
D03*
X0143510Y0049340D02*
D03*
X0142494Y0048260D02*
D03*
X0142494Y0046609D02*
D03*
X0116078Y0012573D02*
D03*
X0116078Y0010922D02*
D03*
X0145412Y0053467D02*
D03*
X0145412Y0051816D02*
D03*
X0028956Y0025400D02*
D03*
X0028956Y0027051D02*
D03*
X0037973Y0118491D02*
D03*
X0037973Y0116840D02*
D03*
X0060071Y0116078D02*
D03*
X0060071Y0117729D02*
D03*
X0180340Y0112395D02*
D03*
X0180340Y0110744D02*
D03*
X0004826Y0028575D02*
D03*
X0004826Y0026924D02*
D03*
X0009271Y0017272D02*
D03*
X0009271Y0015621D02*
D03*
X0009271Y0018542D02*
D03*
X0009271Y0020193D02*
D03*
X0010414Y0017272D02*
D03*
X0010414Y0015621D02*
D03*
X0010414Y0020193D02*
D03*
X0010414Y0018542D02*
D03*
X0019558Y0033147D02*
D03*
X0019558Y0034798D02*
D03*
X0021336Y0033147D02*
D03*
X0021336Y0034798D02*
D03*
X0014224Y0034798D02*
D03*
X0014224Y0033147D02*
D03*
D21*
X0111252Y0124079D02*
D03*
X0112903Y0124079D02*
D03*
X0116459Y0124460D02*
D03*
X0118110Y0124460D02*
D03*
X0138049Y0108077D02*
D03*
X0136398Y0108077D02*
D03*
X0131953Y0115443D02*
D03*
X0133604Y0115443D02*
D03*
X0144145Y0115570D02*
D03*
X0142494Y0115570D02*
D03*
X0136398Y0113284D02*
D03*
X0138049Y0113284D02*
D03*
X0138049Y0114554D02*
D03*
X0136398Y0114554D02*
D03*
X0127381Y0113284D02*
D03*
X0125730Y0113284D02*
D03*
X0127381Y0114554D02*
D03*
X0125730Y0114554D02*
D03*
X0010033Y0029159D02*
D03*
X0008382Y0029159D02*
D03*
X0098425Y0031115D02*
D03*
X0096774Y0031115D02*
D03*
X0174371Y0042545D02*
D03*
X0172720Y0042545D02*
D03*
X0168275Y0045085D02*
D03*
X0169926Y0045085D02*
D03*
X0165481Y0043053D02*
D03*
X0163830Y0043053D02*
D03*
X0168275Y0042545D02*
D03*
X0169926Y0042545D02*
D03*
X0165608Y0041529D02*
D03*
X0163957Y0041529D02*
D03*
X0172339Y0045085D02*
D03*
X0173990Y0045085D02*
D03*
X0165481Y0045847D02*
D03*
X0163830Y0045847D02*
D03*
X0163830Y0044450D02*
D03*
X0165481Y0044450D02*
D03*
X0161671Y0039751D02*
D03*
X0033020Y0027559D02*
D03*
X0083693Y0119380D02*
D03*
X0085344Y0119380D02*
D03*
X0031369Y0027559D02*
D03*
X0152400Y0084328D02*
D03*
X0150749Y0084328D02*
D03*
X0141224Y0090170D02*
D03*
X0142875Y0090170D02*
D03*
X0194437Y0106045D02*
D03*
X0192786Y0106045D02*
D03*
X0074422Y0084455D02*
D03*
X0076073Y0084455D02*
D03*
X0117983Y0106045D02*
D03*
X0116332Y0106045D02*
D03*
X0117983Y0111506D02*
D03*
X0116332Y0111506D02*
D03*
X0117983Y0116586D02*
D03*
X0116332Y0116586D02*
D03*
X0135128Y0029210D02*
D03*
X0136779Y0029210D02*
D03*
X0073304Y0100406D02*
D03*
X0074955Y0100406D02*
D03*
X0030607Y0018669D02*
D03*
X0074930Y0056007D02*
D03*
X0076581Y0056007D02*
D03*
X0079375Y0053721D02*
D03*
X0077724Y0053721D02*
D03*
X0129286Y0091440D02*
D03*
X0127635Y0091440D02*
D03*
X0133096Y0086995D02*
D03*
X0131445Y0086995D02*
D03*
X0131445Y0088138D02*
D03*
X0133096Y0088138D02*
D03*
X0149479Y0075057D02*
D03*
X0147828Y0075057D02*
D03*
X0149860Y0080137D02*
D03*
X0148209Y0080137D02*
D03*
X0120396Y0089535D02*
D03*
X0122047Y0089535D02*
D03*
X0121158Y0087249D02*
D03*
X0122809Y0087249D02*
D03*
X0127508Y0087249D02*
D03*
X0129159Y0087249D02*
D03*
X0126365Y0089535D02*
D03*
X0128016Y0089535D02*
D03*
X0122555Y0081534D02*
D03*
X0124206Y0081534D02*
D03*
X0145669Y0078867D02*
D03*
X0144018Y0078867D02*
D03*
X0144526Y0076835D02*
D03*
X0142875Y0076835D02*
D03*
X0145669Y0070866D02*
D03*
X0144018Y0070866D02*
D03*
X0144526Y0068834D02*
D03*
X0142875Y0068834D02*
D03*
X0160020Y0070612D02*
D03*
X0161671Y0070612D02*
D03*
X0166116Y0070612D02*
D03*
X0164465Y0070612D02*
D03*
X0162306Y0068580D02*
D03*
X0163957Y0068580D02*
D03*
X0139065Y0017780D02*
D03*
X0137414Y0017780D02*
D03*
X0138938Y0042037D02*
D03*
X0137287Y0042037D02*
D03*
X0181610Y0031496D02*
D03*
X0183261Y0031496D02*
D03*
X0161671Y0040894D02*
D03*
X0160020Y0040894D02*
D03*
X0160020Y0039751D02*
D03*
X0165735Y0031242D02*
D03*
X0164084Y0031242D02*
D03*
X0150749Y0031242D02*
D03*
X0149098Y0031242D02*
D03*
X0180721Y0045847D02*
D03*
X0182372Y0045847D02*
D03*
X0172339Y0046609D02*
D03*
X0173990Y0046609D02*
D03*
X0160147Y0045847D02*
D03*
X0161798Y0045847D02*
D03*
X0155448Y0054229D02*
D03*
X0157099Y0054229D02*
D03*
X0169926Y0041021D02*
D03*
X0171577Y0041021D02*
D03*
X0164973Y0029972D02*
D03*
X0166624Y0029972D02*
D03*
X0141983Y0054864D02*
D03*
X0140332Y0054864D02*
D03*
X0142999Y0053213D02*
D03*
X0141348Y0053213D02*
D03*
X0140205Y0051562D02*
D03*
X0141856Y0051562D02*
D03*
X0138808Y0053594D02*
D03*
X0137157Y0053594D02*
D03*
X0137792Y0054737D02*
D03*
X0136141Y0054737D02*
D03*
X0112014Y0074422D02*
D03*
X0113665Y0074422D02*
D03*
X0112014Y0075692D02*
D03*
X0113665Y0075692D02*
D03*
X0110109Y0078359D02*
D03*
X0111760Y0078359D02*
D03*
X0106807Y0078359D02*
D03*
X0108458Y0078359D02*
D03*
X0113284Y0078359D02*
D03*
X0114935Y0078359D02*
D03*
X0110236Y0067564D02*
D03*
X0111887Y0067564D02*
D03*
X0107061Y0067564D02*
D03*
X0108712Y0067564D02*
D03*
X0123571Y0052197D02*
D03*
X0121920Y0052197D02*
D03*
X0119761Y0050800D02*
D03*
X0121412Y0050800D02*
D03*
X0120523Y0051943D02*
D03*
X0118872Y0051943D02*
D03*
X0116586Y0050800D02*
D03*
X0118237Y0050800D02*
D03*
X0119888Y0044577D02*
D03*
X0121539Y0044577D02*
D03*
X0122555Y0041656D02*
D03*
X0120904Y0041656D02*
D03*
X0115189Y0046101D02*
D03*
X0113538Y0046101D02*
D03*
X0115697Y0033147D02*
D03*
X0117348Y0033147D02*
D03*
X0086614Y0041529D02*
D03*
X0084963Y0041529D02*
D03*
X0045847Y0086995D02*
D03*
X0044196Y0086995D02*
D03*
X0069215Y0011049D02*
D03*
X0067564Y0011049D02*
D03*
X0088011Y0011049D02*
D03*
X0086360Y0011049D02*
D03*
X0044069Y0079375D02*
D03*
X0045720Y0079375D02*
D03*
X0053594Y0011049D02*
D03*
X0055245Y0011049D02*
D03*
X0062738Y0020320D02*
D03*
X0061087Y0020320D02*
D03*
X0085217Y0083820D02*
D03*
X0083566Y0083820D02*
D03*
X0069977Y0053721D02*
D03*
X0068326Y0053721D02*
D03*
X0070612Y0083058D02*
D03*
X0068961Y0083058D02*
D03*
X0078232Y0083058D02*
D03*
X0076581Y0083058D02*
D03*
X0080264Y0083058D02*
D03*
X0081915Y0083058D02*
D03*
X0082296Y0056007D02*
D03*
X0083947Y0056007D02*
D03*
X0070866Y0056007D02*
D03*
X0072517Y0056007D02*
D03*
X0072898Y0045212D02*
D03*
X0071247Y0045212D02*
D03*
X0077724Y0045212D02*
D03*
X0079375Y0045212D02*
D03*
X0086868Y0045339D02*
D03*
X0085217Y0045339D02*
D03*
X0076073Y0045212D02*
D03*
X0074422Y0045212D02*
D03*
X0085344Y0020193D02*
D03*
X0086995Y0020193D02*
D03*
X0077343Y0020320D02*
D03*
X0078994Y0020320D02*
D03*
X0072263Y0020320D02*
D03*
X0073914Y0020320D02*
D03*
X0076962Y0011049D02*
D03*
X0075311Y0011049D02*
D03*
X0099822Y0011049D02*
D03*
X0098171Y0011049D02*
D03*
X0048895Y0010922D02*
D03*
X0047244Y0010922D02*
D03*
X0059817Y0011049D02*
D03*
X0061468Y0011049D02*
D03*
X0054229Y0052832D02*
D03*
X0052578Y0052832D02*
D03*
X0045720Y0071120D02*
D03*
X0044069Y0071120D02*
D03*
X0120015Y0046101D02*
D03*
X0118364Y0046101D02*
D03*
X0130810Y0054610D02*
D03*
X0129159Y0054610D02*
D03*
X0125095Y0057150D02*
D03*
X0123444Y0057150D02*
D03*
X0128143Y0057150D02*
D03*
X0126492Y0057150D02*
D03*
X0127889Y0051689D02*
D03*
X0126238Y0051689D02*
D03*
X0083947Y0053594D02*
D03*
X0085598Y0053594D02*
D03*
X0092431Y0037668D02*
D03*
X0090780Y0037668D02*
D03*
X0110236Y0011303D02*
D03*
X0108585Y0011303D02*
D03*
X0152654Y0050800D02*
D03*
X0154305Y0050800D02*
D03*
X0152654Y0052070D02*
D03*
X0154305Y0052070D02*
D03*
X0162560Y0048641D02*
D03*
X0160909Y0048641D02*
D03*
X0127254Y0070485D02*
D03*
X0125603Y0070485D02*
D03*
X0131064Y0072136D02*
D03*
X0132715Y0072136D02*
D03*
X0125349Y0018796D02*
D03*
X0123698Y0018796D02*
D03*
X0133985Y0027432D02*
D03*
X0135636Y0027432D02*
D03*
X0129413Y0020574D02*
D03*
X0131064Y0020574D02*
D03*
X0131064Y0022098D02*
D03*
X0129413Y0022098D02*
D03*
X0110490Y0021844D02*
D03*
X0108839Y0021844D02*
D03*
X0055880Y0111760D02*
D03*
X0057531Y0111760D02*
D03*
X0043434Y0111760D02*
D03*
X0045085Y0111760D02*
D03*
X0049784Y0103505D02*
D03*
X0048133Y0103505D02*
D03*
X0045085Y0103505D02*
D03*
X0046736Y0103505D02*
D03*
X0076632Y0103378D02*
D03*
X0078283Y0103378D02*
D03*
X0086665Y0107950D02*
D03*
X0085014Y0107950D02*
D03*
X0090348Y0107950D02*
D03*
X0088697Y0107950D02*
D03*
X0100254Y0107950D02*
D03*
X0101905Y0107950D02*
D03*
X0096952Y0107950D02*
D03*
X0095301Y0107950D02*
D03*
X0073203Y0107950D02*
D03*
X0074854Y0107950D02*
D03*
X0081077Y0118237D02*
D03*
X0082728Y0118237D02*
D03*
X0079248Y0120523D02*
D03*
X0077597Y0120523D02*
D03*
X0100127Y0110871D02*
D03*
X0101778Y0110871D02*
D03*
X0102159Y0125603D02*
D03*
X0103810Y0125603D02*
D03*
X0025400Y0024663D02*
D03*
X0023749Y0024663D02*
D03*
X0141732Y0102743D02*
D03*
X0143383Y0102743D02*
D03*
X0072695Y0103378D02*
D03*
X0074346Y0103378D02*
D03*
X0083058Y0097663D02*
D03*
X0081407Y0097663D02*
D03*
X0072771Y0097663D02*
D03*
X0071120Y0097663D02*
D03*
X0091999Y0107950D02*
D03*
X0093650Y0107950D02*
D03*
X0101219Y0100457D02*
D03*
X0099568Y0100457D02*
D03*
X0117983Y0122555D02*
D03*
X0116332Y0122555D02*
D03*
X0139827Y0057150D02*
D03*
X0138176Y0057150D02*
D03*
X0135128Y0057150D02*
D03*
X0136779Y0057150D02*
D03*
X0085674Y0069444D02*
D03*
X0087325Y0069444D02*
D03*
X0084455Y0068834D02*
D03*
X0079756Y0068961D02*
D03*
X0078105Y0068961D02*
D03*
X0032258Y0018669D02*
D03*
X0030607Y0028575D02*
D03*
X0082804Y0068834D02*
D03*
X0028956Y0028575D02*
D03*
X0148590Y0048260D02*
D03*
X0146939Y0048260D02*
D03*
X0078740Y0070231D02*
D03*
X0080391Y0070231D02*
D03*
X0077597Y0119380D02*
D03*
X0079248Y0119380D02*
D03*
X0151765Y0048133D02*
D03*
X0150114Y0048133D02*
D03*
X0039497Y0011049D02*
D03*
X0037846Y0011049D02*
D03*
X0161290Y0038608D02*
D03*
X0162941Y0038608D02*
D03*
X0170688Y0110617D02*
D03*
X0172339Y0110617D02*
D03*
X0175895Y0115824D02*
D03*
X0177546Y0115824D02*
D03*
X0017272Y0034798D02*
D03*
X0015621Y0034798D02*
D03*
D22*
X0185039Y0102616D02*
D03*
X0185039Y0106680D02*
D03*
X0178689Y0102616D02*
D03*
X0178689Y0106680D02*
D03*
X0197358Y0117221D02*
D03*
X0197358Y0113157D02*
D03*
D23*
X0099314Y0116205D02*
D03*
X0096520Y0116205D02*
D03*
X0150749Y0086360D02*
D03*
X0147955Y0086360D02*
D03*
X0010541Y0026797D02*
D03*
X0007747Y0026797D02*
D03*
X0168148Y0085979D02*
D03*
X0165354Y0085979D02*
D03*
D24*
X0193421Y0116459D02*
D03*
X0193421Y0111506D02*
D03*
D26*
X0149098Y0038735D02*
D03*
X0081610Y0061443D02*
D03*
X0085420Y0061443D02*
D03*
X0081610Y0067031D02*
D03*
X0087503Y0026416D02*
D03*
X0072339Y0032004D02*
D03*
X0060960Y0026416D02*
D03*
X0072339Y0026416D02*
D03*
X0076149Y0032004D02*
D03*
X0076149Y0026416D02*
D03*
X0117221Y0087884D02*
D03*
X0115951Y0087884D02*
D03*
X0114681Y0087884D02*
D03*
X0113411Y0087884D02*
D03*
X0113411Y0093472D02*
D03*
X0114681Y0093472D02*
D03*
X0115951Y0093472D02*
D03*
X0117221Y0093472D02*
D03*
X0149098Y0033147D02*
D03*
X0150368Y0033147D02*
D03*
X0151638Y0033147D02*
D03*
X0152908Y0033147D02*
D03*
X0152908Y0038735D02*
D03*
X0151638Y0038735D02*
D03*
X0150368Y0038735D02*
D03*
X0164084Y0038862D02*
D03*
X0165354Y0038862D02*
D03*
X0166624Y0038862D02*
D03*
X0167894Y0038862D02*
D03*
X0167894Y0033274D02*
D03*
X0166624Y0033274D02*
D03*
X0165354Y0033274D02*
D03*
X0164084Y0033274D02*
D03*
X0071069Y0026416D02*
D03*
X0073609Y0026416D02*
D03*
X0074879Y0026416D02*
D03*
X0077419Y0026416D02*
D03*
X0079959Y0026416D02*
D03*
X0079959Y0032004D02*
D03*
X0077419Y0032004D02*
D03*
X0074879Y0032004D02*
D03*
X0073609Y0032004D02*
D03*
X0071069Y0032004D02*
D03*
X0060960Y0032004D02*
D03*
X0064770Y0032004D02*
D03*
X0067310Y0032004D02*
D03*
X0067310Y0026416D02*
D03*
X0064770Y0026416D02*
D03*
X0062230Y0026416D02*
D03*
X0062230Y0032004D02*
D03*
X0063500Y0026416D02*
D03*
X0063500Y0032004D02*
D03*
X0066040Y0026416D02*
D03*
X0066040Y0032004D02*
D03*
X0059690Y0032004D02*
D03*
X0068580Y0032004D02*
D03*
X0068580Y0026416D02*
D03*
X0059690Y0026416D02*
D03*
X0108966Y0054737D02*
D03*
X0110236Y0054737D02*
D03*
X0111506Y0054737D02*
D03*
X0112776Y0054737D02*
D03*
X0112776Y0049149D02*
D03*
X0111506Y0049149D02*
D03*
X0110236Y0049149D02*
D03*
X0108966Y0049149D02*
D03*
X0082423Y0032004D02*
D03*
X0083693Y0032004D02*
D03*
X0084963Y0032004D02*
D03*
X0086233Y0032004D02*
D03*
X0087503Y0032004D02*
D03*
X0088773Y0032004D02*
D03*
X0090043Y0032004D02*
D03*
X0091313Y0032004D02*
D03*
X0091313Y0026416D02*
D03*
X0090043Y0026416D02*
D03*
X0088773Y0026416D02*
D03*
X0086233Y0026416D02*
D03*
X0084963Y0026416D02*
D03*
X0083693Y0026416D02*
D03*
X0082423Y0026416D02*
D03*
X0078689Y0032004D02*
D03*
X0078689Y0026416D02*
D03*
X0140335Y0110236D02*
D03*
X0141605Y0110236D02*
D03*
X0142875Y0110236D02*
D03*
X0144145Y0110236D02*
D03*
X0144145Y0104648D02*
D03*
X0142875Y0104648D02*
D03*
X0141605Y0104648D02*
D03*
X0140335Y0104648D02*
D03*
X0084150Y0067031D02*
D03*
X0085420Y0067031D02*
D03*
X0082880Y0061443D02*
D03*
X0077800Y0067031D02*
D03*
X0080340Y0067031D02*
D03*
X0080340Y0061443D02*
D03*
X0077800Y0061443D02*
D03*
X0079070Y0061443D02*
D03*
X0084150Y0061443D02*
D03*
X0082880Y0067031D02*
D03*
X0079070Y0067031D02*
D03*
X0129667Y0104648D02*
D03*
X0130937Y0104648D02*
D03*
X0132207Y0104648D02*
D03*
X0133477Y0104648D02*
D03*
X0133477Y0110236D02*
D03*
X0132207Y0110236D02*
D03*
X0130937Y0110236D02*
D03*
X0129667Y0110236D02*
D03*
D28*
X0163068Y0084328D02*
D03*
X0163068Y0087122D02*
D03*
D29*
X0144526Y0083947D02*
D03*
X0147320Y0083947D02*
D03*
D30*
X0140081Y0025781D02*
D03*
X0144653Y0025781D02*
D03*
X0142367Y0025781D02*
D03*
X0148971Y0018415D02*
D03*
X0151257Y0018415D02*
D03*
X0146685Y0018415D02*
D03*
X0130048Y0048768D02*
D03*
X0127762Y0048768D02*
D03*
X0125476Y0048768D02*
D03*
D35*
X0142367Y0019431D02*
D03*
X0148971Y0012065D02*
D03*
X0127762Y0042418D02*
D03*
D36*
X0034798Y0014732D02*
D03*
X0034798Y0010668D02*
D03*
X0074727Y0118745D02*
D03*
X0074727Y0116459D02*
D03*
X0074727Y0114173D02*
D03*
X0166116Y0083185D02*
D03*
X0166116Y0080899D02*
D03*
X0166116Y0078613D02*
D03*
X0112649Y0085344D02*
D03*
X0112649Y0083058D02*
D03*
X0112649Y0080772D02*
D03*
X0102362Y0085471D02*
D03*
X0102362Y0083185D02*
D03*
X0102362Y0080899D02*
D03*
X0130302Y0031750D02*
D03*
X0130302Y0034036D02*
D03*
X0130302Y0036322D02*
D03*
X0113030Y0057531D02*
D03*
X0113030Y0059817D02*
D03*
X0113030Y0062103D02*
D03*
X0027940Y0046482D02*
D03*
X0027940Y0042418D02*
D03*
X0030734Y0042418D02*
D03*
X0030734Y0046482D02*
D03*
X0182880Y0110998D02*
D03*
X0182880Y0113284D02*
D03*
X0182880Y0115570D02*
D03*
D40*
X0041402Y0026416D02*
D03*
X0041402Y0028956D02*
D03*
X0041402Y0031496D02*
D03*
X0041402Y0032766D02*
D03*
X0041402Y0027686D02*
D03*
X0046990Y0026416D02*
D03*
X0046990Y0027686D02*
D03*
X0046990Y0034036D02*
D03*
X0046990Y0032766D02*
D03*
X0046990Y0031496D02*
D03*
X0046990Y0030226D02*
D03*
X0046990Y0028956D02*
D03*
X0046990Y0025146D02*
D03*
X0041402Y0025146D02*
D03*
X0041402Y0030226D02*
D03*
X0040767Y0022987D02*
D03*
X0040767Y0021717D02*
D03*
X0040767Y0020447D02*
D03*
X0040767Y0014097D02*
D03*
X0046355Y0014097D02*
D03*
X0046355Y0017907D02*
D03*
X0046355Y0019177D02*
D03*
X0046355Y0020447D02*
D03*
X0046355Y0021717D02*
D03*
X0046355Y0022987D02*
D03*
X0046355Y0016637D02*
D03*
X0046355Y0015367D02*
D03*
X0040767Y0019177D02*
D03*
X0040767Y0017907D02*
D03*
X0040767Y0016637D02*
D03*
X0048006Y0116840D02*
D03*
X0042418Y0113030D02*
D03*
X0042418Y0115570D02*
D03*
X0042418Y0116840D02*
D03*
X0088062Y0124460D02*
D03*
X0088062Y0123190D02*
D03*
X0088062Y0120650D02*
D03*
X0082474Y0120650D02*
D03*
X0082474Y0121920D02*
D03*
X0082474Y0123190D02*
D03*
X0082474Y0124460D02*
D03*
X0079807Y0125730D02*
D03*
X0079807Y0124460D02*
D03*
X0079807Y0121920D02*
D03*
X0074219Y0121920D02*
D03*
X0074219Y0123190D02*
D03*
X0074219Y0124460D02*
D03*
X0074219Y0125730D02*
D03*
X0040767Y0015367D02*
D03*
X0048006Y0113030D02*
D03*
X0042418Y0114300D02*
D03*
X0048006Y0115570D02*
D03*
X0041402Y0034036D02*
D03*
X0048006Y0114300D02*
D03*
X0088062Y0121920D02*
D03*
X0079807Y0123190D02*
D03*
D43*
X0117297Y0107569D02*
D03*
X0117297Y0113030D02*
D03*
X0117297Y0118237D02*
D03*
X0131521Y0090551D02*
D03*
X0129362Y0082931D02*
D03*
X0156007Y0076454D02*
D03*
X0143713Y0013589D02*
D03*
X0136474Y0023876D02*
D03*
X0139268Y0014351D02*
D03*
X0131623Y0026035D02*
D03*
D44*
X0110744Y0120650D02*
D03*
X0110744Y0122555D02*
D03*
X0147066Y0114046D02*
D03*
X0147066Y0112141D02*
D03*
X0142113Y0112903D02*
D03*
X0140208Y0112903D02*
D03*
X0131572Y0113030D02*
D03*
X0129667Y0113030D02*
D03*
X0124587Y0022606D02*
D03*
X0124587Y0020701D02*
D03*
X0107696Y0106172D02*
D03*
X0107696Y0104267D02*
D03*
X0116332Y0109601D02*
D03*
X0118237Y0109601D02*
D03*
X0116332Y0115062D02*
D03*
X0118237Y0115062D02*
D03*
X0116332Y0120269D02*
D03*
X0118237Y0120269D02*
D03*
X0132461Y0092583D02*
D03*
X0130556Y0092583D02*
D03*
X0130302Y0084963D02*
D03*
X0128397Y0084963D02*
D03*
X0156972Y0074422D02*
D03*
X0155067Y0074422D02*
D03*
X0149860Y0078613D02*
D03*
X0149860Y0076708D02*
D03*
X0144653Y0015621D02*
D03*
X0142748Y0015621D02*
D03*
X0137414Y0025908D02*
D03*
X0135509Y0025908D02*
D03*
X0138303Y0016383D02*
D03*
X0140208Y0016383D02*
D03*
X0132588Y0024003D02*
D03*
X0130683Y0024003D02*
D03*
X0099619Y0103505D02*
D03*
X0099619Y0105410D02*
D03*
X0087300Y0105410D02*
D03*
X0087300Y0103505D02*
D03*
X0092634Y0105410D02*
D03*
X0092634Y0103505D02*
D03*
X0078664Y0107950D02*
D03*
X0078664Y0106045D02*
D03*
X0096266Y0105283D02*
D03*
X0096266Y0103378D02*
D03*
X0054483Y0116332D02*
D03*
X0056388Y0116332D02*
D03*
X0059944Y0121285D02*
D03*
X0061849Y0121285D02*
D03*
X0172085Y0114173D02*
D03*
X0173990Y0114173D02*
D03*
X0175641Y0113411D02*
D03*
X0175641Y0111506D02*
D03*
X0168275Y0114173D02*
D03*
X0170180Y0114173D02*
D03*
D46*
X0179578Y0078486D02*
D03*
X0179578Y0084074D02*
D03*
X0183642Y0084074D02*
D03*
X0183642Y0078486D02*
D03*
X0172974Y0100584D02*
D03*
X0172974Y0106172D02*
D03*
X0168910Y0100584D02*
D03*
X0168910Y0106172D02*
D03*
X0190373Y0084201D02*
D03*
X0190373Y0078613D02*
D03*
X0194437Y0084201D02*
D03*
X0194437Y0078613D02*
D03*
D48*
X0122936Y0043053D02*
D03*
X0120904Y0043053D02*
D03*
D51*
X0043561Y0004572D02*
D03*
X0047371Y0004572D02*
D03*
X0048641Y0004572D02*
D03*
X0049911Y0004572D02*
D03*
X0051181Y0004572D02*
D03*
X0052451Y0004572D02*
D03*
X0053721Y0004572D02*
D03*
X0054991Y0004572D02*
D03*
X0058801Y0004572D02*
D03*
X0060071Y0004572D02*
D03*
X0061341Y0004572D02*
D03*
X0062611Y0004572D02*
D03*
X0063881Y0004572D02*
D03*
X0065151Y0004572D02*
D03*
X0066421Y0004572D02*
D03*
X0067691Y0004572D02*
D03*
X0068961Y0004572D02*
D03*
X0070231Y0004572D02*
D03*
X0071501Y0004572D02*
D03*
X0072771Y0004572D02*
D03*
X0074041Y0004572D02*
D03*
X0075311Y0004572D02*
D03*
X0076581Y0004572D02*
D03*
X0077851Y0004572D02*
D03*
X0079121Y0004572D02*
D03*
X0080391Y0004572D02*
D03*
X0081661Y0004572D02*
D03*
X0082931Y0004572D02*
D03*
X0084201Y0004572D02*
D03*
X0085471Y0004572D02*
D03*
X0086741Y0004572D02*
D03*
X0088011Y0004572D02*
D03*
X0089281Y0004572D02*
D03*
X0090551Y0004572D02*
D03*
X0091821Y0004572D02*
D03*
X0093091Y0004572D02*
D03*
X0094361Y0004572D02*
D03*
X0095631Y0004572D02*
D03*
X0096901Y0004572D02*
D03*
X0098171Y0004572D02*
D03*
X0099441Y0004572D02*
D03*
X0100711Y0004572D02*
D03*
X0101981Y0004572D02*
D03*
X0103251Y0004572D02*
D03*
X0107061Y0004572D02*
D03*
X0108331Y0004572D02*
D03*
X0109601Y0004572D02*
D03*
X0110871Y0004572D02*
D03*
X0112141Y0004572D02*
D03*
X0113411Y0004572D02*
D03*
X0114681Y0004572D02*
D03*
X0115951Y0004572D02*
D03*
X0117221Y0004572D02*
D03*
X0118491Y0004572D02*
D03*
X0119761Y0004572D02*
D03*
X0042291Y0004572D02*
D03*
X0044831Y0004572D02*
D03*
X0046101Y0004572D02*
D03*
D98*
X0013310Y0046634D02*
D03*
D99*
X0001448Y0027686D02*
D03*
D100*
X0112776Y0121615D02*
D03*
X0145034Y0113081D02*
D03*
X0094234Y0104318D02*
D03*
X0177673Y0112471D02*
D03*
D101*
X0141148Y0114935D02*
D03*
X0130607Y0115062D02*
D03*
X0055448Y0114300D02*
D03*
X0060884Y0123317D02*
D03*
X0173050Y0112141D02*
D03*
X0169240Y0112141D02*
D03*
D102*
X0135585Y0111125D02*
D03*
X0137287Y0110490D02*
D03*
X0137287Y0111760D02*
D03*
X0126111Y0111811D02*
D03*
X0125476Y0110109D02*
D03*
X0126746Y0110109D02*
D03*
X0136195Y0089154D02*
D03*
X0134493Y0089789D02*
D03*
X0134493Y0088519D02*
D03*
X0136195Y0092329D02*
D03*
X0134493Y0092964D02*
D03*
X0134493Y0091694D02*
D03*
X0155448Y0078562D02*
D03*
X0156083Y0080264D02*
D03*
X0154813Y0080264D02*
D03*
X0152654Y0078435D02*
D03*
X0153289Y0080137D02*
D03*
X0152019Y0080137D02*
D03*
X0178003Y0035306D02*
D03*
X0179705Y0034671D02*
D03*
X0179705Y0035941D02*
D03*
X0170002Y0033909D02*
D03*
X0171704Y0033274D02*
D03*
X0171704Y0034544D02*
D03*
X0155575Y0032461D02*
D03*
X0156210Y0034163D02*
D03*
X0154940Y0034163D02*
D03*
X0173812Y0035306D02*
D03*
X0175514Y0034671D02*
D03*
X0175514Y0035941D02*
D03*
X0182067Y0035306D02*
D03*
X0183769Y0034671D02*
D03*
X0183769Y0035941D02*
D03*
X0138862Y0038608D02*
D03*
X0137160Y0039243D02*
D03*
X0137160Y0037973D02*
D03*
X0144704Y0038608D02*
D03*
X0143002Y0039243D02*
D03*
X0143002Y0037973D02*
D03*
X0147625Y0038608D02*
D03*
X0145923Y0039243D02*
D03*
X0145923Y0037973D02*
D03*
X0141783Y0038608D02*
D03*
X0140081Y0039243D02*
D03*
X0140081Y0037973D02*
D03*
X0094158Y0118567D02*
D03*
X0094793Y0120269D02*
D03*
X0093523Y0120269D02*
D03*
X0097155Y0118567D02*
D03*
X0097790Y0120269D02*
D03*
X0096520Y0120269D02*
D03*
X0028372Y0033655D02*
D03*
X0026670Y0034290D02*
D03*
X0026670Y0033020D02*
D03*
X0032309Y0033655D02*
D03*
X0030607Y0034290D02*
D03*
X0030607Y0033020D02*
D03*
X0178689Y0025476D02*
D03*
X0179324Y0027178D02*
D03*
X0178054Y0027178D02*
D03*
X0045212Y0050622D02*
D03*
X0045847Y0052324D02*
D03*
X0044577Y0052324D02*
D03*
X0180899Y0115316D02*
D03*
X0179197Y0115951D02*
D03*
X0179197Y0114681D02*
D03*
D103*
X0141097Y0120523D02*
D03*
X0145161Y0120523D02*
D03*
X0134366Y0120523D02*
D03*
X0130302Y0120523D02*
D03*
D104*
X0068377Y0116459D02*
D03*
X0172466Y0080899D02*
D03*
X0118999Y0083058D02*
D03*
X0108712Y0083185D02*
D03*
X0123952Y0034036D02*
D03*
X0106680Y0059817D02*
D03*
X0189230Y0113284D02*
D03*
D105*
X0126619Y0021666D02*
D03*
X0109728Y0105232D02*
D03*
X0147828Y0077648D02*
D03*
X0101651Y0104470D02*
D03*
X0085268Y0104445D02*
D03*
X0090602Y0104445D02*
D03*
X0076632Y0106985D02*
D03*
D106*
X0190754Y0099441D02*
D03*
X0196342Y0099441D02*
D03*
X0190754Y0103505D02*
D03*
X0196342Y0103505D02*
D03*
X0159385Y0133350D02*
D03*
X0164973Y0133350D02*
D03*
X0155067Y0133350D02*
D03*
X0149479Y0133350D02*
D03*
D107*
X0003962Y0017018D02*
D03*
X0005232Y0017018D02*
D03*
X0006502Y0017018D02*
D03*
X0007772Y0017018D02*
D03*
X0007772Y0022606D02*
D03*
X0006502Y0022606D02*
D03*
X0005232Y0022606D02*
D03*
X0003962Y0022606D02*
D03*
X0011836Y0022606D02*
D03*
X0013106Y0022606D02*
D03*
X0014376Y0022606D02*
D03*
X0015646Y0022606D02*
D03*
X0015646Y0017018D02*
D03*
X0014376Y0017018D02*
D03*
X0013106Y0017018D02*
D03*
X0011836Y0017018D02*
D03*
D108*
X0109779Y0116840D02*
D03*
X0109779Y0111252D02*
D03*
D109*
X0109779Y0108712D02*
D03*
X0109779Y0114300D02*
D03*
X0104699Y0114300D02*
D03*
X0104699Y0108712D02*
D03*
X0104699Y0116840D02*
D03*
X0104699Y0111252D02*
D03*
D110*
X0005842Y0019634D02*
D03*
X0013741Y0019634D02*
D03*
M02*
