%FSAX43Y43*%
%MOMM*%
G71*
G01*
G75*
%ADD10R,11.430X1.524*%
%ADD11R,30.480X1.524*%
%ADD12R,1.524X0.305*%
%ADD13R,0.305X1.524*%
%ADD14R,1.524X1.270*%
%ADD15R,0.762X0.889*%
%ADD16O,0.432X1.524*%
%ADD17R,0.432X1.524*%
%ADD18R,1.778X2.286*%
%ADD19R,1.270X1.143*%
%ADD20R,1.524X3.048*%
%ADD21R,0.889X0.762*%
%ADD22R,3.048X1.524*%
%ADD23R,1.270X1.524*%
%ADD24R,2.286X1.778*%
%ADD25R,1.524X0.508*%
%ADD26O,0.610X2.032*%
%ADD27R,1.143X1.270*%
%ADD28R,1.778X1.524*%
%ADD29R,1.524X1.778*%
%ADD30R,1.524X2.032*%
%ADD31R,2.540X0.610*%
%ADD32O,2.540X0.610*%
%ADD33O,1.778X3.048*%
%ADD34R,5.588X6.350*%
%ADD35R,3.810X2.032*%
%ADD36R,2.032X1.524*%
%ADD37R,1.727X1.219*%
%ADD38O,1.727X1.219*%
%ADD39O,2.540X1.270*%
%ADD40O,2.032X0.610*%
%ADD41R,15.240X5.080*%
%ADD42R,2.540X1.778*%
%ADD43R,0.914X1.270*%
%ADD44R,0.914X0.914*%
%ADD45R,1.778X2.540*%
%ADD46R,3.048X2.286*%
%ADD47R,1.270X1.016*%
%ADD48R,1.016X1.270*%
%ADD49R,1.780X0.420*%
%ADD50R,1.780X0.420*%
%ADD51O,1.016X5.080*%
%ADD52O,2.032X0.762*%
%ADD53R,1.727X1.829*%
%ADD54R,1.778X0.508*%
%ADD55R,2.540X0.635*%
%ADD56R,0.508X1.524*%
%ADD57R,0.508X1.778*%
%ADD58R,0.610X2.032*%
%ADD59R,2.032X0.610*%
%ADD60R,21.590X1.524*%
%ADD61R,1.524X14.859*%
%ADD62O,8.636X8.382*%
%ADD63R,7.874X6.096*%
%ADD64R,1.727X0.813*%
%ADD65C,0.203*%
%ADD66C,0.356*%
%ADD67C,0.457*%
%ADD68C,0.305*%
%ADD69C,1.270*%
%ADD70C,0.508*%
%ADD71C,0.406*%
%ADD72C,0.635*%
%ADD73C,0.381*%
%ADD74C,0.584*%
%ADD75C,0.254*%
%ADD76C,0.813*%
%ADD77C,0.711*%
%ADD78C,0.889*%
%ADD79R,25.146X25.400*%
%ADD80R,1.397X0.635*%
%ADD81C,1.270*%
%ADD82C,1.651*%
%ADD83C,1.524*%
%ADD84R,1.270X1.270*%
%ADD85C,1.626*%
%ADD86C,3.302*%
%ADD87R,10.160X7.620*%
%ADD88C,2.286*%
%ADD89C,6.350*%
%ADD90C,1.930*%
%ADD91C,5.842*%
%ADD92C,1.905*%
%ADD93R,1.905X1.905*%
%ADD94C,1.575*%
%ADD95C,1.727*%
%ADD96R,1.727X1.727*%
%ADD97C,0.813*%
%ADD98R,24.130X1.524*%
%ADD99R,2.032X30.480*%
%ADD100R,1.016X0.914*%
%ADD101R,0.914X1.016*%
%ADD102R,0.762X0.762*%
%ADD103R,1.829X1.727*%
%ADD104R,2.032X3.810*%
%ADD105R,1.270X0.914*%
%ADD106R,2.286X3.048*%
%ADD107O,0.762X2.032*%
%ADD108R,1.194X0.787*%
%ADD109O,1.194X0.787*%
%ADD110R,5.080X2.032*%
%ADD111R,1.270X2.794*%
%ADD112R,1.270X3.048*%
D11*
X0016256Y0009627D02*
D03*
D14*
X0137922Y0124206D02*
D03*
X0137922Y0121412D02*
D03*
X0139573Y0089789D02*
D03*
X0139573Y0086995D02*
D03*
X0057023Y0118491D02*
D03*
X0057023Y0121285D02*
D03*
X0052324Y0118491D02*
D03*
X0052324Y0121285D02*
D03*
D15*
X0109220Y0120904D02*
D03*
X0109220Y0122555D02*
D03*
X0143637Y0112395D02*
D03*
X0143637Y0114046D02*
D03*
X0124079Y0123444D02*
D03*
X0124079Y0121793D02*
D03*
X0006223Y0026924D02*
D03*
X0006223Y0028575D02*
D03*
X0034544Y0026035D02*
D03*
X0034544Y0027686D02*
D03*
X0081407Y0059436D02*
D03*
X0081407Y0057785D02*
D03*
X0160401Y0089154D02*
D03*
X0160401Y0090805D02*
D03*
X0082804Y0071755D02*
D03*
X0082804Y0070104D02*
D03*
X0175768Y0102489D02*
D03*
X0175768Y0104140D02*
D03*
X0120828Y0108458D02*
D03*
X0120828Y0106807D02*
D03*
X0120828Y0113411D02*
D03*
X0120828Y0111760D02*
D03*
X0120828Y0116459D02*
D03*
X0120828Y0114808D02*
D03*
X0120828Y0122301D02*
D03*
X0120828Y0120650D02*
D03*
X0111252Y0105918D02*
D03*
X0041910Y0038100D02*
D03*
X0041910Y0036449D02*
D03*
X0029083Y0019126D02*
D03*
X0029083Y0020777D02*
D03*
X0025146Y0027940D02*
D03*
X0025146Y0026289D02*
D03*
X0026416Y0026289D02*
D03*
X0026416Y0027940D02*
D03*
X0027686Y0024384D02*
D03*
X0027686Y0026035D02*
D03*
X0164338Y0081280D02*
D03*
X0131699Y0083058D02*
D03*
X0131699Y0081407D02*
D03*
X0146050Y0077597D02*
D03*
X0146050Y0075946D02*
D03*
X0158242Y0077597D02*
D03*
X0158242Y0079248D02*
D03*
X0110871Y0083312D02*
D03*
X0125222Y0080264D02*
D03*
X0125222Y0078613D02*
D03*
X0132969Y0081534D02*
D03*
X0132969Y0079883D02*
D03*
X0162306Y0072390D02*
D03*
X0162306Y0074041D02*
D03*
X0163830Y0072390D02*
D03*
X0163830Y0074041D02*
D03*
X0160909Y0073660D02*
D03*
X0160909Y0075311D02*
D03*
X0165227Y0073660D02*
D03*
X0165227Y0075311D02*
D03*
X0165227Y0063627D02*
D03*
X0165227Y0061976D02*
D03*
X0160909Y0063627D02*
D03*
X0160909Y0061976D02*
D03*
X0179578Y0040386D02*
D03*
X0179578Y0038735D02*
D03*
X0141478Y0015621D02*
D03*
X0141478Y0013970D02*
D03*
X0179705Y0029972D02*
D03*
X0179705Y0031623D02*
D03*
X0134112Y0024257D02*
D03*
X0134112Y0025908D02*
D03*
X0169418Y0035814D02*
D03*
X0169418Y0037465D02*
D03*
X0154686Y0035560D02*
D03*
X0154686Y0037211D02*
D03*
X0179578Y0043180D02*
D03*
X0179578Y0044831D02*
D03*
X0160147Y0042418D02*
D03*
X0160147Y0044069D02*
D03*
X0156845Y0050673D02*
D03*
X0156845Y0052324D02*
D03*
X0137541Y0043815D02*
D03*
X0137541Y0045466D02*
D03*
X0185420Y0039624D02*
D03*
X0185420Y0037973D02*
D03*
X0186817Y0039624D02*
D03*
X0186817Y0037973D02*
D03*
X0161671Y0037084D02*
D03*
X0161671Y0035433D02*
D03*
X0159131Y0037084D02*
D03*
X0159131Y0035433D02*
D03*
X0141478Y0050165D02*
D03*
X0141478Y0048514D02*
D03*
X0139700Y0046990D02*
D03*
X0139700Y0045339D02*
D03*
X0154048Y0047498D02*
D03*
X0154048Y0045847D02*
D03*
X0152651Y0044704D02*
D03*
X0152651Y0043053D02*
D03*
X0147447Y0053848D02*
D03*
X0147447Y0055499D02*
D03*
X0115951Y0071755D02*
D03*
X0115951Y0070104D02*
D03*
X0122301Y0054356D02*
D03*
X0122301Y0056007D02*
D03*
X0116586Y0045339D02*
D03*
X0116586Y0046990D02*
D03*
X0101092Y0041402D02*
D03*
X0101092Y0039751D02*
D03*
X0027813Y0056007D02*
D03*
X0027813Y0057658D02*
D03*
X0062230Y0060960D02*
D03*
X0062230Y0059309D02*
D03*
X0089154Y0060071D02*
D03*
X0089154Y0061722D02*
D03*
X0063881Y0035814D02*
D03*
X0063881Y0037465D02*
D03*
X0062230Y0070485D02*
D03*
X0062230Y0068834D02*
D03*
X0062230Y0076962D02*
D03*
X0062230Y0075311D02*
D03*
X0072136Y0082931D02*
D03*
X0072136Y0084582D02*
D03*
X0062230Y0056007D02*
D03*
X0062230Y0057658D02*
D03*
X0062230Y0079248D02*
D03*
X0062230Y0080899D02*
D03*
X0091567Y0078740D02*
D03*
X0091567Y0080391D02*
D03*
X0091567Y0054991D02*
D03*
X0091567Y0056642D02*
D03*
X0062230Y0062611D02*
D03*
X0062230Y0064262D02*
D03*
X0062230Y0067310D02*
D03*
X0062230Y0065659D02*
D03*
X0091567Y0074041D02*
D03*
X0091567Y0075692D02*
D03*
X0091567Y0067183D02*
D03*
X0091567Y0068834D02*
D03*
X0091567Y0063373D02*
D03*
X0091567Y0065024D02*
D03*
X0062230Y0073660D02*
D03*
X0062230Y0072009D02*
D03*
X0061722Y0040259D02*
D03*
X0061722Y0038608D02*
D03*
X0061722Y0041529D02*
D03*
X0061722Y0043180D02*
D03*
X0119634Y0012573D02*
D03*
X0119634Y0010922D02*
D03*
X0031623Y0058166D02*
D03*
X0031623Y0056515D02*
D03*
X0027813Y0049276D02*
D03*
X0027813Y0050927D02*
D03*
X0031623Y0049784D02*
D03*
X0031623Y0051435D02*
D03*
X0055626Y0048006D02*
D03*
X0055626Y0049657D02*
D03*
X0047117Y0050546D02*
D03*
X0047117Y0052197D02*
D03*
X0082296Y0049022D02*
D03*
X0082296Y0050673D02*
D03*
X0083693Y0049022D02*
D03*
X0083693Y0050673D02*
D03*
X0084963Y0050673D02*
D03*
X0084963Y0049022D02*
D03*
X0086233Y0049022D02*
D03*
X0086233Y0050673D02*
D03*
X0087503Y0049022D02*
D03*
X0087503Y0050673D02*
D03*
X0088773Y0050673D02*
D03*
X0088773Y0049022D02*
D03*
X0081153Y0026924D02*
D03*
X0081153Y0025273D02*
D03*
X0069799Y0026924D02*
D03*
X0069799Y0025273D02*
D03*
X0094869Y0033147D02*
D03*
X0094869Y0034798D02*
D03*
X0100711Y0047879D02*
D03*
X0100711Y0049530D02*
D03*
X0122555Y0039624D02*
D03*
X0122555Y0037973D02*
D03*
X0132207Y0053086D02*
D03*
X0132207Y0054737D02*
D03*
X0125222Y0054229D02*
D03*
X0125222Y0055880D02*
D03*
X0126492Y0054229D02*
D03*
X0126492Y0055880D02*
D03*
X0127762Y0054229D02*
D03*
X0127762Y0055880D02*
D03*
X0119888Y0056007D02*
D03*
X0119888Y0054356D02*
D03*
X0147447Y0032512D02*
D03*
X0147447Y0030861D02*
D03*
X0110871Y0084963D02*
D03*
X0112014Y0092075D02*
D03*
X0112014Y0090424D02*
D03*
X0164338Y0082931D02*
D03*
X0116205Y0058293D02*
D03*
X0116205Y0056642D02*
D03*
X0114300Y0052578D02*
D03*
X0114300Y0050927D02*
D03*
X0003454Y0028575D02*
D03*
X0003454Y0026924D02*
D03*
X0054102Y0105410D02*
D03*
X0054102Y0107061D02*
D03*
X0039624Y0105410D02*
D03*
X0039624Y0107061D02*
D03*
X0052070Y0112776D02*
D03*
X0052070Y0114427D02*
D03*
X0039497Y0112903D02*
D03*
X0039497Y0114554D02*
D03*
X0103175Y0105029D02*
D03*
X0103175Y0103378D02*
D03*
X0098095Y0105029D02*
D03*
X0098095Y0103378D02*
D03*
X0083744Y0105029D02*
D03*
X0083744Y0103378D02*
D03*
X0088951Y0105029D02*
D03*
X0088951Y0103378D02*
D03*
X0077267Y0111760D02*
D03*
X0077267Y0113411D02*
D03*
X0072060Y0124333D02*
D03*
X0072060Y0125984D02*
D03*
X0076632Y0116459D02*
D03*
X0076632Y0114808D02*
D03*
X0111252Y0107569D02*
D03*
X0087198Y0063475D02*
D03*
X0087198Y0065126D02*
D03*
X0087071Y0066523D02*
D03*
X0087071Y0068174D02*
D03*
X0084582Y0070104D02*
D03*
X0082779Y0059512D02*
D03*
X0082779Y0057861D02*
D03*
X0084201Y0057912D02*
D03*
X0084582Y0071755D02*
D03*
X0084201Y0059563D02*
D03*
X0085471Y0057912D02*
D03*
X0085471Y0059563D02*
D03*
X0038227Y0114554D02*
D03*
X0038227Y0112903D02*
D03*
X0143510Y0047688D02*
D03*
X0143510Y0049340D02*
D03*
X0142494Y0048260D02*
D03*
X0142494Y0046609D02*
D03*
X0116078Y0012573D02*
D03*
X0116078Y0010922D02*
D03*
X0145412Y0053467D02*
D03*
X0145412Y0051816D02*
D03*
X0028956Y0025400D02*
D03*
X0028956Y0027051D02*
D03*
X0037973Y0118491D02*
D03*
X0037973Y0116840D02*
D03*
X0060071Y0116078D02*
D03*
X0060071Y0117729D02*
D03*
X0180340Y0112395D02*
D03*
X0180340Y0110744D02*
D03*
X0004826Y0028575D02*
D03*
X0004826Y0026924D02*
D03*
X0009271Y0017272D02*
D03*
X0009271Y0015621D02*
D03*
X0009271Y0018542D02*
D03*
X0009271Y0020193D02*
D03*
X0010414Y0017272D02*
D03*
X0010414Y0015621D02*
D03*
X0010414Y0020193D02*
D03*
X0010414Y0018542D02*
D03*
X0019558Y0033147D02*
D03*
X0019558Y0034798D02*
D03*
X0021336Y0033147D02*
D03*
X0021336Y0034798D02*
D03*
X0014224Y0034798D02*
D03*
X0014224Y0033147D02*
D03*
D21*
X0111252Y0124079D02*
D03*
X0112903Y0124079D02*
D03*
X0116459Y0124460D02*
D03*
X0118110Y0124460D02*
D03*
X0138049Y0108077D02*
D03*
X0136398Y0108077D02*
D03*
X0131953Y0115443D02*
D03*
X0133604Y0115443D02*
D03*
X0144145Y0115570D02*
D03*
X0142494Y0115570D02*
D03*
X0136398Y0113284D02*
D03*
X0138049Y0113284D02*
D03*
X0138049Y0114554D02*
D03*
X0136398Y0114554D02*
D03*
X0127381Y0113284D02*
D03*
X0125730Y0113284D02*
D03*
X0127381Y0114554D02*
D03*
X0125730Y0114554D02*
D03*
X0010033Y0029159D02*
D03*
X0008382Y0029159D02*
D03*
X0098425Y0031115D02*
D03*
X0096774Y0031115D02*
D03*
X0174371Y0042545D02*
D03*
X0172720Y0042545D02*
D03*
X0168275Y0045085D02*
D03*
X0169926Y0045085D02*
D03*
X0165481Y0043053D02*
D03*
X0163830Y0043053D02*
D03*
X0168275Y0042545D02*
D03*
X0169926Y0042545D02*
D03*
X0165608Y0041529D02*
D03*
X0163957Y0041529D02*
D03*
X0172339Y0045085D02*
D03*
X0173990Y0045085D02*
D03*
X0165481Y0045847D02*
D03*
X0163830Y0045847D02*
D03*
X0163830Y0044450D02*
D03*
X0165481Y0044450D02*
D03*
X0161671Y0039751D02*
D03*
X0033020Y0027559D02*
D03*
X0083693Y0119380D02*
D03*
X0085344Y0119380D02*
D03*
X0031369Y0027559D02*
D03*
X0152400Y0084328D02*
D03*
X0150749Y0084328D02*
D03*
X0141224Y0090170D02*
D03*
X0142875Y0090170D02*
D03*
X0194437Y0106045D02*
D03*
X0192786Y0106045D02*
D03*
X0074422Y0084455D02*
D03*
X0076073Y0084455D02*
D03*
X0117983Y0106045D02*
D03*
X0116332Y0106045D02*
D03*
X0117983Y0111506D02*
D03*
X0116332Y0111506D02*
D03*
X0117983Y0116586D02*
D03*
X0116332Y0116586D02*
D03*
X0135128Y0029210D02*
D03*
X0136779Y0029210D02*
D03*
X0073304Y0100406D02*
D03*
X0074955Y0100406D02*
D03*
X0030607Y0018669D02*
D03*
X0074930Y0056007D02*
D03*
X0076581Y0056007D02*
D03*
X0079375Y0053721D02*
D03*
X0077724Y0053721D02*
D03*
X0129286Y0091440D02*
D03*
X0127635Y0091440D02*
D03*
X0133096Y0086995D02*
D03*
X0131445Y0086995D02*
D03*
X0131445Y0088138D02*
D03*
X0133096Y0088138D02*
D03*
X0149479Y0075057D02*
D03*
X0147828Y0075057D02*
D03*
X0149860Y0080137D02*
D03*
X0148209Y0080137D02*
D03*
X0120396Y0089535D02*
D03*
X0122047Y0089535D02*
D03*
X0121158Y0087249D02*
D03*
X0122809Y0087249D02*
D03*
X0127508Y0087249D02*
D03*
X0129159Y0087249D02*
D03*
X0126365Y0089535D02*
D03*
X0128016Y0089535D02*
D03*
X0122555Y0081534D02*
D03*
X0124206Y0081534D02*
D03*
X0145669Y0078867D02*
D03*
X0144018Y0078867D02*
D03*
X0144526Y0076835D02*
D03*
X0142875Y0076835D02*
D03*
X0145669Y0070866D02*
D03*
X0144018Y0070866D02*
D03*
X0144526Y0068834D02*
D03*
X0142875Y0068834D02*
D03*
X0160020Y0070612D02*
D03*
X0161671Y0070612D02*
D03*
X0166116Y0070612D02*
D03*
X0164465Y0070612D02*
D03*
X0162306Y0068580D02*
D03*
X0163957Y0068580D02*
D03*
X0139065Y0017780D02*
D03*
X0137414Y0017780D02*
D03*
X0138938Y0042037D02*
D03*
X0137287Y0042037D02*
D03*
X0181610Y0031496D02*
D03*
X0183261Y0031496D02*
D03*
X0161671Y0040894D02*
D03*
X0160020Y0040894D02*
D03*
X0160020Y0039751D02*
D03*
X0165735Y0031242D02*
D03*
X0164084Y0031242D02*
D03*
X0150749Y0031242D02*
D03*
X0149098Y0031242D02*
D03*
X0180721Y0045847D02*
D03*
X0182372Y0045847D02*
D03*
X0172339Y0046609D02*
D03*
X0173990Y0046609D02*
D03*
X0160147Y0045847D02*
D03*
X0161798Y0045847D02*
D03*
X0155448Y0054229D02*
D03*
X0157099Y0054229D02*
D03*
X0169926Y0041021D02*
D03*
X0171577Y0041021D02*
D03*
X0164973Y0029972D02*
D03*
X0166624Y0029972D02*
D03*
X0141983Y0054864D02*
D03*
X0140332Y0054864D02*
D03*
X0142999Y0053213D02*
D03*
X0141348Y0053213D02*
D03*
X0140205Y0051562D02*
D03*
X0141856Y0051562D02*
D03*
X0138808Y0053594D02*
D03*
X0137157Y0053594D02*
D03*
X0137792Y0054737D02*
D03*
X0136141Y0054737D02*
D03*
X0112014Y0074422D02*
D03*
X0113665Y0074422D02*
D03*
X0112014Y0075692D02*
D03*
X0113665Y0075692D02*
D03*
X0110109Y0078359D02*
D03*
X0111760Y0078359D02*
D03*
X0106807Y0078359D02*
D03*
X0108458Y0078359D02*
D03*
X0113284Y0078359D02*
D03*
X0114935Y0078359D02*
D03*
X0110236Y0067564D02*
D03*
X0111887Y0067564D02*
D03*
X0107061Y0067564D02*
D03*
X0108712Y0067564D02*
D03*
X0123571Y0052197D02*
D03*
X0121920Y0052197D02*
D03*
X0119761Y0050800D02*
D03*
X0121412Y0050800D02*
D03*
X0120523Y0051943D02*
D03*
X0118872Y0051943D02*
D03*
X0116586Y0050800D02*
D03*
X0118237Y0050800D02*
D03*
X0119888Y0044577D02*
D03*
X0121539Y0044577D02*
D03*
X0122555Y0041656D02*
D03*
X0120904Y0041656D02*
D03*
X0115189Y0046101D02*
D03*
X0113538Y0046101D02*
D03*
X0115697Y0033147D02*
D03*
X0117348Y0033147D02*
D03*
X0086614Y0041529D02*
D03*
X0084963Y0041529D02*
D03*
X0045847Y0086995D02*
D03*
X0044196Y0086995D02*
D03*
X0069215Y0011049D02*
D03*
X0067564Y0011049D02*
D03*
X0088011Y0011049D02*
D03*
X0086360Y0011049D02*
D03*
X0044069Y0079375D02*
D03*
X0045720Y0079375D02*
D03*
X0053594Y0011049D02*
D03*
X0055245Y0011049D02*
D03*
X0062738Y0020320D02*
D03*
X0061087Y0020320D02*
D03*
X0085217Y0083820D02*
D03*
X0083566Y0083820D02*
D03*
X0069977Y0053721D02*
D03*
X0068326Y0053721D02*
D03*
X0070612Y0083058D02*
D03*
X0068961Y0083058D02*
D03*
X0078232Y0083058D02*
D03*
X0076581Y0083058D02*
D03*
X0080264Y0083058D02*
D03*
X0081915Y0083058D02*
D03*
X0082296Y0056007D02*
D03*
X0083947Y0056007D02*
D03*
X0070866Y0056007D02*
D03*
X0072517Y0056007D02*
D03*
X0072898Y0045212D02*
D03*
X0071247Y0045212D02*
D03*
X0077724Y0045212D02*
D03*
X0079375Y0045212D02*
D03*
X0086868Y0045339D02*
D03*
X0085217Y0045339D02*
D03*
X0076073Y0045212D02*
D03*
X0074422Y0045212D02*
D03*
X0085344Y0020193D02*
D03*
X0086995Y0020193D02*
D03*
X0077343Y0020320D02*
D03*
X0078994Y0020320D02*
D03*
X0072263Y0020320D02*
D03*
X0073914Y0020320D02*
D03*
X0076962Y0011049D02*
D03*
X0075311Y0011049D02*
D03*
X0099822Y0011049D02*
D03*
X0098171Y0011049D02*
D03*
X0048895Y0010922D02*
D03*
X0047244Y0010922D02*
D03*
X0059817Y0011049D02*
D03*
X0061468Y0011049D02*
D03*
X0054229Y0052832D02*
D03*
X0052578Y0052832D02*
D03*
X0045720Y0071120D02*
D03*
X0044069Y0071120D02*
D03*
X0120015Y0046101D02*
D03*
X0118364Y0046101D02*
D03*
X0130810Y0054610D02*
D03*
X0129159Y0054610D02*
D03*
X0125095Y0057150D02*
D03*
X0123444Y0057150D02*
D03*
X0128143Y0057150D02*
D03*
X0126492Y0057150D02*
D03*
X0127889Y0051689D02*
D03*
X0126238Y0051689D02*
D03*
X0083947Y0053594D02*
D03*
X0085598Y0053594D02*
D03*
X0092431Y0037668D02*
D03*
X0090780Y0037668D02*
D03*
X0110236Y0011303D02*
D03*
X0108585Y0011303D02*
D03*
X0152654Y0050800D02*
D03*
X0154305Y0050800D02*
D03*
X0152654Y0052070D02*
D03*
X0154305Y0052070D02*
D03*
X0162560Y0048641D02*
D03*
X0160909Y0048641D02*
D03*
X0127254Y0070485D02*
D03*
X0125603Y0070485D02*
D03*
X0131064Y0072136D02*
D03*
X0132715Y0072136D02*
D03*
X0125349Y0018796D02*
D03*
X0123698Y0018796D02*
D03*
X0133985Y0027432D02*
D03*
X0135636Y0027432D02*
D03*
X0129413Y0020574D02*
D03*
X0131064Y0020574D02*
D03*
X0131064Y0022098D02*
D03*
X0129413Y0022098D02*
D03*
X0110490Y0021844D02*
D03*
X0108839Y0021844D02*
D03*
X0055880Y0111760D02*
D03*
X0057531Y0111760D02*
D03*
X0043434Y0111760D02*
D03*
X0045085Y0111760D02*
D03*
X0049784Y0103505D02*
D03*
X0048133Y0103505D02*
D03*
X0045085Y0103505D02*
D03*
X0046736Y0103505D02*
D03*
X0076632Y0103378D02*
D03*
X0078283Y0103378D02*
D03*
X0086665Y0107950D02*
D03*
X0085014Y0107950D02*
D03*
X0090348Y0107950D02*
D03*
X0088697Y0107950D02*
D03*
X0100254Y0107950D02*
D03*
X0101905Y0107950D02*
D03*
X0096952Y0107950D02*
D03*
X0095301Y0107950D02*
D03*
X0073203Y0107950D02*
D03*
X0074854Y0107950D02*
D03*
X0081077Y0118237D02*
D03*
X0082728Y0118237D02*
D03*
X0079248Y0120523D02*
D03*
X0077597Y0120523D02*
D03*
X0100127Y0110871D02*
D03*
X0101778Y0110871D02*
D03*
X0102159Y0125603D02*
D03*
X0103810Y0125603D02*
D03*
X0025400Y0024663D02*
D03*
X0023749Y0024663D02*
D03*
X0141732Y0102743D02*
D03*
X0143383Y0102743D02*
D03*
X0072695Y0103378D02*
D03*
X0074346Y0103378D02*
D03*
X0083058Y0097663D02*
D03*
X0081407Y0097663D02*
D03*
X0072771Y0097663D02*
D03*
X0071120Y0097663D02*
D03*
X0091999Y0107950D02*
D03*
X0093650Y0107950D02*
D03*
X0101219Y0100457D02*
D03*
X0099568Y0100457D02*
D03*
X0117983Y0122555D02*
D03*
X0116332Y0122555D02*
D03*
X0139827Y0057150D02*
D03*
X0138176Y0057150D02*
D03*
X0135128Y0057150D02*
D03*
X0136779Y0057150D02*
D03*
X0085674Y0069444D02*
D03*
X0087325Y0069444D02*
D03*
X0084455Y0068834D02*
D03*
X0079756Y0068961D02*
D03*
X0078105Y0068961D02*
D03*
X0032258Y0018669D02*
D03*
X0030607Y0028575D02*
D03*
X0082804Y0068834D02*
D03*
X0028956Y0028575D02*
D03*
X0148590Y0048260D02*
D03*
X0146939Y0048260D02*
D03*
X0078740Y0070231D02*
D03*
X0080391Y0070231D02*
D03*
X0077597Y0119380D02*
D03*
X0079248Y0119380D02*
D03*
X0151765Y0048133D02*
D03*
X0150114Y0048133D02*
D03*
X0039497Y0011049D02*
D03*
X0037846Y0011049D02*
D03*
X0161290Y0038608D02*
D03*
X0162941Y0038608D02*
D03*
X0170688Y0110617D02*
D03*
X0172339Y0110617D02*
D03*
X0175895Y0115824D02*
D03*
X0177546Y0115824D02*
D03*
X0017272Y0034798D02*
D03*
X0015621Y0034798D02*
D03*
D22*
X0185039Y0102616D02*
D03*
X0185039Y0106680D02*
D03*
X0178689Y0102616D02*
D03*
X0178689Y0106680D02*
D03*
X0197358Y0117221D02*
D03*
X0197358Y0113157D02*
D03*
D23*
X0099314Y0116205D02*
D03*
X0096520Y0116205D02*
D03*
X0150749Y0086360D02*
D03*
X0147955Y0086360D02*
D03*
X0010541Y0026797D02*
D03*
X0007747Y0026797D02*
D03*
X0168148Y0085979D02*
D03*
X0165354Y0085979D02*
D03*
D24*
X0193421Y0116459D02*
D03*
X0193421Y0111506D02*
D03*
D26*
X0149098Y0038735D02*
D03*
X0081610Y0061443D02*
D03*
X0085420Y0061443D02*
D03*
X0081610Y0067031D02*
D03*
X0087503Y0026416D02*
D03*
X0072339Y0032004D02*
D03*
X0060960Y0026416D02*
D03*
X0072339Y0026416D02*
D03*
X0076149Y0032004D02*
D03*
X0076149Y0026416D02*
D03*
X0117221Y0087884D02*
D03*
X0115951Y0087884D02*
D03*
X0114681Y0087884D02*
D03*
X0113411Y0087884D02*
D03*
X0113411Y0093472D02*
D03*
X0114681Y0093472D02*
D03*
X0115951Y0093472D02*
D03*
X0117221Y0093472D02*
D03*
X0149098Y0033147D02*
D03*
X0150368Y0033147D02*
D03*
X0151638Y0033147D02*
D03*
X0152908Y0033147D02*
D03*
X0152908Y0038735D02*
D03*
X0151638Y0038735D02*
D03*
X0150368Y0038735D02*
D03*
X0164084Y0038862D02*
D03*
X0165354Y0038862D02*
D03*
X0166624Y0038862D02*
D03*
X0167894Y0038862D02*
D03*
X0167894Y0033274D02*
D03*
X0166624Y0033274D02*
D03*
X0165354Y0033274D02*
D03*
X0164084Y0033274D02*
D03*
X0071069Y0026416D02*
D03*
X0073609Y0026416D02*
D03*
X0074879Y0026416D02*
D03*
X0077419Y0026416D02*
D03*
X0079959Y0026416D02*
D03*
X0079959Y0032004D02*
D03*
X0077419Y0032004D02*
D03*
X0074879Y0032004D02*
D03*
X0073609Y0032004D02*
D03*
X0071069Y0032004D02*
D03*
X0060960Y0032004D02*
D03*
X0064770Y0032004D02*
D03*
X0067310Y0032004D02*
D03*
X0067310Y0026416D02*
D03*
X0064770Y0026416D02*
D03*
X0062230Y0026416D02*
D03*
X0062230Y0032004D02*
D03*
X0063500Y0026416D02*
D03*
X0063500Y0032004D02*
D03*
X0066040Y0026416D02*
D03*
X0066040Y0032004D02*
D03*
X0059690Y0032004D02*
D03*
X0068580Y0032004D02*
D03*
X0068580Y0026416D02*
D03*
X0059690Y0026416D02*
D03*
X0108966Y0054737D02*
D03*
X0110236Y0054737D02*
D03*
X0111506Y0054737D02*
D03*
X0112776Y0054737D02*
D03*
X0112776Y0049149D02*
D03*
X0111506Y0049149D02*
D03*
X0110236Y0049149D02*
D03*
X0108966Y0049149D02*
D03*
X0082423Y0032004D02*
D03*
X0083693Y0032004D02*
D03*
X0084963Y0032004D02*
D03*
X0086233Y0032004D02*
D03*
X0087503Y0032004D02*
D03*
X0088773Y0032004D02*
D03*
X0090043Y0032004D02*
D03*
X0091313Y0032004D02*
D03*
X0091313Y0026416D02*
D03*
X0090043Y0026416D02*
D03*
X0088773Y0026416D02*
D03*
X0086233Y0026416D02*
D03*
X0084963Y0026416D02*
D03*
X0083693Y0026416D02*
D03*
X0082423Y0026416D02*
D03*
X0078689Y0032004D02*
D03*
X0078689Y0026416D02*
D03*
X0140335Y0110236D02*
D03*
X0141605Y0110236D02*
D03*
X0142875Y0110236D02*
D03*
X0144145Y0110236D02*
D03*
X0144145Y0104648D02*
D03*
X0142875Y0104648D02*
D03*
X0141605Y0104648D02*
D03*
X0140335Y0104648D02*
D03*
X0084150Y0067031D02*
D03*
X0085420Y0067031D02*
D03*
X0082880Y0061443D02*
D03*
X0077800Y0067031D02*
D03*
X0080340Y0067031D02*
D03*
X0080340Y0061443D02*
D03*
X0077800Y0061443D02*
D03*
X0079070Y0061443D02*
D03*
X0084150Y0061443D02*
D03*
X0082880Y0067031D02*
D03*
X0079070Y0067031D02*
D03*
X0129667Y0104648D02*
D03*
X0130937Y0104648D02*
D03*
X0132207Y0104648D02*
D03*
X0133477Y0104648D02*
D03*
X0133477Y0110236D02*
D03*
X0132207Y0110236D02*
D03*
X0130937Y0110236D02*
D03*
X0129667Y0110236D02*
D03*
D28*
X0163068Y0084328D02*
D03*
X0163068Y0087122D02*
D03*
D29*
X0144526Y0083947D02*
D03*
X0147320Y0083947D02*
D03*
D30*
X0140081Y0025781D02*
D03*
X0144653Y0025781D02*
D03*
X0142367Y0025781D02*
D03*
X0148971Y0018415D02*
D03*
X0151257Y0018415D02*
D03*
X0146685Y0018415D02*
D03*
X0130048Y0048768D02*
D03*
X0127762Y0048768D02*
D03*
X0125476Y0048768D02*
D03*
D35*
X0142367Y0019431D02*
D03*
X0148971Y0012065D02*
D03*
X0127762Y0042418D02*
D03*
D36*
X0034798Y0014732D02*
D03*
X0034798Y0010668D02*
D03*
X0074727Y0118745D02*
D03*
X0074727Y0116459D02*
D03*
X0074727Y0114173D02*
D03*
X0166116Y0083185D02*
D03*
X0166116Y0080899D02*
D03*
X0166116Y0078613D02*
D03*
X0112649Y0085344D02*
D03*
X0112649Y0083058D02*
D03*
X0112649Y0080772D02*
D03*
X0102362Y0085471D02*
D03*
X0102362Y0083185D02*
D03*
X0102362Y0080899D02*
D03*
X0130302Y0031750D02*
D03*
X0130302Y0034036D02*
D03*
X0130302Y0036322D02*
D03*
X0113030Y0057531D02*
D03*
X0113030Y0059817D02*
D03*
X0113030Y0062103D02*
D03*
X0027940Y0046482D02*
D03*
X0027940Y0042418D02*
D03*
X0030734Y0042418D02*
D03*
X0030734Y0046482D02*
D03*
X0182880Y0110998D02*
D03*
X0182880Y0113284D02*
D03*
X0182880Y0115570D02*
D03*
D40*
X0041402Y0026416D02*
D03*
X0041402Y0028956D02*
D03*
X0041402Y0031496D02*
D03*
X0041402Y0032766D02*
D03*
X0041402Y0027686D02*
D03*
X0046990Y0026416D02*
D03*
X0046990Y0027686D02*
D03*
X0046990Y0034036D02*
D03*
X0046990Y0032766D02*
D03*
X0046990Y0031496D02*
D03*
X0046990Y0030226D02*
D03*
X0046990Y0028956D02*
D03*
X0046990Y0025146D02*
D03*
X0041402Y0025146D02*
D03*
X0041402Y0030226D02*
D03*
X0040767Y0022987D02*
D03*
X0040767Y0021717D02*
D03*
X0040767Y0020447D02*
D03*
X0040767Y0014097D02*
D03*
X0046355Y0014097D02*
D03*
X0046355Y0017907D02*
D03*
X0046355Y0019177D02*
D03*
X0046355Y0020447D02*
D03*
X0046355Y0021717D02*
D03*
X0046355Y0022987D02*
D03*
X0046355Y0016637D02*
D03*
X0046355Y0015367D02*
D03*
X0040767Y0019177D02*
D03*
X0040767Y0017907D02*
D03*
X0040767Y0016637D02*
D03*
X0048006Y0116840D02*
D03*
X0042418Y0113030D02*
D03*
X0042418Y0115570D02*
D03*
X0042418Y0116840D02*
D03*
X0088062Y0124460D02*
D03*
X0088062Y0123190D02*
D03*
X0088062Y0120650D02*
D03*
X0082474Y0120650D02*
D03*
X0082474Y0121920D02*
D03*
X0082474Y0123190D02*
D03*
X0082474Y0124460D02*
D03*
X0079807Y0125730D02*
D03*
X0079807Y0124460D02*
D03*
X0079807Y0121920D02*
D03*
X0074219Y0121920D02*
D03*
X0074219Y0123190D02*
D03*
X0074219Y0124460D02*
D03*
X0074219Y0125730D02*
D03*
X0040767Y0015367D02*
D03*
X0048006Y0113030D02*
D03*
X0042418Y0114300D02*
D03*
X0048006Y0115570D02*
D03*
X0041402Y0034036D02*
D03*
X0048006Y0114300D02*
D03*
X0088062Y0121920D02*
D03*
X0079807Y0123190D02*
D03*
D43*
X0117297Y0107569D02*
D03*
X0117297Y0113030D02*
D03*
X0117297Y0118237D02*
D03*
X0131521Y0090551D02*
D03*
X0129362Y0082931D02*
D03*
X0156007Y0076454D02*
D03*
X0143713Y0013589D02*
D03*
X0136474Y0023876D02*
D03*
X0139268Y0014351D02*
D03*
X0131623Y0026035D02*
D03*
D44*
X0110744Y0120650D02*
D03*
X0110744Y0122555D02*
D03*
X0147066Y0114046D02*
D03*
X0147066Y0112141D02*
D03*
X0142113Y0112903D02*
D03*
X0140208Y0112903D02*
D03*
X0131572Y0113030D02*
D03*
X0129667Y0113030D02*
D03*
X0124587Y0022606D02*
D03*
X0124587Y0020701D02*
D03*
X0107696Y0106172D02*
D03*
X0107696Y0104267D02*
D03*
X0116332Y0109601D02*
D03*
X0118237Y0109601D02*
D03*
X0116332Y0115062D02*
D03*
X0118237Y0115062D02*
D03*
X0116332Y0120269D02*
D03*
X0118237Y0120269D02*
D03*
X0132461Y0092583D02*
D03*
X0130556Y0092583D02*
D03*
X0130302Y0084963D02*
D03*
X0128397Y0084963D02*
D03*
X0156972Y0074422D02*
D03*
X0155067Y0074422D02*
D03*
X0149860Y0078613D02*
D03*
X0149860Y0076708D02*
D03*
X0144653Y0015621D02*
D03*
X0142748Y0015621D02*
D03*
X0137414Y0025908D02*
D03*
X0135509Y0025908D02*
D03*
X0138303Y0016383D02*
D03*
X0140208Y0016383D02*
D03*
X0132588Y0024003D02*
D03*
X0130683Y0024003D02*
D03*
X0099619Y0103505D02*
D03*
X0099619Y0105410D02*
D03*
X0087300Y0105410D02*
D03*
X0087300Y0103505D02*
D03*
X0092634Y0105410D02*
D03*
X0092634Y0103505D02*
D03*
X0078664Y0107950D02*
D03*
X0078664Y0106045D02*
D03*
X0096266Y0105283D02*
D03*
X0096266Y0103378D02*
D03*
X0054483Y0116332D02*
D03*
X0056388Y0116332D02*
D03*
X0059944Y0121285D02*
D03*
X0061849Y0121285D02*
D03*
X0172085Y0114173D02*
D03*
X0173990Y0114173D02*
D03*
X0175641Y0113411D02*
D03*
X0175641Y0111506D02*
D03*
X0168275Y0114173D02*
D03*
X0170180Y0114173D02*
D03*
D46*
X0179578Y0078486D02*
D03*
X0179578Y0084074D02*
D03*
X0183642Y0084074D02*
D03*
X0183642Y0078486D02*
D03*
X0172974Y0100584D02*
D03*
X0172974Y0106172D02*
D03*
X0168910Y0100584D02*
D03*
X0168910Y0106172D02*
D03*
X0190373Y0084201D02*
D03*
X0190373Y0078613D02*
D03*
X0194437Y0084201D02*
D03*
X0194437Y0078613D02*
D03*
D48*
X0122936Y0043053D02*
D03*
X0120904Y0043053D02*
D03*
D51*
X0043561Y0004572D02*
D03*
X0047371Y0004572D02*
D03*
X0048641Y0004572D02*
D03*
X0049911Y0004572D02*
D03*
X0051181Y0004572D02*
D03*
X0052451Y0004572D02*
D03*
X0053721Y0004572D02*
D03*
X0054991Y0004572D02*
D03*
X0058801Y0004572D02*
D03*
X0060071Y0004572D02*
D03*
X0061341Y0004572D02*
D03*
X0062611Y0004572D02*
D03*
X0063881Y0004572D02*
D03*
X0065151Y0004572D02*
D03*
X0066421Y0004572D02*
D03*
X0067691Y0004572D02*
D03*
X0068961Y0004572D02*
D03*
X0070231Y0004572D02*
D03*
X0071501Y0004572D02*
D03*
X0072771Y0004572D02*
D03*
X0074041Y0004572D02*
D03*
X0075311Y0004572D02*
D03*
X0076581Y0004572D02*
D03*
X0077851Y0004572D02*
D03*
X0079121Y0004572D02*
D03*
X0080391Y0004572D02*
D03*
X0081661Y0004572D02*
D03*
X0082931Y0004572D02*
D03*
X0084201Y0004572D02*
D03*
X0085471Y0004572D02*
D03*
X0086741Y0004572D02*
D03*
X0088011Y0004572D02*
D03*
X0089281Y0004572D02*
D03*
X0090551Y0004572D02*
D03*
X0091821Y0004572D02*
D03*
X0093091Y0004572D02*
D03*
X0094361Y0004572D02*
D03*
X0095631Y0004572D02*
D03*
X0096901Y0004572D02*
D03*
X0098171Y0004572D02*
D03*
X0099441Y0004572D02*
D03*
X0100711Y0004572D02*
D03*
X0101981Y0004572D02*
D03*
X0103251Y0004572D02*
D03*
X0107061Y0004572D02*
D03*
X0108331Y0004572D02*
D03*
X0109601Y0004572D02*
D03*
X0110871Y0004572D02*
D03*
X0112141Y0004572D02*
D03*
X0113411Y0004572D02*
D03*
X0114681Y0004572D02*
D03*
X0115951Y0004572D02*
D03*
X0117221Y0004572D02*
D03*
X0118491Y0004572D02*
D03*
X0119761Y0004572D02*
D03*
X0042291Y0004572D02*
D03*
X0044831Y0004572D02*
D03*
X0046101Y0004572D02*
D03*
D65*
X0031877Y0065405D02*
X0032791Y0064491D01*
X0110744Y0120396D02*
X0113157Y0120396D01*
X0095987Y0085166D02*
X0096012Y0085166D01*
X0092024Y0081204D02*
X0095987Y0085166D01*
X0089078Y0081204D02*
X0092024Y0081204D01*
X0088646Y0081636D02*
X0089078Y0081204D01*
X0088646Y0081636D02*
X0088646Y0082855D01*
X0086766Y0084734D02*
X0088646Y0082855D01*
X0085369Y0084734D02*
X0086766Y0084734D01*
X0084531Y0085573D02*
X0085369Y0084734D01*
X0088138Y0085115D02*
X0088341Y0084912D01*
X0077902Y0085573D02*
X0084531Y0085573D01*
X0076987Y0086487D02*
X0077902Y0085573D01*
X0083236Y0087097D02*
X0090449Y0087097D01*
X0088341Y0087478D02*
X0088341Y0087782D01*
X0084049Y0087478D02*
X0089764Y0087478D01*
X0084353Y0088163D02*
X0087325Y0088163D01*
X0087630Y0088468D01*
X0089078Y0088468D01*
X0089383Y0088163D01*
X0083363Y0088163D02*
X0084049Y0087478D01*
X0081559Y0088163D02*
X0083363Y0088163D01*
X0082931Y0087401D02*
X0083236Y0087097D01*
X0090449Y0087097D02*
X0091034Y0087681D01*
X0092761Y0088494D02*
X0093015Y0088240D01*
X0090780Y0088494D02*
X0092761Y0088494D01*
X0089764Y0087478D02*
X0090780Y0088494D01*
X0067310Y0086487D02*
X0076987Y0086487D01*
X0064135Y0083312D02*
X0067310Y0086487D01*
X0064135Y0079375D02*
X0064135Y0083312D01*
X0063373Y0078613D02*
X0064135Y0079375D01*
X0109220Y0120650D02*
X0110744Y0120650D01*
X0112776Y0121615D02*
X0112776Y0124079D01*
X0138049Y0108077D02*
X0139065Y0108077D01*
X0135636Y0108077D02*
X0136398Y0108077D01*
X0135585Y0110287D02*
X0135585Y0111125D01*
X0135585Y0110287D02*
X0135890Y0109982D01*
X0139700Y0113792D02*
X0144272Y0113792D01*
X0142113Y0112903D02*
X0142113Y0113792D01*
X0144272Y0113792D02*
X0144983Y0113081D01*
X0145034Y0113081D01*
X0146558Y0110490D02*
X0147066Y0110998D01*
X0140208Y0112903D02*
X0140970Y0112141D01*
X0143637Y0112141D01*
X0138303Y0113284D02*
X0138303Y0114554D01*
X0138303Y0114173D02*
X0139065Y0114173D01*
X0139192Y0113284D02*
X0139700Y0113792D01*
X0139192Y0112649D02*
X0139192Y0113284D01*
X0138430Y0111887D02*
X0139192Y0112649D01*
X0138430Y0111379D02*
X0138430Y0111887D01*
X0136398Y0111379D02*
X0138049Y0109728D01*
X0136398Y0111379D02*
X0136398Y0113284D01*
X0138049Y0109728D02*
X0138811Y0109728D01*
X0037973Y0118364D02*
X0052324Y0118364D01*
X0036195Y0115062D02*
X0037973Y0116840D01*
X0031877Y0112268D02*
X0033782Y0114173D01*
X0031877Y0106426D02*
X0031877Y0112268D01*
X0127762Y0111506D02*
X0127762Y0112014D01*
X0128778Y0113030D01*
X0129667Y0113030D01*
X0124587Y0113284D02*
X0126111Y0111760D01*
X0125157Y0112714D02*
X0125727Y0113284D01*
X0124968Y0115824D02*
X0128270Y0115824D01*
X0129921Y0114173D01*
X0130429Y0114173D01*
X0131572Y0113030D01*
X0133731Y0115443D02*
X0134366Y0114808D01*
X0133604Y0115443D02*
X0133731Y0115443D01*
X0130683Y0115316D02*
X0131953Y0115316D01*
X0139446Y0110744D02*
X0139446Y0112141D01*
X0140208Y0112903D01*
X0144272Y0115570D02*
X0145034Y0114808D01*
X0144145Y0115570D02*
X0144272Y0115570D01*
X0141224Y0115316D02*
X0142494Y0115316D01*
X0135255Y0113284D02*
X0136398Y0113284D01*
X0135255Y0113411D02*
X0136398Y0114554D01*
X0140335Y0102235D02*
X0140335Y0104648D01*
X0144145Y0109347D02*
X0144145Y0110236D01*
X0141326Y0106528D02*
X0144145Y0109347D01*
X0138492Y0106528D02*
X0141326Y0106528D01*
X0094132Y0097765D02*
X0102774Y0097765D01*
X0142875Y0108712D02*
X0142875Y0110236D01*
X0141072Y0106909D02*
X0142875Y0108712D01*
X0138334Y0106909D02*
X0141072Y0106909D01*
X0141605Y0108077D02*
X0141605Y0110236D01*
X0140818Y0107290D02*
X0141605Y0108077D01*
X0138176Y0107290D02*
X0140818Y0107290D01*
X0132207Y0109474D02*
X0132207Y0110363D01*
X0128524Y0104902D02*
X0129667Y0104902D01*
X0124079Y0121539D02*
X0124079Y0121793D01*
X0122301Y0121539D02*
X0124079Y0121539D01*
X0122301Y0124079D02*
X0123444Y0124079D01*
X0124079Y0123444D01*
X0128651Y0111125D02*
X0129159Y0111633D01*
X0130302Y0111633D01*
X0130937Y0110998D01*
X0130937Y0110236D02*
X0130937Y0110998D01*
X0125222Y0114554D02*
X0125603Y0114554D01*
X0124587Y0110744D02*
X0125222Y0110109D01*
X0127381Y0113284D02*
X0127889Y0113792D01*
X0127889Y0114046D01*
X0128651Y0114046D01*
X0127381Y0114554D02*
X0127889Y0114046D01*
X0125727Y0113284D02*
X0125730Y0113284D01*
X0124587Y0113284D02*
X0124587Y0113919D01*
X0125222Y0114554D01*
X0178689Y0022301D02*
X0178689Y0025476D01*
X0095504Y0031115D02*
X0096774Y0031115D01*
X0098425Y0031242D02*
X0102108Y0034925D01*
X0102108Y0036703D01*
X0099568Y0038481D02*
X0099568Y0051308D01*
X0094869Y0032131D02*
X0098425Y0032131D01*
X0101600Y0035306D01*
X0101600Y0036449D01*
X0099568Y0038481D02*
X0101600Y0036449D01*
X0099949Y0038862D02*
X0102108Y0036703D01*
X0099060Y0051816D02*
X0099568Y0051308D01*
X0099949Y0038862D02*
X0099949Y0050927D01*
X0101600Y0052578D01*
X0102870Y0052578D01*
X0099314Y0055118D02*
X0101092Y0055118D01*
X0102235Y0056261D01*
X0102235Y0058039D01*
X0109902Y0069469D02*
X0110871Y0069469D01*
X0109648Y0069215D02*
X0109902Y0069469D01*
X0109140Y0069215D02*
X0109648Y0069215D01*
X0108886Y0069469D02*
X0109140Y0069215D01*
X0106172Y0069469D02*
X0108886Y0069469D01*
X0102235Y0058039D02*
X0104140Y0059944D01*
X0104140Y0068072D01*
X0106045Y0069977D01*
X0109347Y0069977D01*
X0104521Y0056007D02*
X0104521Y0067818D01*
X0106172Y0069469D01*
X0079502Y0054864D02*
X0081407Y0056769D01*
X0081407Y0057785D01*
X0082880Y0059284D02*
X0082880Y0061443D01*
X0081407Y0059512D02*
X0082779Y0059512D01*
X0148336Y0040894D02*
X0149098Y0040132D01*
X0024867Y0029743D02*
X0026314Y0029743D01*
X0026721Y0029337D01*
X0031648Y0029337D01*
X0032385Y0028600D01*
X0033325Y0028600D01*
X0024003Y0028880D02*
X0024867Y0029743D01*
X0033147Y0027432D02*
X0034442Y0026137D01*
X0033299Y0027432D02*
X0033299Y0028626D01*
X0020066Y0028880D02*
X0024003Y0028880D01*
X0082804Y0071755D02*
X0084201Y0073152D01*
X0092431Y0073152D01*
X0094259Y0074981D01*
X0094259Y0079426D01*
X0095860Y0081026D01*
X0065735Y0087630D02*
X0077851Y0087630D01*
X0078776Y0086716D01*
X0085121Y0086716D01*
X0085857Y0085979D01*
X0089129Y0085979D01*
X0065938Y0087249D02*
X0077572Y0087249D01*
X0078491Y0086335D01*
X0084938Y0086335D01*
X0085674Y0085598D01*
X0088748Y0085598D01*
X0066116Y0086868D02*
X0077292Y0086868D01*
X0078207Y0085954D01*
X0084734Y0085954D01*
X0085573Y0085115D01*
X0061976Y0082169D02*
X0062611Y0082169D01*
X0044069Y0075768D02*
X0055880Y0075768D01*
X0049403Y0047244D02*
X0049403Y0065913D01*
X0046990Y0044831D02*
X0049403Y0047244D01*
X0136195Y0089230D02*
X0137033Y0090068D01*
X0137033Y0090297D01*
X0085090Y0076606D02*
X0090424Y0076606D01*
X0084557Y0077648D02*
X0090424Y0077648D01*
X0079732Y0059740D02*
X0080823Y0058649D01*
X0081382Y0068834D02*
X0081610Y0068605D01*
X0081610Y0067031D02*
X0081610Y0068605D01*
X0085420Y0061493D02*
X0086614Y0061493D01*
X0084684Y0062967D02*
X0085420Y0062230D01*
X0082321Y0062967D02*
X0084684Y0062967D01*
X0085420Y0061798D02*
X0085420Y0062230D01*
X0081610Y0062255D02*
X0082321Y0062967D01*
X0081610Y0061443D02*
X0081610Y0062255D01*
X0084176Y0059563D02*
X0084176Y0061417D01*
X0084176Y0059563D02*
X0085471Y0059563D01*
X0084531Y0071730D02*
X0085420Y0072619D01*
X0083642Y0070815D02*
X0084582Y0071755D01*
X0083642Y0068275D02*
X0083642Y0070815D01*
X0083642Y0068275D02*
X0084150Y0067767D01*
X0084150Y0067031D02*
X0084150Y0067767D01*
X0082880Y0067081D02*
X0082880Y0070155D01*
X0078943Y0070460D02*
X0085090Y0076606D01*
X0078943Y0070231D02*
X0078943Y0070460D01*
X0078943Y0067945D02*
X0078943Y0070231D01*
X0078943Y0067945D02*
X0079070Y0067818D01*
X0079070Y0067031D02*
X0079070Y0067818D01*
X0080035Y0068910D02*
X0080035Y0069875D01*
X0080391Y0070231D01*
X0077800Y0070891D02*
X0084557Y0077648D01*
X0162204Y0118135D02*
X0163703Y0119634D01*
X0153492Y0118135D02*
X0162204Y0118135D01*
X0170617Y0117373D02*
X0171760Y0118516D01*
X0153848Y0117373D02*
X0170617Y0117373D01*
X0039878Y0027178D02*
X0040640Y0026416D01*
X0039878Y0027178D02*
X0039878Y0027686D01*
X0040640Y0026416D02*
X0041529Y0026416D01*
X0038100Y0029464D02*
X0039878Y0027686D01*
X0038100Y0029464D02*
X0038100Y0090018D01*
X0042545Y0094463D01*
X0106800Y0094463D01*
X0106807Y0094463D02*
X0110903Y0098552D01*
X0110896Y0098552D02*
X0143866Y0098552D01*
X0149606Y0104292D01*
X0149606Y0113132D01*
X0153848Y0117373D01*
X0161392Y0114148D02*
X0162941Y0115697D01*
X0038862Y0030607D02*
X0040513Y0028956D01*
X0041402Y0028956D01*
X0038862Y0030607D02*
X0038862Y0089662D01*
X0042901Y0093701D01*
X0107167Y0093701D01*
X0111256Y0097790D01*
X0145847Y0097790D02*
X0147650Y0099593D01*
X0150571Y0099593D01*
X0156337Y0105359D01*
X0156337Y0113462D01*
X0157048Y0114148D01*
X0161392Y0114148D01*
X0146202Y0097409D02*
X0147295Y0098501D01*
X0146406Y0097028D02*
X0147498Y0098120D01*
X0160985Y0098120D02*
X0164414Y0094691D01*
X0147498Y0098120D02*
X0160985Y0098120D01*
X0164414Y0094691D02*
X0184988Y0094691D01*
X0186182Y0095885D01*
X0111572Y0097028D02*
X0146406Y0097028D01*
X0107482Y0092939D02*
X0111572Y0097028D01*
X0040513Y0031496D02*
X0041402Y0031496D01*
X0039624Y0032385D02*
X0040513Y0031496D01*
X0039624Y0032385D02*
X0039624Y0089306D01*
X0043256Y0092939D01*
X0107482Y0092939D01*
X0161163Y0098501D02*
X0163779Y0095885D01*
X0170307Y0095885D01*
X0147295Y0098501D02*
X0161163Y0098501D01*
X0111256Y0097790D02*
X0145847Y0097790D01*
X0171893Y0084684D02*
X0174549Y0084684D01*
X0197739Y0032893D02*
X0197739Y0035281D01*
X0191897Y0041123D02*
X0197739Y0035281D01*
X0191897Y0041123D02*
X0191897Y0047371D01*
X0176987Y0060362D02*
X0187579Y0049784D01*
X0176987Y0060362D02*
X0176987Y0082245D01*
X0174549Y0084684D02*
X0176987Y0082245D01*
X0040513Y0032766D02*
X0041402Y0032766D01*
X0040005Y0033274D02*
X0040513Y0032766D01*
X0040005Y0033274D02*
X0040005Y0089129D01*
X0043434Y0092558D01*
X0107640Y0092558D01*
X0111730Y0096647D01*
X0189484Y0035814D02*
X0191516Y0037846D01*
X0124536Y0018110D02*
X0124536Y0020650D01*
X0124333Y0017907D02*
X0124536Y0018110D01*
X0091313Y0025654D02*
X0091313Y0026416D01*
X0089789Y0024130D02*
X0091313Y0025654D01*
X0085471Y0024130D02*
X0089789Y0024130D01*
X0102743Y0017907D02*
X0124333Y0017907D01*
X0101600Y0019050D02*
X0102743Y0017907D01*
X0090551Y0019050D02*
X0101600Y0019050D01*
X0087503Y0022098D02*
X0090551Y0019050D01*
X0085979Y0022098D02*
X0087503Y0022098D01*
X0084455Y0023622D02*
X0085979Y0022098D01*
X0084455Y0023622D02*
X0084455Y0024257D01*
X0085090Y0024892D01*
X0086741Y0024892D01*
X0087503Y0025654D01*
X0087503Y0026416D01*
X0126492Y0021336D02*
X0138176Y0021336D01*
X0139827Y0019685D01*
X0139827Y0018415D02*
X0139827Y0019685D01*
X0139827Y0018415D02*
X0140335Y0017907D01*
X0144780Y0017907D01*
X0144780Y0018796D01*
X0148971Y0022987D01*
X0148971Y0025781D01*
X0176530Y0025781D02*
X0177927Y0027178D01*
X0178054Y0027178D01*
X0175285Y0024663D02*
X0176403Y0025781D01*
X0148971Y0025781D02*
X0150089Y0024663D01*
X0175285Y0024663D01*
X0111730Y0096647D02*
X0159918Y0096647D01*
X0030861Y0096520D02*
X0031115Y0096266D01*
X0031115Y0063856D02*
X0031115Y0096266D01*
X0031115Y0063856D02*
X0031801Y0063170D01*
X0029439Y0099111D02*
X0031496Y0097053D01*
X0031496Y0064694D02*
X0031496Y0097053D01*
X0031496Y0064694D02*
X0031801Y0064389D01*
X0029540Y0099568D02*
X0031877Y0097231D01*
X0031877Y0065405D02*
X0031877Y0097231D01*
X0028067Y0101600D02*
X0028575Y0101600D01*
X0032258Y0097917D01*
X0032258Y0066091D02*
X0032258Y0097917D01*
X0032258Y0066091D02*
X0032766Y0065583D01*
X0033782Y0063754D02*
X0034036Y0064008D01*
X0034036Y0094463D01*
X0034163Y0063373D02*
X0034417Y0063627D01*
X0034417Y0094209D01*
X0091669Y0082067D02*
X0091669Y0083439D01*
X0089129Y0085979D02*
X0091669Y0083439D01*
X0088748Y0085598D02*
X0089408Y0084938D01*
X0154051Y0116992D02*
X0171018Y0116992D01*
X0149987Y0112928D02*
X0154051Y0116992D01*
X0149987Y0104115D02*
X0149987Y0112928D01*
X0144043Y0098171D02*
X0149987Y0104115D01*
X0143586Y0098171D02*
X0144043Y0098171D01*
X0111414Y0097409D02*
X0146202Y0097409D01*
X0171018Y0116992D02*
X0172147Y0118110D01*
X0193192Y0118110D01*
X0194716Y0119634D01*
X0176809Y0122047D02*
X0186944Y0122047D01*
X0174371Y0124485D02*
X0176809Y0122047D01*
X0174371Y0124485D02*
X0174371Y0130048D01*
X0167894Y0136525D02*
X0174371Y0130048D01*
X0054991Y0136525D02*
X0167894Y0136525D01*
X0047498Y0129032D02*
X0054991Y0136525D01*
X0143688Y0098933D02*
X0149225Y0104470D01*
X0149225Y0113309D01*
X0153670Y0117754D01*
X0171760Y0118516D02*
X0178054Y0118516D01*
X0179172Y0119634D01*
X0143510Y0099314D02*
X0148844Y0104648D01*
X0148844Y0113487D01*
X0153492Y0118135D01*
X0143332Y0099695D02*
X0148463Y0104826D01*
X0148463Y0113665D01*
X0153314Y0118516D01*
X0155016Y0118516D01*
X0156134Y0119634D01*
X0143154Y0100076D02*
X0148082Y0105004D01*
X0148082Y0119634D01*
X0105588Y0033172D02*
X0106909Y0031852D01*
X0100076Y0035408D02*
X0100355Y0035128D01*
X0100076Y0035408D02*
X0100076Y0036703D01*
X0097282Y0039497D02*
X0100076Y0036703D01*
X0097282Y0039497D02*
X0097282Y0044653D01*
X0100889Y0036068D02*
X0100889Y0036551D01*
X0097663Y0039776D02*
X0100889Y0036551D01*
X0097663Y0039776D02*
X0097663Y0044831D01*
X0087376Y0054559D02*
X0097282Y0044653D01*
X0087376Y0054559D02*
X0087376Y0055118D01*
X0085522Y0056998D02*
X0087376Y0055118D01*
X0083642Y0056972D02*
X0085522Y0056998D01*
X0082779Y0057836D02*
X0083642Y0056972D01*
X0082779Y0057836D02*
X0082779Y0057861D01*
X0125273Y0018796D02*
X0134239Y0018796D01*
X0106655Y0033096D02*
X0110007Y0029743D01*
X0087808Y0054686D02*
X0097663Y0044831D01*
X0087808Y0054686D02*
X0087808Y0055728D01*
X0085522Y0057988D02*
X0087808Y0055728D01*
X0042367Y0094844D02*
X0106617Y0094844D01*
X0090399Y0097104D02*
X0094183Y0097104D01*
X0089967Y0097536D02*
X0090399Y0097104D01*
X0089408Y0096672D02*
X0094463Y0096672D01*
X0094793Y0097003D01*
X0094183Y0097104D02*
X0094463Y0097384D01*
X0092126Y0097993D02*
X0092634Y0097485D01*
X0093853Y0097485D01*
X0094132Y0097765D01*
X0093523Y0098146D02*
X0102616Y0098146D01*
X0092710Y0098857D02*
X0093853Y0098857D01*
X0094183Y0098527D01*
X0102438Y0098527D01*
X0094361Y0098908D02*
X0102260Y0098908D01*
X0093726Y0099543D02*
X0094361Y0098908D01*
X0095936Y0099289D02*
X0102088Y0099289D01*
X0096749Y0099670D02*
X0101930Y0099670D01*
X0095936Y0100482D02*
X0096749Y0099670D01*
X0094539Y0100482D02*
X0095936Y0100482D01*
X0094793Y0097003D02*
X0103089Y0097003D01*
X0106925Y0100838D01*
X0094463Y0097384D02*
X0102932Y0097384D01*
X0106767Y0101219D01*
X0102774Y0097765D02*
X0106609Y0101600D01*
X0106925Y0100838D02*
X0135255Y0100838D01*
X0138405Y0103988D01*
X0138405Y0104597D01*
X0139827Y0106045D01*
X0143510Y0106045D01*
X0144145Y0105410D01*
X0144145Y0104648D02*
X0144145Y0105410D01*
X0106767Y0101219D02*
X0135077Y0101219D01*
X0136373Y0102514D01*
X0136373Y0104409D01*
X0138492Y0106528D01*
X0106609Y0101600D02*
X0134899Y0101600D01*
X0135992Y0102692D01*
X0135992Y0104566D01*
X0138334Y0106909D01*
X0112065Y0102260D02*
X0112344Y0101981D01*
X0134722Y0101981D01*
X0135611Y0102870D01*
X0135611Y0104724D01*
X0138176Y0107290D01*
X0095428Y0099797D02*
X0095936Y0099289D01*
X0102088Y0099289D02*
X0105923Y0103124D01*
X0109728Y0103124D01*
X0110388Y0103784D01*
X0093421Y0099543D02*
X0093726Y0099543D01*
X0102260Y0098908D02*
X0106096Y0102743D01*
X0110378Y0102743D01*
X0112827Y0105218D01*
X0112827Y0118745D01*
X0114351Y0120269D01*
X0116332Y0120269D01*
X0092710Y0098806D02*
X0092710Y0098857D01*
X0102438Y0098527D02*
X0106274Y0102362D01*
X0110541Y0102362D01*
X0113208Y0105029D01*
X0113208Y0114249D01*
X0114021Y0115062D01*
X0116332Y0115062D01*
X0093523Y0098146D02*
X0093523Y0098171D01*
X0102616Y0098146D02*
X0106451Y0101981D01*
X0110719Y0101981D01*
X0113589Y0104851D01*
X0113589Y0109093D01*
X0114097Y0109601D01*
X0116332Y0109601D01*
X0116256Y0122707D02*
X0116332Y0122631D01*
X0116332Y0122555D02*
X0116332Y0122631D01*
X0025883Y0128067D02*
X0027153Y0129337D01*
X0029210Y0129337D01*
X0029743Y0128803D01*
X0029743Y0106177D02*
X0029743Y0128803D01*
X0029743Y0106177D02*
X0034549Y0101371D01*
X0040157Y0101371D01*
X0043764Y0104978D01*
X0051466Y0104978D01*
X0052685Y0103759D01*
X0052812Y0103632D01*
X0057125Y0103632D01*
X0028423Y0106959D02*
X0028423Y0128168D01*
X0028423Y0106959D02*
X0034392Y0100990D01*
X0040386Y0100990D01*
X0043993Y0104597D01*
X0051308Y0104597D01*
X0053010Y0102895D01*
X0056286Y0102895D01*
X0022606Y0099111D02*
X0029439Y0099111D01*
X0038608Y0130683D02*
X0039878Y0129413D01*
X0039878Y0123190D02*
X0039878Y0129413D01*
X0029058Y0098349D02*
X0030861Y0096545D01*
X0041859Y0095987D02*
X0106045Y0095987D01*
X0036576Y0090703D02*
X0041859Y0095987D01*
X0042037Y0095606D02*
X0106223Y0095606D01*
X0036957Y0090526D02*
X0042037Y0095606D01*
X0042205Y0095225D02*
X0106401Y0095225D01*
X0037338Y0090358D02*
X0042205Y0095225D01*
X0037719Y0090195D02*
X0042367Y0094844D01*
X0042723Y0094082D02*
X0106984Y0094082D01*
X0038481Y0089840D02*
X0042723Y0094082D01*
X0043093Y0093320D02*
X0107325Y0093320D01*
X0039243Y0089470D02*
X0043093Y0093320D01*
X0046558Y0087884D02*
X0046558Y0088697D01*
X0046558Y0087884D02*
X0049098Y0085344D01*
X0047548Y0088138D02*
X0047752Y0088138D01*
X0050038Y0085852D01*
X0058826Y0102184D02*
X0058826Y0105588D01*
X0055194Y0109220D02*
X0058826Y0105588D01*
X0057988Y0101600D02*
X0057988Y0105156D01*
X0055194Y0107950D02*
X0057988Y0105156D01*
X0045212Y0084658D02*
X0045441Y0084887D01*
X0052019Y0084887D01*
X0052324Y0084582D01*
X0057125Y0084582D01*
X0045847Y0083820D02*
X0046431Y0084404D01*
X0051537Y0084404D01*
X0052095Y0083845D01*
X0057912Y0083845D01*
X0058191Y0084150D01*
X0045034Y0082931D02*
X0050216Y0082931D01*
X0044450Y0083439D02*
X0044526Y0083439D01*
X0045034Y0082931D01*
X0051562Y0083160D02*
X0057099Y0083160D01*
X0051029Y0083693D02*
X0051562Y0083160D01*
X0050216Y0082931D02*
X0050673Y0082474D01*
X0057551Y0082474D01*
X0059690Y0084613D01*
X0049403Y0081712D02*
X0057912Y0081712D01*
X0059690Y0084613D02*
X0059690Y0086741D01*
X0059436Y0086995D02*
X0059690Y0086741D01*
X0059436Y0086995D02*
X0059436Y0088138D01*
X0037338Y0024384D02*
X0037338Y0090358D01*
X0037338Y0024384D02*
X0040005Y0021717D01*
X0040767Y0021717D01*
X0040513Y0027686D02*
X0041402Y0027686D01*
X0047371Y0022987D02*
X0047752Y0022606D01*
X0050419Y0022606D01*
X0046990Y0030226D02*
X0048260Y0030226D01*
X0048590Y0030556D01*
X0054661Y0030556D01*
X0056693Y0028524D01*
X0056718Y0028524D01*
X0046990Y0035941D02*
X0046990Y0044831D01*
X0102032Y0109474D02*
X0102413Y0109474D01*
X0102032Y0109474D02*
X0102032Y0110871D01*
X0101778Y0110871D02*
X0102032Y0110871D01*
X0098984Y0110744D02*
X0100127Y0110744D01*
X0098603Y0110363D02*
X0098984Y0110744D01*
X0080442Y0114427D02*
X0084252Y0114427D01*
X0089205Y0109474D01*
X0079553Y0108839D02*
X0079553Y0115697D01*
X0078664Y0107950D02*
X0079553Y0108839D01*
X0104140Y0018796D02*
X0123622Y0018796D01*
X0072339Y0030353D02*
X0072339Y0032004D01*
X0071704Y0029718D02*
X0072339Y0030353D01*
X0071704Y0024435D02*
X0071704Y0029718D01*
X0071298Y0024003D02*
X0071704Y0024435D01*
X0051054Y0024003D02*
X0071298Y0024003D01*
X0060960Y0026416D02*
X0060960Y0027686D01*
X0060706Y0027940D02*
X0060960Y0027686D01*
X0051435Y0023622D02*
X0071577Y0023622D01*
X0072339Y0024384D01*
X0072339Y0026416D01*
X0051816Y0023241D02*
X0073355Y0023241D01*
X0075514Y0025400D01*
X0075514Y0029083D01*
X0076149Y0029718D01*
X0076149Y0032004D01*
X0052324Y0022860D02*
X0073609Y0022860D01*
X0076149Y0025400D02*
X0076149Y0026416D01*
X0073609Y0022860D02*
X0076149Y0025400D01*
X0053315Y0042164D02*
X0053594Y0042164D01*
X0120269Y0075819D02*
X0120904Y0076454D01*
X0131572Y0076454D01*
X0101981Y0033655D02*
X0103632Y0035306D01*
X0114681Y0010033D02*
X0114808Y0010160D01*
X0107061Y0011811D02*
X0107188Y0011938D01*
X0088392Y0035814D02*
X0090551Y0035814D01*
X0051816Y0010795D02*
X0051816Y0012319D01*
X0048641Y0007620D02*
X0051816Y0010795D01*
X0051054Y0014986D02*
X0061341Y0014986D01*
X0063246Y0013081D01*
X0063246Y0011176D02*
X0063246Y0013081D01*
X0062484Y0009652D02*
X0062484Y0012446D01*
X0062230Y0009398D02*
X0062484Y0009652D01*
X0062230Y0008763D02*
X0062230Y0009398D01*
X0066421Y0004572D02*
X0066421Y0010922D01*
X0060071Y0017272D02*
X0066421Y0010922D01*
X0069723Y0012192D02*
X0070231Y0011684D01*
X0069215Y0012192D02*
X0069723Y0012192D01*
X0070866Y0016256D02*
X0071247Y0015875D01*
X0073914Y0015875D01*
X0076073Y0007874D02*
X0076073Y0011811D01*
X0072644Y0015240D02*
X0076073Y0011811D01*
X0070358Y0015240D02*
X0072644Y0015240D01*
X0077851Y0004572D02*
X0077851Y0011938D01*
X0073914Y0015875D02*
X0077851Y0011938D01*
X0069850Y0016256D02*
X0070866Y0016256D01*
X0069000Y0017106D02*
X0069850Y0016256D01*
X0076073Y0016256D02*
X0079883Y0012446D01*
X0071628Y0016256D02*
X0076073Y0016256D01*
X0070739Y0017145D02*
X0071628Y0016256D01*
X0070739Y0017145D02*
X0071247Y0016637D01*
X0075565Y0017145D02*
X0083439Y0017145D01*
X0095504Y0010288D02*
X0096393Y0009398D01*
X0029083Y0020777D02*
X0029083Y0023063D01*
X0029972Y0023952D01*
X0028702Y0017729D02*
X0029083Y0018110D01*
X0029083Y0018440D02*
X0030480Y0018440D01*
X0029083Y0018110D02*
X0029083Y0019126D01*
X0049022Y0043942D02*
X0049022Y0045466D01*
X0050063Y0046482D01*
X0050038Y0065126D02*
X0051892Y0066980D01*
X0085598Y0038608D02*
X0088392Y0035814D01*
X0063500Y0038608D02*
X0085598Y0038608D01*
X0157480Y0049784D02*
X0158115Y0049149D01*
X0150749Y0049784D02*
X0157480Y0049784D01*
X0155448Y0051435D02*
X0155702Y0051689D01*
X0151638Y0037084D02*
X0151638Y0038735D01*
X0141986Y0048514D02*
X0144221Y0048514D01*
X0135633Y0051819D02*
X0135633Y0052324D01*
X0135633Y0051819D02*
X0138938Y0048514D01*
X0141986Y0048514D01*
X0136195Y0092405D02*
X0138074Y0092405D01*
X0152908Y0077343D02*
X0152908Y0078486D01*
X0154305Y0077470D02*
X0155321Y0078486D01*
X0154051Y0077470D02*
X0154305Y0077470D01*
X0162306Y0061214D02*
X0163068Y0061976D01*
X0163703Y0061976D01*
X0165989Y0059690D01*
X0171577Y0059690D01*
X0163449Y0055626D02*
X0163449Y0061214D01*
X0158115Y0051689D02*
X0159614Y0050190D01*
X0159614Y0048158D02*
X0159614Y0050190D01*
X0159614Y0048158D02*
X0160147Y0047625D01*
X0163576Y0047625D01*
X0158115Y0050419D02*
X0159131Y0049403D01*
X0067310Y0049530D02*
X0067310Y0050775D01*
X0067005Y0051079D02*
X0067310Y0050775D01*
X0067755Y0048806D02*
X0067755Y0052641D01*
X0067437Y0052959D02*
X0067755Y0052641D01*
X0067437Y0052959D02*
X0067437Y0061620D01*
X0175260Y0041656D02*
X0176022Y0041656D01*
X0164592Y0042545D02*
X0164592Y0046609D01*
X0164592Y0042545D02*
X0165608Y0041529D01*
X0158115Y0050292D02*
X0158115Y0050419D01*
X0159131Y0041656D02*
X0159131Y0049403D01*
X0167005Y0045339D02*
X0168402Y0045339D01*
X0174371Y0042545D02*
X0175260Y0041656D01*
X0174371Y0044831D02*
X0176022Y0043180D01*
X0174371Y0044831D02*
X0174371Y0045085D01*
X0171958Y0043307D02*
X0171958Y0045085D01*
X0170307Y0042672D02*
X0170307Y0044831D01*
X0165608Y0041529D02*
X0167259Y0041529D01*
X0168275Y0042545D01*
X0165481Y0045847D02*
X0166497Y0045847D01*
X0166370Y0044196D02*
X0166878Y0043688D01*
X0165481Y0044196D02*
X0166370Y0044196D01*
X0163576Y0044704D02*
X0163576Y0045847D01*
X0162306Y0044704D02*
X0163576Y0044704D01*
X0163957Y0041529D02*
X0163957Y0043053D01*
X0162179Y0043307D02*
X0163576Y0043307D01*
X0168910Y0030505D02*
X0168910Y0034163D01*
X0166624Y0033274D02*
X0166624Y0035306D01*
X0165608Y0036322D02*
X0166624Y0035306D01*
X0163703Y0036322D02*
X0165608Y0036322D01*
X0162941Y0035560D02*
X0163703Y0036322D01*
X0162941Y0032385D02*
X0162941Y0035560D01*
X0167767Y0034798D02*
X0168275Y0034798D01*
X0168910Y0034163D01*
X0168910Y0030480D02*
X0168910Y0030505D01*
X0165354Y0037211D02*
X0167767Y0034798D01*
X0165354Y0037211D02*
X0165354Y0038862D01*
X0149793Y0049340D02*
X0150060Y0049073D01*
X0155219Y0049073D01*
X0140078Y0052959D02*
X0140332Y0053213D01*
X0140332Y0054864D01*
X0141602Y0051562D02*
X0141602Y0053213D01*
X0141348Y0053213D02*
X0141602Y0053213D01*
X0142872Y0053213D02*
X0143761Y0054102D01*
X0139125Y0049340D02*
X0149793Y0049340D01*
X0136903Y0051562D02*
X0136903Y0052324D01*
X0136903Y0051562D02*
X0139125Y0049340D01*
X0141605Y0050165D02*
X0141605Y0051689D01*
X0143761Y0054102D02*
X0144269Y0054102D01*
X0144269Y0054229D01*
X0143888Y0055118D02*
X0144269Y0055499D01*
X0141856Y0055118D02*
X0143888Y0055118D01*
X0113665Y0074295D02*
X0114681Y0074295D01*
X0121412Y0050673D02*
X0122301Y0049784D01*
X0121412Y0050673D02*
X0121412Y0050800D01*
X0116586Y0050800D02*
X0117602Y0051816D01*
X0118872Y0051816D01*
X0118237Y0050800D02*
X0119761Y0050800D01*
X0116713Y0049657D02*
X0116713Y0050800D01*
X0118110Y0049657D02*
X0118110Y0050673D01*
X0118237Y0050800D01*
X0099568Y0029718D02*
X0104648Y0034798D01*
X0099695Y0027559D02*
X0099695Y0028727D01*
X0052324Y0035560D02*
X0053594Y0036830D01*
X0037719Y0025273D02*
X0037719Y0090195D01*
X0037719Y0025273D02*
X0040005Y0022987D01*
X0040767Y0022987D01*
X0038481Y0029718D02*
X0038481Y0089840D01*
X0038481Y0029718D02*
X0040513Y0027686D01*
X0039243Y0031496D02*
X0039243Y0089470D01*
X0039243Y0031496D02*
X0040513Y0030226D01*
X0041402Y0030226D01*
X0073609Y0026416D02*
X0073609Y0029337D01*
X0073609Y0032004D02*
X0073609Y0033655D01*
X0073228Y0034036D02*
X0073609Y0033655D01*
X0074879Y0026416D02*
X0074879Y0029972D01*
X0074879Y0032004D02*
X0074879Y0033655D01*
X0077419Y0032004D02*
X0077419Y0033655D01*
X0077419Y0026416D02*
X0077419Y0028575D01*
X0059309Y0030607D02*
X0060325Y0030607D01*
X0063754Y0030226D02*
X0064770Y0031242D01*
X0064770Y0032004D01*
X0060325Y0030607D02*
X0060960Y0031242D01*
X0060960Y0032004D01*
X0058420Y0035484D02*
X0058420Y0066802D01*
X0057658Y0060960D02*
X0058420Y0060960D01*
X0055499Y0037084D02*
X0055499Y0045593D01*
X0053975Y0053848D02*
X0054102Y0053721D01*
X0065532Y0041529D02*
X0083566Y0041529D01*
X0064770Y0042291D02*
X0065532Y0041529D01*
X0059690Y0046863D02*
X0062103Y0044450D01*
X0059690Y0046863D02*
X0059690Y0054737D01*
X0060071Y0055118D01*
X0054229Y0058039D02*
X0054229Y0067310D01*
X0058471Y0071552D01*
X0054610Y0058928D02*
X0054610Y0066802D01*
X0058852Y0071044D01*
X0055372Y0060706D02*
X0055626Y0060960D01*
X0055626Y0067056D01*
X0059233Y0070663D01*
X0059233Y0079985D01*
X0056515Y0053340D02*
X0056515Y0058039D01*
X0056134Y0066929D02*
X0059614Y0070409D01*
X0059614Y0079807D01*
X0061976Y0082169D01*
X0058471Y0071552D02*
X0058471Y0080366D01*
X0065735Y0087630D01*
X0086614Y0041529D02*
X0088773Y0041529D01*
X0085090Y0041529D02*
X0085090Y0044196D01*
X0062484Y0047625D02*
X0063373Y0047625D01*
X0065532Y0045466D01*
X0067818Y0045466D01*
X0063246Y0048514D02*
X0065913Y0045847D01*
X0063119Y0048514D02*
X0063246Y0048514D01*
X0061595Y0049721D02*
X0062674Y0049721D01*
X0062738Y0049657D01*
X0063500Y0049657D01*
X0066548Y0046609D01*
X0065913Y0045847D02*
X0067564Y0045847D01*
X0067818Y0045466D02*
X0068707Y0046355D01*
X0067564Y0045847D02*
X0068453Y0046736D01*
X0083947Y0046736D01*
X0085217Y0048006D01*
X0068199Y0047117D02*
X0083185Y0047117D01*
X0067310Y0046228D02*
X0068199Y0047117D01*
X0083185Y0047117D02*
X0084074Y0048006D01*
X0066548Y0046609D02*
X0067056Y0046609D01*
X0068326Y0047879D01*
X0082804Y0047879D01*
X0066142Y0050444D02*
X0066142Y0062941D01*
X0065659Y0049962D02*
X0066142Y0050444D01*
X0065659Y0048768D02*
X0065659Y0049962D01*
X0065659Y0048768D02*
X0065913Y0048514D01*
X0066548Y0049784D02*
X0066548Y0062484D01*
X0066370Y0049581D02*
X0066548Y0049784D01*
X0066802Y0047371D02*
X0066802Y0048133D01*
X0066675Y0048260D02*
X0066802Y0048133D01*
X0066675Y0048260D02*
X0066675Y0048895D01*
X0067310Y0049530D01*
X0060071Y0053975D02*
X0060833Y0054737D01*
X0060833Y0057150D01*
X0062230Y0050546D02*
X0062230Y0050800D01*
X0064389Y0050165D02*
X0064389Y0051689D01*
X0065291Y0050686D02*
X0065735Y0051130D01*
X0064135Y0055880D02*
X0064135Y0065634D01*
X0060071Y0047244D02*
X0060071Y0053975D01*
X0060452Y0057531D02*
X0060833Y0057150D01*
X0060071Y0047244D02*
X0062865Y0044450D01*
X0062865Y0042545D02*
X0062865Y0044450D01*
X0062865Y0042545D02*
X0063119Y0042291D01*
X0059690Y0058293D02*
X0060452Y0057531D01*
X0059309Y0058293D02*
X0059690Y0058293D01*
X0064008Y0041402D02*
X0064770Y0040640D01*
X0064008Y0041402D02*
X0064008Y0044323D01*
X0060833Y0052578D02*
X0064135Y0055880D01*
X0058420Y0066802D02*
X0059182Y0067564D01*
X0058928Y0037033D02*
X0058928Y0056769D01*
X0059436Y0057277D01*
X0060833Y0047498D02*
X0064008Y0044323D01*
X0060833Y0047498D02*
X0060833Y0052578D01*
X0064516Y0082169D02*
X0068021Y0085674D01*
X0072695Y0085674D01*
X0059233Y0079985D02*
X0066116Y0086868D01*
X0085573Y0085115D02*
X0088138Y0085115D01*
X0058852Y0071044D02*
X0058852Y0080162D01*
X0065938Y0087249D01*
X0089408Y0081915D02*
X0089408Y0084938D01*
X0068326Y0053721D02*
X0068580Y0053975D01*
X0048641Y0005334D02*
X0048641Y0007620D01*
X0065151Y0005207D02*
X0065151Y0009271D01*
X0063246Y0011176D02*
X0065151Y0009271D01*
X0060071Y0005334D02*
X0060071Y0008001D01*
X0058928Y0009144D02*
X0060071Y0008001D01*
X0062611Y0005334D02*
X0062611Y0008382D01*
X0062230Y0008763D02*
X0062611Y0008382D01*
X0084963Y0009855D02*
X0086106Y0008712D01*
X0114681Y0005334D02*
X0114681Y0010033D01*
X0114681Y0010160D02*
X0114808Y0010160D01*
X0114681Y0010160D02*
X0114808Y0010160D01*
X0113411Y0008255D02*
X0113919Y0008763D01*
X0113919Y0008890D01*
X0113919Y0008763D02*
X0113919Y0008890D01*
X0113411Y0005334D02*
X0113411Y0008255D01*
X0110871Y0005334D02*
X0110871Y0009398D01*
X0103251Y0005334D02*
X0103251Y0009398D01*
X0083439Y0017145D02*
X0089281Y0011303D01*
X0068580Y0008128D02*
X0068580Y0009906D01*
X0068580Y0008128D02*
X0068961Y0007747D01*
X0068961Y0005334D02*
X0068961Y0007747D01*
X0070231Y0005334D02*
X0070231Y0011684D01*
X0073279Y0011811D02*
X0074041Y0011049D01*
X0074041Y0005334D02*
X0074041Y0011049D01*
X0072517Y0011430D02*
X0072517Y0012573D01*
X0072517Y0011430D02*
X0073533Y0010414D01*
X0073533Y0009525D02*
X0073533Y0010414D01*
X0072771Y0008763D02*
X0073533Y0009525D01*
X0072771Y0005334D02*
X0072771Y0008763D01*
X0076073Y0007874D02*
X0076581Y0007366D01*
X0076581Y0005334D02*
X0076581Y0007366D01*
X0079883Y0008636D02*
X0079883Y0012446D01*
X0079883Y0008636D02*
X0080391Y0008128D01*
X0080391Y0005334D02*
X0080391Y0008128D01*
X0082804Y0009906D02*
X0083185Y0009906D01*
X0083820Y0009271D01*
X0083820Y0008636D02*
X0083820Y0009271D01*
X0083820Y0008636D02*
X0084201Y0008255D01*
X0084201Y0005334D02*
X0084201Y0008255D01*
X0084963Y0009855D02*
X0084963Y0010795D01*
X0086106Y0008255D02*
X0086106Y0008712D01*
X0086106Y0008255D02*
X0086741Y0007620D01*
X0086741Y0005334D02*
X0086741Y0007620D01*
X0089281Y0005334D02*
X0089281Y0011303D01*
X0109093Y0010160D02*
X0109982Y0009271D01*
X0109982Y0008763D02*
X0109982Y0009271D01*
X0109601Y0008382D02*
X0109982Y0008763D01*
X0109601Y0005334D02*
X0109601Y0008382D01*
X0107061Y0005334D02*
X0107061Y0011811D01*
X0101981Y0010668D02*
X0103251Y0009398D01*
X0098806Y0012319D02*
X0100076Y0012319D01*
X0100711Y0011684D01*
X0100711Y0005334D02*
X0100711Y0011684D01*
X0098933Y0009906D02*
X0099060Y0010033D01*
X0098933Y0008636D02*
X0098933Y0009906D01*
X0098933Y0008636D02*
X0099441Y0008128D01*
X0099441Y0005334D02*
X0099441Y0008128D01*
X0096647Y0010287D02*
X0096901Y0010033D01*
X0096901Y0005334D02*
X0096901Y0010033D01*
X0080899Y0014605D02*
X0081661Y0013843D01*
X0081661Y0005334D02*
X0081661Y0013843D01*
X0094361Y0010287D02*
X0095504Y0010288D01*
X0096393Y0008509D02*
X0096393Y0009398D01*
X0095631Y0007747D02*
X0096393Y0008509D01*
X0095631Y0005207D02*
X0095631Y0007747D01*
X0082296Y0048387D02*
X0082296Y0049022D01*
X0082296Y0048387D02*
X0082804Y0047879D01*
X0083693Y0049022D02*
X0083947Y0049022D01*
X0083947Y0048133D02*
X0083947Y0049022D01*
X0083947Y0048133D02*
X0084074Y0048006D01*
X0085217Y0048006D02*
X0085217Y0049022D01*
X0082550Y0050673D02*
X0082550Y0050927D01*
X0083185Y0051562D01*
X0067437Y0061620D02*
X0087452Y0081610D01*
X0087452Y0081915D01*
X0067005Y0051079D02*
X0067005Y0062052D01*
X0067437Y0048489D02*
X0067755Y0048806D01*
X0085090Y0080137D02*
X0085090Y0081915D01*
X0067005Y0062052D02*
X0085090Y0080137D01*
X0082347Y0078283D02*
X0082347Y0081915D01*
X0066548Y0062484D02*
X0082347Y0078283D01*
X0079121Y0075921D02*
X0079121Y0082042D01*
X0066142Y0062941D02*
X0079121Y0075921D01*
X0065735Y0051130D02*
X0065735Y0063424D01*
X0074549Y0072238D02*
X0074549Y0082042D01*
X0065735Y0063424D02*
X0074549Y0072238D01*
X0064389Y0051689D02*
X0065329Y0052629D01*
X0065329Y0063881D01*
X0071374Y0069926D02*
X0071374Y0081915D01*
X0065329Y0063881D02*
X0071374Y0069926D01*
X0063373Y0050419D02*
X0063373Y0051308D01*
X0068326Y0081915D02*
X0068351Y0067742D01*
X0062230Y0050800D02*
X0064567Y0053137D01*
X0064567Y0064897D01*
X0065659Y0065989D02*
X0065659Y0082042D01*
X0064567Y0064897D02*
X0065659Y0065989D01*
X0047498Y0072517D02*
X0055880Y0072517D01*
X0047371Y0072390D02*
X0047498Y0072517D01*
X0056515Y0073279D02*
X0056642Y0073279D01*
X0047117Y0073279D02*
X0056642Y0073279D01*
X0046228Y0072390D02*
X0047117Y0073279D01*
X0045644Y0074092D02*
X0055880Y0074092D01*
X0044729Y0074930D02*
X0056515Y0074930D01*
X0043891Y0075946D02*
X0044069Y0075768D01*
X0044679Y0076708D02*
X0056540Y0076708D01*
X0050241Y0077546D02*
X0055880Y0077546D01*
X0049784Y0077089D02*
X0050241Y0077546D01*
X0046838Y0077089D02*
X0049784Y0077089D01*
X0046558Y0077368D02*
X0046838Y0077089D01*
X0047498Y0077978D02*
X0048387Y0078867D01*
X0056515Y0078867D01*
X0063367Y0056140D02*
X0063373Y0056134D01*
X0049276Y0080391D02*
X0056515Y0080391D01*
X0047879Y0081788D02*
X0049276Y0080391D01*
X0047346Y0083693D02*
X0051029Y0083693D01*
X0049098Y0085344D02*
X0057455Y0085344D01*
X0050038Y0085852D02*
X0056769Y0085852D01*
X0050622Y0086487D02*
X0058928Y0086487D01*
X0061214Y0085014D02*
X0061214Y0087071D01*
X0057912Y0081712D02*
X0061214Y0085014D01*
X0049403Y0081712D02*
X0049403Y0081788D01*
X0060198Y0084582D02*
X0060198Y0087452D01*
X0057709Y0082093D02*
X0060198Y0084582D01*
X0044196Y0082525D02*
X0050063Y0082525D01*
X0044196Y0082423D02*
X0044196Y0082525D01*
X0048412Y0088697D02*
X0050622Y0086487D01*
X0049454Y0088697D02*
X0050902Y0087249D01*
X0084709Y0046355D02*
X0086360Y0048006D01*
X0068707Y0046355D02*
X0084709Y0046355D01*
X0086233Y0048133D02*
X0086233Y0049022D01*
X0086233Y0048133D02*
X0086360Y0048006D01*
X0087503Y0047498D02*
X0087503Y0049022D01*
X0087122Y0047117D02*
X0087503Y0047498D01*
X0088773Y0047117D02*
X0088773Y0049022D01*
X0088011Y0046355D02*
X0088773Y0047117D01*
X0064770Y0043942D02*
X0066040Y0042672D01*
X0083566Y0042672D01*
X0058928Y0009144D02*
X0058928Y0009779D01*
X0049276Y0034036D02*
X0051613Y0031699D01*
X0046990Y0034036D02*
X0049276Y0034036D01*
X0049784Y0032766D02*
X0051240Y0031318D01*
X0046990Y0032766D02*
X0049784Y0032766D01*
X0052324Y0034163D02*
X0052324Y0035560D01*
X0053086Y0032639D02*
X0053086Y0035560D01*
X0045085Y0034036D02*
X0046990Y0035941D01*
X0050063Y0082525D02*
X0050495Y0082093D01*
X0057709Y0082093D01*
X0057836Y0084963D02*
X0058928Y0084963D01*
X0057455Y0085344D02*
X0057836Y0084963D01*
X0056769Y0085852D02*
X0056896Y0085725D01*
X0058166Y0085725D01*
X0050902Y0087249D02*
X0058039Y0087249D01*
X0112268Y0023622D02*
X0116332Y0023622D01*
X0109220Y0026670D02*
X0112268Y0023622D01*
X0098806Y0026670D02*
X0109220Y0026670D01*
X0119888Y0054229D02*
X0119888Y0054356D01*
X0119888Y0054229D02*
X0120523Y0053594D01*
X0120523Y0051943D02*
X0120523Y0053594D01*
X0119888Y0056007D02*
X0119888Y0056134D01*
X0120904Y0057150D01*
X0123444Y0057150D01*
X0123571Y0057023D01*
X0123571Y0055245D02*
X0123571Y0057023D01*
X0126492Y0055880D02*
X0126492Y0057150D01*
X0125222Y0055880D02*
X0126492Y0055880D01*
X0125222Y0055880D02*
X0125222Y0057150D01*
X0126492Y0057150D01*
X0125222Y0053975D02*
X0125222Y0054229D01*
X0125222Y0053975D02*
X0126111Y0053086D01*
X0126238Y0051689D02*
X0126238Y0052959D01*
X0127889Y0051689D02*
X0128270Y0051689D01*
X0129921Y0053340D01*
X0127762Y0054229D02*
X0128651Y0053340D01*
X0126492Y0054229D02*
X0127762Y0054229D01*
X0127762Y0055880D02*
X0127889Y0055880D01*
X0127889Y0057150D01*
X0128524Y0057150D02*
X0130048Y0055626D01*
X0128016Y0057150D02*
X0128524Y0057150D01*
X0087884Y0051562D02*
X0088773Y0050673D01*
X0083185Y0051816D02*
X0083439Y0051562D01*
X0083693Y0050673D02*
X0083693Y0051562D01*
X0084963Y0050673D02*
X0084963Y0051562D01*
X0086233Y0050673D02*
X0086233Y0051562D01*
X0087503Y0050673D02*
X0087503Y0051562D01*
X0083439Y0051562D02*
X0087884Y0051562D01*
X0150368Y0037973D02*
X0150368Y0038735D01*
X0147726Y0035331D02*
X0150368Y0037973D01*
X0145263Y0035331D02*
X0147726Y0035331D01*
X0150368Y0033147D02*
X0150368Y0034798D01*
X0150873Y0035306D01*
X0152400Y0050800D02*
X0152400Y0052070D01*
X0154305Y0054610D02*
X0154686Y0054991D01*
X0158623Y0054991D01*
X0160655Y0052959D01*
X0160655Y0048641D02*
X0160655Y0052959D01*
X0154305Y0051435D02*
X0155448Y0051435D01*
X0154305Y0050800D02*
X0154305Y0054610D01*
X0162560Y0048641D02*
X0165735Y0048641D01*
X0167005Y0047371D01*
X0181864Y0047371D01*
X0134239Y0018796D02*
X0135001Y0019558D01*
X0120650Y0059182D02*
X0120650Y0063881D01*
X0118364Y0066167D02*
X0120650Y0063881D01*
X0103632Y0035306D02*
X0103632Y0058293D01*
X0053086Y0035560D02*
X0054356Y0036830D01*
X0054356Y0040005D01*
X0053848Y0033655D02*
X0053848Y0034925D01*
X0058420Y0035484D02*
X0058649Y0035255D01*
X0058928Y0037033D02*
X0059690Y0036271D01*
X0056134Y0060325D02*
X0056134Y0066929D01*
X0055753Y0059944D02*
X0056134Y0060325D01*
X0055753Y0058801D02*
X0055753Y0059944D01*
X0055753Y0058801D02*
X0056515Y0058039D01*
X0054610Y0058928D02*
X0055499Y0058039D01*
X0049022Y0043942D02*
X0052451Y0040513D01*
X0054737Y0042037D02*
X0055118Y0041656D01*
X0055118Y0036195D02*
X0055118Y0041656D01*
X0053848Y0034925D02*
X0055118Y0036195D01*
X0053594Y0036830D02*
X0053594Y0042164D01*
X0049403Y0065913D02*
X0051435Y0067945D01*
X0053340Y0047752D02*
X0053340Y0048260D01*
X0053340Y0047752D02*
X0055499Y0045593D01*
X0059309Y0055753D02*
X0059690Y0056134D01*
X0059309Y0045847D02*
X0059309Y0055753D01*
X0059309Y0045847D02*
X0059690Y0045466D01*
X0059690Y0037338D02*
X0059690Y0045466D01*
X0064135Y0065634D02*
X0064516Y0066015D01*
X0064516Y0082169D01*
X0064948Y0064338D02*
X0068351Y0067742D01*
X0064948Y0052883D02*
X0064948Y0064338D01*
X0063373Y0051308D02*
X0064948Y0052883D01*
X0066345Y0046228D02*
X0067310Y0046228D01*
X0063297Y0049276D02*
X0066345Y0046228D01*
X0062611Y0049276D02*
X0063297Y0049276D01*
X0061595Y0048260D02*
X0062611Y0049276D01*
X0053213Y0057404D02*
X0053594Y0057023D01*
X0053213Y0057404D02*
X0053213Y0067056D01*
X0052324Y0067945D02*
X0053213Y0067056D01*
X0051435Y0067945D02*
X0052324Y0067945D01*
X0055499Y0037084D02*
X0058042Y0034541D01*
X0059306Y0034541D01*
X0061417Y0036652D01*
X0068250Y0036652D01*
X0069596Y0035306D01*
X0060477Y0034671D02*
X0062967Y0034671D01*
X0059690Y0033884D02*
X0060477Y0034671D01*
X0059690Y0032004D02*
X0059690Y0033884D01*
X0062967Y0034671D02*
X0063170Y0034874D01*
X0064287Y0034874D01*
X0065049Y0035636D01*
X0068174Y0035636D01*
X0062230Y0032004D02*
X0062230Y0032537D01*
X0063754Y0034061D01*
X0064694Y0034061D01*
X0065557Y0034925D01*
X0062230Y0026416D02*
X0062230Y0027356D01*
X0063297Y0028423D01*
X0063500Y0026416D02*
X0063500Y0027584D01*
X0064313Y0028397D01*
X0064770Y0026416D02*
X0064770Y0027153D01*
X0065075Y0027457D01*
X0065075Y0028651D01*
X0064643Y0029083D02*
X0065075Y0028651D01*
X0066040Y0026416D02*
X0066040Y0028397D01*
X0058217Y0031699D02*
X0059309Y0030607D01*
X0051613Y0031699D02*
X0058217Y0031699D01*
X0059131Y0030226D02*
X0063754Y0030226D01*
X0058039Y0031318D02*
X0059131Y0030226D01*
X0051240Y0031318D02*
X0058039Y0031318D01*
X0067310Y0031267D02*
X0067310Y0032004D01*
X0065888Y0029845D02*
X0067310Y0031267D01*
X0058852Y0029845D02*
X0065888Y0029845D01*
X0057760Y0030937D02*
X0058852Y0029845D01*
X0050978Y0030937D02*
X0057760Y0030937D01*
X0050419Y0031496D02*
X0050978Y0030937D01*
X0046990Y0031496D02*
X0050419Y0031496D01*
X0067310Y0026416D02*
X0067310Y0028346D01*
X0066192Y0029464D02*
X0067310Y0028346D01*
X0058674Y0029464D02*
X0066192Y0029464D01*
X0057734Y0028524D02*
X0058674Y0029464D01*
X0056718Y0028524D02*
X0057734Y0028524D01*
X0058903Y0029083D02*
X0064643Y0029083D01*
X0057963Y0028143D02*
X0058903Y0029083D01*
X0050978Y0028143D02*
X0057963Y0028143D01*
X0050165Y0028956D02*
X0050978Y0028143D01*
X0046990Y0028956D02*
X0050165Y0028956D01*
X0058852Y0027940D02*
X0060706Y0027940D01*
X0058547Y0027635D02*
X0058852Y0027940D01*
X0057607Y0026695D02*
X0058547Y0027635D01*
X0050063Y0026695D02*
X0057607Y0026695D01*
X0049073Y0027686D02*
X0050063Y0026695D01*
X0046990Y0027686D02*
X0049073Y0027686D01*
X0063500Y0032004D02*
X0063500Y0032715D01*
X0064338Y0033553D01*
X0066116Y0033553D01*
X0067488Y0034925D01*
X0067056Y0033757D02*
X0068605Y0033757D01*
X0066040Y0032741D02*
X0067056Y0033757D01*
X0066040Y0032004D02*
X0066040Y0032741D01*
X0068580Y0026416D02*
X0068580Y0028092D01*
X0050038Y0022987D02*
X0051054Y0024003D01*
X0048006Y0022987D02*
X0050038Y0022987D01*
X0047498Y0023495D02*
X0048006Y0022987D01*
X0050419Y0022606D02*
X0051435Y0023622D01*
X0046355Y0022987D02*
X0047371Y0022987D01*
X0050292Y0021717D02*
X0051816Y0023241D01*
X0046355Y0021717D02*
X0050292Y0021717D01*
X0049911Y0020447D02*
X0052324Y0022860D01*
X0046355Y0020447D02*
X0049911Y0020447D01*
X0078689Y0028626D02*
X0078689Y0032004D01*
X0078054Y0027991D02*
X0078689Y0028626D01*
X0078054Y0025248D02*
X0078054Y0027991D01*
X0075286Y0022479D02*
X0078054Y0025248D01*
X0053772Y0022479D02*
X0075286Y0022479D01*
X0050470Y0019177D02*
X0053772Y0022479D01*
X0046355Y0019177D02*
X0050470Y0019177D01*
X0078689Y0024943D02*
X0078689Y0026416D01*
X0075844Y0022098D02*
X0078689Y0024943D01*
X0054153Y0022098D02*
X0075844Y0022098D01*
X0049962Y0017907D02*
X0054153Y0022098D01*
X0046355Y0017907D02*
X0049962Y0017907D01*
X0068174Y0035636D02*
X0071069Y0032741D01*
X0071069Y0032004D02*
X0071069Y0032741D01*
X0079959Y0026416D02*
X0079959Y0028118D01*
X0088773Y0032004D02*
X0088773Y0032512D01*
X0085217Y0036068D02*
X0088773Y0032512D01*
X0084303Y0029235D02*
X0086233Y0027305D01*
X0086233Y0026416D02*
X0086233Y0027305D01*
X0085293Y0029743D02*
X0086081Y0029743D01*
X0088773Y0027051D01*
X0088773Y0026416D02*
X0088773Y0027051D01*
X0084455Y0034493D02*
X0084455Y0034544D01*
X0084455Y0034493D02*
X0086233Y0032715D01*
X0086233Y0031979D02*
X0086233Y0032715D01*
X0081940Y0034544D02*
X0083109Y0034544D01*
X0084963Y0032690D01*
X0084963Y0032004D02*
X0084963Y0032690D01*
X0083591Y0028448D02*
X0084963Y0027076D01*
X0084963Y0026416D02*
X0084963Y0027076D01*
X0083693Y0030277D02*
X0083693Y0032004D01*
X0082779Y0029362D02*
X0083693Y0030277D01*
X0082779Y0028016D02*
X0082779Y0029362D01*
X0082779Y0028016D02*
X0083058Y0027737D01*
X0083058Y0022682D02*
X0083058Y0027737D01*
X0079959Y0019583D02*
X0083058Y0022682D01*
X0052476Y0019583D02*
X0079959Y0019583D01*
X0049533Y0016640D02*
X0052476Y0019583D01*
X0046355Y0016637D02*
X0049533Y0016640D01*
X0083693Y0022733D02*
X0083693Y0026416D01*
X0080162Y0019202D02*
X0083693Y0022733D01*
X0052761Y0019202D02*
X0080162Y0019202D01*
X0048926Y0015367D02*
X0052761Y0019202D01*
X0046355Y0015367D02*
X0048926Y0015367D01*
X0090043Y0026416D02*
X0090043Y0027102D01*
X0091516Y0028575D01*
X0094336Y0028575D01*
X0094463Y0030023D02*
X0097688Y0026797D01*
X0097688Y0025273D02*
X0097688Y0026797D01*
X0097688Y0025273D02*
X0104140Y0018796D01*
X0093726Y0031750D02*
X0098806Y0026670D01*
X0093726Y0031750D02*
X0093726Y0034798D01*
X0090043Y0031471D02*
X0090043Y0032004D01*
X0090043Y0031471D02*
X0090625Y0030889D01*
X0090726Y0030889D01*
X0091592Y0030023D01*
X0094463Y0030023D01*
X0087503Y0031318D02*
X0087503Y0032004D01*
X0087503Y0031318D02*
X0088570Y0030251D01*
X0089103Y0030251D01*
X0089865Y0029489D01*
X0094457Y0029489D01*
X0095250Y0028697D01*
X0095250Y0028092D02*
X0095250Y0028697D01*
X0082423Y0032004D02*
X0082423Y0032690D01*
X0080340Y0034773D02*
X0082423Y0032690D01*
X0072898Y0034773D02*
X0080340Y0034773D01*
X0071069Y0032944D02*
X0072898Y0034773D01*
X0071069Y0032741D02*
X0071069Y0032944D01*
X0160655Y0030099D02*
X0162941Y0032385D01*
X0151638Y0030099D02*
X0160655Y0030099D01*
X0151638Y0030099D02*
X0151638Y0033274D01*
X0149479Y0029337D02*
X0150876Y0029337D01*
X0151638Y0030099D01*
X0017374Y0023749D02*
X0027026Y0023749D01*
X0014351Y0026772D02*
X0017374Y0023749D01*
X0010541Y0026772D02*
X0014351Y0026772D01*
X0025400Y0024663D02*
X0025476Y0024663D01*
X0026035Y0025222D01*
X0026670Y0025222D01*
X0027026Y0023749D02*
X0027661Y0024384D01*
X0025781Y0028702D02*
X0025781Y0028981D01*
X0025781Y0028702D02*
X0026365Y0028118D01*
X0131572Y0108839D02*
X0132207Y0109474D01*
X0124333Y0108839D02*
X0131572Y0108839D01*
X0122174Y0110998D02*
X0124333Y0108839D01*
X0133477Y0109474D02*
X0133477Y0110236D01*
X0132461Y0108458D02*
X0133477Y0109474D01*
X0122174Y0108458D02*
X0132461Y0108458D01*
X0133477Y0104648D02*
X0133477Y0105410D01*
X0134112Y0106045D01*
X0134112Y0107061D01*
X0123571Y0107188D02*
X0124333Y0107950D01*
X0133223Y0107950D01*
X0134112Y0107061D01*
X0036957Y0024257D02*
X0036957Y0090526D01*
X0039878Y0019177D02*
X0040767Y0019177D01*
X0038862Y0020193D02*
X0039878Y0019177D01*
X0038862Y0020193D02*
X0038862Y0021559D01*
X0036576Y0023845D02*
X0038862Y0021559D01*
X0036576Y0023845D02*
X0036576Y0090703D01*
X0040005Y0017907D02*
X0040767Y0017907D01*
X0038481Y0019431D02*
X0040005Y0017907D01*
X0038481Y0019431D02*
X0038481Y0021401D01*
X0036195Y0023687D02*
X0038481Y0021401D01*
X0036195Y0023687D02*
X0036195Y0063119D01*
X0040132Y0016637D02*
X0040767Y0016637D01*
X0038100Y0018669D02*
X0040132Y0016637D01*
X0038100Y0018669D02*
X0038100Y0021244D01*
X0035814Y0023530D02*
X0038100Y0021244D01*
X0035814Y0023530D02*
X0035814Y0062205D01*
X0040005Y0015367D02*
X0040767Y0015367D01*
X0037719Y0017653D02*
X0040005Y0015367D01*
X0036957Y0024130D02*
X0036957Y0024257D01*
X0036957Y0024130D02*
X0039243Y0021844D01*
X0039243Y0021209D02*
X0039243Y0021844D01*
X0039243Y0021209D02*
X0040005Y0020447D01*
X0040767Y0020447D01*
X0037719Y0017653D02*
X0037719Y0021086D01*
X0035433Y0023372D02*
X0037719Y0021086D01*
X0035433Y0023372D02*
X0035433Y0061290D01*
X0030607Y0033020D02*
X0031496Y0033909D01*
X0031496Y0034544D01*
X0034671Y0037719D01*
X0034671Y0059690D01*
X0031090Y0035433D02*
X0031115Y0035433D01*
X0031090Y0035433D02*
X0034290Y0038633D01*
X0046990Y0026416D02*
X0047625Y0026416D01*
X0048387Y0025654D01*
X0048387Y0024892D02*
X0048387Y0025654D01*
X0047498Y0024003D02*
X0048387Y0024892D01*
X0047498Y0023495D02*
X0047498Y0024003D01*
X0034290Y0038633D02*
X0034290Y0059436D01*
X0035128Y0061595D02*
X0035433Y0061290D01*
X0035509Y0062509D02*
X0035814Y0062205D01*
X0035865Y0063449D02*
X0036195Y0063119D01*
X0034163Y0060198D02*
X0034671Y0059690D01*
X0034163Y0060198D02*
X0034163Y0063373D01*
X0033782Y0059944D02*
X0034290Y0059436D01*
X0033782Y0059944D02*
X0033782Y0063754D01*
X0018034Y0103683D02*
X0022606Y0099111D01*
X0018034Y0103683D02*
X0018034Y0122403D01*
X0013538Y0126898D02*
X0018034Y0122403D01*
X0013538Y0126898D02*
X0013538Y0131293D01*
X0015240Y0132994D01*
X0043536Y0132994D01*
X0047498Y0129032D01*
X0034671Y0105639D02*
X0034671Y0124333D01*
X0032258Y0126746D02*
X0034671Y0124333D01*
X0032258Y0126746D02*
X0032258Y0129413D01*
X0030988Y0130683D02*
X0032258Y0129413D01*
X0035052Y0106274D02*
X0035052Y0127000D01*
X0034798Y0127254D02*
X0035052Y0127000D01*
X0034798Y0127254D02*
X0034798Y0129413D01*
X0033528Y0130683D02*
X0034798Y0129413D01*
X0035433Y0106909D02*
X0035433Y0125476D01*
X0037338Y0127381D01*
X0037338Y0129413D01*
X0036068Y0130683D02*
X0037338Y0129413D01*
X0034671Y0105639D02*
X0038227Y0102083D01*
X0035052Y0106274D02*
X0038227Y0103099D01*
X0035433Y0106909D02*
X0039776Y0102565D01*
X0034036Y0094463D02*
X0039345Y0099746D01*
X0062179Y0099746D01*
X0065811Y0103353D01*
X0034417Y0094209D02*
X0039446Y0099289D01*
X0062865Y0099289D01*
X0066954Y0103378D01*
X0067742Y0103378D01*
X0084277Y0098628D02*
X0084277Y0100101D01*
X0085496Y0102768D02*
X0086436Y0103708D01*
X0086436Y0104546D01*
X0087300Y0105410D01*
X0084277Y0100101D02*
X0085496Y0101321D01*
X0085496Y0102768D01*
X0085293Y0099009D02*
X0090805Y0099009D01*
X0093320Y0101524D01*
X0093320Y0102540D01*
X0086487Y0098298D02*
X0090729Y0098298D01*
X0093294Y0100863D01*
X0098069Y0100863D01*
X0098730Y0101524D01*
X0098730Y0102616D01*
X0099619Y0103505D01*
X0091719Y0105512D02*
X0092634Y0105512D01*
X0111912Y0096266D02*
X0159741Y0096266D01*
X0107325Y0093320D02*
X0111414Y0097409D01*
X0106984Y0094082D02*
X0111074Y0098171D01*
X0143586Y0098171D01*
X0106617Y0094844D02*
X0110693Y0098933D01*
X0143688Y0098933D01*
X0106401Y0095225D02*
X0110490Y0099314D01*
X0143510Y0099314D01*
X0106223Y0095606D02*
X0110312Y0099695D01*
X0143332Y0099695D01*
X0106045Y0095987D02*
X0110134Y0100076D01*
X0143154Y0100076D01*
X0106401Y0104140D02*
X0107772Y0104140D01*
X0101930Y0099670D02*
X0106401Y0104140D01*
X0094234Y0100178D02*
X0094539Y0100482D01*
X0039243Y0114300D02*
X0041656Y0114300D01*
X0044577Y0114300D01*
X0045212Y0113665D01*
X0051435Y0113665D01*
X0052070Y0114300D01*
X0135433Y0057125D02*
X0135433Y0058064D01*
X0137541Y0058141D02*
X0137566Y0058115D01*
X0137566Y0057150D02*
X0137566Y0058115D01*
X0136779Y0057150D02*
X0138176Y0057150D01*
X0140106Y0057912D02*
X0140614Y0058420D01*
X0140106Y0057099D02*
X0140106Y0057912D01*
X0061087Y0074041D02*
X0061087Y0075311D01*
X0060325Y0076073D02*
X0061087Y0075311D01*
X0060706Y0073660D02*
X0061087Y0074041D01*
X0060706Y0070866D02*
X0060706Y0073660D01*
X0060325Y0076073D02*
X0060325Y0079502D01*
X0056896Y0067056D02*
X0060706Y0070866D01*
X0056896Y0062230D02*
X0056896Y0067056D01*
X0056820Y0096698D02*
X0063805Y0096698D01*
X0056515Y0061849D02*
X0056896Y0062230D01*
X0056515Y0059309D02*
X0056515Y0061849D01*
X0056515Y0059182D02*
X0056515Y0059309D01*
X0087071Y0065126D02*
X0087173Y0065202D01*
X0086208Y0065100D02*
X0086208Y0065634D01*
X0087071Y0066497D01*
X0087071Y0066523D01*
X0084633Y0069393D02*
X0085877Y0069393D01*
X0084633Y0068809D02*
X0084633Y0069952D01*
X0085420Y0067031D02*
X0085420Y0067894D01*
X0087020Y0067894D01*
X0087046Y0068072D02*
X0087046Y0069444D01*
X0080340Y0067005D02*
X0080340Y0068478D01*
X0079908Y0068910D02*
X0080340Y0068478D01*
X0077800Y0067031D02*
X0077800Y0068961D01*
X0077794Y0062845D02*
X0078506Y0062845D01*
X0079064Y0062287D01*
X0079064Y0061398D02*
X0079064Y0062287D01*
X0077800Y0061443D02*
X0077800Y0067031D01*
X0083922Y0058242D02*
X0084049Y0058242D01*
X0083515Y0058649D02*
X0083922Y0058242D01*
X0080823Y0058649D02*
X0083515Y0058649D01*
X0079731Y0063449D02*
X0079732Y0059740D01*
X0079731Y0063449D02*
X0081407Y0065126D01*
X0077800Y0068936D02*
X0077800Y0070891D01*
X0107798Y0092177D02*
X0111905Y0096266D01*
X0040640Y0034036D02*
X0041402Y0034036D01*
X0040386Y0034290D02*
X0040640Y0034036D01*
X0040386Y0034290D02*
X0040386Y0088951D01*
X0043612Y0092177D01*
X0107798Y0092177D01*
X0159741Y0096266D02*
X0171729Y0084303D01*
X0174269Y0084303D01*
X0176606Y0081966D01*
X0176606Y0060198D02*
X0176606Y0081966D01*
X0176606Y0060198D02*
X0187528Y0049276D01*
X0191516Y0037846D02*
X0191516Y0047041D01*
X0159918Y0096647D02*
X0171893Y0084684D01*
X0110236Y0043942D02*
X0114935Y0043942D01*
X0104648Y0038354D02*
X0110236Y0043942D01*
X0104648Y0034798D02*
X0104648Y0038354D01*
X0105664Y0037846D02*
X0110998Y0043180D01*
X0105664Y0034696D02*
X0105664Y0037846D01*
X0099695Y0028727D02*
X0105664Y0034696D01*
X0095072Y0074828D02*
X0095072Y0077826D01*
X0092888Y0072619D02*
X0095072Y0074828D01*
X0085420Y0072619D02*
X0092888Y0072619D01*
X0023241Y0099568D02*
X0029540Y0099568D01*
X0019431Y0103378D02*
X0023241Y0099568D01*
X0019431Y0103378D02*
X0019431Y0113030D01*
X0038227Y0114427D02*
X0039497Y0114427D01*
X0038227Y0112903D02*
X0039497Y0112903D01*
X0048514Y0114300D02*
X0048514Y0115570D01*
X0088519Y0121920D02*
X0088519Y0123190D01*
X0080518Y0123190D02*
X0080518Y0124460D01*
X0095250Y0104267D02*
X0096266Y0105283D01*
X0095250Y0103657D02*
X0095250Y0104267D01*
X0094767Y0103175D02*
X0095250Y0103657D01*
X0093955Y0103175D02*
X0094767Y0103175D01*
X0093320Y0102540D02*
X0093955Y0103175D01*
X0141351Y0045720D02*
X0142545Y0046914D01*
X0142748Y0046863D02*
X0143332Y0047447D01*
X0150089Y0048133D02*
X0151228Y0046993D01*
X0148438Y0048133D02*
X0150089Y0048133D01*
X0144221Y0048514D02*
X0144653Y0048946D01*
X0146228Y0048946D01*
X0146787Y0048387D01*
X0151765Y0048260D02*
X0152756Y0048260D01*
X0168910Y0033909D02*
X0170002Y0033909D01*
X0108483Y0030277D02*
X0110033Y0028727D01*
X0108483Y0030277D02*
X0108483Y0030658D01*
X0107290Y0031852D02*
X0108483Y0030658D01*
X0106909Y0031852D02*
X0107290Y0031852D01*
X0045085Y0032563D02*
X0045085Y0034036D01*
X0025146Y0028067D02*
X0025781Y0028702D01*
X0027661Y0026010D02*
X0027661Y0028651D01*
X0026416Y0026289D02*
X0027661Y0026289D01*
X0025019Y0026238D02*
X0026035Y0025222D01*
X0029667Y0026721D02*
X0029896Y0026492D01*
X0028956Y0026721D02*
X0029667Y0026721D01*
X0028931Y0025222D02*
X0029896Y0025222D01*
X0028956Y0026721D02*
X0028956Y0028575D01*
X0034671Y0027737D02*
X0034671Y0028880D01*
X0050038Y0065126D02*
X0050063Y0046482D01*
X0044958Y0050622D02*
X0045212Y0050622D01*
X0044958Y0049682D02*
X0044958Y0050622D01*
X0187579Y0049784D02*
X0189484Y0049784D01*
X0191897Y0047371D01*
X0187528Y0049276D02*
X0189281Y0049276D01*
X0191516Y0047041D01*
X0151511Y0051435D02*
X0152400Y0051435D01*
X0141021Y0045720D02*
X0141351Y0045720D01*
X0149098Y0038735D02*
X0149098Y0040132D01*
X0166624Y0038989D02*
X0166624Y0039624D01*
X0165862Y0040386D02*
X0166624Y0039624D01*
X0163322Y0040386D02*
X0165862Y0040386D01*
X0162941Y0040767D02*
X0163322Y0040386D01*
X0161671Y0040767D02*
X0162941Y0040767D01*
X0162941Y0038608D02*
X0164084Y0038608D01*
X0161544Y0038735D02*
X0161544Y0039751D01*
X0159131Y0041656D02*
X0159956Y0040831D01*
X0160020Y0039751D02*
X0160020Y0040894D01*
X0166497Y0045847D02*
X0167005Y0045339D01*
X0163576Y0047625D02*
X0164592Y0046609D01*
X0061849Y0120142D02*
X0061849Y0121285D01*
X0059944Y0117856D02*
X0059944Y0121285D01*
X0059309Y0115316D02*
X0059944Y0115951D01*
X0059309Y0112522D02*
X0059309Y0115316D01*
X0058547Y0111760D02*
X0059309Y0112522D01*
X0060884Y0123317D02*
X0060884Y0129972D01*
X0065913Y0135001D01*
X0143383Y0135001D01*
X0147066Y0131318D01*
X0174625Y0110490D02*
X0175641Y0111506D01*
X0147193Y0114046D02*
X0147193Y0116713D01*
X0163957Y0114173D02*
X0168275Y0114173D01*
X0112649Y0123825D02*
X0113538Y0124714D01*
X0147066Y0128397D02*
X0147066Y0131318D01*
X0146710Y0126009D02*
X0149454Y0125984D01*
X0145288Y0124587D02*
X0146710Y0126009D01*
X0139573Y0124587D02*
X0145288Y0124587D01*
X0137414Y0126746D02*
X0139573Y0124587D01*
X0137414Y0126746D02*
X0137414Y0129921D01*
X0134366Y0132969D02*
X0137414Y0129921D01*
X0115951Y0132969D02*
X0134366Y0132969D01*
X0113538Y0130556D02*
X0115951Y0132969D01*
X0113538Y0124714D02*
X0113538Y0130556D01*
X0153670Y0117754D02*
X0169570Y0117754D01*
X0171450Y0119634D01*
X0147066Y0110998D02*
X0147066Y0112141D01*
X0171958Y0043307D02*
X0172593Y0042672D01*
D66*
X0163830Y0131699D02*
X0164338Y0132207D01*
X0045720Y0056769D02*
X0045720Y0064160D01*
X0043688Y0054737D02*
X0045720Y0056769D01*
X0142875Y0103251D02*
X0143383Y0102743D01*
X0150571Y0022301D02*
X0186004Y0022301D01*
X0159537Y0095758D02*
X0171450Y0083845D01*
X0024333Y0102946D02*
X0028575Y0102946D01*
X0148819Y0095733D02*
X0148844Y0095758D01*
X0176403Y0020701D02*
X0176403Y0022301D01*
X0040894Y0064999D02*
X0041224Y0064973D01*
X0145796Y0090043D02*
X0148463Y0090043D01*
X0141834Y0094005D02*
X0145796Y0090043D01*
X0144653Y0081407D02*
X0144653Y0083693D01*
X0152146Y0084328D02*
X0152146Y0085217D01*
X0150927Y0086360D02*
X0152273Y0086360D01*
X0150876Y0084328D02*
X0150876Y0085979D01*
X0146533Y0090907D02*
X0148819Y0093193D01*
X0148819Y0095580D01*
X0139751Y0090221D02*
X0139751Y0090957D01*
X0139751Y0090221D02*
X0141224Y0090221D01*
X0142977Y0090145D02*
X0144196Y0090145D01*
X0139573Y0086995D02*
X0140741Y0085827D01*
X0121666Y0094005D02*
X0141834Y0094005D01*
X0121107Y0093447D02*
X0121666Y0094005D01*
X0119532Y0093447D02*
X0121107Y0093447D01*
X0117805Y0095174D02*
X0119532Y0093447D01*
X0112827Y0095174D02*
X0117805Y0095174D01*
X0105664Y0088011D02*
X0112827Y0095174D01*
X0096596Y0088011D02*
X0105664Y0088011D01*
X0095656Y0088951D02*
X0096596Y0088011D01*
X0083693Y0083795D02*
X0083693Y0084404D01*
X0084150Y0084861D01*
X0085090Y0083058D02*
X0085090Y0083820D01*
X0066116Y0088951D02*
X0095656Y0088951D01*
X0057734Y0080569D02*
X0066116Y0088951D01*
X0057734Y0072593D02*
X0057734Y0080569D01*
X0055626Y0070485D02*
X0057734Y0072593D01*
X0052121Y0070510D02*
X0055626Y0070485D01*
X0045720Y0064160D02*
X0052121Y0070510D01*
X0043688Y0023495D02*
X0043688Y0054737D01*
X0043688Y0023495D02*
X0044577Y0022606D01*
X0044577Y0021209D02*
X0044577Y0022606D01*
X0043815Y0020447D02*
X0044577Y0021209D01*
X0043815Y0011811D02*
X0043815Y0020447D01*
X0042291Y0010287D02*
X0043815Y0011811D01*
X0148844Y0095758D02*
X0159537Y0095758D01*
X0188163Y0032893D02*
X0192659Y0032893D01*
X0191008Y0039472D02*
X0191008Y0046863D01*
X0188163Y0036627D02*
X0191008Y0039472D01*
X0124689Y0022835D02*
X0125705Y0022835D01*
X0032766Y0067818D02*
X0033020Y0067564D01*
X0032766Y0067818D02*
X0032766Y0098679D01*
X0028575Y0102870D02*
X0032766Y0098679D01*
X0028575Y0102870D02*
X0028575Y0102946D01*
X0178054Y0097536D02*
X0182372Y0101854D01*
X0182372Y0106045D01*
X0176657Y0097384D02*
X0181356Y0102108D01*
X0181356Y0105283D01*
X0157861Y0108077D02*
X0167081Y0098857D01*
X0167081Y0097130D02*
X0167081Y0098857D01*
X0178486Y0084811D02*
X0178486Y0085725D01*
X0178486Y0084811D02*
X0183337Y0084811D01*
X0157836Y0104292D02*
X0157836Y0105588D01*
X0157836Y0104292D02*
X0164846Y0097282D01*
X0179476Y0077800D02*
X0185928Y0077800D01*
X0196520Y0087833D02*
X0196520Y0089256D01*
X0194691Y0129794D02*
X0196469Y0128016D01*
X0196469Y0125984D02*
X0196469Y0128016D01*
X0196469Y0125984D02*
X0200965Y0121488D01*
X0200965Y0092913D02*
X0200965Y0121488D01*
X0197307Y0089256D02*
X0200965Y0092913D01*
X0184963Y0089256D02*
X0197307Y0089256D01*
X0183413Y0090805D02*
X0184963Y0089256D01*
X0180467Y0090805D02*
X0183413Y0090805D01*
X0177927Y0090805D02*
X0179680Y0089052D01*
X0183642Y0089052D01*
X0187630Y0085065D01*
X0194462Y0085065D01*
X0199771Y0129794D02*
X0201549Y0128016D01*
X0201549Y0083922D02*
X0201549Y0128016D01*
X0197764Y0080137D02*
X0201549Y0083922D01*
X0197688Y0078588D02*
X0197688Y0078613D01*
X0197764Y0078689D01*
X0197764Y0080137D01*
X0190246Y0078588D02*
X0197688Y0078588D01*
X0177546Y0102743D02*
X0177546Y0104267D01*
X0192507Y0094640D02*
X0196342Y0090805D01*
X0190373Y0094640D02*
X0192507Y0094640D01*
X0187884Y0097130D02*
X0190373Y0094640D01*
X0185191Y0097130D02*
X0187884Y0097130D01*
X0183947Y0095885D02*
X0185191Y0097130D01*
X0180467Y0095885D02*
X0183947Y0095885D01*
X0177927Y0095885D02*
X0179984Y0097942D01*
X0188189Y0097942D01*
X0189992Y0099746D01*
X0189992Y0103149D01*
X0192786Y0105943D01*
X0194361Y0105994D02*
X0196342Y0104013D01*
X0196342Y0095885D02*
X0196342Y0104013D01*
X0198653Y0093116D02*
X0198653Y0097104D01*
X0196342Y0090805D02*
X0198653Y0093116D01*
X0143713Y0107366D02*
X0145034Y0106045D01*
X0145034Y0103378D02*
X0145034Y0106045D01*
X0144526Y0102870D02*
X0145034Y0103378D01*
X0143383Y0102870D02*
X0144526Y0102870D01*
X0142875Y0103251D02*
X0142875Y0104521D01*
X0194564Y0034798D02*
X0194564Y0035814D01*
X0192659Y0032893D02*
X0194564Y0034798D01*
X0186004Y0022301D02*
X0188163Y0024460D01*
X0148971Y0020701D02*
X0150571Y0022301D01*
X0185318Y0106858D02*
X0187071Y0106883D01*
X0176530Y0106756D02*
X0178054Y0106756D01*
X0190754Y0128524D02*
X0192024Y0127254D01*
X0186055Y0128524D02*
X0190754Y0128524D01*
X0184785Y0129794D02*
X0186055Y0128524D01*
X0184277Y0129794D02*
X0184785Y0129794D01*
X0186182Y0127254D02*
X0186944Y0127254D01*
X0184912Y0128524D02*
X0186182Y0127254D01*
X0182245Y0128524D02*
X0184912Y0128524D01*
X0180975Y0129794D02*
X0182245Y0128524D01*
X0179197Y0129794D02*
X0180975Y0129794D01*
X0041732Y0054813D02*
X0041732Y0055463D01*
X0042494Y0056225D01*
X0042494Y0057099D01*
X0042012Y0057582D02*
X0042494Y0057099D01*
X0044552Y0090018D02*
X0096850Y0090018D01*
X0044323Y0090551D02*
X0097917Y0090551D01*
X0044780Y0089484D02*
X0096342Y0089484D01*
X0097917Y0090322D02*
X0097917Y0090551D01*
X0042545Y0058217D02*
X0042545Y0063515D01*
X0042545Y0058217D02*
X0043129Y0057633D01*
X0043129Y0055804D02*
X0043129Y0057633D01*
X0042012Y0057582D02*
X0042012Y0063736D01*
X0043078Y0058826D02*
X0043078Y0063294D01*
X0043078Y0058826D02*
X0043434Y0058471D01*
X0105004Y0089027D02*
X0106807Y0090830D01*
X0096342Y0089484D02*
X0096799Y0089027D01*
X0044094Y0091084D02*
X0100101Y0091084D01*
X0041478Y0088468D02*
X0044094Y0091084D01*
X0042012Y0088240D02*
X0044323Y0090551D01*
X0042545Y0088011D02*
X0044552Y0090018D01*
X0043078Y0087782D02*
X0044780Y0089484D01*
X0043078Y0066726D02*
X0043078Y0087782D01*
X0043078Y0066726D02*
X0043586Y0066218D01*
X0043586Y0063802D02*
X0043586Y0066218D01*
X0043078Y0063294D02*
X0043586Y0063802D01*
X0042545Y0066497D02*
X0042545Y0088011D01*
X0042545Y0066497D02*
X0043053Y0065989D01*
X0043053Y0064023D02*
X0043053Y0065989D01*
X0042545Y0063515D02*
X0043053Y0064023D01*
X0042012Y0066269D02*
X0042012Y0088240D01*
X0042012Y0066269D02*
X0042520Y0065761D01*
X0041478Y0066015D02*
X0041478Y0088468D01*
X0042520Y0064244D02*
X0042520Y0065761D01*
X0042012Y0063736D02*
X0042520Y0064244D01*
X0041478Y0066015D02*
X0041986Y0065507D01*
X0041986Y0064465D02*
X0041986Y0065507D01*
X0041478Y0063957D02*
X0041986Y0064465D01*
X0041478Y0056642D02*
X0041478Y0063957D01*
X0089764Y0037668D02*
X0090780Y0037668D01*
X0092431Y0037668D02*
X0093447Y0037668D01*
X0022987Y0101600D02*
X0024333Y0102946D01*
X0022860Y0101600D02*
X0022987Y0101600D01*
X0022860Y0101600D02*
X0022987Y0101600D01*
X0026873Y0102972D02*
X0026873Y0103175D01*
X0022987Y0101600D02*
X0022987Y0114554D01*
X0096799Y0089027D02*
X0105004Y0089027D01*
X0096850Y0090018D02*
X0097307Y0089560D01*
X0099390Y0089560D01*
X0099390Y0089814D01*
X0130937Y0102997D02*
X0130937Y0104775D01*
X0188163Y0024460D02*
X0188163Y0036627D01*
X0176098Y0060020D02*
X0187350Y0048768D01*
X0176098Y0060020D02*
X0176098Y0081737D01*
X0173990Y0083845D02*
X0176098Y0081737D01*
X0171450Y0083845D02*
X0173990Y0083845D01*
X0003048Y0101092D02*
X0007747Y0096393D01*
X0016501Y0096393D01*
X0019050Y0093844D01*
X0019050Y0074930D02*
X0019050Y0093844D01*
X0005334Y0101092D02*
X0009398Y0097028D01*
X0016764Y0097028D01*
X0019812Y0093980D01*
X0019812Y0083312D02*
X0019812Y0093980D01*
X0153289Y0129794D02*
X0154178Y0129794D01*
X0155448Y0131064D01*
X0157353Y0131064D01*
X0162814Y0131699D02*
X0163830Y0131699D01*
X0019812Y0083312D02*
X0025019Y0078105D01*
X0019050Y0074930D02*
X0025019Y0068961D01*
X0019431Y0118110D02*
X0022987Y0114554D01*
X0148463Y0090043D02*
X0148971Y0090551D01*
X0155118Y0090551D01*
X0156489Y0089205D01*
X0187350Y0048768D02*
X0189103Y0048768D01*
X0191008Y0046863D01*
X0183896Y0102743D02*
X0183896Y0104267D01*
X0176657Y0101346D02*
X0177673Y0102362D01*
X0175768Y0101346D02*
X0175768Y0102489D01*
X0168656Y0101346D02*
X0176657Y0101346D01*
X0175514Y0104140D02*
X0175768Y0104140D01*
X0173482Y0106172D02*
X0175514Y0104140D01*
X0162941Y0108077D02*
X0164846Y0106172D01*
X0173482Y0106172D01*
X0157353Y0131064D02*
X0159258Y0132969D01*
X0014402Y0030988D02*
X0014402Y0033172D01*
X0014224Y0034798D02*
X0015570Y0034798D01*
X0017501Y0033782D02*
X0017501Y0034798D01*
X0019558Y0030988D02*
X0019558Y0033147D01*
X0019558Y0034798D02*
X0021361Y0034798D01*
X0021463Y0030734D02*
X0021463Y0033147D01*
X0021463Y0030734D02*
X0022479Y0029718D01*
X0009271Y0020193D02*
X0009271Y0020752D01*
X0009728Y0021209D01*
X0010414Y0020193D02*
X0010414Y0020472D01*
X0009728Y0021158D02*
X0010414Y0020472D01*
X0009271Y0017272D02*
X0009271Y0018491D01*
X0010414Y0017272D02*
X0010414Y0018466D01*
X0010414Y0015621D02*
X0011278Y0014757D01*
X0007823Y0015621D02*
X0009271Y0015621D01*
X0007747Y0015697D02*
X0007823Y0015621D01*
D67*
X0005334Y0046634D02*
X0005334Y0051308D01*
X0018923Y0046634D02*
X0018923Y0049276D01*
X0014707Y0046584D02*
X0014707Y0049251D01*
X0010033Y0046634D02*
X0010033Y0049276D01*
X0112522Y0128143D02*
X0112649Y0128270D01*
X0128651Y0109855D02*
X0129667Y0109855D01*
X0138684Y0122174D02*
X0149098Y0122174D01*
X0145161Y0120523D02*
X0145161Y0122174D01*
X0151638Y0124714D02*
X0153289Y0124714D01*
X0149098Y0122174D02*
X0151638Y0124714D01*
X0133985Y0120650D02*
X0133985Y0123190D01*
X0141605Y0117729D02*
X0141605Y0120523D01*
X0130937Y0117729D02*
X0130937Y0120523D01*
X0029210Y0013589D02*
X0029591Y0013970D01*
X0033655Y0013970D01*
X0034417Y0014732D01*
X0034798Y0014732D01*
X0032766Y0012573D02*
X0034671Y0010668D01*
X0031877Y0012573D02*
X0032766Y0012573D01*
X0148819Y0095580D02*
X0148819Y0095758D01*
X0040894Y0050673D02*
X0040894Y0088722D01*
X0043053Y0025400D02*
X0043053Y0048514D01*
X0042799Y0015367D02*
X0042799Y0025146D01*
X0111506Y0049149D02*
X0111506Y0054737D01*
X0110236Y0048260D02*
X0110236Y0054737D01*
X0111506Y0052578D02*
X0114300Y0052578D01*
X0109728Y0047752D02*
X0110236Y0048260D01*
X0112776Y0050419D02*
X0113157Y0050800D01*
X0074930Y0123190D02*
X0076454Y0121666D01*
X0074219Y0123190D02*
X0074930Y0123190D01*
X0109982Y0059182D02*
X0109982Y0059563D01*
X0112395Y0061976D01*
X0113030Y0061976D01*
X0117958Y0089408D02*
X0118618Y0089408D01*
X0112776Y0081305D02*
X0114275Y0081305D01*
X0166243Y0078613D02*
X0167894Y0078613D01*
X0150241Y0100457D02*
X0155804Y0106020D01*
X0155804Y0113690D01*
X0157861Y0115697D01*
X0140335Y0107950D02*
X0140335Y0109804D01*
X0112116Y0095758D02*
X0148819Y0095758D01*
X0151257Y0018898D02*
X0154330Y0018898D01*
X0199746Y0119634D02*
X0199746Y0121158D01*
X0105791Y0132918D02*
X0106299Y0132410D01*
X0106299Y0114808D02*
X0106299Y0129210D01*
X0106299Y0132410D01*
X0153162Y0119634D02*
X0153162Y0121158D01*
X0161036Y0119634D02*
X0161036Y0121158D01*
X0184302Y0119634D02*
X0184302Y0121158D01*
X0097917Y0059817D02*
X0097917Y0077368D01*
X0114224Y0103530D02*
X0118135Y0103530D01*
X0118135Y0121463D02*
X0118135Y0122555D01*
X0117983Y0122555D02*
X0118135Y0122555D01*
X0115316Y0122707D02*
X0116256Y0122707D01*
X0082880Y0096622D02*
X0082880Y0097612D01*
X0072873Y0096698D02*
X0072873Y0097485D01*
X0043840Y0091669D02*
X0108026Y0091669D01*
X0040894Y0088722D02*
X0043840Y0091669D01*
X0040894Y0050673D02*
X0043053Y0048514D01*
X0042799Y0025146D02*
X0043053Y0025400D01*
X0128397Y0022098D02*
X0129413Y0022098D01*
X0128397Y0020574D02*
X0129413Y0020574D01*
X0143383Y0020066D02*
X0145034Y0020066D01*
X0155321Y0028321D02*
X0170053Y0028321D01*
X0141097Y0072771D02*
X0141097Y0072898D01*
X0075082Y0100457D02*
X0076098Y0100457D01*
X0072238Y0100432D02*
X0073254Y0100432D01*
X0041529Y0014097D02*
X0042799Y0015367D01*
X0054610Y0009017D02*
X0055245Y0009652D01*
X0055245Y0011049D01*
X0011836Y0024257D02*
X0014376Y0024257D01*
X0003962Y0024257D02*
X0006502Y0024257D01*
X0013106Y0022606D02*
X0013106Y0024257D01*
X0005232Y0022606D02*
X0005232Y0024257D01*
X0006502Y0022606D02*
X0006502Y0024257D01*
X0003962Y0022606D02*
X0003962Y0024257D01*
X0014376Y0022606D02*
X0014376Y0024257D01*
X0011836Y0022606D02*
X0011836Y0024257D01*
X0048260Y0023749D02*
X0049022Y0024511D01*
X0098933Y0060452D02*
X0099441Y0059944D01*
X0098933Y0060452D02*
X0098933Y0079883D01*
X0097180Y0078105D02*
X0097917Y0077368D01*
X0097917Y0059817D02*
X0101346Y0056388D01*
X0112014Y0090551D02*
X0114681Y0090551D01*
X0110363Y0080518D02*
X0111354Y0079527D01*
X0117450Y0079527D01*
X0118872Y0078105D01*
X0118872Y0069723D02*
X0118872Y0078105D01*
X0118872Y0069723D02*
X0126111Y0062484D01*
X0130175Y0062484D01*
X0133477Y0059182D01*
X0133477Y0049657D02*
X0133477Y0059182D01*
X0133477Y0049657D02*
X0134747Y0048387D01*
X0041402Y0025146D02*
X0042799Y0025146D01*
X0040767Y0014097D02*
X0041529Y0014097D01*
X0117221Y0088646D02*
X0117958Y0089408D01*
X0110871Y0083312D02*
X0112141Y0083312D01*
X0112751Y0083134D02*
X0119101Y0083134D01*
X0113005Y0085725D02*
X0114275Y0085700D01*
X0124206Y0080391D02*
X0125222Y0080391D01*
X0124841Y0078613D02*
X0125095Y0078613D01*
X0124333Y0078105D02*
X0124841Y0078613D01*
X0124206Y0080391D02*
X0124206Y0081534D01*
X0122428Y0080391D02*
X0122428Y0081534D01*
X0127889Y0088265D02*
X0127889Y0089535D01*
X0128016Y0089535D01*
X0127762Y0087249D02*
X0127762Y0088265D01*
X0127508Y0087249D02*
X0127762Y0087249D01*
X0128905Y0087249D02*
X0128905Y0088265D01*
X0126365Y0089535D02*
X0126365Y0090551D01*
X0122936Y0087249D02*
X0122936Y0088265D01*
X0122809Y0087249D02*
X0122936Y0087249D01*
X0121158Y0088265D02*
X0122047Y0089154D01*
X0122047Y0089535D01*
X0121158Y0087249D02*
X0121158Y0088265D01*
X0131699Y0079883D02*
X0132969Y0079883D01*
X0132969Y0081534D02*
X0133858Y0082423D01*
X0132842Y0072009D02*
X0132969Y0072136D01*
X0133731Y0071374D01*
X0130302Y0073025D02*
X0131191Y0072136D01*
X0125730Y0070485D02*
X0125730Y0070612D01*
X0124714Y0071628D02*
X0125730Y0070612D01*
X0127254Y0069342D02*
X0127254Y0070485D01*
X0160909Y0068580D02*
X0162306Y0068580D01*
X0160020Y0062103D02*
X0160909Y0062103D01*
X0159893Y0062230D02*
X0160020Y0062103D01*
X0159893Y0063500D02*
X0160909Y0063500D01*
X0165227Y0062103D02*
X0166116Y0062103D01*
X0166243Y0062230D01*
X0165227Y0063500D02*
X0166243Y0063500D01*
X0171704Y0036068D02*
X0172720Y0037084D01*
X0171704Y0034417D02*
X0171704Y0036068D01*
X0182880Y0033782D02*
X0183769Y0034671D01*
X0172466Y0033249D02*
X0173025Y0033782D01*
X0181991Y0035306D02*
X0181991Y0036246D01*
X0178029Y0035306D02*
X0178029Y0036246D01*
X0173228Y0036195D02*
X0173914Y0035509D01*
X0153032Y0046990D02*
X0153543Y0046990D01*
X0153035Y0045720D02*
X0154051Y0045720D01*
X0152778Y0044958D02*
X0152778Y0045466D01*
X0151508Y0043053D02*
X0152651Y0043053D01*
X0138808Y0052578D02*
X0138808Y0053594D01*
X0102362Y0080899D02*
X0105283Y0080899D01*
X0102362Y0083541D02*
X0108712Y0083541D01*
X0102362Y0084963D02*
X0105054Y0084963D01*
X0130302Y0046863D02*
X0130302Y0048768D01*
X0124587Y0047117D02*
X0125476Y0048006D01*
X0125476Y0048768D01*
X0127762Y0045466D02*
X0127762Y0048768D01*
X0127635Y0042418D02*
X0127635Y0044323D01*
X0123698Y0041656D02*
X0123825Y0041783D01*
X0122555Y0041656D02*
X0123698Y0041656D01*
X0122936Y0043053D02*
X0124079Y0043053D01*
X0120015Y0046101D02*
X0120523Y0046609D01*
X0120523Y0047244D01*
X0118491Y0045212D02*
X0118491Y0046101D01*
X0043561Y0005334D02*
X0043561Y0010287D01*
X0070561Y0024511D02*
X0071069Y0025019D01*
X0071069Y0026416D01*
X0059690Y0024511D02*
X0059690Y0026416D01*
X0049276Y0023749D02*
X0050038Y0024511D01*
X0049022Y0024511D02*
X0070561Y0024511D01*
X0122555Y0039624D02*
X0123698Y0039624D01*
X0050673Y0016002D02*
X0052832Y0018161D01*
X0093599Y0018161D01*
X0097790Y0013970D01*
X0118618Y0013970D02*
X0121793Y0017145D01*
X0097790Y0013970D02*
X0118618Y0013970D01*
X0152778Y0045466D02*
X0153032Y0045720D01*
X0143764Y0030734D02*
X0146177Y0028321D01*
X0135890Y0036627D02*
X0144780Y0027661D01*
X0175489Y0033782D02*
X0175489Y0034671D01*
X0179705Y0033274D02*
X0179705Y0034671D01*
X0143764Y0030734D02*
X0143764Y0036373D01*
X0175514Y0036068D02*
X0175514Y0037084D01*
X0179705Y0036068D02*
X0179705Y0037084D01*
X0121793Y0017145D02*
X0127889Y0017145D01*
X0112776Y0049149D02*
X0112776Y0050419D01*
X0113030Y0059817D02*
X0113538Y0059817D01*
X0115062Y0058293D01*
X0110871Y0084988D02*
X0112522Y0084988D01*
X0111887Y0091948D02*
X0113665Y0091948D01*
X0115062Y0058293D02*
X0116205Y0058293D01*
X0114300Y0056642D02*
X0116205Y0056642D01*
X0113411Y0057531D02*
X0114300Y0056642D01*
X0106680Y0058928D02*
X0106680Y0059817D01*
X0106680Y0058928D02*
X0107315Y0058293D01*
X0110871Y0058293D01*
X0112395Y0059817D01*
X0108966Y0054737D02*
X0108966Y0055626D01*
X0113157Y0050800D02*
X0114300Y0050800D01*
X0164338Y0081280D02*
X0165862Y0081280D01*
X0163195Y0082931D02*
X0166116Y0082931D01*
X0169672Y0080010D02*
X0169672Y0080899D01*
X0166116Y0080899D02*
X0172466Y0080899D01*
X0163195Y0082931D02*
X0163195Y0084328D01*
X0106045Y0057277D02*
X0112776Y0057277D01*
X0105664Y0056896D02*
X0106045Y0057277D01*
X0118491Y0005334D02*
X0118491Y0009017D01*
X0108966Y0055626D02*
X0109601Y0056261D01*
X0139446Y0060960D02*
X0143510Y0056896D01*
X0147955Y0056896D01*
X0148844Y0056007D01*
X0148844Y0050419D02*
X0148844Y0056007D01*
X0173482Y0055626D02*
X0175514Y0053594D01*
X0173482Y0055626D02*
X0173482Y0068580D01*
X0171958Y0068580D02*
X0173482Y0068580D01*
X0163957Y0068580D02*
X0171958Y0068580D01*
X0167894Y0068580D02*
X0167894Y0078613D01*
X0118618Y0089408D02*
X0119761Y0090551D01*
X0121793Y0080391D02*
X0122428Y0080391D01*
X0121539Y0080645D02*
X0121793Y0080391D01*
X0121539Y0080645D02*
X0121539Y0084074D01*
X0124460Y0086995D01*
X0124460Y0089154D01*
X0120396Y0089535D02*
X0120396Y0090551D01*
X0123063Y0090551D02*
X0124460Y0089154D01*
X0119761Y0090551D02*
X0126365Y0090551D01*
X0141097Y0072898D02*
X0141097Y0081915D01*
X0141859Y0082677D01*
X0082423Y0025248D02*
X0082423Y0026416D01*
X0081712Y0024536D02*
X0082423Y0025248D01*
X0079959Y0024536D02*
X0081712Y0024536D01*
X0091313Y0032004D02*
X0091313Y0032969D01*
X0090602Y0033680D02*
X0091313Y0032969D01*
X0088595Y0033680D02*
X0090602Y0033680D01*
X0079959Y0032004D02*
X0080899Y0032004D01*
X0108712Y0021844D02*
X0108712Y0023622D01*
X0110617Y0021844D02*
X0112141Y0021844D01*
X0146177Y0028321D02*
X0155321Y0028321D01*
X0144780Y0027661D02*
X0170663Y0027661D01*
X0170053Y0028321D02*
X0170840Y0029108D01*
X0170840Y0035204D02*
X0171704Y0036068D01*
X0170840Y0029108D02*
X0170840Y0035204D01*
X0172466Y0029464D02*
X0172466Y0033274D01*
X0170663Y0027661D02*
X0172466Y0029464D01*
X0173025Y0033782D02*
X0182880Y0033782D01*
X0172720Y0037084D02*
X0183769Y0037084D01*
X0147447Y0032512D02*
X0147447Y0033655D01*
X0149098Y0035306D01*
X0144780Y0025146D02*
X0144780Y0027686D01*
X0179705Y0031623D02*
X0179705Y0033274D01*
X0183769Y0037084D02*
X0184785Y0036068D01*
X0184785Y0032893D02*
X0184785Y0036068D01*
X0181483Y0029972D02*
X0181483Y0031496D01*
X0179705Y0029972D02*
X0181483Y0029972D01*
X0183388Y0031496D02*
X0184785Y0032893D01*
X0183896Y0036195D02*
X0184277Y0036576D01*
X0007772Y0022098D02*
X0010185Y0022098D01*
X0011201Y0021082D01*
X0025603Y0021082D01*
X0026543Y0020142D01*
X0015646Y0022352D02*
X0025425Y0022352D01*
X0022860Y0039497D02*
X0030607Y0039497D01*
X0027940Y0042037D02*
X0027940Y0042418D01*
X0025273Y0042037D02*
X0027940Y0042037D01*
X0030607Y0042418D02*
X0030734Y0042418D01*
X0028956Y0040767D02*
X0030607Y0042418D01*
X0021844Y0040767D02*
X0028956Y0040767D01*
X0019304Y0043307D02*
X0021844Y0040767D01*
X0012787Y0043307D02*
X0019304Y0043307D01*
X0011486Y0042006D02*
X0012787Y0043307D01*
X0008509Y0035712D02*
X0010287Y0035712D01*
X0141605Y0102870D02*
X0141605Y0104648D01*
X0141783Y0101473D02*
X0141783Y0102489D01*
X0053086Y0105410D02*
X0054102Y0105410D01*
X0039624Y0105410D02*
X0040640Y0105410D01*
X0053213Y0111760D02*
X0055880Y0111760D01*
X0040640Y0111760D02*
X0043434Y0111760D01*
X0052070Y0113030D02*
X0053213Y0113030D01*
X0139446Y0060960D02*
X0139446Y0082804D01*
X0077267Y0111887D02*
X0078283Y0111887D01*
X0078283Y0113157D02*
X0078283Y0113284D01*
X0077267Y0113284D02*
X0078283Y0113284D01*
X0082728Y0118237D02*
X0083744Y0118237D01*
X0078537Y0118237D02*
X0081077Y0118237D01*
X0079045Y0121920D02*
X0079807Y0121920D01*
X0078283Y0122682D02*
X0079045Y0121920D01*
X0030607Y0046482D02*
X0030734Y0046482D01*
X0030607Y0046482D02*
X0030607Y0054610D01*
X0031623Y0055626D01*
X0031623Y0056515D01*
X0031623Y0055626D02*
X0032512Y0055626D01*
X0033020Y0056134D01*
X0027940Y0046482D02*
X0027940Y0049276D01*
X0027051Y0048133D02*
X0027940Y0048133D01*
X0026416Y0048768D02*
X0027051Y0048133D01*
X0029591Y0048133D02*
X0029591Y0053340D01*
X0027813Y0055118D02*
X0029591Y0053340D01*
X0027813Y0055118D02*
X0027813Y0056007D01*
X0026797Y0055118D02*
X0027813Y0055118D01*
X0026416Y0055499D02*
X0026797Y0055118D01*
X0031623Y0058166D02*
X0032131Y0058674D01*
X0033020Y0058674D01*
X0027432Y0058039D02*
X0027813Y0057658D01*
X0026416Y0058039D02*
X0027432Y0058039D01*
X0027432Y0051308D02*
X0027813Y0050927D01*
X0026416Y0051308D02*
X0027432Y0051308D01*
X0031623Y0051435D02*
X0032131Y0051943D01*
X0033020Y0051943D01*
X0031623Y0049784D02*
X0032004Y0049403D01*
X0033020Y0049403D01*
X0094869Y0034798D02*
X0096012Y0034798D01*
X0021336Y0119126D02*
X0021336Y0121920D01*
X0024511Y0119253D02*
X0024511Y0120650D01*
X0018288Y0126873D02*
X0024511Y0120650D01*
X0017018Y0126238D02*
X0021336Y0121920D01*
X0018288Y0126873D02*
X0018288Y0128143D01*
X0017018Y0126238D02*
X0017018Y0129794D01*
X0016129Y0130683D02*
X0017018Y0129794D01*
X0015748Y0130683D02*
X0016129Y0130683D01*
X0108026Y0091669D02*
X0112116Y0095758D01*
X0039370Y0113030D02*
X0040640Y0113030D01*
X0044196Y0113030D02*
X0047244Y0113030D01*
X0131191Y0010922D02*
X0131953Y0010160D01*
X0154940Y0010160D01*
X0155702Y0010922D01*
X0045212Y0111760D02*
X0046101Y0111760D01*
X0057531Y0111760D02*
X0058547Y0111760D01*
X0132207Y0104394D02*
X0132207Y0105537D01*
X0133350Y0106680D01*
X0104648Y0114300D02*
X0105791Y0114300D01*
X0104699Y0108712D02*
X0105080Y0108712D01*
X0105156Y0108712D02*
X0105791Y0109347D01*
X0105791Y0114300D01*
X0106299Y0114808D01*
X0101092Y0114300D02*
X0101854Y0114300D01*
X0104445Y0116840D01*
X0104699Y0116840D01*
X0098679Y0114554D02*
X0100457Y0112776D01*
X0102921Y0112776D01*
X0104445Y0111252D02*
X0104699Y0111252D01*
X0102921Y0112776D02*
X0104445Y0111252D01*
X0080340Y0066192D02*
X0080340Y0067031D01*
X0080340Y0066192D02*
X0081407Y0065126D01*
X0087198Y0065126D01*
X0080340Y0061443D02*
X0080340Y0062230D01*
X0081585Y0063475D01*
X0087198Y0063475D01*
X0088722Y0063475D01*
X0089306Y0064059D01*
X0090297Y0064059D01*
X0137160Y0039243D02*
X0137160Y0040234D01*
X0145059Y0040234D01*
X0140081Y0039243D02*
X0140081Y0040234D01*
X0142977Y0039268D02*
X0142977Y0040234D01*
X0145059Y0040234D02*
X0145948Y0039345D01*
X0147599Y0037567D02*
X0148107Y0037059D01*
X0147599Y0037567D02*
X0147599Y0038583D01*
X0138862Y0037313D02*
X0138862Y0038608D01*
X0144704Y0037186D02*
X0144704Y0038608D01*
X0137160Y0037719D02*
X0137160Y0037973D01*
X0137160Y0037719D02*
X0138506Y0036373D01*
X0145110Y0036373D01*
X0145923Y0037186D01*
X0145923Y0037973D01*
X0143002Y0036373D02*
X0143002Y0037973D01*
X0140081Y0036373D02*
X0140081Y0037973D01*
X0135890Y0036627D02*
X0135890Y0039522D01*
X0136601Y0040234D01*
X0137185Y0040234D01*
X0171755Y0033274D02*
X0172466Y0033274D01*
X0164592Y0086741D02*
X0165354Y0085979D01*
X0163068Y0086741D02*
X0164592Y0086741D01*
X0142875Y0058674D02*
X0143510Y0058674D01*
X0140208Y0061341D02*
X0142875Y0058674D01*
X0140208Y0061341D02*
X0140208Y0082423D01*
X0145415Y0087630D01*
X0161036Y0087630D01*
X0139446Y0082804D02*
X0145161Y0088519D01*
X0153416Y0088519D01*
X0146428Y0053721D02*
X0147447Y0053721D01*
X0146428Y0055499D02*
X0147447Y0055499D01*
X0160401Y0090805D02*
X0160401Y0091643D01*
X0159309Y0089281D02*
X0160426Y0089281D01*
X0147980Y0086106D02*
X0148920Y0085166D01*
X0147625Y0084049D02*
X0147803Y0084049D01*
X0148946Y0085192D01*
X0039522Y0011074D02*
X0040538Y0011074D01*
X0036779Y0011074D02*
X0037795Y0011074D01*
X0154813Y0105080D02*
X0154813Y0106045D01*
X0153543Y0046990D02*
X0154051Y0047498D01*
X0040640Y0106680D02*
X0040640Y0107061D01*
X0053086Y0106680D02*
X0053086Y0107061D01*
X0039624Y0107061D02*
X0054102Y0107061D01*
X0168783Y0119634D02*
X0168783Y0121158D01*
X0176530Y0119634D02*
X0176530Y0121158D01*
X0197358Y0117221D02*
X0197358Y0121158D01*
X0192024Y0119634D02*
X0192024Y0121158D01*
X0153162Y0121158D02*
X0199746Y0121158D01*
X0193294Y0116586D02*
X0196469Y0113411D01*
X0184023Y0116586D02*
X0193294Y0116586D01*
X0183007Y0115570D02*
X0184023Y0116586D01*
X0193421Y0111506D02*
X0193675Y0111506D01*
X0195072Y0110109D01*
X0185039Y0110236D02*
X0185039Y0112014D01*
X0184404Y0109601D02*
X0185039Y0110236D01*
X0164592Y0109601D02*
X0184404Y0109601D01*
X0173609Y0109601D02*
X0173609Y0110617D01*
X0148209Y0129794D02*
X0148844Y0130429D01*
X0148844Y0133223D01*
X0135255Y0123063D02*
X0148844Y0123063D01*
X0151892Y0126111D01*
X0151892Y0130556D01*
X0153543Y0132207D01*
X0154686Y0132207D01*
X0134747Y0123952D02*
X0147447Y0123952D01*
X0133985Y0123190D02*
X0134747Y0123952D01*
X0138049Y0121539D02*
X0138684Y0122174D01*
X0147447Y0123952D02*
X0148209Y0124714D01*
D68*
X0110744Y0124460D02*
X0110744Y0124968D01*
X0109220Y0122555D02*
X0110744Y0122555D01*
X0109982Y0122555D02*
X0109982Y0123571D01*
X0112776Y0121539D02*
X0114681Y0121539D01*
X0114681Y0124079D02*
X0115062Y0124460D01*
X0116459Y0124460D01*
X0118135Y0122555D02*
X0118135Y0124435D01*
X0135636Y0105918D02*
X0135636Y0108585D01*
X0053467Y0117348D02*
X0055753Y0117348D01*
X0052324Y0118491D02*
X0053467Y0117348D01*
X0054483Y0116332D02*
X0054483Y0117348D01*
X0166498Y0091973D02*
X0185014Y0091973D01*
X0170307Y0090805D02*
X0170307Y0091973D01*
X0041910Y0036449D02*
X0043053Y0036449D01*
X0007759Y0026912D02*
X0009017Y0028194D01*
X0007645Y0026797D02*
X0007759Y0026912D01*
X0072517Y0119253D02*
X0074168Y0119253D01*
X0074676Y0118745D01*
X0074727Y0118745D01*
X0086614Y0120650D02*
X0086614Y0121285D01*
X0084836Y0123063D02*
X0086614Y0121285D01*
X0083744Y0118237D02*
X0083744Y0119456D01*
X0085344Y0119380D02*
X0086614Y0120650D01*
X0088062Y0120650D01*
X0082474Y0121920D02*
X0084709Y0121920D01*
X0094996Y0116840D02*
X0096520Y0118364D01*
X0092964Y0117475D02*
X0094056Y0118567D01*
X0094158Y0118567D01*
X0096444Y0119380D02*
X0098349Y0119380D01*
X0096520Y0118364D02*
X0097155Y0118364D01*
X0030353Y0027534D02*
X0031420Y0027534D01*
X0030353Y0027534D02*
X0030353Y0028575D01*
X0077343Y0119380D02*
X0077343Y0120904D01*
X0076505Y0121742D02*
X0077343Y0120904D01*
X0133985Y0088341D02*
X0134544Y0088341D01*
X0137516Y0017755D02*
X0138303Y0016967D01*
X0138303Y0016383D02*
X0138303Y0016967D01*
X0053086Y0108661D02*
X0054432Y0110007D01*
X0058115Y0110007D01*
X0063170Y0115062D01*
X0063170Y0131521D01*
X0066167Y0134493D01*
X0143002Y0134493D01*
X0146304Y0131191D01*
X0143713Y0107366D02*
X0143713Y0107391D01*
X0093599Y0066040D02*
X0094488Y0065151D01*
X0089154Y0066040D02*
X0093599Y0066040D01*
X0088240Y0065126D02*
X0089154Y0066040D01*
X0087122Y0065126D02*
X0088240Y0065126D01*
X0146101Y0095148D02*
X0146355Y0094894D01*
X0119583Y0095148D02*
X0146101Y0095148D01*
X0119253Y0094869D02*
X0119583Y0095148D01*
X0109703Y0105486D02*
X0110820Y0105486D01*
X0111252Y0105918D01*
X0108636Y0104394D02*
X0109245Y0103810D01*
X0108636Y0104394D02*
X0108636Y0105334D01*
X0107798Y0106172D02*
X0108636Y0105334D01*
X0107696Y0106172D02*
X0107798Y0106172D01*
X0114579Y0106020D02*
X0114605Y0106045D01*
X0116332Y0106045D01*
X0117729Y0106070D02*
X0117729Y0106934D01*
X0117297Y0107366D02*
X0117729Y0106934D01*
X0117297Y0107366D02*
X0117297Y0107569D01*
X0118237Y0108661D02*
X0118237Y0109601D01*
X0114732Y0113208D02*
X0116332Y0111608D01*
X0116332Y0111506D02*
X0116332Y0111608D01*
X0117754Y0111506D02*
X0117754Y0112420D01*
X0117297Y0112878D02*
X0117754Y0112420D01*
X0117297Y0112878D02*
X0117297Y0113030D01*
X0118237Y0114097D02*
X0118237Y0115062D01*
X0114579Y0116586D02*
X0116332Y0116586D01*
X0117754Y0116510D02*
X0117754Y0117602D01*
X0117297Y0118059D02*
X0117754Y0117602D01*
X0117297Y0118059D02*
X0117297Y0118237D01*
X0118135Y0120320D02*
X0118135Y0121463D01*
X0040996Y0098019D02*
X0041859Y0097155D01*
X0055956Y0097155D01*
X0068326Y0097511D02*
X0068326Y0097663D01*
X0069240Y0098577D01*
X0075260Y0098577D01*
X0076175Y0097663D01*
X0080416Y0097663D01*
X0081407Y0097663D01*
X0068326Y0097663D02*
X0071120Y0097663D01*
X0074219Y0117221D02*
X0074981Y0116459D01*
X0076124Y0084506D02*
X0076606Y0084963D01*
X0073711Y0085166D02*
X0074270Y0084607D01*
X0100584Y0102997D02*
X0101092Y0102489D01*
X0100584Y0102997D02*
X0100584Y0104445D01*
X0099619Y0105410D02*
X0100584Y0104445D01*
X0101651Y0104775D02*
X0102921Y0104775D01*
X0103175Y0105029D01*
X0102413Y0101854D02*
X0102413Y0102489D01*
X0103175Y0103251D01*
X0103175Y0103378D01*
X0097333Y0101854D02*
X0097333Y0102489D01*
X0098095Y0103251D01*
X0098095Y0103378D01*
X0090576Y0102489D02*
X0091465Y0103378D01*
X0092634Y0103378D01*
X0092634Y0103505D01*
X0089078Y0104648D02*
X0090602Y0104648D01*
X0088951Y0104775D02*
X0089078Y0104648D01*
X0088951Y0104775D02*
X0088951Y0105029D01*
X0089205Y0101854D02*
X0089205Y0103378D01*
X0088951Y0103378D02*
X0089205Y0103378D01*
X0087935Y0102489D02*
X0087935Y0102997D01*
X0087427Y0103505D02*
X0087935Y0102997D01*
X0087300Y0103505D02*
X0087427Y0103505D01*
X0084125Y0104648D02*
X0085649Y0104648D01*
X0083744Y0105029D02*
X0084125Y0104648D01*
X0083744Y0102235D02*
X0083744Y0103378D01*
X0083744Y0102235D02*
X0084125Y0101854D01*
X0075743Y0101854D02*
X0076632Y0102743D01*
X0076632Y0103378D01*
X0079299Y0103378D02*
X0080823Y0101854D01*
X0078283Y0103378D02*
X0079299Y0103378D01*
X0074346Y0103378D02*
X0075362Y0103378D01*
X0073203Y0101854D02*
X0073203Y0102870D01*
X0072695Y0103378D02*
X0073203Y0102870D01*
X0078664Y0106045D02*
X0079553Y0106934D01*
X0075743Y0109474D02*
X0076251Y0108966D01*
X0076251Y0106934D02*
X0076251Y0108966D01*
X0073203Y0107950D02*
X0073203Y0109474D01*
X0120828Y0120650D02*
X0122225Y0119253D01*
X0122225Y0118999D02*
X0122225Y0119253D01*
X0120828Y0116459D02*
X0122225Y0116459D01*
X0121717Y0110998D02*
X0122225Y0110998D01*
X0120955Y0111760D02*
X0121717Y0110998D01*
X0120828Y0111760D02*
X0120955Y0111760D01*
X0120828Y0108458D02*
X0122225Y0108458D01*
X0120828Y0105740D02*
X0120828Y0106807D01*
X0120828Y0114808D02*
X0122098Y0113538D01*
X0120828Y0113538D02*
X0122225Y0113538D01*
X0120828Y0113411D02*
X0120828Y0113538D01*
X0122174Y0123698D02*
X0122174Y0124079D01*
X0120828Y0122301D02*
X0122225Y0123698D01*
X0074473Y0108966D02*
X0074600Y0108839D01*
X0074600Y0108077D02*
X0074600Y0108839D01*
X0086665Y0107950D02*
X0086665Y0109474D01*
X0089205Y0109093D02*
X0089205Y0109474D01*
X0089205Y0109093D02*
X0090348Y0107950D01*
X0091745Y0109474D02*
X0091999Y0109220D01*
X0091999Y0107950D02*
X0091999Y0109220D01*
X0096952Y0109220D02*
X0097206Y0109474D01*
X0096952Y0107950D02*
X0096952Y0109220D01*
X0100000Y0108204D02*
X0100000Y0109474D01*
X0100000Y0108204D02*
X0100254Y0107950D01*
X0101905Y0107950D02*
X0103175Y0107950D01*
X0093904Y0107950D02*
X0093904Y0108585D01*
X0094793Y0109474D01*
X0095047Y0109220D01*
X0095047Y0107950D02*
X0095047Y0109220D01*
X0095047Y0107950D02*
X0095301Y0107950D01*
X0087935Y0108712D02*
X0088697Y0107950D01*
X0084125Y0108966D02*
X0084125Y0109474D01*
X0084125Y0108966D02*
X0085141Y0107950D01*
X0131064Y0020574D02*
X0135128Y0020574D01*
X0135890Y0019812D01*
X0135890Y0017018D02*
X0135890Y0019812D01*
X0135890Y0017018D02*
X0137795Y0015113D01*
X0137795Y0013716D02*
X0137795Y0015113D01*
X0137795Y0013716D02*
X0139319Y0012192D01*
X0148082Y0012192D01*
X0139065Y0017780D02*
X0139065Y0018669D01*
X0140589Y0012954D02*
X0141478Y0012954D01*
X0139268Y0014275D02*
X0140589Y0012954D01*
X0139268Y0014275D02*
X0139268Y0014351D01*
X0141478Y0012954D02*
X0141478Y0013208D01*
X0141478Y0013970D01*
X0141478Y0013208D02*
X0143662Y0013208D01*
X0143713Y0013259D01*
X0143713Y0013589D01*
X0138303Y0016383D02*
X0139192Y0015494D01*
X0141351Y0015494D01*
X0141478Y0015621D02*
X0142748Y0015621D01*
X0146685Y0018034D02*
X0146685Y0018542D01*
X0144653Y0016002D02*
X0146685Y0018034D01*
X0144653Y0015621D02*
X0144653Y0016002D01*
X0131064Y0022098D02*
X0142367Y0022098D01*
X0133604Y0022987D02*
X0134112Y0022987D01*
X0132715Y0023876D02*
X0133604Y0022987D01*
X0132588Y0023876D02*
X0132715Y0023876D01*
X0134112Y0022987D02*
X0134112Y0024257D01*
X0134112Y0022987D02*
X0135763Y0022987D01*
X0136398Y0023622D01*
X0136398Y0023876D01*
X0131445Y0026035D02*
X0132080Y0026670D01*
X0134112Y0025908D02*
X0134112Y0027432D01*
X0134747Y0026670D02*
X0135509Y0025908D01*
X0132080Y0026670D02*
X0134747Y0026670D01*
X0137414Y0025908D02*
X0140081Y0025908D01*
X0135636Y0027432D02*
X0136906Y0027432D01*
X0156388Y0034112D02*
X0156388Y0036144D01*
X0155448Y0037084D02*
X0156388Y0036144D01*
X0154686Y0037084D02*
X0155448Y0037084D01*
X0076327Y0021463D02*
X0077343Y0020447D01*
X0077343Y0020320D02*
X0077343Y0020447D01*
X0077597Y0020320D02*
X0077597Y0020447D01*
X0032233Y0018872D02*
X0035433Y0018872D01*
X0009017Y0028194D02*
X0015011Y0028194D01*
X0018618Y0024587D01*
X0023724Y0024587D01*
X0081407Y0081407D02*
X0081407Y0082575D01*
X0081915Y0083083D01*
X0070358Y0055499D02*
X0070866Y0056007D01*
X0070358Y0054864D02*
X0070358Y0055499D01*
X0062230Y0062611D02*
X0063373Y0062611D01*
X0062230Y0067310D02*
X0063754Y0067310D01*
X0062230Y0073914D02*
X0063373Y0073914D01*
X0070612Y0082931D02*
X0070612Y0083058D01*
X0070358Y0082677D02*
X0070612Y0082931D01*
X0070358Y0081153D02*
X0070358Y0082677D01*
X0077724Y0053721D02*
X0077724Y0054864D01*
X0082550Y0054864D02*
X0082550Y0056007D01*
X0090805Y0063119D02*
X0091567Y0063119D01*
X0090424Y0062738D02*
X0090805Y0063119D01*
X0090424Y0067056D02*
X0091567Y0067056D01*
X0090043Y0074295D02*
X0091567Y0074295D01*
X0077978Y0082042D02*
X0077978Y0083058D01*
X0072771Y0055118D02*
X0073025Y0054864D01*
X0131445Y0086487D02*
X0131445Y0089154D01*
X0131521Y0089205D02*
X0131572Y0089154D01*
X0131521Y0089205D02*
X0131521Y0090551D01*
X0148082Y0077597D02*
X0148082Y0081407D01*
X0130810Y0085852D02*
X0131445Y0086487D01*
X0129159Y0085852D02*
X0130810Y0085852D01*
X0128397Y0085090D02*
X0129159Y0085852D01*
X0133096Y0084582D02*
X0133096Y0086995D01*
X0131699Y0079883D02*
X0131699Y0081407D01*
X0129413Y0083185D02*
X0131699Y0083185D01*
X0133096Y0084582D01*
X0126365Y0090551D02*
X0127254Y0091440D01*
X0127635Y0091440D01*
X0129286Y0091567D02*
X0134493Y0091567D01*
X0130556Y0091567D02*
X0130556Y0092583D01*
X0135128Y0086995D02*
X0135382Y0087249D01*
X0133096Y0086995D02*
X0135128Y0086995D01*
X0133096Y0088341D02*
X0133985Y0088341D01*
X0133604Y0088722D02*
X0133604Y0091567D01*
X0133604Y0088722D02*
X0133985Y0088341D01*
X0134595Y0093091D02*
X0135382Y0092304D01*
X0135382Y0087249D02*
X0135382Y0092304D01*
X0134518Y0089789D02*
X0135357Y0089789D01*
X0143129Y0075819D02*
X0143891Y0075057D01*
X0147828Y0075057D01*
X0149479Y0075057D02*
X0150241Y0075057D01*
X0151257Y0076073D01*
X0155829Y0076073D01*
X0156007Y0076251D01*
X0156007Y0076454D01*
X0148971Y0077724D02*
X0149860Y0078613D01*
X0148971Y0076708D02*
X0148971Y0077724D01*
X0148209Y0075946D02*
X0148971Y0076708D01*
X0146050Y0075946D02*
X0148209Y0075946D01*
X0145923Y0077597D02*
X0145923Y0078867D01*
X0145923Y0077597D02*
X0146050Y0077597D01*
X0148082Y0080137D02*
X0148209Y0080137D01*
X0149860Y0078613D02*
X0149860Y0080264D01*
X0151511Y0080264D01*
X0158242Y0075692D02*
X0158242Y0077597D01*
X0156972Y0074422D02*
X0158242Y0075692D01*
X0156083Y0079375D02*
X0156337Y0079121D01*
X0156337Y0076835D02*
X0156337Y0079121D01*
X0158242Y0079121D01*
X0156007Y0076505D02*
X0156337Y0076835D01*
X0151511Y0080264D02*
X0152273Y0081026D01*
X0154051Y0081026D01*
X0154813Y0080264D01*
X0156083Y0079375D02*
X0156083Y0080264D01*
X0154178Y0079375D02*
X0156083Y0079375D01*
X0153289Y0080264D02*
X0154178Y0079375D01*
X0144272Y0076835D02*
X0144272Y0078867D01*
X0144018Y0078867D02*
X0144272Y0078867D01*
X0145415Y0078867D02*
X0145415Y0079883D01*
X0143129Y0075819D02*
X0143129Y0076835D01*
X0144272Y0068834D02*
X0144272Y0070866D01*
X0144272Y0068834D02*
X0144526Y0068834D01*
X0144018Y0070866D02*
X0144272Y0070866D01*
X0145415Y0070866D02*
X0145415Y0071882D01*
X0143129Y0067818D02*
X0143129Y0068834D01*
X0142875Y0068834D02*
X0143129Y0068834D01*
X0105283Y0077724D02*
X0106426Y0076581D01*
X0108585Y0076581D01*
X0163830Y0074041D02*
X0163830Y0075184D01*
X0162306Y0074041D02*
X0162306Y0075184D01*
X0161671Y0070612D02*
X0164465Y0070612D01*
X0160020Y0070612D02*
X0160020Y0071628D01*
X0166116Y0070612D02*
X0166116Y0071628D01*
X0159893Y0073660D02*
X0160909Y0073660D01*
X0159893Y0075184D02*
X0160909Y0075184D01*
X0165227Y0075184D02*
X0166243Y0075184D01*
X0165227Y0073660D02*
X0166243Y0073660D01*
X0160909Y0072390D02*
X0162306Y0072390D01*
X0163830Y0072390D02*
X0165227Y0072390D01*
X0145263Y0030582D02*
X0145263Y0035331D01*
X0175895Y0045339D02*
X0175895Y0045466D01*
X0174752Y0046609D02*
X0175895Y0045466D01*
X0156083Y0053213D02*
X0156083Y0053594D01*
X0155448Y0054229D02*
X0156083Y0053594D01*
X0156083Y0053213D02*
X0156845Y0052451D01*
X0157099Y0054229D02*
X0158115Y0054229D01*
X0155829Y0050546D02*
X0156845Y0050546D01*
X0179705Y0044831D02*
X0179705Y0045974D01*
X0180721Y0045974D01*
X0181864Y0044704D02*
X0181864Y0045466D01*
X0182245Y0045847D01*
X0182372Y0045847D01*
X0171323Y0046482D02*
X0172466Y0046482D01*
X0168783Y0041021D02*
X0169926Y0041021D01*
X0171577Y0041021D02*
X0172720Y0041021D01*
X0173990Y0046609D02*
X0174752Y0046609D01*
X0165989Y0042672D02*
X0166878Y0042672D01*
X0165608Y0043053D02*
X0165989Y0042672D01*
X0160147Y0044069D02*
X0161290Y0044069D01*
X0161036Y0044069D02*
X0161036Y0044958D01*
X0160147Y0045847D02*
X0161036Y0044958D01*
X0161798Y0045847D02*
X0161798Y0046863D01*
X0160147Y0042164D02*
X0161290Y0042164D01*
X0168402Y0035814D02*
X0169418Y0035814D01*
X0167894Y0037084D02*
X0167894Y0038862D01*
X0167894Y0037465D02*
X0169418Y0037465D01*
X0165354Y0031623D02*
X0165354Y0035560D01*
X0165354Y0031623D02*
X0165735Y0031242D01*
X0164084Y0030861D02*
X0164084Y0035560D01*
X0164084Y0030861D02*
X0164973Y0029972D01*
X0166624Y0029972D02*
X0167894Y0029972D01*
X0167894Y0033274D01*
X0149098Y0031178D02*
X0149098Y0035306D01*
X0154686Y0035433D02*
X0155626Y0035433D01*
X0154813Y0034163D02*
X0154813Y0035433D01*
X0150365Y0031626D02*
X0150749Y0031242D01*
X0150365Y0031626D02*
X0150368Y0033147D01*
X0166624Y0037084D02*
X0166624Y0038862D01*
X0185420Y0036703D02*
X0185420Y0037973D01*
X0186817Y0036703D02*
X0186817Y0037846D01*
X0185420Y0040259D02*
X0186055Y0040894D01*
X0185420Y0039624D02*
X0185420Y0040259D01*
X0186055Y0040894D02*
X0186817Y0040132D01*
X0186817Y0039624D02*
X0186817Y0040132D01*
X0159131Y0037084D02*
X0161671Y0037084D01*
X0152905Y0033274D02*
X0152908Y0033271D01*
X0152908Y0031242D02*
X0152908Y0033271D01*
X0158115Y0035433D02*
X0159131Y0035433D01*
X0160655Y0035433D02*
X0161671Y0035433D01*
X0152908Y0037084D02*
X0152908Y0038735D01*
X0140205Y0050546D02*
X0140205Y0051562D01*
X0108585Y0076581D02*
X0113919Y0076581D01*
X0105283Y0077724D02*
X0105283Y0080899D01*
X0111760Y0076581D02*
X0111760Y0077343D01*
X0108585Y0076581D02*
X0108585Y0077343D01*
X0113919Y0076581D02*
X0114554Y0077216D01*
X0110871Y0075184D02*
X0111633Y0074422D01*
X0112014Y0074422D01*
X0110871Y0075184D02*
X0111379Y0075692D01*
X0111887Y0075692D01*
X0113665Y0075819D02*
X0114681Y0075819D01*
X0116586Y0046990D02*
X0116586Y0048260D01*
X0116586Y0045339D02*
X0117348Y0044577D01*
X0119634Y0043180D02*
X0120904Y0043180D01*
X0119761Y0041783D02*
X0120904Y0041783D01*
X0122047Y0044958D02*
X0122682Y0044958D01*
X0121793Y0044704D02*
X0122047Y0044958D01*
X0121539Y0044704D02*
X0121793Y0044704D01*
X0118745Y0044958D02*
X0119253Y0044958D01*
X0119634Y0044577D01*
X0119888Y0044577D01*
X0068580Y0032385D02*
X0069596Y0032385D01*
X0072517Y0043688D02*
X0072517Y0043942D01*
X0072898Y0044323D01*
X0046990Y0050546D02*
X0048133Y0050546D01*
X0046990Y0052197D02*
X0048133Y0052197D01*
X0052832Y0052832D02*
X0052832Y0053848D01*
X0054102Y0052832D02*
X0054102Y0053721D01*
X0085344Y0020193D02*
X0085344Y0021209D01*
X0085090Y0021463D02*
X0085344Y0021209D01*
X0086995Y0020320D02*
X0086995Y0021209D01*
X0079248Y0020320D02*
X0079248Y0021463D01*
X0072390Y0020320D02*
X0072390Y0021463D01*
X0073787Y0020320D02*
X0073787Y0021463D01*
X0062814Y0020396D02*
X0062814Y0021285D01*
X0061087Y0020371D02*
X0061087Y0021260D01*
X0074422Y0044069D02*
X0074422Y0045212D01*
X0075692Y0044069D02*
X0075946Y0044323D01*
X0075946Y0045212D01*
X0085090Y0044196D02*
X0085217Y0044196D01*
X0085217Y0045339D01*
X0087122Y0044323D02*
X0087122Y0045339D01*
X0061722Y0043180D02*
X0061722Y0043307D01*
X0060833Y0044196D02*
X0061722Y0043307D01*
X0061722Y0041529D02*
X0062611Y0040640D01*
X0062865Y0040640D01*
X0061722Y0040513D02*
X0062738Y0040513D01*
X0062865Y0040640D01*
X0061722Y0038735D02*
X0062230Y0038735D01*
X0063119Y0039624D01*
X0069850Y0084963D02*
X0071755Y0084963D01*
X0072136Y0084582D01*
X0072136Y0083058D02*
X0073279Y0081915D01*
X0080264Y0082042D02*
X0080264Y0083058D01*
X0083947Y0081915D02*
X0085090Y0083058D01*
X0076581Y0054864D02*
X0076581Y0056007D01*
X0072771Y0055118D02*
X0072771Y0056007D01*
X0070155Y0051791D02*
X0070155Y0053772D01*
X0068580Y0053975D02*
X0068580Y0054864D01*
X0062230Y0065659D02*
X0063373Y0065659D01*
X0062230Y0064262D02*
X0063373Y0064262D01*
X0062230Y0060833D02*
X0063373Y0060833D01*
X0062230Y0057658D02*
X0063373Y0057658D01*
X0062230Y0059309D02*
X0063373Y0059309D01*
X0062236Y0056140D02*
X0063367Y0056140D01*
X0062230Y0068834D02*
X0063373Y0068834D01*
X0062230Y0070739D02*
X0063373Y0070739D01*
X0062230Y0071882D02*
X0062865Y0071882D01*
X0063373Y0071374D01*
X0063373Y0070739D02*
X0063373Y0071374D01*
X0062230Y0075057D02*
X0063373Y0075057D01*
X0063119Y0079502D02*
X0063373Y0079756D01*
X0062230Y0079502D02*
X0063119Y0079502D01*
X0062230Y0076708D02*
X0063373Y0076708D01*
X0062230Y0080899D02*
X0063373Y0080899D01*
X0069215Y0082296D02*
X0069215Y0083058D01*
X0069215Y0082296D02*
X0069596Y0081915D01*
X0075057Y0055245D02*
X0075438Y0054864D01*
X0075057Y0055245D02*
X0075057Y0056007D01*
X0079502Y0053721D02*
X0079502Y0054864D01*
X0083693Y0054864D02*
X0083693Y0056007D01*
X0090678Y0056388D02*
X0091567Y0056388D01*
X0090424Y0056134D02*
X0090678Y0056388D01*
X0090424Y0054991D02*
X0091567Y0054991D01*
X0089154Y0061722D02*
X0090424Y0061722D01*
X0090043Y0060198D02*
X0090424Y0060579D01*
X0089154Y0060198D02*
X0090043Y0060198D01*
X0090424Y0065151D02*
X0091567Y0065151D01*
X0090424Y0069088D02*
X0091567Y0069088D01*
X0091567Y0075565D02*
X0093472Y0075565D01*
X0090424Y0080518D02*
X0091567Y0080518D01*
X0090424Y0078740D02*
X0091567Y0078740D01*
X0076708Y0082042D02*
X0076708Y0083058D01*
X0079553Y0044298D02*
X0079807Y0044044D01*
X0079553Y0044298D02*
X0079553Y0045288D01*
X0077470Y0044069D02*
X0077470Y0045212D01*
X0071501Y0043815D02*
X0071501Y0045212D01*
X0072898Y0044323D02*
X0072898Y0045212D01*
X0062865Y0035941D02*
X0063881Y0035941D01*
X0062865Y0037465D02*
X0063881Y0037465D01*
X0069799Y0026924D02*
X0069799Y0028067D01*
X0069799Y0024511D02*
X0069799Y0025273D01*
X0083185Y0051816D02*
X0083185Y0052705D01*
X0084074Y0053594D01*
X0085852Y0053594D02*
X0085852Y0054864D01*
X0155575Y0031039D02*
X0155575Y0032436D01*
X0179578Y0037084D02*
X0179578Y0038735D01*
X0179578Y0040386D02*
X0179578Y0043180D01*
X0152908Y0037084D02*
X0154686Y0037084D01*
X0076632Y0054864D02*
X0076635Y0054861D01*
X0081153Y0024536D02*
X0081153Y0025273D01*
X0081153Y0026924D02*
X0081153Y0028042D01*
X0147447Y0030861D02*
X0147955Y0030861D01*
X0152908Y0031242D02*
X0153162Y0030988D01*
X0167894Y0029972D02*
X0168529Y0029337D01*
X0147955Y0030861D02*
X0148717Y0030099D01*
X0136779Y0029210D02*
X0141478Y0029210D01*
X0041275Y0038735D02*
X0041910Y0038100D01*
X0041275Y0038735D02*
X0041275Y0038989D01*
X0045212Y0101981D02*
X0045212Y0103505D01*
X0050038Y0101981D02*
X0050038Y0103505D01*
X0046736Y0103251D02*
X0046736Y0103505D01*
X0046736Y0103251D02*
X0047498Y0102489D01*
X0048133Y0103124D02*
X0048133Y0103505D01*
X0047498Y0102489D02*
X0048133Y0103124D01*
X0100127Y0117602D02*
X0101524Y0116205D01*
X0094996Y0116459D02*
X0094996Y0116840D01*
X0096444Y0119380D02*
X0096444Y0120269D01*
X0094285Y0119380D02*
X0096444Y0119380D01*
X0093396Y0120269D02*
X0094285Y0119380D01*
X0098349Y0119380D02*
X0100127Y0117602D01*
X0097841Y0121285D02*
X0099187Y0121285D01*
X0095809Y0121285D02*
X0097841Y0121285D01*
X0094920Y0120396D02*
X0095809Y0121285D01*
X0097841Y0120269D02*
X0097841Y0121285D01*
X0094996Y0116459D02*
X0096520Y0116459D01*
X0103810Y0125603D02*
X0105207Y0125603D01*
X0101016Y0125603D02*
X0102159Y0125603D01*
X0100254Y0124841D02*
X0101016Y0125603D01*
X0087300Y0123190D02*
X0088062Y0123190D01*
X0085268Y0125222D02*
X0087300Y0123190D01*
X0081331Y0125222D02*
X0085268Y0125222D01*
X0080569Y0124460D02*
X0081331Y0125222D01*
X0079807Y0124460D02*
X0080569Y0124460D01*
X0068504Y0117221D02*
X0071425Y0117221D01*
X0071425Y0113665D02*
X0074600Y0113665D01*
X0076632Y0114554D02*
X0076632Y0114808D01*
X0074727Y0114554D02*
X0076632Y0114554D01*
X0074981Y0116459D02*
X0076632Y0116459D01*
X0071425Y0117221D02*
X0074219Y0117221D01*
X0081331Y0125222D02*
X0081331Y0126111D01*
X0080823Y0126619D02*
X0081331Y0126111D01*
X0072695Y0126619D02*
X0080823Y0126619D01*
X0072060Y0125984D02*
X0072695Y0126619D01*
X0071882Y0124079D02*
X0072009Y0124206D01*
X0071882Y0121539D02*
X0071882Y0124079D01*
X0071882Y0121539D02*
X0073152Y0120269D01*
X0075997Y0120269D01*
X0076378Y0119888D01*
X0076378Y0118491D02*
X0076378Y0119888D01*
X0076378Y0118491D02*
X0077648Y0117221D01*
X0077648Y0115824D02*
X0077648Y0117221D01*
X0076632Y0114808D02*
X0077648Y0115824D01*
X0028448Y0030607D02*
X0028448Y0033655D01*
X0030988Y0030607D02*
X0032258Y0031877D01*
X0032258Y0033655D01*
X0026695Y0034442D02*
X0027229Y0034950D01*
X0030632Y0034950D01*
X0031115Y0035433D01*
X0030480Y0032893D02*
X0030607Y0033020D01*
X0029591Y0032004D02*
X0030480Y0032893D01*
X0026822Y0032004D02*
X0026822Y0033020D01*
X0013970Y0127381D02*
X0019431Y0121920D01*
X0013970Y0127381D02*
X0013970Y0131114D01*
X0015419Y0132563D01*
X0042266Y0132563D01*
X0047498Y0127330D01*
X0047498Y0123952D02*
X0047498Y0127330D01*
X0051435Y0125095D02*
X0053594Y0127254D01*
X0055880Y0127254D01*
X0057658Y0129032D01*
X0055956Y0097155D02*
X0056312Y0097511D01*
X0068326Y0097511D01*
X0076606Y0084963D02*
X0077089Y0084963D01*
X0101092Y0100457D02*
X0101092Y0102489D01*
X0099797Y0100457D02*
X0099797Y0101829D01*
X0120269Y0094412D02*
X0120269Y0094666D01*
X0144069Y0094666D02*
X0144526Y0094209D01*
X0120269Y0094666D02*
X0144069Y0094666D01*
X0052070Y0114300D02*
X0053213Y0114300D01*
X0110160Y0116840D02*
X0110160Y0118872D01*
X0109779Y0111252D02*
X0109779Y0112268D01*
X0058547Y0111506D02*
X0058547Y0111760D01*
X0057785Y0110744D02*
X0058547Y0111506D01*
X0050546Y0110744D02*
X0057785Y0110744D01*
X0049530Y0111760D02*
X0050546Y0110744D01*
X0046101Y0111760D02*
X0049530Y0111760D01*
X0044704Y0115062D02*
X0045212Y0115570D01*
X0048006Y0115570D01*
X0110109Y0108712D02*
X0111252Y0107569D01*
X0109728Y0108712D02*
X0110109Y0108712D01*
X0111557Y0112141D02*
X0111557Y0112903D01*
X0109779Y0114300D02*
X0110160Y0114300D01*
X0111557Y0112903D01*
X0099314Y0116078D02*
X0101092Y0114300D01*
X0101016Y0114173D02*
X0101092Y0114300D01*
X0085877Y0069393D02*
X0085877Y0069723D01*
X0086589Y0070434D01*
X0090297Y0070434D01*
X0185014Y0091973D02*
X0186182Y0090805D01*
X0161138Y0097333D02*
X0166498Y0091973D01*
X0148819Y0097333D02*
X0161138Y0097333D01*
X0019431Y0118110D02*
X0019431Y0121920D01*
X0078994Y0119380D02*
X0078994Y0121920D01*
X0099187Y0121285D02*
X0102108Y0124206D01*
X0092634Y0103505D02*
X0093497Y0103505D01*
X0094386Y0104394D01*
X0096266Y0103378D02*
X0096418Y0103378D01*
X0098146Y0105105D01*
X0139065Y0042037D02*
X0139065Y0043561D01*
X0137160Y0040234D02*
X0137160Y0042062D01*
X0141783Y0037211D02*
X0141783Y0038608D01*
X0045847Y0052324D02*
X0047219Y0052324D01*
X0030632Y0034315D02*
X0030632Y0034950D01*
X0051435Y0122174D02*
X0052324Y0121285D01*
X0051435Y0122174D02*
X0051435Y0125095D01*
X0057023Y0121285D02*
X0057023Y0123317D01*
X0057658Y0123952D01*
X0055753Y0117348D02*
X0056896Y0118491D01*
X0055372Y0114300D02*
X0055448Y0114300D01*
X0054102Y0113030D02*
X0055372Y0114300D01*
X0053213Y0113030D02*
X0054102Y0113030D01*
X0146304Y0127381D02*
X0146304Y0131191D01*
X0053086Y0107061D02*
X0053086Y0108661D01*
X0135636Y0108585D02*
X0136017Y0108966D01*
X0139192Y0108966D01*
X0139573Y0109347D01*
X0139573Y0110744D01*
X0182118Y0115189D02*
X0182245Y0115189D01*
X0180340Y0113411D02*
X0182118Y0115189D01*
X0180340Y0112395D02*
X0180340Y0113411D01*
X0180340Y0110744D02*
X0182880Y0110744D01*
X0179451Y0110744D02*
X0180340Y0110744D01*
X0177673Y0112522D02*
X0179451Y0110744D01*
X0177800Y0114681D02*
X0179197Y0114681D01*
X0176657Y0113538D02*
X0177800Y0114681D01*
X0176657Y0112522D02*
X0176657Y0113538D01*
X0175641Y0111506D02*
X0176657Y0112522D01*
X0177546Y0115824D02*
X0177546Y0117221D01*
X0179197Y0115951D02*
X0179197Y0117221D01*
X0175768Y0113411D02*
X0175768Y0115824D01*
X0171069Y0113284D02*
X0175641Y0113284D01*
X0170180Y0114173D02*
X0171069Y0113284D01*
X0172085Y0113284D02*
X0172085Y0114173D01*
X0172339Y0110617D02*
X0173609Y0110617D01*
X0173609Y0111506D01*
X0173101Y0112014D02*
X0173609Y0111506D01*
X0169291Y0112014D02*
X0173101Y0112014D01*
X0169418Y0110490D02*
X0170688Y0110490D01*
X0110744Y0124460D02*
X0111125Y0124079D01*
D70*
X0098171Y0005334D02*
X0098171Y0010922D01*
X0067691Y0005334D02*
X0067691Y0009017D01*
X0115951Y0005334D02*
X0115951Y0010922D01*
X0048895Y0011049D02*
X0048895Y0012065D01*
X0048895Y0010922D02*
X0048895Y0012192D01*
X0112141Y0008255D02*
X0112903Y0009017D01*
X0099949Y0009271D02*
X0099949Y0011049D01*
X0099695Y0009017D02*
X0099949Y0009271D01*
X0059817Y0009271D02*
X0059817Y0011049D01*
X0059817Y0009271D02*
X0060071Y0009017D01*
X0067691Y0009017D02*
X0067691Y0010922D01*
X0069469Y0009144D02*
X0069469Y0010795D01*
X0076962Y0008636D02*
X0076962Y0011049D01*
X0088011Y0009017D02*
X0088011Y0011049D01*
X0086360Y0009398D02*
X0086741Y0009017D01*
X0086360Y0009398D02*
X0086360Y0011049D01*
X0053721Y0005334D02*
X0053721Y0010922D01*
X0108712Y0009017D02*
X0109220Y0009017D01*
X0108331Y0005334D02*
X0108331Y0008636D01*
X0047371Y0005334D02*
X0047371Y0010922D01*
X0075311Y0005334D02*
X0075311Y0009017D01*
X0082931Y0005334D02*
X0082931Y0008890D01*
X0090551Y0005334D02*
X0090551Y0009017D01*
X0051181Y0005334D02*
X0051181Y0009017D01*
X0061341Y0005334D02*
X0061341Y0010922D01*
X0112141Y0005334D02*
X0112141Y0008255D01*
X0101981Y0005334D02*
X0101981Y0009017D01*
X0094361Y0005334D02*
X0094361Y0009017D01*
X0088011Y0005334D02*
X0088011Y0009017D01*
X0084709Y0009017D02*
X0085471Y0008255D01*
X0085471Y0005334D02*
X0085471Y0008255D01*
X0079121Y0005334D02*
X0079121Y0009017D01*
X0071501Y0005334D02*
X0071501Y0009017D01*
X0063119Y0009017D02*
X0063373Y0009017D01*
X0063881Y0008509D01*
X0063881Y0005334D02*
X0063881Y0008509D01*
X0075184Y0009017D02*
X0075184Y0010922D01*
X0108331Y0008636D02*
X0108712Y0009017D01*
X0119761Y0005334D02*
X0119761Y0010922D01*
D71*
X0094920Y0032131D02*
X0094920Y0033147D01*
X0045034Y0078918D02*
X0045517Y0079375D01*
X0045085Y0071501D02*
X0045491Y0071095D01*
X0101092Y0042291D02*
X0101473Y0042672D01*
X0123317Y0038100D02*
X0123698Y0038481D01*
X0122555Y0038100D02*
X0123317Y0038100D01*
X0132207Y0029083D02*
X0135255Y0029083D01*
X0137541Y0045212D02*
X0139700Y0045212D01*
X0137795Y0043561D02*
X0138684Y0043561D01*
X0139700Y0046990D02*
X0140716Y0046990D01*
X0136141Y0053594D02*
X0137157Y0053594D01*
X0137792Y0054737D02*
X0138808Y0054737D01*
X0134998Y0054864D02*
X0136141Y0054864D01*
X0145412Y0053594D02*
X0146428Y0053594D01*
X0146428Y0053721D01*
X0144269Y0051689D02*
X0145412Y0051689D01*
X0114554Y0077216D02*
X0114935Y0077597D01*
X0114935Y0078359D01*
X0113284Y0077343D02*
X0113284Y0078359D01*
X0111760Y0077343D02*
X0111760Y0078359D01*
X0110109Y0077343D02*
X0110109Y0078359D01*
X0106934Y0077343D02*
X0106934Y0078359D01*
X0108585Y0077343D02*
X0108585Y0078359D01*
X0115189Y0072517D02*
X0115951Y0071755D01*
X0114808Y0072517D02*
X0115189Y0072517D01*
X0115062Y0069342D02*
X0115824Y0070104D01*
X0114808Y0069342D02*
X0115062Y0069342D01*
X0110109Y0067564D02*
X0110109Y0068707D01*
X0111760Y0067564D02*
X0111760Y0068707D01*
X0108585Y0067564D02*
X0108585Y0068707D01*
X0106934Y0067564D02*
X0106934Y0068707D01*
X0113665Y0044958D02*
X0113665Y0046101D01*
X0115062Y0045212D02*
X0115062Y0046101D01*
X0114808Y0044958D02*
X0115062Y0045212D01*
X0055626Y0047879D02*
X0056642Y0047879D01*
X0055499Y0049784D02*
X0056642Y0049784D01*
X0045085Y0071501D02*
X0045085Y0072161D01*
X0043866Y0070993D02*
X0043866Y0072136D01*
X0045034Y0078207D02*
X0045034Y0078918D01*
X0043891Y0078207D02*
X0043891Y0079350D01*
X0044323Y0086995D02*
X0044348Y0087935D01*
X0045593Y0086995D02*
X0045593Y0088138D01*
X0045466Y0025146D02*
X0046990Y0025146D01*
X0044704Y0014097D02*
X0046355Y0014097D01*
X0100711Y0049530D02*
X0101473Y0050292D01*
X0100711Y0046609D02*
X0100711Y0047879D01*
X0101092Y0041402D02*
X0101092Y0042291D01*
X0101092Y0038735D02*
X0101092Y0039751D01*
X0117221Y0032004D02*
X0117221Y0033147D01*
X0115951Y0032004D02*
X0115951Y0033147D01*
X0122047Y0056007D02*
X0122301Y0056007D01*
X0121412Y0055372D02*
X0122047Y0056007D01*
X0121031Y0055372D02*
X0121412Y0055372D01*
X0122174Y0054229D02*
X0122301Y0054356D01*
X0122174Y0053213D02*
X0122174Y0054229D01*
X0121920Y0052197D02*
X0122047Y0052324D01*
X0122047Y0053213D01*
X0123571Y0052197D02*
X0123571Y0053213D01*
X0131191Y0053340D02*
X0132207Y0053340D01*
X0130810Y0054610D02*
X0131953Y0055753D01*
X0129159Y0054610D02*
X0129159Y0055372D01*
X0128905Y0055626D02*
X0129159Y0055372D01*
X0132207Y0054737D02*
X0132207Y0055753D01*
X0131953Y0055753D02*
X0132207Y0055753D01*
X0110236Y0011303D02*
X0110617Y0011303D01*
X0112903Y0009017D01*
X0108077Y0010795D02*
X0108585Y0011303D01*
X0108077Y0009652D02*
X0108077Y0010795D01*
X0108077Y0009652D02*
X0108712Y0009017D01*
X0118110Y0012573D02*
X0119507Y0012573D01*
X0116078Y0012573D02*
X0117094Y0012573D01*
D72*
X0007366Y0029159D02*
X0008382Y0029159D01*
X0010033Y0029159D02*
X0011049Y0029159D01*
X0003937Y0025781D02*
X0007112Y0025781D01*
X0006223Y0025781D02*
X0006223Y0026924D01*
X0007112Y0025781D02*
X0007747Y0026416D01*
X0007747Y0026797D01*
X0003454Y0026264D02*
X0003937Y0025781D01*
X0003454Y0026264D02*
X0003454Y0026924D01*
X0004826Y0025781D02*
X0004826Y0026924D01*
X0004318Y0030988D02*
X0004826Y0030480D01*
X0004191Y0030988D02*
X0005715Y0030988D01*
X0003454Y0030099D02*
X0004343Y0030988D01*
X0005715Y0030988D02*
X0006223Y0030480D01*
X0006223Y0028575D02*
X0006223Y0030480D01*
X0004826Y0028575D02*
X0004826Y0030480D01*
X0023368Y0130683D02*
X0028448Y0130683D01*
X0011455Y0030353D02*
X0011455Y0042037D01*
X0022860Y0032004D02*
X0022860Y0039497D01*
X0018440Y0042037D02*
X0020955Y0039497D01*
X0013106Y0017018D02*
X0013106Y0020320D01*
X0014376Y0017018D02*
X0014376Y0020320D01*
X0015646Y0017018D02*
X0015646Y0019812D01*
X0011836Y0017018D02*
X0011836Y0020320D01*
X0007772Y0017018D02*
X0007772Y0020320D01*
X0006502Y0017018D02*
X0006502Y0020320D01*
X0005232Y0017018D02*
X0005232Y0020320D01*
X0003962Y0017018D02*
X0003962Y0020320D01*
X0007391Y0015367D02*
X0007772Y0015748D01*
X0007772Y0017018D01*
X0003962Y0015494D02*
X0003962Y0017018D01*
X0009423Y0013208D02*
X0009734Y0013208D01*
X0003962Y0015494D02*
X0004089Y0015367D01*
X0015646Y0015748D02*
X0015646Y0017018D01*
X0015265Y0015367D02*
X0015646Y0015748D01*
X0011836Y0015494D02*
X0011836Y0017018D01*
X0003454Y0028575D02*
X0003454Y0030099D01*
X0004470Y0024638D02*
X0013868Y0024638D01*
X0004089Y0024257D02*
X0004470Y0024638D01*
X0013868Y0024638D02*
X0014122Y0024384D01*
X0010414Y0024638D02*
X0010414Y0026670D01*
X0057658Y0036449D02*
X0057658Y0054229D01*
X0012598Y0029210D02*
X0018161Y0029210D01*
X0008534Y0031877D02*
X0009423Y0030988D01*
X0024028Y0043307D02*
X0025298Y0042037D01*
X0011455Y0030353D02*
X0012598Y0029210D01*
X0004216Y0044577D02*
X0025298Y0044577D01*
X0008509Y0044577D02*
X0008534Y0031877D01*
X0004089Y0044704D02*
X0004216Y0044577D01*
X0021234Y0026137D02*
X0022504Y0026137D01*
X0021844Y0043307D02*
X0024028Y0043307D01*
X0020955Y0039497D02*
X0022860Y0039497D01*
X0184912Y0114427D02*
X0188849Y0114427D01*
X0184912Y0112141D02*
X0189103Y0112141D01*
X0184912Y0112649D02*
X0189103Y0112649D01*
X0184912Y0113919D02*
X0188976Y0113919D01*
X0182880Y0113284D02*
X0189230Y0113284D01*
X0184912Y0112141D02*
X0184912Y0114427D01*
X0018161Y0029210D02*
X0021234Y0026137D01*
X0013106Y0015367D02*
X0013106Y0017018D01*
X0014376Y0015367D02*
X0014376Y0017018D01*
X0009734Y0013208D02*
X0011928Y0015402D01*
X0011836Y0015494D02*
X0011963Y0015367D01*
X0015265Y0015367D01*
X0004343Y0013208D02*
X0004343Y0015367D01*
X0005232Y0015367D02*
X0005232Y0017018D01*
X0006502Y0015367D02*
X0006502Y0017018D01*
X0004089Y0015367D02*
X0007391Y0015367D01*
D74*
X0128143Y0038481D02*
X0130302Y0036322D01*
X0115951Y0087884D02*
X0115951Y0093472D01*
X0114681Y0087884D02*
X0114681Y0093472D01*
X0113411Y0092202D02*
X0113665Y0091948D01*
X0113411Y0092202D02*
X0113411Y0093472D01*
X0130302Y0029972D02*
X0130302Y0031750D01*
X0123952Y0034036D02*
X0126619Y0034036D01*
X0128397Y0034036D02*
X0130302Y0034036D01*
D75*
X0190246Y0010668D02*
X0190246Y0011684D01*
X0190754Y0011684D01*
X0190923Y0011514D01*
X0190923Y0011176D01*
X0190754Y0011007D01*
X0190246Y0011007D01*
X0191770Y0010668D02*
X0191770Y0011684D01*
X0191262Y0011176D01*
X0191939Y0011176D01*
D76*
X0142367Y0019558D02*
X0142367Y0025908D01*
X0148971Y0012065D02*
X0148971Y0018415D01*
D80*
X0119062Y0009335D02*
D03*
D81*
X0094488Y0128524D02*
D03*
X0094488Y0123444D02*
D03*
X0122301Y0121539D02*
D03*
X0114681Y0121539D02*
D03*
X0073203Y0109474D02*
D03*
X0075743Y0109474D02*
D03*
X0075743Y0101854D02*
D03*
X0080823Y0101854D02*
D03*
X0073203Y0101854D02*
D03*
X0078283Y0109474D02*
D03*
X0078283Y0101854D02*
D03*
X0045212Y0101981D02*
D03*
X0050038Y0101981D02*
D03*
X0018440Y0042037D02*
D03*
X0025654Y0013589D02*
D03*
X0029210Y0013589D02*
D03*
X0044323Y0061214D02*
D03*
X0047879Y0061214D02*
D03*
X0011455Y0042037D02*
D03*
X0026416Y0048768D02*
D03*
X0026416Y0051308D02*
D03*
X0033020Y0058674D02*
D03*
X0033020Y0056134D02*
D03*
X0026416Y0055499D02*
D03*
X0026416Y0058039D02*
D03*
X0025273Y0042037D02*
D03*
X0025273Y0044577D02*
D03*
X0122225Y0105918D02*
D03*
X0122225Y0113538D02*
D03*
X0122225Y0110998D02*
D03*
X0122225Y0108458D02*
D03*
X0114605Y0105918D02*
D03*
X0114605Y0110998D02*
D03*
X0114605Y0108458D02*
D03*
X0099873Y0101854D02*
D03*
X0102413Y0109474D02*
D03*
X0094793Y0109474D02*
D03*
X0097333Y0109474D02*
D03*
X0099873Y0109474D02*
D03*
X0097333Y0101854D02*
D03*
X0102413Y0101854D02*
D03*
X0004216Y0044577D02*
D03*
X0004216Y0042037D02*
D03*
X0033020Y0051943D02*
D03*
X0033020Y0049403D02*
D03*
X0122301Y0124079D02*
D03*
X0122301Y0118999D02*
D03*
X0122301Y0116459D02*
D03*
X0114681Y0116459D02*
D03*
X0114681Y0118999D02*
D03*
X0050419Y0013208D02*
D03*
X0052959Y0013208D02*
D03*
X0086665Y0101854D02*
D03*
X0091745Y0101854D02*
D03*
X0091745Y0109474D02*
D03*
X0084125Y0109474D02*
D03*
X0089205Y0109474D02*
D03*
X0086665Y0109474D02*
D03*
X0089205Y0101854D02*
D03*
X0106934Y0030607D02*
D03*
X0103378Y0030607D02*
D03*
X0108712Y0016002D02*
D03*
X0116332Y0016002D02*
D03*
X0101092Y0023622D02*
D03*
X0108712Y0023622D02*
D03*
X0116332Y0023622D02*
D03*
X0011455Y0044577D02*
D03*
X0018440Y0044577D02*
D03*
X0022860Y0032004D02*
D03*
X0021844Y0043307D02*
D03*
X0022504Y0026137D02*
D03*
D82*
X0032004Y0012573D02*
D03*
X0047244Y0012573D02*
D03*
D83*
X0148209Y0124714D02*
D03*
X0153289Y0124714D02*
D03*
X0170307Y0095885D02*
D03*
X0168783Y0119634D02*
D03*
X0168783Y0124714D02*
D03*
X0168783Y0127254D02*
D03*
X0168783Y0129794D02*
D03*
X0163703Y0127254D02*
D03*
X0163703Y0119634D02*
D03*
X0179197Y0127254D02*
D03*
X0184277Y0127254D02*
D03*
X0184277Y0119634D02*
D03*
X0184277Y0129794D02*
D03*
X0179197Y0129794D02*
D03*
X0179197Y0119634D02*
D03*
X0184277Y0124714D02*
D03*
X0179197Y0124714D02*
D03*
X0194691Y0124714D02*
D03*
X0199771Y0129794D02*
D03*
X0194691Y0119634D02*
D03*
X0194691Y0129794D02*
D03*
X0199771Y0124714D02*
D03*
X0199771Y0119634D02*
D03*
X0176530Y0119634D02*
D03*
X0176530Y0124714D02*
D03*
X0176530Y0127254D02*
D03*
X0176530Y0129794D02*
D03*
X0171450Y0129794D02*
D03*
X0171450Y0127254D02*
D03*
X0171450Y0124714D02*
D03*
X0171450Y0119634D02*
D03*
X0155956Y0124714D02*
D03*
X0155956Y0127254D02*
D03*
X0155956Y0129794D02*
D03*
X0161036Y0127254D02*
D03*
X0161036Y0119634D02*
D03*
X0155956Y0119634D02*
D03*
X0180467Y0095885D02*
D03*
X0197739Y0022733D02*
D03*
X0148971Y0020701D02*
D03*
X0159131Y0020701D02*
D03*
X0159131Y0025781D02*
D03*
X0154051Y0020701D02*
D03*
X0154051Y0025781D02*
D03*
X0148971Y0025781D02*
D03*
X0197739Y0027813D02*
D03*
X0189484Y0043434D02*
D03*
X0189484Y0045974D02*
D03*
X0194564Y0045974D02*
D03*
X0194564Y0040894D02*
D03*
X0189484Y0040894D02*
D03*
X0197739Y0032893D02*
D03*
X0189484Y0035814D02*
D03*
X0192659Y0022733D02*
D03*
X0194564Y0043434D02*
D03*
X0192659Y0027813D02*
D03*
X0192659Y0032893D02*
D03*
X0194564Y0035814D02*
D03*
X0176403Y0025781D02*
D03*
X0181483Y0025781D02*
D03*
X0181483Y0020701D02*
D03*
X0186563Y0025781D02*
D03*
X0186563Y0020701D02*
D03*
X0176403Y0020701D02*
D03*
X0022987Y0101600D02*
D03*
X0022987Y0096520D02*
D03*
X0022987Y0091440D02*
D03*
X0028067Y0091440D02*
D03*
X0028067Y0096520D02*
D03*
X0028067Y0101600D02*
D03*
X0162941Y0115697D02*
D03*
X0162941Y0110617D02*
D03*
X0162941Y0108077D02*
D03*
X0162941Y0105537D02*
D03*
X0157861Y0105537D02*
D03*
X0157861Y0108077D02*
D03*
X0157861Y0110617D02*
D03*
X0157861Y0115697D02*
D03*
X0047498Y0129032D02*
D03*
X0052578Y0129032D02*
D03*
X0055118Y0129032D02*
D03*
X0057658Y0129032D02*
D03*
X0057658Y0123952D02*
D03*
X0055118Y0123952D02*
D03*
X0052578Y0123952D02*
D03*
X0047498Y0123952D02*
D03*
X0014351Y0118110D02*
D03*
X0011811Y0118110D02*
D03*
X0009271Y0118110D02*
D03*
X0009271Y0113030D02*
D03*
X0011811Y0113030D02*
D03*
X0014351Y0113030D02*
D03*
X0175387Y0095885D02*
D03*
X0177927Y0095885D02*
D03*
X0180467Y0090805D02*
D03*
X0177927Y0090805D02*
D03*
X0175387Y0090805D02*
D03*
X0170307Y0090805D02*
D03*
X0153289Y0119634D02*
D03*
X0019431Y0118110D02*
D03*
X0019431Y0113030D02*
D03*
X0148209Y0119634D02*
D03*
X0192024Y0124714D02*
D03*
X0186944Y0124714D02*
D03*
X0192024Y0119634D02*
D03*
X0186944Y0119634D02*
D03*
X0192024Y0129794D02*
D03*
X0186944Y0129794D02*
D03*
X0192024Y0127254D02*
D03*
X0186944Y0127254D02*
D03*
X0191262Y0090805D02*
D03*
X0191262Y0095885D02*
D03*
X0186182Y0090805D02*
D03*
X0196342Y0095885D02*
D03*
X0196342Y0090805D02*
D03*
X0186182Y0095885D02*
D03*
X0184023Y0020701D02*
D03*
X0197739Y0025273D02*
D03*
X0184023Y0025781D02*
D03*
X0192659Y0025273D02*
D03*
X0156591Y0020701D02*
D03*
X0193802Y0095885D02*
D03*
X0156591Y0025781D02*
D03*
X0193802Y0090805D02*
D03*
X0199771Y0127254D02*
D03*
X0194691Y0127254D02*
D03*
X0022987Y0093980D02*
D03*
X0028067Y0093980D02*
D03*
X0153289Y0127254D02*
D03*
X0163703Y0124714D02*
D03*
X0161036Y0124714D02*
D03*
X0148209Y0127254D02*
D03*
X0161036Y0129794D02*
D03*
X0163703Y0129794D02*
D03*
X0153289Y0129794D02*
D03*
X0148209Y0129794D02*
D03*
X0025019Y0078105D02*
D03*
X0025019Y0073025D02*
D03*
X0025019Y0063881D02*
D03*
X0025019Y0068961D02*
D03*
X0007747Y0107061D02*
D03*
X0007747Y0101981D02*
D03*
X0016764Y0101981D02*
D03*
X0016764Y0107061D02*
D03*
D84*
X0114681Y0124079D02*
D03*
X0080823Y0109474D02*
D03*
X0114605Y0113538D02*
D03*
X0094793Y0101854D02*
D03*
X0084125Y0101854D02*
D03*
X0101092Y0016002D02*
D03*
D85*
X0144145Y0117729D02*
D03*
X0017264Y0054368D02*
D03*
X0017264Y0056908D02*
D03*
X0017272Y0061976D02*
D03*
X0014732Y0055626D02*
D03*
X0014732Y0060706D02*
D03*
X0014732Y0063246D02*
D03*
X0139065Y0117729D02*
D03*
X0141605Y0117729D02*
D03*
X0014732Y0078232D02*
D03*
X0014732Y0075692D02*
D03*
X0014732Y0073152D02*
D03*
X0014732Y0070612D02*
D03*
X0017272Y0076962D02*
D03*
X0017264Y0074434D02*
D03*
X0017264Y0071894D02*
D03*
X0017264Y0069354D02*
D03*
X0017264Y0059448D02*
D03*
X0014732Y0058166D02*
D03*
X0133477Y0117729D02*
D03*
X0130937Y0117729D02*
D03*
X0128397Y0117729D02*
D03*
D86*
X0152781Y0111633D02*
D03*
X0008166Y0005575D02*
D03*
X0094742Y0022606D02*
D03*
D87*
X0008166Y0090970D02*
D03*
D88*
X0005334Y0051308D02*
D03*
X0005334Y0066294D02*
D03*
X0005334Y0081280D02*
D03*
X0005334Y0066294D02*
D03*
D89*
X0141605Y0128778D02*
D03*
X0130937Y0128778D02*
D03*
D90*
X0190754Y0059563D02*
D03*
X0190754Y0087503D02*
D03*
X0180213Y0059436D02*
D03*
X0180213Y0087376D02*
D03*
D91*
X0198628Y0012954D02*
D03*
D92*
X0024130Y0017653D02*
D03*
D93*
X0004318Y0013208D02*
D03*
X0009398Y0013208D02*
D03*
X0014478Y0013208D02*
D03*
X0004318Y0030988D02*
D03*
X0014478Y0030988D02*
D03*
X0019558Y0013208D02*
D03*
X0019558Y0030988D02*
D03*
X0009398Y0030988D02*
D03*
D94*
X0030988Y0030607D02*
D03*
X0028448Y0030607D02*
D03*
D95*
X0020828Y0130683D02*
D03*
X0018288Y0128143D02*
D03*
X0015748Y0130683D02*
D03*
X0038608Y0130683D02*
D03*
X0038608Y0128143D02*
D03*
X0036068Y0130683D02*
D03*
X0036068Y0128143D02*
D03*
X0033528Y0130683D02*
D03*
X0033528Y0128143D02*
D03*
X0030988Y0130683D02*
D03*
X0030988Y0128143D02*
D03*
X0028448Y0130683D02*
D03*
X0028448Y0128143D02*
D03*
X0025908Y0130683D02*
D03*
X0025908Y0128143D02*
D03*
X0023368Y0130683D02*
D03*
X0023368Y0128143D02*
D03*
X0020828Y0128143D02*
D03*
X0018288Y0130683D02*
D03*
D96*
X0015748Y0128143D02*
D03*
D97*
X0113157Y0120396D02*
D03*
X0096012Y0085166D02*
D03*
X0063373Y0078613D02*
D03*
X0112649Y0128270D02*
D03*
X0120396Y0129540D02*
D03*
X0110744Y0124968D02*
D03*
X0109982Y0123571D02*
D03*
X0146558Y0110490D02*
D03*
X0138430Y0111379D02*
D03*
X0036195Y0115062D02*
D03*
X0033782Y0114173D02*
D03*
X0031877Y0106426D02*
D03*
X0045720Y0064160D02*
D03*
X0127762Y0111506D02*
D03*
X0124968Y0115824D02*
D03*
X0134493Y0114808D02*
D03*
X0139319Y0110744D02*
D03*
X0145034Y0114808D02*
D03*
X0135890Y0109982D02*
D03*
X0139065Y0108077D02*
D03*
X0138811Y0109728D02*
D03*
X0135255Y0113411D02*
D03*
X0145796Y0107569D02*
D03*
X0146177Y0104521D02*
D03*
X0125603Y0106680D02*
D03*
X0126619Y0106680D02*
D03*
X0128524Y0104902D02*
D03*
X0124587Y0110617D02*
D03*
X0124587Y0113919D02*
D03*
X0139065Y0114173D02*
D03*
X0007366Y0029159D02*
D03*
X0011049Y0029159D02*
D03*
X0006223Y0025781D02*
D03*
X0004826Y0025781D02*
D03*
X0095504Y0031115D02*
D03*
X0099060Y0051816D02*
D03*
X0102870Y0052578D02*
D03*
X0099314Y0055118D02*
D03*
X0109728Y0047752D02*
D03*
X0109347Y0069977D02*
D03*
X0104521Y0056007D02*
D03*
X0110871Y0069469D02*
D03*
X0109982Y0059182D02*
D03*
X0073787Y0127889D02*
D03*
X0066421Y0125603D02*
D03*
X0072517Y0119253D02*
D03*
X0084836Y0123063D02*
D03*
X0076454Y0121666D02*
D03*
X0097663Y0113665D02*
D03*
X0137617Y0104496D02*
D03*
X0148336Y0040894D02*
D03*
X0030328Y0027534D02*
D03*
X0084709Y0121920D02*
D03*
X0033325Y0028600D02*
D03*
X0020066Y0028880D02*
D03*
X0156489Y0089205D02*
D03*
X0146431Y0086004D02*
D03*
X0152273Y0086360D02*
D03*
X0146533Y0090907D02*
D03*
X0139751Y0090957D02*
D03*
X0144196Y0090145D02*
D03*
X0140741Y0085827D02*
D03*
X0095860Y0081026D02*
D03*
X0088341Y0087782D02*
D03*
X0042291Y0010287D02*
D03*
X0090424Y0076606D02*
D03*
X0090424Y0077648D02*
D03*
X0081382Y0068834D02*
D03*
X0086614Y0061493D02*
D03*
X0125679Y0022835D02*
D03*
X0031801Y0063170D02*
D03*
X0031801Y0064389D02*
D03*
X0032791Y0064491D02*
D03*
X0032766Y0065583D02*
D03*
X0190754Y0081153D02*
D03*
X0187452Y0087376D02*
D03*
X0189611Y0093218D02*
D03*
X0198628Y0105537D02*
D03*
X0193929Y0107950D02*
D03*
X0181991Y0117094D02*
D03*
X0165100Y0108204D02*
D03*
X0170942Y0104394D02*
D03*
X0162814Y0131699D02*
D03*
X0199136Y0132842D02*
D03*
X0195707Y0132842D02*
D03*
X0197358Y0132842D02*
D03*
X0184023Y0132588D02*
D03*
X0181356Y0132588D02*
D03*
X0186842Y0132613D02*
D03*
X0150368Y0119507D02*
D03*
X0150622Y0129794D02*
D03*
X0150876Y0127508D02*
D03*
X0151130Y0122682D02*
D03*
X0164465Y0103632D02*
D03*
X0153924Y0114554D02*
D03*
X0159029Y0112370D02*
D03*
X0153035Y0108204D02*
D03*
X0153010Y0107086D02*
D03*
X0166624Y0093218D02*
D03*
X0170815Y0088519D02*
D03*
X0172847Y0086614D02*
D03*
X0199136Y0072136D02*
D03*
X0199009Y0068707D02*
D03*
X0191262Y0068707D02*
D03*
X0187198Y0068707D02*
D03*
X0183896Y0068707D02*
D03*
X0180721Y0068707D02*
D03*
X0179324Y0068707D02*
D03*
X0093421Y0099543D02*
D03*
X0150241Y0100457D02*
D03*
X0178054Y0097536D02*
D03*
X0182372Y0106045D02*
D03*
X0176657Y0097384D02*
D03*
X0181356Y0105283D02*
D03*
X0167081Y0097130D02*
D03*
X0178486Y0085725D02*
D03*
X0181610Y0077800D02*
D03*
X0164846Y0097282D02*
D03*
X0185928Y0077800D02*
D03*
X0196520Y0087833D02*
D03*
X0197688Y0078588D02*
D03*
X0177546Y0104267D02*
D03*
X0183896Y0104267D02*
D03*
X0198653Y0097104D02*
D03*
X0143713Y0107366D02*
D03*
X0140513Y0108001D02*
D03*
X0154330Y0018898D02*
D03*
X0187071Y0106883D02*
D03*
X0176530Y0106756D02*
D03*
X0186944Y0122047D02*
D03*
X0132080Y0022098D02*
D03*
X0110033Y0028727D02*
D03*
X0105588Y0033172D02*
D03*
X0100355Y0035128D02*
D03*
X0132461Y0020574D02*
D03*
X0110007Y0029743D02*
D03*
X0106655Y0033096D02*
D03*
X0100889Y0036068D02*
D03*
X0094488Y0065151D02*
D03*
X0022352Y0120853D02*
D03*
X0027178Y0120853D02*
D03*
X0072873Y0096698D02*
D03*
X0135255Y0123063D02*
D03*
X0114224Y0103530D02*
D03*
X0118135Y0103530D02*
D03*
X0146355Y0094894D02*
D03*
X0119253Y0094869D02*
D03*
X0089408Y0096672D02*
D03*
X0089967Y0097536D02*
D03*
X0092126Y0097993D02*
D03*
X0092710Y0098806D02*
D03*
X0095428Y0099797D02*
D03*
X0112090Y0102311D02*
D03*
X0110388Y0103784D02*
D03*
X0093523Y0098171D02*
D03*
X0118237Y0108661D02*
D03*
X0118237Y0114097D02*
D03*
X0115316Y0122707D02*
D03*
X0040996Y0098019D02*
D03*
X0082880Y0096698D02*
D03*
X0080416Y0097663D02*
D03*
X0057125Y0103632D02*
D03*
X0056286Y0102895D02*
D03*
X0068326Y0097663D02*
D03*
X0100101Y0090856D02*
D03*
X0097917Y0090322D02*
D03*
X0039878Y0123190D02*
D03*
X0029058Y0098349D02*
D03*
X0043129Y0098019D02*
D03*
X0058826Y0102184D02*
D03*
X0055194Y0109220D02*
D03*
X0057988Y0101600D02*
D03*
X0055194Y0107950D02*
D03*
X0043434Y0058471D02*
D03*
X0041707Y0056642D02*
D03*
X0043129Y0055804D02*
D03*
X0041732Y0054813D02*
D03*
X0059436Y0088138D02*
D03*
X0044450Y0083439D02*
D03*
X0101092Y0102489D02*
D03*
X0090576Y0102489D02*
D03*
X0087935Y0102489D02*
D03*
X0075362Y0103378D02*
D03*
X0103810Y0120015D02*
D03*
X0088443Y0119253D02*
D03*
X0083744Y0115697D02*
D03*
X0098603Y0110363D02*
D03*
X0080442Y0114427D02*
D03*
X0079553Y0115697D02*
D03*
X0079553Y0106934D02*
D03*
X0120828Y0105740D02*
D03*
X0074473Y0108966D02*
D03*
X0103175Y0107950D02*
D03*
X0087935Y0108839D02*
D03*
X0130937Y0102997D02*
D03*
X0139065Y0018669D02*
D03*
X0141478Y0012954D02*
D03*
X0128397Y0022098D02*
D03*
X0134112Y0022987D02*
D03*
X0136906Y0027432D02*
D03*
X0150876Y0014097D02*
D03*
X0128397Y0020574D02*
D03*
X0145034Y0020066D02*
D03*
X0149352Y0014859D02*
D03*
X0155321Y0028524D02*
D03*
X0171196Y0046355D02*
D03*
X0053315Y0042164D02*
D03*
X0120269Y0075819D02*
D03*
X0131572Y0076454D02*
D03*
X0099568Y0029718D02*
D03*
X0176911Y0055880D02*
D03*
X0141097Y0066548D02*
D03*
X0151638Y0082296D02*
D03*
X0043561Y0010287D02*
D03*
X0062484Y0012446D02*
D03*
X0068580Y0009906D02*
D03*
X0069215Y0012192D02*
D03*
X0072517Y0012573D02*
D03*
X0070358Y0015240D02*
D03*
X0069000Y0017106D02*
D03*
X0076962Y0008636D02*
D03*
X0070739Y0017145D02*
D03*
X0041402Y0044577D02*
D03*
X0044577Y0035179D02*
D03*
X0044577Y0036957D02*
D03*
X0025806Y0028981D02*
D03*
X0028702Y0017729D02*
D03*
X0050419Y0027432D02*
D03*
X0057658Y0036449D02*
D03*
X0057658Y0054229D02*
D03*
X0063754Y0067310D02*
D03*
X0081407Y0081407D02*
D03*
X0070358Y0054864D02*
D03*
X0063373Y0062611D02*
D03*
X0063373Y0073914D02*
D03*
X0070358Y0081153D02*
D03*
X0077724Y0054864D02*
D03*
X0082550Y0054864D02*
D03*
X0090424Y0062738D02*
D03*
X0090424Y0066929D02*
D03*
X0090043Y0074295D02*
D03*
X0077978Y0082042D02*
D03*
X0121539Y0035052D02*
D03*
X0128143Y0038481D02*
D03*
X0123698Y0038481D02*
D03*
X0052451Y0040513D02*
D03*
X0049022Y0045466D02*
D03*
X0051892Y0066980D02*
D03*
X0063500Y0038608D02*
D03*
X0090551Y0035814D02*
D03*
X0098933Y0079883D02*
D03*
X0097180Y0078105D02*
D03*
X0101346Y0056388D02*
D03*
X0099441Y0059944D02*
D03*
X0097409Y0088798D02*
D03*
X0106807Y0090830D02*
D03*
X0099390Y0089814D02*
D03*
X0110363Y0080518D02*
D03*
X0134747Y0048387D02*
D03*
X0158115Y0049149D02*
D03*
X0150749Y0049784D02*
D03*
X0148082Y0081407D02*
D03*
X0149225Y0065278D02*
D03*
X0151638Y0037084D02*
D03*
X0134747Y0013589D02*
D03*
X0131445Y0089154D02*
D03*
X0137033Y0090297D02*
D03*
X0138049Y0092583D02*
D03*
X0132842Y0089408D02*
D03*
X0143256Y0072263D02*
D03*
X0158242Y0076327D02*
D03*
X0152908Y0077343D02*
D03*
X0154051Y0077470D02*
D03*
X0123063Y0088265D02*
D03*
X0144272Y0077851D02*
D03*
X0145415Y0079883D02*
D03*
X0143129Y0075819D02*
D03*
X0145415Y0071882D02*
D03*
X0143129Y0067818D02*
D03*
X0151003Y0076962D02*
D03*
X0152781Y0075184D02*
D03*
X0118618Y0089408D02*
D03*
X0113614Y0089611D02*
D03*
X0113665Y0091948D02*
D03*
X0115443Y0091440D02*
D03*
X0115037Y0083134D02*
D03*
X0116027Y0080950D02*
D03*
X0115799Y0086030D02*
D03*
X0104089Y0086538D02*
D03*
X0114275Y0085700D02*
D03*
X0114275Y0081305D02*
D03*
X0124333Y0078105D02*
D03*
X0124206Y0080391D02*
D03*
X0122428Y0080391D02*
D03*
X0127762Y0088265D02*
D03*
X0126365Y0090551D02*
D03*
X0121158Y0088265D02*
D03*
X0120396Y0090551D02*
D03*
X0131699Y0079883D02*
D03*
X0133858Y0082423D02*
D03*
X0135636Y0076581D02*
D03*
X0133731Y0071374D02*
D03*
X0130302Y0073025D02*
D03*
X0124714Y0071628D02*
D03*
X0127254Y0069342D02*
D03*
X0128905Y0065151D02*
D03*
X0155829Y0066548D02*
D03*
X0170815Y0066040D02*
D03*
X0165989Y0055118D02*
D03*
X0100635Y0060579D02*
D03*
X0168529Y0056642D02*
D03*
X0163830Y0075184D02*
D03*
X0162306Y0075184D02*
D03*
X0173355Y0073406D02*
D03*
X0173482Y0068580D02*
D03*
X0160909Y0068580D02*
D03*
X0166116Y0068580D02*
D03*
X0163068Y0070612D02*
D03*
X0160020Y0071628D02*
D03*
X0159893Y0073660D02*
D03*
X0159893Y0075184D02*
D03*
X0166243Y0075184D02*
D03*
X0166243Y0073660D02*
D03*
X0160909Y0072390D02*
D03*
X0165227Y0072390D02*
D03*
X0166116Y0071628D02*
D03*
X0162306Y0061214D02*
D03*
X0171577Y0059690D02*
D03*
X0163449Y0061214D02*
D03*
X0163449Y0055626D02*
D03*
X0159893Y0062230D02*
D03*
X0159893Y0063500D02*
D03*
X0166243Y0062230D02*
D03*
X0166243Y0063500D02*
D03*
X0162306Y0053340D02*
D03*
X0175514Y0053594D02*
D03*
X0169799Y0055245D02*
D03*
X0173348Y0052331D02*
D03*
X0177927Y0050546D02*
D03*
X0177419Y0052324D02*
D03*
X0177479Y0054931D02*
D03*
X0151130Y0052705D02*
D03*
X0167005Y0045339D02*
D03*
X0158115Y0051689D02*
D03*
X0158115Y0054229D02*
D03*
X0155829Y0050546D02*
D03*
X0158115Y0050419D02*
D03*
X0179705Y0045974D02*
D03*
X0179578Y0042164D02*
D03*
X0181864Y0044704D02*
D03*
X0176022Y0041656D02*
D03*
X0176022Y0043180D02*
D03*
X0171958Y0043815D02*
D03*
X0170561Y0043815D02*
D03*
X0168783Y0041021D02*
D03*
X0172720Y0041021D02*
D03*
X0175895Y0045339D02*
D03*
X0166878Y0042545D02*
D03*
X0166878Y0043688D02*
D03*
X0161290Y0044069D02*
D03*
X0161798Y0046863D02*
D03*
X0161290Y0042164D02*
D03*
X0162306Y0044704D02*
D03*
X0162179Y0043307D02*
D03*
X0168402Y0035814D02*
D03*
X0149098Y0035306D02*
D03*
X0166624Y0037084D02*
D03*
X0167894Y0037084D02*
D03*
X0185420Y0036703D02*
D03*
X0186817Y0036703D02*
D03*
X0186055Y0040894D02*
D03*
X0181991Y0036246D02*
D03*
X0178029Y0036246D02*
D03*
X0148107Y0037059D02*
D03*
X0173228Y0036195D02*
D03*
X0168910Y0030480D02*
D03*
X0165354Y0035560D02*
D03*
X0164084Y0035560D02*
D03*
X0158115Y0035433D02*
D03*
X0160655Y0035433D02*
D03*
X0160401Y0037084D02*
D03*
X0140078Y0052959D02*
D03*
X0135633Y0052324D02*
D03*
X0136903Y0052324D02*
D03*
X0153032Y0046990D02*
D03*
X0153032Y0045720D02*
D03*
X0151508Y0043053D02*
D03*
X0151282Y0046990D02*
D03*
X0138684Y0043561D02*
D03*
X0138684Y0045085D02*
D03*
X0140716Y0046990D02*
D03*
X0141097Y0045720D02*
D03*
X0140205Y0050546D02*
D03*
X0136141Y0053594D02*
D03*
X0138808Y0054737D02*
D03*
X0144269Y0052959D02*
D03*
X0146428Y0053721D02*
D03*
X0146428Y0055499D02*
D03*
X0144269Y0051689D02*
D03*
X0144269Y0054229D02*
D03*
X0144269Y0055499D02*
D03*
X0134998Y0054864D02*
D03*
X0138808Y0052578D02*
D03*
X0104140Y0082042D02*
D03*
X0104902Y0083541D02*
D03*
X0105054Y0084963D02*
D03*
X0105283Y0080899D02*
D03*
X0116840Y0078232D02*
D03*
X0114681Y0074295D02*
D03*
X0110871Y0075184D02*
D03*
X0114681Y0075819D02*
D03*
X0114554Y0077216D02*
D03*
X0113284Y0077343D02*
D03*
X0111760Y0077343D02*
D03*
X0110109Y0077343D02*
D03*
X0106934Y0077343D02*
D03*
X0108585Y0077343D02*
D03*
X0106299Y0075819D02*
D03*
X0114808Y0072517D02*
D03*
X0114808Y0069342D02*
D03*
X0111760Y0068707D02*
D03*
X0110109Y0068707D02*
D03*
X0108585Y0068707D02*
D03*
X0106934Y0068707D02*
D03*
X0126111Y0052959D02*
D03*
X0121031Y0055372D02*
D03*
X0122174Y0053213D02*
D03*
X0123571Y0053213D02*
D03*
X0122301Y0049784D02*
D03*
X0120523Y0053086D02*
D03*
X0117348Y0053467D02*
D03*
X0116713Y0049657D02*
D03*
X0118110Y0049657D02*
D03*
X0116459Y0048260D02*
D03*
X0117348Y0044577D02*
D03*
X0114935Y0043942D02*
D03*
X0099695Y0027559D02*
D03*
X0110998Y0043180D02*
D03*
X0130302Y0046863D02*
D03*
X0124587Y0047117D02*
D03*
X0127762Y0045466D02*
D03*
X0125984Y0046863D02*
D03*
X0127635Y0044323D02*
D03*
X0119634Y0043180D02*
D03*
X0119761Y0041783D02*
D03*
X0122682Y0044958D02*
D03*
X0124079Y0043053D02*
D03*
X0120523Y0047244D02*
D03*
X0118745Y0044958D02*
D03*
X0123825Y0041783D02*
D03*
X0131064Y0038481D02*
D03*
X0130302Y0029972D02*
D03*
X0126619Y0034036D02*
D03*
X0128397Y0034036D02*
D03*
X0109601Y0044958D02*
D03*
X0111506Y0044958D02*
D03*
X0113665Y0044958D02*
D03*
X0114808Y0044958D02*
D03*
X0063119Y0052705D02*
D03*
X0098679Y0049657D02*
D03*
X0098806Y0044450D02*
D03*
X0098679Y0036830D02*
D03*
X0096393Y0043434D02*
D03*
X0090551Y0053340D02*
D03*
X0069596Y0035306D02*
D03*
X0073609Y0029337D02*
D03*
X0073228Y0034036D02*
D03*
X0074879Y0029972D02*
D03*
X0057277Y0029210D02*
D03*
X0066040Y0028397D02*
D03*
X0064313Y0028397D02*
D03*
X0090399Y0030226D02*
D03*
X0088621Y0029312D02*
D03*
X0069596Y0032385D02*
D03*
X0077419Y0033655D02*
D03*
X0072492Y0043637D02*
D03*
X0077419Y0028575D02*
D03*
X0074879Y0033655D02*
D03*
X0049022Y0029845D02*
D03*
X0063271Y0028397D02*
D03*
X0051689Y0060706D02*
D03*
X0057658Y0060960D02*
D03*
X0048133Y0050546D02*
D03*
X0048133Y0052197D02*
D03*
X0052832Y0053848D02*
D03*
X0053975Y0053848D02*
D03*
X0064770Y0042291D02*
D03*
X0083566Y0041529D02*
D03*
X0060071Y0055118D02*
D03*
X0061849Y0044450D02*
D03*
X0054229Y0058039D02*
D03*
X0055499Y0058039D02*
D03*
X0055372Y0060706D02*
D03*
X0056515Y0053340D02*
D03*
X0091669Y0082067D02*
D03*
X0085090Y0021463D02*
D03*
X0086995Y0021209D02*
D03*
X0079248Y0021412D02*
D03*
X0077546Y0021412D02*
D03*
X0076327Y0021412D02*
D03*
X0062814Y0021285D02*
D03*
X0061087Y0021285D02*
D03*
X0074651Y0044069D02*
D03*
X0088595Y0033680D02*
D03*
X0088595Y0034773D02*
D03*
X0083566Y0042672D02*
D03*
X0088773Y0041529D02*
D03*
X0087122Y0044323D02*
D03*
X0062484Y0047625D02*
D03*
X0063094Y0048438D02*
D03*
X0062738Y0046609D02*
D03*
X0061595Y0048260D02*
D03*
X0061595Y0049721D02*
D03*
X0065913Y0048514D02*
D03*
X0066370Y0049581D02*
D03*
X0066802Y0047371D02*
D03*
X0067412Y0048514D02*
D03*
X0065329Y0050622D02*
D03*
X0056642Y0047879D02*
D03*
X0056642Y0049784D02*
D03*
X0058649Y0035255D02*
D03*
X0059690Y0036271D02*
D03*
X0063119Y0042291D02*
D03*
X0059309Y0058293D02*
D03*
X0063119Y0039624D02*
D03*
X0062865Y0040640D02*
D03*
X0060833Y0044196D02*
D03*
X0059436Y0057277D02*
D03*
X0063373Y0053848D02*
D03*
X0064770Y0040640D02*
D03*
X0072695Y0085674D02*
D03*
X0062611Y0082169D02*
D03*
X0088341Y0084912D02*
D03*
X0089408Y0081915D02*
D03*
X0080264Y0082042D02*
D03*
X0083947Y0081915D02*
D03*
X0084150Y0084861D02*
D03*
X0073025Y0054864D02*
D03*
X0070155Y0051791D02*
D03*
X0068580Y0054864D02*
D03*
X0048895Y0012065D02*
D03*
X0060071Y0017272D02*
D03*
X0114808Y0010160D02*
D03*
X0113919Y0008763D02*
D03*
X0110871Y0009398D02*
D03*
X0064135Y0011430D02*
D03*
X0098171Y0009017D02*
D03*
X0119126Y0009017D02*
D03*
X0109220Y0009017D02*
D03*
X0047371Y0009017D02*
D03*
X0067818Y0009017D02*
D03*
X0072771Y0010033D02*
D03*
X0075311Y0009017D02*
D03*
X0080645Y0009017D02*
D03*
X0082931Y0008890D02*
D03*
X0086741Y0009017D02*
D03*
X0090551Y0009017D02*
D03*
X0092964Y0009017D02*
D03*
X0095631Y0009017D02*
D03*
X0051181Y0009017D02*
D03*
X0042799Y0016002D02*
D03*
X0044831Y0009017D02*
D03*
X0054610Y0009017D02*
D03*
X0112903Y0009017D02*
D03*
X0101981Y0009017D02*
D03*
X0099695Y0009017D02*
D03*
X0094488Y0009017D02*
D03*
X0088265Y0008890D02*
D03*
X0084709Y0009017D02*
D03*
X0079121Y0009017D02*
D03*
X0071501Y0009017D02*
D03*
X0069469Y0009144D02*
D03*
X0063119Y0009017D02*
D03*
X0060071Y0009017D02*
D03*
X0035433Y0018872D02*
D03*
X0029972Y0023952D02*
D03*
X0036195Y0021539D02*
D03*
X0073787Y0021412D02*
D03*
X0073279Y0011811D02*
D03*
X0082804Y0009906D02*
D03*
X0072314Y0021412D02*
D03*
X0084963Y0010795D02*
D03*
X0075565Y0017145D02*
D03*
X0109093Y0010160D02*
D03*
X0107188Y0011938D02*
D03*
X0101981Y0010668D02*
D03*
X0098806Y0012319D02*
D03*
X0099060Y0010033D02*
D03*
X0096647Y0010287D02*
D03*
X0080899Y0014605D02*
D03*
X0094361Y0010287D02*
D03*
X0082804Y0047879D02*
D03*
X0084074Y0048006D02*
D03*
X0085217Y0048006D02*
D03*
X0083135Y0051816D02*
D03*
X0085090Y0044196D02*
D03*
X0087452Y0081915D02*
D03*
X0085090Y0081915D02*
D03*
X0082347Y0081915D02*
D03*
X0079121Y0082042D02*
D03*
X0074549Y0082042D02*
D03*
X0064389Y0050165D02*
D03*
X0071374Y0081915D02*
D03*
X0063373Y0050419D02*
D03*
X0068326Y0081915D02*
D03*
X0062230Y0050521D02*
D03*
X0065659Y0082042D02*
D03*
X0063373Y0065659D02*
D03*
X0063373Y0064262D02*
D03*
X0047371Y0072390D02*
D03*
X0046228Y0072390D02*
D03*
X0045644Y0074092D02*
D03*
X0044729Y0074930D02*
D03*
X0063373Y0060909D02*
D03*
X0060376Y0061138D02*
D03*
X0045085Y0072136D02*
D03*
X0043866Y0072136D02*
D03*
X0045034Y0078207D02*
D03*
X0043866Y0078232D02*
D03*
X0055880Y0072517D02*
D03*
X0056515Y0073279D02*
D03*
X0055880Y0074092D02*
D03*
X0056515Y0074930D02*
D03*
X0055880Y0075768D02*
D03*
X0043891Y0075946D02*
D03*
X0056515Y0076606D02*
D03*
X0044679Y0076708D02*
D03*
X0055880Y0077546D02*
D03*
X0046558Y0077394D02*
D03*
X0047498Y0077978D02*
D03*
X0056515Y0078867D02*
D03*
X0063373Y0057658D02*
D03*
X0063373Y0059309D02*
D03*
X0063373Y0056134D02*
D03*
X0063373Y0068834D02*
D03*
X0063373Y0070993D02*
D03*
X0063373Y0075057D02*
D03*
X0063373Y0079756D02*
D03*
X0060325Y0074803D02*
D03*
X0060300Y0067843D02*
D03*
X0063373Y0076708D02*
D03*
X0063373Y0080899D02*
D03*
X0046863Y0081788D02*
D03*
X0044348Y0087935D02*
D03*
X0045593Y0088138D02*
D03*
X0046787Y0097993D02*
D03*
X0056515Y0080391D02*
D03*
X0047879Y0081788D02*
D03*
X0063373Y0082931D02*
D03*
X0057099Y0083160D02*
D03*
X0047320Y0083693D02*
D03*
X0057125Y0084582D02*
D03*
X0045212Y0084658D02*
D03*
X0058191Y0084150D02*
D03*
X0045847Y0083820D02*
D03*
X0058928Y0084963D02*
D03*
X0046558Y0088697D02*
D03*
X0058166Y0085725D02*
D03*
X0047549Y0088138D02*
D03*
X0058928Y0086487D02*
D03*
X0048412Y0088697D02*
D03*
X0058039Y0087249D02*
D03*
X0049454Y0088697D02*
D03*
X0069596Y0081915D02*
D03*
X0061214Y0087071D02*
D03*
X0049403Y0081788D02*
D03*
X0060198Y0087452D02*
D03*
X0044196Y0082423D02*
D03*
X0075438Y0054864D02*
D03*
X0079502Y0054864D02*
D03*
X0083693Y0054864D02*
D03*
X0088646Y0054864D02*
D03*
X0090424Y0054991D02*
D03*
X0090424Y0056134D02*
D03*
X0090424Y0057277D02*
D03*
X0090348Y0061595D02*
D03*
X0090424Y0060579D02*
D03*
X0090424Y0065151D02*
D03*
X0090348Y0068072D02*
D03*
X0090424Y0069088D02*
D03*
X0090424Y0075311D02*
D03*
X0090424Y0071628D02*
D03*
X0093472Y0075565D02*
D03*
X0090424Y0080518D02*
D03*
X0090424Y0078740D02*
D03*
X0090424Y0082804D02*
D03*
X0069850Y0084963D02*
D03*
X0073279Y0081915D02*
D03*
X0077089Y0084963D02*
D03*
X0076708Y0082042D02*
D03*
X0079807Y0044069D02*
D03*
X0077470Y0044069D02*
D03*
X0075692Y0044069D02*
D03*
X0071501Y0043815D02*
D03*
X0059182Y0067564D02*
D03*
X0056642Y0041910D02*
D03*
X0062865Y0035941D02*
D03*
X0062865Y0037465D02*
D03*
X0051460Y0029337D02*
D03*
X0055372Y0032766D02*
D03*
X0057404Y0058293D02*
D03*
X0086360Y0048006D02*
D03*
X0087122Y0047117D02*
D03*
X0064770Y0043942D02*
D03*
X0088011Y0046355D02*
D03*
X0050609Y0045402D02*
D03*
X0069799Y0028067D02*
D03*
X0051816Y0012319D02*
D03*
X0058928Y0009779D02*
D03*
X0051054Y0014986D02*
D03*
X0048260Y0023749D02*
D03*
X0049276Y0023749D02*
D03*
X0045466Y0025019D02*
D03*
X0044704Y0014097D02*
D03*
X0052324Y0034163D02*
D03*
X0054356Y0040005D02*
D03*
X0054737Y0042037D02*
D03*
X0053086Y0032639D02*
D03*
X0053848Y0033655D02*
D03*
X0093853Y0027178D02*
D03*
X0094920Y0032207D02*
D03*
X0122174Y0011684D02*
D03*
X0122784Y0014478D02*
D03*
X0122047Y0020066D02*
D03*
X0093726Y0034798D02*
D03*
X0101473Y0050292D02*
D03*
X0100838Y0046609D02*
D03*
X0101473Y0042672D02*
D03*
X0101092Y0038735D02*
D03*
X0117221Y0032004D02*
D03*
X0115951Y0032004D02*
D03*
X0123698Y0039624D02*
D03*
X0131191Y0053340D02*
D03*
X0132207Y0055753D02*
D03*
X0128905Y0055626D02*
D03*
X0123571Y0055245D02*
D03*
X0129921Y0053340D02*
D03*
X0128651Y0053340D02*
D03*
X0130048Y0055626D02*
D03*
X0085852Y0054864D02*
D03*
X0073635Y0085242D02*
D03*
X0089764Y0037668D02*
D03*
X0093447Y0037668D02*
D03*
X0118110Y0012573D02*
D03*
X0117094Y0012573D02*
D03*
X0050673Y0016002D02*
D03*
X0127889Y0017145D02*
D03*
X0145288Y0030607D02*
D03*
X0152908Y0037084D02*
D03*
X0150873Y0035306D02*
D03*
X0155626Y0035433D02*
D03*
X0155702Y0051689D02*
D03*
X0156083Y0053340D02*
D03*
X0151511Y0051435D02*
D03*
X0181864Y0047371D02*
D03*
X0135001Y0019558D02*
D03*
X0120650Y0065659D02*
D03*
X0120650Y0059182D02*
D03*
X0118364Y0066167D02*
D03*
X0101981Y0033655D02*
D03*
X0103632Y0058293D02*
D03*
X0040538Y0011049D02*
D03*
X0036779Y0011074D02*
D03*
X0105283Y0063881D02*
D03*
X0108966Y0063881D02*
D03*
X0072212Y0100457D02*
D03*
X0076098Y0100432D02*
D03*
X0113157Y0050800D02*
D03*
X0115062Y0058293D02*
D03*
X0109601Y0056261D02*
D03*
X0169672Y0082169D02*
D03*
X0169672Y0080010D02*
D03*
X0167894Y0078613D02*
D03*
X0163195Y0082931D02*
D03*
X0105664Y0056896D02*
D03*
X0109093Y0051181D02*
D03*
X0118364Y0009652D02*
D03*
X0132207Y0029083D02*
D03*
X0141097Y0072771D02*
D03*
X0144653Y0081407D02*
D03*
X0136652Y0014351D02*
D03*
X0143510Y0058674D02*
D03*
X0136652Y0011811D02*
D03*
X0153416Y0088519D02*
D03*
X0148844Y0050419D02*
D03*
X0141859Y0082677D02*
D03*
X0056642Y0040132D02*
D03*
X0048743Y0041656D02*
D03*
X0053594Y0057023D02*
D03*
X0053340Y0048260D02*
D03*
X0059690Y0056134D02*
D03*
X0059690Y0037338D02*
D03*
X0076635Y0054861D02*
D03*
X0058928Y0033401D02*
D03*
X0062967Y0034671D02*
D03*
X0065557Y0034925D02*
D03*
X0057277Y0030226D02*
D03*
X0067488Y0034925D02*
D03*
X0068605Y0033757D02*
D03*
X0068580Y0028092D02*
D03*
X0070866Y0024714D02*
D03*
X0079959Y0024536D02*
D03*
X0081153Y0028042D02*
D03*
X0079959Y0028118D02*
D03*
X0085217Y0036068D02*
D03*
X0084303Y0029235D02*
D03*
X0085293Y0029743D02*
D03*
X0084455Y0034544D02*
D03*
X0081940Y0034544D02*
D03*
X0083591Y0028448D02*
D03*
X0094336Y0028575D02*
D03*
X0085471Y0024130D02*
D03*
X0095250Y0028092D02*
D03*
X0080899Y0032004D02*
D03*
X0112141Y0021844D02*
D03*
X0148717Y0030099D02*
D03*
X0153162Y0030988D02*
D03*
X0155575Y0030988D02*
D03*
X0168529Y0029337D02*
D03*
X0149479Y0029337D02*
D03*
X0141478Y0029210D02*
D03*
X0181483Y0029972D02*
D03*
X0041275Y0038989D02*
D03*
X0045898Y0043307D02*
D03*
X0041275Y0047676D02*
D03*
X0027661Y0028651D02*
D03*
X0026543Y0020142D02*
D03*
X0025425Y0022352D02*
D03*
X0026670Y0025222D02*
D03*
X0010287Y0035712D02*
D03*
X0033020Y0039243D02*
D03*
X0140335Y0102235D02*
D03*
X0141783Y0101473D02*
D03*
X0128651Y0114046D02*
D03*
X0053086Y0105410D02*
D03*
X0053111Y0106629D02*
D03*
X0040640Y0105410D02*
D03*
X0040640Y0106680D02*
D03*
X0053213Y0111760D02*
D03*
X0053213Y0113030D02*
D03*
X0040640Y0111760D02*
D03*
X0047498Y0102489D02*
D03*
X0058547Y0109220D02*
D03*
X0046101Y0109220D02*
D03*
X0044704Y0120269D02*
D03*
X0053848Y0122555D02*
D03*
X0102108Y0124206D02*
D03*
X0101524Y0116205D02*
D03*
X0094996Y0116459D02*
D03*
X0092837Y0117475D02*
D03*
X0089047Y0114711D02*
D03*
X0087808Y0114935D02*
D03*
X0105207Y0125603D02*
D03*
X0100254Y0124841D02*
D03*
X0144145Y0093091D02*
D03*
X0143434Y0093904D02*
D03*
X0150368Y0089662D02*
D03*
X0160401Y0091872D02*
D03*
X0138735Y0083515D02*
D03*
X0152146Y0085217D02*
D03*
X0078283Y0111887D02*
D03*
X0078283Y0113157D02*
D03*
X0083744Y0118237D02*
D03*
X0078537Y0118237D02*
D03*
X0078283Y0122682D02*
D03*
X0077851Y0125730D02*
D03*
X0086157Y0125476D02*
D03*
X0083490Y0125476D02*
D03*
X0107239Y0127762D02*
D03*
X0124460Y0104521D02*
D03*
X0128651Y0109855D02*
D03*
X0127254Y0104521D02*
D03*
X0123571Y0107188D02*
D03*
X0070282Y0110109D02*
D03*
X0071425Y0117221D02*
D03*
X0071425Y0113665D02*
D03*
X0031115Y0035433D02*
D03*
X0029591Y0032004D02*
D03*
X0026924Y0032004D02*
D03*
X0030607Y0039497D02*
D03*
X0029591Y0048133D02*
D03*
X0010033Y0049276D02*
D03*
X0014732Y0049276D02*
D03*
X0018923Y0049276D02*
D03*
X0020574Y0049784D02*
D03*
X0020701Y0053721D02*
D03*
X0020701Y0058166D02*
D03*
X0096012Y0034798D02*
D03*
X0024511Y0119126D02*
D03*
X0021336Y0119126D02*
D03*
X0035128Y0061595D02*
D03*
X0035509Y0062509D02*
D03*
X0035865Y0063449D02*
D03*
X0041224Y0064973D02*
D03*
X0033045Y0067513D02*
D03*
X0026873Y0103175D02*
D03*
X0033782Y0104648D02*
D03*
X0033782Y0107315D02*
D03*
X0033782Y0117348D02*
D03*
X0031623Y0116332D02*
D03*
X0041529Y0120015D02*
D03*
X0051435Y0122809D02*
D03*
X0038227Y0102083D02*
D03*
X0038227Y0103099D02*
D03*
X0039776Y0102565D02*
D03*
X0065811Y0103353D02*
D03*
X0067742Y0103378D02*
D03*
X0084277Y0098628D02*
D03*
X0085293Y0099009D02*
D03*
X0086411Y0098298D02*
D03*
X0091719Y0105512D02*
D03*
X0089383Y0088163D02*
D03*
X0084353Y0088163D02*
D03*
X0091034Y0087681D02*
D03*
X0082956Y0087401D02*
D03*
X0093015Y0088163D02*
D03*
X0081559Y0088163D02*
D03*
X0109245Y0103810D02*
D03*
X0120269Y0094412D02*
D03*
X0144526Y0094209D02*
D03*
X0118135Y0121463D02*
D03*
X0094234Y0100178D02*
D03*
X0040640Y0113030D02*
D03*
X0044196Y0113030D02*
D03*
X0128702Y0110871D02*
D03*
X0040640Y0114300D02*
D03*
X0053213Y0114300D02*
D03*
X0131191Y0010922D02*
D03*
X0155702Y0010922D02*
D03*
X0110160Y0118872D02*
D03*
X0109779Y0112268D02*
D03*
X0044704Y0115062D02*
D03*
X0046101Y0111760D02*
D03*
X0058547Y0111760D02*
D03*
X0133350Y0106680D02*
D03*
X0111557Y0112141D02*
D03*
X0105791Y0132918D02*
D03*
X0101092Y0114300D02*
D03*
X0098679Y0114554D02*
D03*
X0140614Y0058420D02*
D03*
X0135433Y0058064D02*
D03*
X0137541Y0058141D02*
D03*
X0063805Y0096698D02*
D03*
X0060325Y0079502D02*
D03*
X0056820Y0096698D02*
D03*
X0056515Y0059182D02*
D03*
X0090297Y0064059D02*
D03*
X0090297Y0070434D02*
D03*
X0148819Y0095580D02*
D03*
X0148819Y0097333D02*
D03*
X0111252Y0040894D02*
D03*
X0111252Y0037338D02*
D03*
X0113157Y0035687D02*
D03*
X0116713Y0035687D02*
D03*
X0114935Y0042545D02*
D03*
X0113030Y0042545D02*
D03*
X0117475Y0042037D02*
D03*
X0118491Y0039116D02*
D03*
X0114808Y0039116D02*
D03*
X0095072Y0077826D02*
D03*
X0003048Y0101092D02*
D03*
X0005334Y0101092D02*
D03*
X0094488Y0121920D02*
D03*
X0145288Y0048260D02*
D03*
X0147828Y0049530D02*
D03*
X0155219Y0049073D02*
D03*
X0152756Y0048260D02*
D03*
X0138862Y0037313D02*
D03*
X0144704Y0037186D02*
D03*
X0141783Y0037211D02*
D03*
X0145263Y0035331D02*
D03*
X0115951Y0009398D02*
D03*
X0039116Y0027432D02*
D03*
X0045085Y0032563D02*
D03*
X0043739Y0021971D02*
D03*
X0156489Y0100203D02*
D03*
X0161036Y0087630D02*
D03*
X0159309Y0089281D02*
D03*
X0148920Y0085166D02*
D03*
X0029896Y0026492D02*
D03*
X0029896Y0025222D02*
D03*
X0017907Y0027534D02*
D03*
X0034671Y0028804D02*
D03*
X0044958Y0049682D02*
D03*
X0154813Y0106045D02*
D03*
X0151130Y0102870D02*
D03*
X0146304Y0127381D02*
D03*
X0061849Y0120142D02*
D03*
X0135636Y0105918D02*
D03*
X0120777Y0102870D02*
D03*
X0115316Y0094920D02*
D03*
X0195072Y0110109D02*
D03*
X0177546Y0117221D02*
D03*
X0179197Y0117221D02*
D03*
X0169418Y0110490D02*
D03*
X0147066Y0128397D02*
D03*
X0174625Y0110490D02*
D03*
X0147320Y0116713D02*
D03*
X0163957Y0114173D02*
D03*
X0164592Y0109601D02*
D03*
X0149479Y0125984D02*
D03*
X0006198Y0030429D02*
D03*
X0017501Y0033782D02*
D03*
X0022479Y0029718D02*
D03*
X0009728Y0021209D02*
D03*
X0128905Y0088265D02*
D03*
X0144272Y0069850D02*
D03*
D98*
X0013310Y0046634D02*
D03*
D99*
X0001448Y0027686D02*
D03*
D100*
X0112776Y0121615D02*
D03*
X0145034Y0113081D02*
D03*
X0094234Y0104318D02*
D03*
X0177673Y0112471D02*
D03*
D101*
X0141148Y0114935D02*
D03*
X0130607Y0115062D02*
D03*
X0055448Y0114300D02*
D03*
X0060884Y0123317D02*
D03*
X0173050Y0112141D02*
D03*
X0169240Y0112141D02*
D03*
D102*
X0135585Y0111125D02*
D03*
X0137287Y0110490D02*
D03*
X0137287Y0111760D02*
D03*
X0126111Y0111811D02*
D03*
X0125476Y0110109D02*
D03*
X0126746Y0110109D02*
D03*
X0136195Y0089154D02*
D03*
X0134493Y0089789D02*
D03*
X0134493Y0088519D02*
D03*
X0136195Y0092329D02*
D03*
X0134493Y0092964D02*
D03*
X0134493Y0091694D02*
D03*
X0155448Y0078562D02*
D03*
X0156083Y0080264D02*
D03*
X0154813Y0080264D02*
D03*
X0152654Y0078435D02*
D03*
X0153289Y0080137D02*
D03*
X0152019Y0080137D02*
D03*
X0178003Y0035306D02*
D03*
X0179705Y0034671D02*
D03*
X0179705Y0035941D02*
D03*
X0170002Y0033909D02*
D03*
X0171704Y0033274D02*
D03*
X0171704Y0034544D02*
D03*
X0155575Y0032461D02*
D03*
X0156210Y0034163D02*
D03*
X0154940Y0034163D02*
D03*
X0173812Y0035306D02*
D03*
X0175514Y0034671D02*
D03*
X0175514Y0035941D02*
D03*
X0182067Y0035306D02*
D03*
X0183769Y0034671D02*
D03*
X0183769Y0035941D02*
D03*
X0138862Y0038608D02*
D03*
X0137160Y0039243D02*
D03*
X0137160Y0037973D02*
D03*
X0144704Y0038608D02*
D03*
X0143002Y0039243D02*
D03*
X0143002Y0037973D02*
D03*
X0147625Y0038608D02*
D03*
X0145923Y0039243D02*
D03*
X0145923Y0037973D02*
D03*
X0141783Y0038608D02*
D03*
X0140081Y0039243D02*
D03*
X0140081Y0037973D02*
D03*
X0094158Y0118567D02*
D03*
X0094793Y0120269D02*
D03*
X0093523Y0120269D02*
D03*
X0097155Y0118567D02*
D03*
X0097790Y0120269D02*
D03*
X0096520Y0120269D02*
D03*
X0028372Y0033655D02*
D03*
X0026670Y0034290D02*
D03*
X0026670Y0033020D02*
D03*
X0032309Y0033655D02*
D03*
X0030607Y0034290D02*
D03*
X0030607Y0033020D02*
D03*
X0178689Y0025476D02*
D03*
X0179324Y0027178D02*
D03*
X0178054Y0027178D02*
D03*
X0045212Y0050622D02*
D03*
X0045847Y0052324D02*
D03*
X0044577Y0052324D02*
D03*
X0180899Y0115316D02*
D03*
X0179197Y0115951D02*
D03*
X0179197Y0114681D02*
D03*
D103*
X0141097Y0120523D02*
D03*
X0145161Y0120523D02*
D03*
X0134366Y0120523D02*
D03*
X0130302Y0120523D02*
D03*
D104*
X0068377Y0116459D02*
D03*
X0172466Y0080899D02*
D03*
X0118999Y0083058D02*
D03*
X0108712Y0083185D02*
D03*
X0123952Y0034036D02*
D03*
X0106680Y0059817D02*
D03*
X0189230Y0113284D02*
D03*
D105*
X0126619Y0021666D02*
D03*
X0109728Y0105232D02*
D03*
X0147828Y0077648D02*
D03*
X0101651Y0104470D02*
D03*
X0085268Y0104445D02*
D03*
X0090602Y0104445D02*
D03*
X0076632Y0106985D02*
D03*
D106*
X0190754Y0099441D02*
D03*
X0196342Y0099441D02*
D03*
X0190754Y0103505D02*
D03*
X0196342Y0103505D02*
D03*
X0159385Y0133350D02*
D03*
X0164973Y0133350D02*
D03*
X0155067Y0133350D02*
D03*
X0149479Y0133350D02*
D03*
D107*
X0003962Y0017018D02*
D03*
X0005232Y0017018D02*
D03*
X0006502Y0017018D02*
D03*
X0007772Y0017018D02*
D03*
X0007772Y0022606D02*
D03*
X0006502Y0022606D02*
D03*
X0005232Y0022606D02*
D03*
X0003962Y0022606D02*
D03*
X0011836Y0022606D02*
D03*
X0013106Y0022606D02*
D03*
X0014376Y0022606D02*
D03*
X0015646Y0022606D02*
D03*
X0015646Y0017018D02*
D03*
X0014376Y0017018D02*
D03*
X0013106Y0017018D02*
D03*
X0011836Y0017018D02*
D03*
D108*
X0109779Y0116840D02*
D03*
X0109779Y0111252D02*
D03*
D109*
X0109779Y0108712D02*
D03*
X0109779Y0114300D02*
D03*
X0104699Y0114300D02*
D03*
X0104699Y0108712D02*
D03*
X0104699Y0116840D02*
D03*
X0104699Y0111252D02*
D03*
D110*
X0005842Y0019634D02*
D03*
X0013741Y0019634D02*
D03*
D111*
X0115316Y0090678D02*
D03*
D112*
X0110871Y0051943D02*
D03*
M02*
