%FSAX43Y43*%
%MOMM*%
G71*
G01*
G75*
%ADD10R,11.430X1.524*%
%ADD11R,30.480X1.524*%
%ADD12R,1.524X0.305*%
%ADD13R,0.305X1.524*%
%ADD14R,1.524X1.270*%
%ADD15R,0.762X0.889*%
%ADD16O,0.432X1.524*%
%ADD17R,0.432X1.524*%
%ADD18R,1.778X2.286*%
%ADD19R,1.270X1.143*%
%ADD20R,1.524X3.048*%
%ADD21R,0.889X0.762*%
%ADD22R,3.048X1.524*%
%ADD23R,1.270X1.524*%
%ADD24R,2.286X1.778*%
%ADD25R,1.524X0.508*%
%ADD26O,0.610X2.032*%
%ADD27R,1.143X1.270*%
%ADD28R,1.778X1.524*%
%ADD29R,1.524X1.778*%
%ADD30R,1.524X2.032*%
%ADD31R,2.540X0.610*%
%ADD32O,2.540X0.610*%
%ADD33O,1.778X3.048*%
%ADD34R,5.588X6.350*%
%ADD35R,3.810X2.032*%
%ADD36R,2.032X1.524*%
%ADD37R,1.727X1.219*%
%ADD38O,1.727X1.219*%
%ADD39O,2.540X1.270*%
%ADD40O,2.032X0.610*%
%ADD41R,15.240X5.080*%
%ADD42R,2.540X1.778*%
%ADD43R,0.914X1.270*%
%ADD44R,0.914X0.914*%
%ADD45R,1.778X2.540*%
%ADD46R,3.048X2.286*%
%ADD47R,1.270X1.016*%
%ADD48R,1.016X1.270*%
%ADD49R,1.780X0.420*%
%ADD50R,1.780X0.420*%
%ADD51O,1.016X5.080*%
%ADD52O,2.032X0.762*%
%ADD53R,1.727X1.829*%
%ADD54R,1.778X0.508*%
%ADD55R,2.540X0.635*%
%ADD56R,0.508X1.524*%
%ADD57R,0.508X1.778*%
%ADD58R,0.610X2.032*%
%ADD59R,2.032X0.610*%
%ADD60R,21.590X1.524*%
%ADD61R,1.524X14.859*%
%ADD62O,8.636X8.382*%
%ADD63R,7.874X6.096*%
%ADD64R,1.727X0.813*%
%ADD65C,0.203*%
%ADD66C,0.356*%
%ADD67C,0.457*%
%ADD68C,0.305*%
%ADD69C,1.270*%
%ADD70C,0.508*%
%ADD71C,0.406*%
%ADD72C,0.635*%
%ADD73C,0.381*%
%ADD74C,0.584*%
%ADD75C,0.254*%
%ADD76C,0.813*%
%ADD77C,0.711*%
%ADD78C,0.889*%
%ADD79R,25.146X25.400*%
%ADD80R,1.397X0.635*%
%ADD81C,1.270*%
%ADD82C,1.651*%
%ADD83C,1.524*%
%ADD84R,1.270X1.270*%
%ADD85C,1.626*%
%ADD86C,3.302*%
%ADD87R,10.160X7.620*%
%ADD88C,2.286*%
%ADD89C,6.350*%
%ADD90C,1.930*%
%ADD91C,5.842*%
%ADD92C,1.905*%
%ADD93R,1.905X1.905*%
%ADD94C,1.575*%
%ADD95C,1.727*%
%ADD96R,1.727X1.727*%
%ADD97C,0.813*%
%ADD98R,24.130X1.524*%
%ADD99R,2.032X30.480*%
%ADD100R,1.016X0.914*%
%ADD101R,0.914X1.016*%
%ADD102R,0.762X0.762*%
%ADD103R,1.829X1.727*%
%ADD104R,2.032X3.810*%
%ADD105R,1.270X0.914*%
%ADD106R,2.286X3.048*%
%ADD107O,0.762X2.032*%
%ADD108R,1.194X0.787*%
%ADD109O,1.194X0.787*%
%ADD110R,5.080X2.032*%
%ADD111R,1.270X2.794*%
%ADD112R,1.270X3.048*%
%ADD113C,0.200*%
%ADD114C,0.127*%
%ADD115R,79.883X6.985*%
%ADD116R,11.633X1.727*%
%ADD117R,30.683X1.727*%
%ADD118R,1.727X0.508*%
%ADD119R,0.508X1.727*%
%ADD120R,1.727X1.473*%
%ADD121R,0.965X1.092*%
%ADD122O,0.635X1.727*%
%ADD123R,0.635X1.727*%
%ADD124R,1.981X2.489*%
%ADD125R,1.473X1.346*%
%ADD126R,1.727X3.251*%
%ADD127R,1.092X0.965*%
%ADD128R,3.251X1.727*%
%ADD129R,1.473X1.727*%
%ADD130R,2.489X1.981*%
%ADD131R,1.727X0.711*%
%ADD132O,0.813X2.235*%
%ADD133R,1.346X1.473*%
%ADD134R,1.981X1.727*%
%ADD135R,1.727X1.981*%
%ADD136R,1.727X2.235*%
%ADD137R,2.743X0.813*%
%ADD138O,2.743X0.813*%
%ADD139O,1.981X3.251*%
%ADD140R,5.791X6.553*%
%ADD141R,4.013X2.235*%
%ADD142R,2.235X1.727*%
%ADD143R,1.930X1.422*%
%ADD144O,1.930X1.422*%
%ADD145O,2.743X1.473*%
%ADD146O,2.235X0.813*%
%ADD147R,15.443X5.283*%
%ADD148R,2.743X1.981*%
%ADD149R,1.118X1.473*%
%ADD150R,1.118X1.118*%
%ADD151R,1.981X2.743*%
%ADD152R,3.251X2.489*%
%ADD153R,1.473X1.219*%
%ADD154R,1.219X1.473*%
%ADD155R,1.983X0.623*%
%ADD156R,1.983X0.623*%
%ADD157O,1.219X5.283*%
%ADD158O,2.235X0.965*%
%ADD159R,1.930X2.032*%
%ADD160R,1.981X0.711*%
%ADD161R,2.743X0.838*%
%ADD162R,0.711X1.727*%
%ADD163R,0.711X1.981*%
%ADD164R,0.813X2.235*%
%ADD165R,2.235X0.813*%
%ADD166R,21.793X1.727*%
%ADD167R,1.727X15.062*%
%ADD168O,8.839X8.585*%
%ADD169R,8.077X6.299*%
%ADD170R,1.930X1.016*%
%ADD171C,1.473*%
%ADD172C,1.854*%
%ADD173R,1.473X1.473*%
%ADD174C,1.829*%
%ADD175C,3.505*%
%ADD176R,10.363X7.823*%
%ADD177C,0.203*%
%ADD178C,2.489*%
%ADD179C,6.553*%
%ADD180C,2.134*%
%ADD181C,6.045*%
%ADD182C,2.108*%
%ADD183R,2.108X2.108*%
%ADD184C,1.778*%
%ADD185R,1.930X1.930*%
%ADD186C,1.016*%
%ADD187R,24.333X1.727*%
%ADD188R,2.235X30.683*%
%ADD189R,1.219X1.118*%
%ADD190R,1.118X1.219*%
%ADD191R,0.965X0.965*%
%ADD192R,2.032X1.930*%
%ADD193R,2.235X4.013*%
%ADD194R,1.473X1.118*%
%ADD195R,2.489X3.251*%
%ADD196O,0.965X2.235*%
%ADD197R,1.397X0.991*%
%ADD198O,1.397X0.991*%
%ADD199R,5.283X2.235*%
%ADD200C,0.762*%
%ADD201R,46.101X0.889*%
%ADD202R,14.351X0.889*%
%ADD203R,14.224X0.889*%
%ADD204R,2.413X2.667*%
%ADD205R,2.413X1.397*%
%AMTHD206*
7,0,0,1.981,1.473,0.254,45*
%
%ADD206THD206*%
%ADD207C,1.219*%
%ADD208C,1.397*%
%ADD209C,1.321*%
%ADD210C,1.422*%
%ADD211C,3.810*%
%AMTHD212*
7,0,0,4.572,4.064,0.254,45*
%
%ADD212THD212*%
%AMTHD213*
7,0,0,2.184,1.676,0.254,45*
%
%ADD213THD213*%
%ADD214C,3.556*%
%AMTHD215*
7,0,0,2.845,2.337,0.254,45*
%
%ADD215THD215*%
%AMTHD216*
7,0,0,2.083,1.575,0.254,45*
%
%ADD216THD216*%
%AMTHD217*
7,0,0,2.413,1.905,0.254,45*
%
%ADD217THD217*%
%ADD218C,1.143*%
%AMTHD219*
7,0,0,1.905,1.397,0.254,45*
%
%ADD219THD219*%
%ADD220C,0.889*%
%AMTHD221*
7,0,0,2.159,1.651,0.254,45*
%
%ADD221THD221*%
D67*
X0120142Y0026518D02*
X0127508Y0019177D01*
X0130175Y0019177D01*
X0134747Y0009017D02*
X0134747Y0014605D01*
X0108331Y0026518D02*
X0120142Y0026518D01*
X0130175Y0019177D02*
X0134747Y0014605D01*
X0000762Y0011684D02*
X0000762Y0032639D01*
X0000762Y0011684D02*
X0031623Y0011684D01*
X0000762Y0032639D02*
X0008255Y0032639D01*
X0018034Y0022860D01*
X0031623Y0011684D02*
X0033274Y0013335D01*
X0037338Y0013335D01*
X0018034Y0022860D02*
X0035941Y0022860D01*
X0037338Y0013335D02*
X0037338Y0021463D01*
X0035941Y0022860D02*
X0037338Y0021463D01*
X0000889Y0032893D02*
X0000889Y0045974D01*
X0018034Y0023114D02*
X0033020Y0023114D01*
X0008255Y0032893D02*
X0018034Y0023114D01*
X0000889Y0032893D02*
X0008255Y0032893D01*
X0000889Y0045974D02*
X0025781Y0045974D01*
X0027559Y0044196D01*
X0029464Y0026289D02*
X0029464Y0028448D01*
X0033020Y0023114D02*
X0033020Y0026289D01*
X0029464Y0026289D02*
X0033020Y0026289D01*
X0029464Y0028448D02*
X0036068Y0028448D01*
X0027559Y0044196D02*
X0034417Y0044196D01*
X0036068Y0028448D02*
X0036068Y0042545D01*
X0034417Y0044196D02*
X0036068Y0042545D01*
D68*
X0111277Y0059792D02*
X0132994Y0059792D01*
X0132994Y0054458D02*
X0132994Y0059792D01*
X0111023Y0060046D02*
X0111277Y0059792D01*
X0116992Y0054458D02*
X0132994Y0054458D01*
X0114198Y0057252D02*
X0116992Y0054458D01*
X0109626Y0060046D02*
X0111023Y0060046D01*
X0107848Y0058268D02*
X0109626Y0060046D01*
X0107848Y0057252D02*
X0114198Y0057252D01*
X0107848Y0057252D02*
X0107848Y0058268D01*
X0129540Y0089408D02*
X0132461Y0086487D01*
X0132461Y0075057D02*
X0134747Y0072771D01*
X0132461Y0075057D02*
X0132461Y0086487D01*
X0123317Y0071120D02*
X0123317Y0073787D01*
X0134747Y0070358D02*
X0134747Y0072771D01*
X0124079Y0070358D02*
X0134747Y0070358D01*
X0123317Y0071120D02*
X0124079Y0070358D01*
X0120523Y0089408D02*
X0129540Y0089408D01*
X0115570Y0084455D02*
X0120523Y0089408D01*
X0113157Y0084455D02*
X0115570Y0084455D01*
X0116840Y0080264D02*
X0123317Y0073787D01*
X0113157Y0080264D02*
X0116840Y0080264D01*
X0113157Y0080264D02*
X0113157Y0084455D01*
X0125654Y0118618D02*
X0125654Y0128270D01*
X0124257Y0129667D02*
X0125654Y0128270D01*
X0125654Y0118618D02*
X0135052Y0118618D01*
X0107366Y0127762D02*
X0123622Y0127762D01*
X0105842Y0126238D02*
X0107366Y0127762D01*
X0135052Y0103683D02*
X0135052Y0118618D01*
X0133731Y0102362D02*
X0135052Y0103683D01*
X0123622Y0102362D02*
X0133731Y0102362D01*
X0123622Y0102362D02*
X0123622Y0127762D01*
X0105842Y0111252D02*
X0105842Y0126238D01*
X0103810Y0129667D02*
X0124257Y0129667D01*
X0103810Y0112649D02*
X0103810Y0129667D01*
X0074854Y0116967D02*
X0083490Y0116967D01*
X0064135Y0129667D02*
X0074854Y0129667D01*
X0074854Y0116967D02*
X0074854Y0129667D01*
X0105461Y0110871D02*
X0105842Y0111252D01*
X0087808Y0112649D02*
X0103810Y0112649D01*
X0064135Y0110871D02*
X0105461Y0110871D01*
X0064135Y0110871D02*
X0064135Y0129667D01*
X0083490Y0116967D02*
X0087808Y0112649D01*
X0117272Y0125984D02*
X0119431Y0123825D01*
X0107493Y0127635D02*
X0123495Y0127635D01*
X0110033Y0125984D02*
X0117272Y0125984D01*
X0107366Y0123317D02*
X0110033Y0125984D01*
X0107366Y0108712D02*
X0107366Y0123317D01*
X0123495Y0102362D02*
X0123495Y0127635D01*
X0122987Y0102362D02*
X0123495Y0102362D01*
X0119431Y0105918D02*
X0119431Y0123825D01*
X0119431Y0105918D02*
X0122987Y0102362D01*
X0105969Y0126111D02*
X0107493Y0127635D01*
X0105969Y0111252D02*
X0105969Y0126111D01*
X0105842Y0107188D02*
X0107366Y0108712D01*
X0105461Y0110744D02*
X0105969Y0111252D01*
X0064135Y0110744D02*
X0105461Y0110744D01*
X0082550Y0107188D02*
X0105842Y0107188D01*
X0080391Y0105029D02*
X0082550Y0107188D01*
X0064135Y0105029D02*
X0064135Y0110744D01*
X0064135Y0105029D02*
X0080391Y0105029D01*
X0107823Y0051181D02*
X0108712Y0050292D01*
X0107823Y0051181D02*
X0107823Y0057150D01*
X0114046Y0057150D01*
X0108712Y0050292D02*
X0132969Y0050292D01*
X0132969Y0054356D01*
X0114046Y0057150D02*
X0116840Y0054356D01*
X0132969Y0054356D01*
X0140081Y0066294D02*
X0140081Y0074422D01*
X0140589Y0065786D02*
X0142494Y0065786D01*
X0140081Y0066294D02*
X0140589Y0065786D01*
X0140081Y0074422D02*
X0142240Y0076581D01*
X0142113Y0070231D02*
X0144018Y0068326D01*
X0142113Y0073533D02*
X0143891Y0075311D01*
X0142113Y0070231D02*
X0142113Y0073533D01*
X0142494Y0065786D02*
X0144018Y0067310D01*
X0144018Y0068326D01*
X0142240Y0076581D02*
X0143510Y0076581D01*
X0143891Y0075311D02*
X0143891Y0076200D01*
X0143510Y0076581D02*
X0143891Y0076200D01*
X0134747Y0009144D02*
X0140335Y0009144D01*
X0134747Y0009144D02*
X0134747Y0013462D01*
X0137922Y0013462D01*
X0137922Y0035560D01*
X0140335Y0009144D02*
X0140335Y0031877D01*
X0187198Y0031877D01*
X0137922Y0035560D02*
X0140589Y0038227D01*
X0150495Y0037211D02*
X0151892Y0035814D01*
X0150495Y0037211D02*
X0150495Y0044069D01*
X0137541Y0048260D02*
X0140589Y0045212D01*
X0140589Y0038227D02*
X0140589Y0045212D01*
X0137541Y0048260D02*
X0137541Y0053086D01*
X0138303Y0053848D01*
X0140716Y0053848D01*
X0149479Y0051435D02*
X0156210Y0051435D01*
X0150495Y0044069D02*
X0150876Y0044450D01*
X0140716Y0053848D02*
X0141478Y0053086D01*
X0147828Y0053086D02*
X0149479Y0051435D01*
X0141478Y0053086D02*
X0147828Y0053086D01*
X0151892Y0035814D02*
X0153797Y0035814D01*
X0155702Y0037719D01*
X0155702Y0040386D01*
X0164084Y0038989D02*
X0167005Y0036068D01*
X0164084Y0038989D02*
X0164084Y0041656D01*
X0167005Y0036068D02*
X0168275Y0036068D01*
X0169037Y0036830D01*
X0167513Y0039497D02*
X0169037Y0037973D01*
X0187198Y0031877D02*
X0187198Y0043688D01*
X0169037Y0036830D02*
X0169037Y0037973D01*
X0150876Y0044450D02*
X0152527Y0044450D01*
X0155702Y0040386D02*
X0158496Y0043180D01*
X0152527Y0044450D02*
X0156718Y0048641D01*
X0156718Y0050927D01*
X0156210Y0051435D02*
X0156718Y0050927D01*
X0158496Y0043180D02*
X0162560Y0043180D01*
X0167513Y0039497D02*
X0167513Y0042037D01*
X0162560Y0043180D02*
X0164084Y0041656D01*
X0167513Y0042037D02*
X0169164Y0043688D01*
X0187198Y0043688D01*
X0134747Y0013589D02*
X0137795Y0013589D01*
X0137795Y0035687D01*
X0134747Y0013589D02*
X0134747Y0046101D01*
X0137795Y0035687D02*
X0140462Y0038354D01*
X0140462Y0045212D01*
X0150622Y0037211D02*
X0151892Y0035941D01*
X0153797Y0035941D01*
X0150622Y0037211D02*
X0150622Y0043942D01*
X0137414Y0048260D02*
X0140462Y0045212D01*
X0150622Y0043942D02*
X0151003Y0044323D01*
X0152527Y0044323D01*
X0133096Y0047752D02*
X0134747Y0046101D01*
X0137414Y0048260D02*
X0137414Y0053086D01*
X0138303Y0053975D01*
X0133096Y0047752D02*
X0133096Y0059817D01*
X0140716Y0053975D02*
X0141478Y0053213D01*
X0138303Y0053975D02*
X0140716Y0053975D01*
X0141478Y0053213D02*
X0147828Y0053213D01*
X0149479Y0051562D01*
X0156210Y0051562D01*
X0133096Y0059817D02*
X0147574Y0059817D01*
X0150241Y0057150D01*
X0154686Y0057150D01*
X0153797Y0035941D02*
X0155575Y0037719D01*
X0155575Y0040386D01*
X0158496Y0043307D01*
X0164211Y0038989D02*
X0164211Y0041656D01*
X0162560Y0043307D02*
X0164211Y0041656D01*
X0167005Y0036195D02*
X0168275Y0036195D01*
X0168910Y0036830D01*
X0168910Y0037973D01*
X0164211Y0038989D02*
X0167005Y0036195D01*
X0167386Y0039497D02*
X0168910Y0037973D01*
X0167386Y0039497D02*
X0167386Y0042037D01*
X0152527Y0044323D02*
X0156845Y0048641D01*
X0156845Y0050927D01*
X0156210Y0051562D02*
X0156845Y0050927D01*
X0154686Y0057150D02*
X0155956Y0055880D01*
X0160020Y0055880D02*
X0161925Y0053975D01*
X0155956Y0055880D02*
X0160020Y0055880D01*
X0158496Y0043307D02*
X0162560Y0043307D01*
X0167386Y0042037D02*
X0169164Y0043815D01*
X0187198Y0043815D01*
X0161925Y0053975D02*
X0182118Y0053975D01*
X0187198Y0043815D02*
X0187198Y0048895D01*
X0182118Y0053975D02*
X0187198Y0048895D01*
X0135255Y0103759D02*
X0136652Y0102362D01*
X0135255Y0103759D02*
X0135255Y0118618D01*
X0147574Y0118618D01*
X0136652Y0102362D02*
X0146431Y0102362D01*
X0147574Y0103505D01*
X0147574Y0118618D01*
X0144526Y0071374D02*
X0144907Y0070993D01*
X0144526Y0072263D02*
X0145288Y0073025D01*
X0143383Y0080645D02*
X0145288Y0078740D01*
X0143383Y0080645D02*
X0143383Y0082042D01*
X0143764Y0082423D01*
X0145669Y0082423D01*
X0144526Y0071374D02*
X0144526Y0072263D01*
X0144907Y0070993D02*
X0145796Y0070993D01*
X0146431Y0071628D01*
X0145288Y0073025D02*
X0145288Y0078740D01*
X0146431Y0071628D02*
X0146431Y0081661D01*
X0145669Y0082423D02*
X0146431Y0081661D01*
D70*
X0202311Y0009017D02*
X0202311Y0137541D01*
X0000762Y0137541D02*
X0202311Y0137541D01*
D75*
X0160274Y0077597D02*
X0160274Y0080772D01*
X0159385Y0081661D02*
X0160274Y0080772D01*
X0160782Y0077089D02*
X0173863Y0077089D01*
X0160274Y0077597D02*
X0160782Y0077089D01*
X0152019Y0083185D02*
X0153543Y0081661D01*
X0143002Y0083185D02*
X0152019Y0083185D01*
X0153543Y0081661D02*
X0159385Y0081661D01*
X0175006Y0067818D02*
X0175006Y0075946D01*
X0173863Y0077089D02*
X0175006Y0075946D01*
X0154686Y0067818D02*
X0175006Y0067818D01*
X0152908Y0066040D02*
X0154686Y0067818D01*
X0151384Y0066040D02*
X0152908Y0066040D01*
X0149479Y0064135D02*
X0151384Y0066040D01*
X0132207Y0093980D02*
X0143002Y0083185D01*
X0111887Y0093980D02*
X0132207Y0093980D01*
X0129667Y0089535D02*
X0132588Y0086614D01*
X0120396Y0089535D02*
X0129667Y0089535D01*
X0115443Y0084582D02*
X0120396Y0089535D01*
X0111887Y0084582D02*
X0111887Y0093980D01*
X0111887Y0084582D02*
X0115443Y0084582D01*
X0134874Y0070231D02*
X0134874Y0072898D01*
X0132588Y0075184D02*
X0134874Y0072898D01*
X0123698Y0064135D02*
X0149479Y0064135D01*
X0132588Y0075184D02*
X0132588Y0086614D01*
X0123698Y0070231D02*
X0134874Y0070231D01*
X0123698Y0064135D02*
X0123698Y0070231D01*
X0140462Y0028067D02*
X0140462Y0031750D01*
X0171450Y0031750D01*
X0140462Y0028067D02*
X0171450Y0028067D01*
X0171450Y0031750D01*
X0074981Y0117094D02*
X0083617Y0117094D01*
X0074981Y0117094D02*
X0074981Y0129667D01*
X0103683Y0129667D01*
X0083617Y0117094D02*
X0087935Y0112776D01*
X0103683Y0112776D01*
X0103683Y0129667D01*
X0048006Y0027178D02*
X0048006Y0029845D01*
X0056388Y0012446D02*
X0056388Y0018796D01*
X0042291Y0035560D02*
X0048006Y0029845D01*
X0042291Y0035560D02*
X0042291Y0064643D01*
X0057912Y0000889D02*
X0104140Y0000889D01*
X0057912Y0000889D02*
X0057912Y0010922D01*
X0048006Y0027178D02*
X0056388Y0018796D01*
X0056388Y0012446D02*
X0057912Y0010922D01*
X0041148Y0094869D02*
X0041275Y0065659D01*
X0042291Y0064643D01*
X0041148Y0094869D02*
X0045466Y0099187D01*
X0046863Y0099187D01*
X0050800Y0095250D02*
X0086233Y0095250D01*
X0091567Y0052578D02*
X0093599Y0054610D01*
X0046863Y0099187D02*
X0050800Y0095250D01*
X0086233Y0095250D02*
X0086233Y0103251D01*
X0093218Y0103251D01*
X0104140Y0000889D02*
X0104140Y0009017D01*
X0106172Y0007874D02*
X0106172Y0009017D01*
X0091567Y0026543D02*
X0104267Y0013843D01*
X0104140Y0009017D02*
X0106172Y0009017D01*
X0106172Y0007874D02*
X0109347Y0007874D01*
X0110236Y0008763D01*
X0109093Y0013843D02*
X0110236Y0012700D01*
X0110236Y0008763D02*
X0110236Y0012700D01*
X0091567Y0026543D02*
X0091567Y0052578D01*
X0093599Y0054610D02*
X0093599Y0091948D01*
X0093218Y0100584D02*
X0096266Y0100584D01*
X0093218Y0100584D02*
X0093218Y0103251D01*
X0093599Y0091948D02*
X0101854Y0100228D01*
X0104267Y0013843D02*
X0109093Y0013843D01*
X0096266Y0100584D02*
X0096266Y0103251D01*
X0101854Y0100228D02*
X0101854Y0103251D01*
X0096266Y0103251D02*
X0101854Y0103251D01*
X0001016Y0046228D02*
X0025781Y0046228D01*
X0027559Y0044450D02*
X0033909Y0044450D01*
X0001016Y0046228D02*
X0001016Y0137414D01*
X0025781Y0046228D02*
X0027559Y0044450D01*
X0140462Y0009398D02*
X0202057Y0009398D01*
X0140462Y0027813D02*
X0140462Y0027940D01*
X0033909Y0044450D02*
X0033909Y0097663D01*
X0039243Y0102997D01*
X0057023Y0102997D01*
X0059055Y0105029D01*
X0064008Y0105029D01*
X0064008Y0129794D01*
X0125857Y0118745D02*
X0147701Y0118745D01*
X0125857Y0118745D02*
X0125857Y0128270D01*
X0001016Y0137414D02*
X0202057Y0137414D01*
X0124333Y0129794D02*
X0125857Y0128270D01*
X0064008Y0129794D02*
X0124333Y0129794D01*
X0140462Y0009398D02*
X0140462Y0027813D01*
X0140462Y0027940D01*
X0175133Y0061722D02*
X0178816Y0058039D01*
X0182118Y0054102D02*
X0182118Y0058039D01*
X0140462Y0027813D02*
X0187452Y0027813D01*
X0187452Y0048768D01*
X0182118Y0054102D02*
X0187452Y0048768D01*
X0202057Y0009398D02*
X0202057Y0137414D01*
X0147701Y0103632D02*
X0159893Y0103632D01*
X0164211Y0092837D02*
X0164211Y0099314D01*
X0147701Y0103632D02*
X0147701Y0118745D01*
X0159893Y0103632D02*
X0164211Y0099314D01*
X0175133Y0061722D02*
X0175133Y0075946D01*
X0178816Y0058039D02*
X0182118Y0058039D01*
X0164211Y0092837D02*
X0173990Y0083058D01*
X0173990Y0077089D02*
X0175133Y0075946D01*
X0173990Y0077089D02*
X0173990Y0083058D01*
X0190246Y0012065D02*
X0190246Y0013081D01*
X0190754Y0013081D01*
X0190923Y0012911D01*
X0190923Y0012573D01*
X0190754Y0012404D01*
X0190246Y0012404D01*
X0191262Y0012911D02*
X0191431Y0013081D01*
X0191770Y0013081D01*
X0191939Y0012911D01*
X0191939Y0012742D01*
X0191770Y0012573D01*
X0191600Y0012573D01*
X0191770Y0012573D01*
X0191939Y0012404D01*
X0191939Y0012234D01*
X0191770Y0012065D01*
X0191431Y0012065D01*
X0191262Y0012234D01*
D77*
X0142113Y0044450D02*
X0145161Y0044450D01*
X0144526Y0043053D02*
X0144526Y0044069D01*
X0145161Y0043053D02*
X0145161Y0044450D01*
X0146939Y0045720D02*
X0150368Y0045720D01*
X0146939Y0045339D02*
X0148209Y0045339D01*
X0147828Y0045974D02*
X0147828Y0047117D01*
X0144653Y0044831D02*
X0144653Y0045847D01*
D81*
X0148209Y0124714D02*
D03*
X0153289Y0124714D02*
D03*
X0170307Y0095885D02*
D03*
X0168783Y0119634D02*
D03*
X0168783Y0124714D02*
D03*
X0168783Y0127254D02*
D03*
X0168783Y0129794D02*
D03*
X0163703Y0127254D02*
D03*
X0163703Y0119634D02*
D03*
X0179197Y0127254D02*
D03*
X0184277Y0127254D02*
D03*
X0184277Y0119634D02*
D03*
X0184277Y0129794D02*
D03*
X0179197Y0129794D02*
D03*
X0179197Y0119634D02*
D03*
X0184277Y0124714D02*
D03*
X0179197Y0124714D02*
D03*
X0194691Y0124714D02*
D03*
X0199771Y0129794D02*
D03*
X0194691Y0119634D02*
D03*
X0194691Y0129794D02*
D03*
X0199771Y0124714D02*
D03*
X0199771Y0119634D02*
D03*
X0176530Y0119634D02*
D03*
X0176530Y0124714D02*
D03*
X0176530Y0127254D02*
D03*
X0176530Y0129794D02*
D03*
X0171450Y0129794D02*
D03*
X0171450Y0127254D02*
D03*
X0171450Y0124714D02*
D03*
X0171450Y0119634D02*
D03*
X0155956Y0124714D02*
D03*
X0155956Y0127254D02*
D03*
X0155956Y0129794D02*
D03*
X0161036Y0127254D02*
D03*
X0161036Y0119634D02*
D03*
X0155956Y0119634D02*
D03*
X0180467Y0095885D02*
D03*
X0197739Y0022733D02*
D03*
X0148971Y0020701D02*
D03*
X0159131Y0020701D02*
D03*
X0159131Y0025781D02*
D03*
X0154051Y0020701D02*
D03*
X0154051Y0025781D02*
D03*
X0148971Y0025781D02*
D03*
X0197739Y0027813D02*
D03*
X0189484Y0043434D02*
D03*
X0189484Y0045974D02*
D03*
X0194564Y0045974D02*
D03*
X0194564Y0040894D02*
D03*
X0189484Y0040894D02*
D03*
X0197739Y0032893D02*
D03*
X0189484Y0035814D02*
D03*
X0192659Y0022733D02*
D03*
X0194564Y0043434D02*
D03*
X0192659Y0027813D02*
D03*
X0192659Y0032893D02*
D03*
X0194564Y0035814D02*
D03*
X0176403Y0025781D02*
D03*
X0181483Y0025781D02*
D03*
X0181483Y0020701D02*
D03*
X0186563Y0025781D02*
D03*
X0186563Y0020701D02*
D03*
X0176403Y0020701D02*
D03*
X0022987Y0101600D02*
D03*
X0022987Y0096520D02*
D03*
X0022987Y0091440D02*
D03*
X0028067Y0091440D02*
D03*
X0028067Y0096520D02*
D03*
X0028067Y0101600D02*
D03*
X0162941Y0115697D02*
D03*
X0162941Y0110617D02*
D03*
X0162941Y0108077D02*
D03*
X0162941Y0105537D02*
D03*
X0157861Y0105537D02*
D03*
X0157861Y0108077D02*
D03*
X0157861Y0110617D02*
D03*
X0157861Y0115697D02*
D03*
X0047498Y0129032D02*
D03*
X0052578Y0129032D02*
D03*
X0055118Y0129032D02*
D03*
X0057658Y0129032D02*
D03*
X0057658Y0123952D02*
D03*
X0055118Y0123952D02*
D03*
X0052578Y0123952D02*
D03*
X0047498Y0123952D02*
D03*
X0014351Y0118110D02*
D03*
X0011811Y0118110D02*
D03*
X0009271Y0118110D02*
D03*
X0009271Y0113030D02*
D03*
X0011811Y0113030D02*
D03*
X0014351Y0113030D02*
D03*
X0175387Y0095885D02*
D03*
X0177927Y0095885D02*
D03*
X0180467Y0090805D02*
D03*
X0177927Y0090805D02*
D03*
X0175387Y0090805D02*
D03*
X0170307Y0090805D02*
D03*
X0153289Y0119634D02*
D03*
X0019431Y0118110D02*
D03*
X0019431Y0113030D02*
D03*
X0148209Y0119634D02*
D03*
X0192024Y0124714D02*
D03*
X0186944Y0124714D02*
D03*
X0192024Y0119634D02*
D03*
X0186944Y0119634D02*
D03*
X0192024Y0129794D02*
D03*
X0186944Y0129794D02*
D03*
X0192024Y0127254D02*
D03*
X0186944Y0127254D02*
D03*
X0191262Y0090805D02*
D03*
X0191262Y0095885D02*
D03*
X0186182Y0090805D02*
D03*
X0196342Y0095885D02*
D03*
X0196342Y0090805D02*
D03*
X0186182Y0095885D02*
D03*
X0184023Y0020701D02*
D03*
X0197739Y0025273D02*
D03*
X0184023Y0025781D02*
D03*
X0192659Y0025273D02*
D03*
X0156591Y0020701D02*
D03*
X0193802Y0095885D02*
D03*
X0156591Y0025781D02*
D03*
X0193802Y0090805D02*
D03*
X0199771Y0127254D02*
D03*
X0194691Y0127254D02*
D03*
X0022987Y0093980D02*
D03*
X0028067Y0093980D02*
D03*
X0153289Y0127254D02*
D03*
X0163703Y0124714D02*
D03*
X0161036Y0124714D02*
D03*
X0148209Y0127254D02*
D03*
X0161036Y0129794D02*
D03*
X0163703Y0129794D02*
D03*
X0153289Y0129794D02*
D03*
X0148209Y0129794D02*
D03*
D82*
X0024130Y0017653D02*
D03*
D85*
X0190754Y0059563D02*
D03*
X0190754Y0087503D02*
D03*
X0180213Y0059436D02*
D03*
X0180213Y0087376D02*
D03*
D200*
X0106070Y0008077D02*
G03*
X0104216Y0008077I-0000927J0000000D01*
G01*
X0041440Y0008077D02*
G03*
X0040513Y0009004I-0000927J0000000D01*
G01*
X0121514Y0009004D02*
G03*
X0120587Y0008077I0000000J-0000927D01*
G01*
X0057810Y0008077D02*
G03*
X0055956Y0008077I-0000927J0000000D01*
G01*
X0016612Y0009004D02*
G03*
X0015684Y0008077I0000000J-0000927D01*
G01*
X0121514Y0009004D02*
X0202311Y0009017D01*
X0000673Y0000749D02*
X0015684Y0000749D01*
X0000673Y0000749D02*
X0000762Y0137541D01*
X0041440Y0008077D02*
X0041440Y0000749D01*
X0055956Y0000749D02*
X0055956Y0008077D01*
X0057810Y0000749D02*
X0057810Y0008077D01*
X0104216Y0000749D02*
X0104216Y0008077D01*
X0106070Y0000749D02*
X0106070Y0008077D01*
X0106070Y0000749D02*
X0120587Y0000749D01*
X0057810Y0000749D02*
X0104216Y0000749D01*
X0015684Y0000749D02*
X0015684Y0008077D01*
X0041440Y0000749D02*
X0055956Y0000749D01*
X0120587Y0000749D02*
X0120587Y0008077D01*
X0016624Y0009004D02*
X0040513Y0009004D01*
D201*
X0080963Y0001334D02*
D03*
D202*
X0113348Y0001334D02*
D03*
D203*
X0048641Y0001334D02*
D03*
D204*
X0191072Y0014542D02*
D03*
D205*
X0191072Y0011240D02*
D03*
D206*
X0029210Y0013589D02*
D03*
X0047879Y0061214D02*
D03*
X0103378Y0030607D02*
D03*
D207*
X0094488Y0128524D02*
D03*
X0094488Y0123444D02*
D03*
X0045212Y0101981D02*
D03*
X0050038Y0101981D02*
D03*
X0018440Y0042037D02*
D03*
X0025654Y0013589D02*
D03*
X0044323Y0061214D02*
D03*
X0011455Y0042037D02*
D03*
X0026416Y0048768D02*
D03*
X0026416Y0051308D02*
D03*
X0033020Y0058674D02*
D03*
X0033020Y0056134D02*
D03*
X0026416Y0055499D02*
D03*
X0026416Y0058039D02*
D03*
X0025273Y0042037D02*
D03*
X0025273Y0044577D02*
D03*
X0030988Y0030607D02*
D03*
X0028448Y0030607D02*
D03*
X0004216Y0044577D02*
D03*
X0004216Y0042037D02*
D03*
X0033020Y0051943D02*
D03*
X0033020Y0049403D02*
D03*
X0050419Y0013208D02*
D03*
X0052959Y0013208D02*
D03*
X0106934Y0030607D02*
D03*
X0011455Y0044577D02*
D03*
X0018440Y0044577D02*
D03*
D208*
X0032004Y0012573D02*
D03*
X0004318Y0013208D02*
D03*
X0009398Y0013208D02*
D03*
X0014478Y0013208D02*
D03*
X0014478Y0030988D02*
D03*
X0019558Y0013208D02*
D03*
X0019558Y0030988D02*
D03*
X0025019Y0078105D02*
D03*
X0025019Y0073025D02*
D03*
X0025019Y0063881D02*
D03*
X0025019Y0068961D02*
D03*
X0007747Y0107061D02*
D03*
X0007747Y0101981D02*
D03*
X0016764Y0101981D02*
D03*
X0016764Y0107061D02*
D03*
X0009398Y0030988D02*
D03*
D209*
X0122301Y0121539D02*
D03*
X0114681Y0124079D02*
D03*
X0114681Y0121539D02*
D03*
X0073203Y0109474D02*
D03*
X0075743Y0109474D02*
D03*
X0075743Y0101854D02*
D03*
X0073203Y0101854D02*
D03*
X0080823Y0109474D02*
D03*
X0078283Y0109474D02*
D03*
X0078283Y0101854D02*
D03*
X0122225Y0105918D02*
D03*
X0122225Y0110998D02*
D03*
X0122225Y0108458D02*
D03*
X0114605Y0105918D02*
D03*
X0114605Y0113538D02*
D03*
X0114605Y0110998D02*
D03*
X0114605Y0108458D02*
D03*
X0099873Y0101854D02*
D03*
X0102413Y0109474D02*
D03*
X0097333Y0109474D02*
D03*
X0099873Y0109474D02*
D03*
X0097333Y0101854D02*
D03*
X0102413Y0101854D02*
D03*
X0122301Y0118999D02*
D03*
X0122301Y0116459D02*
D03*
X0114681Y0116459D02*
D03*
X0114681Y0118999D02*
D03*
X0086665Y0101854D02*
D03*
X0091745Y0109474D02*
D03*
X0089205Y0109474D02*
D03*
X0086665Y0109474D02*
D03*
X0084125Y0101854D02*
D03*
X0089205Y0101854D02*
D03*
D210*
X0144145Y0117729D02*
D03*
X0017264Y0054368D02*
D03*
X0017272Y0061976D02*
D03*
X0014732Y0055626D02*
D03*
X0014732Y0063246D02*
D03*
X0139065Y0117729D02*
D03*
X0141605Y0117729D02*
D03*
X0014732Y0078232D02*
D03*
X0014732Y0073152D02*
D03*
X0014732Y0070612D02*
D03*
X0017272Y0076962D02*
D03*
X0017264Y0074434D02*
D03*
X0017264Y0069354D02*
D03*
X0017264Y0059448D02*
D03*
X0014732Y0058166D02*
D03*
X0020828Y0130683D02*
D03*
X0018288Y0128143D02*
D03*
X0015748Y0130683D02*
D03*
X0038608Y0130683D02*
D03*
X0038608Y0128143D02*
D03*
X0036068Y0130683D02*
D03*
X0036068Y0128143D02*
D03*
X0033528Y0130683D02*
D03*
X0033528Y0128143D02*
D03*
X0030988Y0130683D02*
D03*
X0030988Y0128143D02*
D03*
X0028448Y0130683D02*
D03*
X0028448Y0128143D02*
D03*
X0025908Y0130683D02*
D03*
X0025908Y0128143D02*
D03*
X0023368Y0130683D02*
D03*
X0133477Y0117729D02*
D03*
X0130937Y0117729D02*
D03*
X0128397Y0117729D02*
D03*
D211*
X0152781Y0111633D02*
D03*
X0141605Y0128778D02*
D03*
X0008166Y0005575D02*
D03*
X0094742Y0022606D02*
D03*
X0130937Y0128778D02*
D03*
D212*
X0008166Y0090970D02*
D03*
X0198628Y0012954D02*
D03*
D213*
X0017264Y0056908D02*
D03*
X0014732Y0060706D02*
D03*
X0014732Y0075692D02*
D03*
X0017264Y0071894D02*
D03*
X0023368Y0128143D02*
D03*
X0020828Y0128143D02*
D03*
X0018288Y0130683D02*
D03*
X0015748Y0128143D02*
D03*
D214*
X0008382Y0064516D02*
D03*
X0008382Y0053086D02*
D03*
X0008382Y0068072D02*
D03*
X0008382Y0079502D02*
D03*
D215*
X0005334Y0051308D02*
D03*
X0005334Y0066294D02*
D03*
X0005334Y0081280D02*
D03*
X0005334Y0066294D02*
D03*
D216*
X0080823Y0101854D02*
D03*
X0122225Y0113538D02*
D03*
X0094793Y0109474D02*
D03*
X0122301Y0124079D02*
D03*
X0094793Y0101854D02*
D03*
X0091745Y0101854D02*
D03*
X0084125Y0109474D02*
D03*
D218*
X0101092Y0016002D02*
D03*
X0108712Y0016002D02*
D03*
X0116332Y0016002D02*
D03*
X0101092Y0023622D02*
D03*
X0108712Y0023622D02*
D03*
X0116332Y0023622D02*
D03*
X0022860Y0032004D02*
D03*
X0021844Y0043307D02*
D03*
X0022504Y0026137D02*
D03*
D220*
X0113157Y0120396D02*
D03*
X0096012Y0085166D02*
D03*
X0063373Y0078613D02*
D03*
X0112649Y0128270D02*
D03*
X0120396Y0129540D02*
D03*
X0109982Y0123571D02*
D03*
X0138430Y0111379D02*
D03*
X0036195Y0115062D02*
D03*
X0033782Y0114173D02*
D03*
X0031877Y0106426D02*
D03*
X0045720Y0064160D02*
D03*
X0124968Y0115824D02*
D03*
X0134493Y0114808D02*
D03*
X0139319Y0110744D02*
D03*
X0145034Y0114808D02*
D03*
X0135890Y0109982D02*
D03*
X0138811Y0109728D02*
D03*
X0135255Y0113411D02*
D03*
X0145796Y0107569D02*
D03*
X0125603Y0106680D02*
D03*
X0128524Y0104902D02*
D03*
X0124587Y0110617D02*
D03*
X0124587Y0113919D02*
D03*
X0011049Y0029159D02*
D03*
X0006223Y0025781D02*
D03*
X0004826Y0025781D02*
D03*
X0095504Y0031115D02*
D03*
X0099060Y0051816D02*
D03*
X0102870Y0052578D02*
D03*
X0099314Y0055118D02*
D03*
X0109728Y0047752D02*
D03*
X0109347Y0069977D02*
D03*
X0104521Y0056007D02*
D03*
X0110871Y0069469D02*
D03*
X0073787Y0127889D02*
D03*
X0066421Y0125603D02*
D03*
X0072517Y0119253D02*
D03*
X0084836Y0123063D02*
D03*
X0076454Y0121666D02*
D03*
X0148336Y0040894D02*
D03*
X0033325Y0028600D02*
D03*
X0020066Y0028880D02*
D03*
X0156489Y0089205D02*
D03*
X0146431Y0086004D02*
D03*
X0152273Y0086360D02*
D03*
X0146533Y0090907D02*
D03*
X0139751Y0090957D02*
D03*
X0144196Y0090145D02*
D03*
X0140741Y0085827D02*
D03*
X0095860Y0081026D02*
D03*
X0088341Y0087782D02*
D03*
X0042291Y0010287D02*
D03*
X0090424Y0076606D02*
D03*
X0090424Y0077648D02*
D03*
X0081382Y0068834D02*
D03*
X0086614Y0061493D02*
D03*
X0125679Y0022835D02*
D03*
X0031801Y0063170D02*
D03*
X0031801Y0064389D02*
D03*
X0032791Y0064491D02*
D03*
X0032766Y0065583D02*
D03*
X0093421Y0099543D02*
D03*
X0150241Y0100457D02*
D03*
X0178054Y0097536D02*
D03*
X0182372Y0106045D02*
D03*
X0176657Y0097384D02*
D03*
X0181356Y0105283D02*
D03*
X0167081Y0097130D02*
D03*
X0178486Y0085725D02*
D03*
X0181610Y0077800D02*
D03*
X0164846Y0097282D02*
D03*
X0185928Y0077800D02*
D03*
X0196520Y0087833D02*
D03*
X0197688Y0078588D02*
D03*
X0177546Y0104267D02*
D03*
X0183896Y0104267D02*
D03*
X0198653Y0097104D02*
D03*
X0143713Y0107366D02*
D03*
X0140513Y0108001D02*
D03*
X0154330Y0018898D02*
D03*
X0187071Y0106883D02*
D03*
X0176530Y0106756D02*
D03*
X0186944Y0122047D02*
D03*
X0132080Y0022098D02*
D03*
X0110033Y0028727D02*
D03*
X0105588Y0033172D02*
D03*
X0100355Y0035128D02*
D03*
X0132461Y0020574D02*
D03*
X0110007Y0029743D02*
D03*
X0106655Y0033096D02*
D03*
X0100889Y0036068D02*
D03*
X0027178Y0120853D02*
D03*
X0072873Y0096698D02*
D03*
X0135255Y0123063D02*
D03*
X0114224Y0103530D02*
D03*
X0118135Y0103530D02*
D03*
X0146355Y0094894D02*
D03*
X0119253Y0094869D02*
D03*
X0089408Y0096672D02*
D03*
X0089967Y0097536D02*
D03*
X0092126Y0097993D02*
D03*
X0092710Y0098806D02*
D03*
X0095428Y0099797D02*
D03*
X0112090Y0102311D02*
D03*
X0110388Y0103784D02*
D03*
X0093523Y0098171D02*
D03*
X0118237Y0108661D02*
D03*
X0118237Y0114097D02*
D03*
X0115316Y0122707D02*
D03*
X0040996Y0098019D02*
D03*
X0082880Y0096698D02*
D03*
X0080416Y0097663D02*
D03*
X0057125Y0103632D02*
D03*
X0056286Y0102895D02*
D03*
X0068326Y0097663D02*
D03*
X0100101Y0090856D02*
D03*
X0097917Y0090322D02*
D03*
X0039878Y0123190D02*
D03*
X0029058Y0098349D02*
D03*
X0043129Y0098019D02*
D03*
X0058826Y0102184D02*
D03*
X0055194Y0109220D02*
D03*
X0057988Y0101600D02*
D03*
X0055194Y0107950D02*
D03*
X0043434Y0058471D02*
D03*
X0041707Y0056642D02*
D03*
X0043129Y0055804D02*
D03*
X0041732Y0054813D02*
D03*
X0059436Y0088138D02*
D03*
X0044450Y0083439D02*
D03*
X0090576Y0102489D02*
D03*
X0103810Y0120015D02*
D03*
X0088443Y0119253D02*
D03*
X0083744Y0115697D02*
D03*
X0098603Y0110363D02*
D03*
X0080442Y0114427D02*
D03*
X0079553Y0115697D02*
D03*
X0079553Y0106934D02*
D03*
X0130937Y0102997D02*
D03*
X0141478Y0012954D02*
D03*
X0128397Y0022098D02*
D03*
X0134112Y0022987D02*
D03*
X0128397Y0020574D02*
D03*
X0145034Y0020066D02*
D03*
X0149352Y0014859D02*
D03*
X0155321Y0028524D02*
D03*
X0171196Y0046355D02*
D03*
X0053315Y0042164D02*
D03*
X0120269Y0075819D02*
D03*
X0131572Y0076454D02*
D03*
X0099568Y0029718D02*
D03*
X0043561Y0010287D02*
D03*
X0062484Y0012446D02*
D03*
X0068580Y0009906D02*
D03*
X0069215Y0012192D02*
D03*
X0072517Y0012573D02*
D03*
X0070358Y0015240D02*
D03*
X0069000Y0017106D02*
D03*
X0076962Y0008636D02*
D03*
X0070739Y0017145D02*
D03*
X0041402Y0044577D02*
D03*
X0028702Y0017729D02*
D03*
X0050419Y0027432D02*
D03*
X0057658Y0036449D02*
D03*
X0057658Y0054229D02*
D03*
X0063754Y0067310D02*
D03*
X0081407Y0081407D02*
D03*
X0070358Y0054864D02*
D03*
X0063373Y0062611D02*
D03*
X0063373Y0073914D02*
D03*
X0070358Y0081153D02*
D03*
X0077724Y0054864D02*
D03*
X0082550Y0054864D02*
D03*
X0090424Y0062738D02*
D03*
X0090424Y0066929D02*
D03*
X0090043Y0074295D02*
D03*
X0077978Y0082042D02*
D03*
X0121539Y0035052D02*
D03*
X0128143Y0038481D02*
D03*
X0123698Y0038481D02*
D03*
X0052451Y0040513D02*
D03*
X0049022Y0045466D02*
D03*
X0051892Y0066980D02*
D03*
X0063500Y0038608D02*
D03*
X0090551Y0035814D02*
D03*
X0098933Y0079883D02*
D03*
X0097180Y0078105D02*
D03*
X0101346Y0056388D02*
D03*
X0099441Y0059944D02*
D03*
X0097409Y0088798D02*
D03*
X0106807Y0090830D02*
D03*
X0099390Y0089814D02*
D03*
X0110363Y0080518D02*
D03*
X0134747Y0048387D02*
D03*
X0158115Y0049149D02*
D03*
X0150749Y0049784D02*
D03*
X0151638Y0037084D02*
D03*
X0134747Y0013589D02*
D03*
X0137033Y0090297D02*
D03*
X0138049Y0092583D02*
D03*
X0152908Y0077343D02*
D03*
X0154051Y0077470D02*
D03*
X0118618Y0089408D02*
D03*
X0115443Y0091440D02*
D03*
X0115037Y0083134D02*
D03*
X0116027Y0080950D02*
D03*
X0104089Y0086538D02*
D03*
X0114275Y0085700D02*
D03*
X0124206Y0080391D02*
D03*
X0122428Y0080391D02*
D03*
X0127762Y0088265D02*
D03*
X0126365Y0090551D02*
D03*
X0121158Y0088265D02*
D03*
X0120396Y0090551D02*
D03*
X0130302Y0073025D02*
D03*
X0100635Y0060579D02*
D03*
X0168529Y0056642D02*
D03*
X0173482Y0068580D02*
D03*
X0166116Y0068580D02*
D03*
X0160020Y0071628D02*
D03*
X0159893Y0075184D02*
D03*
X0166243Y0075184D02*
D03*
X0160909Y0072390D02*
D03*
X0165227Y0072390D02*
D03*
X0166116Y0071628D02*
D03*
X0162306Y0061214D02*
D03*
X0171577Y0059690D02*
D03*
X0163449Y0061214D02*
D03*
X0163449Y0055626D02*
D03*
X0159893Y0063500D02*
D03*
X0166243Y0063500D02*
D03*
X0162306Y0053340D02*
D03*
X0175514Y0053594D02*
D03*
X0169799Y0055245D02*
D03*
X0173348Y0052331D02*
D03*
X0177927Y0050546D02*
D03*
X0177419Y0052324D02*
D03*
X0177479Y0054931D02*
D03*
X0151130Y0052705D02*
D03*
X0167005Y0045339D02*
D03*
X0158115Y0051689D02*
D03*
X0158115Y0050419D02*
D03*
X0179705Y0045974D02*
D03*
X0176022Y0041656D02*
D03*
X0176022Y0043180D02*
D03*
X0171958Y0043815D02*
D03*
X0170561Y0043815D02*
D03*
X0172720Y0041021D02*
D03*
X0166878Y0042545D02*
D03*
X0166878Y0043688D02*
D03*
X0161290Y0044069D02*
D03*
X0162306Y0044704D02*
D03*
X0162179Y0043307D02*
D03*
X0168402Y0035814D02*
D03*
X0149098Y0035306D02*
D03*
X0166624Y0037084D02*
D03*
X0185420Y0036703D02*
D03*
X0186817Y0036703D02*
D03*
X0186055Y0040894D02*
D03*
X0181991Y0036246D02*
D03*
X0178029Y0036246D02*
D03*
X0148107Y0037059D02*
D03*
X0173228Y0036195D02*
D03*
X0168910Y0030480D02*
D03*
X0164084Y0035560D02*
D03*
X0158115Y0035433D02*
D03*
X0160655Y0035433D02*
D03*
X0160401Y0037084D02*
D03*
X0140078Y0052959D02*
D03*
X0135633Y0052324D02*
D03*
X0136903Y0052324D02*
D03*
X0153032Y0045720D02*
D03*
X0151282Y0046990D02*
D03*
X0138684Y0045085D02*
D03*
X0141097Y0045720D02*
D03*
X0140205Y0050546D02*
D03*
X0136141Y0053594D02*
D03*
X0138808Y0054737D02*
D03*
X0144269Y0052959D02*
D03*
X0146428Y0053721D02*
D03*
X0144269Y0054229D02*
D03*
X0144269Y0055499D02*
D03*
X0104140Y0082042D02*
D03*
X0104902Y0083541D02*
D03*
X0105054Y0084963D02*
D03*
X0105283Y0080899D02*
D03*
X0116840Y0078232D02*
D03*
X0114681Y0074295D02*
D03*
X0110871Y0075184D02*
D03*
X0114681Y0075819D02*
D03*
X0114554Y0077216D02*
D03*
X0113284Y0077343D02*
D03*
X0111760Y0077343D02*
D03*
X0110109Y0077343D02*
D03*
X0106934Y0077343D02*
D03*
X0108585Y0077343D02*
D03*
X0106299Y0075819D02*
D03*
X0114808Y0072517D02*
D03*
X0110109Y0068707D02*
D03*
X0106934Y0068707D02*
D03*
X0126111Y0052959D02*
D03*
X0122174Y0053213D02*
D03*
X0122301Y0049784D02*
D03*
X0120523Y0053086D02*
D03*
X0117348Y0053467D02*
D03*
X0116713Y0049657D02*
D03*
X0118110Y0049657D02*
D03*
X0116459Y0048260D02*
D03*
X0117348Y0044577D02*
D03*
X0114935Y0043942D02*
D03*
X0099695Y0027559D02*
D03*
X0110998Y0043180D02*
D03*
X0130302Y0046863D02*
D03*
X0124587Y0047117D02*
D03*
X0127762Y0045466D02*
D03*
X0125984Y0046863D02*
D03*
X0127635Y0044323D02*
D03*
X0119634Y0043180D02*
D03*
X0119761Y0041783D02*
D03*
X0122682Y0044958D02*
D03*
X0124079Y0043053D02*
D03*
X0120523Y0047244D02*
D03*
X0118745Y0044958D02*
D03*
X0123825Y0041783D02*
D03*
X0131064Y0038481D02*
D03*
X0130302Y0029972D02*
D03*
X0126619Y0034036D02*
D03*
X0128397Y0034036D02*
D03*
X0109601Y0044958D02*
D03*
X0111506Y0044958D02*
D03*
X0114808Y0044958D02*
D03*
X0098679Y0049657D02*
D03*
X0098806Y0044450D02*
D03*
X0098679Y0036830D02*
D03*
X0096393Y0043434D02*
D03*
X0090551Y0053340D02*
D03*
X0069596Y0035306D02*
D03*
X0073609Y0029337D02*
D03*
X0073228Y0034036D02*
D03*
X0074879Y0029972D02*
D03*
X0066040Y0028397D02*
D03*
X0064313Y0028397D02*
D03*
X0088621Y0029312D02*
D03*
X0069596Y0032385D02*
D03*
X0077419Y0033655D02*
D03*
X0072492Y0043637D02*
D03*
X0077419Y0028575D02*
D03*
X0074879Y0033655D02*
D03*
X0063271Y0028397D02*
D03*
X0057658Y0060960D02*
D03*
X0048133Y0050546D02*
D03*
X0053975Y0053848D02*
D03*
X0064770Y0042291D02*
D03*
X0083566Y0041529D02*
D03*
X0060071Y0055118D02*
D03*
X0061849Y0044450D02*
D03*
X0054229Y0058039D02*
D03*
X0055499Y0058039D02*
D03*
X0055372Y0060706D02*
D03*
X0056515Y0053340D02*
D03*
X0091669Y0082067D02*
D03*
X0085090Y0021463D02*
D03*
X0076327Y0021412D02*
D03*
X0061087Y0021285D02*
D03*
X0088595Y0033680D02*
D03*
X0083566Y0042672D02*
D03*
X0088773Y0041529D02*
D03*
X0087122Y0044323D02*
D03*
X0062484Y0047625D02*
D03*
X0063094Y0048438D02*
D03*
X0062738Y0046609D02*
D03*
X0061595Y0048260D02*
D03*
X0061595Y0049721D02*
D03*
X0065913Y0048514D02*
D03*
X0066370Y0049581D02*
D03*
X0066802Y0047371D02*
D03*
X0067412Y0048514D02*
D03*
X0065329Y0050622D02*
D03*
X0056642Y0049784D02*
D03*
X0058649Y0035255D02*
D03*
X0059690Y0036271D02*
D03*
X0063119Y0042291D02*
D03*
X0059309Y0058293D02*
D03*
X0062865Y0040640D02*
D03*
X0059436Y0057277D02*
D03*
X0063373Y0053848D02*
D03*
X0064770Y0040640D02*
D03*
X0072695Y0085674D02*
D03*
X0062611Y0082169D02*
D03*
X0088341Y0084912D02*
D03*
X0089408Y0081915D02*
D03*
X0080264Y0082042D02*
D03*
X0084150Y0084861D02*
D03*
X0073025Y0054864D02*
D03*
X0068580Y0054864D02*
D03*
X0048895Y0012065D02*
D03*
X0060071Y0017272D02*
D03*
X0114808Y0010160D02*
D03*
X0113919Y0008763D02*
D03*
X0110871Y0009398D02*
D03*
X0064135Y0011430D02*
D03*
X0042799Y0016002D02*
D03*
X0044831Y0009017D02*
D03*
X0054610Y0009017D02*
D03*
X0112903Y0009017D02*
D03*
X0101981Y0009017D02*
D03*
X0099695Y0009017D02*
D03*
X0094488Y0009017D02*
D03*
X0088265Y0008890D02*
D03*
X0084709Y0009017D02*
D03*
X0079121Y0009017D02*
D03*
X0071501Y0009017D02*
D03*
X0069469Y0009144D02*
D03*
X0063119Y0009017D02*
D03*
X0060071Y0009017D02*
D03*
X0035433Y0018872D02*
D03*
X0036195Y0021539D02*
D03*
X0073279Y0011811D02*
D03*
X0082804Y0009906D02*
D03*
X0072314Y0021412D02*
D03*
X0084963Y0010795D02*
D03*
X0075565Y0017145D02*
D03*
X0109093Y0010160D02*
D03*
X0107188Y0011938D02*
D03*
X0101981Y0010668D02*
D03*
X0098806Y0012319D02*
D03*
X0099060Y0010033D02*
D03*
X0096647Y0010287D02*
D03*
X0080899Y0014605D02*
D03*
X0094361Y0010287D02*
D03*
X0082804Y0047879D02*
D03*
X0084074Y0048006D02*
D03*
X0085217Y0048006D02*
D03*
X0087452Y0081915D02*
D03*
X0085090Y0081915D02*
D03*
X0082347Y0081915D02*
D03*
X0079121Y0082042D02*
D03*
X0074549Y0082042D02*
D03*
X0064389Y0050165D02*
D03*
X0071374Y0081915D02*
D03*
X0063373Y0050419D02*
D03*
X0068326Y0081915D02*
D03*
X0062230Y0050521D02*
D03*
X0065659Y0082042D02*
D03*
X0063373Y0065659D02*
D03*
X0063373Y0064262D02*
D03*
X0047371Y0072390D02*
D03*
X0046228Y0072390D02*
D03*
X0045644Y0074092D02*
D03*
X0044729Y0074930D02*
D03*
X0060376Y0061138D02*
D03*
X0045085Y0072136D02*
D03*
X0043866Y0078232D02*
D03*
X0055880Y0072517D02*
D03*
X0056515Y0073279D02*
D03*
X0055880Y0074092D02*
D03*
X0056515Y0074930D02*
D03*
X0055880Y0075768D02*
D03*
X0043891Y0075946D02*
D03*
X0056515Y0076606D02*
D03*
X0044679Y0076708D02*
D03*
X0055880Y0077546D02*
D03*
X0046558Y0077394D02*
D03*
X0047498Y0077978D02*
D03*
X0056515Y0078867D02*
D03*
X0063373Y0057658D02*
D03*
X0063373Y0059309D02*
D03*
X0063373Y0070993D02*
D03*
X0060325Y0074803D02*
D03*
X0060300Y0067843D02*
D03*
X0063373Y0076708D02*
D03*
X0063373Y0080899D02*
D03*
X0045593Y0088138D02*
D03*
X0056515Y0080391D02*
D03*
X0047879Y0081788D02*
D03*
X0057099Y0083160D02*
D03*
X0047320Y0083693D02*
D03*
X0057125Y0084582D02*
D03*
X0045212Y0084658D02*
D03*
X0058191Y0084150D02*
D03*
X0045847Y0083820D02*
D03*
X0058928Y0084963D02*
D03*
X0046558Y0088697D02*
D03*
X0058166Y0085725D02*
D03*
X0047549Y0088138D02*
D03*
X0058928Y0086487D02*
D03*
X0048412Y0088697D02*
D03*
X0058039Y0087249D02*
D03*
X0049454Y0088697D02*
D03*
X0069596Y0081915D02*
D03*
X0061214Y0087071D02*
D03*
X0049403Y0081788D02*
D03*
X0060198Y0087452D02*
D03*
X0044196Y0082423D02*
D03*
X0075438Y0054864D02*
D03*
X0079502Y0054864D02*
D03*
X0083693Y0054864D02*
D03*
X0090424Y0056134D02*
D03*
X0090424Y0060579D02*
D03*
X0090424Y0065151D02*
D03*
X0090424Y0069088D02*
D03*
X0090424Y0071628D02*
D03*
X0093472Y0075565D02*
D03*
X0090424Y0080518D02*
D03*
X0073279Y0081915D02*
D03*
X0076708Y0082042D02*
D03*
X0077470Y0044069D02*
D03*
X0075692Y0044069D02*
D03*
X0059182Y0067564D02*
D03*
X0062865Y0037465D02*
D03*
X0051460Y0029337D02*
D03*
X0086360Y0048006D02*
D03*
X0087122Y0047117D02*
D03*
X0064770Y0043942D02*
D03*
X0088011Y0046355D02*
D03*
X0050609Y0045402D02*
D03*
X0069799Y0028067D02*
D03*
X0051816Y0012319D02*
D03*
X0058928Y0009779D02*
D03*
X0051054Y0014986D02*
D03*
X0045466Y0025019D02*
D03*
X0044704Y0014097D02*
D03*
X0052324Y0034163D02*
D03*
X0054356Y0040005D02*
D03*
X0054737Y0042037D02*
D03*
X0053086Y0032639D02*
D03*
X0053848Y0033655D02*
D03*
X0093853Y0027178D02*
D03*
X0094920Y0032207D02*
D03*
X0122174Y0011684D02*
D03*
X0122784Y0014478D02*
D03*
X0122047Y0020066D02*
D03*
X0093726Y0034798D02*
D03*
X0100838Y0046609D02*
D03*
X0101092Y0038735D02*
D03*
X0117221Y0032004D02*
D03*
X0123698Y0039624D02*
D03*
X0132207Y0055753D02*
D03*
X0123571Y0055245D02*
D03*
X0129921Y0053340D02*
D03*
X0128651Y0053340D02*
D03*
X0130048Y0055626D02*
D03*
X0085852Y0054864D02*
D03*
X0073635Y0085242D02*
D03*
X0093447Y0037668D02*
D03*
X0118110Y0012573D02*
D03*
X0117094Y0012573D02*
D03*
X0050673Y0016002D02*
D03*
X0127889Y0017145D02*
D03*
X0145288Y0030607D02*
D03*
X0155626Y0035433D02*
D03*
X0155702Y0051689D02*
D03*
X0156083Y0053340D02*
D03*
X0151511Y0051435D02*
D03*
X0181864Y0047371D02*
D03*
X0135001Y0019558D02*
D03*
X0120650Y0065659D02*
D03*
X0120650Y0059182D02*
D03*
X0118364Y0066167D02*
D03*
X0101981Y0033655D02*
D03*
X0103632Y0058293D02*
D03*
X0036779Y0011074D02*
D03*
X0105283Y0063881D02*
D03*
X0072212Y0100457D02*
D03*
X0113157Y0050800D02*
D03*
X0115062Y0058293D02*
D03*
X0169672Y0082169D02*
D03*
X0169672Y0080010D02*
D03*
X0167894Y0078613D02*
D03*
X0163195Y0082931D02*
D03*
X0105664Y0056896D02*
D03*
X0109093Y0051181D02*
D03*
X0153416Y0088519D02*
D03*
X0141859Y0082677D02*
D03*
X0056642Y0040132D02*
D03*
X0053594Y0057023D02*
D03*
X0053340Y0048260D02*
D03*
X0059690Y0056134D02*
D03*
X0059690Y0037338D02*
D03*
X0058928Y0033401D02*
D03*
X0062967Y0034671D02*
D03*
X0065557Y0034925D02*
D03*
X0057277Y0030226D02*
D03*
X0067488Y0034925D02*
D03*
X0068605Y0033757D02*
D03*
X0068580Y0028092D02*
D03*
X0070866Y0024714D02*
D03*
X0079959Y0024536D02*
D03*
X0081153Y0028042D02*
D03*
X0079959Y0028118D02*
D03*
X0085217Y0036068D02*
D03*
X0084303Y0029235D02*
D03*
X0085293Y0029743D02*
D03*
X0084455Y0034544D02*
D03*
X0081940Y0034544D02*
D03*
X0083591Y0028448D02*
D03*
X0094336Y0028575D02*
D03*
X0085471Y0024130D02*
D03*
X0095250Y0028092D02*
D03*
X0080899Y0032004D02*
D03*
X0112141Y0021844D02*
D03*
X0149479Y0029337D02*
D03*
X0181483Y0029972D02*
D03*
X0041275Y0038989D02*
D03*
X0045898Y0043307D02*
D03*
X0027661Y0028651D02*
D03*
X0026543Y0020142D02*
D03*
X0025425Y0022352D02*
D03*
X0026670Y0025222D02*
D03*
X0010287Y0035712D02*
D03*
X0140335Y0102235D02*
D03*
X0141783Y0101473D02*
D03*
X0128651Y0114046D02*
D03*
X0053086Y0105410D02*
D03*
X0053111Y0106629D02*
D03*
X0040640Y0105410D02*
D03*
X0040640Y0106680D02*
D03*
X0053213Y0111760D02*
D03*
X0053213Y0113030D02*
D03*
X0040640Y0111760D02*
D03*
X0047498Y0102489D02*
D03*
X0058547Y0109220D02*
D03*
X0046101Y0109220D02*
D03*
X0102108Y0124206D02*
D03*
X0101524Y0116205D02*
D03*
X0094996Y0116459D02*
D03*
X0092837Y0117475D02*
D03*
X0089047Y0114711D02*
D03*
X0105207Y0125603D02*
D03*
X0144145Y0093091D02*
D03*
X0143434Y0093904D02*
D03*
X0150368Y0089662D02*
D03*
X0160401Y0091872D02*
D03*
X0152146Y0085217D02*
D03*
X0078283Y0111887D02*
D03*
X0078537Y0118237D02*
D03*
X0078283Y0122682D02*
D03*
X0077851Y0125730D02*
D03*
X0086157Y0125476D02*
D03*
X0083490Y0125476D02*
D03*
X0107239Y0127762D02*
D03*
X0124460Y0104521D02*
D03*
X0123571Y0107188D02*
D03*
X0070282Y0110109D02*
D03*
X0071425Y0117221D02*
D03*
X0071425Y0113665D02*
D03*
X0031115Y0035433D02*
D03*
X0029591Y0032004D02*
D03*
X0026924Y0032004D02*
D03*
X0030607Y0039497D02*
D03*
X0029591Y0048133D02*
D03*
X0024511Y0119126D02*
D03*
X0021336Y0119126D02*
D03*
X0035128Y0061595D02*
D03*
X0035509Y0062509D02*
D03*
X0035865Y0063449D02*
D03*
X0041224Y0064973D02*
D03*
X0033045Y0067513D02*
D03*
X0026873Y0103175D02*
D03*
X0033782Y0104648D02*
D03*
X0033782Y0107315D02*
D03*
X0033782Y0117348D02*
D03*
X0031623Y0116332D02*
D03*
X0041529Y0120015D02*
D03*
X0051435Y0122809D02*
D03*
X0038227Y0102083D02*
D03*
X0038227Y0103099D02*
D03*
X0039776Y0102565D02*
D03*
X0065811Y0103353D02*
D03*
X0067742Y0103378D02*
D03*
X0084277Y0098628D02*
D03*
X0085293Y0099009D02*
D03*
X0086411Y0098298D02*
D03*
X0091719Y0105512D02*
D03*
X0089383Y0088163D02*
D03*
X0084353Y0088163D02*
D03*
X0091034Y0087681D02*
D03*
X0082956Y0087401D02*
D03*
X0093015Y0088163D02*
D03*
X0081559Y0088163D02*
D03*
X0109245Y0103810D02*
D03*
X0120269Y0094412D02*
D03*
X0144526Y0094209D02*
D03*
X0118135Y0121463D02*
D03*
X0094234Y0100178D02*
D03*
X0040640Y0113030D02*
D03*
X0044196Y0113030D02*
D03*
X0128702Y0110871D02*
D03*
X0040640Y0114300D02*
D03*
X0053213Y0114300D02*
D03*
X0155702Y0010922D02*
D03*
X0044704Y0115062D02*
D03*
X0046101Y0111760D02*
D03*
X0058547Y0111760D02*
D03*
X0111557Y0112141D02*
D03*
X0105791Y0132918D02*
D03*
X0101092Y0114300D02*
D03*
X0098679Y0114554D02*
D03*
X0140614Y0058420D02*
D03*
X0135433Y0058064D02*
D03*
X0137541Y0058141D02*
D03*
X0063805Y0096698D02*
D03*
X0060325Y0079502D02*
D03*
X0056820Y0096698D02*
D03*
X0056515Y0059182D02*
D03*
X0090297Y0064059D02*
D03*
X0090297Y0070434D02*
D03*
X0148819Y0095580D02*
D03*
X0148819Y0097333D02*
D03*
X0111252Y0040894D02*
D03*
X0111252Y0037338D02*
D03*
X0113157Y0035687D02*
D03*
X0116713Y0035687D02*
D03*
X0114935Y0042545D02*
D03*
X0113030Y0042545D02*
D03*
X0117475Y0042037D02*
D03*
X0118491Y0039116D02*
D03*
X0114808Y0039116D02*
D03*
X0095072Y0077826D02*
D03*
X0003048Y0101092D02*
D03*
X0005334Y0101092D02*
D03*
X0145288Y0048260D02*
D03*
X0147828Y0049530D02*
D03*
X0155219Y0049073D02*
D03*
X0152756Y0048260D02*
D03*
X0138862Y0037313D02*
D03*
X0144704Y0037186D02*
D03*
X0141783Y0037211D02*
D03*
X0145263Y0035331D02*
D03*
X0115951Y0009398D02*
D03*
X0045085Y0032563D02*
D03*
X0043739Y0021971D02*
D03*
X0156489Y0100203D02*
D03*
X0161036Y0087630D02*
D03*
X0159309Y0089281D02*
D03*
X0148920Y0085166D02*
D03*
X0029896Y0026492D02*
D03*
X0029896Y0025222D02*
D03*
X0034671Y0028804D02*
D03*
X0044958Y0049682D02*
D03*
X0154813Y0106045D02*
D03*
X0151130Y0102870D02*
D03*
X0146304Y0127381D02*
D03*
X0061849Y0120142D02*
D03*
X0135636Y0105918D02*
D03*
X0120777Y0102870D02*
D03*
X0115316Y0094920D02*
D03*
X0147066Y0128397D02*
D03*
X0174625Y0110490D02*
D03*
X0147320Y0116713D02*
D03*
X0163957Y0114173D02*
D03*
X0164592Y0109601D02*
D03*
X0149479Y0125984D02*
D03*
X0017501Y0033782D02*
D03*
X0022479Y0029718D02*
D03*
X0009728Y0021209D02*
D03*
D221*
X0047244Y0012573D02*
D03*
X0004318Y0030988D02*
D03*
M02*
